%TF.GenerationSoftware,KiCad,Pcbnew,8.0.5*%
%TF.CreationDate,2024-10-20T13:56:42+02:00*%
%TF.ProjectId,Flight_Controller,466c6967-6874-45f4-936f-6e74726f6c6c,rev?*%
%TF.SameCoordinates,Original*%
%TF.FileFunction,Legend,Bot*%
%TF.FilePolarity,Positive*%
%FSLAX46Y46*%
G04 Gerber Fmt 4.6, Leading zero omitted, Abs format (unit mm)*
G04 Created by KiCad (PCBNEW 8.0.5) date 2024-10-20 13:56:42*
%MOMM*%
%LPD*%
G01*
G04 APERTURE LIST*
%ADD10C,0.150000*%
%ADD11C,0.120000*%
%ADD12C,0.200000*%
%ADD13C,0.100000*%
%ADD14C,0.250000*%
%ADD15C,0.254000*%
G04 APERTURE END LIST*
D10*
X86992857Y-24281976D02*
X86992857Y-24996261D01*
X86992857Y-24996261D02*
X87040476Y-25139118D01*
X87040476Y-25139118D02*
X87135714Y-25234357D01*
X87135714Y-25234357D02*
X87278571Y-25281976D01*
X87278571Y-25281976D02*
X87373809Y-25281976D01*
X86754762Y-25377214D02*
X85992857Y-25377214D01*
X85421428Y-24758166D02*
X85278571Y-24805785D01*
X85278571Y-24805785D02*
X85230952Y-24853404D01*
X85230952Y-24853404D02*
X85183333Y-24948642D01*
X85183333Y-24948642D02*
X85183333Y-25091499D01*
X85183333Y-25091499D02*
X85230952Y-25186737D01*
X85230952Y-25186737D02*
X85278571Y-25234357D01*
X85278571Y-25234357D02*
X85373809Y-25281976D01*
X85373809Y-25281976D02*
X85754761Y-25281976D01*
X85754761Y-25281976D02*
X85754761Y-24281976D01*
X85754761Y-24281976D02*
X85421428Y-24281976D01*
X85421428Y-24281976D02*
X85326190Y-24329595D01*
X85326190Y-24329595D02*
X85278571Y-24377214D01*
X85278571Y-24377214D02*
X85230952Y-24472452D01*
X85230952Y-24472452D02*
X85230952Y-24567690D01*
X85230952Y-24567690D02*
X85278571Y-24662928D01*
X85278571Y-24662928D02*
X85326190Y-24710547D01*
X85326190Y-24710547D02*
X85421428Y-24758166D01*
X85421428Y-24758166D02*
X85754761Y-24758166D01*
X84564285Y-24281976D02*
X84373809Y-24281976D01*
X84373809Y-24281976D02*
X84278571Y-24329595D01*
X84278571Y-24329595D02*
X84183333Y-24424833D01*
X84183333Y-24424833D02*
X84135714Y-24615309D01*
X84135714Y-24615309D02*
X84135714Y-24948642D01*
X84135714Y-24948642D02*
X84183333Y-25139118D01*
X84183333Y-25139118D02*
X84278571Y-25234357D01*
X84278571Y-25234357D02*
X84373809Y-25281976D01*
X84373809Y-25281976D02*
X84564285Y-25281976D01*
X84564285Y-25281976D02*
X84659523Y-25234357D01*
X84659523Y-25234357D02*
X84754761Y-25139118D01*
X84754761Y-25139118D02*
X84802380Y-24948642D01*
X84802380Y-24948642D02*
X84802380Y-24615309D01*
X84802380Y-24615309D02*
X84754761Y-24424833D01*
X84754761Y-24424833D02*
X84659523Y-24329595D01*
X84659523Y-24329595D02*
X84564285Y-24281976D01*
X83516666Y-24281976D02*
X83326190Y-24281976D01*
X83326190Y-24281976D02*
X83230952Y-24329595D01*
X83230952Y-24329595D02*
X83135714Y-24424833D01*
X83135714Y-24424833D02*
X83088095Y-24615309D01*
X83088095Y-24615309D02*
X83088095Y-24948642D01*
X83088095Y-24948642D02*
X83135714Y-25139118D01*
X83135714Y-25139118D02*
X83230952Y-25234357D01*
X83230952Y-25234357D02*
X83326190Y-25281976D01*
X83326190Y-25281976D02*
X83516666Y-25281976D01*
X83516666Y-25281976D02*
X83611904Y-25234357D01*
X83611904Y-25234357D02*
X83707142Y-25139118D01*
X83707142Y-25139118D02*
X83754761Y-24948642D01*
X83754761Y-24948642D02*
X83754761Y-24615309D01*
X83754761Y-24615309D02*
X83707142Y-24424833D01*
X83707142Y-24424833D02*
X83611904Y-24329595D01*
X83611904Y-24329595D02*
X83516666Y-24281976D01*
X82802380Y-24281976D02*
X82230952Y-24281976D01*
X82516666Y-25281976D02*
X82516666Y-24281976D01*
X81373809Y-25281976D02*
X81945237Y-25281976D01*
X81659523Y-25281976D02*
X81659523Y-24281976D01*
X81659523Y-24281976D02*
X81754761Y-24424833D01*
X81754761Y-24424833D02*
X81849999Y-24520071D01*
X81849999Y-24520071D02*
X81945237Y-24567690D01*
D11*
%TO.C,C6*%
X82235000Y-38997737D02*
X82235000Y-38716577D01*
X83255000Y-38997737D02*
X83255000Y-38716577D01*
D12*
%TO.C,Q5*%
X95525000Y-26007157D02*
X95525000Y-31907157D01*
D13*
X96195000Y-25057157D02*
X96195000Y-25057157D01*
X96195000Y-25157157D02*
X96195000Y-25157157D01*
D12*
X100675000Y-26007157D02*
X100675000Y-31907157D01*
D13*
X96195000Y-25057157D02*
G75*
G02*
X96195000Y-25157157I0J-50000D01*
G01*
X96195000Y-25157157D02*
G75*
G02*
X96195000Y-25057157I0J50000D01*
G01*
%TO.C,Q2*%
X95115000Y-50407157D02*
X95115000Y-50407157D01*
X95115000Y-50507157D02*
X95115000Y-50507157D01*
X95115000Y-50407157D02*
G75*
G02*
X95115000Y-50507157I0J-50000D01*
G01*
X95115000Y-50507157D02*
G75*
G02*
X95115000Y-50407157I0J50000D01*
G01*
D11*
%TO.C,C22*%
X84184420Y-27672157D02*
X84465580Y-27672157D01*
X84184420Y-28692157D02*
X84465580Y-28692157D01*
%TO.C,C18*%
X80940000Y-32317737D02*
X80940000Y-32036577D01*
X81960000Y-32317737D02*
X81960000Y-32036577D01*
%TO.C,R25*%
X75827500Y-22119899D02*
X75827500Y-22594415D01*
X76872500Y-22119899D02*
X76872500Y-22594415D01*
%TO.C,C3*%
X44713580Y-29490000D02*
X44432420Y-29490000D01*
X44713580Y-30510000D02*
X44432420Y-30510000D01*
%TO.C,C22*%
X48190000Y-87540580D02*
X48190000Y-87259420D01*
X49210000Y-87540580D02*
X49210000Y-87259420D01*
%TO.C,C28*%
X54190000Y-87515580D02*
X54190000Y-87234420D01*
X55210000Y-87515580D02*
X55210000Y-87234420D01*
%TO.C,D4*%
X80450000Y-81500000D02*
X80450000Y-78840000D01*
X82150000Y-78840000D02*
X80450000Y-78840000D01*
X82150000Y-81500000D02*
X82150000Y-78840000D01*
%TO.C,R3*%
X30512258Y-83165000D02*
X30037742Y-83165000D01*
X30512258Y-84210000D02*
X30037742Y-84210000D01*
%TO.C,R5*%
X104687258Y-30934657D02*
X104212742Y-30934657D01*
X104687258Y-31979657D02*
X104212742Y-31979657D01*
%TO.C,C2*%
X50540165Y-27326000D02*
X50771835Y-27326000D01*
X50540165Y-28046000D02*
X50771835Y-28046000D01*
%TO.C,C18*%
X15940000Y-83527836D02*
X15940000Y-83312164D01*
X16660000Y-83527836D02*
X16660000Y-83312164D01*
%TO.C,C27*%
X40690000Y-87515580D02*
X40690000Y-87234420D01*
X41710000Y-87515580D02*
X41710000Y-87234420D01*
%TO.C,L2*%
X19895000Y-84333859D02*
X19895000Y-84641141D01*
X20655000Y-84333859D02*
X20655000Y-84641141D01*
%TO.C,R1*%
X60949258Y-45069500D02*
X60474742Y-45069500D01*
X60949258Y-46114500D02*
X60474742Y-46114500D01*
%TO.C,C23*%
X35187836Y-38502000D02*
X34972164Y-38502000D01*
X35187836Y-39222000D02*
X34972164Y-39222000D01*
%TO.C,C7*%
X82240000Y-44422737D02*
X82240000Y-44141577D01*
X83260000Y-44422737D02*
X83260000Y-44141577D01*
%TO.C,C3*%
X25534420Y-78077500D02*
X25815580Y-78077500D01*
X25534420Y-79097500D02*
X25815580Y-79097500D01*
%TO.C,R2*%
X65737258Y-99767500D02*
X65262742Y-99767500D01*
X65737258Y-100812500D02*
X65262742Y-100812500D01*
%TO.C,J_VUSB1*%
X92727500Y-27419899D02*
X92727500Y-27894415D01*
X93772500Y-27419899D02*
X93772500Y-27894415D01*
%TO.C,L1*%
X20965000Y-83313859D02*
X20965000Y-83621141D01*
X21725000Y-83313859D02*
X21725000Y-83621141D01*
D12*
%TO.C,IC1*%
X83945000Y-40407157D02*
X83945000Y-38882157D01*
X84100000Y-40757157D02*
X89000000Y-40757157D01*
X84100000Y-43957157D02*
X84100000Y-40757157D01*
X89000000Y-40757157D02*
X89000000Y-43957157D01*
X89000000Y-43957157D02*
X84100000Y-43957157D01*
D11*
%TO.C,C17*%
X48690000Y-38534420D02*
X48690000Y-38815580D01*
X49710000Y-38534420D02*
X49710000Y-38815580D01*
%TO.C,C18*%
X47351836Y-53234000D02*
X47136164Y-53234000D01*
X47351836Y-53954000D02*
X47136164Y-53954000D01*
%TO.C,R3*%
X102087258Y-48534657D02*
X101612742Y-48534657D01*
X102087258Y-49579657D02*
X101612742Y-49579657D01*
D14*
%TO.C,IC5*%
X48175000Y-37100000D02*
G75*
G02*
X47925000Y-37100000I-125000J0D01*
G01*
X47925000Y-37100000D02*
G75*
G02*
X48175000Y-37100000I125000J0D01*
G01*
D11*
%TO.C,R8*%
X82727500Y-34244415D02*
X82727500Y-33769899D01*
X83772500Y-34244415D02*
X83772500Y-33769899D01*
%TO.C,C5*%
X74250000Y-29716577D02*
X74250000Y-29997737D01*
X75270000Y-29716577D02*
X75270000Y-29997737D01*
%TO.C,C12*%
X49890580Y-49830000D02*
X49609420Y-49830000D01*
X49890580Y-50850000D02*
X49609420Y-50850000D01*
D12*
%TO.C,Q1*%
X100580000Y-51582157D02*
X100580000Y-57482157D01*
D13*
X101250000Y-50632157D02*
X101250000Y-50632157D01*
X101250000Y-50732157D02*
X101250000Y-50732157D01*
D12*
X105730000Y-51582157D02*
X105730000Y-57482157D01*
D13*
X101250000Y-50632157D02*
G75*
G02*
X101250000Y-50732157I0J-50000D01*
G01*
X101250000Y-50732157D02*
G75*
G02*
X101250000Y-50632157I0J50000D01*
G01*
%TO.C,IC2*%
X37108000Y-36850000D02*
X37808000Y-36850000D01*
X37108000Y-37100000D02*
X37108000Y-36850000D01*
X37108000Y-39100000D02*
X37108000Y-39350000D01*
X37108000Y-39350000D02*
X37808000Y-39350000D01*
X39408000Y-36850000D02*
X40108000Y-36850000D01*
X39408000Y-39350000D02*
X40108000Y-39350000D01*
X40108000Y-36850000D02*
X40108000Y-37100000D01*
X40108000Y-39350000D02*
X40108000Y-39200000D01*
X40508000Y-37300000D02*
X40508000Y-37300000D01*
X40508000Y-37400000D02*
X40508000Y-37400000D01*
X40508000Y-37300000D02*
G75*
G02*
X40508000Y-37400000I0J-50000D01*
G01*
X40508000Y-37400000D02*
G75*
G02*
X40508000Y-37300000I0J50000D01*
G01*
D11*
%TO.C,J_Fsync1*%
X36084742Y-40487500D02*
X36559258Y-40487500D01*
X36084742Y-41532500D02*
X36559258Y-41532500D01*
%TO.C,C13*%
X21640000Y-90392164D02*
X21640000Y-90607836D01*
X22360000Y-90392164D02*
X22360000Y-90607836D01*
%TO.C,L3*%
X19611359Y-82607500D02*
X19918641Y-82607500D01*
X19611359Y-83367500D02*
X19918641Y-83367500D01*
%TO.C,C25*%
X43690000Y-87540580D02*
X43690000Y-87259420D01*
X44710000Y-87540580D02*
X44710000Y-87259420D01*
%TO.C,C15*%
X68840000Y-44497737D02*
X68840000Y-44216577D01*
X69860000Y-44497737D02*
X69860000Y-44216577D01*
%TO.C,R9*%
X22652500Y-79150242D02*
X22652500Y-79624758D01*
X23697500Y-79150242D02*
X23697500Y-79624758D01*
%TO.C,R18*%
X77687258Y-48734657D02*
X77212742Y-48734657D01*
X77687258Y-49779657D02*
X77212742Y-49779657D01*
%TO.C,R4*%
X30037742Y-81665000D02*
X30512258Y-81665000D01*
X30037742Y-82710000D02*
X30512258Y-82710000D01*
%TO.C,C23*%
X51090000Y-87515580D02*
X51090000Y-87234420D01*
X52110000Y-87515580D02*
X52110000Y-87234420D01*
%TO.C,R3*%
X27712742Y-54277500D02*
X28187258Y-54277500D01*
X27712742Y-55322500D02*
X28187258Y-55322500D01*
%TO.C,C3*%
X94840000Y-44397737D02*
X94840000Y-44116577D01*
X95860000Y-44397737D02*
X95860000Y-44116577D01*
%TO.C,Y2*%
X22875000Y-90787500D02*
X25275000Y-90787500D01*
X25275000Y-89187500D02*
X22875000Y-89187500D01*
X25275000Y-90787500D02*
X25275000Y-89187500D01*
%TO.C,C4*%
X94840000Y-38997737D02*
X94840000Y-38716577D01*
X95860000Y-38997737D02*
X95860000Y-38716577D01*
%TO.C,R23*%
X99312742Y-23284657D02*
X99787258Y-23284657D01*
X99312742Y-24329657D02*
X99787258Y-24329657D01*
%TO.C,C24*%
X38957836Y-40390000D02*
X38742164Y-40390000D01*
X38957836Y-41110000D02*
X38742164Y-41110000D01*
D13*
%TO.C,Q7*%
X82900000Y-50407157D02*
X82900000Y-50407157D01*
X82900000Y-50507157D02*
X82900000Y-50507157D01*
X82900000Y-50407157D02*
G75*
G02*
X82900000Y-50507157I0J-50000D01*
G01*
X82900000Y-50507157D02*
G75*
G02*
X82900000Y-50407157I0J50000D01*
G01*
D12*
%TO.C,Q4*%
X76120000Y-51582157D02*
X76120000Y-57482157D01*
D13*
X76790000Y-50632157D02*
X76790000Y-50632157D01*
X76790000Y-50732157D02*
X76790000Y-50732157D01*
D12*
X81270000Y-51582157D02*
X81270000Y-57482157D01*
D13*
X76790000Y-50632157D02*
G75*
G02*
X76790000Y-50732157I0J-50000D01*
G01*
X76790000Y-50732157D02*
G75*
G02*
X76790000Y-50632157I0J50000D01*
G01*
D11*
%TO.C,U3*%
X22665000Y-81615000D02*
X23390000Y-81615000D01*
X22665000Y-82340000D02*
X22665000Y-81615000D01*
X22665000Y-85110000D02*
X22665000Y-85835000D01*
X22665000Y-85835000D02*
X23390000Y-85835000D01*
X26585000Y-81615000D02*
X26160000Y-81615000D01*
X26885000Y-81855000D02*
X26885000Y-82340000D01*
X26885000Y-85110000D02*
X26885000Y-85835000D01*
X26885000Y-85835000D02*
X26160000Y-85835000D01*
X26885000Y-81615000D02*
X26645000Y-81285000D01*
X27125000Y-81285000D01*
X26885000Y-81615000D01*
G36*
X26885000Y-81615000D02*
G01*
X26645000Y-81285000D01*
X27125000Y-81285000D01*
X26885000Y-81615000D01*
G37*
%TO.C,R4*%
X27562742Y-56177500D02*
X28037258Y-56177500D01*
X27562742Y-57222500D02*
X28037258Y-57222500D01*
D13*
%TO.C,Q3*%
X70650000Y-50457157D02*
X70650000Y-50457157D01*
X70650000Y-50557157D02*
X70650000Y-50557157D01*
X70650000Y-50457157D02*
G75*
G02*
X70650000Y-50557157I0J-50000D01*
G01*
X70650000Y-50557157D02*
G75*
G02*
X70650000Y-50457157I0J50000D01*
G01*
D11*
%TO.C,R2*%
X98287258Y-48584657D02*
X97812742Y-48584657D01*
X98287258Y-49629657D02*
X97812742Y-49629657D01*
%TO.C,R17*%
X73787258Y-48784657D02*
X73312742Y-48784657D01*
X73787258Y-49829657D02*
X73312742Y-49829657D01*
%TO.C,C19*%
X18815000Y-85392164D02*
X18815000Y-85607836D01*
X19535000Y-85392164D02*
X19535000Y-85607836D01*
%TO.C,C38*%
X28909420Y-33290000D02*
X29190580Y-33290000D01*
X28909420Y-34310000D02*
X29190580Y-34310000D01*
%TO.C,NTC_solder_pad2*%
X31722936Y-55965000D02*
X32177064Y-55965000D01*
X31722936Y-57435000D02*
X32177064Y-57435000D01*
%TO.C,R9*%
X27712742Y-52227500D02*
X28187258Y-52227500D01*
X27712742Y-53272500D02*
X28187258Y-53272500D01*
%TO.C,C22*%
X34938580Y-36944000D02*
X34657420Y-36944000D01*
X34938580Y-37964000D02*
X34657420Y-37964000D01*
%TO.C,C10*%
X25892164Y-79840000D02*
X26107836Y-79840000D01*
X25892164Y-80560000D02*
X26107836Y-80560000D01*
%TO.C,R26*%
X77577500Y-22119899D02*
X77577500Y-22594415D01*
X78622500Y-22119899D02*
X78622500Y-22594415D01*
%TO.C,C11*%
X46940000Y-48180580D02*
X46940000Y-47899420D01*
X47960000Y-48180580D02*
X47960000Y-47899420D01*
D12*
%TO.C,IC3*%
X96545000Y-40407157D02*
X96545000Y-38882157D01*
X96700000Y-40757157D02*
X101600000Y-40757157D01*
X96700000Y-43957157D02*
X96700000Y-40757157D01*
X101600000Y-40757157D02*
X101600000Y-43957157D01*
X101600000Y-43957157D02*
X96700000Y-43957157D01*
D11*
%TO.C,C20*%
X47323836Y-55012000D02*
X47108164Y-55012000D01*
X47323836Y-55732000D02*
X47108164Y-55732000D01*
%TO.C,C26*%
X42190000Y-87515580D02*
X42190000Y-87234420D01*
X43210000Y-87515580D02*
X43210000Y-87234420D01*
%TO.C,C14*%
X68840000Y-39022737D02*
X68840000Y-38741577D01*
X69860000Y-39022737D02*
X69860000Y-38741577D01*
D12*
%TO.C,IC4*%
X70545000Y-40407157D02*
X70545000Y-38882157D01*
X70700000Y-40757157D02*
X75600000Y-40757157D01*
X70700000Y-43957157D02*
X70700000Y-40757157D01*
X75600000Y-40757157D02*
X75600000Y-43957157D01*
X75600000Y-43957157D02*
X70700000Y-43957157D01*
D11*
%TO.C,J_BOOT1*%
X84112742Y-25734657D02*
X84587258Y-25734657D01*
X84112742Y-26779657D02*
X84587258Y-26779657D01*
D12*
%TO.C,IC1*%
X44456000Y-27762000D02*
X43206000Y-27762000D01*
X44806000Y-24712000D02*
X45356000Y-24712000D01*
X44806000Y-27612000D02*
X44806000Y-24712000D01*
X45356000Y-24712000D02*
X45356000Y-27612000D01*
X45356000Y-27612000D02*
X44806000Y-27612000D01*
D11*
%TO.C,C24*%
X45190000Y-87540580D02*
X45190000Y-87259420D01*
X46210000Y-87540580D02*
X46210000Y-87259420D01*
%TO.C,R9*%
X86087258Y-48684657D02*
X85612742Y-48684657D01*
X86087258Y-49729657D02*
X85612742Y-49729657D01*
%TO.C,J2*%
X66862742Y-87777500D02*
X67337258Y-87777500D01*
X66862742Y-88822500D02*
X67337258Y-88822500D01*
%TO.C,C20*%
X21015000Y-85495336D02*
X21015000Y-85279664D01*
X21735000Y-85495336D02*
X21735000Y-85279664D01*
%TO.C,C17*%
X17657164Y-82627500D02*
X17872836Y-82627500D01*
X17657164Y-83347500D02*
X17872836Y-83347500D01*
%TO.C,D4*%
X67850000Y-48807157D02*
X67850000Y-46147157D01*
X69550000Y-46147157D02*
X67850000Y-46147157D01*
X69550000Y-48807157D02*
X69550000Y-46147157D01*
%TO.C,C13*%
X46717420Y-35890000D02*
X46998580Y-35890000D01*
X46717420Y-36910000D02*
X46998580Y-36910000D01*
%TO.C,R8*%
X87037258Y-85277500D02*
X86562742Y-85277500D01*
X87037258Y-86322500D02*
X86562742Y-86322500D01*
D12*
%TO.C,U3*%
X40400000Y-59054000D02*
X44800000Y-59054000D01*
X40400000Y-61454000D02*
X40400000Y-59054000D01*
X44800000Y-59054000D02*
X44800000Y-61454000D01*
X44800000Y-61454000D02*
X40400000Y-61454000D01*
D15*
X41024770Y-61802000D02*
G75*
G02*
X40977230Y-61802000I-23770J0D01*
G01*
X40977230Y-61802000D02*
G75*
G02*
X41024770Y-61802000I23770J0D01*
G01*
D11*
%TO.C,D3*%
X80900000Y-48757157D02*
X80900000Y-46097157D01*
X82600000Y-46097157D02*
X80900000Y-46097157D01*
X82600000Y-48757157D02*
X82600000Y-46097157D01*
%TO.C,R13*%
X87037258Y-82277500D02*
X86562742Y-82277500D01*
X87037258Y-83322500D02*
X86562742Y-83322500D01*
%TO.C,C12*%
X25815000Y-90479664D02*
X25815000Y-90695336D01*
X26535000Y-90479664D02*
X26535000Y-90695336D01*
%TO.C,R7*%
X85986390Y-34684657D02*
X85511874Y-34684657D01*
X85986390Y-35729657D02*
X85511874Y-35729657D01*
%TO.C,NTC_solder_pad3*%
X31722936Y-52065000D02*
X32177064Y-52065000D01*
X31722936Y-53535000D02*
X32177064Y-53535000D01*
%TO.C,R6*%
X104687258Y-28034657D02*
X104212742Y-28034657D01*
X104687258Y-29079657D02*
X104212742Y-29079657D01*
%TO.C,C19*%
X47384580Y-57402000D02*
X47103420Y-57402000D01*
X47384580Y-58422000D02*
X47103420Y-58422000D01*
%TO.C,D1*%
X93550000Y-48682157D02*
X93550000Y-46022157D01*
X95250000Y-46022157D02*
X93550000Y-46022157D01*
X95250000Y-48682157D02*
X95250000Y-46022157D01*
%TO.C,C28*%
X99409420Y-21497157D02*
X99690580Y-21497157D01*
X99409420Y-22517157D02*
X99690580Y-22517157D01*
%TO.C,NTC_solder_pad1*%
X31722936Y-54015000D02*
X32177064Y-54015000D01*
X31722936Y-55485000D02*
X32177064Y-55485000D01*
D12*
%TO.C,Q8*%
X88325000Y-51559157D02*
X88325000Y-57459157D01*
D13*
X88995000Y-50609157D02*
X88995000Y-50609157D01*
X88995000Y-50709157D02*
X88995000Y-50709157D01*
D12*
X93475000Y-51559157D02*
X93475000Y-57459157D01*
D13*
X88995000Y-50609157D02*
G75*
G02*
X88995000Y-50709157I0J-50000D01*
G01*
X88995000Y-50709157D02*
G75*
G02*
X88995000Y-50609157I0J50000D01*
G01*
D11*
%TO.C,C11*%
X25915000Y-87879664D02*
X25915000Y-88095336D01*
X26635000Y-87879664D02*
X26635000Y-88095336D01*
%TO.C,D2*%
X76990000Y-24107157D02*
X76990000Y-25807157D01*
X79650000Y-24107157D02*
X76990000Y-24107157D01*
X79650000Y-25807157D02*
X76990000Y-25807157D01*
%TO.C,R10*%
X24312258Y-87265000D02*
X23837742Y-87265000D01*
X24312258Y-88310000D02*
X23837742Y-88310000D01*
%TO.C,R2*%
X61002758Y-42021500D02*
X60528242Y-42021500D01*
X61002758Y-43066500D02*
X60528242Y-43066500D01*
%TO.C,C21*%
X46690000Y-87540580D02*
X46690000Y-87259420D01*
X47710000Y-87540580D02*
X47710000Y-87259420D01*
D14*
%TO.C,IC3*%
X48675000Y-49600000D02*
G75*
G02*
X48425000Y-49600000I-125000J0D01*
G01*
X48425000Y-49600000D02*
G75*
G02*
X48675000Y-49600000I125000J0D01*
G01*
D11*
%TO.C,C13*%
X75850000Y-29641322D02*
X75850000Y-29872992D01*
X76570000Y-29641322D02*
X76570000Y-29872992D01*
%TO.C,R10*%
X89787258Y-48634657D02*
X89312742Y-48634657D01*
X89787258Y-49679657D02*
X89312742Y-49679657D01*
%TO.C,C25*%
X37356000Y-59897420D02*
X37356000Y-60178580D01*
X38376000Y-59897420D02*
X38376000Y-60178580D01*
%TO.C,C26*%
X39030000Y-59648164D02*
X39030000Y-59863836D01*
X39750000Y-59648164D02*
X39750000Y-59863836D01*
D12*
%TO.C,IC2*%
X70350000Y-29782157D02*
X70350000Y-28532157D01*
X70500000Y-30132157D02*
X73400000Y-30132157D01*
X70500000Y-30682157D02*
X70500000Y-30132157D01*
X73400000Y-30132157D02*
X73400000Y-30682157D01*
X73400000Y-30682157D02*
X70500000Y-30682157D01*
D11*
%TO.C,C10*%
X68580000Y-31067737D02*
X68580000Y-30786577D01*
X69600000Y-31067737D02*
X69600000Y-30786577D01*
%TO.C,C5*%
X20915000Y-81095336D02*
X20915000Y-80879664D01*
X21635000Y-81095336D02*
X21635000Y-80879664D01*
%TO.C,R7*%
X65262742Y-101477500D02*
X65737258Y-101477500D01*
X65262742Y-102522500D02*
X65737258Y-102522500D01*
%TO.C,C1*%
X50515420Y-25652000D02*
X50796580Y-25652000D01*
X50515420Y-26672000D02*
X50796580Y-26672000D01*
%TO.C,R24*%
X101627500Y-23194415D02*
X101627500Y-22719899D01*
X102672500Y-23194415D02*
X102672500Y-22719899D01*
%TO.C,J0*%
X36337742Y-90577500D02*
X36812258Y-90577500D01*
X36337742Y-91622500D02*
X36812258Y-91622500D01*
%TD*%
M02*
