%TF.GenerationSoftware,KiCad,Pcbnew,8.0.5*%
%TF.CreationDate,2024-10-20T13:56:41+02:00*%
%TF.ProjectId,Flight_Controller,466c6967-6874-45f4-936f-6e74726f6c6c,rev?*%
%TF.SameCoordinates,Original*%
%TF.FileFunction,Copper,L2,Inr*%
%TF.FilePolarity,Positive*%
%FSLAX46Y46*%
G04 Gerber Fmt 4.6, Leading zero omitted, Abs format (unit mm)*
G04 Created by KiCad (PCBNEW 8.0.5) date 2024-10-20 13:56:41*
%MOMM*%
%LPD*%
G01*
G04 APERTURE LIST*
G04 Aperture macros list*
%AMRoundRect*
0 Rectangle with rounded corners*
0 $1 Rounding radius*
0 $2 $3 $4 $5 $6 $7 $8 $9 X,Y pos of 4 corners*
0 Add a 4 corners polygon primitive as box body*
4,1,4,$2,$3,$4,$5,$6,$7,$8,$9,$2,$3,0*
0 Add four circle primitives for the rounded corners*
1,1,$1+$1,$2,$3*
1,1,$1+$1,$4,$5*
1,1,$1+$1,$6,$7*
1,1,$1+$1,$8,$9*
0 Add four rect primitives between the rounded corners*
20,1,$1+$1,$2,$3,$4,$5,0*
20,1,$1+$1,$4,$5,$6,$7,0*
20,1,$1+$1,$6,$7,$8,$9,0*
20,1,$1+$1,$8,$9,$2,$3,0*%
G04 Aperture macros list end*
%TA.AperFunction,ComponentPad*%
%ADD10RoundRect,0.333333X1.666667X1.666667X-1.666667X1.666667X-1.666667X-1.666667X1.666667X-1.666667X0*%
%TD*%
%TA.AperFunction,ComponentPad*%
%ADD11RoundRect,0.250000X1.500000X1.250000X-1.500000X1.250000X-1.500000X-1.250000X1.500000X-1.250000X0*%
%TD*%
%TA.AperFunction,ComponentPad*%
%ADD12O,3.500000X3.000000*%
%TD*%
%TA.AperFunction,ComponentPad*%
%ADD13C,1.650000*%
%TD*%
%TA.AperFunction,ComponentPad*%
%ADD14C,1.950000*%
%TD*%
%TA.AperFunction,ComponentPad*%
%ADD15C,2.400000*%
%TD*%
%TA.AperFunction,ComponentPad*%
%ADD16R,1.700000X1.700000*%
%TD*%
%TA.AperFunction,ComponentPad*%
%ADD17O,1.700000X1.700000*%
%TD*%
%TA.AperFunction,ComponentPad*%
%ADD18C,3.800000*%
%TD*%
%TA.AperFunction,ComponentPad*%
%ADD19RoundRect,0.250000X1.250000X-1.500000X1.250000X1.500000X-1.250000X1.500000X-1.250000X-1.500000X0*%
%TD*%
%TA.AperFunction,ComponentPad*%
%ADD20RoundRect,0.250000X-1.500000X-1.250000X1.500000X-1.250000X1.500000X1.250000X-1.500000X1.250000X0*%
%TD*%
%TA.AperFunction,ComponentPad*%
%ADD21O,3.000000X3.500000*%
%TD*%
%TA.AperFunction,ComponentPad*%
%ADD22R,3.800000X3.800000*%
%TD*%
%TA.AperFunction,ComponentPad*%
%ADD23C,4.000000*%
%TD*%
%TA.AperFunction,ComponentPad*%
%ADD24RoundRect,0.250000X-1.250000X1.500000X-1.250000X-1.500000X1.250000X-1.500000X1.250000X1.500000X0*%
%TD*%
%TA.AperFunction,ComponentPad*%
%ADD25C,1.200000*%
%TD*%
%TA.AperFunction,ComponentPad*%
%ADD26C,2.310000*%
%TD*%
%TA.AperFunction,ViaPad*%
%ADD27C,0.600000*%
%TD*%
%TA.AperFunction,ViaPad*%
%ADD28C,0.500000*%
%TD*%
%TA.AperFunction,Conductor*%
%ADD29C,0.200000*%
%TD*%
%TA.AperFunction,Conductor*%
%ADD30C,0.550000*%
%TD*%
%TA.AperFunction,Conductor*%
%ADD31C,0.350000*%
%TD*%
%TA.AperFunction,Conductor*%
%ADD32C,0.237503*%
%TD*%
%TA.AperFunction,Conductor*%
%ADD33C,0.300000*%
%TD*%
%TA.AperFunction,Conductor*%
%ADD34C,0.450000*%
%TD*%
%TA.AperFunction,Conductor*%
%ADD35C,0.500000*%
%TD*%
G04 APERTURE END LIST*
D10*
%TO.N,/Phase_A*%
%TO.C,C25*%
X97950000Y-60467157D03*
%TO.N,/Phase_B*%
X87950000Y-60457157D03*
%TO.N,/Phase_C*%
X77950000Y-60457157D03*
%TD*%
D11*
%TO.N,/V_Bat_raw*%
%TO.C,C24*%
X93550000Y-22967157D03*
D12*
%TO.N,GND*%
X89550000Y-22957157D03*
%TD*%
D13*
%TO.N,3.3V_Digi*%
%TO.C,S1*%
X15325000Y-99437500D03*
%TO.N,/A_0*%
X15325000Y-101937500D03*
%TO.N,GND*%
X15325000Y-104437500D03*
%TO.N,3.3V_Digi*%
X26555000Y-93207500D03*
%TO.N,/A_1*%
X24055000Y-93207500D03*
%TO.N,GND*%
X21555000Y-93207500D03*
D14*
%TO.N,/A_2*%
X29805000Y-105187500D03*
X29805000Y-98687500D03*
%TO.N,GND*%
X34305000Y-105187500D03*
X34305000Y-98687500D03*
D15*
X19055000Y-95612500D03*
X19055000Y-108262500D03*
X29055000Y-108262500D03*
X29055000Y-95612500D03*
%TD*%
D16*
%TO.N,V_Bat*%
%TO.C,BT1*%
X79475000Y-77800000D03*
D17*
%TO.N,GND*%
X76935000Y-77800000D03*
%TD*%
D18*
%TO.N,N/C*%
%TO.C,H1*%
X69300000Y-23307157D03*
%TD*%
D19*
%TO.N,V_Bat*%
%TO.C,C27*%
X17400000Y-56725000D03*
D20*
X20900000Y-60465000D03*
D21*
%TO.N,GND*%
X17400000Y-52725000D03*
D12*
X24900000Y-60475000D03*
%TD*%
D22*
%TO.N,V_Bat*%
%TO.C,BT1*%
X31500000Y-17500000D03*
D23*
%TO.N,GND*%
X36500000Y-17500000D03*
%TD*%
D13*
%TO.N,3.3V_Digi*%
%TO.C,S2*%
X75325000Y-99437500D03*
%TO.N,/B_0*%
X75325000Y-101937500D03*
%TO.N,GND*%
X75325000Y-104437500D03*
%TO.N,3.3V_Digi*%
X86555000Y-93207500D03*
%TO.N,/B_1*%
X84055000Y-93207500D03*
%TO.N,GND*%
X81555000Y-93207500D03*
D14*
%TO.N,/B_2*%
X89805000Y-105187500D03*
X89805000Y-98687500D03*
%TO.N,GND*%
X94305000Y-105187500D03*
X94305000Y-98687500D03*
D15*
X79055000Y-95612500D03*
X79055000Y-108262500D03*
X89055000Y-108262500D03*
X89055000Y-95612500D03*
%TD*%
D18*
%TO.N,N/C*%
%TO.C,H1*%
X60688000Y-60660000D03*
%TD*%
D24*
%TO.N,V_Bat*%
%TO.C,C28*%
X59944000Y-20768000D03*
D11*
X56444000Y-17028000D03*
D21*
%TO.N,GND*%
X59944000Y-24768000D03*
D12*
X52444000Y-17018000D03*
%TD*%
D25*
%TO.N,Net-(DS1-V0)*%
%TO.C,DS1*%
X41200000Y-90300000D03*
%TO.N,Net-(DS1-V1)*%
X42700000Y-90300000D03*
%TO.N,Net-(DS1-V2)*%
X44200000Y-90300000D03*
%TO.N,Net-(DS1-V3)*%
X45700000Y-90300000D03*
%TO.N,Net-(DS1-V4)*%
X47200000Y-90300000D03*
%TO.N,Net-(DS1-C2-)*%
X48700000Y-90300000D03*
%TO.N,Net-(DS1-C2+)*%
X50200000Y-90300000D03*
%TO.N,Net-(DS1-C1+)*%
X51700000Y-90300000D03*
%TO.N,Net-(DS1-C1-)*%
X53200000Y-90300000D03*
%TO.N,Net-(DS1-VOUT)*%
X54700000Y-90300000D03*
%TO.N,GND*%
X56200000Y-90300000D03*
%TO.N,3.3V_Digi*%
X57700000Y-90300000D03*
%TO.N,/Controller/SPI2.MOSI*%
X59200000Y-90300000D03*
%TO.N,/Controller/SPI2.SCK*%
X60700000Y-90300000D03*
%TO.N,/Controller/PB2*%
X62200000Y-90300000D03*
%TO.N,/Controller/PB1*%
X63700000Y-90300000D03*
%TO.N,GND*%
X65200000Y-90300000D03*
D26*
%TO.N,Net-(DS1-PadMH1)*%
X35900000Y-88500000D03*
%TO.N,Net-(DS1-PadMH2)*%
X70500000Y-88500000D03*
%TD*%
D27*
%TO.N,V_Bat*%
X74875000Y-27957157D03*
X94400000Y-41057157D03*
X80449997Y-41157157D03*
X39450000Y-23114000D03*
X71950000Y-33207157D03*
X69050000Y-41157157D03*
X75487500Y-27344657D03*
X82050000Y-41157157D03*
X67600000Y-100100000D03*
X68200000Y-41157157D03*
X95200000Y-41057157D03*
X81150000Y-41157157D03*
X95900000Y-41057157D03*
X76350000Y-26557157D03*
X67600000Y-41757157D03*
X50150000Y-29150000D03*
%TO.N,GND*%
X86400000Y-33107157D03*
X78500000Y-34707157D03*
X104650000Y-20557157D03*
X65000000Y-88300000D03*
X35900000Y-48700000D03*
X24900000Y-86600000D03*
X43300000Y-101600000D03*
X56150000Y-39650000D03*
X69800000Y-34507157D03*
X29700000Y-44200000D03*
X78700000Y-26207157D03*
X20000000Y-36800000D03*
X41100000Y-85300000D03*
X37700000Y-85800000D03*
X76050000Y-36457157D03*
X47100000Y-77900000D03*
X86100000Y-78400000D03*
X52100000Y-106100000D03*
X55400000Y-42450000D03*
X21400000Y-86800000D03*
X107550000Y-51957157D03*
X41000000Y-52400000D03*
X47200000Y-85300000D03*
X48300000Y-100400000D03*
X105850000Y-22257157D03*
X92850000Y-61407157D03*
X52362000Y-26162000D03*
X66950000Y-54357157D03*
X28000000Y-28400000D03*
X57200000Y-101600000D03*
X77800000Y-72700000D03*
X24850000Y-46050000D03*
X69650000Y-27507157D03*
X26300000Y-24200000D03*
X26600000Y-81500000D03*
X42000000Y-28000000D03*
X66500000Y-27607157D03*
X38300000Y-44800000D03*
X74850000Y-33107157D03*
X66500000Y-28657157D03*
X37700000Y-70100000D03*
X22900000Y-91400000D03*
X66950000Y-52857157D03*
X39950000Y-108250000D03*
X81550000Y-29457157D03*
X28000000Y-32600000D03*
X37850000Y-61950000D03*
X34000000Y-30800000D03*
X80900000Y-37257157D03*
X105550000Y-43457157D03*
X57100000Y-73600000D03*
X107550000Y-53457157D03*
X107550000Y-50457157D03*
X76100000Y-31757157D03*
X88300000Y-31557157D03*
X70450000Y-61507157D03*
X54600000Y-85300000D03*
X44200000Y-94000000D03*
X74050000Y-24757157D03*
X37700000Y-76600000D03*
X55600000Y-44400000D03*
X25350000Y-42850000D03*
X91350000Y-61407157D03*
X44100000Y-85300000D03*
X54100000Y-101500000D03*
X94400000Y-28357157D03*
X28450000Y-49350000D03*
X22700000Y-100900000D03*
X37700000Y-82400000D03*
X65900000Y-78100000D03*
X48700000Y-85300000D03*
X55550000Y-45950000D03*
X80550000Y-27457157D03*
X107050000Y-40957157D03*
X68850000Y-28907157D03*
X42000000Y-27000000D03*
X28950000Y-42900000D03*
X46736000Y-56388000D03*
X20200000Y-81700000D03*
X86525000Y-22952157D03*
X34000000Y-29200000D03*
X67700000Y-101900000D03*
X16800000Y-89600000D03*
X99700000Y-33457157D03*
X107550000Y-54957157D03*
X30600000Y-27300000D03*
X42200000Y-29200000D03*
X27350000Y-41500000D03*
X90275000Y-37232157D03*
X32200000Y-97100000D03*
X57600000Y-108600000D03*
X51500000Y-106700000D03*
X32100000Y-83700000D03*
X19100000Y-86800000D03*
X93050000Y-45457157D03*
X27300000Y-24200000D03*
X66550000Y-33907157D03*
X23400000Y-28600000D03*
X50100000Y-107700000D03*
X52000000Y-27686000D03*
X91350000Y-34857157D03*
X26100000Y-23100000D03*
X66950000Y-55857157D03*
X82850000Y-61507157D03*
X84550000Y-33157157D03*
X57400000Y-98500000D03*
X24900000Y-44550000D03*
X24500000Y-47700000D03*
X75750000Y-33307157D03*
X44200000Y-44200000D03*
X34000000Y-36500000D03*
X78850000Y-37007157D03*
X81350000Y-61507157D03*
X47550000Y-108050000D03*
X41100000Y-98700000D03*
X45000000Y-28400000D03*
X74550000Y-23407157D03*
X53925735Y-94625735D03*
X33850000Y-38900000D03*
X26050000Y-49350000D03*
X30900000Y-28500000D03*
X106550000Y-28557157D03*
X19800000Y-33600000D03*
X34000000Y-32400000D03*
X97550000Y-33457157D03*
X18200000Y-29400000D03*
X58300000Y-107500000D03*
X63700000Y-98500000D03*
X42700000Y-85300000D03*
X80100000Y-38907157D03*
X84350000Y-61507157D03*
X84600000Y-31557157D03*
X67500000Y-95300000D03*
X80100000Y-88150000D03*
X25300000Y-91200000D03*
X45600000Y-85300000D03*
X41200000Y-28600000D03*
X105550000Y-38457157D03*
X107550000Y-56457157D03*
X75350000Y-25107157D03*
X38500000Y-39857479D03*
X27000000Y-88500000D03*
X106600000Y-31407157D03*
X84550000Y-29657157D03*
X86350000Y-29707157D03*
X54100000Y-98500000D03*
X73450000Y-61507157D03*
X82700000Y-101700000D03*
X68850000Y-28107157D03*
X86400000Y-31577157D03*
X56600000Y-106600000D03*
X16300000Y-84800000D03*
X39700000Y-61150000D03*
X56150000Y-47650000D03*
X70600000Y-27457157D03*
X46946735Y-52367265D03*
X24175000Y-80500000D03*
X71950000Y-61507157D03*
X88300000Y-29757157D03*
X18400000Y-30600000D03*
X55500000Y-100200000D03*
X29000000Y-27400000D03*
X94350000Y-61407157D03*
X27500000Y-78600000D03*
X94445737Y-35957156D03*
X70050000Y-33257157D03*
X22200000Y-78600000D03*
X41200000Y-27600000D03*
X76750000Y-27907157D03*
X88300000Y-33157157D03*
X21200000Y-79800000D03*
X66550000Y-26407157D03*
X76600000Y-85300000D03*
X48700000Y-99100000D03*
X27200000Y-80200000D03*
X107050000Y-46457157D03*
%TO.N,/Power/SW*%
X40200000Y-27400000D03*
%TO.N,+5V_USB*%
X80850000Y-25507157D03*
X82000000Y-87200000D03*
X95250000Y-27307157D03*
X75300000Y-88200000D03*
X82000000Y-82400000D03*
X94200000Y-30057157D03*
%TO.N,Net-(J1-CC1)*%
X58934000Y-45638000D03*
X84700000Y-85800000D03*
X102450000Y-31457157D03*
%TO.N,Net-(J1-CC2)*%
X58934000Y-42844000D03*
X84600000Y-82800000D03*
X102500000Y-29157157D03*
%TO.N,/STM32L412CBUx/V_Bat_Div*%
X25800000Y-54000000D03*
X33849693Y-51650000D03*
%TO.N,/Power/FB*%
X48000000Y-25200000D03*
%TO.N,/STM32L412CBUx/USART1TX*%
X39092892Y-41592892D03*
X32700000Y-40151473D03*
%TO.N,3.3V_Anal*%
X46300000Y-48800000D03*
X46400000Y-49600000D03*
X47752000Y-56388000D03*
X40830000Y-62830000D03*
X49400000Y-61000000D03*
X35000000Y-35000000D03*
X37300000Y-39800000D03*
X50100000Y-41100000D03*
X47200000Y-50000000D03*
X39800000Y-58500000D03*
%TO.N,+5V*%
X51400000Y-49300000D03*
X46200000Y-34800000D03*
X51600000Y-50300000D03*
%TO.N,3.3V_Digi*%
X22300000Y-81200000D03*
X34300000Y-41300000D03*
X39300000Y-39900000D03*
X32200000Y-82200000D03*
X38500000Y-91200000D03*
X59750000Y-96700000D03*
X22600000Y-29600000D03*
X57800000Y-106300000D03*
X48900000Y-55100000D03*
X63800000Y-96900000D03*
X44600000Y-43400000D03*
X58500000Y-51200000D03*
X41100000Y-96900000D03*
X76600000Y-81800000D03*
X33900000Y-40100000D03*
X24900000Y-77600000D03*
X30050000Y-49000000D03*
X19500000Y-32300000D03*
X50300000Y-37500000D03*
X34300000Y-56800000D03*
X49700000Y-37000000D03*
X47200000Y-103100000D03*
X32314579Y-38487851D03*
X27175735Y-32624265D03*
X18800000Y-35000000D03*
X32500000Y-37700000D03*
X65100000Y-105000000D03*
X54000000Y-93800000D03*
X50200000Y-38200000D03*
X75600000Y-82800000D03*
X33500000Y-47850000D03*
X25800000Y-86600000D03*
X33900000Y-40800000D03*
X39500000Y-24900000D03*
X42400000Y-51600000D03*
%TO.N,/STM32L412CBUx/ESC_PWM0*%
X42700000Y-39000000D03*
X47500000Y-17800000D03*
D28*
%TO.N,/STM32L412CBUx/ESC_SCL*%
X32000000Y-60400000D03*
X17400000Y-45800000D03*
X60000000Y-31768000D03*
X45444000Y-17018000D03*
X37200000Y-52600000D03*
%TO.N,/STM32L412CBUx/ESC_SDA*%
X34000000Y-60400000D03*
D27*
X22450000Y-44850000D03*
D28*
X39200000Y-34400000D03*
X43444000Y-17018000D03*
X17400000Y-43800000D03*
X59944000Y-33768000D03*
D27*
%TO.N,/STM32L412CBUx/ESC_PWM1*%
X60374265Y-29775735D03*
X43700000Y-39300000D03*
%TO.N,/STM32L412CBUx/ESC_PWM2*%
X33584313Y-50284313D03*
X18450000Y-47750000D03*
%TO.N,/STM32L412CBUx/ESC_PWM3*%
X34150000Y-50850000D03*
X29900000Y-59500000D03*
%TO.N,/Com/CE_NRF*%
X30700000Y-43550000D03*
X23100000Y-35200000D03*
%TO.N,/Com/CS_NRF*%
X31717840Y-44232160D03*
X24550000Y-36400000D03*
%TO.N,/Com/IRQ_NRF*%
X31600000Y-38900000D03*
X32703210Y-44369000D03*
%TO.N,/Com/NR_SPI.MISO*%
X40600000Y-36000000D03*
X43600000Y-49100000D03*
X26700000Y-36200000D03*
%TO.N,/Com/NR_SPI.SCK*%
X38600000Y-35000000D03*
X24600000Y-35400000D03*
X39250000Y-53000000D03*
%TO.N,/Com/NR_SPI.MOSI*%
X25600000Y-35200000D03*
X39800000Y-35600000D03*
X43850000Y-48000000D03*
%TO.N,/STM32L412CBUx/I2C2.SDA*%
X42676000Y-58200000D03*
%TO.N,/STM32L412CBUx/I2C2.SCL*%
X46000000Y-50600000D03*
X41800000Y-58200000D03*
%TO.N,/STM32L412CBUx/PA0*%
X29850000Y-52700000D03*
%TO.N,/STM32L412CBUx/PA1*%
X29750000Y-54800000D03*
%TO.N,/STM32L412CBUx/PB1*%
X44000000Y-58400000D03*
X37831500Y-51350000D03*
%TO.N,/STM32L412CBUx/PB2*%
X38431500Y-52096939D03*
X45250000Y-56350000D03*
%TO.N,/STM32L412CBUx/PA5*%
X29650000Y-56650000D03*
%TO.N,/STM32L412CBUx/PA6*%
X36100000Y-52050000D03*
X45600000Y-60800000D03*
%TO.N,/STM32L412CBUx/PB8*%
X36700000Y-42200000D03*
X36120000Y-36300000D03*
%TO.N,/STM32L412CBUx/SWCLK{slash}PA14*%
X42000000Y-42050000D03*
%TO.N,/STM32L412CBUx/USART1RX*%
X38008989Y-41523382D03*
X32831158Y-39362296D03*
%TO.N,/STM32L412CBUx/PB9*%
X35520000Y-42100000D03*
X37800000Y-35600000D03*
%TO.N,Net-(U1-PH3)*%
X86250000Y-26557157D03*
%TO.N,/VISENSE_A*%
X102750000Y-44957157D03*
X84400000Y-37007157D03*
%TO.N,/Phase_A*%
X98150000Y-50257157D03*
%TO.N,+3V3*%
X103950000Y-45157157D03*
X89850000Y-35657157D03*
X68200000Y-36107157D03*
X80450000Y-26357157D03*
X67350000Y-36107157D03*
X77950000Y-45257157D03*
X80482321Y-33284569D03*
X69050000Y-36107157D03*
X87300000Y-26907157D03*
X90150000Y-46057157D03*
X82650000Y-26807157D03*
%TO.N,/VV_SENSE_A*%
X96025000Y-46157157D03*
X83800000Y-36277157D03*
%TO.N,/Phase_B*%
X85450000Y-50257157D03*
%TO.N,Net-(Q4-S)*%
X77850000Y-52807157D03*
X80400000Y-52857157D03*
X77025000Y-52882157D03*
%TO.N,/SW*%
X71200000Y-26157157D03*
X70050000Y-26107157D03*
X72300000Y-27107157D03*
X72250000Y-26157157D03*
X73350000Y-26157157D03*
X73500000Y-27057157D03*
X74350000Y-26157157D03*
%TO.N,/VISENSE_B*%
X89950000Y-45157157D03*
X82850000Y-35877157D03*
%TO.N,/VISENSE_C*%
X76550000Y-45157157D03*
X80900000Y-34977157D03*
%TO.N,/Phase_C*%
X71550000Y-50457157D03*
%TO.N,/VV_SENSE_B*%
X83625000Y-46182157D03*
X81700000Y-35327157D03*
%TO.N,/VV_SENSE_C*%
X69750000Y-46357157D03*
X80150000Y-34677157D03*
%TO.N,/FB*%
X72910000Y-33207157D03*
%TO.N,Net-(U1-VDDUSB)*%
X92000000Y-28457157D03*
%TO.N,/LO_B*%
X86567756Y-36774781D03*
X87250000Y-38257157D03*
%TO.N,/Hi_B*%
X92100000Y-33057157D03*
X90150000Y-39257157D03*
%TO.N,/Hi_A*%
X92850000Y-33907157D03*
X98500000Y-37407157D03*
%TO.N,/LO_A*%
X85967756Y-37307157D03*
X99850000Y-38057157D03*
%TO.N,/LO_C*%
X87350000Y-36607157D03*
X73850000Y-38257157D03*
%TO.N,/HI_C*%
X72550000Y-38257157D03*
X92200000Y-31677157D03*
%TO.N,/V_Bat_Div*%
X85050000Y-36507157D03*
%TO.N,Net-(Q1-S)*%
X104200000Y-52807157D03*
X103050000Y-52807157D03*
X101950000Y-52807157D03*
%TO.N,Net-(Q8-S)*%
X89100000Y-52757157D03*
X91300000Y-52807157D03*
X90350000Y-52757157D03*
%TO.N,/I2C1_SDA*%
X80525000Y-22957157D03*
%TO.N,/I2C1_CL*%
X82525000Y-22952157D03*
%TO.N,Net-(D5-K)*%
X75100000Y-21507157D03*
%TO.N,Net-(D6-K)*%
X77224999Y-22357157D03*
%TO.N,/Duty_in*%
X84525000Y-22952157D03*
%TO.N,/Controller/V_Bat_Div*%
X63300000Y-102100000D03*
%TO.N,/Controller/SPI2.SCK*%
X60200000Y-99000000D03*
X27975000Y-83887500D03*
%TO.N,/Controller/SPI2.MISO*%
X27700000Y-87100000D03*
X57700000Y-95300000D03*
%TO.N,/Controller/SPI2.MOSI*%
X29200000Y-86600000D03*
X57400000Y-94500000D03*
%TO.N,/CS_NRF*%
X27949265Y-83061765D03*
%TO.N,/CE_NRF*%
X27975000Y-82187500D03*
%TO.N,/IRQ_NRF*%
X26875000Y-86087500D03*
%TO.N,/A_1*%
X59100000Y-105700000D03*
%TO.N,/A_0*%
X58200000Y-105500000D03*
%TO.N,/B_0*%
X61800000Y-103200000D03*
%TO.N,/B_1*%
X62800000Y-102900000D03*
%TO.N,/A_2*%
X60100000Y-105500000D03*
%TO.N,/B_2*%
X60900000Y-103400000D03*
%TO.N,/Controller/PB2*%
X61400000Y-99400000D03*
%TO.N,/Controller/PB1*%
X62500000Y-100000000D03*
%TD*%
D29*
%TO.N,V_Bat*%
X74875000Y-30282157D02*
X71950000Y-33207157D01*
X79475000Y-77800000D02*
X79475000Y-88425000D01*
X31500000Y-19850000D02*
X31500000Y-17500000D01*
X67800000Y-100100000D02*
X67600000Y-100100000D01*
X39450000Y-23114000D02*
X34764000Y-23114000D01*
X74875000Y-27957157D02*
X74875000Y-30282157D01*
X34764000Y-23114000D02*
X31500000Y-19850000D01*
X79475000Y-88425000D02*
X67800000Y-100100000D01*
D30*
%TO.N,+5V_USB*%
X95250000Y-29007157D02*
X94200000Y-30057157D01*
D31*
X95250000Y-27307157D02*
X93450000Y-27307157D01*
X81150000Y-25207157D02*
X80850000Y-25507157D01*
X93450000Y-27307157D02*
X91350000Y-25207157D01*
D30*
X95250000Y-27307157D02*
X95250000Y-29007157D01*
D31*
X91350000Y-25207157D02*
X81150000Y-25207157D01*
D29*
%TO.N,/STM32L412CBUx/V_Bat_Div*%
X31499693Y-54000000D02*
X33849693Y-51650000D01*
X25800000Y-54000000D02*
X31499693Y-54000000D01*
D31*
%TO.N,+5V*%
X48800000Y-34800000D02*
X46200000Y-34800000D01*
X51600000Y-49500000D02*
X51400000Y-49300000D01*
X51600000Y-50300000D02*
X51600000Y-49500000D01*
X51400000Y-37400000D02*
X48800000Y-34800000D01*
X51400000Y-49300000D02*
X51400000Y-37400000D01*
%TO.N,3.3V_Digi*%
X19500000Y-32300000D02*
X19550000Y-32250000D01*
X18800000Y-35000000D02*
X19500000Y-34300000D01*
X27175735Y-32624265D02*
X27175735Y-33275735D01*
X32500000Y-37800000D02*
X32100000Y-38200000D01*
X26801470Y-32250000D02*
X27175735Y-32624265D01*
X19500000Y-34300000D02*
X28200000Y-34300000D01*
X27175735Y-33275735D02*
X29150000Y-35250000D01*
X19550000Y-32250000D02*
X26801470Y-32250000D01*
X32100000Y-38273272D02*
X32100000Y-38200000D01*
X29150000Y-35250000D02*
X31600000Y-37700000D01*
X22600000Y-29600000D02*
X24151470Y-29600000D01*
X32500000Y-37700000D02*
X32500000Y-37800000D01*
X31600000Y-37700000D02*
X32100000Y-38200000D01*
X32314579Y-38487851D02*
X32100000Y-38273272D01*
X28200000Y-34300000D02*
X29150000Y-35250000D01*
X24151470Y-29600000D02*
X27175735Y-32624265D01*
D29*
%TO.N,/STM32L412CBUx/ESC_PWM0*%
X42700000Y-39000000D02*
X43450000Y-38250000D01*
X46650000Y-18650000D02*
X47500000Y-17800000D01*
X46650000Y-30400000D02*
X46650000Y-18650000D01*
X43450000Y-33600000D02*
X46650000Y-30400000D01*
X43450000Y-38250000D02*
X43450000Y-33600000D01*
%TO.N,/STM32L412CBUx/ESC_SCL*%
X37000000Y-59800000D02*
X32600000Y-59800000D01*
X32600000Y-59800000D02*
X32000000Y-60400000D01*
X54332000Y-31768000D02*
X53350000Y-32750000D01*
X53350000Y-59450000D02*
X53350000Y-22600000D01*
X47768000Y-17018000D02*
X45444000Y-17018000D01*
X29750000Y-60400000D02*
X32000000Y-60400000D01*
X37200000Y-59600000D02*
X37000000Y-59800000D01*
X53350000Y-22600000D02*
X47768000Y-17018000D01*
X17400000Y-45800000D02*
X17400000Y-48050000D01*
X53350000Y-32750000D02*
X53350000Y-39100000D01*
X37200000Y-58600000D02*
X37200000Y-59800000D01*
X60000000Y-31768000D02*
X54332000Y-31768000D01*
X37200000Y-59800000D02*
X39400000Y-62000000D01*
X37200000Y-58600000D02*
X37200000Y-59600000D01*
X39400000Y-62000000D02*
X50800000Y-62000000D01*
X17400000Y-48050000D02*
X29750000Y-60400000D01*
X37200000Y-52600000D02*
X37200000Y-58600000D01*
X50800000Y-62000000D02*
X53350000Y-59450000D01*
%TO.N,/STM32L412CBUx/ESC_SDA*%
X17400000Y-43800000D02*
X16400000Y-44800000D01*
X61350000Y-29550000D02*
X61350000Y-32362000D01*
X39200000Y-34400000D02*
X43444000Y-30156000D01*
X44062000Y-16400000D02*
X48200000Y-16400000D01*
X43444000Y-30156000D02*
X43444000Y-17018000D01*
X18450000Y-44850000D02*
X17400000Y-43800000D01*
X61350000Y-32362000D02*
X59944000Y-33768000D01*
X22450000Y-44850000D02*
X18450000Y-44850000D01*
X16400000Y-48050000D02*
X29550000Y-61200000D01*
X48200000Y-16400000D02*
X61350000Y-29550000D01*
X43444000Y-17018000D02*
X44062000Y-16400000D01*
X33200000Y-61200000D02*
X34000000Y-60400000D01*
X29550000Y-61200000D02*
X33200000Y-61200000D01*
X16400000Y-44800000D02*
X16400000Y-48050000D01*
%TO.N,/STM32L412CBUx/ESC_PWM2*%
X21750000Y-51050000D02*
X18450000Y-47750000D01*
X32818626Y-51050000D02*
X21750000Y-51050000D01*
X33584313Y-50284313D02*
X32818626Y-51050000D01*
%TO.N,/STM32L412CBUx/ESC_PWM3*%
X29900000Y-59500000D02*
X34650000Y-54750000D01*
X34650000Y-54750000D02*
X34650000Y-51350000D01*
X34650000Y-51350000D02*
X34150000Y-50850000D01*
%TO.N,/Com/CE_NRF*%
X30700000Y-43550000D02*
X23100000Y-35950000D01*
X23100000Y-35950000D02*
X23100000Y-35200000D01*
%TO.N,/Com/CS_NRF*%
X31717840Y-44232160D02*
X31717840Y-43567840D01*
X31717840Y-43567840D02*
X24550000Y-36400000D01*
%TO.N,/Com/NR_SPI.MISO*%
X40600000Y-43300000D02*
X44600000Y-47300000D01*
X44600000Y-48500000D02*
X44000000Y-49100000D01*
X44600000Y-47300000D02*
X44600000Y-48500000D01*
X44000000Y-49100000D02*
X43600000Y-49100000D01*
X39600000Y-49100000D02*
X43600000Y-49100000D01*
X26700000Y-36200000D02*
X39600000Y-49100000D01*
X40600000Y-36000000D02*
X40600000Y-43300000D01*
%TO.N,/Com/NR_SPI.SCK*%
X39374250Y-50139936D02*
X39374250Y-52000000D01*
X39374250Y-50650000D02*
X39374250Y-51925750D01*
X39374250Y-52875750D02*
X39374250Y-52000000D01*
X45300000Y-46550000D02*
X41400000Y-42650000D01*
X41400000Y-42650000D02*
X41400000Y-35600000D01*
X39374250Y-51925750D02*
X41400000Y-49900000D01*
X45300000Y-49150000D02*
X45300000Y-46550000D01*
X41400000Y-49900000D02*
X44550000Y-49900000D01*
X44550000Y-49900000D02*
X45300000Y-49150000D01*
X40800000Y-35000000D02*
X38600000Y-35000000D01*
X24600000Y-35400000D02*
X24634314Y-35400000D01*
X24634314Y-35400000D02*
X39374250Y-50139936D01*
X41400000Y-35600000D02*
X40800000Y-35000000D01*
X39250000Y-53000000D02*
X39374250Y-52875750D01*
%TO.N,/Com/NR_SPI.MOSI*%
X43850000Y-48000000D02*
X39700000Y-48000000D01*
X26900000Y-35200000D02*
X25600000Y-35200000D01*
X40350000Y-48000000D02*
X39900000Y-47550000D01*
X39700000Y-48000000D02*
X36100000Y-44400000D01*
X43850000Y-48000000D02*
X40350000Y-48000000D01*
X36100000Y-44400000D02*
X26900000Y-35200000D01*
X39900000Y-35700000D02*
X39800000Y-35600000D01*
X36482842Y-44782842D02*
X36100000Y-44400000D01*
X39900000Y-47550000D02*
X39900000Y-35700000D01*
D32*
%TO.N,/STM32L412CBUx/I2C2.SCL*%
X46000000Y-50600000D02*
X41800000Y-54800000D01*
X41800000Y-54800000D02*
X41800000Y-58200000D01*
D29*
%TO.N,/STM32L412CBUx/PB8*%
X36200000Y-36380000D02*
X36200000Y-41700000D01*
X36200000Y-41700000D02*
X36700000Y-42200000D01*
X36120000Y-36300000D02*
X36200000Y-36380000D01*
%TO.N,/STM32L412CBUx/PB9*%
X37600000Y-35400000D02*
X37800000Y-35600000D01*
X35520000Y-35831471D02*
X35951471Y-35400000D01*
X35520000Y-42100000D02*
X35520000Y-35831471D01*
X35951471Y-35400000D02*
X37600000Y-35400000D01*
D33*
%TO.N,+3V3*%
X70800000Y-36207157D02*
X71550000Y-36957157D01*
D34*
X77175000Y-33682157D02*
X77572588Y-33284569D01*
D33*
X81700000Y-27757157D02*
X80000000Y-29457157D01*
D34*
X77550000Y-31907157D02*
X77550000Y-29257157D01*
X74750000Y-36107157D02*
X76650000Y-34207157D01*
X77572588Y-33284569D02*
X80482321Y-33284569D01*
D33*
X102375000Y-42832157D02*
X103950000Y-44407157D01*
D34*
X69050000Y-36107157D02*
X74750000Y-36107157D01*
X77550000Y-29257157D02*
X78150000Y-28657157D01*
D33*
X83025000Y-42832157D02*
X86250000Y-46057157D01*
X71550000Y-36957157D02*
X71550000Y-38857157D01*
X86450000Y-27757157D02*
X81700000Y-27757157D01*
X88950000Y-34757157D02*
X89850000Y-35657157D01*
X75400000Y-42707157D02*
X77950000Y-45257157D01*
X80576651Y-33284569D02*
X82049239Y-34757157D01*
X80000000Y-29457157D02*
X82650000Y-26807157D01*
X71550000Y-38857157D02*
X75400000Y-42707157D01*
X67350000Y-36107157D02*
X67450000Y-36207157D01*
X75525000Y-42832157D02*
X83025000Y-42832157D01*
X78150000Y-31307157D02*
X80000000Y-29457157D01*
X80482321Y-33284569D02*
X80576651Y-33284569D01*
X82049239Y-34757157D02*
X88950000Y-34757157D01*
X78150000Y-28657157D02*
X80450000Y-26357157D01*
X87300000Y-26907157D02*
X86450000Y-27757157D01*
D34*
X76650000Y-34207157D02*
X77175000Y-33682157D01*
D35*
X69050000Y-36107157D02*
X67350000Y-36107157D01*
D34*
X76650000Y-32807157D02*
X77550000Y-31907157D01*
X76650000Y-34207157D02*
X76650000Y-32807157D01*
D33*
X86250000Y-46057157D02*
X90150000Y-46057157D01*
X83025000Y-42832157D02*
X102375000Y-42832157D01*
X103950000Y-44407157D02*
X103950000Y-45157157D01*
D34*
X77550000Y-31907157D02*
X78150000Y-31307157D01*
D33*
X75400000Y-42707157D02*
X75525000Y-42832157D01*
D29*
%TO.N,/Hi_B*%
X92100000Y-36407159D02*
X92100000Y-33057157D01*
X90150000Y-38357159D02*
X92100000Y-36407159D01*
X90150000Y-39257157D02*
X90150000Y-38357159D01*
%TO.N,/LO_C*%
X87350000Y-37007157D02*
X86100000Y-38257157D01*
X87350000Y-36607157D02*
X87350000Y-37007157D01*
X86100000Y-38257157D02*
X73850000Y-38257157D01*
%TO.N,/HI_C*%
X72550000Y-38257157D02*
X73900000Y-39607157D01*
X90450000Y-33427157D02*
X92200000Y-31677157D01*
X87050000Y-39607157D02*
X90450000Y-36207157D01*
X90450000Y-36207157D02*
X90450000Y-33427157D01*
X73900000Y-39607157D02*
X87050000Y-39607157D01*
%TO.N,/Controller/SPI2.SCK*%
X57200000Y-91900000D02*
X36136029Y-91900000D01*
X60700000Y-95400000D02*
X57200000Y-91900000D01*
X36136029Y-91900000D02*
X28123529Y-83887500D01*
X60700000Y-98500000D02*
X60700000Y-90300000D01*
X60700000Y-98500000D02*
X60700000Y-95400000D01*
X28123529Y-83887500D02*
X27975000Y-83887500D01*
X60200000Y-99000000D02*
X60700000Y-98500000D01*
%TO.N,/Controller/SPI2.MISO*%
X35900000Y-95300000D02*
X57700000Y-95300000D01*
X27700000Y-87100000D02*
X35900000Y-95300000D01*
%TO.N,/Controller/SPI2.MOSI*%
X56100000Y-93200000D02*
X57400000Y-94500000D01*
X29200000Y-86600000D02*
X35800000Y-93200000D01*
X35800000Y-93200000D02*
X56100000Y-93200000D01*
%TO.N,/A_1*%
X59100000Y-105551471D02*
X58448529Y-104900000D01*
X37600000Y-104900000D02*
X34100000Y-101400000D01*
X58448529Y-104900000D02*
X37600000Y-104900000D01*
X34100000Y-101400000D02*
X26300000Y-101400000D01*
X24100000Y-99200000D02*
X24100000Y-93252500D01*
X24100000Y-93252500D02*
X24055000Y-93207500D01*
X59100000Y-105700000D02*
X59100000Y-105551471D01*
X26300000Y-101400000D02*
X24100000Y-99200000D01*
%TO.N,/A_0*%
X48537500Y-106762500D02*
X27762500Y-106762500D01*
X58200000Y-105500000D02*
X49800000Y-105500000D01*
X49800000Y-105500000D02*
X48537500Y-106762500D01*
X15587500Y-102200000D02*
X15325000Y-101937500D01*
X27762500Y-106762500D02*
X23200000Y-102200000D01*
X23200000Y-102200000D02*
X15587500Y-102200000D01*
%TO.N,/B_0*%
X70700000Y-103800000D02*
X72562500Y-101937500D01*
X72562500Y-101937500D02*
X75325000Y-101937500D01*
X62400000Y-103800000D02*
X70700000Y-103800000D01*
X61800000Y-103200000D02*
X62400000Y-103800000D01*
%TO.N,/B_1*%
X62800000Y-102900000D02*
X68900000Y-102900000D01*
X80800000Y-97800000D02*
X84055000Y-94545000D01*
X74000000Y-97800000D02*
X80800000Y-97800000D01*
X68900000Y-102900000D02*
X74000000Y-97800000D01*
X84055000Y-94545000D02*
X84055000Y-93207500D01*
%TO.N,/A_2*%
X31517500Y-100400000D02*
X29805000Y-98687500D01*
X39800000Y-104100000D02*
X36100000Y-100400000D01*
X60100000Y-105500000D02*
X58700000Y-104100000D01*
X36100000Y-100400000D02*
X31517500Y-100400000D01*
X58700000Y-104100000D02*
X39800000Y-104100000D01*
%TO.N,/B_2*%
X63800000Y-106300000D02*
X88692500Y-106300000D01*
X88692500Y-106300000D02*
X89805000Y-105187500D01*
X60900000Y-103400000D02*
X63800000Y-106300000D01*
%TD*%
%TA.AperFunction,Conductor*%
%TO.N,GND*%
G36*
X29994053Y-13980185D02*
G01*
X30039808Y-14032989D01*
X30048710Y-14060710D01*
X30059255Y-14114653D01*
X30281537Y-15251712D01*
X30275082Y-15321280D01*
X30232037Y-15376316D01*
X30166071Y-15399343D01*
X30159842Y-15399500D01*
X29580247Y-15399500D01*
X29521770Y-15411131D01*
X29521769Y-15411132D01*
X29455447Y-15455447D01*
X29411132Y-15521769D01*
X29411131Y-15521770D01*
X29399500Y-15580247D01*
X29399500Y-19419752D01*
X29411131Y-19478229D01*
X29411132Y-19478230D01*
X29455447Y-19544552D01*
X29521769Y-19588867D01*
X29521770Y-19588868D01*
X29580247Y-19600499D01*
X29580250Y-19600500D01*
X29580252Y-19600500D01*
X31029571Y-19600500D01*
X31096610Y-19620185D01*
X31142365Y-19672989D01*
X31151267Y-19700710D01*
X32499999Y-26599998D01*
X32500000Y-26600000D01*
X34961874Y-28963399D01*
X34996603Y-29024026D01*
X35000000Y-29052851D01*
X35000000Y-33644690D01*
X34980315Y-33711729D01*
X34958848Y-33736952D01*
X31468302Y-36871317D01*
X31405269Y-36901462D01*
X31335946Y-36892743D01*
X31297773Y-36866736D01*
X29457545Y-35026508D01*
X29457543Y-35026505D01*
X28430563Y-33999526D01*
X27587554Y-33156517D01*
X27554069Y-33095194D01*
X27551235Y-33068836D01*
X27551235Y-33001448D01*
X27570920Y-32934409D01*
X27581518Y-32920250D01*
X27601112Y-32897638D01*
X27660900Y-32766722D01*
X27681382Y-32624265D01*
X27660900Y-32481808D01*
X27601112Y-32350892D01*
X27506863Y-32242122D01*
X27385788Y-32164312D01*
X27385786Y-32164311D01*
X27385784Y-32164310D01*
X27385785Y-32164310D01*
X27247700Y-32123765D01*
X27240164Y-32122682D01*
X27176609Y-32093656D01*
X27170132Y-32087625D01*
X24382033Y-29299526D01*
X24382032Y-29299525D01*
X24296408Y-29250090D01*
X24248656Y-29237295D01*
X24248654Y-29237294D01*
X24248652Y-29237293D01*
X24200906Y-29224500D01*
X24200905Y-29224500D01*
X22977874Y-29224500D01*
X22910835Y-29204815D01*
X22910834Y-29204815D01*
X22810051Y-29140046D01*
X22810050Y-29140045D01*
X22671963Y-29099500D01*
X22671961Y-29099500D01*
X22528039Y-29099500D01*
X22528036Y-29099500D01*
X22389949Y-29140045D01*
X22268873Y-29217856D01*
X22174623Y-29326626D01*
X22174622Y-29326628D01*
X22114834Y-29457543D01*
X22094353Y-29600000D01*
X22114834Y-29742456D01*
X22174622Y-29873371D01*
X22174623Y-29873373D01*
X22268872Y-29982143D01*
X22389947Y-30059953D01*
X22389950Y-30059954D01*
X22389949Y-30059954D01*
X22528036Y-30100499D01*
X22528038Y-30100500D01*
X22528039Y-30100500D01*
X22671962Y-30100500D01*
X22671962Y-30100499D01*
X22810053Y-30059953D01*
X22910834Y-29995184D01*
X22977874Y-29975500D01*
X23944571Y-29975500D01*
X24011610Y-29995185D01*
X24032252Y-30011819D01*
X25683252Y-31662819D01*
X25716737Y-31724142D01*
X25711753Y-31793834D01*
X25669881Y-31849767D01*
X25604417Y-31874184D01*
X25595571Y-31874500D01*
X19800072Y-31874500D01*
X19733033Y-31854815D01*
X19733032Y-31854815D01*
X19725177Y-31849767D01*
X19710053Y-31840047D01*
X19710050Y-31840045D01*
X19571963Y-31799500D01*
X19571961Y-31799500D01*
X19428039Y-31799500D01*
X19428036Y-31799500D01*
X19289949Y-31840045D01*
X19168873Y-31917856D01*
X19074623Y-32026626D01*
X19074622Y-32026628D01*
X19014834Y-32157543D01*
X18994353Y-32300000D01*
X19014834Y-32442456D01*
X19032806Y-32481808D01*
X19074623Y-32573373D01*
X19168872Y-32682143D01*
X19289947Y-32759953D01*
X19289950Y-32759954D01*
X19289949Y-32759954D01*
X19428036Y-32800499D01*
X19428038Y-32800500D01*
X19428039Y-32800500D01*
X19571962Y-32800500D01*
X19571962Y-32800499D01*
X19710053Y-32759953D01*
X19831128Y-32682143D01*
X19843126Y-32668296D01*
X19901903Y-32630523D01*
X19936838Y-32625500D01*
X26562818Y-32625500D01*
X26629857Y-32645185D01*
X26675612Y-32697989D01*
X26685556Y-32731852D01*
X26690569Y-32766718D01*
X26690570Y-32766723D01*
X26705996Y-32800500D01*
X26750358Y-32897638D01*
X26769947Y-32920245D01*
X26798973Y-32983799D01*
X26800235Y-33001448D01*
X26800235Y-33325170D01*
X26825825Y-33420673D01*
X26825826Y-33420674D01*
X26825826Y-33420675D01*
X26875261Y-33506298D01*
X27081782Y-33712819D01*
X27115267Y-33774142D01*
X27110283Y-33843834D01*
X27068411Y-33899767D01*
X27002947Y-33924184D01*
X26994101Y-33924500D01*
X19450564Y-33924500D01*
X19402812Y-33937295D01*
X19402811Y-33937294D01*
X19355063Y-33950089D01*
X19355062Y-33950089D01*
X19269435Y-33999527D01*
X18805602Y-34463360D01*
X18744279Y-34496845D01*
X18735571Y-34498416D01*
X18728041Y-34499498D01*
X18589949Y-34540045D01*
X18468873Y-34617856D01*
X18374623Y-34726626D01*
X18374622Y-34726628D01*
X18314834Y-34857543D01*
X18294353Y-35000000D01*
X18314834Y-35142456D01*
X18374621Y-35273369D01*
X18374623Y-35273373D01*
X18468872Y-35382143D01*
X18589947Y-35459953D01*
X18589950Y-35459954D01*
X18589949Y-35459954D01*
X18728036Y-35500499D01*
X18728038Y-35500500D01*
X18728039Y-35500500D01*
X18871962Y-35500500D01*
X18871962Y-35500499D01*
X19010053Y-35459953D01*
X19131128Y-35382143D01*
X19225377Y-35273373D01*
X19285165Y-35142457D01*
X19295509Y-35070502D01*
X19324533Y-35006949D01*
X19330537Y-35000498D01*
X19619219Y-34711816D01*
X19680541Y-34678334D01*
X19706899Y-34675500D01*
X22620703Y-34675500D01*
X22687742Y-34695185D01*
X22733497Y-34747989D01*
X22743441Y-34817147D01*
X22714416Y-34880702D01*
X22674625Y-34926622D01*
X22674622Y-34926628D01*
X22614834Y-35057543D01*
X22594353Y-35200000D01*
X22614834Y-35342456D01*
X22632959Y-35382143D01*
X22674623Y-35473373D01*
X22768872Y-35582143D01*
X22768875Y-35582144D01*
X22769213Y-35582535D01*
X22798238Y-35646091D01*
X22799500Y-35663738D01*
X22799500Y-35989562D01*
X22807081Y-36017855D01*
X22819979Y-36065990D01*
X22819980Y-36065991D01*
X22851150Y-36119979D01*
X22851151Y-36119981D01*
X22859537Y-36134507D01*
X22859541Y-36134512D01*
X24118973Y-37393944D01*
X24152458Y-37455267D01*
X24147474Y-37524959D01*
X24105602Y-37580892D01*
X24040138Y-37605309D01*
X24021232Y-37605216D01*
X14102440Y-36797872D01*
X14037219Y-36772814D01*
X13995898Y-36716472D01*
X13988500Y-36674281D01*
X13988500Y-16663480D01*
X13988695Y-16656527D01*
X13994469Y-16553713D01*
X15337500Y-16553713D01*
X15337500Y-16766286D01*
X15370753Y-16976239D01*
X15436444Y-17178414D01*
X15532951Y-17367820D01*
X15657890Y-17539786D01*
X15808213Y-17690109D01*
X15980179Y-17815048D01*
X15980181Y-17815049D01*
X15980184Y-17815051D01*
X16169588Y-17911557D01*
X16371757Y-17977246D01*
X16581713Y-18010500D01*
X16581714Y-18010500D01*
X16794286Y-18010500D01*
X16794287Y-18010500D01*
X17004243Y-17977246D01*
X17206412Y-17911557D01*
X17395816Y-17815051D01*
X17417789Y-17799086D01*
X17567786Y-17690109D01*
X17567788Y-17690106D01*
X17567792Y-17690104D01*
X17718104Y-17539792D01*
X17718106Y-17539788D01*
X17718109Y-17539786D01*
X17843048Y-17367820D01*
X17843047Y-17367820D01*
X17843051Y-17367816D01*
X17939557Y-17178412D01*
X18005246Y-16976243D01*
X18038500Y-16766287D01*
X18038500Y-16553713D01*
X18005246Y-16343757D01*
X17939557Y-16141588D01*
X17843051Y-15952184D01*
X17843049Y-15952181D01*
X17843048Y-15952179D01*
X17718109Y-15780213D01*
X17567786Y-15629890D01*
X17395820Y-15504951D01*
X17206414Y-15408444D01*
X17206413Y-15408443D01*
X17206412Y-15408443D01*
X17004243Y-15342754D01*
X17004241Y-15342753D01*
X17004240Y-15342753D01*
X16842957Y-15317208D01*
X16794287Y-15309500D01*
X16581713Y-15309500D01*
X16533042Y-15317208D01*
X16371760Y-15342753D01*
X16169585Y-15408444D01*
X15980179Y-15504951D01*
X15808213Y-15629890D01*
X15657890Y-15780213D01*
X15532951Y-15952179D01*
X15436444Y-16141585D01*
X15370753Y-16343760D01*
X15337500Y-16553713D01*
X13994469Y-16553713D01*
X13998214Y-16487028D01*
X14005084Y-16364691D01*
X14006638Y-16350898D01*
X14055015Y-16066167D01*
X14058109Y-16052615D01*
X14087045Y-15952179D01*
X14138061Y-15775096D01*
X14142653Y-15761975D01*
X14197362Y-15629896D01*
X14253175Y-15495151D01*
X14259195Y-15482651D01*
X14398902Y-15229868D01*
X14406297Y-15218100D01*
X14447843Y-15159547D01*
X14573422Y-14982559D01*
X14582077Y-14971705D01*
X14774534Y-14756346D01*
X14784346Y-14746534D01*
X14999705Y-14554077D01*
X15010559Y-14545422D01*
X15246105Y-14378293D01*
X15257868Y-14370902D01*
X15510651Y-14231195D01*
X15523151Y-14225175D01*
X15789979Y-14114651D01*
X15803096Y-14110061D01*
X16080621Y-14030107D01*
X16094167Y-14027015D01*
X16378898Y-13978638D01*
X16392691Y-13977084D01*
X16684528Y-13960695D01*
X16691481Y-13960500D01*
X29927014Y-13960500D01*
X29994053Y-13980185D01*
G37*
%TD.AperFunction*%
%TD*%
%TA.AperFunction,Conductor*%
%TO.N,3.3V_Digi*%
G36*
X78942276Y-65500404D02*
G01*
X78956232Y-65501217D01*
X78965223Y-65502251D01*
X78965230Y-65502253D01*
X79003434Y-65500625D01*
X79008865Y-65500514D01*
X79039067Y-65500565D01*
X79039072Y-65500563D01*
X79039952Y-65500565D01*
X79052237Y-65499685D01*
X79654965Y-65491405D01*
X79662091Y-65491511D01*
X80300179Y-65519529D01*
X80307286Y-65520047D01*
X80942689Y-65584763D01*
X80949745Y-65585688D01*
X81580394Y-65686892D01*
X81587371Y-65688219D01*
X82211141Y-65825573D01*
X82218040Y-65827302D01*
X82832833Y-66000339D01*
X82839625Y-66002463D01*
X83443478Y-66210633D01*
X83450112Y-66213136D01*
X83941626Y-66414945D01*
X84040950Y-66455726D01*
X84047478Y-66458629D01*
X84623347Y-66734831D01*
X84629696Y-66738105D01*
X85188673Y-67046995D01*
X85194819Y-67050625D01*
X85724357Y-67384433D01*
X85735134Y-67391226D01*
X85741059Y-67395205D01*
X86245036Y-67755057D01*
X86260815Y-67766323D01*
X86266501Y-67770634D01*
X86528072Y-67981161D01*
X86764061Y-68171098D01*
X86769495Y-68175736D01*
X87243154Y-68604177D01*
X87248311Y-68609120D01*
X87696495Y-69064110D01*
X87701360Y-69069342D01*
X88122611Y-69549401D01*
X88127166Y-69554904D01*
X88520064Y-70058415D01*
X88524295Y-70064171D01*
X88887554Y-70589485D01*
X88891446Y-70595475D01*
X89090033Y-70921288D01*
X89223848Y-71140831D01*
X89227386Y-71147031D01*
X89331288Y-71341936D01*
X89527829Y-71710621D01*
X89531007Y-71717019D01*
X89798506Y-72297001D01*
X89801309Y-72303572D01*
X90034949Y-72897955D01*
X90037370Y-72904676D01*
X90236398Y-73511543D01*
X90238428Y-73518392D01*
X90402180Y-74135721D01*
X90403812Y-74142676D01*
X90531740Y-74768403D01*
X90532969Y-74775441D01*
X90624653Y-75407509D01*
X90625474Y-75414605D01*
X90680604Y-76050877D01*
X90681016Y-76058009D01*
X90699449Y-76697640D01*
X90699500Y-76701212D01*
X90699500Y-90957277D01*
X90734716Y-91269827D01*
X90734718Y-91269843D01*
X90804710Y-91576499D01*
X90804711Y-91576501D01*
X90908598Y-91873395D01*
X91045072Y-92156786D01*
X91045074Y-92156789D01*
X91212423Y-92423123D01*
X91408539Y-92669044D01*
X91630956Y-92891461D01*
X91876877Y-93087577D01*
X92143211Y-93254926D01*
X92426606Y-93391402D01*
X92723500Y-93495289D01*
X93030160Y-93565282D01*
X93342723Y-93600499D01*
X93342724Y-93600500D01*
X93342727Y-93600500D01*
X93452405Y-93600500D01*
X93496249Y-93600500D01*
X93503736Y-93600726D01*
X93757638Y-93616084D01*
X93772495Y-93617888D01*
X94019000Y-93663061D01*
X94033536Y-93666644D01*
X94272791Y-93741200D01*
X94286785Y-93746507D01*
X94347075Y-93773641D01*
X94515319Y-93849361D01*
X94528578Y-93856320D01*
X94620684Y-93912000D01*
X94743045Y-93985970D01*
X94755356Y-93994468D01*
X94920019Y-94123473D01*
X94952636Y-94149027D01*
X94963844Y-94158957D01*
X95141042Y-94336155D01*
X95150972Y-94347363D01*
X95162980Y-94362690D01*
X95300376Y-94538063D01*
X95305527Y-94544637D01*
X95314033Y-94556960D01*
X95443679Y-94771421D01*
X95450638Y-94784680D01*
X95553491Y-95013211D01*
X95558800Y-95027211D01*
X95633354Y-95266461D01*
X95636938Y-95281001D01*
X95682110Y-95527500D01*
X95683915Y-95542364D01*
X95699274Y-95796263D01*
X95699500Y-95803750D01*
X95699500Y-97707734D01*
X95679815Y-97774773D01*
X95627011Y-97820528D01*
X95557853Y-97830472D01*
X95494297Y-97801447D01*
X95477084Y-97781734D01*
X95476521Y-97782173D01*
X95473367Y-97778122D01*
X95307757Y-97598222D01*
X95307747Y-97598213D01*
X95114791Y-97448029D01*
X95114787Y-97448026D01*
X94899734Y-97331645D01*
X94899729Y-97331643D01*
X94668458Y-97252248D01*
X94487561Y-97222062D01*
X94427263Y-97212000D01*
X94182737Y-97212000D01*
X94134498Y-97220049D01*
X93941541Y-97252248D01*
X93710270Y-97331643D01*
X93710265Y-97331645D01*
X93495212Y-97448026D01*
X93495208Y-97448029D01*
X93302252Y-97598213D01*
X93302242Y-97598222D01*
X93136632Y-97778121D01*
X93002888Y-97982833D01*
X92904663Y-98206765D01*
X92844636Y-98443804D01*
X92844634Y-98443816D01*
X92824443Y-98687494D01*
X92824443Y-98687505D01*
X92844634Y-98931183D01*
X92844636Y-98931195D01*
X92904663Y-99168234D01*
X93002888Y-99392166D01*
X93136632Y-99596878D01*
X93302242Y-99776777D01*
X93302252Y-99776786D01*
X93495208Y-99926970D01*
X93495212Y-99926973D01*
X93630159Y-100000003D01*
X93710267Y-100043355D01*
X93710270Y-100043356D01*
X93941541Y-100122751D01*
X93941543Y-100122751D01*
X93941545Y-100122752D01*
X94182737Y-100163000D01*
X94182738Y-100163000D01*
X94427262Y-100163000D01*
X94427263Y-100163000D01*
X94668455Y-100122752D01*
X94899733Y-100043355D01*
X95114788Y-99926973D01*
X95307754Y-99776781D01*
X95473368Y-99596877D01*
X95473373Y-99596869D01*
X95476521Y-99592827D01*
X95478052Y-99594018D01*
X95524824Y-99554093D01*
X95594054Y-99544661D01*
X95657393Y-99574155D01*
X95694732Y-99633211D01*
X95699500Y-99667265D01*
X95699500Y-104207734D01*
X95679815Y-104274773D01*
X95627011Y-104320528D01*
X95557853Y-104330472D01*
X95494297Y-104301447D01*
X95477084Y-104281734D01*
X95476521Y-104282173D01*
X95473367Y-104278122D01*
X95470278Y-104274767D01*
X95307754Y-104098219D01*
X95307751Y-104098217D01*
X95307747Y-104098213D01*
X95114791Y-103948029D01*
X95114787Y-103948026D01*
X94899734Y-103831645D01*
X94899729Y-103831643D01*
X94668458Y-103752248D01*
X94487561Y-103722062D01*
X94427263Y-103712000D01*
X94182737Y-103712000D01*
X94134498Y-103720049D01*
X93941541Y-103752248D01*
X93710270Y-103831643D01*
X93710265Y-103831645D01*
X93495212Y-103948026D01*
X93495208Y-103948029D01*
X93302252Y-104098213D01*
X93302242Y-104098222D01*
X93136632Y-104278121D01*
X93002888Y-104482833D01*
X92904663Y-104706765D01*
X92844636Y-104943804D01*
X92844634Y-104943816D01*
X92824443Y-105187494D01*
X92824443Y-105187505D01*
X92844634Y-105431183D01*
X92844636Y-105431195D01*
X92904663Y-105668234D01*
X93002888Y-105892166D01*
X93136632Y-106096878D01*
X93302242Y-106276777D01*
X93302252Y-106276786D01*
X93493691Y-106425789D01*
X93495212Y-106426973D01*
X93710267Y-106543355D01*
X93710270Y-106543356D01*
X93941541Y-106622751D01*
X93941543Y-106622751D01*
X93941545Y-106622752D01*
X94182737Y-106663000D01*
X94182738Y-106663000D01*
X94427262Y-106663000D01*
X94427263Y-106663000D01*
X94668455Y-106622752D01*
X94899733Y-106543355D01*
X95114788Y-106426973D01*
X95307754Y-106276781D01*
X95341593Y-106240021D01*
X95401477Y-106204031D01*
X95471315Y-106206130D01*
X95528932Y-106245653D01*
X95556035Y-106310052D01*
X95553883Y-106350842D01*
X95540538Y-106411038D01*
X95537738Y-106421487D01*
X95417713Y-106802159D01*
X95414013Y-106812325D01*
X95261263Y-107181096D01*
X95256691Y-107190900D01*
X95072388Y-107544942D01*
X95066980Y-107554310D01*
X94852511Y-107890959D01*
X94846306Y-107899820D01*
X94603319Y-108216487D01*
X94596365Y-108224774D01*
X94326705Y-108519056D01*
X94319056Y-108526705D01*
X94024774Y-108796365D01*
X94016487Y-108803319D01*
X93699820Y-109046306D01*
X93690959Y-109052511D01*
X93354310Y-109266980D01*
X93344942Y-109272388D01*
X92990900Y-109456691D01*
X92981096Y-109461263D01*
X92612325Y-109614013D01*
X92602159Y-109617713D01*
X92221487Y-109737738D01*
X92211039Y-109740538D01*
X91821339Y-109826933D01*
X91810685Y-109828811D01*
X91414957Y-109880910D01*
X91404181Y-109881853D01*
X91002703Y-109899382D01*
X90997294Y-109899500D01*
X90074669Y-109899500D01*
X90007630Y-109879815D01*
X89961875Y-109827011D01*
X89951931Y-109757853D01*
X89980956Y-109694297D01*
X90004813Y-109673049D01*
X90118217Y-109595732D01*
X90305050Y-109422377D01*
X90463959Y-109223112D01*
X90591393Y-109002388D01*
X90684508Y-108765137D01*
X90741222Y-108516657D01*
X90753640Y-108350949D01*
X90760268Y-108262504D01*
X90760268Y-108262495D01*
X90741222Y-108008345D01*
X90714429Y-107890959D01*
X90684508Y-107759863D01*
X90591393Y-107522612D01*
X90463959Y-107301888D01*
X90305050Y-107102623D01*
X90118217Y-106929268D01*
X90096750Y-106914632D01*
X90022040Y-106863695D01*
X89977738Y-106809667D01*
X89969680Y-106740263D01*
X90000422Y-106677520D01*
X90060206Y-106641359D01*
X90071465Y-106638936D01*
X90168455Y-106622752D01*
X90399733Y-106543355D01*
X90614788Y-106426973D01*
X90807754Y-106276781D01*
X90973368Y-106096877D01*
X91107111Y-105892167D01*
X91205336Y-105668236D01*
X91265364Y-105431192D01*
X91266355Y-105419230D01*
X91285557Y-105187505D01*
X91285557Y-105187494D01*
X91265365Y-104943816D01*
X91265363Y-104943804D01*
X91205336Y-104706765D01*
X91204490Y-104704837D01*
X91107111Y-104482833D01*
X91053321Y-104400501D01*
X90973367Y-104278121D01*
X90807757Y-104098222D01*
X90807747Y-104098213D01*
X90614791Y-103948029D01*
X90614787Y-103948026D01*
X90399734Y-103831645D01*
X90399729Y-103831643D01*
X90168458Y-103752248D01*
X89987561Y-103722062D01*
X89927263Y-103712000D01*
X89682737Y-103712000D01*
X89634498Y-103720049D01*
X89441541Y-103752248D01*
X89210270Y-103831643D01*
X89210265Y-103831645D01*
X88995212Y-103948026D01*
X88995208Y-103948029D01*
X88802252Y-104098213D01*
X88802242Y-104098222D01*
X88636632Y-104278121D01*
X88502888Y-104482833D01*
X88404663Y-104706765D01*
X88344636Y-104943804D01*
X88344634Y-104943816D01*
X88324443Y-105187494D01*
X88324443Y-105187505D01*
X88344634Y-105431183D01*
X88344636Y-105431195D01*
X88373471Y-105545060D01*
X88370846Y-105614880D01*
X88330890Y-105672198D01*
X88266288Y-105698814D01*
X88253265Y-105699500D01*
X76226892Y-105699500D01*
X76159853Y-105679815D01*
X76114098Y-105627011D01*
X76104154Y-105557853D01*
X76133179Y-105494297D01*
X76155769Y-105473925D01*
X76176260Y-105459577D01*
X76180269Y-105456770D01*
X76344270Y-105292769D01*
X76477301Y-105102782D01*
X76575320Y-104892579D01*
X76635349Y-104668550D01*
X76655563Y-104437500D01*
X76635349Y-104206450D01*
X76575320Y-103982421D01*
X76477301Y-103772219D01*
X76477299Y-103772216D01*
X76477298Y-103772214D01*
X76344273Y-103582235D01*
X76344268Y-103582229D01*
X76180269Y-103418230D01*
X76154228Y-103399996D01*
X75995814Y-103289072D01*
X75952192Y-103234498D01*
X75944999Y-103164999D01*
X75976521Y-103102645D01*
X75995809Y-103085930D01*
X76180269Y-102956770D01*
X76344270Y-102792769D01*
X76477301Y-102602782D01*
X76575320Y-102392579D01*
X76635349Y-102168550D01*
X76655563Y-101937500D01*
X76652282Y-101900003D01*
X76646889Y-101838352D01*
X76635349Y-101706450D01*
X76633620Y-101699996D01*
X81894435Y-101699996D01*
X81894435Y-101700003D01*
X81914630Y-101879249D01*
X81914631Y-101879254D01*
X81974211Y-102049523D01*
X82049001Y-102168550D01*
X82070184Y-102202262D01*
X82197738Y-102329816D01*
X82286148Y-102385368D01*
X82332721Y-102414632D01*
X82350478Y-102425789D01*
X82466406Y-102466354D01*
X82520745Y-102485368D01*
X82520750Y-102485369D01*
X82699996Y-102505565D01*
X82700000Y-102505565D01*
X82700004Y-102505565D01*
X82879249Y-102485369D01*
X82879252Y-102485368D01*
X82879255Y-102485368D01*
X83049522Y-102425789D01*
X83202262Y-102329816D01*
X83329816Y-102202262D01*
X83425789Y-102049522D01*
X83485368Y-101879255D01*
X83488718Y-101849522D01*
X83505565Y-101700003D01*
X83505565Y-101699996D01*
X83485369Y-101520750D01*
X83485368Y-101520745D01*
X83450376Y-101420745D01*
X83425789Y-101350478D01*
X83407106Y-101320745D01*
X83378364Y-101275002D01*
X83329816Y-101197738D01*
X83202262Y-101070184D01*
X83049523Y-100974211D01*
X82879254Y-100914631D01*
X82879249Y-100914630D01*
X82700004Y-100894435D01*
X82699996Y-100894435D01*
X82520750Y-100914630D01*
X82520745Y-100914631D01*
X82350476Y-100974211D01*
X82197737Y-101070184D01*
X82070184Y-101197737D01*
X81974211Y-101350476D01*
X81914631Y-101520745D01*
X81914630Y-101520750D01*
X81894435Y-101699996D01*
X76633620Y-101699996D01*
X76575320Y-101482421D01*
X76477301Y-101272219D01*
X76477299Y-101272216D01*
X76477298Y-101272214D01*
X76344273Y-101082235D01*
X76344268Y-101082229D01*
X76180269Y-100918230D01*
X76133337Y-100885368D01*
X75995379Y-100788768D01*
X75951757Y-100734193D01*
X75944564Y-100664694D01*
X75976086Y-100602340D01*
X75995381Y-100585620D01*
X76068422Y-100534475D01*
X75495235Y-99961287D01*
X75537292Y-99950018D01*
X75662708Y-99877610D01*
X75765110Y-99775208D01*
X75837518Y-99649792D01*
X75848787Y-99607733D01*
X76421976Y-100180922D01*
X76476865Y-100102534D01*
X76476867Y-100102530D01*
X76574847Y-99892409D01*
X76574851Y-99892400D01*
X76634852Y-99668468D01*
X76634854Y-99668458D01*
X76655061Y-99437500D01*
X76655061Y-99437499D01*
X76634854Y-99206541D01*
X76634852Y-99206531D01*
X76574851Y-98982599D01*
X76574847Y-98982590D01*
X76476867Y-98772470D01*
X76476866Y-98772468D01*
X76353038Y-98595623D01*
X76330711Y-98529417D01*
X76347721Y-98461650D01*
X76398669Y-98413837D01*
X76454613Y-98400500D01*
X80713331Y-98400500D01*
X80713347Y-98400501D01*
X80720943Y-98400501D01*
X80879054Y-98400501D01*
X80879057Y-98400501D01*
X81031785Y-98359577D01*
X81081904Y-98330639D01*
X81168716Y-98280520D01*
X81280520Y-98168716D01*
X81280520Y-98168714D01*
X81290728Y-98158507D01*
X81290730Y-98158504D01*
X83836739Y-95612495D01*
X87349732Y-95612495D01*
X87349732Y-95612504D01*
X87368777Y-95866654D01*
X87418697Y-96085369D01*
X87425492Y-96115137D01*
X87518607Y-96352388D01*
X87646041Y-96573112D01*
X87804950Y-96772377D01*
X87991783Y-96945732D01*
X88202366Y-97089305D01*
X88202371Y-97089307D01*
X88202372Y-97089308D01*
X88202373Y-97089309D01*
X88280663Y-97127011D01*
X88431992Y-97199887D01*
X88431993Y-97199887D01*
X88431996Y-97199889D01*
X88675542Y-97275013D01*
X88843949Y-97300396D01*
X88907305Y-97329853D01*
X88944679Y-97388886D01*
X88944204Y-97458754D01*
X88906030Y-97517274D01*
X88901630Y-97520864D01*
X88802247Y-97598217D01*
X88802242Y-97598222D01*
X88636632Y-97778121D01*
X88502888Y-97982833D01*
X88404663Y-98206765D01*
X88344636Y-98443804D01*
X88344634Y-98443816D01*
X88324443Y-98687494D01*
X88324443Y-98687505D01*
X88344634Y-98931183D01*
X88344636Y-98931195D01*
X88404663Y-99168234D01*
X88502888Y-99392166D01*
X88636632Y-99596878D01*
X88802242Y-99776777D01*
X88802252Y-99776786D01*
X88995208Y-99926970D01*
X88995212Y-99926973D01*
X89130159Y-100000003D01*
X89210267Y-100043355D01*
X89210270Y-100043356D01*
X89441541Y-100122751D01*
X89441543Y-100122751D01*
X89441545Y-100122752D01*
X89682737Y-100163000D01*
X89682738Y-100163000D01*
X89927262Y-100163000D01*
X89927263Y-100163000D01*
X90168455Y-100122752D01*
X90399733Y-100043355D01*
X90614788Y-99926973D01*
X90807754Y-99776781D01*
X90973368Y-99596877D01*
X91107111Y-99392167D01*
X91205336Y-99168236D01*
X91265364Y-98931192D01*
X91265879Y-98924982D01*
X91285557Y-98687505D01*
X91285557Y-98687494D01*
X91265365Y-98443816D01*
X91265363Y-98443804D01*
X91254397Y-98400500D01*
X91205336Y-98206764D01*
X91107111Y-97982833D01*
X91004509Y-97825788D01*
X90973367Y-97778121D01*
X90807757Y-97598222D01*
X90807747Y-97598213D01*
X90614791Y-97448029D01*
X90614787Y-97448026D01*
X90399734Y-97331645D01*
X90399729Y-97331643D01*
X90168458Y-97252248D01*
X90071482Y-97236066D01*
X90008597Y-97205615D01*
X89972157Y-97146001D01*
X89973733Y-97076149D01*
X90012823Y-97018237D01*
X90022031Y-97011310D01*
X90118217Y-96945732D01*
X90305050Y-96772377D01*
X90463959Y-96573112D01*
X90591393Y-96352388D01*
X90684508Y-96115137D01*
X90741222Y-95866657D01*
X90760268Y-95612500D01*
X90754451Y-95534880D01*
X90741222Y-95358345D01*
X90727905Y-95300000D01*
X90684508Y-95109863D01*
X90591393Y-94872612D01*
X90463959Y-94651888D01*
X90305050Y-94452623D01*
X90118217Y-94279268D01*
X89907634Y-94135695D01*
X89907630Y-94135693D01*
X89907627Y-94135691D01*
X89907626Y-94135690D01*
X89678006Y-94025112D01*
X89678008Y-94025112D01*
X89434466Y-93949989D01*
X89434462Y-93949988D01*
X89434458Y-93949987D01*
X89308198Y-93930956D01*
X89182440Y-93912000D01*
X89182435Y-93912000D01*
X88927565Y-93912000D01*
X88927559Y-93912000D01*
X88777454Y-93934626D01*
X88675542Y-93949987D01*
X88675539Y-93949988D01*
X88675533Y-93949989D01*
X88431992Y-94025112D01*
X88202373Y-94135690D01*
X88202372Y-94135691D01*
X87991782Y-94279268D01*
X87804952Y-94452621D01*
X87804950Y-94452623D01*
X87646041Y-94651888D01*
X87518608Y-94872609D01*
X87425492Y-95109862D01*
X87425490Y-95109869D01*
X87368777Y-95358345D01*
X87349732Y-95612495D01*
X83836739Y-95612495D01*
X84413506Y-95035728D01*
X84413511Y-95035724D01*
X84423714Y-95025520D01*
X84423716Y-95025520D01*
X84535520Y-94913716D01*
X84589927Y-94819480D01*
X84614577Y-94776785D01*
X84655500Y-94624057D01*
X84655500Y-94468794D01*
X84675185Y-94401755D01*
X84715879Y-94362952D01*
X84715847Y-94362906D01*
X84716154Y-94362690D01*
X84717504Y-94361404D01*
X84720265Y-94359808D01*
X84720282Y-94359801D01*
X84910269Y-94226770D01*
X85074270Y-94062769D01*
X85203731Y-93877880D01*
X85258306Y-93834257D01*
X85327804Y-93827063D01*
X85390159Y-93858586D01*
X85406879Y-93877881D01*
X85458023Y-93950922D01*
X86031212Y-93377733D01*
X86042482Y-93419792D01*
X86114890Y-93545208D01*
X86217292Y-93647610D01*
X86342708Y-93720018D01*
X86384765Y-93731287D01*
X85811576Y-94304475D01*
X85889969Y-94359367D01*
X86100090Y-94457347D01*
X86100099Y-94457351D01*
X86324031Y-94517352D01*
X86324041Y-94517354D01*
X86554999Y-94537561D01*
X86555001Y-94537561D01*
X86785958Y-94517354D01*
X86785968Y-94517352D01*
X87009900Y-94457351D01*
X87009909Y-94457347D01*
X87220030Y-94359367D01*
X87220034Y-94359365D01*
X87298422Y-94304476D01*
X87298422Y-94304475D01*
X86725235Y-93731287D01*
X86767292Y-93720018D01*
X86892708Y-93647610D01*
X86995110Y-93545208D01*
X87067518Y-93419792D01*
X87078787Y-93377734D01*
X87651975Y-93950922D01*
X87651976Y-93950922D01*
X87706865Y-93872534D01*
X87706867Y-93872530D01*
X87804847Y-93662409D01*
X87804851Y-93662400D01*
X87864852Y-93438468D01*
X87864854Y-93438458D01*
X87885061Y-93207500D01*
X87885061Y-93207499D01*
X87864854Y-92976541D01*
X87864852Y-92976531D01*
X87804851Y-92752599D01*
X87804847Y-92752590D01*
X87706867Y-92542471D01*
X87706866Y-92542469D01*
X87651975Y-92464077D01*
X87651975Y-92464076D01*
X87078787Y-93037264D01*
X87067518Y-92995208D01*
X86995110Y-92869792D01*
X86892708Y-92767390D01*
X86767292Y-92694982D01*
X86725234Y-92683712D01*
X87298422Y-92110523D01*
X87220030Y-92055633D01*
X87009909Y-91957652D01*
X87009900Y-91957648D01*
X86785968Y-91897647D01*
X86785958Y-91897645D01*
X86555001Y-91877439D01*
X86554999Y-91877439D01*
X86324041Y-91897645D01*
X86324031Y-91897647D01*
X86100099Y-91957648D01*
X86100090Y-91957652D01*
X85889967Y-92055634D01*
X85811576Y-92110522D01*
X86384766Y-92683712D01*
X86342708Y-92694982D01*
X86217292Y-92767390D01*
X86114890Y-92869792D01*
X86042482Y-92995208D01*
X86031212Y-93037265D01*
X85458023Y-92464076D01*
X85458022Y-92464077D01*
X85406879Y-92537118D01*
X85352303Y-92580743D01*
X85282804Y-92587937D01*
X85220449Y-92556415D01*
X85203729Y-92537118D01*
X85203424Y-92536683D01*
X85074270Y-92352231D01*
X84910269Y-92188230D01*
X84720282Y-92055199D01*
X84510079Y-91957180D01*
X84510076Y-91957179D01*
X84510074Y-91957178D01*
X84286051Y-91897151D01*
X84286044Y-91897150D01*
X84055002Y-91876937D01*
X84054998Y-91876937D01*
X83823955Y-91897150D01*
X83823948Y-91897151D01*
X83599917Y-91957181D01*
X83389718Y-92055199D01*
X83389714Y-92055201D01*
X83199735Y-92188226D01*
X83199729Y-92188231D01*
X83035731Y-92352229D01*
X83035726Y-92352235D01*
X82906575Y-92536683D01*
X82851998Y-92580308D01*
X82782500Y-92587502D01*
X82720145Y-92555979D01*
X82703425Y-92536683D01*
X82574273Y-92352235D01*
X82574268Y-92352229D01*
X82410269Y-92188230D01*
X82365367Y-92156789D01*
X82220282Y-92055199D01*
X82010079Y-91957180D01*
X82010076Y-91957179D01*
X82010074Y-91957178D01*
X81786051Y-91897151D01*
X81786044Y-91897150D01*
X81555002Y-91876937D01*
X81554998Y-91876937D01*
X81323955Y-91897150D01*
X81323948Y-91897151D01*
X81099917Y-91957181D01*
X80889718Y-92055199D01*
X80889714Y-92055201D01*
X80699735Y-92188226D01*
X80699729Y-92188231D01*
X80535731Y-92352229D01*
X80535726Y-92352235D01*
X80402701Y-92542214D01*
X80402699Y-92542218D01*
X80304681Y-92752417D01*
X80244651Y-92976448D01*
X80244650Y-92976455D01*
X80224437Y-93207498D01*
X80224437Y-93207501D01*
X80244650Y-93438544D01*
X80244651Y-93438551D01*
X80304678Y-93662574D01*
X80304679Y-93662576D01*
X80304680Y-93662579D01*
X80402699Y-93872782D01*
X80535730Y-94062769D01*
X80699731Y-94226770D01*
X80889718Y-94359801D01*
X81099921Y-94457820D01*
X81323950Y-94517849D01*
X81488985Y-94532287D01*
X81554998Y-94538063D01*
X81555000Y-94538063D01*
X81555002Y-94538063D01*
X81612762Y-94533009D01*
X81786050Y-94517849D01*
X82010079Y-94457820D01*
X82220282Y-94359801D01*
X82410269Y-94226770D01*
X82574270Y-94062769D01*
X82703427Y-93878314D01*
X82758002Y-93834692D01*
X82827501Y-93827499D01*
X82889855Y-93859021D01*
X82906569Y-93878309D01*
X83035730Y-94062769D01*
X83199731Y-94226770D01*
X83269399Y-94275552D01*
X83313023Y-94330128D01*
X83320217Y-94399626D01*
X83288694Y-94461981D01*
X83285956Y-94464807D01*
X80587584Y-97163181D01*
X80526261Y-97196666D01*
X80499903Y-97199500D01*
X80148006Y-97199500D01*
X80080967Y-97179815D01*
X80035212Y-97127011D01*
X80025268Y-97057853D01*
X80054293Y-96994297D01*
X80078154Y-96973047D01*
X80094860Y-96961656D01*
X80118217Y-96945732D01*
X80305050Y-96772377D01*
X80463959Y-96573112D01*
X80591393Y-96352388D01*
X80684508Y-96115137D01*
X80741222Y-95866657D01*
X80760268Y-95612500D01*
X80754451Y-95534880D01*
X80741222Y-95358345D01*
X80727905Y-95300000D01*
X80684508Y-95109863D01*
X80591393Y-94872612D01*
X80463959Y-94651888D01*
X80305050Y-94452623D01*
X80118217Y-94279268D01*
X79907634Y-94135695D01*
X79907630Y-94135693D01*
X79907627Y-94135691D01*
X79907626Y-94135690D01*
X79678006Y-94025112D01*
X79678008Y-94025112D01*
X79434466Y-93949989D01*
X79434462Y-93949988D01*
X79434458Y-93949987D01*
X79308198Y-93930956D01*
X79182440Y-93912000D01*
X79182435Y-93912000D01*
X78927565Y-93912000D01*
X78927559Y-93912000D01*
X78777454Y-93934626D01*
X78675542Y-93949987D01*
X78675539Y-93949988D01*
X78675533Y-93949989D01*
X78431992Y-94025112D01*
X78202373Y-94135690D01*
X78202372Y-94135691D01*
X77991782Y-94279268D01*
X77804952Y-94452621D01*
X77804950Y-94452623D01*
X77646041Y-94651888D01*
X77518608Y-94872609D01*
X77425492Y-95109862D01*
X77425490Y-95109869D01*
X77368777Y-95358345D01*
X77349732Y-95612495D01*
X77349732Y-95612504D01*
X77368777Y-95866654D01*
X77418697Y-96085369D01*
X77425492Y-96115137D01*
X77518607Y-96352388D01*
X77646041Y-96573112D01*
X77804950Y-96772377D01*
X77991783Y-96945732D01*
X77991786Y-96945734D01*
X78031846Y-96973047D01*
X78076148Y-97027076D01*
X78084206Y-97096479D01*
X78053464Y-97159222D01*
X77993680Y-97195383D01*
X77961994Y-97199500D01*
X74079057Y-97199500D01*
X73920943Y-97199500D01*
X73768215Y-97240423D01*
X73768214Y-97240423D01*
X73768212Y-97240424D01*
X73768209Y-97240425D01*
X73718096Y-97269359D01*
X73718095Y-97269360D01*
X73680740Y-97290927D01*
X73631285Y-97319479D01*
X73631282Y-97319481D01*
X73561878Y-97388886D01*
X73519480Y-97431284D01*
X73519478Y-97431286D01*
X71090048Y-99860717D01*
X68687584Y-102263181D01*
X68626261Y-102296666D01*
X68599903Y-102299500D01*
X68583063Y-102299500D01*
X68516024Y-102279815D01*
X68470269Y-102227011D01*
X68460325Y-102157853D01*
X68466022Y-102134545D01*
X68485366Y-102079262D01*
X68485369Y-102079249D01*
X68505565Y-101900003D01*
X68505565Y-101899996D01*
X68485369Y-101720750D01*
X68485368Y-101720745D01*
X68451561Y-101624131D01*
X68425789Y-101550478D01*
X68407106Y-101520745D01*
X68344272Y-101420745D01*
X68329816Y-101397738D01*
X68202262Y-101270184D01*
X68099422Y-101205565D01*
X68049523Y-101174211D01*
X67879253Y-101114631D01*
X67847863Y-101111094D01*
X67783450Y-101084026D01*
X67743896Y-101026431D01*
X67741759Y-100956594D01*
X67777719Y-100896688D01*
X67820792Y-100870833D01*
X67949522Y-100825789D01*
X68102262Y-100729816D01*
X68229816Y-100602262D01*
X68325789Y-100449522D01*
X68330477Y-100436122D01*
X68359835Y-100389398D01*
X79786478Y-88962755D01*
X79847799Y-88929272D01*
X79915109Y-88933395D01*
X79920745Y-88935368D01*
X79920748Y-88935368D01*
X79920750Y-88935369D01*
X80099996Y-88955565D01*
X80100000Y-88955565D01*
X80100004Y-88955565D01*
X80279249Y-88935369D01*
X80279252Y-88935368D01*
X80279255Y-88935368D01*
X80449522Y-88875789D01*
X80602262Y-88779816D01*
X80729816Y-88652262D01*
X80825789Y-88499522D01*
X80885368Y-88329255D01*
X80885369Y-88329249D01*
X80905565Y-88150003D01*
X80905565Y-88149996D01*
X80885369Y-87970750D01*
X80885368Y-87970745D01*
X80843284Y-87850476D01*
X80825789Y-87800478D01*
X80824067Y-87797738D01*
X80759158Y-87694435D01*
X80729816Y-87647738D01*
X80602262Y-87520184D01*
X80593426Y-87514632D01*
X80449523Y-87424211D01*
X80279254Y-87364631D01*
X80279249Y-87364630D01*
X80185617Y-87354081D01*
X80121203Y-87327015D01*
X80081647Y-87269420D01*
X80075500Y-87230861D01*
X80075500Y-87199996D01*
X81194435Y-87199996D01*
X81194435Y-87200003D01*
X81214630Y-87379249D01*
X81214631Y-87379254D01*
X81274211Y-87549523D01*
X81335924Y-87647738D01*
X81370184Y-87702262D01*
X81497738Y-87829816D01*
X81650478Y-87925789D01*
X81721138Y-87950514D01*
X81820745Y-87985368D01*
X81820750Y-87985369D01*
X81999996Y-88005565D01*
X82000000Y-88005565D01*
X82000004Y-88005565D01*
X82179249Y-87985369D01*
X82179252Y-87985368D01*
X82179255Y-87985368D01*
X82349522Y-87925789D01*
X82502262Y-87829816D01*
X82629816Y-87702262D01*
X82725789Y-87549522D01*
X82773128Y-87414234D01*
X83709500Y-87414234D01*
X83709500Y-87565765D01*
X83748719Y-87712136D01*
X83751185Y-87716407D01*
X83824485Y-87843365D01*
X83931635Y-87950515D01*
X84062865Y-88026281D01*
X84209234Y-88065500D01*
X84209236Y-88065500D01*
X84360764Y-88065500D01*
X84360766Y-88065500D01*
X84507135Y-88026281D01*
X84638365Y-87950515D01*
X84745515Y-87843365D01*
X84821281Y-87712135D01*
X84860500Y-87565766D01*
X84860500Y-87414234D01*
X84821281Y-87267865D01*
X84745515Y-87136635D01*
X84638365Y-87029485D01*
X84572750Y-86991602D01*
X84507136Y-86953719D01*
X84433950Y-86934109D01*
X84360766Y-86914500D01*
X84209234Y-86914500D01*
X84062863Y-86953719D01*
X83931635Y-87029485D01*
X83931632Y-87029487D01*
X83824487Y-87136632D01*
X83824485Y-87136635D01*
X83748719Y-87267863D01*
X83709500Y-87414234D01*
X82773128Y-87414234D01*
X82785368Y-87379255D01*
X82787016Y-87364630D01*
X82805565Y-87200003D01*
X82805565Y-87199996D01*
X82785369Y-87020750D01*
X82785368Y-87020745D01*
X82767121Y-86968599D01*
X82725789Y-86850478D01*
X82629816Y-86697738D01*
X82502262Y-86570184D01*
X82431608Y-86525789D01*
X82349523Y-86474211D01*
X82179254Y-86414631D01*
X82179249Y-86414630D01*
X82000004Y-86394435D01*
X81999996Y-86394435D01*
X81820750Y-86414630D01*
X81820745Y-86414631D01*
X81650476Y-86474211D01*
X81497737Y-86570184D01*
X81370184Y-86697737D01*
X81274211Y-86850476D01*
X81214631Y-87020745D01*
X81214630Y-87020750D01*
X81194435Y-87199996D01*
X80075500Y-87199996D01*
X80075500Y-85799996D01*
X83894435Y-85799996D01*
X83894435Y-85800003D01*
X83914630Y-85979249D01*
X83914631Y-85979254D01*
X83974211Y-86149523D01*
X84037646Y-86250478D01*
X84070184Y-86302262D01*
X84197738Y-86429816D01*
X84350478Y-86525789D01*
X84477352Y-86570184D01*
X84520745Y-86585368D01*
X84520750Y-86585369D01*
X84699996Y-86605565D01*
X84700000Y-86605565D01*
X84700004Y-86605565D01*
X84879249Y-86585369D01*
X84879252Y-86585368D01*
X84879255Y-86585368D01*
X85049522Y-86525789D01*
X85202262Y-86429816D01*
X85329816Y-86302262D01*
X85425789Y-86149522D01*
X85485368Y-85979255D01*
X85486390Y-85970184D01*
X85505565Y-85800003D01*
X85505565Y-85799996D01*
X85485369Y-85620750D01*
X85485368Y-85620745D01*
X85452141Y-85525788D01*
X85425789Y-85450478D01*
X85329816Y-85297738D01*
X85202262Y-85170184D01*
X85169379Y-85149522D01*
X85049523Y-85074211D01*
X84879254Y-85014631D01*
X84879249Y-85014630D01*
X84700004Y-84994435D01*
X84699996Y-84994435D01*
X84520750Y-85014630D01*
X84520745Y-85014631D01*
X84350476Y-85074211D01*
X84197737Y-85170184D01*
X84070184Y-85297737D01*
X83974211Y-85450476D01*
X83914631Y-85620745D01*
X83914630Y-85620750D01*
X83894435Y-85799996D01*
X80075500Y-85799996D01*
X80075500Y-82399996D01*
X81194435Y-82399996D01*
X81194435Y-82400003D01*
X81214630Y-82579249D01*
X81214631Y-82579254D01*
X81274211Y-82749523D01*
X81305926Y-82799996D01*
X81370184Y-82902262D01*
X81497738Y-83029816D01*
X81650478Y-83125789D01*
X81718306Y-83149523D01*
X81820745Y-83185368D01*
X81820750Y-83185369D01*
X81999996Y-83205565D01*
X82000000Y-83205565D01*
X82000004Y-83205565D01*
X82179249Y-83185369D01*
X82179252Y-83185368D01*
X82179255Y-83185368D01*
X82349522Y-83125789D01*
X82502262Y-83029816D01*
X82629816Y-82902262D01*
X82725789Y-82749522D01*
X82785368Y-82579255D01*
X82785369Y-82579249D01*
X82805565Y-82400003D01*
X82805565Y-82399996D01*
X82785369Y-82220750D01*
X82785368Y-82220745D01*
X82725789Y-82050478D01*
X82725188Y-82049522D01*
X82664747Y-81953330D01*
X82629816Y-81897738D01*
X82502262Y-81770184D01*
X82390570Y-81700003D01*
X82349523Y-81674211D01*
X82235276Y-81634234D01*
X83709500Y-81634234D01*
X83709500Y-81785766D01*
X83723490Y-81837978D01*
X83748719Y-81932136D01*
X83760956Y-81953330D01*
X83824485Y-82063365D01*
X83824487Y-82063367D01*
X83934477Y-82173357D01*
X83967962Y-82234680D01*
X83962978Y-82304372D01*
X83951790Y-82327010D01*
X83874211Y-82450476D01*
X83814631Y-82620745D01*
X83814630Y-82620750D01*
X83794435Y-82799996D01*
X83794435Y-82800003D01*
X83814630Y-82979249D01*
X83814631Y-82979254D01*
X83874211Y-83149523D01*
X83970184Y-83302262D01*
X84097738Y-83429816D01*
X84136472Y-83454154D01*
X84242450Y-83520745D01*
X84250478Y-83525789D01*
X84289019Y-83539275D01*
X84420745Y-83585368D01*
X84420750Y-83585369D01*
X84599996Y-83605565D01*
X84600000Y-83605565D01*
X84600004Y-83605565D01*
X84779249Y-83585369D01*
X84779252Y-83585368D01*
X84779255Y-83585368D01*
X84949522Y-83525789D01*
X85102262Y-83429816D01*
X85229816Y-83302262D01*
X85325789Y-83149522D01*
X85385368Y-82979255D01*
X85385369Y-82979249D01*
X85405565Y-82800003D01*
X85405565Y-82799996D01*
X85385369Y-82620750D01*
X85385368Y-82620745D01*
X85337998Y-82485369D01*
X85325789Y-82450478D01*
X85229816Y-82297738D01*
X85102262Y-82170184D01*
X84949522Y-82074211D01*
X84949519Y-82074209D01*
X84906066Y-82059004D01*
X84849290Y-82018283D01*
X84823543Y-81953330D01*
X84827245Y-81909874D01*
X84860500Y-81785766D01*
X84860500Y-81634234D01*
X84821281Y-81487865D01*
X84745515Y-81356635D01*
X84638365Y-81249485D01*
X84548737Y-81197738D01*
X84507136Y-81173719D01*
X84419408Y-81150213D01*
X84360766Y-81134500D01*
X84209234Y-81134500D01*
X84062863Y-81173719D01*
X83931635Y-81249485D01*
X83931632Y-81249487D01*
X83824487Y-81356632D01*
X83824485Y-81356635D01*
X83748719Y-81487863D01*
X83714752Y-81614632D01*
X83709500Y-81634234D01*
X82235276Y-81634234D01*
X82179254Y-81614631D01*
X82179249Y-81614630D01*
X82000004Y-81594435D01*
X81999996Y-81594435D01*
X81820750Y-81614630D01*
X81820745Y-81614631D01*
X81650476Y-81674211D01*
X81497737Y-81770184D01*
X81370184Y-81897737D01*
X81274211Y-82050476D01*
X81214631Y-82220745D01*
X81214630Y-82220750D01*
X81194435Y-82399996D01*
X80075500Y-82399996D01*
X80075500Y-79274499D01*
X80095185Y-79207460D01*
X80147989Y-79161705D01*
X80199500Y-79150499D01*
X80372871Y-79150499D01*
X80372872Y-79150499D01*
X80432483Y-79144091D01*
X80567331Y-79093796D01*
X80682546Y-79007546D01*
X80768796Y-78892331D01*
X80819091Y-78757483D01*
X80825500Y-78697873D01*
X80825500Y-78399996D01*
X85294435Y-78399996D01*
X85294435Y-78400003D01*
X85314630Y-78579249D01*
X85314631Y-78579254D01*
X85374211Y-78749523D01*
X85430115Y-78838493D01*
X85470184Y-78902262D01*
X85597738Y-79029816D01*
X85750478Y-79125789D01*
X85821098Y-79150500D01*
X85920745Y-79185368D01*
X85920750Y-79185369D01*
X86099996Y-79205565D01*
X86100000Y-79205565D01*
X86100004Y-79205565D01*
X86279249Y-79185369D01*
X86279252Y-79185368D01*
X86279255Y-79185368D01*
X86449522Y-79125789D01*
X86602262Y-79029816D01*
X86729816Y-78902262D01*
X86825789Y-78749522D01*
X86885368Y-78579255D01*
X86885369Y-78579249D01*
X86905565Y-78400003D01*
X86905565Y-78399996D01*
X86885369Y-78220750D01*
X86885368Y-78220745D01*
X86825789Y-78050478D01*
X86729816Y-77897738D01*
X86602262Y-77770184D01*
X86570897Y-77750476D01*
X86449523Y-77674211D01*
X86279254Y-77614631D01*
X86279249Y-77614630D01*
X86100004Y-77594435D01*
X86099996Y-77594435D01*
X85920750Y-77614630D01*
X85920745Y-77614631D01*
X85750476Y-77674211D01*
X85597737Y-77770184D01*
X85470184Y-77897737D01*
X85374211Y-78050476D01*
X85314631Y-78220745D01*
X85314630Y-78220750D01*
X85294435Y-78399996D01*
X80825500Y-78399996D01*
X80825499Y-76902128D01*
X80819091Y-76842517D01*
X80817810Y-76839083D01*
X80768797Y-76707671D01*
X80768793Y-76707664D01*
X80682547Y-76592455D01*
X80682544Y-76592452D01*
X80567335Y-76506206D01*
X80567328Y-76506202D01*
X80432482Y-76455908D01*
X80432483Y-76455908D01*
X80372883Y-76449501D01*
X80372881Y-76449500D01*
X80372873Y-76449500D01*
X80372864Y-76449500D01*
X78577129Y-76449500D01*
X78577123Y-76449501D01*
X78517516Y-76455908D01*
X78382671Y-76506202D01*
X78382664Y-76506206D01*
X78267455Y-76592452D01*
X78267452Y-76592455D01*
X78181206Y-76707664D01*
X78181203Y-76707669D01*
X78132189Y-76839083D01*
X78090317Y-76895016D01*
X78024853Y-76919433D01*
X77956580Y-76904581D01*
X77928326Y-76883430D01*
X77806402Y-76761506D01*
X77806395Y-76761501D01*
X77612834Y-76625967D01*
X77612830Y-76625965D01*
X77557139Y-76599996D01*
X77398663Y-76526097D01*
X77398659Y-76526096D01*
X77398655Y-76526094D01*
X77170413Y-76464938D01*
X77170403Y-76464936D01*
X76935001Y-76444341D01*
X76934999Y-76444341D01*
X76699596Y-76464936D01*
X76699586Y-76464938D01*
X76471344Y-76526094D01*
X76471335Y-76526098D01*
X76257171Y-76625964D01*
X76257169Y-76625965D01*
X76063597Y-76761505D01*
X75896505Y-76928597D01*
X75760965Y-77122169D01*
X75760964Y-77122171D01*
X75661098Y-77336335D01*
X75661094Y-77336344D01*
X75599938Y-77564586D01*
X75599936Y-77564596D01*
X75579341Y-77799999D01*
X75579341Y-77800000D01*
X75599936Y-78035403D01*
X75599938Y-78035413D01*
X75661094Y-78263655D01*
X75661096Y-78263659D01*
X75661097Y-78263663D01*
X75668368Y-78279255D01*
X75760965Y-78477830D01*
X75760967Y-78477834D01*
X75848093Y-78602262D01*
X75896505Y-78671401D01*
X76063599Y-78838495D01*
X76154668Y-78902262D01*
X76257165Y-78974032D01*
X76257167Y-78974033D01*
X76257170Y-78974035D01*
X76471337Y-79073903D01*
X76699592Y-79135063D01*
X76876034Y-79150500D01*
X76934999Y-79155659D01*
X76935000Y-79155659D01*
X76935001Y-79155659D01*
X76993966Y-79150500D01*
X77170408Y-79135063D01*
X77398663Y-79073903D01*
X77612830Y-78974035D01*
X77806401Y-78838495D01*
X77928329Y-78716566D01*
X77989648Y-78683084D01*
X78059340Y-78688068D01*
X78115274Y-78729939D01*
X78132189Y-78760917D01*
X78181202Y-78892328D01*
X78181206Y-78892335D01*
X78267452Y-79007544D01*
X78267455Y-79007547D01*
X78382664Y-79093793D01*
X78382671Y-79093797D01*
X78427618Y-79110561D01*
X78517517Y-79144091D01*
X78577127Y-79150500D01*
X78750500Y-79150499D01*
X78817539Y-79170183D01*
X78863294Y-79222987D01*
X78874500Y-79274499D01*
X78874500Y-88124902D01*
X78854815Y-88191941D01*
X78838181Y-88212583D01*
X67782723Y-99268040D01*
X67721400Y-99301525D01*
X67681159Y-99303579D01*
X67600003Y-99294435D01*
X67599996Y-99294435D01*
X67420750Y-99314630D01*
X67420745Y-99314631D01*
X67250476Y-99374211D01*
X67097737Y-99470184D01*
X66970184Y-99597737D01*
X66874211Y-99750476D01*
X66814631Y-99920745D01*
X66814630Y-99920750D01*
X66794435Y-100099996D01*
X66794435Y-100100003D01*
X66814630Y-100279249D01*
X66814631Y-100279254D01*
X66874211Y-100449523D01*
X66937646Y-100550478D01*
X66970184Y-100602262D01*
X67097738Y-100729816D01*
X67150838Y-100763181D01*
X67232721Y-100814632D01*
X67250478Y-100825789D01*
X67388860Y-100874211D01*
X67420745Y-100885368D01*
X67420749Y-100885369D01*
X67452133Y-100888905D01*
X67516547Y-100915971D01*
X67556102Y-100973566D01*
X67558240Y-101043403D01*
X67522283Y-101103309D01*
X67479205Y-101129166D01*
X67350480Y-101174209D01*
X67197737Y-101270184D01*
X67070184Y-101397737D01*
X66974211Y-101550476D01*
X66914631Y-101720745D01*
X66914630Y-101720750D01*
X66894435Y-101899996D01*
X66894435Y-101900003D01*
X66914630Y-102079249D01*
X66914633Y-102079262D01*
X66933978Y-102134545D01*
X66937540Y-102204324D01*
X66902812Y-102264951D01*
X66840818Y-102297179D01*
X66816937Y-102299500D01*
X64221843Y-102299500D01*
X64154804Y-102279815D01*
X64109049Y-102227011D01*
X64098623Y-102161617D01*
X64105565Y-102100003D01*
X64105565Y-102099996D01*
X64085369Y-101920750D01*
X64085368Y-101920745D01*
X64054064Y-101831284D01*
X64025789Y-101750478D01*
X64007106Y-101720745D01*
X63981033Y-101679249D01*
X63929816Y-101597738D01*
X63802262Y-101470184D01*
X63649523Y-101374211D01*
X63479254Y-101314631D01*
X63479249Y-101314630D01*
X63300004Y-101294435D01*
X63299996Y-101294435D01*
X63120750Y-101314630D01*
X63120745Y-101314631D01*
X62950476Y-101374211D01*
X62797737Y-101470184D01*
X62670184Y-101597737D01*
X62574211Y-101750476D01*
X62514631Y-101920745D01*
X62514630Y-101920750D01*
X62495471Y-102090799D01*
X62468405Y-102155213D01*
X62438224Y-102181909D01*
X62297740Y-102270182D01*
X62297737Y-102270184D01*
X62165260Y-102402662D01*
X62163536Y-102400938D01*
X62115633Y-102434543D01*
X62045821Y-102437374D01*
X62034950Y-102434120D01*
X61979254Y-102414631D01*
X61800004Y-102394435D01*
X61799996Y-102394435D01*
X61620750Y-102414630D01*
X61620745Y-102414631D01*
X61450476Y-102474211D01*
X61297734Y-102570186D01*
X61297733Y-102570186D01*
X61263269Y-102604651D01*
X61201946Y-102638136D01*
X61134634Y-102634010D01*
X61079257Y-102614632D01*
X61079246Y-102614630D01*
X60900004Y-102594435D01*
X60899996Y-102594435D01*
X60720750Y-102614630D01*
X60720745Y-102614631D01*
X60550476Y-102674211D01*
X60397737Y-102770184D01*
X60270184Y-102897737D01*
X60174211Y-103050476D01*
X60114631Y-103220745D01*
X60114630Y-103220750D01*
X60094435Y-103399996D01*
X60094435Y-103400003D01*
X60114630Y-103579249D01*
X60114631Y-103579254D01*
X60174211Y-103749523D01*
X60188472Y-103772219D01*
X60270184Y-103902262D01*
X60397738Y-104029816D01*
X60550478Y-104125789D01*
X60720745Y-104185368D01*
X60807669Y-104195161D01*
X60872080Y-104222226D01*
X60881465Y-104230700D01*
X63315139Y-106664374D01*
X63315149Y-106664385D01*
X63319479Y-106668715D01*
X63319480Y-106668716D01*
X63431284Y-106780520D01*
X63431286Y-106780521D01*
X63431290Y-106780524D01*
X63568209Y-106859573D01*
X63568216Y-106859577D01*
X63664470Y-106885368D01*
X63720942Y-106900500D01*
X63720943Y-106900500D01*
X77708650Y-106900500D01*
X77775689Y-106920185D01*
X77821444Y-106972989D01*
X77831388Y-107042147D01*
X77805597Y-107101813D01*
X77804954Y-107102619D01*
X77804950Y-107102623D01*
X77703517Y-107229816D01*
X77646041Y-107301888D01*
X77518608Y-107522609D01*
X77425492Y-107759862D01*
X77425490Y-107759869D01*
X77368777Y-108008345D01*
X77349732Y-108262495D01*
X77349732Y-108262504D01*
X77368777Y-108516654D01*
X77406017Y-108679815D01*
X77425492Y-108765137D01*
X77518607Y-109002388D01*
X77646041Y-109223112D01*
X77804950Y-109422377D01*
X77991783Y-109595732D01*
X78105184Y-109673047D01*
X78149485Y-109727075D01*
X78157544Y-109796478D01*
X78126801Y-109859221D01*
X78067017Y-109895383D01*
X78035331Y-109899500D01*
X30074669Y-109899500D01*
X30007630Y-109879815D01*
X29961875Y-109827011D01*
X29951931Y-109757853D01*
X29980956Y-109694297D01*
X30004813Y-109673049D01*
X30118217Y-109595732D01*
X30305050Y-109422377D01*
X30463959Y-109223112D01*
X30591393Y-109002388D01*
X30684508Y-108765137D01*
X30741222Y-108516657D01*
X30753640Y-108350949D01*
X30760268Y-108262504D01*
X30760268Y-108262495D01*
X30741222Y-108008345D01*
X30714429Y-107890959D01*
X30684508Y-107759863D01*
X30595195Y-107532301D01*
X30589027Y-107462706D01*
X30621465Y-107400822D01*
X30682209Y-107366299D01*
X30710624Y-107363000D01*
X39426630Y-107363000D01*
X39493669Y-107382685D01*
X39539424Y-107435489D01*
X39549368Y-107504647D01*
X39520343Y-107568203D01*
X39492603Y-107591993D01*
X39447739Y-107620182D01*
X39320184Y-107747737D01*
X39224211Y-107900476D01*
X39164631Y-108070745D01*
X39164630Y-108070750D01*
X39144435Y-108249996D01*
X39144435Y-108250003D01*
X39164630Y-108429249D01*
X39164631Y-108429254D01*
X39224211Y-108599523D01*
X39274662Y-108679815D01*
X39320184Y-108752262D01*
X39447738Y-108879816D01*
X39600478Y-108975789D01*
X39770745Y-109035368D01*
X39770750Y-109035369D01*
X39949996Y-109055565D01*
X39950000Y-109055565D01*
X39950004Y-109055565D01*
X40129249Y-109035369D01*
X40129252Y-109035368D01*
X40129255Y-109035368D01*
X40299522Y-108975789D01*
X40452262Y-108879816D01*
X40579816Y-108752262D01*
X40675789Y-108599522D01*
X40735368Y-108429255D01*
X40735759Y-108425788D01*
X40755565Y-108250003D01*
X40755565Y-108249996D01*
X40735369Y-108070750D01*
X40735368Y-108070745D01*
X40713533Y-108008345D01*
X40675789Y-107900478D01*
X40657106Y-107870745D01*
X40612925Y-107800431D01*
X40579816Y-107747738D01*
X40452262Y-107620184D01*
X40452260Y-107620182D01*
X40407397Y-107591993D01*
X40361107Y-107539659D01*
X40350459Y-107470605D01*
X40378834Y-107406757D01*
X40437224Y-107368385D01*
X40473370Y-107363000D01*
X46811902Y-107363000D01*
X46878941Y-107382685D01*
X46924696Y-107435489D01*
X46934640Y-107504647D01*
X46916895Y-107552973D01*
X46824211Y-107700475D01*
X46764631Y-107870745D01*
X46764630Y-107870750D01*
X46744435Y-108049996D01*
X46744435Y-108050003D01*
X46764630Y-108229249D01*
X46764631Y-108229254D01*
X46824211Y-108399523D01*
X46904125Y-108526705D01*
X46920184Y-108552262D01*
X47047738Y-108679816D01*
X47200478Y-108775789D01*
X47370745Y-108835368D01*
X47370750Y-108835369D01*
X47549996Y-108855565D01*
X47550000Y-108855565D01*
X47550004Y-108855565D01*
X47729249Y-108835369D01*
X47729252Y-108835368D01*
X47729255Y-108835368D01*
X47899522Y-108775789D01*
X48052262Y-108679816D01*
X48132082Y-108599996D01*
X56794435Y-108599996D01*
X56794435Y-108600003D01*
X56814630Y-108779249D01*
X56814631Y-108779254D01*
X56874211Y-108949523D01*
X56928152Y-109035369D01*
X56970184Y-109102262D01*
X57097738Y-109229816D01*
X57250478Y-109325789D01*
X57420745Y-109385368D01*
X57420750Y-109385369D01*
X57599996Y-109405565D01*
X57600000Y-109405565D01*
X57600004Y-109405565D01*
X57779249Y-109385369D01*
X57779252Y-109385368D01*
X57779255Y-109385368D01*
X57949522Y-109325789D01*
X58102262Y-109229816D01*
X58229816Y-109102262D01*
X58325789Y-108949522D01*
X58385368Y-108779255D01*
X58386959Y-108765137D01*
X58405565Y-108600003D01*
X58405565Y-108599997D01*
X58386327Y-108429255D01*
X58385368Y-108420745D01*
X58385367Y-108420743D01*
X58385258Y-108419771D01*
X58397312Y-108350949D01*
X58444661Y-108299569D01*
X58472875Y-108288219D01*
X58472682Y-108287668D01*
X58487077Y-108282631D01*
X58649522Y-108225789D01*
X58802262Y-108129816D01*
X58929816Y-108002262D01*
X59025789Y-107849522D01*
X59085368Y-107679255D01*
X59095200Y-107591993D01*
X59105565Y-107500003D01*
X59105565Y-107499996D01*
X59085369Y-107320750D01*
X59085368Y-107320745D01*
X59058170Y-107243019D01*
X59025789Y-107150478D01*
X58929816Y-106997738D01*
X58802262Y-106870184D01*
X58785381Y-106859577D01*
X58649523Y-106774211D01*
X58479254Y-106714631D01*
X58479249Y-106714630D01*
X58300004Y-106694435D01*
X58299996Y-106694435D01*
X58120750Y-106714630D01*
X58120745Y-106714631D01*
X57950476Y-106774211D01*
X57797737Y-106870184D01*
X57670184Y-106997737D01*
X57574211Y-107150476D01*
X57514631Y-107320745D01*
X57514630Y-107320750D01*
X57494435Y-107499996D01*
X57494435Y-107500003D01*
X57514741Y-107680230D01*
X57502686Y-107749052D01*
X57455337Y-107800431D01*
X57427124Y-107811783D01*
X57427317Y-107812333D01*
X57420747Y-107814631D01*
X57420745Y-107814632D01*
X57358158Y-107836531D01*
X57250478Y-107874210D01*
X57097737Y-107970184D01*
X56970184Y-108097737D01*
X56874211Y-108250476D01*
X56814631Y-108420745D01*
X56814630Y-108420750D01*
X56794435Y-108599996D01*
X48132082Y-108599996D01*
X48179816Y-108552262D01*
X48275789Y-108399522D01*
X48335368Y-108229255D01*
X48336807Y-108216487D01*
X48355565Y-108050003D01*
X48355565Y-108049996D01*
X48335369Y-107870750D01*
X48335368Y-107870745D01*
X48275788Y-107700475D01*
X48183105Y-107552973D01*
X48164104Y-107485736D01*
X48184471Y-107418901D01*
X48237739Y-107373686D01*
X48288098Y-107363000D01*
X48450831Y-107363000D01*
X48450847Y-107363001D01*
X48458443Y-107363001D01*
X48616554Y-107363001D01*
X48616557Y-107363001D01*
X48769285Y-107322077D01*
X48819404Y-107293139D01*
X48906216Y-107243020D01*
X49018020Y-107131216D01*
X49018020Y-107131214D01*
X49028228Y-107121007D01*
X49028229Y-107121004D01*
X50012417Y-106136819D01*
X50073740Y-106103334D01*
X50100098Y-106100500D01*
X50706921Y-106100500D01*
X50773960Y-106120185D01*
X50819715Y-106172989D01*
X50829659Y-106242147D01*
X50811915Y-106290472D01*
X50774211Y-106350476D01*
X50714631Y-106520745D01*
X50714630Y-106520750D01*
X50694435Y-106699996D01*
X50694435Y-106700003D01*
X50714630Y-106879249D01*
X50714632Y-106879259D01*
X50714898Y-106880017D01*
X50714924Y-106880537D01*
X50716182Y-106886047D01*
X50715216Y-106886267D01*
X50718458Y-106949796D01*
X50683727Y-107010422D01*
X50621733Y-107042647D01*
X50552157Y-107036240D01*
X50531883Y-107025962D01*
X50449522Y-106974211D01*
X50279254Y-106914631D01*
X50279249Y-106914630D01*
X50100004Y-106894435D01*
X50099996Y-106894435D01*
X49920750Y-106914630D01*
X49920745Y-106914631D01*
X49750476Y-106974211D01*
X49597737Y-107070184D01*
X49470184Y-107197737D01*
X49374211Y-107350476D01*
X49314631Y-107520745D01*
X49314630Y-107520750D01*
X49294435Y-107699996D01*
X49294435Y-107700003D01*
X49314630Y-107879249D01*
X49314631Y-107879254D01*
X49374211Y-108049523D01*
X49404507Y-108097738D01*
X49470184Y-108202262D01*
X49597738Y-108329816D01*
X49631371Y-108350949D01*
X49742450Y-108420745D01*
X49750478Y-108425789D01*
X49920745Y-108485368D01*
X49920750Y-108485369D01*
X50099996Y-108505565D01*
X50100000Y-108505565D01*
X50100004Y-108505565D01*
X50279249Y-108485369D01*
X50279252Y-108485368D01*
X50279255Y-108485368D01*
X50449522Y-108425789D01*
X50602262Y-108329816D01*
X50729816Y-108202262D01*
X50825789Y-108049522D01*
X50885368Y-107879255D01*
X50885369Y-107879249D01*
X50905565Y-107700003D01*
X50905565Y-107699996D01*
X50885369Y-107520750D01*
X50885367Y-107520741D01*
X50885105Y-107519992D01*
X50885078Y-107519476D01*
X50883818Y-107513953D01*
X50884785Y-107513732D01*
X50881539Y-107450213D01*
X50916265Y-107389584D01*
X50978257Y-107357354D01*
X51047833Y-107363755D01*
X51068117Y-107374038D01*
X51150475Y-107425788D01*
X51320745Y-107485368D01*
X51320750Y-107485369D01*
X51499996Y-107505565D01*
X51500000Y-107505565D01*
X51500004Y-107505565D01*
X51679249Y-107485369D01*
X51679252Y-107485368D01*
X51679255Y-107485368D01*
X51849522Y-107425789D01*
X52002262Y-107329816D01*
X52129816Y-107202262D01*
X52225789Y-107049522D01*
X52264060Y-106940147D01*
X52304782Y-106883372D01*
X52340146Y-106864060D01*
X52449522Y-106825789D01*
X52602262Y-106729816D01*
X52729816Y-106602262D01*
X52825789Y-106449522D01*
X52885368Y-106279255D01*
X52885647Y-106276786D01*
X52893102Y-106210617D01*
X52920168Y-106146203D01*
X52977763Y-106106648D01*
X53016322Y-106100500D01*
X55751928Y-106100500D01*
X55818967Y-106120185D01*
X55864722Y-106172989D01*
X55874666Y-106242147D01*
X55868970Y-106265454D01*
X55814632Y-106420742D01*
X55814630Y-106420750D01*
X55794435Y-106599996D01*
X55794435Y-106600003D01*
X55814630Y-106779249D01*
X55814631Y-106779254D01*
X55874211Y-106949523D01*
X55929257Y-107037127D01*
X55970184Y-107102262D01*
X56097738Y-107229816D01*
X56118752Y-107243020D01*
X56244568Y-107322076D01*
X56250478Y-107325789D01*
X56387360Y-107373686D01*
X56420745Y-107385368D01*
X56420750Y-107385369D01*
X56599996Y-107405565D01*
X56600000Y-107405565D01*
X56600004Y-107405565D01*
X56779249Y-107385369D01*
X56779252Y-107385368D01*
X56779255Y-107385368D01*
X56949522Y-107325789D01*
X57102262Y-107229816D01*
X57229816Y-107102262D01*
X57325789Y-106949522D01*
X57385368Y-106779255D01*
X57385369Y-106779249D01*
X57405565Y-106600003D01*
X57405565Y-106599996D01*
X57385369Y-106420750D01*
X57385367Y-106420742D01*
X57331030Y-106265454D01*
X57327469Y-106195676D01*
X57362198Y-106135048D01*
X57424191Y-106102821D01*
X57448072Y-106100500D01*
X57617588Y-106100500D01*
X57684627Y-106120185D01*
X57694903Y-106127555D01*
X57697736Y-106129814D01*
X57697738Y-106129816D01*
X57850478Y-106225789D01*
X57955181Y-106262426D01*
X58020745Y-106285368D01*
X58020750Y-106285369D01*
X58199996Y-106305565D01*
X58200000Y-106305565D01*
X58200004Y-106305565D01*
X58379249Y-106285369D01*
X58379250Y-106285368D01*
X58379255Y-106285368D01*
X58434635Y-106265988D01*
X58504413Y-106262426D01*
X58563271Y-106295349D01*
X58597738Y-106329816D01*
X58631201Y-106350842D01*
X58742450Y-106420745D01*
X58750478Y-106425789D01*
X58920745Y-106485368D01*
X58920750Y-106485369D01*
X59099996Y-106505565D01*
X59100000Y-106505565D01*
X59100004Y-106505565D01*
X59279249Y-106485369D01*
X59279252Y-106485368D01*
X59279255Y-106485368D01*
X59449522Y-106425789D01*
X59602262Y-106329816D01*
X59662651Y-106269426D01*
X59723971Y-106235943D01*
X59791285Y-106240068D01*
X59920737Y-106285366D01*
X59920743Y-106285367D01*
X59920745Y-106285368D01*
X59920746Y-106285368D01*
X59920750Y-106285369D01*
X60099996Y-106305565D01*
X60100000Y-106305565D01*
X60100004Y-106305565D01*
X60279249Y-106285369D01*
X60279252Y-106285368D01*
X60279255Y-106285368D01*
X60449522Y-106225789D01*
X60602262Y-106129816D01*
X60729816Y-106002262D01*
X60825789Y-105849522D01*
X60885368Y-105679255D01*
X60887179Y-105663181D01*
X60905565Y-105500003D01*
X60905565Y-105499996D01*
X60885369Y-105320750D01*
X60885368Y-105320745D01*
X60838745Y-105187505D01*
X60825789Y-105150478D01*
X60729816Y-104997738D01*
X60602262Y-104870184D01*
X60449521Y-104774210D01*
X60279249Y-104714630D01*
X60192330Y-104704837D01*
X60127916Y-104677770D01*
X60118533Y-104669298D01*
X59187590Y-103738355D01*
X59187588Y-103738352D01*
X59068717Y-103619481D01*
X59068709Y-103619475D01*
X58979923Y-103568215D01*
X58979922Y-103568215D01*
X58931785Y-103540423D01*
X58779057Y-103499499D01*
X58620943Y-103499499D01*
X58613347Y-103499499D01*
X58613331Y-103499500D01*
X40100097Y-103499500D01*
X40033058Y-103479815D01*
X40012416Y-103463181D01*
X38149231Y-101599996D01*
X42494435Y-101599996D01*
X42494435Y-101600003D01*
X42514630Y-101779249D01*
X42514631Y-101779254D01*
X42574211Y-101949523D01*
X42629063Y-102036819D01*
X42670184Y-102102262D01*
X42797738Y-102229816D01*
X42950478Y-102325789D01*
X42961984Y-102329815D01*
X43120745Y-102385368D01*
X43120750Y-102385369D01*
X43299996Y-102405565D01*
X43300000Y-102405565D01*
X43300004Y-102405565D01*
X43479249Y-102385369D01*
X43479252Y-102385368D01*
X43479255Y-102385368D01*
X43649522Y-102325789D01*
X43802262Y-102229816D01*
X43929816Y-102102262D01*
X44025789Y-101949522D01*
X44085368Y-101779255D01*
X44085369Y-101779249D01*
X44105565Y-101600003D01*
X44105565Y-101599996D01*
X44094298Y-101499996D01*
X53294435Y-101499996D01*
X53294435Y-101500003D01*
X53314630Y-101679249D01*
X53314631Y-101679254D01*
X53374211Y-101849523D01*
X53425180Y-101930639D01*
X53470184Y-102002262D01*
X53597738Y-102129816D01*
X53668392Y-102174211D01*
X53716316Y-102204324D01*
X53750478Y-102225789D01*
X53920745Y-102285368D01*
X53920750Y-102285369D01*
X54099996Y-102305565D01*
X54100000Y-102305565D01*
X54100004Y-102305565D01*
X54279249Y-102285369D01*
X54279252Y-102285368D01*
X54279255Y-102285368D01*
X54449522Y-102225789D01*
X54602262Y-102129816D01*
X54729816Y-102002262D01*
X54825789Y-101849522D01*
X54885368Y-101679255D01*
X54886921Y-101665471D01*
X54894298Y-101599996D01*
X56394435Y-101599996D01*
X56394435Y-101600003D01*
X56414630Y-101779249D01*
X56414631Y-101779254D01*
X56474211Y-101949523D01*
X56529063Y-102036819D01*
X56570184Y-102102262D01*
X56697738Y-102229816D01*
X56850478Y-102325789D01*
X56861984Y-102329815D01*
X57020745Y-102385368D01*
X57020750Y-102385369D01*
X57199996Y-102405565D01*
X57200000Y-102405565D01*
X57200004Y-102405565D01*
X57379249Y-102385369D01*
X57379252Y-102385368D01*
X57379255Y-102385368D01*
X57549522Y-102325789D01*
X57702262Y-102229816D01*
X57829816Y-102102262D01*
X57925789Y-101949522D01*
X57985368Y-101779255D01*
X57985369Y-101779249D01*
X58005565Y-101600003D01*
X58005565Y-101599996D01*
X57985369Y-101420750D01*
X57985368Y-101420745D01*
X57980964Y-101408158D01*
X57925789Y-101250478D01*
X57925188Y-101249522D01*
X57877866Y-101174209D01*
X57829816Y-101097738D01*
X57702262Y-100970184D01*
X57631608Y-100925789D01*
X57549523Y-100874211D01*
X57379254Y-100814631D01*
X57379249Y-100814630D01*
X57200004Y-100794435D01*
X57199996Y-100794435D01*
X57020750Y-100814630D01*
X57020745Y-100814631D01*
X56850476Y-100874211D01*
X56697737Y-100970184D01*
X56570184Y-101097737D01*
X56474211Y-101250476D01*
X56414631Y-101420745D01*
X56414630Y-101420750D01*
X56394435Y-101599996D01*
X54894298Y-101599996D01*
X54905565Y-101500003D01*
X54905565Y-101499996D01*
X54885369Y-101320750D01*
X54885368Y-101320745D01*
X54876162Y-101294435D01*
X54825789Y-101150478D01*
X54803265Y-101114632D01*
X54754372Y-101036819D01*
X54729816Y-100997738D01*
X54602262Y-100870184D01*
X54538017Y-100829816D01*
X54449523Y-100774211D01*
X54279254Y-100714631D01*
X54279249Y-100714630D01*
X54100004Y-100694435D01*
X54099996Y-100694435D01*
X53920750Y-100714630D01*
X53920745Y-100714631D01*
X53750476Y-100774211D01*
X53597737Y-100870184D01*
X53470184Y-100997737D01*
X53374211Y-101150476D01*
X53314631Y-101320745D01*
X53314630Y-101320750D01*
X53294435Y-101499996D01*
X44094298Y-101499996D01*
X44085369Y-101420750D01*
X44085368Y-101420745D01*
X44080964Y-101408158D01*
X44025789Y-101250478D01*
X44025188Y-101249522D01*
X43977866Y-101174209D01*
X43929816Y-101097738D01*
X43802262Y-100970184D01*
X43731608Y-100925789D01*
X43649523Y-100874211D01*
X43479254Y-100814631D01*
X43479249Y-100814630D01*
X43300004Y-100794435D01*
X43299996Y-100794435D01*
X43120750Y-100814630D01*
X43120745Y-100814631D01*
X42950476Y-100874211D01*
X42797737Y-100970184D01*
X42670184Y-101097737D01*
X42574211Y-101250476D01*
X42514631Y-101420745D01*
X42514630Y-101420750D01*
X42494435Y-101599996D01*
X38149231Y-101599996D01*
X36949231Y-100399996D01*
X47494435Y-100399996D01*
X47494435Y-100400003D01*
X47514630Y-100579249D01*
X47514631Y-100579254D01*
X47574211Y-100749523D01*
X47624662Y-100829815D01*
X47670184Y-100902262D01*
X47797738Y-101029816D01*
X47819362Y-101043403D01*
X47932721Y-101114632D01*
X47950478Y-101125789D01*
X48088860Y-101174211D01*
X48120745Y-101185368D01*
X48120750Y-101185369D01*
X48299996Y-101205565D01*
X48300000Y-101205565D01*
X48300004Y-101205565D01*
X48479249Y-101185369D01*
X48479252Y-101185368D01*
X48479255Y-101185368D01*
X48649522Y-101125789D01*
X48802262Y-101029816D01*
X48929816Y-100902262D01*
X49025789Y-100749522D01*
X49085368Y-100579255D01*
X49085369Y-100579249D01*
X49105565Y-100400003D01*
X49105565Y-100399996D01*
X49085369Y-100220750D01*
X49085368Y-100220745D01*
X49078107Y-100199996D01*
X54694435Y-100199996D01*
X54694435Y-100200003D01*
X54714630Y-100379249D01*
X54714631Y-100379254D01*
X54774211Y-100549523D01*
X54824662Y-100629815D01*
X54870184Y-100702262D01*
X54997738Y-100829816D01*
X55061983Y-100870184D01*
X55138449Y-100918231D01*
X55150478Y-100925789D01*
X55238514Y-100956594D01*
X55320745Y-100985368D01*
X55320750Y-100985369D01*
X55499996Y-101005565D01*
X55500000Y-101005565D01*
X55500004Y-101005565D01*
X55679249Y-100985369D01*
X55679252Y-100985368D01*
X55679255Y-100985368D01*
X55849522Y-100925789D01*
X56002262Y-100829816D01*
X56129816Y-100702262D01*
X56225789Y-100549522D01*
X56285368Y-100379255D01*
X56288718Y-100349522D01*
X56305565Y-100200003D01*
X56305565Y-100199996D01*
X56285369Y-100020750D01*
X56285368Y-100020745D01*
X56273735Y-99987500D01*
X56225789Y-99850478D01*
X56207106Y-99820745D01*
X56179482Y-99776781D01*
X56129816Y-99697738D01*
X56002262Y-99570184D01*
X55990811Y-99562989D01*
X55849523Y-99474211D01*
X55679254Y-99414631D01*
X55679249Y-99414630D01*
X55500004Y-99394435D01*
X55499996Y-99394435D01*
X55320750Y-99414630D01*
X55320745Y-99414631D01*
X55150476Y-99474211D01*
X54997737Y-99570184D01*
X54870184Y-99697737D01*
X54774211Y-99850476D01*
X54714631Y-100020745D01*
X54714630Y-100020750D01*
X54694435Y-100199996D01*
X49078107Y-100199996D01*
X49071433Y-100180922D01*
X49025789Y-100050478D01*
X49021314Y-100043356D01*
X48996740Y-100004246D01*
X48977740Y-99937009D01*
X48998108Y-99870174D01*
X49043964Y-99830032D01*
X49043626Y-99829494D01*
X49047005Y-99827370D01*
X49047945Y-99826548D01*
X49049517Y-99825790D01*
X49049522Y-99825789D01*
X49202262Y-99729816D01*
X49329816Y-99602262D01*
X49425789Y-99449522D01*
X49485368Y-99279255D01*
X49485369Y-99279249D01*
X49505565Y-99100003D01*
X49505565Y-99099996D01*
X49485369Y-98920750D01*
X49485368Y-98920745D01*
X49478075Y-98899903D01*
X49425789Y-98750478D01*
X49329816Y-98597738D01*
X49232074Y-98499996D01*
X53294435Y-98499996D01*
X53294435Y-98500003D01*
X53314630Y-98679249D01*
X53314631Y-98679254D01*
X53374211Y-98849523D01*
X53425535Y-98931204D01*
X53470184Y-99002262D01*
X53597738Y-99129816D01*
X53658880Y-99168234D01*
X53742450Y-99220745D01*
X53750478Y-99225789D01*
X53888837Y-99274203D01*
X53920745Y-99285368D01*
X53920750Y-99285369D01*
X54099996Y-99305565D01*
X54100000Y-99305565D01*
X54100004Y-99305565D01*
X54279249Y-99285369D01*
X54279252Y-99285368D01*
X54279255Y-99285368D01*
X54449522Y-99225789D01*
X54602262Y-99129816D01*
X54729816Y-99002262D01*
X54825789Y-98849522D01*
X54885368Y-98679255D01*
X54885369Y-98679249D01*
X54905565Y-98500003D01*
X54905565Y-98499996D01*
X56594435Y-98499996D01*
X56594435Y-98500003D01*
X56614630Y-98679249D01*
X56614631Y-98679254D01*
X56674211Y-98849523D01*
X56725535Y-98931204D01*
X56770184Y-99002262D01*
X56897738Y-99129816D01*
X56958880Y-99168234D01*
X57042450Y-99220745D01*
X57050478Y-99225789D01*
X57188837Y-99274203D01*
X57220745Y-99285368D01*
X57220750Y-99285369D01*
X57399996Y-99305565D01*
X57400000Y-99305565D01*
X57400004Y-99305565D01*
X57579249Y-99285369D01*
X57579252Y-99285368D01*
X57579255Y-99285368D01*
X57749522Y-99225789D01*
X57902262Y-99129816D01*
X58029816Y-99002262D01*
X58125789Y-98849522D01*
X58185368Y-98679255D01*
X58185369Y-98679249D01*
X58205565Y-98500003D01*
X58205565Y-98499996D01*
X58185369Y-98320750D01*
X58185368Y-98320745D01*
X58148237Y-98214632D01*
X58125789Y-98150478D01*
X58029816Y-97997738D01*
X57902262Y-97870184D01*
X57831608Y-97825789D01*
X57749523Y-97774211D01*
X57579254Y-97714631D01*
X57579249Y-97714630D01*
X57400004Y-97694435D01*
X57399996Y-97694435D01*
X57220750Y-97714630D01*
X57220745Y-97714631D01*
X57050476Y-97774211D01*
X56897737Y-97870184D01*
X56770184Y-97997737D01*
X56674211Y-98150476D01*
X56614631Y-98320745D01*
X56614630Y-98320750D01*
X56594435Y-98499996D01*
X54905565Y-98499996D01*
X54885369Y-98320750D01*
X54885368Y-98320745D01*
X54848237Y-98214632D01*
X54825789Y-98150478D01*
X54729816Y-97997738D01*
X54602262Y-97870184D01*
X54531608Y-97825789D01*
X54449523Y-97774211D01*
X54279254Y-97714631D01*
X54279249Y-97714630D01*
X54100004Y-97694435D01*
X54099996Y-97694435D01*
X53920750Y-97714630D01*
X53920745Y-97714631D01*
X53750476Y-97774211D01*
X53597737Y-97870184D01*
X53470184Y-97997737D01*
X53374211Y-98150476D01*
X53314631Y-98320745D01*
X53314630Y-98320750D01*
X53294435Y-98499996D01*
X49232074Y-98499996D01*
X49202262Y-98470184D01*
X49123888Y-98420938D01*
X49049523Y-98374211D01*
X48879254Y-98314631D01*
X48879249Y-98314630D01*
X48700004Y-98294435D01*
X48699996Y-98294435D01*
X48520750Y-98314630D01*
X48520745Y-98314631D01*
X48350476Y-98374211D01*
X48197737Y-98470184D01*
X48070184Y-98597737D01*
X47974211Y-98750476D01*
X47914631Y-98920745D01*
X47914630Y-98920750D01*
X47894435Y-99099996D01*
X47894435Y-99100003D01*
X47914630Y-99279249D01*
X47914631Y-99279254D01*
X47974211Y-99449524D01*
X48003259Y-99495752D01*
X48022260Y-99562989D01*
X48001893Y-99629824D01*
X47956036Y-99669969D01*
X47956374Y-99670506D01*
X47953009Y-99672620D01*
X47952066Y-99673446D01*
X47950478Y-99674210D01*
X47797737Y-99770184D01*
X47670184Y-99897737D01*
X47574211Y-100050476D01*
X47514631Y-100220745D01*
X47514630Y-100220750D01*
X47494435Y-100399996D01*
X36949231Y-100399996D01*
X36587590Y-100038355D01*
X36587588Y-100038352D01*
X36468717Y-99919481D01*
X36468709Y-99919475D01*
X36366936Y-99860717D01*
X36366934Y-99860716D01*
X36331790Y-99840425D01*
X36331789Y-99840424D01*
X36319263Y-99837067D01*
X36179057Y-99799499D01*
X36020943Y-99799499D01*
X36013347Y-99799499D01*
X36013331Y-99799500D01*
X35569306Y-99799500D01*
X35502267Y-99779815D01*
X35456512Y-99727011D01*
X35446568Y-99657853D01*
X35470650Y-99601228D01*
X35470563Y-99601171D01*
X35470883Y-99600680D01*
X35471457Y-99599332D01*
X35473370Y-99596874D01*
X35507482Y-99544661D01*
X35607111Y-99392167D01*
X35705336Y-99168236D01*
X35765364Y-98931192D01*
X35765879Y-98924982D01*
X35784522Y-98699996D01*
X40294435Y-98699996D01*
X40294435Y-98700003D01*
X40314630Y-98879249D01*
X40314631Y-98879254D01*
X40374211Y-99049523D01*
X40448803Y-99168234D01*
X40470184Y-99202262D01*
X40597738Y-99329816D01*
X40653878Y-99365091D01*
X40732721Y-99414632D01*
X40750478Y-99425789D01*
X40818306Y-99449523D01*
X40920745Y-99485368D01*
X40920750Y-99485369D01*
X41099996Y-99505565D01*
X41100000Y-99505565D01*
X41100004Y-99505565D01*
X41279249Y-99485369D01*
X41279252Y-99485368D01*
X41279255Y-99485368D01*
X41449522Y-99425789D01*
X41602262Y-99329816D01*
X41729816Y-99202262D01*
X41825789Y-99049522D01*
X41885368Y-98879255D01*
X41891960Y-98820750D01*
X41905565Y-98700003D01*
X41905565Y-98699996D01*
X41885369Y-98520750D01*
X41885368Y-98520745D01*
X41878108Y-98499996D01*
X41825789Y-98350478D01*
X41807106Y-98320745D01*
X41740431Y-98214632D01*
X41729816Y-98197738D01*
X41602262Y-98070184D01*
X41449523Y-97974211D01*
X41279254Y-97914631D01*
X41279249Y-97914630D01*
X41100004Y-97894435D01*
X41099996Y-97894435D01*
X40920750Y-97914630D01*
X40920745Y-97914631D01*
X40750476Y-97974211D01*
X40597737Y-98070184D01*
X40470184Y-98197737D01*
X40374211Y-98350476D01*
X40314631Y-98520745D01*
X40314630Y-98520750D01*
X40294435Y-98699996D01*
X35784522Y-98699996D01*
X35785557Y-98687505D01*
X35785557Y-98687494D01*
X35765365Y-98443816D01*
X35765363Y-98443804D01*
X35754397Y-98400500D01*
X35705336Y-98206764D01*
X35607111Y-97982833D01*
X35504509Y-97825788D01*
X35473367Y-97778121D01*
X35307757Y-97598222D01*
X35307747Y-97598213D01*
X35114791Y-97448029D01*
X35114787Y-97448026D01*
X34899734Y-97331645D01*
X34899729Y-97331643D01*
X34668458Y-97252248D01*
X34487561Y-97222062D01*
X34427263Y-97212000D01*
X34182737Y-97212000D01*
X34134498Y-97220049D01*
X33941541Y-97252248D01*
X33710270Y-97331643D01*
X33710265Y-97331645D01*
X33495212Y-97448026D01*
X33495208Y-97448029D01*
X33302252Y-97598213D01*
X33302242Y-97598222D01*
X33136632Y-97778121D01*
X33002888Y-97982833D01*
X32904663Y-98206765D01*
X32844636Y-98443804D01*
X32844634Y-98443816D01*
X32824443Y-98687494D01*
X32824443Y-98687505D01*
X32844634Y-98931183D01*
X32844636Y-98931195D01*
X32904663Y-99168234D01*
X33002888Y-99392166D01*
X33136629Y-99596874D01*
X33138543Y-99599332D01*
X33139011Y-99600520D01*
X33139437Y-99601171D01*
X33139303Y-99601258D01*
X33164189Y-99664324D01*
X33150627Y-99732865D01*
X33102162Y-99783193D01*
X33040694Y-99799500D01*
X31817598Y-99799500D01*
X31750559Y-99779815D01*
X31729917Y-99763181D01*
X31511397Y-99544661D01*
X31240937Y-99274202D01*
X31207453Y-99212880D01*
X31208414Y-99156081D01*
X31265361Y-98931204D01*
X31265363Y-98931195D01*
X31265364Y-98931192D01*
X31265879Y-98924982D01*
X31285557Y-98687505D01*
X31285557Y-98687494D01*
X31265365Y-98443816D01*
X31265363Y-98443804D01*
X31254397Y-98400500D01*
X31205336Y-98206764D01*
X31107111Y-97982833D01*
X31004509Y-97825788D01*
X30973367Y-97778121D01*
X30807757Y-97598222D01*
X30807747Y-97598213D01*
X30614791Y-97448029D01*
X30614787Y-97448026D01*
X30399734Y-97331645D01*
X30399729Y-97331643D01*
X30168458Y-97252248D01*
X30071482Y-97236066D01*
X30008597Y-97205615D01*
X29972157Y-97146001D01*
X29973195Y-97099996D01*
X31394435Y-97099996D01*
X31394435Y-97100003D01*
X31414630Y-97279249D01*
X31414631Y-97279254D01*
X31474211Y-97449523D01*
X31516782Y-97517274D01*
X31570184Y-97602262D01*
X31697738Y-97729816D01*
X31850478Y-97825789D01*
X31977352Y-97870184D01*
X32020745Y-97885368D01*
X32020750Y-97885369D01*
X32199996Y-97905565D01*
X32200000Y-97905565D01*
X32200004Y-97905565D01*
X32379249Y-97885369D01*
X32379252Y-97885368D01*
X32379255Y-97885368D01*
X32549522Y-97825789D01*
X32702262Y-97729816D01*
X32829816Y-97602262D01*
X32925789Y-97449522D01*
X32985368Y-97279255D01*
X32985846Y-97275012D01*
X33005565Y-97100003D01*
X33005565Y-97099996D01*
X32985369Y-96920750D01*
X32985368Y-96920745D01*
X32925788Y-96750476D01*
X32829815Y-96597737D01*
X32702262Y-96470184D01*
X32549523Y-96374211D01*
X32379254Y-96314631D01*
X32379249Y-96314630D01*
X32200004Y-96294435D01*
X32199996Y-96294435D01*
X32020750Y-96314630D01*
X32020745Y-96314631D01*
X31850476Y-96374211D01*
X31697737Y-96470184D01*
X31570184Y-96597737D01*
X31474211Y-96750476D01*
X31414631Y-96920745D01*
X31414630Y-96920750D01*
X31394435Y-97099996D01*
X29973195Y-97099996D01*
X29973733Y-97076149D01*
X30012823Y-97018237D01*
X30022031Y-97011310D01*
X30118217Y-96945732D01*
X30305050Y-96772377D01*
X30463959Y-96573112D01*
X30591393Y-96352388D01*
X30684508Y-96115137D01*
X30741222Y-95866657D01*
X30760268Y-95612500D01*
X30754451Y-95534880D01*
X30741222Y-95358345D01*
X30727905Y-95300000D01*
X30684508Y-95109863D01*
X30591393Y-94872612D01*
X30463959Y-94651888D01*
X30305050Y-94452623D01*
X30118217Y-94279268D01*
X29907634Y-94135695D01*
X29907630Y-94135693D01*
X29907627Y-94135691D01*
X29907626Y-94135690D01*
X29678006Y-94025112D01*
X29678008Y-94025112D01*
X29434466Y-93949989D01*
X29434462Y-93949988D01*
X29434458Y-93949987D01*
X29308198Y-93930956D01*
X29182440Y-93912000D01*
X29182435Y-93912000D01*
X28927565Y-93912000D01*
X28927559Y-93912000D01*
X28777454Y-93934626D01*
X28675542Y-93949987D01*
X28675539Y-93949988D01*
X28675533Y-93949989D01*
X28431992Y-94025112D01*
X28202373Y-94135690D01*
X28202372Y-94135691D01*
X27991782Y-94279268D01*
X27804952Y-94452621D01*
X27804950Y-94452623D01*
X27646041Y-94651888D01*
X27518608Y-94872609D01*
X27425492Y-95109862D01*
X27425490Y-95109869D01*
X27368777Y-95358345D01*
X27349732Y-95612495D01*
X27349732Y-95612504D01*
X27368777Y-95866654D01*
X27418697Y-96085369D01*
X27425492Y-96115137D01*
X27518607Y-96352388D01*
X27646041Y-96573112D01*
X27804950Y-96772377D01*
X27991783Y-96945732D01*
X28202366Y-97089305D01*
X28202371Y-97089307D01*
X28202372Y-97089308D01*
X28202373Y-97089309D01*
X28280663Y-97127011D01*
X28431992Y-97199887D01*
X28431993Y-97199887D01*
X28431996Y-97199889D01*
X28675542Y-97275013D01*
X28843949Y-97300396D01*
X28907305Y-97329853D01*
X28944679Y-97388886D01*
X28944204Y-97458754D01*
X28906030Y-97517274D01*
X28901630Y-97520864D01*
X28802247Y-97598217D01*
X28802242Y-97598222D01*
X28636632Y-97778121D01*
X28502888Y-97982833D01*
X28404663Y-98206765D01*
X28344636Y-98443804D01*
X28344634Y-98443816D01*
X28324443Y-98687494D01*
X28324443Y-98687505D01*
X28344634Y-98931183D01*
X28344636Y-98931195D01*
X28404663Y-99168234D01*
X28502888Y-99392166D01*
X28636632Y-99596878D01*
X28802242Y-99776777D01*
X28802252Y-99776786D01*
X28995208Y-99926970D01*
X28995212Y-99926973D01*
X29130159Y-100000003D01*
X29210267Y-100043355D01*
X29210270Y-100043356D01*
X29441541Y-100122751D01*
X29441543Y-100122751D01*
X29441545Y-100122752D01*
X29682737Y-100163000D01*
X29682738Y-100163000D01*
X29927262Y-100163000D01*
X29927263Y-100163000D01*
X30168455Y-100122752D01*
X30260928Y-100091005D01*
X30330725Y-100087856D01*
X30388871Y-100120606D01*
X30856083Y-100587819D01*
X30889568Y-100649142D01*
X30884584Y-100718834D01*
X30842712Y-100774767D01*
X30777248Y-100799184D01*
X30768402Y-100799500D01*
X26600097Y-100799500D01*
X26533058Y-100779815D01*
X26512416Y-100763181D01*
X24736819Y-98987584D01*
X24703334Y-98926261D01*
X24700500Y-98899903D01*
X24700500Y-94438202D01*
X24720185Y-94371163D01*
X24753375Y-94336628D01*
X24910269Y-94226770D01*
X25074270Y-94062769D01*
X25203731Y-93877880D01*
X25258306Y-93834257D01*
X25327804Y-93827063D01*
X25390159Y-93858586D01*
X25406879Y-93877881D01*
X25458023Y-93950922D01*
X26031212Y-93377733D01*
X26042482Y-93419792D01*
X26114890Y-93545208D01*
X26217292Y-93647610D01*
X26342708Y-93720018D01*
X26384765Y-93731287D01*
X25811576Y-94304475D01*
X25889969Y-94359367D01*
X26100090Y-94457347D01*
X26100099Y-94457351D01*
X26324031Y-94517352D01*
X26324041Y-94517354D01*
X26554999Y-94537561D01*
X26555001Y-94537561D01*
X26785958Y-94517354D01*
X26785968Y-94517352D01*
X27009900Y-94457351D01*
X27009909Y-94457347D01*
X27220030Y-94359367D01*
X27220034Y-94359365D01*
X27298422Y-94304476D01*
X27298422Y-94304475D01*
X26725235Y-93731287D01*
X26767292Y-93720018D01*
X26892708Y-93647610D01*
X26995110Y-93545208D01*
X27067518Y-93419792D01*
X27078787Y-93377734D01*
X27651975Y-93950922D01*
X27651976Y-93950922D01*
X27706865Y-93872534D01*
X27706867Y-93872530D01*
X27804847Y-93662409D01*
X27804851Y-93662400D01*
X27864852Y-93438468D01*
X27864854Y-93438458D01*
X27885061Y-93207500D01*
X27885061Y-93207499D01*
X27864854Y-92976541D01*
X27864852Y-92976531D01*
X27804851Y-92752599D01*
X27804847Y-92752590D01*
X27706867Y-92542471D01*
X27706866Y-92542469D01*
X27651975Y-92464077D01*
X27651975Y-92464076D01*
X27078787Y-93037264D01*
X27067518Y-92995208D01*
X26995110Y-92869792D01*
X26892708Y-92767390D01*
X26767292Y-92694982D01*
X26725234Y-92683712D01*
X27298422Y-92110523D01*
X27220030Y-92055633D01*
X27009909Y-91957652D01*
X27009900Y-91957648D01*
X26785968Y-91897647D01*
X26785958Y-91897645D01*
X26555001Y-91877439D01*
X26554999Y-91877439D01*
X26324041Y-91897645D01*
X26324031Y-91897647D01*
X26100099Y-91957648D01*
X26100085Y-91957653D01*
X25939855Y-92032370D01*
X25870778Y-92042862D01*
X25815304Y-92018057D01*
X25812130Y-92052527D01*
X25816617Y-92052920D01*
X25811576Y-92110522D01*
X26384766Y-92683712D01*
X26342708Y-92694982D01*
X26217292Y-92767390D01*
X26114890Y-92869792D01*
X26042482Y-92995208D01*
X26031212Y-93037266D01*
X25458022Y-92464076D01*
X25458022Y-92464077D01*
X25406879Y-92537118D01*
X25352303Y-92580743D01*
X25282804Y-92587937D01*
X25220449Y-92556415D01*
X25203729Y-92537118D01*
X25203424Y-92536683D01*
X25074270Y-92352231D01*
X24910269Y-92188230D01*
X24856952Y-92150896D01*
X24813328Y-92096321D01*
X24806136Y-92026822D01*
X24837658Y-91964468D01*
X24897888Y-91929054D01*
X24967703Y-91931825D01*
X24969032Y-91932282D01*
X25120737Y-91985366D01*
X25120743Y-91985367D01*
X25120745Y-91985368D01*
X25120746Y-91985368D01*
X25120750Y-91985369D01*
X25299996Y-92005565D01*
X25300000Y-92005565D01*
X25300004Y-92005565D01*
X25479249Y-91985369D01*
X25479251Y-91985368D01*
X25479255Y-91985368D01*
X25479258Y-91985366D01*
X25479262Y-91985366D01*
X25652690Y-91924681D01*
X25722469Y-91921119D01*
X25768689Y-91947594D01*
X25768201Y-91885998D01*
X25799770Y-91832306D01*
X25802256Y-91829819D01*
X25802262Y-91829816D01*
X25929816Y-91702262D01*
X26025789Y-91549522D01*
X26085368Y-91379255D01*
X26087197Y-91363022D01*
X26105565Y-91200003D01*
X26105565Y-91199996D01*
X26085369Y-91020750D01*
X26085368Y-91020745D01*
X26025789Y-90850478D01*
X25929816Y-90697738D01*
X25802262Y-90570184D01*
X25649523Y-90474211D01*
X25479254Y-90414631D01*
X25479249Y-90414630D01*
X25300004Y-90394435D01*
X25299996Y-90394435D01*
X25120750Y-90414630D01*
X25120745Y-90414631D01*
X24950476Y-90474211D01*
X24797737Y-90570184D01*
X24670184Y-90697737D01*
X24574211Y-90850476D01*
X24514631Y-91020745D01*
X24514630Y-91020750D01*
X24494435Y-91199996D01*
X24494435Y-91200003D01*
X24514630Y-91379249D01*
X24514631Y-91379254D01*
X24574211Y-91549523D01*
X24670184Y-91702262D01*
X24790459Y-91822537D01*
X24823944Y-91883860D01*
X24818960Y-91953552D01*
X24777088Y-92009485D01*
X24711624Y-92033902D01*
X24650374Y-92022600D01*
X24510085Y-91957182D01*
X24510074Y-91957178D01*
X24286051Y-91897151D01*
X24286044Y-91897150D01*
X24055002Y-91876937D01*
X24054998Y-91876937D01*
X23823955Y-91897150D01*
X23823944Y-91897152D01*
X23774910Y-91910291D01*
X23705060Y-91908628D01*
X23647198Y-91869465D01*
X23619694Y-91805236D01*
X23625776Y-91749561D01*
X23685366Y-91579262D01*
X23685369Y-91579249D01*
X23705565Y-91400003D01*
X23705565Y-91399996D01*
X23685369Y-91220750D01*
X23685368Y-91220745D01*
X23671804Y-91181981D01*
X23625789Y-91050478D01*
X23622082Y-91044579D01*
X23529815Y-90897737D01*
X23402262Y-90770184D01*
X23249523Y-90674211D01*
X23079254Y-90614631D01*
X23079249Y-90614630D01*
X22900004Y-90594435D01*
X22899996Y-90594435D01*
X22720750Y-90614630D01*
X22720745Y-90614631D01*
X22550476Y-90674211D01*
X22397737Y-90770184D01*
X22270184Y-90897737D01*
X22174211Y-91050476D01*
X22114631Y-91220745D01*
X22114630Y-91220750D01*
X22094435Y-91399996D01*
X22094435Y-91400003D01*
X22114630Y-91579249D01*
X22114631Y-91579254D01*
X22174211Y-91749522D01*
X22203045Y-91795411D01*
X22222045Y-91862647D01*
X22201678Y-91929483D01*
X22148410Y-91974697D01*
X22079154Y-91983935D01*
X22045649Y-91973766D01*
X22010079Y-91957180D01*
X22010076Y-91957179D01*
X22010074Y-91957178D01*
X21786051Y-91897151D01*
X21786044Y-91897150D01*
X21555002Y-91876937D01*
X21554998Y-91876937D01*
X21323955Y-91897150D01*
X21323948Y-91897151D01*
X21099917Y-91957181D01*
X20889718Y-92055199D01*
X20889714Y-92055201D01*
X20699735Y-92188226D01*
X20699729Y-92188231D01*
X20535731Y-92352229D01*
X20535726Y-92352235D01*
X20402701Y-92542214D01*
X20402699Y-92542218D01*
X20304681Y-92752417D01*
X20244651Y-92976448D01*
X20244650Y-92976455D01*
X20224437Y-93207498D01*
X20224437Y-93207501D01*
X20244650Y-93438544D01*
X20244651Y-93438551D01*
X20304678Y-93662574D01*
X20304679Y-93662576D01*
X20304680Y-93662579D01*
X20402699Y-93872782D01*
X20535730Y-94062769D01*
X20699731Y-94226770D01*
X20889718Y-94359801D01*
X21099921Y-94457820D01*
X21323950Y-94517849D01*
X21488985Y-94532287D01*
X21554998Y-94538063D01*
X21555000Y-94538063D01*
X21555002Y-94538063D01*
X21612762Y-94533009D01*
X21786050Y-94517849D01*
X22010079Y-94457820D01*
X22220282Y-94359801D01*
X22410269Y-94226770D01*
X22574270Y-94062769D01*
X22703427Y-93878314D01*
X22758002Y-93834692D01*
X22827501Y-93827499D01*
X22889855Y-93859021D01*
X22906569Y-93878309D01*
X23035730Y-94062769D01*
X23199731Y-94226770D01*
X23389718Y-94359801D01*
X23427905Y-94377607D01*
X23480343Y-94423778D01*
X23499500Y-94489989D01*
X23499500Y-99113330D01*
X23499499Y-99113348D01*
X23499499Y-99279054D01*
X23499498Y-99279054D01*
X23535827Y-99414631D01*
X23540423Y-99431785D01*
X23543723Y-99437500D01*
X23550651Y-99449500D01*
X23619477Y-99568712D01*
X23619481Y-99568717D01*
X23738349Y-99687585D01*
X23738355Y-99687590D01*
X25815139Y-101764374D01*
X25815149Y-101764385D01*
X25819479Y-101768715D01*
X25819480Y-101768716D01*
X25931284Y-101880520D01*
X26000958Y-101920745D01*
X26018095Y-101930639D01*
X26018097Y-101930641D01*
X26056151Y-101952611D01*
X26068215Y-101959577D01*
X26220943Y-102000501D01*
X26220946Y-102000501D01*
X26386653Y-102000501D01*
X26386669Y-102000500D01*
X33799903Y-102000500D01*
X33866942Y-102020185D01*
X33887584Y-102036819D01*
X37115139Y-105264374D01*
X37115149Y-105264385D01*
X37119479Y-105268715D01*
X37119480Y-105268716D01*
X37231284Y-105380520D01*
X37231286Y-105380521D01*
X37231290Y-105380524D01*
X37319051Y-105431192D01*
X37368216Y-105459577D01*
X37471695Y-105487304D01*
X37520942Y-105500500D01*
X37520943Y-105500500D01*
X48650902Y-105500500D01*
X48717941Y-105520185D01*
X48763696Y-105572989D01*
X48773640Y-105642147D01*
X48744615Y-105705703D01*
X48738583Y-105712181D01*
X48325084Y-106125681D01*
X48263761Y-106159166D01*
X48237403Y-106162000D01*
X35659953Y-106162000D01*
X35592914Y-106142315D01*
X35547159Y-106089511D01*
X35537215Y-106020353D01*
X35556144Y-105970179D01*
X35578481Y-105935988D01*
X35607111Y-105892167D01*
X35705336Y-105668236D01*
X35765364Y-105431192D01*
X35766355Y-105419230D01*
X35785557Y-105187505D01*
X35785557Y-105187494D01*
X35765365Y-104943816D01*
X35765363Y-104943804D01*
X35705336Y-104706765D01*
X35704490Y-104704837D01*
X35607111Y-104482833D01*
X35553321Y-104400501D01*
X35473367Y-104278121D01*
X35307757Y-104098222D01*
X35307747Y-104098213D01*
X35114791Y-103948029D01*
X35114787Y-103948026D01*
X34899734Y-103831645D01*
X34899729Y-103831643D01*
X34668458Y-103752248D01*
X34487561Y-103722062D01*
X34427263Y-103712000D01*
X34182737Y-103712000D01*
X34134498Y-103720049D01*
X33941541Y-103752248D01*
X33710270Y-103831643D01*
X33710265Y-103831645D01*
X33495212Y-103948026D01*
X33495208Y-103948029D01*
X33302252Y-104098213D01*
X33302242Y-104098222D01*
X33136632Y-104278121D01*
X33002888Y-104482833D01*
X32904663Y-104706765D01*
X32844636Y-104943804D01*
X32844634Y-104943816D01*
X32824443Y-105187494D01*
X32824443Y-105187505D01*
X32844634Y-105431183D01*
X32844636Y-105431195D01*
X32904663Y-105668234D01*
X33002888Y-105892166D01*
X33053856Y-105970179D01*
X33074044Y-106037069D01*
X33054863Y-106104254D01*
X33002404Y-106150404D01*
X32950047Y-106162000D01*
X31159953Y-106162000D01*
X31092914Y-106142315D01*
X31047159Y-106089511D01*
X31037215Y-106020353D01*
X31056144Y-105970179D01*
X31078481Y-105935988D01*
X31107111Y-105892167D01*
X31205336Y-105668236D01*
X31265364Y-105431192D01*
X31266355Y-105419230D01*
X31285557Y-105187505D01*
X31285557Y-105187494D01*
X31265365Y-104943816D01*
X31265363Y-104943804D01*
X31205336Y-104706765D01*
X31204490Y-104704837D01*
X31107111Y-104482833D01*
X31053321Y-104400501D01*
X30973367Y-104278121D01*
X30807757Y-104098222D01*
X30807747Y-104098213D01*
X30614791Y-103948029D01*
X30614787Y-103948026D01*
X30399734Y-103831645D01*
X30399729Y-103831643D01*
X30168458Y-103752248D01*
X29987561Y-103722062D01*
X29927263Y-103712000D01*
X29682737Y-103712000D01*
X29634498Y-103720049D01*
X29441541Y-103752248D01*
X29210270Y-103831643D01*
X29210265Y-103831645D01*
X28995212Y-103948026D01*
X28995208Y-103948029D01*
X28802252Y-104098213D01*
X28802242Y-104098222D01*
X28636632Y-104278121D01*
X28502888Y-104482833D01*
X28404663Y-104706765D01*
X28344636Y-104943804D01*
X28344634Y-104943816D01*
X28324443Y-105187494D01*
X28324443Y-105187505D01*
X28344634Y-105431183D01*
X28344636Y-105431195D01*
X28404663Y-105668234D01*
X28502888Y-105892166D01*
X28553856Y-105970179D01*
X28574044Y-106037069D01*
X28554863Y-106104254D01*
X28502404Y-106150404D01*
X28450047Y-106162000D01*
X28062597Y-106162000D01*
X27995558Y-106142315D01*
X27974916Y-106125681D01*
X23687590Y-101838355D01*
X23687588Y-101838352D01*
X23568717Y-101719481D01*
X23568716Y-101719480D01*
X23475167Y-101665470D01*
X23431784Y-101640422D01*
X23431781Y-101640421D01*
X23370987Y-101624131D01*
X23311327Y-101587766D01*
X23280799Y-101524919D01*
X23289094Y-101455543D01*
X23315398Y-101416679D01*
X23329816Y-101402262D01*
X23425789Y-101249522D01*
X23485368Y-101079255D01*
X23489408Y-101043403D01*
X23505565Y-100900003D01*
X23505565Y-100899996D01*
X23485369Y-100720750D01*
X23485368Y-100720745D01*
X23481502Y-100709696D01*
X23425789Y-100550478D01*
X23425188Y-100549522D01*
X23331237Y-100400000D01*
X23329816Y-100397738D01*
X23202262Y-100270184D01*
X23185321Y-100259539D01*
X23049523Y-100174211D01*
X22879254Y-100114631D01*
X22879249Y-100114630D01*
X22700004Y-100094435D01*
X22699996Y-100094435D01*
X22520750Y-100114630D01*
X22520745Y-100114631D01*
X22350476Y-100174211D01*
X22197737Y-100270184D01*
X22070184Y-100397737D01*
X21974211Y-100550476D01*
X21914631Y-100720745D01*
X21914630Y-100720750D01*
X21894435Y-100899996D01*
X21894435Y-100900003D01*
X21914630Y-101079249D01*
X21914631Y-101079254D01*
X21974211Y-101249523D01*
X22029176Y-101336999D01*
X22067341Y-101397738D01*
X22073889Y-101408158D01*
X22071590Y-101409602D01*
X22093341Y-101462849D01*
X22080599Y-101531547D01*
X22032739Y-101582450D01*
X21969988Y-101599500D01*
X16701840Y-101599500D01*
X16634801Y-101579815D01*
X16589046Y-101527011D01*
X16582066Y-101507596D01*
X16575320Y-101482421D01*
X16563454Y-101456975D01*
X16477301Y-101272219D01*
X16477299Y-101272216D01*
X16477298Y-101272214D01*
X16344273Y-101082235D01*
X16344268Y-101082229D01*
X16180269Y-100918230D01*
X16133337Y-100885368D01*
X15995379Y-100788768D01*
X15951757Y-100734193D01*
X15944564Y-100664694D01*
X15976086Y-100602340D01*
X15995381Y-100585620D01*
X16068422Y-100534475D01*
X15495235Y-99961287D01*
X15537292Y-99950018D01*
X15662708Y-99877610D01*
X15765110Y-99775208D01*
X15837518Y-99649792D01*
X15848787Y-99607734D01*
X16421975Y-100180922D01*
X16421976Y-100180922D01*
X16476865Y-100102534D01*
X16476867Y-100102530D01*
X16574847Y-99892409D01*
X16574851Y-99892400D01*
X16634852Y-99668468D01*
X16634854Y-99668458D01*
X16655061Y-99437500D01*
X16655061Y-99437499D01*
X16634854Y-99206541D01*
X16634852Y-99206531D01*
X16574851Y-98982599D01*
X16574847Y-98982590D01*
X16476867Y-98772471D01*
X16476866Y-98772469D01*
X16421975Y-98694077D01*
X16421975Y-98694076D01*
X15848787Y-99267264D01*
X15837518Y-99225208D01*
X15765110Y-99099792D01*
X15662708Y-98997390D01*
X15537292Y-98924982D01*
X15495234Y-98913712D01*
X16068422Y-98340523D01*
X15990030Y-98285633D01*
X15779909Y-98187652D01*
X15779900Y-98187648D01*
X15555968Y-98127647D01*
X15555958Y-98127645D01*
X15325001Y-98107439D01*
X15324999Y-98107439D01*
X15094041Y-98127645D01*
X15094031Y-98127647D01*
X14870099Y-98187648D01*
X14870090Y-98187652D01*
X14659967Y-98285634D01*
X14581576Y-98340522D01*
X15154766Y-98913712D01*
X15112708Y-98924982D01*
X14987292Y-98997390D01*
X14884890Y-99099792D01*
X14812482Y-99225208D01*
X14801212Y-99267266D01*
X14228022Y-98694076D01*
X14173134Y-98772467D01*
X14075152Y-98982590D01*
X14075148Y-98982599D01*
X14015147Y-99206531D01*
X14015145Y-99206541D01*
X13994939Y-99437499D01*
X13994939Y-99437500D01*
X14015145Y-99668458D01*
X14015147Y-99668468D01*
X14075148Y-99892400D01*
X14075152Y-99892409D01*
X14173133Y-100102530D01*
X14228023Y-100180922D01*
X14801212Y-99607733D01*
X14812482Y-99649792D01*
X14884890Y-99775208D01*
X14987292Y-99877610D01*
X15112708Y-99950018D01*
X15154765Y-99961287D01*
X14581576Y-100534475D01*
X14654619Y-100585620D01*
X14698243Y-100640197D01*
X14705436Y-100709696D01*
X14673914Y-100772050D01*
X14654619Y-100788770D01*
X14469731Y-100918230D01*
X14469729Y-100918231D01*
X14305731Y-101082229D01*
X14305726Y-101082235D01*
X14172701Y-101272214D01*
X14172699Y-101272218D01*
X14074681Y-101482417D01*
X14014651Y-101706448D01*
X14014650Y-101706455D01*
X13994437Y-101937498D01*
X13994437Y-101937501D01*
X14014650Y-102168544D01*
X14014651Y-102168551D01*
X14074678Y-102392574D01*
X14074679Y-102392576D01*
X14074680Y-102392579D01*
X14172699Y-102602782D01*
X14305730Y-102792769D01*
X14469731Y-102956770D01*
X14603559Y-103050478D01*
X14654183Y-103085925D01*
X14697808Y-103140502D01*
X14705000Y-103210001D01*
X14673478Y-103272355D01*
X14654183Y-103289075D01*
X14469731Y-103418230D01*
X14469729Y-103418231D01*
X14305731Y-103582229D01*
X14305726Y-103582235D01*
X14172701Y-103772214D01*
X14172699Y-103772218D01*
X14074681Y-103982417D01*
X14014651Y-104206448D01*
X14014650Y-104206455D01*
X13994437Y-104437498D01*
X13994437Y-104437501D01*
X14014650Y-104668544D01*
X14014651Y-104668551D01*
X14074678Y-104892574D01*
X14074679Y-104892576D01*
X14074680Y-104892579D01*
X14172699Y-105102782D01*
X14305730Y-105292769D01*
X14469731Y-105456770D01*
X14659718Y-105589801D01*
X14869921Y-105687820D01*
X15093950Y-105747849D01*
X15258985Y-105762287D01*
X15324998Y-105768063D01*
X15325000Y-105768063D01*
X15325002Y-105768063D01*
X15382762Y-105763009D01*
X15556050Y-105747849D01*
X15780079Y-105687820D01*
X15990282Y-105589801D01*
X16180269Y-105456770D01*
X16344270Y-105292769D01*
X16477301Y-105102782D01*
X16575320Y-104892579D01*
X16635349Y-104668550D01*
X16655563Y-104437500D01*
X16635349Y-104206450D01*
X16575320Y-103982421D01*
X16477301Y-103772219D01*
X16477299Y-103772216D01*
X16477298Y-103772214D01*
X16344273Y-103582235D01*
X16344268Y-103582229D01*
X16180269Y-103418230D01*
X16154228Y-103399996D01*
X15995814Y-103289072D01*
X15952192Y-103234498D01*
X15944999Y-103164999D01*
X15976521Y-103102645D01*
X15995809Y-103085930D01*
X16180269Y-102956770D01*
X16300220Y-102836819D01*
X16361543Y-102803334D01*
X16387901Y-102800500D01*
X22899903Y-102800500D01*
X22966942Y-102820185D01*
X22987584Y-102836819D01*
X27277639Y-107126874D01*
X27277649Y-107126885D01*
X27393785Y-107243021D01*
X27430730Y-107264351D01*
X27501081Y-107304967D01*
X27549296Y-107355533D01*
X27562520Y-107424140D01*
X27546469Y-107474353D01*
X27518607Y-107522611D01*
X27425492Y-107759862D01*
X27425490Y-107759869D01*
X27368777Y-108008345D01*
X27349732Y-108262495D01*
X27349732Y-108262504D01*
X27368777Y-108516654D01*
X27406017Y-108679815D01*
X27425492Y-108765137D01*
X27518607Y-109002388D01*
X27646041Y-109223112D01*
X27804950Y-109422377D01*
X27991783Y-109595732D01*
X28105184Y-109673047D01*
X28149485Y-109727075D01*
X28157544Y-109796478D01*
X28126801Y-109859221D01*
X28067017Y-109895383D01*
X28035331Y-109899500D01*
X20074669Y-109899500D01*
X20007630Y-109879815D01*
X19961875Y-109827011D01*
X19951931Y-109757853D01*
X19980956Y-109694297D01*
X20004813Y-109673049D01*
X20118217Y-109595732D01*
X20305050Y-109422377D01*
X20463959Y-109223112D01*
X20591393Y-109002388D01*
X20684508Y-108765137D01*
X20741222Y-108516657D01*
X20753640Y-108350949D01*
X20760268Y-108262504D01*
X20760268Y-108262495D01*
X20741222Y-108008345D01*
X20714429Y-107890959D01*
X20684508Y-107759863D01*
X20591393Y-107522612D01*
X20463959Y-107301888D01*
X20305050Y-107102623D01*
X20118217Y-106929268D01*
X19907634Y-106785695D01*
X19907630Y-106785693D01*
X19907627Y-106785691D01*
X19907626Y-106785690D01*
X19678006Y-106675112D01*
X19678008Y-106675112D01*
X19434466Y-106599989D01*
X19434462Y-106599988D01*
X19434458Y-106599987D01*
X19313231Y-106581714D01*
X19182440Y-106562000D01*
X19182435Y-106562000D01*
X18927565Y-106562000D01*
X18927559Y-106562000D01*
X18781129Y-106584072D01*
X18675542Y-106599987D01*
X18675539Y-106599988D01*
X18675533Y-106599989D01*
X18431992Y-106675112D01*
X18202373Y-106785690D01*
X18202372Y-106785691D01*
X17991782Y-106929268D01*
X17804952Y-107102621D01*
X17804950Y-107102623D01*
X17646041Y-107301888D01*
X17518608Y-107522609D01*
X17425492Y-107759862D01*
X17425490Y-107759869D01*
X17368777Y-108008345D01*
X17349732Y-108262495D01*
X17349732Y-108262504D01*
X17368777Y-108516654D01*
X17406017Y-108679815D01*
X17425492Y-108765137D01*
X17518607Y-109002388D01*
X17646041Y-109223112D01*
X17804950Y-109422377D01*
X17991783Y-109595732D01*
X18080047Y-109655909D01*
X18124348Y-109709937D01*
X18132408Y-109779340D01*
X18101665Y-109842083D01*
X18041882Y-109878245D01*
X18004794Y-109882244D01*
X17995826Y-109881853D01*
X17985042Y-109880910D01*
X17589314Y-109828811D01*
X17578660Y-109826933D01*
X17188960Y-109740538D01*
X17178512Y-109737738D01*
X16797840Y-109617713D01*
X16787674Y-109614013D01*
X16418903Y-109461263D01*
X16409099Y-109456691D01*
X16055057Y-109272388D01*
X16045689Y-109266980D01*
X15709040Y-109052511D01*
X15700179Y-109046306D01*
X15383512Y-108803319D01*
X15375225Y-108796365D01*
X15080943Y-108526705D01*
X15073294Y-108519056D01*
X14803634Y-108224774D01*
X14796680Y-108216487D01*
X14553693Y-107899820D01*
X14547488Y-107890959D01*
X14463974Y-107759869D01*
X14333018Y-107554309D01*
X14327611Y-107544942D01*
X14315985Y-107522609D01*
X14143305Y-107190893D01*
X14138736Y-107181096D01*
X14118074Y-107131213D01*
X13985982Y-106812315D01*
X13982286Y-106802159D01*
X13977093Y-106785690D01*
X13862260Y-106421483D01*
X13859461Y-106411039D01*
X13846035Y-106350478D01*
X13773064Y-106021331D01*
X13771188Y-106010685D01*
X13770079Y-106002262D01*
X13719087Y-105614937D01*
X13718147Y-105604202D01*
X13700618Y-105202702D01*
X13700500Y-105197293D01*
X13700500Y-95612495D01*
X17349732Y-95612495D01*
X17349732Y-95612504D01*
X17368777Y-95866654D01*
X17418697Y-96085369D01*
X17425492Y-96115137D01*
X17518607Y-96352388D01*
X17646041Y-96573112D01*
X17804950Y-96772377D01*
X17991783Y-96945732D01*
X18202366Y-97089305D01*
X18202371Y-97089307D01*
X18202372Y-97089308D01*
X18202373Y-97089309D01*
X18280663Y-97127011D01*
X18431992Y-97199887D01*
X18431993Y-97199887D01*
X18431996Y-97199889D01*
X18675542Y-97275013D01*
X18927565Y-97313000D01*
X19182435Y-97313000D01*
X19434458Y-97275013D01*
X19678004Y-97199889D01*
X19859458Y-97112505D01*
X19907626Y-97089309D01*
X19907626Y-97089308D01*
X19907634Y-97089305D01*
X20118217Y-96945732D01*
X20305050Y-96772377D01*
X20463959Y-96573112D01*
X20591393Y-96352388D01*
X20684508Y-96115137D01*
X20741222Y-95866657D01*
X20760268Y-95612500D01*
X20754451Y-95534880D01*
X20741222Y-95358345D01*
X20727905Y-95300000D01*
X20684508Y-95109863D01*
X20591393Y-94872612D01*
X20463959Y-94651888D01*
X20305050Y-94452623D01*
X20118217Y-94279268D01*
X19907634Y-94135695D01*
X19907630Y-94135693D01*
X19907627Y-94135691D01*
X19907626Y-94135690D01*
X19678006Y-94025112D01*
X19678008Y-94025112D01*
X19434466Y-93949989D01*
X19434462Y-93949988D01*
X19434458Y-93949987D01*
X19308198Y-93930956D01*
X19182440Y-93912000D01*
X19182435Y-93912000D01*
X18927565Y-93912000D01*
X18927559Y-93912000D01*
X18777454Y-93934626D01*
X18675542Y-93949987D01*
X18675539Y-93949988D01*
X18675533Y-93949989D01*
X18431992Y-94025112D01*
X18202373Y-94135690D01*
X18202372Y-94135691D01*
X17991782Y-94279268D01*
X17804952Y-94452621D01*
X17804950Y-94452623D01*
X17646041Y-94651888D01*
X17518608Y-94872609D01*
X17425492Y-95109862D01*
X17425490Y-95109869D01*
X17368777Y-95358345D01*
X17349732Y-95612495D01*
X13700500Y-95612495D01*
X13700500Y-89599996D01*
X15994435Y-89599996D01*
X15994435Y-89600003D01*
X16014630Y-89779249D01*
X16014631Y-89779254D01*
X16074211Y-89949523D01*
X16170184Y-90102262D01*
X16297738Y-90229816D01*
X16343713Y-90258704D01*
X16441307Y-90320027D01*
X16450478Y-90325789D01*
X16508461Y-90346078D01*
X16620745Y-90385368D01*
X16620750Y-90385369D01*
X16799996Y-90405565D01*
X16800000Y-90405565D01*
X16800004Y-90405565D01*
X16979249Y-90385369D01*
X16979252Y-90385368D01*
X16979255Y-90385368D01*
X17149522Y-90325789D01*
X17302262Y-90229816D01*
X17429816Y-90102262D01*
X17525789Y-89949522D01*
X17585368Y-89779255D01*
X17605565Y-89600000D01*
X17600542Y-89555421D01*
X17585369Y-89420750D01*
X17585368Y-89420745D01*
X17537998Y-89285369D01*
X17525789Y-89250478D01*
X17429816Y-89097738D01*
X17302262Y-88970184D01*
X17278996Y-88955565D01*
X17149523Y-88874211D01*
X16979254Y-88814631D01*
X16979249Y-88814630D01*
X16800004Y-88794435D01*
X16799996Y-88794435D01*
X16620750Y-88814630D01*
X16620745Y-88814631D01*
X16450476Y-88874211D01*
X16297737Y-88970184D01*
X16170184Y-89097737D01*
X16074211Y-89250476D01*
X16014631Y-89420745D01*
X16014630Y-89420750D01*
X15994435Y-89599996D01*
X13700500Y-89599996D01*
X13700500Y-86799996D01*
X18294435Y-86799996D01*
X18294435Y-86800003D01*
X18314630Y-86979249D01*
X18314631Y-86979254D01*
X18374211Y-87149523D01*
X18448570Y-87267863D01*
X18470184Y-87302262D01*
X18597738Y-87429816D01*
X18668392Y-87474211D01*
X18747495Y-87523915D01*
X18750478Y-87525789D01*
X18818306Y-87549523D01*
X18920745Y-87585368D01*
X18920750Y-87585369D01*
X19099996Y-87605565D01*
X19100000Y-87605565D01*
X19100004Y-87605565D01*
X19279249Y-87585369D01*
X19279252Y-87585368D01*
X19279255Y-87585368D01*
X19449522Y-87525789D01*
X19602262Y-87429816D01*
X19729816Y-87302262D01*
X19825789Y-87149522D01*
X19885368Y-86979255D01*
X19886569Y-86968599D01*
X19905565Y-86800003D01*
X19905565Y-86799996D01*
X20594435Y-86799996D01*
X20594435Y-86800003D01*
X20614630Y-86979249D01*
X20614631Y-86979254D01*
X20674211Y-87149523D01*
X20748570Y-87267863D01*
X20770184Y-87302262D01*
X20897738Y-87429816D01*
X20968392Y-87474211D01*
X21047495Y-87523915D01*
X21050478Y-87525789D01*
X21118306Y-87549523D01*
X21220745Y-87585368D01*
X21220750Y-87585369D01*
X21399996Y-87605565D01*
X21400000Y-87605565D01*
X21400004Y-87605565D01*
X21579249Y-87585369D01*
X21579252Y-87585368D01*
X21579255Y-87585368D01*
X21749522Y-87525789D01*
X21902262Y-87429816D01*
X22029816Y-87302262D01*
X22125789Y-87149522D01*
X22185368Y-86979255D01*
X22186569Y-86968599D01*
X22205565Y-86800003D01*
X22205565Y-86799996D01*
X22185369Y-86620750D01*
X22185368Y-86620745D01*
X22178108Y-86599996D01*
X24094435Y-86599996D01*
X24094435Y-86600003D01*
X24114630Y-86779249D01*
X24114631Y-86779254D01*
X24174211Y-86949523D01*
X24224455Y-87029485D01*
X24270184Y-87102262D01*
X24397738Y-87229816D01*
X24476410Y-87279249D01*
X24550439Y-87325765D01*
X24550478Y-87325789D01*
X24611653Y-87347195D01*
X24720745Y-87385368D01*
X24720750Y-87385369D01*
X24899996Y-87405565D01*
X24900000Y-87405565D01*
X24900004Y-87405565D01*
X25079249Y-87385369D01*
X25079252Y-87385368D01*
X25079255Y-87385368D01*
X25249522Y-87325789D01*
X25402262Y-87229816D01*
X25529816Y-87102262D01*
X25625789Y-86949522D01*
X25685368Y-86779255D01*
X25705565Y-86600000D01*
X25705310Y-86597738D01*
X25685369Y-86420750D01*
X25685368Y-86420745D01*
X25648237Y-86314630D01*
X25625789Y-86250478D01*
X25529816Y-86097738D01*
X25402262Y-85970184D01*
X25338017Y-85929816D01*
X25249523Y-85874211D01*
X25079254Y-85814631D01*
X25079249Y-85814630D01*
X24900004Y-85794435D01*
X24899996Y-85794435D01*
X24720750Y-85814630D01*
X24720745Y-85814631D01*
X24550476Y-85874211D01*
X24397737Y-85970184D01*
X24270184Y-86097737D01*
X24174211Y-86250476D01*
X24114631Y-86420745D01*
X24114630Y-86420750D01*
X24094435Y-86599996D01*
X22178108Y-86599996D01*
X22125789Y-86450478D01*
X22107106Y-86420745D01*
X22040431Y-86314632D01*
X22029816Y-86297738D01*
X21902262Y-86170184D01*
X21799422Y-86105565D01*
X21749523Y-86074211D01*
X21579254Y-86014631D01*
X21579249Y-86014630D01*
X21400004Y-85994435D01*
X21399996Y-85994435D01*
X21220750Y-86014630D01*
X21220745Y-86014631D01*
X21050476Y-86074211D01*
X20897737Y-86170184D01*
X20770184Y-86297737D01*
X20674211Y-86450476D01*
X20614631Y-86620745D01*
X20614630Y-86620750D01*
X20594435Y-86799996D01*
X19905565Y-86799996D01*
X19885369Y-86620750D01*
X19885368Y-86620745D01*
X19878108Y-86599996D01*
X19825789Y-86450478D01*
X19807106Y-86420745D01*
X19740431Y-86314632D01*
X19729816Y-86297738D01*
X19602262Y-86170184D01*
X19499422Y-86105565D01*
X19449523Y-86074211D01*
X19279254Y-86014631D01*
X19279249Y-86014630D01*
X19100004Y-85994435D01*
X19099996Y-85994435D01*
X18920750Y-86014630D01*
X18920745Y-86014631D01*
X18750476Y-86074211D01*
X18597737Y-86170184D01*
X18470184Y-86297737D01*
X18374211Y-86450476D01*
X18314631Y-86620745D01*
X18314630Y-86620750D01*
X18294435Y-86799996D01*
X13700500Y-86799996D01*
X13700500Y-84799996D01*
X15494435Y-84799996D01*
X15494435Y-84800003D01*
X15514630Y-84979249D01*
X15514631Y-84979254D01*
X15574211Y-85149523D01*
X15657412Y-85281935D01*
X15670184Y-85302262D01*
X15797738Y-85429816D01*
X15950478Y-85525789D01*
X16106347Y-85580330D01*
X16120745Y-85585368D01*
X16120750Y-85585369D01*
X16299996Y-85605565D01*
X16300000Y-85605565D01*
X16300004Y-85605565D01*
X16479249Y-85585369D01*
X16479252Y-85585368D01*
X16479255Y-85585368D01*
X16649522Y-85525789D01*
X16802262Y-85429816D01*
X16929816Y-85302262D01*
X17025789Y-85149522D01*
X17085368Y-84979255D01*
X17087715Y-84958426D01*
X17105565Y-84800003D01*
X17105565Y-84799996D01*
X17085369Y-84620750D01*
X17085368Y-84620745D01*
X17069085Y-84574211D01*
X17025789Y-84450478D01*
X16929816Y-84297738D01*
X16802262Y-84170184D01*
X16649523Y-84074211D01*
X16479254Y-84014631D01*
X16479249Y-84014630D01*
X16300004Y-83994435D01*
X16299996Y-83994435D01*
X16120750Y-84014630D01*
X16120745Y-84014631D01*
X15950476Y-84074211D01*
X15797737Y-84170184D01*
X15670184Y-84297737D01*
X15574211Y-84450476D01*
X15514631Y-84620745D01*
X15514630Y-84620750D01*
X15494435Y-84799996D01*
X13700500Y-84799996D01*
X13700500Y-81699996D01*
X19394435Y-81699996D01*
X19394435Y-81700003D01*
X19414630Y-81879249D01*
X19414631Y-81879254D01*
X19474211Y-82049523D01*
X19489724Y-82074211D01*
X19570184Y-82202262D01*
X19697738Y-82329816D01*
X19850478Y-82425789D01*
X20020745Y-82485368D01*
X20020750Y-82485369D01*
X20199996Y-82505565D01*
X20200000Y-82505565D01*
X20200004Y-82505565D01*
X20379249Y-82485369D01*
X20379252Y-82485368D01*
X20379255Y-82485368D01*
X20549522Y-82425789D01*
X20702262Y-82329816D01*
X20829816Y-82202262D01*
X20925789Y-82049522D01*
X20985368Y-81879255D01*
X20995902Y-81785763D01*
X21005565Y-81700003D01*
X21005565Y-81699996D01*
X20985369Y-81520750D01*
X20985368Y-81520745D01*
X20978108Y-81499996D01*
X25794435Y-81499996D01*
X25794435Y-81500003D01*
X25814630Y-81679249D01*
X25814631Y-81679254D01*
X25874211Y-81849523D01*
X25926120Y-81932135D01*
X25970184Y-82002262D01*
X26097738Y-82129816D01*
X26161983Y-82170184D01*
X26242450Y-82220745D01*
X26250478Y-82225789D01*
X26330649Y-82253842D01*
X26420745Y-82285368D01*
X26420750Y-82285369D01*
X26599996Y-82305565D01*
X26600000Y-82305565D01*
X26600004Y-82305565D01*
X26779249Y-82285369D01*
X26779252Y-82285368D01*
X26779255Y-82285368D01*
X26949522Y-82225789D01*
X26991827Y-82199207D01*
X27059063Y-82180207D01*
X27125899Y-82200574D01*
X27171113Y-82253842D01*
X27181019Y-82290318D01*
X27189630Y-82366749D01*
X27189633Y-82366762D01*
X27249209Y-82537018D01*
X27249210Y-82537020D01*
X27249211Y-82537022D01*
X27249937Y-82538177D01*
X27250178Y-82539032D01*
X27252231Y-82543294D01*
X27251484Y-82543653D01*
X27268940Y-82605412D01*
X27249941Y-82670124D01*
X27223473Y-82712247D01*
X27163898Y-82882502D01*
X27163895Y-82882515D01*
X27143700Y-83061761D01*
X27143700Y-83061768D01*
X27163895Y-83241014D01*
X27163896Y-83241019D01*
X27223477Y-83411290D01*
X27236709Y-83432349D01*
X27255709Y-83499585D01*
X27248757Y-83539275D01*
X27189631Y-83708245D01*
X27189630Y-83708250D01*
X27169435Y-83887496D01*
X27169435Y-83887503D01*
X27189630Y-84066749D01*
X27189631Y-84066754D01*
X27249211Y-84237023D01*
X27287361Y-84297738D01*
X27345184Y-84389762D01*
X27472738Y-84517316D01*
X27625478Y-84613289D01*
X27788075Y-84670184D01*
X27795745Y-84672868D01*
X27795750Y-84672869D01*
X27974997Y-84693065D01*
X27974998Y-84693065D01*
X27974998Y-84693064D01*
X27975000Y-84693065D01*
X28009899Y-84689132D01*
X28078720Y-84701185D01*
X28111465Y-84724671D01*
X29015047Y-85628253D01*
X29048532Y-85689576D01*
X29043548Y-85759268D01*
X29001676Y-85815201D01*
X28968321Y-85832976D01*
X28850476Y-85874211D01*
X28697737Y-85970184D01*
X28570184Y-86097737D01*
X28474211Y-86250476D01*
X28412332Y-86427318D01*
X28409648Y-86426378D01*
X28381738Y-86476200D01*
X28320055Y-86509018D01*
X28250422Y-86503278D01*
X28207332Y-86475254D01*
X28202262Y-86470184D01*
X28049523Y-86374211D01*
X27879254Y-86314631D01*
X27879250Y-86314630D01*
X27781005Y-86303561D01*
X27716591Y-86276494D01*
X27677036Y-86218899D01*
X27671669Y-86166457D01*
X27680565Y-86087502D01*
X27680565Y-86087496D01*
X27660369Y-85908250D01*
X27660368Y-85908245D01*
X27627611Y-85814630D01*
X27600789Y-85737978D01*
X27504816Y-85585238D01*
X27377262Y-85457684D01*
X27365791Y-85450476D01*
X27224523Y-85361711D01*
X27054254Y-85302131D01*
X27054249Y-85302130D01*
X26875004Y-85281935D01*
X26874996Y-85281935D01*
X26695750Y-85302130D01*
X26695745Y-85302131D01*
X26525476Y-85361711D01*
X26372737Y-85457684D01*
X26245184Y-85585237D01*
X26149211Y-85737976D01*
X26089631Y-85908245D01*
X26089630Y-85908250D01*
X26069435Y-86087496D01*
X26069435Y-86087503D01*
X26089630Y-86266749D01*
X26089631Y-86266754D01*
X26149211Y-86437023D01*
X26173828Y-86476200D01*
X26245184Y-86589762D01*
X26372738Y-86717316D01*
X26463080Y-86774082D01*
X26504328Y-86800000D01*
X26525478Y-86813289D01*
X26631758Y-86850478D01*
X26695745Y-86872868D01*
X26695750Y-86872869D01*
X26793993Y-86883938D01*
X26858407Y-86911004D01*
X26897962Y-86968599D01*
X26903330Y-87021040D01*
X26894435Y-87099994D01*
X26894435Y-87100003D01*
X26914630Y-87279249D01*
X26914631Y-87279254D01*
X26974211Y-87449523D01*
X27014636Y-87513858D01*
X27033636Y-87581094D01*
X27013268Y-87647930D01*
X26960001Y-87693144D01*
X26923526Y-87703050D01*
X26820749Y-87714630D01*
X26820745Y-87714631D01*
X26650476Y-87774211D01*
X26497737Y-87870184D01*
X26370184Y-87997737D01*
X26274211Y-88150476D01*
X26214631Y-88320745D01*
X26214630Y-88320750D01*
X26194435Y-88499996D01*
X26194435Y-88500003D01*
X26214630Y-88679249D01*
X26214631Y-88679254D01*
X26274211Y-88849523D01*
X26367431Y-88997881D01*
X26370184Y-89002262D01*
X26497738Y-89129816D01*
X26502462Y-89132784D01*
X26648846Y-89224764D01*
X26650478Y-89225789D01*
X26730829Y-89253905D01*
X26820745Y-89285368D01*
X26820750Y-89285369D01*
X26999996Y-89305565D01*
X27000000Y-89305565D01*
X27000004Y-89305565D01*
X27179249Y-89285369D01*
X27179252Y-89285368D01*
X27179255Y-89285368D01*
X27349522Y-89225789D01*
X27502262Y-89129816D01*
X27629816Y-89002262D01*
X27725789Y-88849522D01*
X27785368Y-88679255D01*
X27785369Y-88679249D01*
X27805565Y-88500003D01*
X27805565Y-88499996D01*
X27788711Y-88350411D01*
X27800766Y-88281590D01*
X27848115Y-88230210D01*
X27915725Y-88212586D01*
X27982131Y-88234313D01*
X27999612Y-88248847D01*
X35415139Y-95664374D01*
X35415149Y-95664385D01*
X35419479Y-95668715D01*
X35419480Y-95668716D01*
X35531284Y-95780520D01*
X35571521Y-95803750D01*
X35618095Y-95830639D01*
X35618097Y-95830641D01*
X35668213Y-95859576D01*
X35668215Y-95859577D01*
X35820942Y-95900500D01*
X35820943Y-95900500D01*
X57117588Y-95900500D01*
X57184627Y-95920185D01*
X57194903Y-95927555D01*
X57197736Y-95929814D01*
X57197738Y-95929816D01*
X57350478Y-96025789D01*
X57520745Y-96085368D01*
X57520750Y-96085369D01*
X57699996Y-96105565D01*
X57700000Y-96105565D01*
X57700004Y-96105565D01*
X57879249Y-96085369D01*
X57879252Y-96085368D01*
X57879255Y-96085368D01*
X58049522Y-96025789D01*
X58202262Y-95929816D01*
X58329816Y-95802262D01*
X58425789Y-95649522D01*
X58485368Y-95479255D01*
X58498991Y-95358345D01*
X58505565Y-95300003D01*
X58505565Y-95299996D01*
X58485369Y-95120750D01*
X58485368Y-95120745D01*
X58452047Y-95025520D01*
X58425789Y-94950478D01*
X58329816Y-94797738D01*
X58230222Y-94698144D01*
X58196737Y-94636821D01*
X58194683Y-94596579D01*
X58205565Y-94500002D01*
X58205565Y-94499996D01*
X58185369Y-94320750D01*
X58185368Y-94320745D01*
X58179675Y-94304475D01*
X58125789Y-94150478D01*
X58124877Y-94149027D01*
X58070678Y-94062769D01*
X58029816Y-93997738D01*
X57902262Y-93870184D01*
X57874021Y-93852439D01*
X57749521Y-93774210D01*
X57579249Y-93714630D01*
X57492330Y-93704837D01*
X57427916Y-93677770D01*
X57418533Y-93669298D01*
X56587590Y-92838355D01*
X56587588Y-92838352D01*
X56462969Y-92713733D01*
X56464987Y-92711714D01*
X56431933Y-92666431D01*
X56427788Y-92596684D01*
X56462009Y-92535769D01*
X56523731Y-92503025D01*
X56548628Y-92500500D01*
X56899903Y-92500500D01*
X56966942Y-92520185D01*
X56987584Y-92536819D01*
X60063181Y-95612416D01*
X60096666Y-95673739D01*
X60099500Y-95700097D01*
X60099500Y-98099092D01*
X60079815Y-98166131D01*
X60027011Y-98211886D01*
X60016463Y-98216130D01*
X59960093Y-98235854D01*
X59850478Y-98274210D01*
X59697737Y-98370184D01*
X59570184Y-98497737D01*
X59474211Y-98650476D01*
X59414631Y-98820745D01*
X59414630Y-98820750D01*
X59394435Y-98999996D01*
X59394435Y-99000003D01*
X59414630Y-99179249D01*
X59414631Y-99179254D01*
X59474211Y-99349523D01*
X59529491Y-99437500D01*
X59570184Y-99502262D01*
X59697738Y-99629816D01*
X59788080Y-99686582D01*
X59805833Y-99697737D01*
X59850478Y-99725789D01*
X60014529Y-99783193D01*
X60020745Y-99785368D01*
X60020750Y-99785369D01*
X60199996Y-99805565D01*
X60200000Y-99805565D01*
X60200004Y-99805565D01*
X60379249Y-99785369D01*
X60379251Y-99785368D01*
X60379255Y-99785368D01*
X60379258Y-99785366D01*
X60379262Y-99785366D01*
X60546174Y-99726961D01*
X60615953Y-99723399D01*
X60676580Y-99758127D01*
X60692122Y-99778029D01*
X60770182Y-99902260D01*
X60770184Y-99902262D01*
X60897738Y-100029816D01*
X60988080Y-100086582D01*
X61045644Y-100122752D01*
X61050478Y-100125789D01*
X61156821Y-100163000D01*
X61220745Y-100185368D01*
X61220750Y-100185369D01*
X61399996Y-100205565D01*
X61400000Y-100205565D01*
X61400004Y-100205565D01*
X61579246Y-100185369D01*
X61579245Y-100185369D01*
X61579255Y-100185368D01*
X61584725Y-100183453D01*
X61654499Y-100179888D01*
X61715129Y-100214612D01*
X61742724Y-100259537D01*
X61749623Y-100279254D01*
X61774210Y-100349521D01*
X61804507Y-100397738D01*
X61870184Y-100502262D01*
X61997738Y-100629816D01*
X62053246Y-100664694D01*
X62142450Y-100720745D01*
X62150478Y-100725789D01*
X62320262Y-100785199D01*
X62320745Y-100785368D01*
X62320750Y-100785369D01*
X62499996Y-100805565D01*
X62500000Y-100805565D01*
X62500004Y-100805565D01*
X62679249Y-100785369D01*
X62679252Y-100785368D01*
X62679255Y-100785368D01*
X62849522Y-100725789D01*
X63002262Y-100629816D01*
X63129816Y-100502262D01*
X63225789Y-100349522D01*
X63285368Y-100179255D01*
X63285369Y-100179249D01*
X63305565Y-100000003D01*
X63305565Y-99999996D01*
X63285369Y-99820750D01*
X63285368Y-99820745D01*
X63263457Y-99758127D01*
X63225789Y-99650478D01*
X63214939Y-99633211D01*
X63159300Y-99544661D01*
X63129816Y-99497738D01*
X63002262Y-99370184D01*
X62938017Y-99329816D01*
X62849523Y-99274211D01*
X62679254Y-99214631D01*
X62679249Y-99214630D01*
X62500004Y-99194435D01*
X62499996Y-99194435D01*
X62320746Y-99214631D01*
X62315268Y-99216548D01*
X62245489Y-99220107D01*
X62184863Y-99185377D01*
X62157275Y-99140460D01*
X62156464Y-99138142D01*
X62125789Y-99050478D01*
X62125188Y-99049522D01*
X62050838Y-98931195D01*
X62029816Y-98897738D01*
X61902262Y-98770184D01*
X61834791Y-98727789D01*
X61749523Y-98674211D01*
X61579254Y-98614631D01*
X61579250Y-98614630D01*
X61410617Y-98595630D01*
X61346203Y-98568563D01*
X61306648Y-98510968D01*
X61304899Y-98499996D01*
X62894435Y-98499996D01*
X62894435Y-98500003D01*
X62914630Y-98679249D01*
X62914631Y-98679254D01*
X62974211Y-98849523D01*
X63025535Y-98931204D01*
X63070184Y-99002262D01*
X63197738Y-99129816D01*
X63258880Y-99168234D01*
X63342450Y-99220745D01*
X63350478Y-99225789D01*
X63488837Y-99274203D01*
X63520745Y-99285368D01*
X63520750Y-99285369D01*
X63699996Y-99305565D01*
X63700000Y-99305565D01*
X63700004Y-99305565D01*
X63879249Y-99285369D01*
X63879252Y-99285368D01*
X63879255Y-99285368D01*
X64049522Y-99225789D01*
X64202262Y-99129816D01*
X64329816Y-99002262D01*
X64425789Y-98849522D01*
X64485368Y-98679255D01*
X64485369Y-98679249D01*
X64505565Y-98500003D01*
X64505565Y-98499996D01*
X64485369Y-98320750D01*
X64485368Y-98320745D01*
X64448237Y-98214632D01*
X64425789Y-98150478D01*
X64329816Y-97997738D01*
X64202262Y-97870184D01*
X64131608Y-97825789D01*
X64049523Y-97774211D01*
X63879254Y-97714631D01*
X63879249Y-97714630D01*
X63700004Y-97694435D01*
X63699996Y-97694435D01*
X63520750Y-97714630D01*
X63520745Y-97714631D01*
X63350476Y-97774211D01*
X63197737Y-97870184D01*
X63070184Y-97997737D01*
X62974211Y-98150476D01*
X62914631Y-98320745D01*
X62914630Y-98320750D01*
X62894435Y-98499996D01*
X61304899Y-98499996D01*
X61300501Y-98472410D01*
X61300501Y-98413347D01*
X61300500Y-98413329D01*
X61300500Y-95299996D01*
X66694435Y-95299996D01*
X66694435Y-95300003D01*
X66714630Y-95479249D01*
X66714631Y-95479254D01*
X66774211Y-95649523D01*
X66866415Y-95796263D01*
X66870184Y-95802262D01*
X66997738Y-95929816D01*
X67150478Y-96025789D01*
X67320745Y-96085368D01*
X67320750Y-96085369D01*
X67499996Y-96105565D01*
X67500000Y-96105565D01*
X67500004Y-96105565D01*
X67679249Y-96085369D01*
X67679252Y-96085368D01*
X67679255Y-96085368D01*
X67849522Y-96025789D01*
X68002262Y-95929816D01*
X68129816Y-95802262D01*
X68225789Y-95649522D01*
X68285368Y-95479255D01*
X68298991Y-95358345D01*
X68305565Y-95300003D01*
X68305565Y-95299996D01*
X68285369Y-95120750D01*
X68285368Y-95120745D01*
X68252047Y-95025520D01*
X68225789Y-94950478D01*
X68129816Y-94797738D01*
X68002262Y-94670184D01*
X67931522Y-94625735D01*
X67849523Y-94574211D01*
X67679254Y-94514631D01*
X67679249Y-94514630D01*
X67500004Y-94494435D01*
X67499996Y-94494435D01*
X67320750Y-94514630D01*
X67320745Y-94514631D01*
X67150476Y-94574211D01*
X66997737Y-94670184D01*
X66870184Y-94797737D01*
X66774211Y-94950476D01*
X66714631Y-95120745D01*
X66714630Y-95120750D01*
X66694435Y-95299996D01*
X61300500Y-95299996D01*
X61300500Y-91291629D01*
X61320185Y-91224590D01*
X61359226Y-91186200D01*
X61366041Y-91181981D01*
X61366456Y-91181602D01*
X61366700Y-91181483D01*
X61370615Y-91178527D01*
X61371193Y-91179292D01*
X61429258Y-91150981D01*
X61498645Y-91159174D01*
X61529180Y-91178797D01*
X61529385Y-91178527D01*
X61532962Y-91181228D01*
X61533542Y-91181601D01*
X61533959Y-91181981D01*
X61533961Y-91181982D01*
X61533962Y-91181983D01*
X61584738Y-91213422D01*
X61707363Y-91289348D01*
X61897544Y-91363024D01*
X62098024Y-91400500D01*
X62098026Y-91400500D01*
X62301974Y-91400500D01*
X62301976Y-91400500D01*
X62502456Y-91363024D01*
X62692637Y-91289348D01*
X62866041Y-91181981D01*
X62866456Y-91181602D01*
X62866700Y-91181483D01*
X62870615Y-91178527D01*
X62871193Y-91179292D01*
X62929258Y-91150981D01*
X62998645Y-91159174D01*
X63029180Y-91178797D01*
X63029385Y-91178527D01*
X63032962Y-91181228D01*
X63033542Y-91181601D01*
X63033959Y-91181981D01*
X63033961Y-91181982D01*
X63033962Y-91181983D01*
X63084738Y-91213422D01*
X63207363Y-91289348D01*
X63397544Y-91363024D01*
X63598024Y-91400500D01*
X63598026Y-91400500D01*
X63801974Y-91400500D01*
X63801976Y-91400500D01*
X64002456Y-91363024D01*
X64192637Y-91289348D01*
X64366041Y-91181981D01*
X64366456Y-91181602D01*
X64366700Y-91181483D01*
X64370615Y-91178527D01*
X64371193Y-91179292D01*
X64429258Y-91150981D01*
X64498645Y-91159174D01*
X64529180Y-91178797D01*
X64529385Y-91178527D01*
X64532962Y-91181228D01*
X64533542Y-91181601D01*
X64533959Y-91181981D01*
X64533961Y-91181982D01*
X64533962Y-91181983D01*
X64584738Y-91213422D01*
X64707363Y-91289348D01*
X64897544Y-91363024D01*
X65098024Y-91400500D01*
X65098026Y-91400500D01*
X65301974Y-91400500D01*
X65301976Y-91400500D01*
X65502456Y-91363024D01*
X65692637Y-91289348D01*
X65866041Y-91181981D01*
X66016764Y-91044579D01*
X66139673Y-90881821D01*
X66230582Y-90699250D01*
X66286397Y-90503083D01*
X66305215Y-90300000D01*
X66301388Y-90258704D01*
X66286397Y-90096917D01*
X66253023Y-89979622D01*
X66230582Y-89900750D01*
X66139673Y-89718179D01*
X66050431Y-89600003D01*
X66016762Y-89555418D01*
X65866041Y-89418019D01*
X65866039Y-89418017D01*
X65692642Y-89310655D01*
X65692635Y-89310651D01*
X65537309Y-89250478D01*
X65502456Y-89236976D01*
X65437122Y-89224763D01*
X65374843Y-89193096D01*
X65339570Y-89132784D01*
X65342504Y-89062975D01*
X65382713Y-89005835D01*
X65393937Y-88997881D01*
X65398987Y-88994708D01*
X65502262Y-88929816D01*
X65629816Y-88802262D01*
X65725789Y-88649522D01*
X65778109Y-88500000D01*
X68839381Y-88500000D01*
X68859825Y-88759775D01*
X68920655Y-89013154D01*
X69020377Y-89253905D01*
X69156529Y-89476084D01*
X69156532Y-89476089D01*
X69224286Y-89555418D01*
X69325765Y-89674235D01*
X69448721Y-89779249D01*
X69523910Y-89843467D01*
X69523915Y-89843470D01*
X69746094Y-89979622D01*
X69839198Y-90018187D01*
X69986841Y-90079343D01*
X70240222Y-90140174D01*
X70500000Y-90160619D01*
X70759778Y-90140174D01*
X71013159Y-90079343D01*
X71253905Y-89979622D01*
X71476087Y-89843469D01*
X71674235Y-89674235D01*
X71843469Y-89476087D01*
X71979622Y-89253905D01*
X72079343Y-89013159D01*
X72140174Y-88759778D01*
X72160619Y-88500000D01*
X72140174Y-88240222D01*
X72130517Y-88199996D01*
X74494435Y-88199996D01*
X74494435Y-88200003D01*
X74514630Y-88379249D01*
X74514631Y-88379254D01*
X74574211Y-88549523D01*
X74637045Y-88649522D01*
X74670184Y-88702262D01*
X74797738Y-88829816D01*
X74868392Y-88874211D01*
X74921630Y-88907663D01*
X74950478Y-88925789D01*
X75077352Y-88970184D01*
X75120745Y-88985368D01*
X75120750Y-88985369D01*
X75299996Y-89005565D01*
X75300000Y-89005565D01*
X75300004Y-89005565D01*
X75479249Y-88985369D01*
X75479252Y-88985368D01*
X75479255Y-88985368D01*
X75649522Y-88925789D01*
X75802262Y-88829816D01*
X75929816Y-88702262D01*
X76025789Y-88549522D01*
X76085368Y-88379255D01*
X76091002Y-88329254D01*
X76105565Y-88200003D01*
X76105565Y-88199996D01*
X76085369Y-88020750D01*
X76085368Y-88020745D01*
X76080056Y-88005565D01*
X76025789Y-87850478D01*
X75929816Y-87697738D01*
X75802262Y-87570184D01*
X75731608Y-87525789D01*
X75649523Y-87474211D01*
X75479254Y-87414631D01*
X75479249Y-87414630D01*
X75300004Y-87394435D01*
X75299996Y-87394435D01*
X75120750Y-87414630D01*
X75120745Y-87414631D01*
X74950476Y-87474211D01*
X74797737Y-87570184D01*
X74670184Y-87697737D01*
X74574211Y-87850476D01*
X74514631Y-88020745D01*
X74514630Y-88020750D01*
X74494435Y-88199996D01*
X72130517Y-88199996D01*
X72079343Y-87986841D01*
X72014300Y-87829815D01*
X71979622Y-87746094D01*
X71859162Y-87549522D01*
X71843469Y-87523913D01*
X71843468Y-87523912D01*
X71843467Y-87523910D01*
X71763102Y-87429815D01*
X71674235Y-87325765D01*
X71561892Y-87229815D01*
X71476089Y-87156532D01*
X71476084Y-87156529D01*
X71253905Y-87020377D01*
X71013154Y-86920655D01*
X70759774Y-86859825D01*
X70759775Y-86859825D01*
X70500000Y-86839381D01*
X70240224Y-86859825D01*
X69986845Y-86920655D01*
X69746094Y-87020377D01*
X69523915Y-87156529D01*
X69523910Y-87156532D01*
X69325765Y-87325765D01*
X69156532Y-87523910D01*
X69156529Y-87523915D01*
X69020377Y-87746094D01*
X68920655Y-87986845D01*
X68859825Y-88240224D01*
X68839381Y-88500000D01*
X65778109Y-88500000D01*
X65785368Y-88479255D01*
X65785369Y-88479249D01*
X65805565Y-88300003D01*
X65805565Y-88299996D01*
X65785369Y-88120750D01*
X65785368Y-88120745D01*
X65766037Y-88065500D01*
X65725789Y-87950478D01*
X65694083Y-87900019D01*
X65662955Y-87850478D01*
X65629816Y-87797738D01*
X65502262Y-87670184D01*
X65466845Y-87647930D01*
X65349523Y-87574211D01*
X65179254Y-87514631D01*
X65179249Y-87514630D01*
X65000004Y-87494435D01*
X64999996Y-87494435D01*
X64820750Y-87514630D01*
X64820745Y-87514631D01*
X64650476Y-87574211D01*
X64497737Y-87670184D01*
X64370184Y-87797737D01*
X64274211Y-87950476D01*
X64214631Y-88120745D01*
X64214630Y-88120750D01*
X64194435Y-88299996D01*
X64194435Y-88300003D01*
X64214630Y-88479249D01*
X64214631Y-88479254D01*
X64274211Y-88649523D01*
X64356080Y-88779815D01*
X64370184Y-88802262D01*
X64497738Y-88929816D01*
X64550163Y-88962757D01*
X64636660Y-89017107D01*
X64650478Y-89025789D01*
X64742107Y-89057851D01*
X64749139Y-89060312D01*
X64805915Y-89101034D01*
X64831662Y-89165987D01*
X64818206Y-89234549D01*
X64769818Y-89284951D01*
X64752980Y-89292979D01*
X64740830Y-89297686D01*
X64707364Y-89310651D01*
X64707357Y-89310655D01*
X64533961Y-89418017D01*
X64533956Y-89418020D01*
X64533535Y-89418405D01*
X64533288Y-89418525D01*
X64529385Y-89421473D01*
X64528808Y-89420709D01*
X64470729Y-89449020D01*
X64401343Y-89440820D01*
X64370818Y-89421203D01*
X64370615Y-89421473D01*
X64367051Y-89418781D01*
X64366465Y-89418405D01*
X64366043Y-89418020D01*
X64366038Y-89418017D01*
X64192642Y-89310655D01*
X64192635Y-89310651D01*
X64037309Y-89250478D01*
X64002456Y-89236976D01*
X63801976Y-89199500D01*
X63598024Y-89199500D01*
X63397544Y-89236976D01*
X63397541Y-89236976D01*
X63397541Y-89236977D01*
X63207364Y-89310651D01*
X63207357Y-89310655D01*
X63033961Y-89418017D01*
X63033956Y-89418020D01*
X63033535Y-89418405D01*
X63033288Y-89418525D01*
X63029385Y-89421473D01*
X63028808Y-89420709D01*
X62970729Y-89449020D01*
X62901343Y-89440820D01*
X62870818Y-89421203D01*
X62870615Y-89421473D01*
X62867051Y-89418781D01*
X62866465Y-89418405D01*
X62866043Y-89418020D01*
X62866038Y-89418017D01*
X62692642Y-89310655D01*
X62692635Y-89310651D01*
X62537309Y-89250478D01*
X62502456Y-89236976D01*
X62301976Y-89199500D01*
X62098024Y-89199500D01*
X61897544Y-89236976D01*
X61897541Y-89236976D01*
X61897541Y-89236977D01*
X61707364Y-89310651D01*
X61707357Y-89310655D01*
X61533961Y-89418017D01*
X61533956Y-89418020D01*
X61533535Y-89418405D01*
X61533288Y-89418525D01*
X61529385Y-89421473D01*
X61528808Y-89420709D01*
X61470729Y-89449020D01*
X61401343Y-89440820D01*
X61370818Y-89421203D01*
X61370615Y-89421473D01*
X61367051Y-89418781D01*
X61366465Y-89418405D01*
X61366043Y-89418020D01*
X61366038Y-89418017D01*
X61192642Y-89310655D01*
X61192635Y-89310651D01*
X61037309Y-89250478D01*
X61002456Y-89236976D01*
X60801976Y-89199500D01*
X60598024Y-89199500D01*
X60397544Y-89236976D01*
X60397541Y-89236976D01*
X60397541Y-89236977D01*
X60207364Y-89310651D01*
X60207357Y-89310655D01*
X60033961Y-89418017D01*
X60033956Y-89418020D01*
X60033535Y-89418405D01*
X60033288Y-89418525D01*
X60029385Y-89421473D01*
X60028808Y-89420709D01*
X59970729Y-89449020D01*
X59901343Y-89440820D01*
X59870818Y-89421203D01*
X59870615Y-89421473D01*
X59867051Y-89418781D01*
X59866465Y-89418405D01*
X59866043Y-89418020D01*
X59866038Y-89418017D01*
X59692642Y-89310655D01*
X59692635Y-89310651D01*
X59537309Y-89250478D01*
X59502456Y-89236976D01*
X59301976Y-89199500D01*
X59098024Y-89199500D01*
X58897544Y-89236976D01*
X58897541Y-89236976D01*
X58897541Y-89236977D01*
X58707364Y-89310651D01*
X58707357Y-89310655D01*
X58533961Y-89418017D01*
X58533950Y-89418025D01*
X58533152Y-89418753D01*
X58532686Y-89418979D01*
X58529385Y-89421473D01*
X58528896Y-89420826D01*
X58470343Y-89449360D01*
X58400957Y-89441152D01*
X58370524Y-89421592D01*
X58370312Y-89421874D01*
X58366589Y-89419063D01*
X58366095Y-89418745D01*
X58365739Y-89418421D01*
X58192415Y-89311102D01*
X58002321Y-89237460D01*
X57801928Y-89200000D01*
X57598072Y-89200000D01*
X57397678Y-89237460D01*
X57207584Y-89311102D01*
X57034260Y-89418421D01*
X57034253Y-89418426D01*
X57033895Y-89418753D01*
X57033686Y-89418854D01*
X57029688Y-89421874D01*
X57029096Y-89421091D01*
X56971086Y-89449361D01*
X56901700Y-89441152D01*
X56870767Y-89421270D01*
X56870615Y-89421473D01*
X56867946Y-89419458D01*
X56866839Y-89418746D01*
X56866041Y-89418019D01*
X56866039Y-89418017D01*
X56692642Y-89310655D01*
X56692635Y-89310651D01*
X56537309Y-89250478D01*
X56502456Y-89236976D01*
X56301976Y-89199500D01*
X56098024Y-89199500D01*
X55897544Y-89236976D01*
X55897541Y-89236976D01*
X55897541Y-89236977D01*
X55707364Y-89310651D01*
X55707357Y-89310655D01*
X55533961Y-89418017D01*
X55533956Y-89418020D01*
X55533535Y-89418405D01*
X55533288Y-89418525D01*
X55529385Y-89421473D01*
X55528808Y-89420709D01*
X55470729Y-89449020D01*
X55401343Y-89440820D01*
X55370818Y-89421203D01*
X55370615Y-89421473D01*
X55367051Y-89418781D01*
X55366465Y-89418405D01*
X55366043Y-89418020D01*
X55366038Y-89418017D01*
X55192642Y-89310655D01*
X55192635Y-89310651D01*
X55037309Y-89250478D01*
X55002456Y-89236976D01*
X54801976Y-89199500D01*
X54598024Y-89199500D01*
X54397544Y-89236976D01*
X54397541Y-89236976D01*
X54397541Y-89236977D01*
X54207364Y-89310651D01*
X54207357Y-89310655D01*
X54033961Y-89418017D01*
X54033956Y-89418020D01*
X54033535Y-89418405D01*
X54033288Y-89418525D01*
X54029385Y-89421473D01*
X54028808Y-89420709D01*
X53970729Y-89449020D01*
X53901343Y-89440820D01*
X53870818Y-89421203D01*
X53870615Y-89421473D01*
X53867051Y-89418781D01*
X53866465Y-89418405D01*
X53866043Y-89418020D01*
X53866038Y-89418017D01*
X53692642Y-89310655D01*
X53692635Y-89310651D01*
X53537309Y-89250478D01*
X53502456Y-89236976D01*
X53301976Y-89199500D01*
X53098024Y-89199500D01*
X52897544Y-89236976D01*
X52897541Y-89236976D01*
X52897541Y-89236977D01*
X52707364Y-89310651D01*
X52707357Y-89310655D01*
X52533961Y-89418017D01*
X52533956Y-89418020D01*
X52533535Y-89418405D01*
X52533288Y-89418525D01*
X52529385Y-89421473D01*
X52528808Y-89420709D01*
X52470729Y-89449020D01*
X52401343Y-89440820D01*
X52370818Y-89421203D01*
X52370615Y-89421473D01*
X52367051Y-89418781D01*
X52366465Y-89418405D01*
X52366043Y-89418020D01*
X52366038Y-89418017D01*
X52192642Y-89310655D01*
X52192635Y-89310651D01*
X52037309Y-89250478D01*
X52002456Y-89236976D01*
X51801976Y-89199500D01*
X51598024Y-89199500D01*
X51397544Y-89236976D01*
X51397541Y-89236976D01*
X51397541Y-89236977D01*
X51207364Y-89310651D01*
X51207357Y-89310655D01*
X51033961Y-89418017D01*
X51033956Y-89418020D01*
X51033535Y-89418405D01*
X51033288Y-89418525D01*
X51029385Y-89421473D01*
X51028808Y-89420709D01*
X50970729Y-89449020D01*
X50901343Y-89440820D01*
X50870818Y-89421203D01*
X50870615Y-89421473D01*
X50867051Y-89418781D01*
X50866465Y-89418405D01*
X50866043Y-89418020D01*
X50866038Y-89418017D01*
X50692642Y-89310655D01*
X50692635Y-89310651D01*
X50537309Y-89250478D01*
X50502456Y-89236976D01*
X50301976Y-89199500D01*
X50098024Y-89199500D01*
X49897544Y-89236976D01*
X49897541Y-89236976D01*
X49897541Y-89236977D01*
X49707364Y-89310651D01*
X49707357Y-89310655D01*
X49533961Y-89418017D01*
X49533956Y-89418020D01*
X49533535Y-89418405D01*
X49533288Y-89418525D01*
X49529385Y-89421473D01*
X49528808Y-89420709D01*
X49470729Y-89449020D01*
X49401343Y-89440820D01*
X49370818Y-89421203D01*
X49370615Y-89421473D01*
X49367051Y-89418781D01*
X49366465Y-89418405D01*
X49366043Y-89418020D01*
X49366038Y-89418017D01*
X49192642Y-89310655D01*
X49192635Y-89310651D01*
X49037309Y-89250478D01*
X49002456Y-89236976D01*
X48801976Y-89199500D01*
X48598024Y-89199500D01*
X48397544Y-89236976D01*
X48397541Y-89236976D01*
X48397541Y-89236977D01*
X48207364Y-89310651D01*
X48207357Y-89310655D01*
X48033961Y-89418017D01*
X48033956Y-89418020D01*
X48033535Y-89418405D01*
X48033288Y-89418525D01*
X48029385Y-89421473D01*
X48028808Y-89420709D01*
X47970729Y-89449020D01*
X47901343Y-89440820D01*
X47870818Y-89421203D01*
X47870615Y-89421473D01*
X47867051Y-89418781D01*
X47866465Y-89418405D01*
X47866043Y-89418020D01*
X47866038Y-89418017D01*
X47692642Y-89310655D01*
X47692635Y-89310651D01*
X47537309Y-89250478D01*
X47502456Y-89236976D01*
X47301976Y-89199500D01*
X47098024Y-89199500D01*
X46897544Y-89236976D01*
X46897541Y-89236976D01*
X46897541Y-89236977D01*
X46707364Y-89310651D01*
X46707357Y-89310655D01*
X46533961Y-89418017D01*
X46533956Y-89418020D01*
X46533535Y-89418405D01*
X46533288Y-89418525D01*
X46529385Y-89421473D01*
X46528808Y-89420709D01*
X46470729Y-89449020D01*
X46401343Y-89440820D01*
X46370818Y-89421203D01*
X46370615Y-89421473D01*
X46367051Y-89418781D01*
X46366465Y-89418405D01*
X46366043Y-89418020D01*
X46366038Y-89418017D01*
X46192642Y-89310655D01*
X46192635Y-89310651D01*
X46037309Y-89250478D01*
X46002456Y-89236976D01*
X45801976Y-89199500D01*
X45598024Y-89199500D01*
X45397544Y-89236976D01*
X45397541Y-89236976D01*
X45397541Y-89236977D01*
X45207364Y-89310651D01*
X45207357Y-89310655D01*
X45033961Y-89418017D01*
X45033956Y-89418020D01*
X45033535Y-89418405D01*
X45033288Y-89418525D01*
X45029385Y-89421473D01*
X45028808Y-89420709D01*
X44970729Y-89449020D01*
X44901343Y-89440820D01*
X44870818Y-89421203D01*
X44870615Y-89421473D01*
X44867051Y-89418781D01*
X44866465Y-89418405D01*
X44866043Y-89418020D01*
X44866038Y-89418017D01*
X44692642Y-89310655D01*
X44692635Y-89310651D01*
X44537309Y-89250478D01*
X44502456Y-89236976D01*
X44301976Y-89199500D01*
X44098024Y-89199500D01*
X43897544Y-89236976D01*
X43897541Y-89236976D01*
X43897541Y-89236977D01*
X43707364Y-89310651D01*
X43707357Y-89310655D01*
X43533961Y-89418017D01*
X43533956Y-89418020D01*
X43533535Y-89418405D01*
X43533288Y-89418525D01*
X43529385Y-89421473D01*
X43528808Y-89420709D01*
X43470729Y-89449020D01*
X43401343Y-89440820D01*
X43370818Y-89421203D01*
X43370615Y-89421473D01*
X43367051Y-89418781D01*
X43366465Y-89418405D01*
X43366043Y-89418020D01*
X43366038Y-89418017D01*
X43192642Y-89310655D01*
X43192635Y-89310651D01*
X43037309Y-89250478D01*
X43002456Y-89236976D01*
X42801976Y-89199500D01*
X42598024Y-89199500D01*
X42397544Y-89236976D01*
X42397541Y-89236976D01*
X42397541Y-89236977D01*
X42207364Y-89310651D01*
X42207357Y-89310655D01*
X42033961Y-89418017D01*
X42033956Y-89418020D01*
X42033535Y-89418405D01*
X42033288Y-89418525D01*
X42029385Y-89421473D01*
X42028808Y-89420709D01*
X41970729Y-89449020D01*
X41901343Y-89440820D01*
X41870818Y-89421203D01*
X41870615Y-89421473D01*
X41867051Y-89418781D01*
X41866465Y-89418405D01*
X41866043Y-89418020D01*
X41866038Y-89418017D01*
X41692642Y-89310655D01*
X41692635Y-89310651D01*
X41537309Y-89250478D01*
X41502456Y-89236976D01*
X41301976Y-89199500D01*
X41098024Y-89199500D01*
X40897544Y-89236976D01*
X40897541Y-89236976D01*
X40897541Y-89236977D01*
X40707364Y-89310651D01*
X40707357Y-89310655D01*
X40533960Y-89418017D01*
X40533958Y-89418019D01*
X40383237Y-89555418D01*
X40260327Y-89718178D01*
X40169422Y-89900739D01*
X40169417Y-89900752D01*
X40113602Y-90096917D01*
X40094785Y-90299999D01*
X40094785Y-90300000D01*
X40113602Y-90503082D01*
X40169417Y-90699247D01*
X40169422Y-90699260D01*
X40260327Y-90881821D01*
X40383237Y-91044581D01*
X40426328Y-91083863D01*
X40462610Y-91143574D01*
X40460849Y-91213422D01*
X40421606Y-91271229D01*
X40357339Y-91298644D01*
X40342790Y-91299500D01*
X36436126Y-91299500D01*
X36369087Y-91279815D01*
X36348445Y-91263181D01*
X35405291Y-90320027D01*
X35371806Y-90258704D01*
X35376790Y-90189012D01*
X35418662Y-90133079D01*
X35484126Y-90108662D01*
X35521918Y-90111771D01*
X35640222Y-90140174D01*
X35900000Y-90160619D01*
X36159778Y-90140174D01*
X36413159Y-90079343D01*
X36653905Y-89979622D01*
X36876087Y-89843469D01*
X37074235Y-89674235D01*
X37243469Y-89476087D01*
X37379622Y-89253905D01*
X37479343Y-89013159D01*
X37540174Y-88759778D01*
X37560619Y-88500000D01*
X37540174Y-88240222D01*
X37479343Y-87986841D01*
X37414300Y-87829815D01*
X37379622Y-87746094D01*
X37259162Y-87549522D01*
X37243469Y-87523913D01*
X37243468Y-87523912D01*
X37243467Y-87523910D01*
X37163102Y-87429815D01*
X37074235Y-87325765D01*
X36961892Y-87229815D01*
X36876089Y-87156532D01*
X36876084Y-87156529D01*
X36653905Y-87020377D01*
X36413154Y-86920655D01*
X36159774Y-86859825D01*
X36159775Y-86859825D01*
X35900000Y-86839381D01*
X35640224Y-86859825D01*
X35386845Y-86920655D01*
X35146094Y-87020377D01*
X34923915Y-87156529D01*
X34923910Y-87156532D01*
X34725765Y-87325765D01*
X34556532Y-87523910D01*
X34556529Y-87523915D01*
X34420377Y-87746094D01*
X34320655Y-87986845D01*
X34259825Y-88240224D01*
X34239381Y-88500000D01*
X34259825Y-88759775D01*
X34259825Y-88759777D01*
X34288227Y-88878081D01*
X34284736Y-88947863D01*
X34244072Y-89004680D01*
X34179145Y-89030493D01*
X34110570Y-89017107D01*
X34079972Y-88994708D01*
X30885260Y-85799996D01*
X36894435Y-85799996D01*
X36894435Y-85800003D01*
X36914630Y-85979249D01*
X36914631Y-85979254D01*
X36974211Y-86149523D01*
X37037646Y-86250478D01*
X37070184Y-86302262D01*
X37197738Y-86429816D01*
X37350478Y-86525789D01*
X37477352Y-86570184D01*
X37520745Y-86585368D01*
X37520750Y-86585369D01*
X37699996Y-86605565D01*
X37700000Y-86605565D01*
X37700004Y-86605565D01*
X37879249Y-86585369D01*
X37879252Y-86585368D01*
X37879255Y-86585368D01*
X38049522Y-86525789D01*
X38202262Y-86429816D01*
X38329816Y-86302262D01*
X38425789Y-86149522D01*
X38485368Y-85979255D01*
X38486390Y-85970184D01*
X38505565Y-85800003D01*
X38505565Y-85799996D01*
X38485369Y-85620750D01*
X38485368Y-85620745D01*
X38452141Y-85525788D01*
X38425789Y-85450478D01*
X38331235Y-85299996D01*
X40294435Y-85299996D01*
X40294435Y-85300003D01*
X40314630Y-85479249D01*
X40314631Y-85479254D01*
X40374211Y-85649523D01*
X40443169Y-85759268D01*
X40470184Y-85802262D01*
X40597738Y-85929816D01*
X40661983Y-85970184D01*
X40732721Y-86014632D01*
X40750478Y-86025789D01*
X40888860Y-86074211D01*
X40920745Y-86085368D01*
X40920750Y-86085369D01*
X41099996Y-86105565D01*
X41100000Y-86105565D01*
X41100004Y-86105565D01*
X41279249Y-86085369D01*
X41279252Y-86085368D01*
X41279255Y-86085368D01*
X41449522Y-86025789D01*
X41602262Y-85929816D01*
X41729816Y-85802262D01*
X41795007Y-85698510D01*
X41847341Y-85652221D01*
X41916394Y-85641573D01*
X41980243Y-85669948D01*
X42004992Y-85698509D01*
X42070184Y-85802262D01*
X42197738Y-85929816D01*
X42261983Y-85970184D01*
X42332721Y-86014632D01*
X42350478Y-86025789D01*
X42488860Y-86074211D01*
X42520745Y-86085368D01*
X42520750Y-86085369D01*
X42699996Y-86105565D01*
X42700000Y-86105565D01*
X42700004Y-86105565D01*
X42879249Y-86085369D01*
X42879252Y-86085368D01*
X42879255Y-86085368D01*
X43049522Y-86025789D01*
X43202262Y-85929816D01*
X43312319Y-85819759D01*
X43373642Y-85786274D01*
X43443334Y-85791258D01*
X43487681Y-85819759D01*
X43597738Y-85929816D01*
X43661983Y-85970184D01*
X43732721Y-86014632D01*
X43750478Y-86025789D01*
X43888860Y-86074211D01*
X43920745Y-86085368D01*
X43920750Y-86085369D01*
X44099996Y-86105565D01*
X44100000Y-86105565D01*
X44100004Y-86105565D01*
X44279249Y-86085369D01*
X44279252Y-86085368D01*
X44279255Y-86085368D01*
X44449522Y-86025789D01*
X44602262Y-85929816D01*
X44729816Y-85802262D01*
X44745007Y-85778084D01*
X44797339Y-85731796D01*
X44866393Y-85721146D01*
X44930242Y-85749521D01*
X44954990Y-85778082D01*
X44970184Y-85802262D01*
X45097738Y-85929816D01*
X45161983Y-85970184D01*
X45232721Y-86014632D01*
X45250478Y-86025789D01*
X45388860Y-86074211D01*
X45420745Y-86085368D01*
X45420750Y-86085369D01*
X45599996Y-86105565D01*
X45600000Y-86105565D01*
X45600004Y-86105565D01*
X45779249Y-86085369D01*
X45779252Y-86085368D01*
X45779255Y-86085368D01*
X45949522Y-86025789D01*
X46102262Y-85929816D01*
X46229816Y-85802262D01*
X46295007Y-85698510D01*
X46347341Y-85652221D01*
X46416394Y-85641573D01*
X46480243Y-85669948D01*
X46504992Y-85698509D01*
X46570184Y-85802262D01*
X46697738Y-85929816D01*
X46761983Y-85970184D01*
X46832721Y-86014632D01*
X46850478Y-86025789D01*
X46988860Y-86074211D01*
X47020745Y-86085368D01*
X47020750Y-86085369D01*
X47199996Y-86105565D01*
X47200000Y-86105565D01*
X47200004Y-86105565D01*
X47379249Y-86085369D01*
X47379252Y-86085368D01*
X47379255Y-86085368D01*
X47549522Y-86025789D01*
X47702262Y-85929816D01*
X47829816Y-85802262D01*
X47845007Y-85778084D01*
X47897339Y-85731796D01*
X47966393Y-85721146D01*
X48030242Y-85749521D01*
X48054990Y-85778082D01*
X48070184Y-85802262D01*
X48197738Y-85929816D01*
X48261983Y-85970184D01*
X48332721Y-86014632D01*
X48350478Y-86025789D01*
X48488860Y-86074211D01*
X48520745Y-86085368D01*
X48520750Y-86085369D01*
X48699996Y-86105565D01*
X48700000Y-86105565D01*
X48700004Y-86105565D01*
X48879249Y-86085369D01*
X48879252Y-86085368D01*
X48879255Y-86085368D01*
X49049522Y-86025789D01*
X49202262Y-85929816D01*
X49329816Y-85802262D01*
X49425789Y-85649522D01*
X49485368Y-85479255D01*
X49485369Y-85479249D01*
X49505565Y-85300003D01*
X49505565Y-85299996D01*
X53794435Y-85299996D01*
X53794435Y-85300003D01*
X53814630Y-85479249D01*
X53814631Y-85479254D01*
X53874211Y-85649523D01*
X53943169Y-85759268D01*
X53970184Y-85802262D01*
X54097738Y-85929816D01*
X54161983Y-85970184D01*
X54232721Y-86014632D01*
X54250478Y-86025789D01*
X54388860Y-86074211D01*
X54420745Y-86085368D01*
X54420750Y-86085369D01*
X54599996Y-86105565D01*
X54600000Y-86105565D01*
X54600004Y-86105565D01*
X54779249Y-86085369D01*
X54779252Y-86085368D01*
X54779255Y-86085368D01*
X54949522Y-86025789D01*
X55102262Y-85929816D01*
X55229816Y-85802262D01*
X55325789Y-85649522D01*
X55385368Y-85479255D01*
X55385369Y-85479249D01*
X55405565Y-85300003D01*
X55405565Y-85299996D01*
X75794435Y-85299996D01*
X75794435Y-85300003D01*
X75814630Y-85479249D01*
X75814631Y-85479254D01*
X75874211Y-85649523D01*
X75943169Y-85759268D01*
X75970184Y-85802262D01*
X76097738Y-85929816D01*
X76161983Y-85970184D01*
X76232721Y-86014632D01*
X76250478Y-86025789D01*
X76388860Y-86074211D01*
X76420745Y-86085368D01*
X76420750Y-86085369D01*
X76599996Y-86105565D01*
X76600000Y-86105565D01*
X76600004Y-86105565D01*
X76779249Y-86085369D01*
X76779252Y-86085368D01*
X76779255Y-86085368D01*
X76949522Y-86025789D01*
X77102262Y-85929816D01*
X77229816Y-85802262D01*
X77325789Y-85649522D01*
X77385368Y-85479255D01*
X77385369Y-85479249D01*
X77405565Y-85300003D01*
X77405565Y-85299996D01*
X77385369Y-85120750D01*
X77385368Y-85120745D01*
X77341170Y-84994435D01*
X77325789Y-84950478D01*
X77324092Y-84947778D01*
X77231237Y-84800000D01*
X77229816Y-84797738D01*
X77102262Y-84670184D01*
X76949523Y-84574211D01*
X76779254Y-84514631D01*
X76779249Y-84514630D01*
X76600004Y-84494435D01*
X76599996Y-84494435D01*
X76420750Y-84514630D01*
X76420745Y-84514631D01*
X76250476Y-84574211D01*
X76097737Y-84670184D01*
X75970184Y-84797737D01*
X75874211Y-84950476D01*
X75814631Y-85120745D01*
X75814630Y-85120750D01*
X75794435Y-85299996D01*
X55405565Y-85299996D01*
X55385369Y-85120750D01*
X55385368Y-85120745D01*
X55341170Y-84994435D01*
X55325789Y-84950478D01*
X55324092Y-84947778D01*
X55231237Y-84800000D01*
X55229816Y-84797738D01*
X55102262Y-84670184D01*
X54949523Y-84574211D01*
X54779254Y-84514631D01*
X54779249Y-84514630D01*
X54600004Y-84494435D01*
X54599996Y-84494435D01*
X54420750Y-84514630D01*
X54420745Y-84514631D01*
X54250476Y-84574211D01*
X54097737Y-84670184D01*
X53970184Y-84797737D01*
X53874211Y-84950476D01*
X53814631Y-85120745D01*
X53814630Y-85120750D01*
X53794435Y-85299996D01*
X49505565Y-85299996D01*
X49485369Y-85120750D01*
X49485368Y-85120745D01*
X49441170Y-84994435D01*
X49425789Y-84950478D01*
X49424092Y-84947778D01*
X49331237Y-84800000D01*
X49329816Y-84797738D01*
X49202262Y-84670184D01*
X49049523Y-84574211D01*
X48879254Y-84514631D01*
X48879249Y-84514630D01*
X48700004Y-84494435D01*
X48699996Y-84494435D01*
X48520750Y-84514630D01*
X48520745Y-84514631D01*
X48350476Y-84574211D01*
X48197737Y-84670184D01*
X48070184Y-84797737D01*
X48054994Y-84821913D01*
X48002659Y-84868204D01*
X47933605Y-84878852D01*
X47869757Y-84850477D01*
X47845006Y-84821913D01*
X47831237Y-84800000D01*
X47829816Y-84797738D01*
X47702262Y-84670184D01*
X47549523Y-84574211D01*
X47379254Y-84514631D01*
X47379249Y-84514630D01*
X47200004Y-84494435D01*
X47199996Y-84494435D01*
X47020750Y-84514630D01*
X47020745Y-84514631D01*
X46850476Y-84574211D01*
X46697737Y-84670184D01*
X46570184Y-84797737D01*
X46504994Y-84901487D01*
X46452659Y-84947778D01*
X46383605Y-84958426D01*
X46319757Y-84930051D01*
X46295006Y-84901487D01*
X46231237Y-84800000D01*
X46229816Y-84797738D01*
X46102262Y-84670184D01*
X45949523Y-84574211D01*
X45779254Y-84514631D01*
X45779249Y-84514630D01*
X45600004Y-84494435D01*
X45599996Y-84494435D01*
X45420750Y-84514630D01*
X45420745Y-84514631D01*
X45250476Y-84574211D01*
X45097737Y-84670184D01*
X44970184Y-84797737D01*
X44954994Y-84821913D01*
X44902659Y-84868204D01*
X44833605Y-84878852D01*
X44769757Y-84850477D01*
X44745006Y-84821913D01*
X44731237Y-84800000D01*
X44729816Y-84797738D01*
X44602262Y-84670184D01*
X44449523Y-84574211D01*
X44279254Y-84514631D01*
X44279249Y-84514630D01*
X44100004Y-84494435D01*
X44099996Y-84494435D01*
X43920750Y-84514630D01*
X43920745Y-84514631D01*
X43750476Y-84574211D01*
X43597737Y-84670184D01*
X43487681Y-84780241D01*
X43426358Y-84813726D01*
X43356666Y-84808742D01*
X43312319Y-84780241D01*
X43202262Y-84670184D01*
X43049523Y-84574211D01*
X42879254Y-84514631D01*
X42879249Y-84514630D01*
X42700004Y-84494435D01*
X42699996Y-84494435D01*
X42520750Y-84514630D01*
X42520745Y-84514631D01*
X42350476Y-84574211D01*
X42197737Y-84670184D01*
X42070184Y-84797737D01*
X42004994Y-84901487D01*
X41952659Y-84947778D01*
X41883605Y-84958426D01*
X41819757Y-84930051D01*
X41795006Y-84901487D01*
X41731237Y-84800000D01*
X41729816Y-84797738D01*
X41602262Y-84670184D01*
X41449523Y-84574211D01*
X41279254Y-84514631D01*
X41279249Y-84514630D01*
X41100004Y-84494435D01*
X41099996Y-84494435D01*
X40920750Y-84514630D01*
X40920745Y-84514631D01*
X40750476Y-84574211D01*
X40597737Y-84670184D01*
X40470184Y-84797737D01*
X40374211Y-84950476D01*
X40314631Y-85120745D01*
X40314630Y-85120750D01*
X40294435Y-85299996D01*
X38331235Y-85299996D01*
X38329816Y-85297738D01*
X38202262Y-85170184D01*
X38169379Y-85149522D01*
X38049523Y-85074211D01*
X37879254Y-85014631D01*
X37879249Y-85014630D01*
X37700004Y-84994435D01*
X37699996Y-84994435D01*
X37520750Y-85014630D01*
X37520745Y-85014631D01*
X37350476Y-85074211D01*
X37197737Y-85170184D01*
X37070184Y-85297737D01*
X36974211Y-85450476D01*
X36914631Y-85620745D01*
X36914630Y-85620750D01*
X36894435Y-85799996D01*
X30885260Y-85799996D01*
X28785260Y-83699996D01*
X31294435Y-83699996D01*
X31294435Y-83700003D01*
X31314630Y-83879249D01*
X31314631Y-83879254D01*
X31374211Y-84049523D01*
X31385039Y-84066755D01*
X31470184Y-84202262D01*
X31597738Y-84329816D01*
X31750478Y-84425789D01*
X31920745Y-84485368D01*
X31920750Y-84485369D01*
X32099996Y-84505565D01*
X32100000Y-84505565D01*
X32100004Y-84505565D01*
X32279249Y-84485369D01*
X32279252Y-84485368D01*
X32279255Y-84485368D01*
X32449522Y-84425789D01*
X32602262Y-84329816D01*
X32729816Y-84202262D01*
X32825789Y-84049522D01*
X32885368Y-83879255D01*
X32885369Y-83879249D01*
X32905565Y-83700003D01*
X32905565Y-83699996D01*
X32885369Y-83520750D01*
X32885368Y-83520745D01*
X32854437Y-83432349D01*
X32825789Y-83350478D01*
X32729816Y-83197738D01*
X32602262Y-83070184D01*
X32538017Y-83029816D01*
X32449523Y-82974211D01*
X32279254Y-82914631D01*
X32279249Y-82914630D01*
X32100004Y-82894435D01*
X32099996Y-82894435D01*
X31920750Y-82914630D01*
X31920745Y-82914631D01*
X31750476Y-82974211D01*
X31597737Y-83070184D01*
X31470184Y-83197737D01*
X31374211Y-83350476D01*
X31314631Y-83520745D01*
X31314630Y-83520750D01*
X31294435Y-83699996D01*
X28785260Y-83699996D01*
X28762542Y-83677278D01*
X28733181Y-83630551D01*
X28724438Y-83605565D01*
X28700789Y-83537978D01*
X28687555Y-83516917D01*
X28668554Y-83449683D01*
X28675505Y-83409995D01*
X28734633Y-83241020D01*
X28739510Y-83197737D01*
X28754830Y-83061768D01*
X28754830Y-83061761D01*
X28734634Y-82882515D01*
X28734631Y-82882502D01*
X28675056Y-82712247D01*
X28675054Y-82712244D01*
X28675054Y-82712243D01*
X28674324Y-82711081D01*
X28674081Y-82710222D01*
X28672034Y-82705971D01*
X28672778Y-82705612D01*
X28655324Y-82643847D01*
X28674323Y-82579141D01*
X28700789Y-82537022D01*
X28748736Y-82399996D01*
X36894435Y-82399996D01*
X36894435Y-82400003D01*
X36914630Y-82579249D01*
X36914631Y-82579254D01*
X36974211Y-82749523D01*
X37005926Y-82799996D01*
X37070184Y-82902262D01*
X37197738Y-83029816D01*
X37350478Y-83125789D01*
X37418306Y-83149523D01*
X37520745Y-83185368D01*
X37520750Y-83185369D01*
X37699996Y-83205565D01*
X37700000Y-83205565D01*
X37700004Y-83205565D01*
X37879249Y-83185369D01*
X37879252Y-83185368D01*
X37879255Y-83185368D01*
X38049522Y-83125789D01*
X38202262Y-83029816D01*
X38329816Y-82902262D01*
X38425789Y-82749522D01*
X38485368Y-82579255D01*
X38485369Y-82579249D01*
X38505565Y-82400003D01*
X38505565Y-82399996D01*
X38485369Y-82220750D01*
X38485368Y-82220745D01*
X38425789Y-82050478D01*
X38425188Y-82049522D01*
X38364747Y-81953330D01*
X38329816Y-81897738D01*
X38202262Y-81770184D01*
X38090570Y-81700003D01*
X38049523Y-81674211D01*
X37879254Y-81614631D01*
X37879249Y-81614630D01*
X37700004Y-81594435D01*
X37699996Y-81594435D01*
X37520750Y-81614630D01*
X37520745Y-81614631D01*
X37350476Y-81674211D01*
X37197737Y-81770184D01*
X37070184Y-81897737D01*
X36974211Y-82050476D01*
X36914631Y-82220745D01*
X36914630Y-82220750D01*
X36894435Y-82399996D01*
X28748736Y-82399996D01*
X28760368Y-82366755D01*
X28764846Y-82327010D01*
X28780565Y-82187503D01*
X28780565Y-82187496D01*
X28760369Y-82008250D01*
X28760368Y-82008245D01*
X28721700Y-81897738D01*
X28700789Y-81837978D01*
X28604816Y-81685238D01*
X28477262Y-81557684D01*
X28418474Y-81520745D01*
X28324523Y-81461711D01*
X28154254Y-81402131D01*
X28154249Y-81402130D01*
X27975004Y-81381935D01*
X27974996Y-81381935D01*
X27795750Y-81402130D01*
X27795745Y-81402131D01*
X27625474Y-81461712D01*
X27583171Y-81488293D01*
X27515935Y-81507293D01*
X27449100Y-81486925D01*
X27403886Y-81433657D01*
X27393980Y-81397181D01*
X27385369Y-81320750D01*
X27385368Y-81320745D01*
X27372989Y-81285368D01*
X27325789Y-81150478D01*
X27325784Y-81150471D01*
X27325661Y-81150213D01*
X27325629Y-81150022D01*
X27323489Y-81143905D01*
X27324560Y-81143530D01*
X27314303Y-81081272D01*
X27342021Y-81017135D01*
X27396421Y-80979361D01*
X27549522Y-80925789D01*
X27702262Y-80829816D01*
X27829816Y-80702262D01*
X27925789Y-80549522D01*
X27985368Y-80379255D01*
X27991960Y-80320750D01*
X28005565Y-80200003D01*
X28005565Y-80199996D01*
X27985369Y-80020750D01*
X27985368Y-80020745D01*
X27925789Y-79850478D01*
X27829816Y-79697738D01*
X27702262Y-79570184D01*
X27698933Y-79566855D01*
X27665448Y-79505532D01*
X27670432Y-79435840D01*
X27712304Y-79379907D01*
X27745660Y-79362132D01*
X27771254Y-79353176D01*
X27849522Y-79325789D01*
X28002262Y-79229816D01*
X28129816Y-79102262D01*
X28225789Y-78949522D01*
X28285368Y-78779255D01*
X28285369Y-78779249D01*
X28305565Y-78600003D01*
X28305565Y-78599996D01*
X28285369Y-78420750D01*
X28285368Y-78420745D01*
X28225789Y-78250478D01*
X28225188Y-78249522D01*
X28131237Y-78100000D01*
X28129816Y-78097738D01*
X28002262Y-77970184D01*
X27890559Y-77899996D01*
X46294435Y-77899996D01*
X46294435Y-77900003D01*
X46314630Y-78079249D01*
X46314631Y-78079254D01*
X46374211Y-78249523D01*
X46468760Y-78399996D01*
X46470184Y-78402262D01*
X46597738Y-78529816D01*
X46750478Y-78625789D01*
X46914218Y-78683084D01*
X46920745Y-78685368D01*
X46920750Y-78685369D01*
X47099996Y-78705565D01*
X47100000Y-78705565D01*
X47100004Y-78705565D01*
X47279249Y-78685369D01*
X47279252Y-78685368D01*
X47279255Y-78685368D01*
X47449522Y-78625789D01*
X47602262Y-78529816D01*
X47729816Y-78402262D01*
X47825789Y-78249522D01*
X47878110Y-78099996D01*
X65094435Y-78099996D01*
X65094435Y-78100003D01*
X65114630Y-78279249D01*
X65114631Y-78279254D01*
X65174211Y-78449523D01*
X65224662Y-78529815D01*
X65270184Y-78602262D01*
X65397738Y-78729816D01*
X65550478Y-78825789D01*
X65720745Y-78885368D01*
X65720750Y-78885369D01*
X65899996Y-78905565D01*
X65900000Y-78905565D01*
X65900004Y-78905565D01*
X66079249Y-78885369D01*
X66079252Y-78885368D01*
X66079255Y-78885368D01*
X66249522Y-78825789D01*
X66402262Y-78729816D01*
X66529816Y-78602262D01*
X66625789Y-78449522D01*
X66685368Y-78279255D01*
X66687126Y-78263655D01*
X66705565Y-78100003D01*
X66705565Y-78099996D01*
X66685369Y-77920750D01*
X66685368Y-77920745D01*
X66678108Y-77899996D01*
X66625789Y-77750478D01*
X66607106Y-77720745D01*
X66540431Y-77614632D01*
X66529816Y-77597738D01*
X66402262Y-77470184D01*
X66299422Y-77405565D01*
X66249523Y-77374211D01*
X66079254Y-77314631D01*
X66079249Y-77314630D01*
X65900004Y-77294435D01*
X65899996Y-77294435D01*
X65720750Y-77314630D01*
X65720745Y-77314631D01*
X65550476Y-77374211D01*
X65397737Y-77470184D01*
X65270184Y-77597737D01*
X65174211Y-77750476D01*
X65114631Y-77920745D01*
X65114630Y-77920750D01*
X65094435Y-78099996D01*
X47878110Y-78099996D01*
X47885368Y-78079255D01*
X47885369Y-78079249D01*
X47905565Y-77900003D01*
X47905565Y-77899996D01*
X47885369Y-77720750D01*
X47885368Y-77720745D01*
X47842326Y-77597738D01*
X47825789Y-77550478D01*
X47729816Y-77397738D01*
X47602262Y-77270184D01*
X47538017Y-77229816D01*
X47449523Y-77174211D01*
X47279254Y-77114631D01*
X47279249Y-77114630D01*
X47100004Y-77094435D01*
X47099996Y-77094435D01*
X46920750Y-77114630D01*
X46920745Y-77114631D01*
X46750476Y-77174211D01*
X46597737Y-77270184D01*
X46470184Y-77397737D01*
X46374211Y-77550476D01*
X46314631Y-77720745D01*
X46314630Y-77720750D01*
X46294435Y-77899996D01*
X27890559Y-77899996D01*
X27849523Y-77874211D01*
X27679254Y-77814631D01*
X27679249Y-77814630D01*
X27500004Y-77794435D01*
X27499996Y-77794435D01*
X27320750Y-77814630D01*
X27320745Y-77814631D01*
X27150476Y-77874211D01*
X26997737Y-77970184D01*
X26870184Y-78097737D01*
X26774211Y-78250476D01*
X26714631Y-78420745D01*
X26714630Y-78420750D01*
X26694435Y-78599996D01*
X26694435Y-78600003D01*
X26714630Y-78779249D01*
X26714631Y-78779254D01*
X26774211Y-78949523D01*
X26870184Y-79102262D01*
X27001066Y-79233144D01*
X27034551Y-79294467D01*
X27029567Y-79364159D01*
X26987695Y-79420092D01*
X26954341Y-79437866D01*
X26850479Y-79474209D01*
X26697737Y-79570184D01*
X26570184Y-79697737D01*
X26474211Y-79850476D01*
X26414631Y-80020745D01*
X26414630Y-80020750D01*
X26394435Y-80199996D01*
X26394435Y-80200003D01*
X26414630Y-80379249D01*
X26414631Y-80379254D01*
X26474214Y-80549532D01*
X26474344Y-80549801D01*
X26474375Y-80549991D01*
X26476511Y-80556095D01*
X26475441Y-80556469D01*
X26485694Y-80618743D01*
X26457968Y-80682876D01*
X26403576Y-80720639D01*
X26367608Y-80733225D01*
X26250478Y-80774210D01*
X26097737Y-80870184D01*
X25970184Y-80997737D01*
X25874211Y-81150476D01*
X25814631Y-81320745D01*
X25814630Y-81320750D01*
X25794435Y-81499996D01*
X20978108Y-81499996D01*
X20925789Y-81350478D01*
X20907106Y-81320745D01*
X20862331Y-81249485D01*
X20829816Y-81197738D01*
X20702262Y-81070184D01*
X20549523Y-80974211D01*
X20379254Y-80914631D01*
X20379249Y-80914630D01*
X20200004Y-80894435D01*
X20199996Y-80894435D01*
X20020750Y-80914630D01*
X20020745Y-80914631D01*
X19850476Y-80974211D01*
X19697737Y-81070184D01*
X19570184Y-81197737D01*
X19474211Y-81350476D01*
X19414631Y-81520745D01*
X19414630Y-81520750D01*
X19394435Y-81699996D01*
X13700500Y-81699996D01*
X13700500Y-79799996D01*
X20394435Y-79799996D01*
X20394435Y-79800003D01*
X20414630Y-79979249D01*
X20414631Y-79979254D01*
X20474211Y-80149523D01*
X20505926Y-80199996D01*
X20570184Y-80302262D01*
X20697738Y-80429816D01*
X20850478Y-80525789D01*
X21020745Y-80585368D01*
X21020750Y-80585369D01*
X21199996Y-80605565D01*
X21200000Y-80605565D01*
X21200004Y-80605565D01*
X21379249Y-80585369D01*
X21379252Y-80585368D01*
X21379255Y-80585368D01*
X21549522Y-80525789D01*
X21590571Y-80499996D01*
X23369435Y-80499996D01*
X23369435Y-80500003D01*
X23389630Y-80679249D01*
X23389631Y-80679254D01*
X23449211Y-80849523D01*
X23527558Y-80974211D01*
X23545184Y-81002262D01*
X23672738Y-81129816D01*
X23705625Y-81150480D01*
X23780833Y-81197737D01*
X23825478Y-81225789D01*
X23995745Y-81285368D01*
X23995750Y-81285369D01*
X24174996Y-81305565D01*
X24175000Y-81305565D01*
X24175004Y-81305565D01*
X24354249Y-81285369D01*
X24354252Y-81285368D01*
X24354255Y-81285368D01*
X24524522Y-81225789D01*
X24677262Y-81129816D01*
X24804816Y-81002262D01*
X24900789Y-80849522D01*
X24960368Y-80679255D01*
X24968671Y-80605565D01*
X24980565Y-80500003D01*
X24980565Y-80499996D01*
X24960369Y-80320750D01*
X24960368Y-80320745D01*
X24900789Y-80150478D01*
X24900188Y-80149522D01*
X24804815Y-79997737D01*
X24677262Y-79870184D01*
X24524523Y-79774211D01*
X24354254Y-79714631D01*
X24354249Y-79714630D01*
X24175004Y-79694435D01*
X24174996Y-79694435D01*
X23995750Y-79714630D01*
X23995745Y-79714631D01*
X23825476Y-79774211D01*
X23672737Y-79870184D01*
X23545184Y-79997737D01*
X23449211Y-80150476D01*
X23389631Y-80320745D01*
X23389630Y-80320750D01*
X23369435Y-80499996D01*
X21590571Y-80499996D01*
X21702262Y-80429816D01*
X21829816Y-80302262D01*
X21925789Y-80149522D01*
X21985368Y-79979255D01*
X21985369Y-79979249D01*
X22005565Y-79800003D01*
X22005565Y-79799996D01*
X21985369Y-79620750D01*
X21985366Y-79620737D01*
X21963353Y-79557828D01*
X21959791Y-79488049D01*
X21994519Y-79427422D01*
X22056512Y-79395194D01*
X22094277Y-79393653D01*
X22101218Y-79394435D01*
X22199997Y-79405565D01*
X22200000Y-79405565D01*
X22200004Y-79405565D01*
X22379249Y-79385369D01*
X22379252Y-79385368D01*
X22379255Y-79385368D01*
X22549522Y-79325789D01*
X22702262Y-79229816D01*
X22829816Y-79102262D01*
X22925789Y-78949522D01*
X22985368Y-78779255D01*
X22985369Y-78779249D01*
X23005565Y-78600003D01*
X23005565Y-78599996D01*
X22985369Y-78420750D01*
X22985368Y-78420745D01*
X22925789Y-78250478D01*
X22925188Y-78249522D01*
X22831237Y-78100000D01*
X22829816Y-78097738D01*
X22702262Y-77970184D01*
X22549523Y-77874211D01*
X22379254Y-77814631D01*
X22379249Y-77814630D01*
X22200004Y-77794435D01*
X22199996Y-77794435D01*
X22020750Y-77814630D01*
X22020745Y-77814631D01*
X21850476Y-77874211D01*
X21697737Y-77970184D01*
X21570184Y-78097737D01*
X21474211Y-78250476D01*
X21414631Y-78420745D01*
X21414630Y-78420750D01*
X21394435Y-78599996D01*
X21394435Y-78600003D01*
X21414630Y-78779249D01*
X21414632Y-78779257D01*
X21436647Y-78842172D01*
X21440208Y-78911951D01*
X21405479Y-78972578D01*
X21343486Y-79004805D01*
X21305722Y-79006346D01*
X21200004Y-78994435D01*
X21199996Y-78994435D01*
X21020750Y-79014630D01*
X21020745Y-79014631D01*
X20850476Y-79074211D01*
X20697737Y-79170184D01*
X20570184Y-79297737D01*
X20474211Y-79450476D01*
X20414631Y-79620745D01*
X20414630Y-79620750D01*
X20394435Y-79799996D01*
X13700500Y-79799996D01*
X13700500Y-76599996D01*
X36894435Y-76599996D01*
X36894435Y-76600003D01*
X36914630Y-76779249D01*
X36914631Y-76779254D01*
X36974211Y-76949523D01*
X37065266Y-77094435D01*
X37070184Y-77102262D01*
X37197738Y-77229816D01*
X37261983Y-77270184D01*
X37332721Y-77314632D01*
X37350478Y-77325789D01*
X37488860Y-77374211D01*
X37520745Y-77385368D01*
X37520750Y-77385369D01*
X37699996Y-77405565D01*
X37700000Y-77405565D01*
X37700004Y-77405565D01*
X37879249Y-77385369D01*
X37879252Y-77385368D01*
X37879255Y-77385368D01*
X38049522Y-77325789D01*
X38202262Y-77229816D01*
X38329816Y-77102262D01*
X38425789Y-76949522D01*
X38485368Y-76779255D01*
X38487368Y-76761505D01*
X38505565Y-76600003D01*
X38505565Y-76599996D01*
X38485369Y-76420750D01*
X38485368Y-76420745D01*
X38425788Y-76250476D01*
X38329815Y-76097737D01*
X38202262Y-75970184D01*
X38049523Y-75874211D01*
X37879254Y-75814631D01*
X37879249Y-75814630D01*
X37700004Y-75794435D01*
X37699996Y-75794435D01*
X37520750Y-75814630D01*
X37520745Y-75814631D01*
X37350476Y-75874211D01*
X37197737Y-75970184D01*
X37070184Y-76097737D01*
X36974211Y-76250476D01*
X36914631Y-76420745D01*
X36914630Y-76420750D01*
X36894435Y-76599996D01*
X13700500Y-76599996D01*
X13700500Y-73599996D01*
X56294435Y-73599996D01*
X56294435Y-73600003D01*
X56314630Y-73779249D01*
X56314631Y-73779254D01*
X56374211Y-73949523D01*
X56470184Y-74102262D01*
X56597738Y-74229816D01*
X56750478Y-74325789D01*
X56920745Y-74385368D01*
X56920750Y-74385369D01*
X57099996Y-74405565D01*
X57100000Y-74405565D01*
X57100004Y-74405565D01*
X57279249Y-74385369D01*
X57279252Y-74385368D01*
X57279255Y-74385368D01*
X57449522Y-74325789D01*
X57602262Y-74229816D01*
X57729816Y-74102262D01*
X57825789Y-73949522D01*
X57885368Y-73779255D01*
X57885369Y-73779249D01*
X57905565Y-73600003D01*
X57905565Y-73599996D01*
X57885369Y-73420750D01*
X57885368Y-73420745D01*
X57825789Y-73250478D01*
X57729816Y-73097738D01*
X57602262Y-72970184D01*
X57498007Y-72904676D01*
X57449523Y-72874211D01*
X57279254Y-72814631D01*
X57279249Y-72814630D01*
X57100004Y-72794435D01*
X57099996Y-72794435D01*
X56920750Y-72814630D01*
X56920745Y-72814631D01*
X56750476Y-72874211D01*
X56597737Y-72970184D01*
X56470184Y-73097737D01*
X56374211Y-73250476D01*
X56314631Y-73420745D01*
X56314630Y-73420750D01*
X56294435Y-73599996D01*
X13700500Y-73599996D01*
X13700500Y-72699996D01*
X76994435Y-72699996D01*
X76994435Y-72700003D01*
X77014630Y-72879249D01*
X77014631Y-72879254D01*
X77074211Y-73049523D01*
X77104507Y-73097738D01*
X77170184Y-73202262D01*
X77297738Y-73329816D01*
X77388080Y-73386582D01*
X77442450Y-73420745D01*
X77450478Y-73425789D01*
X77620745Y-73485368D01*
X77620750Y-73485369D01*
X77799996Y-73505565D01*
X77800000Y-73505565D01*
X77800004Y-73505565D01*
X77979249Y-73485369D01*
X77979252Y-73485368D01*
X77979255Y-73485368D01*
X78149522Y-73425789D01*
X78302262Y-73329816D01*
X78429816Y-73202262D01*
X78525789Y-73049522D01*
X78585368Y-72879255D01*
X78585369Y-72879249D01*
X78605565Y-72700003D01*
X78605565Y-72699996D01*
X78585369Y-72520750D01*
X78585368Y-72520745D01*
X78565241Y-72463226D01*
X78525789Y-72350478D01*
X78429816Y-72197738D01*
X78302262Y-72070184D01*
X78149523Y-71974211D01*
X77979254Y-71914631D01*
X77979249Y-71914630D01*
X77800004Y-71894435D01*
X77799996Y-71894435D01*
X77620750Y-71914630D01*
X77620745Y-71914631D01*
X77450476Y-71974211D01*
X77297737Y-72070184D01*
X77170184Y-72197737D01*
X77074211Y-72350476D01*
X77014631Y-72520745D01*
X77014630Y-72520750D01*
X76994435Y-72699996D01*
X13700500Y-72699996D01*
X13700500Y-70102706D01*
X13700618Y-70097297D01*
X13705748Y-69979794D01*
X13718147Y-69695795D01*
X13719087Y-69685064D01*
X13719923Y-69678711D01*
X15649500Y-69678711D01*
X15649500Y-69921288D01*
X15681161Y-70161785D01*
X15743947Y-70396104D01*
X15829341Y-70602262D01*
X15836776Y-70620212D01*
X15958064Y-70830289D01*
X15958066Y-70830292D01*
X15958067Y-70830293D01*
X16105733Y-71022736D01*
X16105739Y-71022743D01*
X16277256Y-71194260D01*
X16277262Y-71194265D01*
X16469711Y-71341936D01*
X16679788Y-71463224D01*
X16903900Y-71556054D01*
X17138211Y-71618838D01*
X17318586Y-71642584D01*
X17378711Y-71650500D01*
X17378712Y-71650500D01*
X17621289Y-71650500D01*
X17669388Y-71644167D01*
X17861789Y-71618838D01*
X18096100Y-71556054D01*
X18320212Y-71463224D01*
X18530289Y-71341936D01*
X18722738Y-71194265D01*
X18894265Y-71022738D01*
X19041936Y-70830289D01*
X19163224Y-70620212D01*
X19256054Y-70396100D01*
X19318838Y-70161789D01*
X19326973Y-70099996D01*
X36894435Y-70099996D01*
X36894435Y-70100003D01*
X36914630Y-70279249D01*
X36914631Y-70279254D01*
X36974211Y-70449523D01*
X37062156Y-70589485D01*
X37070184Y-70602262D01*
X37197738Y-70729816D01*
X37350478Y-70825789D01*
X37363350Y-70830293D01*
X37520745Y-70885368D01*
X37520750Y-70885369D01*
X37699996Y-70905565D01*
X37700000Y-70905565D01*
X37700004Y-70905565D01*
X37879249Y-70885369D01*
X37879252Y-70885368D01*
X37879255Y-70885368D01*
X38049522Y-70825789D01*
X38202262Y-70729816D01*
X38253367Y-70678711D01*
X81649500Y-70678711D01*
X81649500Y-70921288D01*
X81681161Y-71161785D01*
X81743947Y-71396104D01*
X81771750Y-71463226D01*
X81836776Y-71620212D01*
X81958064Y-71830289D01*
X81958066Y-71830292D01*
X81958067Y-71830293D01*
X82105733Y-72022736D01*
X82105739Y-72022743D01*
X82277256Y-72194260D01*
X82277262Y-72194265D01*
X82469711Y-72341936D01*
X82679788Y-72463224D01*
X82903900Y-72556054D01*
X83138211Y-72618838D01*
X83318586Y-72642584D01*
X83378711Y-72650500D01*
X83378712Y-72650500D01*
X83621289Y-72650500D01*
X83669388Y-72644167D01*
X83861789Y-72618838D01*
X84096100Y-72556054D01*
X84320212Y-72463224D01*
X84530289Y-72341936D01*
X84722738Y-72194265D01*
X84894265Y-72022738D01*
X85041936Y-71830289D01*
X85163224Y-71620212D01*
X85256054Y-71396100D01*
X85318838Y-71161789D01*
X85350500Y-70921288D01*
X85350500Y-70678712D01*
X85318838Y-70438211D01*
X85256054Y-70203900D01*
X85163224Y-69979788D01*
X85041936Y-69769711D01*
X84894265Y-69577262D01*
X84894260Y-69577256D01*
X84722743Y-69405739D01*
X84722736Y-69405733D01*
X84530293Y-69258067D01*
X84530292Y-69258066D01*
X84530289Y-69258064D01*
X84320212Y-69136776D01*
X84320205Y-69136773D01*
X84096104Y-69043947D01*
X83861785Y-68981161D01*
X83621289Y-68949500D01*
X83621288Y-68949500D01*
X83378712Y-68949500D01*
X83378711Y-68949500D01*
X83138214Y-68981161D01*
X82903895Y-69043947D01*
X82679794Y-69136773D01*
X82679785Y-69136777D01*
X82469706Y-69258067D01*
X82277263Y-69405733D01*
X82277256Y-69405739D01*
X82105739Y-69577256D01*
X82105733Y-69577263D01*
X81958067Y-69769706D01*
X81836777Y-69979785D01*
X81836773Y-69979794D01*
X81743947Y-70203895D01*
X81681161Y-70438214D01*
X81649500Y-70678711D01*
X38253367Y-70678711D01*
X38329816Y-70602262D01*
X38425789Y-70449522D01*
X38485368Y-70279255D01*
X38485369Y-70279249D01*
X38505565Y-70100003D01*
X38505565Y-70099996D01*
X38485369Y-69920750D01*
X38485368Y-69920745D01*
X38425788Y-69750476D01*
X38329815Y-69597737D01*
X38202262Y-69470184D01*
X38049523Y-69374211D01*
X37879254Y-69314631D01*
X37879249Y-69314630D01*
X37700004Y-69294435D01*
X37699996Y-69294435D01*
X37520750Y-69314630D01*
X37520745Y-69314631D01*
X37350476Y-69374211D01*
X37197737Y-69470184D01*
X37070184Y-69597737D01*
X36974211Y-69750476D01*
X36914631Y-69920745D01*
X36914630Y-69920750D01*
X36894435Y-70099996D01*
X19326973Y-70099996D01*
X19350500Y-69921288D01*
X19350500Y-69678712D01*
X19318838Y-69438211D01*
X19256054Y-69203900D01*
X19163224Y-68979788D01*
X19041936Y-68769711D01*
X18981018Y-68690321D01*
X18894266Y-68577263D01*
X18894260Y-68577256D01*
X18722743Y-68405739D01*
X18722736Y-68405733D01*
X18530293Y-68258067D01*
X18530292Y-68258066D01*
X18530289Y-68258064D01*
X18320212Y-68136776D01*
X18277063Y-68118903D01*
X18096104Y-68043947D01*
X17861785Y-67981161D01*
X17621289Y-67949500D01*
X17621288Y-67949500D01*
X17378712Y-67949500D01*
X17378711Y-67949500D01*
X17138214Y-67981161D01*
X16903895Y-68043947D01*
X16679794Y-68136773D01*
X16679785Y-68136777D01*
X16469706Y-68258067D01*
X16277263Y-68405733D01*
X16277256Y-68405739D01*
X16105739Y-68577256D01*
X16105733Y-68577263D01*
X15958067Y-68769706D01*
X15836777Y-68979785D01*
X15836773Y-68979794D01*
X15743947Y-69203895D01*
X15681161Y-69438214D01*
X15649500Y-69678711D01*
X13719923Y-69678711D01*
X13771189Y-69289302D01*
X13773063Y-69278672D01*
X13859463Y-68888950D01*
X13862261Y-68878512D01*
X13896566Y-68769711D01*
X13982291Y-68497823D01*
X13985979Y-68487691D01*
X14138742Y-68118888D01*
X14143300Y-68109114D01*
X14327617Y-67755045D01*
X14333012Y-67745700D01*
X14547495Y-67409029D01*
X14553685Y-67400189D01*
X14796687Y-67083503D01*
X14803625Y-67075234D01*
X15073304Y-66780932D01*
X15080932Y-66773304D01*
X15375234Y-66503625D01*
X15383503Y-66496687D01*
X15700189Y-66253685D01*
X15709029Y-66247495D01*
X16045700Y-66033012D01*
X16055045Y-66027617D01*
X16409114Y-65843300D01*
X16418888Y-65838742D01*
X16787691Y-65685979D01*
X16797823Y-65682291D01*
X17178521Y-65562258D01*
X17188950Y-65559463D01*
X17578672Y-65473063D01*
X17589302Y-65471189D01*
X17985064Y-65419087D01*
X17995795Y-65418147D01*
X18397216Y-65400621D01*
X18402774Y-65400504D01*
X78942276Y-65500404D01*
G37*
%TD.AperFunction*%
%TA.AperFunction,Conductor*%
G36*
X74130745Y-102557685D02*
G01*
X74169547Y-102598379D01*
X74169594Y-102598347D01*
X74169809Y-102598654D01*
X74171096Y-102600004D01*
X74172695Y-102602774D01*
X74172699Y-102602782D01*
X74305730Y-102792769D01*
X74469731Y-102956770D01*
X74603559Y-103050478D01*
X74654183Y-103085925D01*
X74697808Y-103140502D01*
X74705000Y-103210001D01*
X74673478Y-103272355D01*
X74654183Y-103289075D01*
X74469731Y-103418230D01*
X74469729Y-103418231D01*
X74305731Y-103582229D01*
X74305726Y-103582235D01*
X74172701Y-103772214D01*
X74172699Y-103772218D01*
X74074681Y-103982417D01*
X74014651Y-104206448D01*
X74014650Y-104206455D01*
X73994437Y-104437498D01*
X73994437Y-104437501D01*
X74014650Y-104668544D01*
X74014651Y-104668551D01*
X74074678Y-104892574D01*
X74074679Y-104892576D01*
X74074680Y-104892579D01*
X74172699Y-105102782D01*
X74305730Y-105292769D01*
X74469731Y-105456770D01*
X74469733Y-105456772D01*
X74469735Y-105456773D01*
X74494231Y-105473925D01*
X74537856Y-105528502D01*
X74545050Y-105598000D01*
X74513527Y-105660355D01*
X74453298Y-105695769D01*
X74423108Y-105699500D01*
X64100097Y-105699500D01*
X64033058Y-105679815D01*
X64012416Y-105663181D01*
X62961416Y-104612181D01*
X62927931Y-104550858D01*
X62932915Y-104481166D01*
X62974787Y-104425233D01*
X63040251Y-104400816D01*
X63049097Y-104400500D01*
X70613331Y-104400500D01*
X70613347Y-104400501D01*
X70620943Y-104400501D01*
X70779054Y-104400501D01*
X70779057Y-104400501D01*
X70931785Y-104359577D01*
X71017746Y-104309947D01*
X71068716Y-104280520D01*
X71180520Y-104168716D01*
X71180520Y-104168714D01*
X71190724Y-104158511D01*
X71190727Y-104158506D01*
X72774917Y-102574319D01*
X72836240Y-102540834D01*
X72862598Y-102538000D01*
X74063706Y-102538000D01*
X74130745Y-102557685D01*
G37*
%TD.AperFunction*%
%TA.AperFunction,Conductor*%
G36*
X74065831Y-98685917D02*
G01*
X74121764Y-98727789D01*
X74146181Y-98793253D01*
X74134879Y-98854503D01*
X74075153Y-98982585D01*
X74075148Y-98982599D01*
X74015147Y-99206531D01*
X74015145Y-99206541D01*
X73994939Y-99437499D01*
X73994939Y-99437500D01*
X74015145Y-99668458D01*
X74015147Y-99668468D01*
X74075148Y-99892400D01*
X74075152Y-99892409D01*
X74173133Y-100102530D01*
X74228023Y-100180922D01*
X74801212Y-99607733D01*
X74812482Y-99649792D01*
X74884890Y-99775208D01*
X74987292Y-99877610D01*
X75112708Y-99950018D01*
X75154765Y-99961287D01*
X74581576Y-100534475D01*
X74654619Y-100585620D01*
X74698243Y-100640197D01*
X74705436Y-100709696D01*
X74673914Y-100772050D01*
X74654619Y-100788770D01*
X74469731Y-100918230D01*
X74469729Y-100918231D01*
X74305731Y-101082229D01*
X74305726Y-101082235D01*
X74172699Y-101272218D01*
X74171092Y-101275002D01*
X74170063Y-101275982D01*
X74169594Y-101276653D01*
X74169459Y-101276558D01*
X74120524Y-101323217D01*
X74063706Y-101337000D01*
X72649170Y-101337000D01*
X72649154Y-101336999D01*
X72641558Y-101336999D01*
X72483443Y-101336999D01*
X72407079Y-101357461D01*
X72330714Y-101377923D01*
X72330709Y-101377926D01*
X72193790Y-101456975D01*
X72193782Y-101456981D01*
X70487584Y-103163181D01*
X70426261Y-103196666D01*
X70399903Y-103199500D01*
X69749097Y-103199500D01*
X69682058Y-103179815D01*
X69636303Y-103127011D01*
X69626359Y-103057853D01*
X69655384Y-102994297D01*
X69661416Y-102987819D01*
X71779051Y-100870184D01*
X73934818Y-98714416D01*
X73996139Y-98680933D01*
X74065831Y-98685917D01*
G37*
%TD.AperFunction*%
%TD*%
M02*
