%TF.GenerationSoftware,KiCad,Pcbnew,8.0.5*%
%TF.CreationDate,2024-10-20T13:56:42+02:00*%
%TF.ProjectId,Flight_Controller,466c6967-6874-45f4-936f-6e74726f6c6c,rev?*%
%TF.SameCoordinates,Original*%
%TF.FileFunction,Paste,Bot*%
%TF.FilePolarity,Positive*%
%FSLAX46Y46*%
G04 Gerber Fmt 4.6, Leading zero omitted, Abs format (unit mm)*
G04 Created by KiCad (PCBNEW 8.0.5) date 2024-10-20 13:56:42*
%MOMM*%
%LPD*%
G01*
G04 APERTURE LIST*
G04 Aperture macros list*
%AMRoundRect*
0 Rectangle with rounded corners*
0 $1 Rounding radius*
0 $2 $3 $4 $5 $6 $7 $8 $9 X,Y pos of 4 corners*
0 Add a 4 corners polygon primitive as box body*
4,1,4,$2,$3,$4,$5,$6,$7,$8,$9,$2,$3,0*
0 Add four circle primitives for the rounded corners*
1,1,$1+$1,$2,$3*
1,1,$1+$1,$4,$5*
1,1,$1+$1,$6,$7*
1,1,$1+$1,$8,$9*
0 Add four rect primitives between the rounded corners*
20,1,$1+$1,$2,$3,$4,$5,0*
20,1,$1+$1,$4,$5,$6,$7,0*
20,1,$1+$1,$6,$7,$8,$9,0*
20,1,$1+$1,$8,$9,$2,$3,0*%
G04 Aperture macros list end*
%ADD10O,1.400000X3.000000*%
%ADD11O,3.000000X1.400000*%
%ADD12RoundRect,0.225000X-0.250000X0.225000X-0.250000X-0.225000X0.250000X-0.225000X0.250000X0.225000X0*%
%ADD13R,0.500000X0.925000*%
%ADD14R,0.600000X0.800000*%
%ADD15R,4.410000X3.655000*%
%ADD16R,0.700000X0.500000*%
%ADD17R,4.700000X4.500000*%
%ADD18R,0.650000X1.200000*%
%ADD19RoundRect,0.225000X0.225000X0.250000X-0.225000X0.250000X-0.225000X-0.250000X0.225000X-0.250000X0*%
%ADD20RoundRect,0.200000X0.275000X-0.200000X0.275000X0.200000X-0.275000X0.200000X-0.275000X-0.200000X0*%
%ADD21RoundRect,0.225000X-0.225000X-0.250000X0.225000X-0.250000X0.225000X0.250000X-0.225000X0.250000X0*%
%ADD22RoundRect,0.112500X-0.112500X0.187500X-0.112500X-0.187500X0.112500X-0.187500X0.112500X0.187500X0*%
%ADD23RoundRect,0.200000X-0.200000X-0.275000X0.200000X-0.275000X0.200000X0.275000X-0.200000X0.275000X0*%
%ADD24RoundRect,0.155000X0.212500X0.155000X-0.212500X0.155000X-0.212500X-0.155000X0.212500X-0.155000X0*%
%ADD25RoundRect,0.140000X-0.170000X0.140000X-0.170000X-0.140000X0.170000X-0.140000X0.170000X0.140000X0*%
%ADD26RoundRect,0.135000X0.185000X-0.135000X0.185000X0.135000X-0.185000X0.135000X-0.185000X-0.135000X0*%
%ADD27RoundRect,0.140000X-0.140000X-0.170000X0.140000X-0.170000X0.140000X0.170000X-0.140000X0.170000X0*%
%ADD28R,0.700000X1.525000*%
%ADD29RoundRect,0.225000X0.250000X-0.225000X0.250000X0.225000X-0.250000X0.225000X-0.250000X-0.225000X0*%
%ADD30R,0.600000X0.200000*%
%ADD31R,0.350000X0.990000*%
%ADD32RoundRect,0.200000X-0.275000X0.200000X-0.275000X-0.200000X0.275000X-0.200000X0.275000X0.200000X0*%
%ADD33R,0.600000X0.300000*%
%ADD34R,0.300000X0.600000*%
%ADD35RoundRect,0.200000X0.200000X0.275000X-0.200000X0.275000X-0.200000X-0.275000X0.200000X-0.275000X0*%
%ADD36RoundRect,0.140000X0.170000X-0.140000X0.170000X0.140000X-0.170000X0.140000X-0.170000X-0.140000X0*%
%ADD37RoundRect,0.135000X0.135000X0.185000X-0.135000X0.185000X-0.135000X-0.185000X0.135000X-0.185000X0*%
%ADD38R,0.600000X1.100000*%
%ADD39RoundRect,0.250000X0.255000X0.255000X-0.255000X0.255000X-0.255000X-0.255000X0.255000X-0.255000X0*%
%ADD40RoundRect,0.062500X0.350000X0.062500X-0.350000X0.062500X-0.350000X-0.062500X0.350000X-0.062500X0*%
%ADD41RoundRect,0.062500X0.062500X0.350000X-0.062500X0.350000X-0.062500X-0.350000X0.062500X-0.350000X0*%
%ADD42RoundRect,0.250000X0.350000X0.450000X-0.350000X0.450000X-0.350000X-0.450000X0.350000X-0.450000X0*%
%ADD43RoundRect,0.140000X0.140000X0.170000X-0.140000X0.170000X-0.140000X-0.170000X0.140000X-0.170000X0*%
%ADD44R,1.250000X0.600000*%
%ADD45R,0.500000X0.500000*%
%ADD46RoundRect,0.112500X-0.187500X-0.112500X0.187500X-0.112500X0.187500X0.112500X-0.187500X0.112500X0*%
%ADD47RoundRect,0.155000X0.155000X-0.212500X0.155000X0.212500X-0.155000X0.212500X-0.155000X-0.212500X0*%
%ADD48R,0.600000X1.250000*%
G04 APERTURE END LIST*
D10*
%TO.C,C24*%
X86550000Y-22957157D03*
X84550000Y-22957157D03*
X82550000Y-22957157D03*
X80550000Y-22957157D03*
%TD*%
D11*
%TO.C,C27*%
X17400000Y-43725000D03*
X17400000Y-45725000D03*
X17400000Y-47725000D03*
X17400000Y-49725000D03*
D10*
X27900000Y-60475000D03*
X29900000Y-60475000D03*
X31900000Y-60475000D03*
X33900000Y-60475000D03*
%TD*%
D11*
%TO.C,C28*%
X59944000Y-33768000D03*
X59944000Y-31768000D03*
X59944000Y-29768000D03*
X59944000Y-27768000D03*
D10*
X49444000Y-17018000D03*
X47444000Y-17018000D03*
X45444000Y-17018000D03*
X43444000Y-17018000D03*
%TD*%
D12*
%TO.C,C6*%
X82745000Y-38082157D03*
X82745000Y-39632157D03*
%TD*%
D13*
%TO.C,Q5*%
X96195000Y-26094157D03*
X97465000Y-26094157D03*
X98735000Y-26094157D03*
X100005000Y-26094157D03*
D14*
X96195000Y-31882157D03*
X97465000Y-31882157D03*
D15*
X98100000Y-29655157D03*
D14*
X98735000Y-31882157D03*
X100005000Y-31882157D03*
%TD*%
D16*
%TO.C,Q2*%
X95025000Y-57507157D03*
X96355000Y-57507157D03*
D17*
X97020000Y-55007157D03*
D16*
X97685000Y-57507157D03*
X99015000Y-57507157D03*
D18*
X98925000Y-51507157D03*
X95115000Y-51507157D03*
X96385000Y-51507157D03*
X97655000Y-51507157D03*
%TD*%
D19*
%TO.C,C22*%
X85100000Y-28182157D03*
X83550000Y-28182157D03*
%TD*%
D12*
%TO.C,C18*%
X81450000Y-31402157D03*
X81450000Y-32952157D03*
%TD*%
D20*
%TO.C,R25*%
X76350000Y-23182157D03*
X76350000Y-21532157D03*
%TD*%
D21*
%TO.C,C3*%
X43798000Y-30000000D03*
X45348000Y-30000000D03*
%TD*%
D12*
%TO.C,C22*%
X48700000Y-86625000D03*
X48700000Y-88175000D03*
%TD*%
%TO.C,C28*%
X54700000Y-86600000D03*
X54700000Y-88150000D03*
%TD*%
D22*
%TO.C,D4*%
X81300000Y-79400000D03*
X81300000Y-81500000D03*
%TD*%
D23*
%TO.C,R3*%
X29450000Y-83687500D03*
X31100000Y-83687500D03*
%TD*%
%TO.C,R5*%
X103625000Y-31457157D03*
X105275000Y-31457157D03*
%TD*%
D24*
%TO.C,C2*%
X51223500Y-27686000D03*
X50088500Y-27686000D03*
%TD*%
D25*
%TO.C,C18*%
X16300000Y-82940000D03*
X16300000Y-83900000D03*
%TD*%
D12*
%TO.C,C27*%
X41200000Y-86600000D03*
X41200000Y-88150000D03*
%TD*%
D26*
%TO.C,L2*%
X20275000Y-84997500D03*
X20275000Y-83977500D03*
%TD*%
D23*
%TO.C,R1*%
X59887000Y-45592000D03*
X61537000Y-45592000D03*
%TD*%
D27*
%TO.C,C23*%
X34600000Y-38862000D03*
X35560000Y-38862000D03*
%TD*%
D12*
%TO.C,C7*%
X82750000Y-43507157D03*
X82750000Y-45057157D03*
%TD*%
D19*
%TO.C,C3*%
X26450000Y-78587500D03*
X24900000Y-78587500D03*
%TD*%
D23*
%TO.C,R2*%
X64675000Y-100290000D03*
X66325000Y-100290000D03*
%TD*%
D20*
%TO.C,J_VUSB1*%
X93250000Y-28482157D03*
X93250000Y-26832157D03*
%TD*%
D26*
%TO.C,L1*%
X21345000Y-83977500D03*
X21345000Y-82957500D03*
%TD*%
D28*
%TO.C,IC1*%
X84645000Y-39645157D03*
X85915000Y-39645157D03*
X87185000Y-39645157D03*
X88455000Y-39645157D03*
X88455000Y-45069157D03*
X87185000Y-45069157D03*
X85915000Y-45069157D03*
X84645000Y-45069157D03*
%TD*%
D29*
%TO.C,C17*%
X49200000Y-39450000D03*
X49200000Y-37900000D03*
%TD*%
D27*
%TO.C,C18*%
X46764000Y-53594000D03*
X47724000Y-53594000D03*
%TD*%
D23*
%TO.C,R3*%
X101025000Y-49057157D03*
X102675000Y-49057157D03*
%TD*%
D30*
%TO.C,IC5*%
X47750000Y-37700000D03*
X47750000Y-38100000D03*
X47750000Y-38500000D03*
X46450000Y-38500000D03*
X46450000Y-38100000D03*
X46450000Y-37700000D03*
D31*
X47100000Y-38100000D03*
%TD*%
D32*
%TO.C,R8*%
X83250000Y-33182157D03*
X83250000Y-34832157D03*
%TD*%
D29*
%TO.C,C5*%
X74760000Y-30632157D03*
X74760000Y-29082157D03*
%TD*%
D21*
%TO.C,C12*%
X48975000Y-50340000D03*
X50525000Y-50340000D03*
%TD*%
D13*
%TO.C,Q1*%
X101250000Y-51669157D03*
X102520000Y-51669157D03*
X103790000Y-51669157D03*
X105060000Y-51669157D03*
D14*
X101250000Y-57457157D03*
X102520000Y-57457157D03*
D15*
X103155000Y-55230157D03*
D14*
X103790000Y-57457157D03*
X105060000Y-57457157D03*
%TD*%
D33*
%TO.C,IC2*%
X39758000Y-37350000D03*
X39758000Y-37850000D03*
X39758000Y-38350000D03*
X39758000Y-38850000D03*
D34*
X39108000Y-39000000D03*
X38608000Y-39000000D03*
X38108000Y-39000000D03*
D33*
X37458000Y-38850000D03*
X37458000Y-38350000D03*
X37458000Y-37850000D03*
X37458000Y-37350000D03*
D34*
X38108000Y-37200000D03*
X38608000Y-37200000D03*
X39108000Y-37200000D03*
%TD*%
D35*
%TO.C,J_Fsync1*%
X37147000Y-41010000D03*
X35497000Y-41010000D03*
%TD*%
D36*
%TO.C,C13*%
X22000000Y-90980000D03*
X22000000Y-90020000D03*
%TD*%
D37*
%TO.C,L3*%
X20275000Y-82987500D03*
X19255000Y-82987500D03*
%TD*%
D12*
%TO.C,C25*%
X44200000Y-86625000D03*
X44200000Y-88175000D03*
%TD*%
%TO.C,C15*%
X69350000Y-43582157D03*
X69350000Y-45132157D03*
%TD*%
D20*
%TO.C,R9*%
X23175000Y-80212500D03*
X23175000Y-78562500D03*
%TD*%
D23*
%TO.C,R18*%
X76625000Y-49257157D03*
X78275000Y-49257157D03*
%TD*%
D35*
%TO.C,R4*%
X31100000Y-82187500D03*
X29450000Y-82187500D03*
%TD*%
D12*
%TO.C,C23*%
X51600000Y-86600000D03*
X51600000Y-88150000D03*
%TD*%
D35*
%TO.C,R3*%
X28775000Y-54800000D03*
X27125000Y-54800000D03*
%TD*%
D12*
%TO.C,C3*%
X95350000Y-43482157D03*
X95350000Y-45032157D03*
%TD*%
D38*
%TO.C,Y2*%
X24775000Y-89987500D03*
X23375000Y-89987500D03*
%TD*%
D12*
%TO.C,C4*%
X95350000Y-38082157D03*
X95350000Y-39632157D03*
%TD*%
D35*
%TO.C,R23*%
X100375000Y-23807157D03*
X98725000Y-23807157D03*
%TD*%
D27*
%TO.C,C24*%
X38370000Y-40750000D03*
X39330000Y-40750000D03*
%TD*%
D16*
%TO.C,Q7*%
X82810000Y-57507157D03*
X84140000Y-57507157D03*
D17*
X84805000Y-55007157D03*
D16*
X85470000Y-57507157D03*
X86800000Y-57507157D03*
D18*
X86710000Y-51507157D03*
X82900000Y-51507157D03*
X84170000Y-51507157D03*
X85440000Y-51507157D03*
%TD*%
D13*
%TO.C,Q4*%
X76790000Y-51669157D03*
X78060000Y-51669157D03*
X79330000Y-51669157D03*
X80600000Y-51669157D03*
D14*
X76790000Y-57457157D03*
X78060000Y-57457157D03*
D15*
X78695000Y-55230157D03*
D14*
X79330000Y-57457157D03*
X80600000Y-57457157D03*
%TD*%
D39*
%TO.C,U3*%
X25400000Y-84350000D03*
X25400000Y-83100000D03*
X24150000Y-84350000D03*
X24150000Y-83100000D03*
D40*
X26712500Y-82725000D03*
X26712500Y-83225000D03*
X26712500Y-83725000D03*
X26712500Y-84225000D03*
X26712500Y-84725000D03*
D41*
X25775000Y-85662500D03*
X25275000Y-85662500D03*
X24775000Y-85662500D03*
X24275000Y-85662500D03*
X23775000Y-85662500D03*
D40*
X22837500Y-84725000D03*
X22837500Y-84225000D03*
X22837500Y-83725000D03*
X22837500Y-83225000D03*
X22837500Y-82725000D03*
D41*
X23775000Y-81787500D03*
X24275000Y-81787500D03*
X24775000Y-81787500D03*
X25275000Y-81787500D03*
X25775000Y-81787500D03*
%TD*%
D35*
%TO.C,R4*%
X28625000Y-56700000D03*
X26975000Y-56700000D03*
%TD*%
D16*
%TO.C,Q3*%
X70560000Y-57557157D03*
X71890000Y-57557157D03*
D17*
X72555000Y-55057157D03*
D16*
X73220000Y-57557157D03*
X74550000Y-57557157D03*
D18*
X74460000Y-51557157D03*
X70650000Y-51557157D03*
X71920000Y-51557157D03*
X73190000Y-51557157D03*
%TD*%
D23*
%TO.C,R2*%
X97225000Y-49107157D03*
X98875000Y-49107157D03*
%TD*%
%TO.C,R17*%
X72725000Y-49307157D03*
X74375000Y-49307157D03*
%TD*%
D36*
%TO.C,C19*%
X19175000Y-85980000D03*
X19175000Y-85020000D03*
%TD*%
D19*
%TO.C,C38*%
X29825000Y-33800000D03*
X28275000Y-33800000D03*
%TD*%
D42*
%TO.C,NTC_solder_pad2*%
X32950000Y-56700000D03*
X30950000Y-56700000D03*
%TD*%
D35*
%TO.C,R9*%
X28775000Y-52750000D03*
X27125000Y-52750000D03*
%TD*%
D21*
%TO.C,C22*%
X34023000Y-37454000D03*
X35573000Y-37454000D03*
%TD*%
D43*
%TO.C,C10*%
X26480000Y-80200000D03*
X25520000Y-80200000D03*
%TD*%
D20*
%TO.C,R26*%
X78100000Y-23182157D03*
X78100000Y-21532157D03*
%TD*%
D12*
%TO.C,C11*%
X47450000Y-47265000D03*
X47450000Y-48815000D03*
%TD*%
D28*
%TO.C,IC3*%
X97245000Y-39645157D03*
X98515000Y-39645157D03*
X99785000Y-39645157D03*
X101055000Y-39645157D03*
X101055000Y-45069157D03*
X99785000Y-45069157D03*
X98515000Y-45069157D03*
X97245000Y-45069157D03*
%TD*%
D27*
%TO.C,C20*%
X46736000Y-55372000D03*
X47696000Y-55372000D03*
%TD*%
D12*
%TO.C,C26*%
X42700000Y-86600000D03*
X42700000Y-88150000D03*
%TD*%
%TO.C,C14*%
X69350000Y-38107157D03*
X69350000Y-39657157D03*
%TD*%
D28*
%TO.C,IC4*%
X71245000Y-39645157D03*
X72515000Y-39645157D03*
X73785000Y-39645157D03*
X75055000Y-39645157D03*
X75055000Y-45069157D03*
X73785000Y-45069157D03*
X72515000Y-45069157D03*
X71245000Y-45069157D03*
%TD*%
D35*
%TO.C,J_BOOT1*%
X85175000Y-26257157D03*
X83525000Y-26257157D03*
%TD*%
D44*
%TO.C,IC1*%
X43831000Y-27112000D03*
X43831000Y-26162000D03*
X43831000Y-25212000D03*
X46331000Y-25212000D03*
X46331000Y-26162000D03*
X46331000Y-27112000D03*
%TD*%
D12*
%TO.C,C24*%
X45700000Y-86625000D03*
X45700000Y-88175000D03*
%TD*%
D23*
%TO.C,R9*%
X85025000Y-49207157D03*
X86675000Y-49207157D03*
%TD*%
D35*
%TO.C,J2*%
X67925000Y-88300000D03*
X66275000Y-88300000D03*
%TD*%
D25*
%TO.C,C20*%
X21375000Y-84907500D03*
X21375000Y-85867500D03*
%TD*%
D43*
%TO.C,C17*%
X18245000Y-82987500D03*
X17285000Y-82987500D03*
%TD*%
D22*
%TO.C,D4*%
X68700000Y-46707157D03*
X68700000Y-48807157D03*
%TD*%
D19*
%TO.C,C13*%
X47633000Y-36400000D03*
X46083000Y-36400000D03*
%TD*%
D23*
%TO.C,R8*%
X85975000Y-85800000D03*
X87625000Y-85800000D03*
%TD*%
D45*
%TO.C,U3*%
X41000000Y-61054000D03*
X41800000Y-61054000D03*
X42600000Y-61054000D03*
X43400000Y-61054000D03*
X44200000Y-61054000D03*
X44200000Y-60254000D03*
X44200000Y-59454000D03*
X43400000Y-59454000D03*
X42600000Y-59454000D03*
X41800000Y-59454000D03*
X41000000Y-59454000D03*
X41000000Y-60254000D03*
%TD*%
D22*
%TO.C,D3*%
X81750000Y-46657157D03*
X81750000Y-48757157D03*
%TD*%
D23*
%TO.C,R13*%
X85975000Y-82800000D03*
X87625000Y-82800000D03*
%TD*%
D36*
%TO.C,C12*%
X26175000Y-91067500D03*
X26175000Y-90107500D03*
%TD*%
D23*
%TO.C,R7*%
X84924132Y-35207157D03*
X86574132Y-35207157D03*
%TD*%
D42*
%TO.C,NTC_solder_pad3*%
X32950000Y-52800000D03*
X30950000Y-52800000D03*
%TD*%
D23*
%TO.C,R6*%
X103625000Y-28557157D03*
X105275000Y-28557157D03*
%TD*%
D21*
%TO.C,C19*%
X46469000Y-57912000D03*
X48019000Y-57912000D03*
%TD*%
D22*
%TO.C,D1*%
X94400000Y-46582157D03*
X94400000Y-48682157D03*
%TD*%
D19*
%TO.C,C28*%
X100325000Y-22007157D03*
X98775000Y-22007157D03*
%TD*%
D42*
%TO.C,NTC_solder_pad1*%
X32950000Y-54750000D03*
X30950000Y-54750000D03*
%TD*%
D13*
%TO.C,Q8*%
X88995000Y-51646157D03*
X90265000Y-51646157D03*
X91535000Y-51646157D03*
X92805000Y-51646157D03*
D14*
X88995000Y-57434157D03*
X90265000Y-57434157D03*
D15*
X90900000Y-55207157D03*
D14*
X91535000Y-57434157D03*
X92805000Y-57434157D03*
%TD*%
D36*
%TO.C,C11*%
X26275000Y-88467500D03*
X26275000Y-87507500D03*
%TD*%
D46*
%TO.C,D2*%
X77550000Y-24957157D03*
X79650000Y-24957157D03*
%TD*%
D23*
%TO.C,R10*%
X23250000Y-87787500D03*
X24900000Y-87787500D03*
%TD*%
%TO.C,R2*%
X59940500Y-42544000D03*
X61590500Y-42544000D03*
%TD*%
D12*
%TO.C,C21*%
X47200000Y-86625000D03*
X47200000Y-88175000D03*
%TD*%
D30*
%TO.C,IC3*%
X48850000Y-49000000D03*
X48850000Y-48600000D03*
X48850000Y-48200000D03*
X50150000Y-48200000D03*
X50150000Y-48600000D03*
X50150000Y-49000000D03*
D31*
X49500000Y-48600000D03*
%TD*%
D47*
%TO.C,C13*%
X76210000Y-30324657D03*
X76210000Y-29189657D03*
%TD*%
D23*
%TO.C,R10*%
X88725000Y-49157157D03*
X90375000Y-49157157D03*
%TD*%
D29*
%TO.C,C25*%
X37866000Y-60813000D03*
X37866000Y-59263000D03*
%TD*%
D36*
%TO.C,C26*%
X39390000Y-60236000D03*
X39390000Y-59276000D03*
%TD*%
D48*
%TO.C,IC2*%
X71000000Y-29157157D03*
X71950000Y-29157157D03*
X72900000Y-29157157D03*
X72900000Y-31657157D03*
X71950000Y-31657157D03*
X71000000Y-31657157D03*
%TD*%
D12*
%TO.C,C10*%
X69090000Y-30152157D03*
X69090000Y-31702157D03*
%TD*%
D25*
%TO.C,C5*%
X21275000Y-80507500D03*
X21275000Y-81467500D03*
%TD*%
D35*
%TO.C,R7*%
X66325000Y-102000000D03*
X64675000Y-102000000D03*
%TD*%
D19*
%TO.C,C1*%
X51431000Y-26162000D03*
X49881000Y-26162000D03*
%TD*%
D32*
%TO.C,R24*%
X102150000Y-22132157D03*
X102150000Y-23782157D03*
%TD*%
D35*
%TO.C,J0*%
X37400000Y-91100000D03*
X35750000Y-91100000D03*
%TD*%
M02*
