%TF.GenerationSoftware,KiCad,Pcbnew,8.0.5*%
%TF.CreationDate,2024-10-20T13:56:42+02:00*%
%TF.ProjectId,Flight_Controller,466c6967-6874-45f4-936f-6e74726f6c6c,rev?*%
%TF.SameCoordinates,Original*%
%TF.FileFunction,Profile,NP*%
%FSLAX46Y46*%
G04 Gerber Fmt 4.6, Leading zero omitted, Abs format (unit mm)*
G04 Created by KiCad (PCBNEW 8.0.5) date 2024-10-20 13:56:42*
%MOMM*%
%LPD*%
G01*
G04 APERTURE LIST*
%TA.AperFunction,Profile*%
%ADD10C,0.050000*%
%TD*%
G04 APERTURE END LIST*
D10*
X65300000Y-51600000D02*
X65300000Y-28400000D01*
X63700000Y-52500000D02*
X65300000Y-52500000D01*
X96000000Y-105200000D02*
G75*
G02*
X91000000Y-110200000I-5000000J0D01*
G01*
X54000000Y-65200000D02*
X79000000Y-65200000D01*
X79000000Y-65200000D02*
G75*
G02*
X91000017Y-76700000I489600J-11500000D01*
G01*
X13688000Y-16660000D02*
G75*
G02*
X16688000Y-13660000I3000000J0D01*
G01*
X60688000Y-13660000D02*
G75*
G02*
X63688000Y-16660000I0J-3000000D01*
G01*
X70300000Y-19457157D02*
X104300000Y-19457157D01*
X23000000Y-63660000D02*
X16688000Y-63660000D01*
X93500000Y-93300000D02*
G75*
G02*
X91000000Y-90800000I0J2500000D01*
G01*
X18400000Y-65100000D02*
X23000000Y-65100000D01*
X65300000Y-24457157D02*
G75*
G02*
X70300000Y-19457160I5000000J-3D01*
G01*
X13400000Y-70100000D02*
G75*
G02*
X18400000Y-65100000I5000000J0D01*
G01*
X13400000Y-105200000D02*
X13400000Y-70100000D01*
X96000000Y-95800000D02*
X96000000Y-105200000D01*
X16688000Y-13660000D02*
X60688000Y-13660000D01*
X53050000Y-63660000D02*
X23750000Y-63660000D01*
X65300000Y-27700000D02*
X65300000Y-24457157D01*
X63700000Y-52500000D02*
X63688000Y-60660000D01*
X23750000Y-63660000D02*
X23750000Y-65100000D01*
X63688000Y-60660000D02*
G75*
G02*
X60688000Y-63660000I-3000000J0D01*
G01*
X63700000Y-51600000D02*
X65300000Y-51600000D01*
X63700000Y-28400000D02*
X63700000Y-51600000D01*
X91000000Y-90800000D02*
X91000000Y-76700000D01*
X63688000Y-16660000D02*
X63700000Y-27700000D01*
X109300000Y-24457157D02*
X109300000Y-58457157D01*
X104300000Y-63457157D02*
X70300000Y-63457157D01*
X65300000Y-28400000D02*
X63700000Y-28400000D01*
X54000000Y-63660000D02*
X54000000Y-65200000D01*
X65300000Y-58457157D02*
X65300000Y-52500000D01*
X65300000Y-27700000D02*
X63700000Y-27700000D01*
X13688000Y-60660000D02*
X13688000Y-16660000D01*
X53050000Y-63660000D02*
X53050000Y-65200000D01*
X60688000Y-63660000D02*
X54000000Y-63660000D01*
X16688000Y-63660000D02*
G75*
G02*
X13688000Y-60660000I0J3000000D01*
G01*
X93500000Y-93300000D02*
G75*
G02*
X96000000Y-95800000I0J-2500000D01*
G01*
X23000000Y-63660000D02*
X23000000Y-65100000D01*
X104300000Y-19457157D02*
G75*
G02*
X109300043Y-24457157I0J-5000043D01*
G01*
X18400000Y-110200000D02*
G75*
G02*
X13400000Y-105200000I0J5000000D01*
G01*
X53050000Y-65200000D02*
X23750000Y-65100000D01*
X70300000Y-63457157D02*
G75*
G02*
X65300043Y-58457157I0J4999957D01*
G01*
X109300000Y-58457157D02*
G75*
G02*
X104300000Y-63457160I-5000000J-3D01*
G01*
X91000000Y-110200000D02*
X18400000Y-110200000D01*
M02*
