M48
; DRILL file {KiCad 8.0.5} date 2024-10-20T13:56:34+0200
; FORMAT={-:-/ absolute / inch / decimal}
; #@! TF.CreationDate,2024-10-20T13:56:34+02:00
; #@! TF.GenerationSoftware,Kicad,Pcbnew,8.0.5
; #@! TF.FileFunction,Plated,1,4,PTH
FMAT,2
INCH
; #@! TA.AperFunction,Plated,PTH,ViaDrill
T1C0.0098
; #@! TA.AperFunction,Plated,PTH,ViaDrill
T2C0.0118
; #@! TA.AperFunction,Plated,PTH,ComponentDrill
T3C0.0276
; #@! TA.AperFunction,Plated,PTH,ComponentDrill
T4C0.0394
; #@! TA.AperFunction,Plated,PTH,ComponentDrill
T5C0.0433
; #@! TA.AperFunction,Plated,PTH,ComponentDrill
T6C0.0512
; #@! TA.AperFunction,Plated,PTH,ComponentDrill
T7C0.0606
; #@! TA.AperFunction,Plated,PTH,ComponentDrill
T8C0.0630
; #@! TA.AperFunction,Plated,PTH,ComponentDrill
T9C0.0787
; #@! TA.AperFunction,Plated,PTH,ComponentDrill
T10C0.0866
; #@! TA.AperFunction,Plated,PTH,ComponentDrill
T11C0.1063
%
G90
G05
T1
X0.685Y-1.7244
X0.685Y-1.8031
X1.2598Y-2.378
X1.3386Y-2.378
X1.4646Y-2.0709
X1.5433Y-1.3543
X1.7104Y-0.67
X1.7891Y-0.67
X2.36Y-1.3294
X2.3622Y-1.2507
T2
X0.6417Y-3.3386
X0.6614Y-3.5276
X0.7165Y-1.1575
X0.7244Y-1.2047
X0.7264Y-1.8799
X0.7402Y-1.378
X0.752Y-3.4173
X0.7677Y-1.2717
X0.7795Y-1.3228
X0.7874Y-1.4488
X0.7953Y-3.2165
X0.8346Y-3.1417
X0.8425Y-3.4173
X0.874Y-3.0945
X0.878Y-3.1969
X0.8839Y-1.7657
X0.8898Y-1.1654
X0.8937Y-3.9724
X0.9016Y-3.5984
X0.9094Y-1.3858
X0.9213Y-1.126
X0.9518Y-3.1693
X0.9646Y-1.878
X0.9665Y-1.4331
X0.9685Y-1.3937
X0.9783Y-1.813
X0.9803Y-1.7539
X0.9803Y-3.0551
X0.9803Y-3.4094
X0.9961Y-3.5906
X0.998Y-1.687
X1.0079Y-1.3858
X1.0157Y-2.126
X1.0157Y-3.4094
X1.0256Y-1.9429
X1.0276Y-0.9094
X1.0354Y-0.9528
X1.0472Y-3.2087
X1.0512Y-1.4252
X1.0581Y-3.3893
X1.063Y-3.4843
X1.0699Y-1.2844
X1.0709Y-3.1575
X1.0748Y-0.9528
X1.0768Y-1.6339
X1.0827Y-3.0945
X1.0906Y-3.4291
X1.1004Y-3.2701
X1.1014Y-3.2357
X1.1014Y-3.3027
X1.1024Y-1.1181
X1.1024Y-1.2835
X1.1201Y-1.9429
X1.1398Y-1.689
X1.1417Y-1.0787
X1.1496Y-3.4094
X1.1673Y-2.2303
X1.1693Y-1.7402
X1.1713Y-2.1575
X1.1752Y-2.0748
X1.1772Y-2.3425
X1.1831Y-1.9291
X1.2047Y-1.0748
X1.2087Y-1.7146
X1.2165Y-1.122
X1.2441Y-1.5315
X1.2487Y-1.7414
X1.2638Y-3.2953
X1.2677Y-3.2362
X1.2677Y-3.8228
X1.2722Y-1.5153
X1.2795Y-1.4843
X1.2874Y-1.5808
X1.2875Y-1.7468
X1.2926Y-1.5497
X1.3189Y-1.8839
X1.3222Y-1.9797
X1.3327Y-2.0335
X1.3327Y-1.5315
X1.3346Y-1.5787
X1.3346Y-1.6063
X1.3386Y-1.1496
X1.3386Y-1.2126
X1.3386Y-1.2756
X1.3386Y-1.437
X1.3445Y-2.002
X1.3504Y-1.626
X1.3504Y-2.2362
X1.378Y-1.378
X1.3984Y-1.6575
X1.4134Y-1.9173
X1.4213Y-2.0492
X1.422Y-1.4291
X1.4449Y-1.6614
X1.4685Y-1.5669
X1.4843Y-2.7598
X1.4843Y-3.0157
X1.4843Y-3.2441
X1.4843Y-3.378
X1.4882Y-1.4016
X1.4894Y-2.0217
X1.4902Y-2.439
X1.4964Y-1.6348
X1.5079Y-1.7638
X1.5131Y-2.0511
X1.5157Y-1.5692
X1.5157Y-3.5906
X1.5197Y-1.378
X1.5391Y-1.6375
X1.5453Y-2.0866
X1.5472Y-1.5709
X1.5531Y-0.91
X1.5551Y-0.9803
X1.563Y-2.4075
X1.5669Y-1.4016
X1.5669Y-2.3031
X1.5728Y-4.2618
X1.5827Y-1.0787
X1.5984Y-1.4173
X1.6075Y-2.4736
X1.6142Y-2.063
X1.6181Y-3.3583
X1.6181Y-3.815
X1.6181Y-3.8858
X1.622Y-1.0866
X1.622Y-1.126
X1.6457Y-2.2913
X1.6535Y-1.063
X1.6535Y-1.1024
X1.6535Y-1.6555
X1.6614Y-1.1496
X1.6693Y-2.0315
X1.6802Y-2.2913
X1.6811Y-1.5354
X1.6811Y-3.3583
X1.7047Y-4.0
X1.7165Y-1.9331
X1.7205Y-1.5472
X1.7264Y-1.8898
X1.7323Y-2.2992
X1.7362Y-3.3583
X1.7402Y-1.7402
X1.7402Y-3.7008
X1.7559Y-1.7087
X1.7717Y-1.1181
X1.7815Y-2.2185
X1.7953Y-2.3937
X1.7953Y-3.3583
X1.811Y-1.9921
X1.8189Y-1.3701
X1.8228Y-1.9213
X1.8268Y-1.9528
X1.84Y-2.22
X1.8483Y-2.0617
X1.8543Y-3.0669
X1.8583Y-1.9685
X1.8583Y-3.3583
X1.8583Y-4.0591
X1.8701Y-0.7008
X1.872Y-4.2539
X1.88Y-2.22
X1.8898Y-0.9921
X1.9016Y-3.9528
X1.9173Y-3.3583
X1.9173Y-3.9016
X1.9252Y-2.1693
X1.9449Y-2.4016
X1.9567Y-1.4567
X1.9724Y-1.6181
X1.9724Y-4.2402
X1.9744Y-1.1476
X1.9764Y-1.5039
X1.9803Y-1.4764
X2.0236Y-1.9409
X2.0276Y-4.2008
X2.0315Y-1.9803
X2.0472Y-1.09
X2.0512Y-4.1772
X2.0615Y-1.03
X2.1231Y-3.7254
X2.126Y-3.6929
X2.1299Y-3.878
X2.1299Y-3.9961
X2.1496Y-3.3583
X2.1811Y-1.6713
X2.185Y-3.9449
X2.187Y-1.8091
X2.189Y-1.748
X2.2106Y-1.561
X2.2106Y-1.876
X2.2283Y-4.1969
X2.248Y-2.8976
X2.252Y-4.0
X2.2598Y-3.7205
X2.2598Y-3.878
X2.2677Y-4.2756
X2.2717Y-3.752
X2.2756Y-4.185
X2.2913Y-4.1535
X2.2953Y-4.2323
X2.3031Y-2.0157
X2.3202Y-1.6868
X2.3202Y-1.7968
X2.3268Y-4.1614
X2.3524Y-3.8071
X2.3661Y-4.1535
X2.3701Y-3.8976
X2.3769Y-1.1723
X2.3976Y-4.0709
X2.4173Y-3.9134
X2.4331Y-4.063
X2.4606Y-3.937
X2.4724Y-4.0512
X2.4921Y-4.0197
X2.5079Y-3.878
X2.5118Y-3.815
X2.5591Y-3.4764
X2.563Y-4.1339
X2.5945Y-3.0748
X2.6181Y-1.0869
X2.6181Y-1.1282
X2.6201Y-1.0397
X2.6201Y-1.3349
X2.6358Y-2.081
X2.6358Y-2.14
X2.6358Y-2.1991
X2.6516Y-1.4215
X2.6575Y-3.752
X2.6614Y-1.644
X2.6614Y-3.9409
X2.6654Y-4.0118
X2.685Y-1.4215
X2.685Y-1.6204
X2.7106Y-1.1066
X2.7106Y-1.1381
X2.7185Y-1.4215
X2.7185Y-1.6204
X2.7421Y-1.083
X2.7461Y-1.8251
X2.748Y-1.3585
X2.7579Y-1.0278
X2.7579Y-1.3093
X2.7736Y-2.4215
X2.7795Y-1.081
X2.8031Y-1.0298
X2.8169Y-1.9865
X2.8327Y-1.3074
X2.8327Y-2.4215
X2.8445Y-1.0298
X2.8465Y-1.0672
X2.8563Y-1.5062
X2.8705Y-1.3074
X2.8878Y-1.0298
X2.8917Y-2.4215
X2.8937Y-1.0652
X2.9075Y-1.5062
X2.9154Y-0.9747
X2.9272Y-1.0298
X2.935Y-0.9215
X2.9469Y-1.3034
X2.9478Y-1.1007
X2.9567Y-0.8467
X2.9646Y-3.4724
X2.9665Y-0.9885
X2.9719Y-1.0766
X2.9764Y-3.2598
X2.9823Y-1.3113
X2.9941Y-1.4353
X2.9961Y-1.2503
X3.0059Y-1.0456
X3.0138Y-1.7778
X3.0157Y-3.2205
X3.0157Y-3.3583
X3.0217Y-1.0987
X3.0325Y-2.082
X3.0404Y-0.8802
X3.063Y-2.8622
X3.065Y-2.079
X3.0689Y-1.7818
X3.0906Y-1.3664
X3.0984Y-1.0318
X3.1043Y-1.457
X3.1535Y-1.5318
X3.1535Y-3.4705
X3.1555Y-1.3652
X3.1654Y-2.081
X3.1673Y-1.6204
X3.1673Y-1.0377
X3.1686Y-1.3104
X3.1703Y-0.9038
X3.1713Y-1.081
X3.1831Y-1.0042
X3.185Y-1.3771
X3.185Y-1.4668
X3.1949Y-1.6204
X3.2028Y-2.4215
X3.2106Y-1.1597
X3.2165Y-1.3908
X3.2283Y-3.2441
X3.2283Y-3.4331
X3.2303Y-1.6204
X3.249Y-0.9036
X3.2539Y-1.0554
X3.2559Y-4.0039
X3.2618Y-1.4125
X3.2618Y-2.4215
X3.2923Y-1.8182
X3.2992Y-1.4282
X3.3209Y-2.4215
X3.3228Y-1.457
X3.3278Y-0.9036
X3.3287Y-1.1676
X3.3287Y-1.3054
X3.3307Y-1.2424
X3.3307Y-3.2598
X3.3346Y-3.378
X3.3484Y-1.4373
X3.3642Y-1.9786
X3.3846Y-1.4688
X3.3898Y-3.0866
X3.3957Y-1.0456
X3.3996Y-1.1696
X3.4016Y-1.2432
X3.4016Y-1.3034
X3.4065Y-0.9036
X3.4082Y-1.4478
X3.435Y-1.5062
X3.437Y-1.0593
X3.439Y-1.4412
X3.4764Y-1.1715
X3.4764Y-1.2424
X3.4764Y-1.3054
X3.5079Y-2.0771
X3.5374Y-1.4038
X3.5413Y-1.7778
X3.5492Y-1.5456
X3.5492Y-1.8133
X3.5541Y-1.4658
X3.5571Y-2.0771
X3.5945Y-2.079
X3.5965Y-1.3723
X3.5965Y-2.4176
X3.622Y-1.1204
X3.626Y-1.3015
X3.6299Y-1.2471
X3.6555Y-1.3349
X3.6555Y-2.4176
X3.6634Y-1.7897
X3.7087Y-1.1834
X3.7146Y-2.4176
X3.7165Y-1.1164
X3.7165Y-1.6164
X3.7183Y-1.4156
X3.748Y-1.6164
X3.75Y-1.0751
X3.7756Y-1.6164
X3.7805Y-1.8172
X3.8406Y-1.3172
X3.8642Y-1.9786
X3.878Y-1.4727
X3.9252Y-1.3172
X3.9311Y-1.4983
X4.0138Y-2.079
X4.0335Y-1.2385
X4.0354Y-1.1479
X4.0453Y-1.77
X4.0571Y-2.079
X4.0925Y-1.7778
X4.1024Y-2.079
X4.1201Y-0.8093
X4.1555Y-1.5141
X4.1555Y-1.7109
X4.1673Y-0.8763
X4.1949Y-1.1243
X4.1969Y-1.2365
X4.2146Y-1.6125
X4.2146Y-1.829
X4.2343Y-1.9865
X4.2343Y-2.0456
X4.2343Y-2.1046
X4.2343Y-2.1637
X4.2343Y-2.2227
T3
X1.622Y-3.5551
X1.6811Y-3.5551
X1.7402Y-3.5551
X1.7992Y-3.5551
X1.8583Y-3.5551
X1.9173Y-3.5551
X1.9764Y-3.5551
X2.0354Y-3.5551
X2.0945Y-3.5551
X2.1535Y-3.5551
X2.2126Y-3.5551
X2.2717Y-3.5551
X2.3307Y-3.5551
X2.3898Y-3.5551
X2.4488Y-3.5551
X2.5079Y-3.5551
X2.5669Y-3.5551
T4
X3.0289Y-3.063
X3.1289Y-3.063
T5
X0.6033Y-3.9149
X0.6033Y-4.0133
X0.6033Y-4.1117
X0.8486Y-3.6696
X0.947Y-3.6696
X1.0455Y-3.6696
X2.9656Y-3.9149
X2.9656Y-4.0133
X2.9656Y-4.1117
X3.2108Y-3.6696
X3.3093Y-3.6696
X3.4077Y-3.6696
T6
X1.1734Y-3.8853
X1.1734Y-4.1412
X1.3506Y-3.8853
X1.3506Y-4.1412
X3.5356Y-3.8853
X3.5356Y-4.1412
X3.7128Y-3.8853
X3.7128Y-4.1412
T7
X1.4134Y-3.4843
X2.7756Y-3.4843
T8
X0.7502Y-3.7643
X0.7502Y-4.2623
X1.1439Y-3.7643
X1.1439Y-4.2623
X3.1124Y-3.7643
X3.1124Y-4.2623
X3.5061Y-3.7643
X3.5061Y-4.2623
T9
X0.685Y-2.0758
X0.685Y-2.2333
X0.8228Y-2.3805
X0.9803Y-2.3809
X2.0647Y-0.67
X2.2222Y-0.6704
X2.36Y-0.8176
X2.36Y-0.9751
X3.0689Y-2.3802
X3.4626Y-2.3802
X3.5256Y-0.9038
X3.6831Y-0.9042
X3.8563Y-2.3806
T10
X2.3893Y-2.3882
X2.7283Y-0.9176
T11
X1.2402Y-0.689
X1.437Y-0.689
M30
