%TF.GenerationSoftware,KiCad,Pcbnew,9.0.0*%
%TF.CreationDate,2025-04-09T22:07:22+02:00*%
%TF.ProjectId,ESC,4553432e-6b69-4636-9164-5f7063625858,rev?*%
%TF.SameCoordinates,Original*%
%TF.FileFunction,Soldermask,Top*%
%TF.FilePolarity,Negative*%
%FSLAX45Y45*%
G04 Gerber Fmt 4.5, Leading zero omitted, Abs format (unit mm)*
G04 Created by KiCad (PCBNEW 9.0.0) date 2025-04-09 22:07:22*
%MOMM*%
%LPD*%
G01*
G04 APERTURE LIST*
G04 Aperture macros list*
%AMRoundRect*
0 Rectangle with rounded corners*
0 $1 Rounding radius*
0 $2 $3 $4 $5 $6 $7 $8 $9 X,Y pos of 4 corners*
0 Add a 4 corners polygon primitive as box body*
4,1,4,$2,$3,$4,$5,$6,$7,$8,$9,$2,$3,0*
0 Add four circle primitives for the rounded corners*
1,1,$1+$1,$2,$3*
1,1,$1+$1,$4,$5*
1,1,$1+$1,$6,$7*
1,1,$1+$1,$8,$9*
0 Add four rect primitives between the rounded corners*
20,1,$1+$1,$2,$3,$4,$5,0*
20,1,$1+$1,$4,$5,$6,$7,0*
20,1,$1+$1,$6,$7,$8,$9,0*
20,1,$1+$1,$8,$9,$2,$3,0*%
G04 Aperture macros list end*
%ADD10C,0.856637*%
%ADD11C,0.150000*%
%ADD12C,0.140000*%
%ADD13C,0.100000*%
%ADD14C,0.062500*%
%ADD15C,0.075000*%
%ADD16RoundRect,0.333333X1.666667X1.666667X-1.666667X1.666667X-1.666667X-1.666667X1.666667X-1.666667X0*%
%ADD17R,3.150000X1.800000*%
%ADD18RoundRect,0.218750X-0.256250X0.218750X-0.256250X-0.218750X0.256250X-0.218750X0.256250X0.218750X0*%
%ADD19RoundRect,0.225000X0.250000X-0.225000X0.250000X0.225000X-0.250000X0.225000X-0.250000X-0.225000X0*%
%ADD20R,0.650000X1.050000*%
%ADD21RoundRect,0.200000X0.200000X0.275000X-0.200000X0.275000X-0.200000X-0.275000X0.200000X-0.275000X0*%
%ADD22RoundRect,0.200000X-0.275000X0.200000X-0.275000X-0.200000X0.275000X-0.200000X0.275000X0.200000X0*%
%ADD23C,3.800000*%
%ADD24R,4.700000X1.180000*%
%ADD25RoundRect,0.062500X-0.375000X-0.062500X0.375000X-0.062500X0.375000X0.062500X-0.375000X0.062500X0*%
%ADD26RoundRect,0.062500X-0.062500X-0.375000X0.062500X-0.375000X0.062500X0.375000X-0.062500X0.375000X0*%
%ADD27R,5.600000X5.600000*%
%ADD28RoundRect,0.225000X-0.250000X0.225000X-0.250000X-0.225000X0.250000X-0.225000X0.250000X0.225000X0*%
%ADD29RoundRect,0.250000X0.362500X1.425000X-0.362500X1.425000X-0.362500X-1.425000X0.362500X-1.425000X0*%
%ADD30RoundRect,0.150000X0.150000X-0.512500X0.150000X0.512500X-0.150000X0.512500X-0.150000X-0.512500X0*%
%ADD31RoundRect,0.200000X0.275000X-0.200000X0.275000X0.200000X-0.275000X0.200000X-0.275000X-0.200000X0*%
%ADD32RoundRect,0.150000X0.512500X0.150000X-0.512500X0.150000X-0.512500X-0.150000X0.512500X-0.150000X0*%
%ADD33C,2.200000*%
%ADD34RoundRect,0.250000X0.900000X-1.000000X0.900000X1.000000X-0.900000X1.000000X-0.900000X-1.000000X0*%
%ADD35RoundRect,0.200000X-0.200000X-0.275000X0.200000X-0.275000X0.200000X0.275000X-0.200000X0.275000X0*%
%ADD36RoundRect,0.140000X0.140000X0.170000X-0.140000X0.170000X-0.140000X-0.170000X0.140000X-0.170000X0*%
%ADD37C,0.650000*%
%ADD38R,1.150000X0.600000*%
%ADD39R,1.150000X0.300000*%
%ADD40R,1.500000X1.500000*%
%ADD41RoundRect,0.140000X0.170000X-0.140000X0.170000X0.140000X-0.170000X0.140000X-0.170000X-0.140000X0*%
%ADD42O,1.400000X3.000000*%
%ADD43RoundRect,0.250000X1.500000X1.250000X-1.500000X1.250000X-1.500000X-1.250000X1.500000X-1.250000X0*%
%ADD44O,3.500000X3.000000*%
%ADD45RoundRect,0.140000X-0.140000X-0.170000X0.140000X-0.170000X0.140000X0.170000X-0.140000X0.170000X0*%
%ADD46R,1.150000X1.400000*%
G04 APERTURE END LIST*
D10*
X5122832Y-2370000D02*
G75*
G02*
X5037168Y-2370000I-42832J0D01*
G01*
X5037168Y-2370000D02*
G75*
G02*
X5122832Y-2370000I42832J0D01*
G01*
X5302832Y-2600000D02*
G75*
G02*
X5217168Y-2600000I-42832J0D01*
G01*
X5217168Y-2600000D02*
G75*
G02*
X5302832Y-2600000I42832J0D01*
G01*
D11*
X5946982Y-4246322D02*
X5846982Y-4246322D01*
X5885077Y-4246322D02*
X5880315Y-4236798D01*
X5880315Y-4236798D02*
X5880315Y-4217751D01*
X5880315Y-4217751D02*
X5885077Y-4208227D01*
X5885077Y-4208227D02*
X5889839Y-4203465D01*
X5889839Y-4203465D02*
X5899363Y-4198703D01*
X5899363Y-4198703D02*
X5927934Y-4198703D01*
X5927934Y-4198703D02*
X5937458Y-4203465D01*
X5937458Y-4203465D02*
X5942220Y-4208227D01*
X5942220Y-4208227D02*
X5946982Y-4217751D01*
X5946982Y-4217751D02*
X5946982Y-4236798D01*
X5946982Y-4236798D02*
X5942220Y-4246322D01*
X5946982Y-4141560D02*
X5942220Y-4151084D01*
X5942220Y-4151084D02*
X5937458Y-4155846D01*
X5937458Y-4155846D02*
X5927934Y-4160608D01*
X5927934Y-4160608D02*
X5899363Y-4160608D01*
X5899363Y-4160608D02*
X5889839Y-4155846D01*
X5889839Y-4155846D02*
X5885077Y-4151084D01*
X5885077Y-4151084D02*
X5880315Y-4141560D01*
X5880315Y-4141560D02*
X5880315Y-4127274D01*
X5880315Y-4127274D02*
X5885077Y-4117751D01*
X5885077Y-4117751D02*
X5889839Y-4112989D01*
X5889839Y-4112989D02*
X5899363Y-4108227D01*
X5899363Y-4108227D02*
X5927934Y-4108227D01*
X5927934Y-4108227D02*
X5937458Y-4112989D01*
X5937458Y-4112989D02*
X5942220Y-4117751D01*
X5942220Y-4117751D02*
X5946982Y-4127274D01*
X5946982Y-4127274D02*
X5946982Y-4141560D01*
X5946982Y-4051084D02*
X5942220Y-4060608D01*
X5942220Y-4060608D02*
X5937458Y-4065370D01*
X5937458Y-4065370D02*
X5927934Y-4070131D01*
X5927934Y-4070131D02*
X5899363Y-4070131D01*
X5899363Y-4070131D02*
X5889839Y-4065370D01*
X5889839Y-4065370D02*
X5885077Y-4060608D01*
X5885077Y-4060608D02*
X5880315Y-4051084D01*
X5880315Y-4051084D02*
X5880315Y-4036798D01*
X5880315Y-4036798D02*
X5885077Y-4027274D01*
X5885077Y-4027274D02*
X5889839Y-4022512D01*
X5889839Y-4022512D02*
X5899363Y-4017751D01*
X5899363Y-4017751D02*
X5927934Y-4017751D01*
X5927934Y-4017751D02*
X5937458Y-4022512D01*
X5937458Y-4022512D02*
X5942220Y-4027274D01*
X5942220Y-4027274D02*
X5946982Y-4036798D01*
X5946982Y-4036798D02*
X5946982Y-4051084D01*
X5880315Y-3989179D02*
X5880315Y-3951084D01*
X5846982Y-3974893D02*
X5932696Y-3974893D01*
X5932696Y-3974893D02*
X5942220Y-3970131D01*
X5942220Y-3970131D02*
X5946982Y-3960608D01*
X5946982Y-3960608D02*
X5946982Y-3951084D01*
X5366982Y-4266322D02*
X5300315Y-4266322D01*
X5319363Y-4266322D02*
X5309839Y-4261560D01*
X5309839Y-4261560D02*
X5305077Y-4256798D01*
X5305077Y-4256798D02*
X5300315Y-4247274D01*
X5300315Y-4247274D02*
X5300315Y-4237751D01*
X5362220Y-4166322D02*
X5366982Y-4175846D01*
X5366982Y-4175846D02*
X5366982Y-4194893D01*
X5366982Y-4194893D02*
X5362220Y-4204417D01*
X5362220Y-4204417D02*
X5352696Y-4209179D01*
X5352696Y-4209179D02*
X5314601Y-4209179D01*
X5314601Y-4209179D02*
X5305077Y-4204417D01*
X5305077Y-4204417D02*
X5300315Y-4194893D01*
X5300315Y-4194893D02*
X5300315Y-4175846D01*
X5300315Y-4175846D02*
X5305077Y-4166322D01*
X5305077Y-4166322D02*
X5314601Y-4161560D01*
X5314601Y-4161560D02*
X5324125Y-4161560D01*
X5324125Y-4161560D02*
X5333649Y-4209179D01*
X5362220Y-4123465D02*
X5366982Y-4113941D01*
X5366982Y-4113941D02*
X5366982Y-4094893D01*
X5366982Y-4094893D02*
X5362220Y-4085370D01*
X5362220Y-4085370D02*
X5352696Y-4080608D01*
X5352696Y-4080608D02*
X5347934Y-4080608D01*
X5347934Y-4080608D02*
X5338410Y-4085370D01*
X5338410Y-4085370D02*
X5333649Y-4094893D01*
X5333649Y-4094893D02*
X5333649Y-4109179D01*
X5333649Y-4109179D02*
X5328887Y-4118703D01*
X5328887Y-4118703D02*
X5319363Y-4123465D01*
X5319363Y-4123465D02*
X5314601Y-4123465D01*
X5314601Y-4123465D02*
X5305077Y-4118703D01*
X5305077Y-4118703D02*
X5300315Y-4109179D01*
X5300315Y-4109179D02*
X5300315Y-4094893D01*
X5300315Y-4094893D02*
X5305077Y-4085370D01*
X5362220Y-3999655D02*
X5366982Y-4009179D01*
X5366982Y-4009179D02*
X5366982Y-4028227D01*
X5366982Y-4028227D02*
X5362220Y-4037750D01*
X5362220Y-4037750D02*
X5352696Y-4042512D01*
X5352696Y-4042512D02*
X5314601Y-4042512D01*
X5314601Y-4042512D02*
X5305077Y-4037750D01*
X5305077Y-4037750D02*
X5300315Y-4028227D01*
X5300315Y-4028227D02*
X5300315Y-4009179D01*
X5300315Y-4009179D02*
X5305077Y-3999655D01*
X5305077Y-3999655D02*
X5314601Y-3994893D01*
X5314601Y-3994893D02*
X5324125Y-3994893D01*
X5324125Y-3994893D02*
X5333649Y-4042512D01*
X5300315Y-3966322D02*
X5300315Y-3928227D01*
X5266982Y-3952036D02*
X5352696Y-3952036D01*
X5352696Y-3952036D02*
X5362220Y-3947274D01*
X5362220Y-3947274D02*
X5366982Y-3937750D01*
X5366982Y-3937750D02*
X5366982Y-3928227D01*
D12*
G36*
X3489315Y-6065193D02*
G01*
X3498556Y-6081122D01*
X3497112Y-6082270D01*
X3495751Y-6081092D01*
X3494923Y-6080805D01*
X3493784Y-6081214D01*
X3490162Y-6083413D01*
X3482141Y-6088197D01*
X3476287Y-6090755D01*
X3470366Y-6092141D01*
X3462888Y-6092650D01*
X3455138Y-6092072D01*
X3448416Y-6090429D01*
X3442566Y-6087813D01*
X3437460Y-6084258D01*
X3433820Y-6080728D01*
X3430759Y-6076700D01*
X3428241Y-6072129D01*
X3426093Y-6066462D01*
X3424794Y-6060401D01*
X3424351Y-6053855D01*
X3424802Y-6047159D01*
X3426118Y-6041051D01*
X3428279Y-6035428D01*
X3431314Y-6030207D01*
X3434976Y-6025725D01*
X3439176Y-6022044D01*
X3443975Y-6019123D01*
X3449458Y-6016960D01*
X3455735Y-6015597D01*
X3462935Y-6015118D01*
X3470406Y-6015618D01*
X3476266Y-6016974D01*
X3482069Y-6019489D01*
X3490162Y-6024272D01*
X3493778Y-6026412D01*
X3494923Y-6026812D01*
X3495751Y-6026526D01*
X3497112Y-6025352D01*
X3498556Y-6026490D01*
X3489320Y-6042317D01*
X3487845Y-6041213D01*
X3487952Y-6039689D01*
X3487677Y-6038277D01*
X3486781Y-6036856D01*
X3485340Y-6035525D01*
X3482571Y-6033597D01*
X3476803Y-6030612D01*
X3470874Y-6028841D01*
X3464704Y-6028248D01*
X3459132Y-6028690D01*
X3454404Y-6029935D01*
X3450381Y-6031904D01*
X3446953Y-6034569D01*
X3443526Y-6038573D01*
X3441125Y-6043052D01*
X3439666Y-6048105D01*
X3439161Y-6053884D01*
X3439666Y-6059663D01*
X3441125Y-6064716D01*
X3443526Y-6069195D01*
X3446953Y-6073199D01*
X3450381Y-6075865D01*
X3454404Y-6077833D01*
X3459132Y-6079078D01*
X3464704Y-6079520D01*
X3470870Y-6078917D01*
X3476797Y-6077115D01*
X3482566Y-6074073D01*
X3485336Y-6072110D01*
X3486781Y-6070756D01*
X3487676Y-6069311D01*
X3487952Y-6067870D01*
X3487845Y-6066380D01*
X3489315Y-6065193D01*
G37*
G36*
X4464337Y-6016678D02*
G01*
X4468542Y-6017468D01*
X4472230Y-6018969D01*
X4475381Y-6021209D01*
X4477899Y-6024061D01*
X4479701Y-6027446D01*
X4480822Y-6031470D01*
X4481219Y-6036294D01*
X4480854Y-6040561D01*
X4479814Y-6044153D01*
X4478132Y-6047209D01*
X4475760Y-6049817D01*
X4472581Y-6052008D01*
X4476584Y-6054302D01*
X4479540Y-6057150D01*
X4481624Y-6060576D01*
X4482913Y-6064692D01*
X4483369Y-6069687D01*
X4482940Y-6074716D01*
X4481715Y-6078999D01*
X4479724Y-6082688D01*
X4476911Y-6085880D01*
X4473411Y-6088382D01*
X4469333Y-6090105D01*
X4464773Y-6091045D01*
X4458703Y-6091400D01*
X4413951Y-6091400D01*
X4413951Y-6089251D01*
X4415550Y-6088557D01*
X4416370Y-6087853D01*
X4416835Y-6086881D01*
X4417012Y-6085387D01*
X4417012Y-6078895D01*
X4431535Y-6078895D01*
X4455595Y-6078895D01*
X4460074Y-6078596D01*
X4463167Y-6077833D01*
X4465229Y-6076755D01*
X4467037Y-6074841D01*
X4468153Y-6072245D01*
X4468559Y-6068734D01*
X4468156Y-6065257D01*
X4467042Y-6062657D01*
X4465229Y-6060713D01*
X4463196Y-6059639D01*
X4460108Y-6058874D01*
X4455595Y-6058574D01*
X4431535Y-6058574D01*
X4431535Y-6078895D01*
X4417012Y-6078895D01*
X4417012Y-6046068D01*
X4431535Y-6046068D01*
X4456407Y-6046068D01*
X4460176Y-6045799D01*
X4462677Y-6045119D01*
X4464263Y-6044173D01*
X4465601Y-6042541D01*
X4466438Y-6040366D01*
X4466742Y-6037471D01*
X4466444Y-6034494D01*
X4465645Y-6032360D01*
X4464396Y-6030847D01*
X4462723Y-6029854D01*
X4460167Y-6029150D01*
X4456407Y-6028874D01*
X4431535Y-6028874D01*
X4431535Y-6046068D01*
X4417012Y-6046068D01*
X4417012Y-6022382D01*
X4416834Y-6020888D01*
X4416370Y-6019920D01*
X4415550Y-6019213D01*
X4413951Y-6018518D01*
X4413951Y-6016368D01*
X4458271Y-6016368D01*
X4464337Y-6016678D01*
G37*
G36*
X5444268Y-6018518D02*
G01*
X5442575Y-6019368D01*
X5441719Y-6020390D01*
X5441447Y-6021620D01*
X5441650Y-6023189D01*
X5442344Y-6025151D01*
X5467208Y-6082534D01*
X5468808Y-6085824D01*
X5469943Y-6087477D01*
X5471292Y-6088543D01*
X5473200Y-6089236D01*
X5473200Y-6091400D01*
X5448922Y-6091400D01*
X5448922Y-6089236D01*
X5450794Y-6088533D01*
X5451757Y-6087468D01*
X5452077Y-6085992D01*
X5451887Y-6084781D01*
X5451132Y-6082690D01*
X5446678Y-6072329D01*
X5417199Y-6072329D01*
X5412839Y-6082690D01*
X5412131Y-6084746D01*
X5411946Y-6086051D01*
X5412245Y-6087314D01*
X5413205Y-6088370D01*
X5415147Y-6089246D01*
X5415147Y-6091400D01*
X5393259Y-6091400D01*
X5393259Y-6089241D01*
X5395072Y-6088593D01*
X5396225Y-6087722D01*
X5397165Y-6086352D01*
X5398486Y-6083516D01*
X5407638Y-6061700D01*
X5421584Y-6061700D01*
X5442434Y-6061700D01*
X5432082Y-6035893D01*
X5421584Y-6061700D01*
X5407638Y-6061700D01*
X5422490Y-6026295D01*
X5423388Y-6023699D01*
X5423627Y-6022001D01*
X5423349Y-6020612D01*
X5422492Y-6019467D01*
X5420853Y-6018513D01*
X5420853Y-6016368D01*
X5444268Y-6016368D01*
X5444268Y-6018518D01*
G37*
G36*
X3306505Y-2080551D02*
G01*
X3299923Y-2095133D01*
X3298581Y-2094297D01*
X3298328Y-2092641D01*
X3297624Y-2091484D01*
X3294495Y-2089089D01*
X3289635Y-2086926D01*
X3284306Y-2085576D01*
X3278924Y-2085128D01*
X3274468Y-2085511D01*
X3270743Y-2086584D01*
X3267696Y-2088361D01*
X3266153Y-2090328D01*
X3265669Y-2092563D01*
X3265931Y-2094079D01*
X3266703Y-2095267D01*
X3268101Y-2096202D01*
X3271128Y-2097072D01*
X3277637Y-2097942D01*
X3285194Y-2098591D01*
X3291791Y-2099579D01*
X3296717Y-2101088D01*
X3300316Y-2102983D01*
X3302954Y-2105286D01*
X3305099Y-2108268D01*
X3306407Y-2111122D01*
X3307194Y-2114203D01*
X3307463Y-2117574D01*
X3306996Y-2122045D01*
X3305640Y-2125930D01*
X3303368Y-2129372D01*
X3300034Y-2132443D01*
X3296460Y-2134594D01*
X3292173Y-2136224D01*
X3287046Y-2137274D01*
X3280928Y-2137651D01*
X3274928Y-2137280D01*
X3269044Y-2136174D01*
X3263242Y-2134323D01*
X3257493Y-2131706D01*
X3256257Y-2131330D01*
X3255445Y-2131626D01*
X3254539Y-2132697D01*
X3253112Y-2132033D01*
X3258719Y-2116694D01*
X3260121Y-2117334D01*
X3260121Y-2117882D01*
X3260347Y-2119125D01*
X3261032Y-2120168D01*
X3263921Y-2122213D01*
X3269255Y-2124315D01*
X3275121Y-2125647D01*
X3280839Y-2126083D01*
X3285728Y-2125692D01*
X3289879Y-2124588D01*
X3292785Y-2122991D01*
X3294280Y-2121094D01*
X3294760Y-2118815D01*
X3294410Y-2116968D01*
X3293363Y-2115521D01*
X3291409Y-2114389D01*
X3288663Y-2113686D01*
X3283168Y-2112948D01*
X3275658Y-2112239D01*
X3269942Y-2111555D01*
X3266357Y-2110813D01*
X3263287Y-2109701D01*
X3260728Y-2108224D01*
X3257985Y-2105628D01*
X3255898Y-2102211D01*
X3254599Y-2098253D01*
X3254159Y-2093882D01*
X3254650Y-2089043D01*
X3256060Y-2084947D01*
X3258393Y-2081427D01*
X3261780Y-2078392D01*
X3265295Y-2076348D01*
X3269267Y-2074840D01*
X3273766Y-2073893D01*
X3278872Y-2073561D01*
X3284276Y-2073924D01*
X3289161Y-2074973D01*
X3294104Y-2076791D01*
X3300547Y-2079921D01*
X3303214Y-2080952D01*
X3303949Y-2080707D01*
X3305159Y-2079706D01*
X3306505Y-2080551D01*
G37*
G36*
X3353120Y-2075178D02*
G01*
X3358192Y-2076160D01*
X3362058Y-2077616D01*
X3365801Y-2079944D01*
X3368925Y-2082872D01*
X3371500Y-2086437D01*
X3373556Y-2090717D01*
X3374883Y-2095053D01*
X3375717Y-2099983D01*
X3376009Y-2105606D01*
X3375636Y-2111979D01*
X3374582Y-2117425D01*
X3372913Y-2122090D01*
X3370654Y-2126093D01*
X3367785Y-2129522D01*
X3363782Y-2132632D01*
X3359053Y-2134778D01*
X3353717Y-2135955D01*
X3346559Y-2136400D01*
X3315003Y-2136400D01*
X3315003Y-2134246D01*
X3316560Y-2133593D01*
X3317401Y-2132863D01*
X3317883Y-2131854D01*
X3318063Y-2130367D01*
X3318063Y-2125145D01*
X3331155Y-2125145D01*
X3344692Y-2125145D01*
X3349447Y-2124775D01*
X3353166Y-2123767D01*
X3356053Y-2122236D01*
X3358271Y-2120231D01*
X3360125Y-2117525D01*
X3361495Y-2114266D01*
X3362366Y-2110341D01*
X3362678Y-2105606D01*
X3362366Y-2100871D01*
X3361495Y-2096946D01*
X3360125Y-2093687D01*
X3358271Y-2090981D01*
X3355860Y-2088785D01*
X3352868Y-2087244D01*
X3349418Y-2086391D01*
X3344692Y-2086066D01*
X3331155Y-2086066D01*
X3331155Y-2125145D01*
X3318063Y-2125145D01*
X3318063Y-2080844D01*
X3317886Y-2079364D01*
X3317422Y-2078402D01*
X3316603Y-2077693D01*
X3315003Y-2076961D01*
X3315003Y-2074812D01*
X3346559Y-2074812D01*
X3353120Y-2075178D01*
G37*
G36*
X3423329Y-2076951D02*
G01*
X3421783Y-2077953D01*
X3420964Y-2079124D01*
X3420696Y-2080522D01*
X3420953Y-2082326D01*
X3421876Y-2084826D01*
X3442153Y-2128237D01*
X3443792Y-2131399D01*
X3444748Y-2132771D01*
X3445866Y-2133602D01*
X3447714Y-2134241D01*
X3447714Y-2136400D01*
X3425590Y-2136400D01*
X3425590Y-2134236D01*
X3427435Y-2133542D01*
X3428384Y-2132496D01*
X3428698Y-2131051D01*
X3428443Y-2129345D01*
X3427518Y-2126938D01*
X3424594Y-2120768D01*
X3400133Y-2120768D01*
X3397397Y-2127339D01*
X3396611Y-2129612D01*
X3396406Y-2131036D01*
X3396711Y-2132435D01*
X3397644Y-2133489D01*
X3399466Y-2134241D01*
X3399466Y-2136400D01*
X3379493Y-2136400D01*
X3379493Y-2134236D01*
X3381218Y-2133718D01*
X3382245Y-2133005D01*
X3383079Y-2131845D01*
X3384288Y-2129434D01*
X3391898Y-2112015D01*
X3403950Y-2112015D01*
X3420572Y-2112015D01*
X3412054Y-2093506D01*
X3403950Y-2112015D01*
X3391898Y-2112015D01*
X3403843Y-2084669D01*
X3404686Y-2082208D01*
X3404929Y-2080302D01*
X3404673Y-2079082D01*
X3403856Y-2077980D01*
X3402253Y-2076951D01*
X3402253Y-2074812D01*
X3423329Y-2074812D01*
X3423329Y-2076951D01*
G37*
G36*
X3528219Y-2080551D02*
G01*
X3521637Y-2095133D01*
X3520295Y-2094297D01*
X3520042Y-2092641D01*
X3519337Y-2091484D01*
X3516209Y-2089089D01*
X3511349Y-2086926D01*
X3506020Y-2085576D01*
X3500638Y-2085128D01*
X3496182Y-2085511D01*
X3492457Y-2086584D01*
X3489410Y-2088361D01*
X3487867Y-2090328D01*
X3487383Y-2092563D01*
X3487645Y-2094079D01*
X3488417Y-2095267D01*
X3489815Y-2096202D01*
X3492841Y-2097072D01*
X3499351Y-2097942D01*
X3506908Y-2098591D01*
X3513505Y-2099579D01*
X3518431Y-2101088D01*
X3522030Y-2102983D01*
X3524668Y-2105286D01*
X3526813Y-2108268D01*
X3528121Y-2111122D01*
X3528908Y-2114203D01*
X3529177Y-2117574D01*
X3528710Y-2122045D01*
X3527354Y-2125930D01*
X3525082Y-2129372D01*
X3521748Y-2132443D01*
X3518174Y-2134594D01*
X3513887Y-2136224D01*
X3508760Y-2137274D01*
X3502642Y-2137651D01*
X3496642Y-2137280D01*
X3490758Y-2136174D01*
X3484956Y-2134323D01*
X3479207Y-2131706D01*
X3477971Y-2131330D01*
X3477159Y-2131626D01*
X3476253Y-2132697D01*
X3474825Y-2132033D01*
X3480433Y-2116694D01*
X3481835Y-2117334D01*
X3481835Y-2117882D01*
X3482061Y-2119125D01*
X3482746Y-2120168D01*
X3485635Y-2122213D01*
X3490969Y-2124315D01*
X3496835Y-2125647D01*
X3502552Y-2126083D01*
X3507441Y-2125692D01*
X3511593Y-2124588D01*
X3514499Y-2122991D01*
X3515994Y-2121094D01*
X3516474Y-2118815D01*
X3516124Y-2116968D01*
X3515077Y-2115521D01*
X3513123Y-2114389D01*
X3510377Y-2113686D01*
X3504882Y-2112948D01*
X3497372Y-2112239D01*
X3491656Y-2111555D01*
X3488071Y-2110813D01*
X3485001Y-2109701D01*
X3482442Y-2108224D01*
X3479699Y-2105628D01*
X3477612Y-2102211D01*
X3476313Y-2098253D01*
X3475873Y-2093882D01*
X3476364Y-2089043D01*
X3477774Y-2084947D01*
X3480107Y-2081427D01*
X3483494Y-2078392D01*
X3487009Y-2076348D01*
X3490981Y-2074840D01*
X3495480Y-2073893D01*
X3500586Y-2073561D01*
X3505990Y-2073924D01*
X3510874Y-2074973D01*
X3515818Y-2076791D01*
X3522261Y-2079921D01*
X3524928Y-2080952D01*
X3525663Y-2080707D01*
X3526873Y-2079706D01*
X3528219Y-2080551D01*
G37*
G36*
X3589243Y-2114008D02*
G01*
X3597484Y-2127842D01*
X3596197Y-2128912D01*
X3595049Y-2128147D01*
X3594380Y-2127959D01*
X3593390Y-2128289D01*
X3590670Y-2129942D01*
X3584205Y-2133766D01*
X3579066Y-2135970D01*
X3573815Y-2137206D01*
X3567457Y-2137651D01*
X3560880Y-2137154D01*
X3555201Y-2135745D01*
X3550280Y-2133506D01*
X3546005Y-2130465D01*
X3543083Y-2127497D01*
X3540591Y-2124072D01*
X3538507Y-2120148D01*
X3536857Y-2115579D01*
X3535862Y-2110753D01*
X3535524Y-2105606D01*
X3535876Y-2100287D01*
X3536907Y-2095379D01*
X3538606Y-2090806D01*
X3540999Y-2086511D01*
X3544026Y-2082657D01*
X3547510Y-2079498D01*
X3551502Y-2076994D01*
X3556075Y-2075140D01*
X3561325Y-2073972D01*
X3567363Y-2073561D01*
X3573728Y-2074017D01*
X3579044Y-2075290D01*
X3584236Y-2077556D01*
X3590675Y-2081479D01*
X3593392Y-2083174D01*
X3594380Y-2083512D01*
X3595048Y-2083318D01*
X3596201Y-2082525D01*
X3597479Y-2083692D01*
X3589247Y-2097331D01*
X3588020Y-2096300D01*
X3588127Y-2095362D01*
X3588170Y-2094678D01*
X3587716Y-2093230D01*
X3585930Y-2091314D01*
X3581793Y-2088685D01*
X3577659Y-2086861D01*
X3573580Y-2085793D01*
X3569513Y-2085441D01*
X3565210Y-2085794D01*
X3561455Y-2086802D01*
X3558160Y-2088418D01*
X3555254Y-2090639D01*
X3552411Y-2093820D01*
X3550442Y-2097321D01*
X3549258Y-2101211D01*
X3548851Y-2105606D01*
X3549259Y-2110029D01*
X3550444Y-2113937D01*
X3552413Y-2117446D01*
X3555254Y-2120627D01*
X3558183Y-2122827D01*
X3561488Y-2124427D01*
X3565237Y-2125423D01*
X3569513Y-2125771D01*
X3573943Y-2125354D01*
X3578416Y-2124087D01*
X3582985Y-2121907D01*
X3586339Y-2119592D01*
X3587797Y-2117928D01*
X3588170Y-2116690D01*
X3588016Y-2115092D01*
X3589243Y-2114008D01*
G37*
G36*
X3621120Y-2125145D02*
G01*
X3650963Y-2125145D01*
X3652318Y-2124948D01*
X3653173Y-2124442D01*
X3653800Y-2123522D01*
X3654447Y-2121706D01*
X3655977Y-2121706D01*
X3655977Y-2139839D01*
X3654447Y-2139839D01*
X3653833Y-2138047D01*
X3653194Y-2137118D01*
X3652320Y-2136600D01*
X3650963Y-2136400D01*
X3604968Y-2136400D01*
X3604968Y-2134246D01*
X3606525Y-2133593D01*
X3607366Y-2132863D01*
X3607848Y-2131854D01*
X3608028Y-2130367D01*
X3608028Y-2080844D01*
X3607851Y-2079364D01*
X3607387Y-2078402D01*
X3606568Y-2077693D01*
X3604968Y-2076961D01*
X3604968Y-2074812D01*
X3624181Y-2074812D01*
X3624181Y-2076961D01*
X3622584Y-2077661D01*
X3621757Y-2078387D01*
X3621295Y-2079380D01*
X3621120Y-2080879D01*
X3621120Y-2125145D01*
G37*
G36*
X3727642Y-2075284D02*
G01*
X3732740Y-2076528D01*
X3736414Y-2078343D01*
X3739155Y-2080837D01*
X3741248Y-2084235D01*
X3742542Y-2088229D01*
X3742988Y-2092788D01*
X3742610Y-2097238D01*
X3741550Y-2100876D01*
X3739855Y-2103870D01*
X3737487Y-2106329D01*
X3734708Y-2108107D01*
X3731115Y-2109498D01*
X3726521Y-2110423D01*
X3720710Y-2110764D01*
X3701818Y-2110764D01*
X3701818Y-2130255D01*
X3701993Y-2131763D01*
X3702455Y-2132761D01*
X3703281Y-2133502D01*
X3704878Y-2134251D01*
X3704878Y-2136400D01*
X3685666Y-2136400D01*
X3685666Y-2134246D01*
X3687223Y-2133593D01*
X3688063Y-2132863D01*
X3688546Y-2131854D01*
X3688726Y-2130367D01*
X3688726Y-2099510D01*
X3701818Y-2099510D01*
X3719945Y-2099510D01*
X3724545Y-2099180D01*
X3726869Y-2098440D01*
X3728400Y-2097160D01*
X3729324Y-2095340D01*
X3729660Y-2092788D01*
X3729324Y-2090236D01*
X3728400Y-2088415D01*
X3726869Y-2087136D01*
X3724581Y-2086398D01*
X3719945Y-2086066D01*
X3701818Y-2086066D01*
X3701818Y-2099510D01*
X3688726Y-2099510D01*
X3688726Y-2080844D01*
X3688549Y-2079364D01*
X3688085Y-2078402D01*
X3687266Y-2077693D01*
X3685666Y-2076961D01*
X3685666Y-2074812D01*
X3720710Y-2074812D01*
X3727642Y-2075284D01*
G37*
G36*
X3791851Y-2094229D02*
G01*
X3780268Y-2126757D01*
X3779601Y-2129079D01*
X3779417Y-2130694D01*
X3779749Y-2132334D01*
X3780725Y-2133489D01*
X3782571Y-2134236D01*
X3782571Y-2136400D01*
X3762359Y-2136400D01*
X3762359Y-2134246D01*
X3764027Y-2133432D01*
X3764922Y-2132275D01*
X3765227Y-2130694D01*
X3765048Y-2129160D01*
X3764376Y-2126757D01*
X3750220Y-2085490D01*
X3748575Y-2081192D01*
X3747501Y-2079193D01*
X3746164Y-2077899D01*
X3744090Y-2076966D01*
X3744090Y-2074812D01*
X3764735Y-2074812D01*
X3764735Y-2076956D01*
X3762947Y-2077909D01*
X3762050Y-2078994D01*
X3761769Y-2080248D01*
X3761951Y-2081526D01*
X3762718Y-2084078D01*
X3772630Y-2112288D01*
X3782499Y-2084293D01*
X3783216Y-2081902D01*
X3783401Y-2080463D01*
X3783084Y-2079007D01*
X3782107Y-2077856D01*
X3780195Y-2076966D01*
X3780195Y-2074812D01*
X3804280Y-2074812D01*
X3804280Y-2076956D01*
X3802431Y-2077966D01*
X3801479Y-2079172D01*
X3801173Y-2080625D01*
X3801336Y-2081899D01*
X3801977Y-2084078D01*
X3811602Y-2112279D01*
X3821228Y-2083810D01*
X3821701Y-2081987D01*
X3821839Y-2080571D01*
X3821666Y-2079244D01*
X3821202Y-2078348D01*
X3820386Y-2077683D01*
X3818736Y-2076961D01*
X3818736Y-2074812D01*
X3839855Y-2074812D01*
X3839855Y-2076951D01*
X3837695Y-2078134D01*
X3836397Y-2079408D01*
X3835361Y-2081302D01*
X3833726Y-2085490D01*
X3819381Y-2126757D01*
X3818797Y-2128896D01*
X3818625Y-2130587D01*
X3818968Y-2132287D01*
X3819975Y-2133476D01*
X3821877Y-2134236D01*
X3821877Y-2136400D01*
X3800852Y-2136400D01*
X3800852Y-2134251D01*
X3802637Y-2133324D01*
X3803589Y-2132074D01*
X3803908Y-2130426D01*
X3802866Y-2126757D01*
X3791851Y-2094229D01*
G37*
G36*
X3877879Y-2136556D02*
G01*
X3858508Y-2096720D01*
X3858508Y-2130323D01*
X3858682Y-2131804D01*
X3859145Y-2132790D01*
X3859970Y-2133517D01*
X3861568Y-2134251D01*
X3861568Y-2136400D01*
X3843505Y-2136400D01*
X3843505Y-2134246D01*
X3845062Y-2133593D01*
X3845903Y-2132863D01*
X3846385Y-2131854D01*
X3846565Y-2130367D01*
X3846565Y-2080844D01*
X3846389Y-2079360D01*
X3845924Y-2078378D01*
X3845102Y-2077657D01*
X3843505Y-2076961D01*
X3843505Y-2074812D01*
X3866398Y-2074812D01*
X3866398Y-2076956D01*
X3865093Y-2077697D01*
X3864390Y-2078667D01*
X3864154Y-2079926D01*
X3864502Y-2082163D01*
X3865761Y-2085255D01*
X3878981Y-2112430D01*
X3892300Y-2085632D01*
X3894154Y-2081623D01*
X3894578Y-2079653D01*
X3894336Y-2078466D01*
X3893611Y-2077589D01*
X3892232Y-2076971D01*
X3892232Y-2074812D01*
X3914552Y-2074812D01*
X3914552Y-2076961D01*
X3912954Y-2077655D01*
X3912128Y-2078373D01*
X3911666Y-2079355D01*
X3911491Y-2080840D01*
X3911491Y-2130318D01*
X3911665Y-2131803D01*
X3912128Y-2132810D01*
X3912957Y-2133550D01*
X3914552Y-2134251D01*
X3914552Y-2136400D01*
X3895343Y-2136400D01*
X3895343Y-2134246D01*
X3896900Y-2133593D01*
X3897741Y-2132863D01*
X3898223Y-2131854D01*
X3898404Y-2130372D01*
X3898404Y-2096691D01*
X3877879Y-2136556D01*
G37*
G36*
X3996506Y-2112953D02*
G01*
X3984449Y-2112953D01*
X3983090Y-2113152D01*
X3982213Y-2113671D01*
X3981577Y-2114599D01*
X3980965Y-2116392D01*
X3979435Y-2116392D01*
X3979435Y-2099822D01*
X3980965Y-2099822D01*
X3981575Y-2101596D01*
X3982213Y-2102533D01*
X3983091Y-2103059D01*
X3984449Y-2103261D01*
X4010073Y-2103261D01*
X4010073Y-2105410D01*
X4008529Y-2106127D01*
X4007675Y-2106954D01*
X4007195Y-2108077D01*
X4007012Y-2109773D01*
X4007012Y-2122507D01*
X4007192Y-2123990D01*
X4007675Y-2124999D01*
X4008515Y-2125742D01*
X4010073Y-2126435D01*
X4010073Y-2127895D01*
X4002049Y-2132274D01*
X3994244Y-2135297D01*
X3986597Y-2137068D01*
X3979046Y-2137651D01*
X3972363Y-2137151D01*
X3966629Y-2135736D01*
X3961698Y-2133496D01*
X3957448Y-2130465D01*
X3954663Y-2127629D01*
X3952266Y-2124384D01*
X3950237Y-2120695D01*
X3948444Y-2115974D01*
X3947375Y-2111075D01*
X3947015Y-2105933D01*
X3947387Y-2100610D01*
X3948483Y-2095663D01*
X3950301Y-2091017D01*
X3952879Y-2086613D01*
X3956077Y-2082714D01*
X3959711Y-2079524D01*
X3963829Y-2077000D01*
X3968498Y-2075139D01*
X3973807Y-2073971D01*
X3979858Y-2073561D01*
X3985016Y-2073956D01*
X3990919Y-2075225D01*
X3997686Y-2077518D01*
X4002285Y-2079037D01*
X4003071Y-2078845D01*
X4004187Y-2078133D01*
X4005525Y-2078964D01*
X3999049Y-2094654D01*
X3997703Y-2093882D01*
X3997703Y-2093457D01*
X3997422Y-2092341D01*
X3996411Y-2091033D01*
X3994237Y-2089427D01*
X3989780Y-2087212D01*
X3985136Y-2085887D01*
X3980243Y-2085441D01*
X3975974Y-2085805D01*
X3972256Y-2086843D01*
X3968998Y-2088512D01*
X3966129Y-2090810D01*
X3963611Y-2093851D01*
X3961824Y-2097330D01*
X3960726Y-2101332D01*
X3960342Y-2105987D01*
X3960692Y-2110362D01*
X3961693Y-2114133D01*
X3963319Y-2117417D01*
X3965603Y-2120295D01*
X3968419Y-2122585D01*
X3971811Y-2124290D01*
X3975895Y-2125380D01*
X3980815Y-2125771D01*
X3986969Y-2125300D01*
X3992145Y-2123980D01*
X3996506Y-2121907D01*
X3996506Y-2112953D01*
G37*
G36*
X4033718Y-2096354D02*
G01*
X4033718Y-2130318D01*
X4033898Y-2131805D01*
X4034380Y-2132815D01*
X4035220Y-2133555D01*
X4036778Y-2134251D01*
X4036778Y-2136400D01*
X4018715Y-2136400D01*
X4018715Y-2134246D01*
X4020272Y-2133593D01*
X4021113Y-2132863D01*
X4021595Y-2131854D01*
X4021776Y-2130367D01*
X4021776Y-2080844D01*
X4021599Y-2079364D01*
X4021134Y-2078402D01*
X4020316Y-2077693D01*
X4018715Y-2076961D01*
X4018715Y-2074812D01*
X4039552Y-2074812D01*
X4039552Y-2076966D01*
X4037887Y-2077848D01*
X4037449Y-2078949D01*
X4037757Y-2080166D01*
X4038937Y-2081865D01*
X4067395Y-2113832D01*
X4067395Y-2080844D01*
X4067219Y-2079360D01*
X4066753Y-2078378D01*
X4065931Y-2077657D01*
X4064334Y-2076961D01*
X4064334Y-2074812D01*
X4082397Y-2074812D01*
X4082397Y-2076961D01*
X4080800Y-2077655D01*
X4079974Y-2078373D01*
X4079512Y-2079355D01*
X4079337Y-2080840D01*
X4079337Y-2130318D01*
X4079512Y-2131799D01*
X4079974Y-2132785D01*
X4080799Y-2133513D01*
X4082397Y-2134251D01*
X4082397Y-2136400D01*
X4062949Y-2136400D01*
X4062949Y-2134241D01*
X4064616Y-2133451D01*
X4065052Y-2132385D01*
X4064497Y-2130909D01*
X4061889Y-2127778D01*
X4033718Y-2096354D01*
G37*
G36*
X4129665Y-2075178D02*
G01*
X4134738Y-2076160D01*
X4138604Y-2077616D01*
X4142346Y-2079944D01*
X4145471Y-2082872D01*
X4148046Y-2086437D01*
X4150101Y-2090717D01*
X4151429Y-2095053D01*
X4152263Y-2099983D01*
X4152555Y-2105606D01*
X4152182Y-2111979D01*
X4151127Y-2117425D01*
X4149459Y-2122090D01*
X4147200Y-2126093D01*
X4144331Y-2129522D01*
X4140328Y-2132632D01*
X4135599Y-2134778D01*
X4130263Y-2135955D01*
X4123105Y-2136400D01*
X4091548Y-2136400D01*
X4091548Y-2134246D01*
X4093105Y-2133593D01*
X4093946Y-2132863D01*
X4094428Y-2131854D01*
X4094609Y-2130367D01*
X4094609Y-2125145D01*
X4107701Y-2125145D01*
X4121237Y-2125145D01*
X4125993Y-2124775D01*
X4129712Y-2123767D01*
X4132599Y-2122236D01*
X4134817Y-2120231D01*
X4136671Y-2117525D01*
X4138041Y-2114266D01*
X4138912Y-2110341D01*
X4139223Y-2105606D01*
X4138912Y-2100871D01*
X4138041Y-2096946D01*
X4136671Y-2093687D01*
X4134817Y-2090981D01*
X4132405Y-2088785D01*
X4129414Y-2087244D01*
X4125964Y-2086391D01*
X4121237Y-2086066D01*
X4107701Y-2086066D01*
X4107701Y-2125145D01*
X4094609Y-2125145D01*
X4094609Y-2080844D01*
X4094432Y-2079364D01*
X4093968Y-2078402D01*
X4093149Y-2077693D01*
X4091548Y-2076961D01*
X4091548Y-2074812D01*
X4123105Y-2074812D01*
X4129665Y-2075178D01*
G37*
G36*
X4252176Y-2075125D02*
G01*
X4256164Y-2075972D01*
X4259247Y-2077241D01*
X4261600Y-2078861D01*
X4263763Y-2081205D01*
X4265281Y-2083890D01*
X4266209Y-2086984D01*
X4266532Y-2090595D01*
X4266075Y-2094699D01*
X4264814Y-2097785D01*
X4262681Y-2100360D01*
X4259095Y-2103061D01*
X4262539Y-2105190D01*
X4264720Y-2107145D01*
X4266645Y-2110052D01*
X4267833Y-2113593D01*
X4268255Y-2117950D01*
X4267858Y-2122366D01*
X4266728Y-2126097D01*
X4264887Y-2129284D01*
X4262271Y-2132018D01*
X4258545Y-2134341D01*
X4253778Y-2135848D01*
X4247700Y-2136400D01*
X4209449Y-2136400D01*
X4209449Y-2134246D01*
X4211007Y-2133593D01*
X4211847Y-2132863D01*
X4212329Y-2131854D01*
X4212510Y-2130367D01*
X4212510Y-2125145D01*
X4225602Y-2125145D01*
X4245404Y-2125145D01*
X4249225Y-2124729D01*
X4251820Y-2123651D01*
X4253530Y-2122052D01*
X4254558Y-2119904D01*
X4254927Y-2117017D01*
X4254558Y-2114130D01*
X4253530Y-2111982D01*
X4251820Y-2110383D01*
X4249225Y-2109304D01*
X4245404Y-2108888D01*
X4225602Y-2108888D01*
X4225602Y-2125145D01*
X4212510Y-2125145D01*
X4212510Y-2097634D01*
X4225602Y-2097634D01*
X4244926Y-2097634D01*
X4249113Y-2097241D01*
X4251341Y-2096329D01*
X4252348Y-2095291D01*
X4252974Y-2093838D01*
X4253205Y-2091821D01*
X4252978Y-2089841D01*
X4252359Y-2088407D01*
X4251363Y-2087375D01*
X4249151Y-2086463D01*
X4244926Y-2086066D01*
X4225602Y-2086066D01*
X4225602Y-2097634D01*
X4212510Y-2097634D01*
X4212510Y-2080844D01*
X4212333Y-2079364D01*
X4211869Y-2078402D01*
X4211050Y-2077693D01*
X4209449Y-2076961D01*
X4209449Y-2074812D01*
X4247076Y-2074812D01*
X4252176Y-2075125D01*
G37*
G36*
X4315177Y-2076951D02*
G01*
X4313631Y-2077953D01*
X4312812Y-2079124D01*
X4312544Y-2080522D01*
X4312801Y-2082326D01*
X4313724Y-2084826D01*
X4334001Y-2128237D01*
X4335640Y-2131399D01*
X4336596Y-2132771D01*
X4337714Y-2133602D01*
X4339562Y-2134241D01*
X4339562Y-2136400D01*
X4317438Y-2136400D01*
X4317438Y-2134236D01*
X4319283Y-2133542D01*
X4320232Y-2132496D01*
X4320546Y-2131051D01*
X4320291Y-2129345D01*
X4319366Y-2126938D01*
X4316442Y-2120768D01*
X4291981Y-2120768D01*
X4289245Y-2127339D01*
X4288459Y-2129612D01*
X4288254Y-2131036D01*
X4288559Y-2132435D01*
X4289492Y-2133489D01*
X4291314Y-2134241D01*
X4291314Y-2136400D01*
X4271341Y-2136400D01*
X4271341Y-2134236D01*
X4273066Y-2133718D01*
X4274093Y-2133005D01*
X4274927Y-2131845D01*
X4276136Y-2129434D01*
X4283746Y-2112015D01*
X4295798Y-2112015D01*
X4312420Y-2112015D01*
X4303902Y-2093506D01*
X4295798Y-2112015D01*
X4283746Y-2112015D01*
X4295691Y-2084669D01*
X4296534Y-2082208D01*
X4296777Y-2080302D01*
X4296521Y-2079082D01*
X4295704Y-2077980D01*
X4294101Y-2076951D01*
X4294101Y-2074812D01*
X4315177Y-2074812D01*
X4315177Y-2076951D01*
G37*
G36*
X4373589Y-2086066D02*
G01*
X4373589Y-2130284D01*
X4373764Y-2131783D01*
X4374226Y-2132775D01*
X4375051Y-2133508D01*
X4376650Y-2134251D01*
X4376650Y-2136400D01*
X4357441Y-2136400D01*
X4357441Y-2134246D01*
X4358997Y-2133593D01*
X4359839Y-2132854D01*
X4360321Y-2131834D01*
X4360501Y-2130333D01*
X4360501Y-2086066D01*
X4344858Y-2086066D01*
X4343501Y-2086269D01*
X4342622Y-2086799D01*
X4341984Y-2087736D01*
X4341374Y-2089505D01*
X4339844Y-2089505D01*
X4339844Y-2071373D01*
X4341425Y-2071373D01*
X4341993Y-2073122D01*
X4342622Y-2074069D01*
X4343502Y-2074606D01*
X4344858Y-2074812D01*
X4389233Y-2074812D01*
X4390590Y-2074612D01*
X4391464Y-2074094D01*
X4392103Y-2073164D01*
X4392716Y-2071373D01*
X4394247Y-2071373D01*
X4394247Y-2089505D01*
X4392716Y-2089505D01*
X4392105Y-2087736D01*
X4391464Y-2086799D01*
X4390589Y-2086270D01*
X4389233Y-2086066D01*
X4373589Y-2086066D01*
G37*
G36*
X4416845Y-2096071D02*
G01*
X4416845Y-2115141D01*
X4415075Y-2115141D01*
X4414468Y-2113346D01*
X4413848Y-2112420D01*
X4412998Y-2111901D01*
X4411686Y-2111702D01*
X4399923Y-2111702D01*
X4398653Y-2111905D01*
X4397786Y-2112450D01*
X4397157Y-2113392D01*
X4396589Y-2115141D01*
X4394815Y-2115141D01*
X4394815Y-2096071D01*
X4396589Y-2096071D01*
X4397158Y-2097839D01*
X4397786Y-2098777D01*
X4398652Y-2099310D01*
X4399923Y-2099510D01*
X4411686Y-2099510D01*
X4412999Y-2099314D01*
X4413848Y-2098806D01*
X4414466Y-2097885D01*
X4415075Y-2096071D01*
X4416845Y-2096071D01*
G37*
G36*
X4635353Y-2075125D02*
G01*
X4639342Y-2075972D01*
X4642425Y-2077241D01*
X4644777Y-2078861D01*
X4646941Y-2081205D01*
X4648459Y-2083890D01*
X4649387Y-2086984D01*
X4649710Y-2090595D01*
X4649253Y-2094699D01*
X4647992Y-2097785D01*
X4645859Y-2100360D01*
X4642273Y-2103061D01*
X4645716Y-2105190D01*
X4647898Y-2107145D01*
X4649823Y-2110052D01*
X4651011Y-2113593D01*
X4651432Y-2117950D01*
X4651036Y-2122366D01*
X4649906Y-2126097D01*
X4648065Y-2129284D01*
X4645449Y-2132018D01*
X4641723Y-2134341D01*
X4636956Y-2135848D01*
X4630878Y-2136400D01*
X4592627Y-2136400D01*
X4592627Y-2134246D01*
X4594184Y-2133593D01*
X4595025Y-2132863D01*
X4595507Y-2131854D01*
X4595688Y-2130367D01*
X4595688Y-2125145D01*
X4608780Y-2125145D01*
X4628582Y-2125145D01*
X4632403Y-2124729D01*
X4634998Y-2123651D01*
X4636708Y-2122052D01*
X4637736Y-2119904D01*
X4638105Y-2117017D01*
X4637736Y-2114130D01*
X4636708Y-2111982D01*
X4634998Y-2110383D01*
X4632403Y-2109304D01*
X4628582Y-2108888D01*
X4608780Y-2108888D01*
X4608780Y-2125145D01*
X4595688Y-2125145D01*
X4595688Y-2097634D01*
X4608780Y-2097634D01*
X4628104Y-2097634D01*
X4632291Y-2097241D01*
X4634519Y-2096329D01*
X4635526Y-2095291D01*
X4636152Y-2093838D01*
X4636383Y-2091821D01*
X4636156Y-2089841D01*
X4635537Y-2088407D01*
X4634541Y-2087375D01*
X4632329Y-2086463D01*
X4628104Y-2086066D01*
X4608780Y-2086066D01*
X4608780Y-2097634D01*
X4595688Y-2097634D01*
X4595688Y-2080844D01*
X4595511Y-2079364D01*
X4595047Y-2078402D01*
X4594228Y-2077693D01*
X4592627Y-2076961D01*
X4592627Y-2074812D01*
X4630254Y-2074812D01*
X4635353Y-2075125D01*
G37*
G36*
X4698355Y-2076951D02*
G01*
X4696809Y-2077953D01*
X4695990Y-2079124D01*
X4695722Y-2080522D01*
X4695979Y-2082326D01*
X4696902Y-2084826D01*
X4717179Y-2128237D01*
X4718818Y-2131399D01*
X4719773Y-2132771D01*
X4720892Y-2133602D01*
X4722740Y-2134241D01*
X4722740Y-2136400D01*
X4700616Y-2136400D01*
X4700616Y-2134236D01*
X4702461Y-2133542D01*
X4703410Y-2132496D01*
X4703724Y-2131051D01*
X4703469Y-2129345D01*
X4702544Y-2126938D01*
X4699620Y-2120768D01*
X4675159Y-2120768D01*
X4672423Y-2127339D01*
X4671637Y-2129612D01*
X4671432Y-2131036D01*
X4671737Y-2132435D01*
X4672670Y-2133489D01*
X4674492Y-2134241D01*
X4674492Y-2136400D01*
X4654518Y-2136400D01*
X4654518Y-2134236D01*
X4656244Y-2133718D01*
X4657271Y-2133005D01*
X4658105Y-2131845D01*
X4659314Y-2129434D01*
X4666924Y-2112015D01*
X4678976Y-2112015D01*
X4695598Y-2112015D01*
X4687080Y-2093506D01*
X4678976Y-2112015D01*
X4666924Y-2112015D01*
X4678869Y-2084669D01*
X4679711Y-2082208D01*
X4679955Y-2080302D01*
X4679699Y-2079082D01*
X4678882Y-2077980D01*
X4677279Y-2076951D01*
X4677279Y-2074812D01*
X4698355Y-2074812D01*
X4698355Y-2076951D01*
G37*
G36*
X4756767Y-2086066D02*
G01*
X4756767Y-2130284D01*
X4756942Y-2131783D01*
X4757404Y-2132775D01*
X4758229Y-2133508D01*
X4759827Y-2134251D01*
X4759827Y-2136400D01*
X4740619Y-2136400D01*
X4740619Y-2134246D01*
X4742174Y-2133593D01*
X4743017Y-2132854D01*
X4743499Y-2131834D01*
X4743679Y-2130333D01*
X4743679Y-2086066D01*
X4728036Y-2086066D01*
X4726679Y-2086269D01*
X4725800Y-2086799D01*
X4725162Y-2087736D01*
X4724552Y-2089505D01*
X4723022Y-2089505D01*
X4723022Y-2071373D01*
X4724603Y-2071373D01*
X4725171Y-2073122D01*
X4725800Y-2074069D01*
X4726680Y-2074606D01*
X4728036Y-2074812D01*
X4772411Y-2074812D01*
X4773768Y-2074612D01*
X4774642Y-2074094D01*
X4775281Y-2073164D01*
X4775894Y-2071373D01*
X4777425Y-2071373D01*
X4777425Y-2089505D01*
X4775894Y-2089505D01*
X4775283Y-2087736D01*
X4774642Y-2086799D01*
X4773767Y-2086270D01*
X4772411Y-2086066D01*
X4756767Y-2086066D01*
G37*
G36*
X4810845Y-2104199D02*
G01*
X4793910Y-2104199D01*
X4792729Y-2104395D01*
X4791940Y-2104917D01*
X4791369Y-2105834D01*
X4790811Y-2107638D01*
X4789183Y-2107638D01*
X4789183Y-2089818D01*
X4790867Y-2089818D01*
X4791380Y-2091622D01*
X4791940Y-2092544D01*
X4792732Y-2093063D01*
X4793910Y-2093257D01*
X4810845Y-2093257D01*
X4810845Y-2074162D01*
X4810671Y-2072840D01*
X4810208Y-2071969D01*
X4809395Y-2071340D01*
X4807785Y-2070713D01*
X4807785Y-2068559D01*
X4823552Y-2068559D01*
X4823552Y-2070708D01*
X4821938Y-2071372D01*
X4821129Y-2071988D01*
X4820668Y-2072846D01*
X4820492Y-2074206D01*
X4820492Y-2093257D01*
X4837426Y-2093257D01*
X4838597Y-2093062D01*
X4839367Y-2092544D01*
X4839921Y-2091626D01*
X4840474Y-2089818D01*
X4842154Y-2089818D01*
X4842154Y-2107638D01*
X4840474Y-2107638D01*
X4839921Y-2105831D01*
X4839367Y-2104917D01*
X4838596Y-2104395D01*
X4837426Y-2104199D01*
X4820492Y-2104199D01*
X4820492Y-2123260D01*
X4820664Y-2124578D01*
X4821129Y-2125473D01*
X4821944Y-2126115D01*
X4823552Y-2126743D01*
X4823552Y-2128897D01*
X4807785Y-2128897D01*
X4807785Y-2126738D01*
X4809394Y-2126155D01*
X4810208Y-2125521D01*
X4810672Y-2124626D01*
X4810845Y-2123304D01*
X4810845Y-2104199D01*
G37*
D13*
G36*
X5656564Y-2339320D02*
G01*
X5301180Y-2339320D01*
X5301180Y-2120921D01*
X5323402Y-2120921D01*
X5323402Y-2126295D01*
X5325686Y-2128032D01*
X5326858Y-2129800D01*
X5327521Y-2132220D01*
X5327774Y-2135955D01*
X5327774Y-2293467D01*
X5327521Y-2297203D01*
X5326858Y-2299634D01*
X5325686Y-2301392D01*
X5323402Y-2303127D01*
X5323402Y-2308500D01*
X5408307Y-2308500D01*
X5410118Y-2308992D01*
X5411323Y-2310295D01*
X5412208Y-2312609D01*
X5413076Y-2317097D01*
X5415604Y-2317097D01*
X5415604Y-2290841D01*
X5426839Y-2290841D01*
X5429092Y-2293186D01*
X5430965Y-2290648D01*
X5431870Y-2290084D01*
X5436364Y-2293638D01*
X5445599Y-2301633D01*
X5454744Y-2307221D01*
X5463856Y-2310529D01*
X5472995Y-2311626D01*
X5483128Y-2310332D01*
X5492381Y-2306570D01*
X5500175Y-2300912D01*
X5506030Y-2293963D01*
X5510315Y-2285846D01*
X5513884Y-2275037D01*
X5515994Y-2263419D01*
X5516708Y-2250688D01*
X5516024Y-2238544D01*
X5513985Y-2227204D01*
X5510748Y-2217199D01*
X5509370Y-2214637D01*
X5528334Y-2214637D01*
X5528966Y-2231003D01*
X5530823Y-2246156D01*
X5533890Y-2260323D01*
X5537488Y-2271749D01*
X5541860Y-2281821D01*
X5547061Y-2290646D01*
X5554356Y-2299533D01*
X5562713Y-2306073D01*
X5572315Y-2310181D01*
X5583386Y-2311626D01*
X5594069Y-2310353D01*
X5602529Y-2306888D01*
X5610891Y-2300493D01*
X5622349Y-2288533D01*
X5627524Y-2283035D01*
X5629151Y-2282012D01*
X5630333Y-2282730D01*
X5632277Y-2285676D01*
X5634341Y-2282806D01*
X5621140Y-2242982D01*
X5619040Y-2245949D01*
X5619192Y-2249674D01*
X5618798Y-2253277D01*
X5617519Y-2256891D01*
X5615456Y-2260274D01*
X5611499Y-2265184D01*
X5603256Y-2272789D01*
X5594789Y-2277293D01*
X5585981Y-2278800D01*
X5578021Y-2277696D01*
X5571267Y-2274583D01*
X5565520Y-2269662D01*
X5560623Y-2262998D01*
X5555727Y-2252988D01*
X5552297Y-2241791D01*
X5550213Y-2229158D01*
X5549491Y-2214711D01*
X5550213Y-2200263D01*
X5552297Y-2187631D01*
X5555727Y-2176433D01*
X5560623Y-2166424D01*
X5565520Y-2159759D01*
X5571267Y-2154839D01*
X5578021Y-2151725D01*
X5585981Y-2150621D01*
X5594795Y-2152103D01*
X5603265Y-2156529D01*
X5611505Y-2163994D01*
X5615461Y-2168813D01*
X5617519Y-2172139D01*
X5618799Y-2175693D01*
X5619192Y-2179222D01*
X5619040Y-2183032D01*
X5621146Y-2185792D01*
X5634341Y-2146225D01*
X5632277Y-2143380D01*
X5630334Y-2146315D01*
X5629151Y-2147031D01*
X5627516Y-2146031D01*
X5622349Y-2140681D01*
X5610788Y-2128722D01*
X5602498Y-2122436D01*
X5594127Y-2119046D01*
X5583453Y-2117795D01*
X5573168Y-2118993D01*
X5564201Y-2122400D01*
X5556368Y-2127808D01*
X5549513Y-2135111D01*
X5543512Y-2144312D01*
X5538281Y-2155518D01*
X5533945Y-2168570D01*
X5530858Y-2182629D01*
X5528978Y-2197899D01*
X5528334Y-2214637D01*
X5509370Y-2214637D01*
X5506584Y-2209460D01*
X5501710Y-2203792D01*
X5496045Y-2199446D01*
X5489643Y-2196423D01*
X5480529Y-2193840D01*
X5469807Y-2191654D01*
X5459969Y-2189269D01*
X5455769Y-2187588D01*
X5452144Y-2184141D01*
X5450208Y-2179607D01*
X5449559Y-2173715D01*
X5450148Y-2167822D01*
X5452008Y-2162150D01*
X5454784Y-2157549D01*
X5458438Y-2154126D01*
X5464185Y-2151548D01*
X5471151Y-2150621D01*
X5479242Y-2151728D01*
X5486610Y-2154945D01*
X5493365Y-2160192D01*
X5499599Y-2167486D01*
X5502697Y-2173007D01*
X5503476Y-2177146D01*
X5503391Y-2179540D01*
X5505595Y-2182055D01*
X5516909Y-2137310D01*
X5514711Y-2134929D01*
X5512762Y-2137506D01*
X5511390Y-2138189D01*
X5506609Y-2135027D01*
X5495448Y-2126323D01*
X5487313Y-2121483D01*
X5479394Y-2118745D01*
X5470607Y-2117795D01*
X5461791Y-2118766D01*
X5454365Y-2121483D01*
X5448121Y-2125712D01*
X5442881Y-2131315D01*
X5438501Y-2138251D01*
X5434918Y-2146535D01*
X5432388Y-2155714D01*
X5430846Y-2165972D01*
X5430313Y-2177574D01*
X5430688Y-2187028D01*
X5431775Y-2195499D01*
X5433549Y-2203158D01*
X5436258Y-2210774D01*
X5439525Y-2216926D01*
X5443405Y-2221745D01*
X5447841Y-2225564D01*
X5452185Y-2228120D01*
X5467176Y-2232296D01*
X5477696Y-2234470D01*
X5487354Y-2237195D01*
X5491710Y-2239477D01*
X5494507Y-2242767D01*
X5496051Y-2246946D01*
X5496576Y-2252288D01*
X5496074Y-2258055D01*
X5494488Y-2263828D01*
X5492089Y-2268760D01*
X5488901Y-2272718D01*
X5484544Y-2275988D01*
X5479448Y-2278064D01*
X5473477Y-2278800D01*
X5465104Y-2277426D01*
X5455916Y-2273085D01*
X5449832Y-2268644D01*
X5445386Y-2264089D01*
X5442244Y-2259493D01*
X5440046Y-2254017D01*
X5439375Y-2248453D01*
X5439375Y-2246426D01*
X5437103Y-2244240D01*
X5426839Y-2290841D01*
X5415604Y-2290841D01*
X5415604Y-2268640D01*
X5413076Y-2268640D01*
X5412208Y-2273128D01*
X5411323Y-2275442D01*
X5410118Y-2276745D01*
X5408307Y-2277237D01*
X5348522Y-2277237D01*
X5348522Y-2226434D01*
X5386172Y-2226434D01*
X5387980Y-2226944D01*
X5389189Y-2228303D01*
X5390079Y-2230650D01*
X5390941Y-2235032D01*
X5393469Y-2235032D01*
X5393469Y-2187356D01*
X5390941Y-2187356D01*
X5390074Y-2191844D01*
X5389189Y-2194158D01*
X5387983Y-2195461D01*
X5386172Y-2195953D01*
X5348522Y-2195953D01*
X5348522Y-2152185D01*
X5406664Y-2152185D01*
X5408479Y-2152686D01*
X5409687Y-2154016D01*
X5410574Y-2156343D01*
X5411439Y-2160782D01*
X5413967Y-2160782D01*
X5413967Y-2112324D01*
X5411439Y-2112324D01*
X5410575Y-2116755D01*
X5409687Y-2119090D01*
X5408479Y-2120420D01*
X5406664Y-2120921D01*
X5323402Y-2120921D01*
X5301180Y-2120921D01*
X5301180Y-2090102D01*
X5656564Y-2090102D01*
X5656564Y-2339320D01*
G37*
D14*
G36*
X5349051Y-2369287D02*
G01*
X5349051Y-2382684D01*
X5349121Y-2383436D01*
X5349307Y-2383937D01*
X5349630Y-2384296D01*
X5350231Y-2384623D01*
X5350231Y-2385700D01*
X5342269Y-2385700D01*
X5342269Y-2384625D01*
X5342885Y-2384278D01*
X5343202Y-2383927D01*
X5343381Y-2383441D01*
X5343449Y-2382693D01*
X5343449Y-2351191D01*
X5343381Y-2350444D01*
X5343202Y-2349960D01*
X5342885Y-2349606D01*
X5342269Y-2349259D01*
X5342269Y-2348184D01*
X5364603Y-2348184D01*
X5365092Y-2348088D01*
X5365417Y-2347833D01*
X5365655Y-2347372D01*
X5365890Y-2346465D01*
X5366573Y-2346465D01*
X5366573Y-2356156D01*
X5365890Y-2356156D01*
X5365655Y-2355247D01*
X5365417Y-2354789D01*
X5365092Y-2354534D01*
X5364603Y-2354437D01*
X5349051Y-2354437D01*
X5349051Y-2363191D01*
X5359197Y-2363191D01*
X5359703Y-2363089D01*
X5360031Y-2362824D01*
X5360271Y-2362357D01*
X5360504Y-2361471D01*
X5361187Y-2361471D01*
X5361187Y-2371006D01*
X5360504Y-2371006D01*
X5360270Y-2370119D01*
X5360031Y-2369653D01*
X5359703Y-2369388D01*
X5359197Y-2369287D01*
X5349051Y-2369287D01*
G37*
G36*
X5382476Y-2354533D02*
G01*
X5384640Y-2355255D01*
X5386554Y-2356416D01*
X5388256Y-2358010D01*
X5389677Y-2359950D01*
X5390766Y-2362132D01*
X5391551Y-2364589D01*
X5392037Y-2367372D01*
X5392206Y-2370550D01*
X5392041Y-2373507D01*
X5391564Y-2376139D01*
X5390786Y-2378505D01*
X5389694Y-2380649D01*
X5388257Y-2382596D01*
X5386573Y-2384188D01*
X5384671Y-2385349D01*
X5382514Y-2386072D01*
X5380054Y-2386325D01*
X5377594Y-2386072D01*
X5375436Y-2385349D01*
X5373535Y-2384188D01*
X5371850Y-2382596D01*
X5370414Y-2380651D01*
X5369319Y-2378488D01*
X5368534Y-2376076D01*
X5368051Y-2373369D01*
X5367883Y-2370303D01*
X5373024Y-2370303D01*
X5373145Y-2372375D01*
X5373495Y-2374214D01*
X5374067Y-2375862D01*
X5374872Y-2377352D01*
X5375931Y-2378666D01*
X5377128Y-2379605D01*
X5378490Y-2380184D01*
X5380054Y-2380385D01*
X5381608Y-2380184D01*
X5382963Y-2379607D01*
X5384158Y-2378668D01*
X5385217Y-2377352D01*
X5386025Y-2375874D01*
X5386597Y-2374251D01*
X5386945Y-2372454D01*
X5387065Y-2370440D01*
X5386941Y-2368235D01*
X5386586Y-2366332D01*
X5386013Y-2364677D01*
X5385217Y-2363230D01*
X5384152Y-2361947D01*
X5382953Y-2361022D01*
X5381592Y-2360441D01*
X5380036Y-2360221D01*
X5378480Y-2360420D01*
X5377123Y-2360994D01*
X5375930Y-2361924D01*
X5374872Y-2363227D01*
X5374068Y-2364717D01*
X5373496Y-2366369D01*
X5373145Y-2368216D01*
X5373024Y-2370303D01*
X5367883Y-2370303D01*
X5368052Y-2367200D01*
X5368538Y-2364477D01*
X5369324Y-2362067D01*
X5370419Y-2359921D01*
X5371852Y-2358008D01*
X5373541Y-2356446D01*
X5375441Y-2355296D01*
X5377585Y-2354564D01*
X5380017Y-2354281D01*
X5382476Y-2354533D01*
G37*
G36*
X5410403Y-2355022D02*
G01*
X5411950Y-2355304D01*
X5413280Y-2355871D01*
X5414438Y-2356745D01*
X5415403Y-2357967D01*
X5416098Y-2359506D01*
X5416537Y-2361430D01*
X5416695Y-2363843D01*
X5416526Y-2366254D01*
X5416055Y-2368165D01*
X5415307Y-2369687D01*
X5414295Y-2370875D01*
X5412871Y-2371892D01*
X5410923Y-2372699D01*
X5414784Y-2380603D01*
X5415825Y-2382607D01*
X5416479Y-2383604D01*
X5417157Y-2384250D01*
X5417948Y-2384618D01*
X5417948Y-2385700D01*
X5409174Y-2385700D01*
X5409174Y-2384623D01*
X5409937Y-2384088D01*
X5410133Y-2383465D01*
X5410022Y-2382846D01*
X5409553Y-2381697D01*
X5405436Y-2373038D01*
X5400556Y-2373038D01*
X5400556Y-2382654D01*
X5400624Y-2383397D01*
X5400802Y-2383890D01*
X5401120Y-2384256D01*
X5401737Y-2384625D01*
X5401737Y-2385700D01*
X5394326Y-2385700D01*
X5394326Y-2384623D01*
X5394927Y-2384296D01*
X5395251Y-2383932D01*
X5395437Y-2383427D01*
X5395506Y-2382684D01*
X5395506Y-2367411D01*
X5400556Y-2367411D01*
X5407955Y-2367411D01*
X5409524Y-2367250D01*
X5410441Y-2366864D01*
X5411049Y-2366236D01*
X5411418Y-2365309D01*
X5411554Y-2363972D01*
X5411455Y-2362748D01*
X5411188Y-2361887D01*
X5410769Y-2361290D01*
X5409817Y-2360764D01*
X5407955Y-2360533D01*
X5400556Y-2360533D01*
X5400556Y-2367411D01*
X5395506Y-2367411D01*
X5395506Y-2357922D01*
X5395438Y-2357182D01*
X5395259Y-2356701D01*
X5394943Y-2356346D01*
X5394326Y-2355981D01*
X5394326Y-2354906D01*
X5407917Y-2354906D01*
X5410403Y-2355022D01*
G37*
G36*
X5453708Y-2351462D02*
G01*
X5450653Y-2360411D01*
X5450058Y-2359908D01*
X5450081Y-2359429D01*
X5449871Y-2358601D01*
X5449034Y-2357497D01*
X5447351Y-2356038D01*
X5445527Y-2354989D01*
X5443538Y-2354346D01*
X5441353Y-2354124D01*
X5439473Y-2354310D01*
X5437921Y-2354825D01*
X5436935Y-2355510D01*
X5436185Y-2356430D01*
X5435683Y-2357564D01*
X5435524Y-2358743D01*
X5435699Y-2359921D01*
X5436222Y-2360828D01*
X5437200Y-2361518D01*
X5438334Y-2361854D01*
X5440991Y-2362331D01*
X5443886Y-2362768D01*
X5446346Y-2363285D01*
X5448075Y-2363889D01*
X5449605Y-2364758D01*
X5450920Y-2365892D01*
X5452045Y-2367440D01*
X5452919Y-2369441D01*
X5453469Y-2371709D01*
X5453654Y-2374138D01*
X5453461Y-2376684D01*
X5452891Y-2379007D01*
X5451928Y-2381169D01*
X5450771Y-2382793D01*
X5449190Y-2384182D01*
X5447086Y-2385314D01*
X5444587Y-2386066D01*
X5441851Y-2386325D01*
X5439384Y-2386106D01*
X5436924Y-2385444D01*
X5434454Y-2384327D01*
X5431961Y-2382728D01*
X5430748Y-2382017D01*
X5430503Y-2382130D01*
X5429998Y-2382637D01*
X5429389Y-2382168D01*
X5432161Y-2372848D01*
X5432774Y-2373285D01*
X5432774Y-2373691D01*
X5432955Y-2374803D01*
X5433549Y-2375899D01*
X5434397Y-2376818D01*
X5435597Y-2377729D01*
X5437240Y-2378617D01*
X5439721Y-2379485D01*
X5441982Y-2379760D01*
X5443594Y-2379613D01*
X5444970Y-2379198D01*
X5446146Y-2378544D01*
X5447007Y-2377752D01*
X5447654Y-2376766D01*
X5448083Y-2375611D01*
X5448218Y-2374458D01*
X5448077Y-2373389D01*
X5447660Y-2372553D01*
X5446904Y-2371895D01*
X5445728Y-2371439D01*
X5443121Y-2370894D01*
X5440280Y-2370459D01*
X5436233Y-2369624D01*
X5435060Y-2369113D01*
X5433862Y-2368349D01*
X5432814Y-2367385D01*
X5431932Y-2366155D01*
X5431201Y-2364632D01*
X5430722Y-2363100D01*
X5430429Y-2361406D01*
X5430327Y-2359515D01*
X5430471Y-2357194D01*
X5430888Y-2355143D01*
X5431571Y-2353307D01*
X5432538Y-2351650D01*
X5433721Y-2350263D01*
X5435135Y-2349142D01*
X5436821Y-2348297D01*
X5438826Y-2347753D01*
X5441207Y-2347559D01*
X5443579Y-2347749D01*
X5445717Y-2348297D01*
X5447914Y-2349265D01*
X5450927Y-2351005D01*
X5452218Y-2351638D01*
X5452588Y-2351501D01*
X5453115Y-2350986D01*
X5453708Y-2351462D01*
G37*
G36*
X5476519Y-2366051D02*
G01*
X5478068Y-2367172D01*
X5479199Y-2368534D01*
X5479986Y-2370139D01*
X5480467Y-2372034D01*
X5480636Y-2374301D01*
X5480485Y-2376663D01*
X5480053Y-2378719D01*
X5479347Y-2380530D01*
X5478349Y-2382138D01*
X5477013Y-2383560D01*
X5475411Y-2384723D01*
X5473581Y-2385588D01*
X5471488Y-2386133D01*
X5469093Y-2386325D01*
X5466576Y-2386135D01*
X5464224Y-2385578D01*
X5462018Y-2384667D01*
X5459940Y-2383409D01*
X5458365Y-2382399D01*
X5457751Y-2382188D01*
X5457290Y-2382387D01*
X5456503Y-2383214D01*
X5455893Y-2382740D01*
X5458883Y-2372467D01*
X5459535Y-2372882D01*
X5459426Y-2373498D01*
X5459527Y-2374393D01*
X5459843Y-2375263D01*
X5460420Y-2376143D01*
X5461335Y-2377067D01*
X5462555Y-2377938D01*
X5464146Y-2378739D01*
X5466587Y-2379507D01*
X5469019Y-2379760D01*
X5470548Y-2379626D01*
X5471858Y-2379250D01*
X5472983Y-2378656D01*
X5473926Y-2377819D01*
X5474555Y-2376835D01*
X5474925Y-2375684D01*
X5475053Y-2374311D01*
X5474886Y-2372728D01*
X5474404Y-2371465D01*
X5473578Y-2370442D01*
X5472551Y-2369767D01*
X5471131Y-2369305D01*
X5469204Y-2369131D01*
X5467579Y-2369237D01*
X5466785Y-2369473D01*
X5466250Y-2369982D01*
X5465943Y-2370850D01*
X5465259Y-2370850D01*
X5465259Y-2361627D01*
X5465943Y-2361627D01*
X5466276Y-2362728D01*
X5466749Y-2363291D01*
X5467477Y-2363542D01*
X5469074Y-2363660D01*
X5470867Y-2363477D01*
X5472222Y-2362987D01*
X5473233Y-2362255D01*
X5473931Y-2361348D01*
X5474339Y-2360241D01*
X5474481Y-2358865D01*
X5474326Y-2357467D01*
X5473872Y-2356321D01*
X5473080Y-2355360D01*
X5472107Y-2354719D01*
X5470796Y-2354286D01*
X5469055Y-2354124D01*
X5466626Y-2354407D01*
X5464467Y-2355222D01*
X5462533Y-2356547D01*
X5461720Y-2357440D01*
X5461317Y-2358240D01*
X5461196Y-2358992D01*
X5461251Y-2359513D01*
X5461449Y-2360243D01*
X5460913Y-2360878D01*
X5456603Y-2352959D01*
X5457134Y-2352393D01*
X5457797Y-2352777D01*
X5458155Y-2352871D01*
X5458525Y-2352746D01*
X5459121Y-2352253D01*
X5461515Y-2350196D01*
X5464025Y-2348738D01*
X5466675Y-2347858D01*
X5469499Y-2347559D01*
X5472125Y-2347841D01*
X5474349Y-2348637D01*
X5476239Y-2349896D01*
X5477227Y-2350900D01*
X5478045Y-2352065D01*
X5478710Y-2353401D01*
X5479214Y-2354941D01*
X5479518Y-2356597D01*
X5479622Y-2358399D01*
X5479427Y-2360737D01*
X5478862Y-2362745D01*
X5477915Y-2364503D01*
X5476519Y-2366051D01*
G37*
G36*
X5517333Y-2351462D02*
G01*
X5514278Y-2360411D01*
X5513682Y-2359908D01*
X5513706Y-2359429D01*
X5513495Y-2358601D01*
X5512659Y-2357497D01*
X5510976Y-2356038D01*
X5509152Y-2354989D01*
X5507162Y-2354346D01*
X5504978Y-2354124D01*
X5503097Y-2354310D01*
X5501545Y-2354825D01*
X5500559Y-2355510D01*
X5499809Y-2356430D01*
X5499307Y-2357564D01*
X5499148Y-2358743D01*
X5499323Y-2359921D01*
X5499846Y-2360828D01*
X5500825Y-2361518D01*
X5501959Y-2361854D01*
X5504615Y-2362331D01*
X5507510Y-2362768D01*
X5509971Y-2363285D01*
X5511699Y-2363889D01*
X5513229Y-2364758D01*
X5514545Y-2365892D01*
X5515669Y-2367440D01*
X5516543Y-2369441D01*
X5517094Y-2371709D01*
X5517278Y-2374138D01*
X5517085Y-2376684D01*
X5516516Y-2379007D01*
X5515552Y-2381169D01*
X5514395Y-2382793D01*
X5512814Y-2384182D01*
X5510710Y-2385314D01*
X5508212Y-2386066D01*
X5505476Y-2386325D01*
X5503008Y-2386106D01*
X5500548Y-2385444D01*
X5498079Y-2384327D01*
X5495585Y-2382728D01*
X5494372Y-2382017D01*
X5494128Y-2382130D01*
X5493622Y-2382637D01*
X5493014Y-2382168D01*
X5495785Y-2372848D01*
X5496398Y-2373285D01*
X5496398Y-2373691D01*
X5496579Y-2374803D01*
X5497173Y-2375899D01*
X5498021Y-2376818D01*
X5499222Y-2377729D01*
X5500864Y-2378617D01*
X5503345Y-2379485D01*
X5505606Y-2379760D01*
X5507218Y-2379613D01*
X5508594Y-2379198D01*
X5509770Y-2378544D01*
X5510631Y-2377752D01*
X5511279Y-2376766D01*
X5511707Y-2375611D01*
X5511843Y-2374458D01*
X5511701Y-2373389D01*
X5511284Y-2372553D01*
X5510529Y-2371895D01*
X5509353Y-2371439D01*
X5506745Y-2370894D01*
X5503904Y-2370459D01*
X5499857Y-2369624D01*
X5498684Y-2369113D01*
X5497486Y-2368349D01*
X5496439Y-2367385D01*
X5495557Y-2366155D01*
X5494825Y-2364632D01*
X5494346Y-2363100D01*
X5494053Y-2361406D01*
X5493952Y-2359515D01*
X5494095Y-2357194D01*
X5494512Y-2355143D01*
X5495195Y-2353307D01*
X5496162Y-2351650D01*
X5497345Y-2350263D01*
X5498760Y-2349142D01*
X5500446Y-2348297D01*
X5502451Y-2347753D01*
X5504831Y-2347559D01*
X5507203Y-2347749D01*
X5509342Y-2348297D01*
X5511538Y-2349265D01*
X5514551Y-2351005D01*
X5515842Y-2351638D01*
X5516213Y-2351501D01*
X5516739Y-2350986D01*
X5517333Y-2351462D01*
G37*
G36*
X5542748Y-2349259D02*
G01*
X5542131Y-2349606D01*
X5541813Y-2349958D01*
X5541635Y-2350438D01*
X5541568Y-2351162D01*
X5541568Y-2373038D01*
X5542898Y-2373038D01*
X5543404Y-2372938D01*
X5543732Y-2372675D01*
X5543972Y-2372207D01*
X5544205Y-2371319D01*
X5544888Y-2371319D01*
X5544888Y-2381167D01*
X5544205Y-2381167D01*
X5543972Y-2380281D01*
X5543732Y-2379814D01*
X5543404Y-2379549D01*
X5542898Y-2379447D01*
X5541568Y-2379447D01*
X5541568Y-2382725D01*
X5541635Y-2383459D01*
X5541813Y-2383937D01*
X5542131Y-2384284D01*
X5542748Y-2384625D01*
X5542748Y-2385700D01*
X5534952Y-2385700D01*
X5534952Y-2384625D01*
X5535569Y-2384283D01*
X5535885Y-2383937D01*
X5536064Y-2383458D01*
X5536132Y-2382725D01*
X5536132Y-2379447D01*
X5522923Y-2379447D01*
X5521962Y-2379541D01*
X5521543Y-2379738D01*
X5521286Y-2380170D01*
X5521067Y-2381167D01*
X5520399Y-2381167D01*
X5520399Y-2373087D01*
X5520428Y-2373038D01*
X5526581Y-2373038D01*
X5536132Y-2373038D01*
X5536132Y-2357067D01*
X5526581Y-2373038D01*
X5520428Y-2373038D01*
X5532917Y-2352310D01*
X5533572Y-2350998D01*
X5533715Y-2350373D01*
X5533625Y-2349887D01*
X5533344Y-2349521D01*
X5532775Y-2349266D01*
X5532775Y-2348184D01*
X5542748Y-2348184D01*
X5542748Y-2349259D01*
G37*
G36*
X5573428Y-2355063D02*
G01*
X5574966Y-2355486D01*
X5576155Y-2356121D01*
X5577063Y-2356931D01*
X5577897Y-2358103D01*
X5578483Y-2359445D01*
X5578841Y-2360992D01*
X5578965Y-2362797D01*
X5578789Y-2364850D01*
X5578303Y-2366393D01*
X5577480Y-2367680D01*
X5576097Y-2369030D01*
X5577425Y-2370095D01*
X5578266Y-2371072D01*
X5579009Y-2372526D01*
X5579467Y-2374297D01*
X5579630Y-2376475D01*
X5579477Y-2378683D01*
X5579041Y-2380548D01*
X5578331Y-2382142D01*
X5577322Y-2383509D01*
X5575885Y-2384670D01*
X5574046Y-2385424D01*
X5571701Y-2385700D01*
X5556948Y-2385700D01*
X5556948Y-2384623D01*
X5557548Y-2384296D01*
X5557873Y-2383932D01*
X5558059Y-2383427D01*
X5558128Y-2382684D01*
X5558128Y-2380073D01*
X5563178Y-2380073D01*
X5570816Y-2380073D01*
X5572290Y-2379865D01*
X5573291Y-2379326D01*
X5573950Y-2378526D01*
X5574347Y-2377452D01*
X5574489Y-2376008D01*
X5574347Y-2374565D01*
X5573950Y-2373491D01*
X5573291Y-2372691D01*
X5572290Y-2372152D01*
X5570816Y-2371944D01*
X5563178Y-2371944D01*
X5563178Y-2380073D01*
X5558128Y-2380073D01*
X5558128Y-2366317D01*
X5563178Y-2366317D01*
X5570631Y-2366317D01*
X5572247Y-2366120D01*
X5573106Y-2365665D01*
X5573494Y-2365146D01*
X5573736Y-2364419D01*
X5573825Y-2363410D01*
X5573737Y-2362421D01*
X5573498Y-2361703D01*
X5573114Y-2361188D01*
X5572261Y-2360731D01*
X5570631Y-2360533D01*
X5563178Y-2360533D01*
X5563178Y-2366317D01*
X5558128Y-2366317D01*
X5558128Y-2357922D01*
X5558060Y-2357182D01*
X5557881Y-2356701D01*
X5557565Y-2356346D01*
X5556948Y-2355981D01*
X5556948Y-2354906D01*
X5571461Y-2354906D01*
X5573428Y-2355063D01*
G37*
G36*
X5597728Y-2355976D02*
G01*
X5597132Y-2356477D01*
X5596816Y-2357062D01*
X5596713Y-2357761D01*
X5596812Y-2358663D01*
X5597168Y-2359913D01*
X5604989Y-2381619D01*
X5605621Y-2383200D01*
X5605990Y-2383885D01*
X5606421Y-2384301D01*
X5607134Y-2384620D01*
X5607134Y-2385700D01*
X5598601Y-2385700D01*
X5598601Y-2384618D01*
X5599312Y-2384271D01*
X5599678Y-2383748D01*
X5599799Y-2383026D01*
X5599701Y-2382173D01*
X5599344Y-2380969D01*
X5598216Y-2377884D01*
X5588781Y-2377884D01*
X5587726Y-2381169D01*
X5587423Y-2382306D01*
X5587344Y-2383018D01*
X5587461Y-2383718D01*
X5587821Y-2384244D01*
X5588524Y-2384620D01*
X5588524Y-2385700D01*
X5580820Y-2385700D01*
X5580820Y-2384618D01*
X5581486Y-2384359D01*
X5581882Y-2384003D01*
X5582204Y-2383423D01*
X5582670Y-2382217D01*
X5585605Y-2373507D01*
X5590254Y-2373507D01*
X5596665Y-2373507D01*
X5593379Y-2364253D01*
X5590254Y-2373507D01*
X5585605Y-2373507D01*
X5590212Y-2359835D01*
X5590537Y-2358604D01*
X5590631Y-2357651D01*
X5590532Y-2357041D01*
X5590217Y-2356490D01*
X5589599Y-2355976D01*
X5589599Y-2354906D01*
X5597728Y-2354906D01*
X5597728Y-2355976D01*
G37*
G36*
X5620259Y-2360533D02*
G01*
X5620259Y-2382642D01*
X5620326Y-2383392D01*
X5620504Y-2383888D01*
X5620823Y-2384254D01*
X5621439Y-2384625D01*
X5621439Y-2385700D01*
X5614030Y-2385700D01*
X5614030Y-2384623D01*
X5614630Y-2384297D01*
X5614955Y-2383927D01*
X5615141Y-2383417D01*
X5615211Y-2382667D01*
X5615211Y-2360533D01*
X5609177Y-2360533D01*
X5608653Y-2360635D01*
X5608314Y-2360900D01*
X5608068Y-2361368D01*
X5607833Y-2362253D01*
X5607243Y-2362253D01*
X5607243Y-2353186D01*
X5607853Y-2353186D01*
X5608072Y-2354061D01*
X5608314Y-2354535D01*
X5608653Y-2354803D01*
X5609177Y-2354906D01*
X5626293Y-2354906D01*
X5626816Y-2354806D01*
X5627153Y-2354547D01*
X5627400Y-2354082D01*
X5627636Y-2353186D01*
X5628227Y-2353186D01*
X5628227Y-2362253D01*
X5627636Y-2362253D01*
X5627401Y-2361368D01*
X5627153Y-2360900D01*
X5626816Y-2360635D01*
X5626293Y-2360533D01*
X5620259Y-2360533D01*
G37*
G36*
X5641757Y-2360533D02*
G01*
X5641757Y-2382642D01*
X5641824Y-2383392D01*
X5642003Y-2383888D01*
X5642321Y-2384254D01*
X5642937Y-2384625D01*
X5642937Y-2385700D01*
X5635528Y-2385700D01*
X5635528Y-2384623D01*
X5636128Y-2384297D01*
X5636453Y-2383927D01*
X5636639Y-2383417D01*
X5636709Y-2382667D01*
X5636709Y-2360533D01*
X5630675Y-2360533D01*
X5630151Y-2360635D01*
X5629813Y-2360900D01*
X5629567Y-2361368D01*
X5629331Y-2362253D01*
X5628741Y-2362253D01*
X5628741Y-2353186D01*
X5629351Y-2353186D01*
X5629570Y-2354061D01*
X5629813Y-2354535D01*
X5630152Y-2354803D01*
X5630675Y-2354906D01*
X5647791Y-2354906D01*
X5648315Y-2354806D01*
X5648652Y-2354547D01*
X5648898Y-2354082D01*
X5649135Y-2353186D01*
X5649725Y-2353186D01*
X5649725Y-2362253D01*
X5649135Y-2362253D01*
X5648899Y-2361368D01*
X5648652Y-2360900D01*
X5648314Y-2360635D01*
X5647791Y-2360533D01*
X5641757Y-2360533D01*
G37*
G36*
X5658087Y-2372570D02*
G01*
X5658087Y-2380073D01*
X5671147Y-2380073D01*
X5671657Y-2379975D01*
X5671991Y-2379721D01*
X5672236Y-2379259D01*
X5672473Y-2378353D01*
X5673081Y-2378353D01*
X5673081Y-2387419D01*
X5672471Y-2387419D01*
X5672250Y-2386546D01*
X5672000Y-2386071D01*
X5671656Y-2385801D01*
X5671147Y-2385700D01*
X5651856Y-2385700D01*
X5651856Y-2384623D01*
X5652457Y-2384296D01*
X5652781Y-2383932D01*
X5652967Y-2383427D01*
X5653037Y-2382684D01*
X5653037Y-2357922D01*
X5652969Y-2357182D01*
X5652790Y-2356701D01*
X5652474Y-2356346D01*
X5651856Y-2355981D01*
X5651856Y-2354906D01*
X5670575Y-2354906D01*
X5671099Y-2354806D01*
X5671436Y-2354547D01*
X5671682Y-2354082D01*
X5671919Y-2353186D01*
X5672509Y-2353186D01*
X5672509Y-2362253D01*
X5671919Y-2362253D01*
X5671682Y-2361347D01*
X5671437Y-2360887D01*
X5671100Y-2360632D01*
X5670575Y-2360533D01*
X5658087Y-2360533D01*
X5658087Y-2367098D01*
X5665817Y-2367098D01*
X5666325Y-2367000D01*
X5666660Y-2366739D01*
X5666910Y-2366274D01*
X5667161Y-2365379D01*
X5667751Y-2365379D01*
X5667751Y-2374289D01*
X5667161Y-2374289D01*
X5666925Y-2373405D01*
X5666678Y-2372936D01*
X5666340Y-2372671D01*
X5665817Y-2372570D01*
X5658087Y-2372570D01*
G37*
G36*
X5692307Y-2355022D02*
G01*
X5693854Y-2355304D01*
X5695184Y-2355871D01*
X5696342Y-2356745D01*
X5697307Y-2357967D01*
X5698002Y-2359506D01*
X5698441Y-2361430D01*
X5698599Y-2363843D01*
X5698430Y-2366254D01*
X5697959Y-2368165D01*
X5697211Y-2369687D01*
X5696199Y-2370875D01*
X5694775Y-2371892D01*
X5692827Y-2372699D01*
X5696688Y-2380603D01*
X5697729Y-2382607D01*
X5698383Y-2383604D01*
X5699061Y-2384250D01*
X5699852Y-2384618D01*
X5699852Y-2385700D01*
X5691078Y-2385700D01*
X5691078Y-2384623D01*
X5691841Y-2384088D01*
X5692037Y-2383465D01*
X5691926Y-2382846D01*
X5691457Y-2381697D01*
X5687340Y-2373038D01*
X5682460Y-2373038D01*
X5682460Y-2382654D01*
X5682528Y-2383397D01*
X5682706Y-2383890D01*
X5683024Y-2384256D01*
X5683641Y-2384625D01*
X5683641Y-2385700D01*
X5676230Y-2385700D01*
X5676230Y-2384623D01*
X5676831Y-2384296D01*
X5677155Y-2383932D01*
X5677341Y-2383427D01*
X5677410Y-2382684D01*
X5677410Y-2367411D01*
X5682460Y-2367411D01*
X5689859Y-2367411D01*
X5691428Y-2367250D01*
X5692345Y-2366864D01*
X5692953Y-2366236D01*
X5693323Y-2365309D01*
X5693458Y-2363972D01*
X5693359Y-2362748D01*
X5693092Y-2361887D01*
X5692674Y-2361290D01*
X5691721Y-2360764D01*
X5689859Y-2360533D01*
X5682460Y-2360533D01*
X5682460Y-2367411D01*
X5677410Y-2367411D01*
X5677410Y-2357922D01*
X5677342Y-2357182D01*
X5677163Y-2356701D01*
X5676847Y-2356346D01*
X5676230Y-2355981D01*
X5676230Y-2354906D01*
X5689821Y-2354906D01*
X5692307Y-2355022D01*
G37*
G36*
X5708443Y-2357920D02*
G01*
X5708443Y-2382659D01*
X5708510Y-2383400D01*
X5708688Y-2383893D01*
X5709007Y-2384257D01*
X5709623Y-2384625D01*
X5709623Y-2385700D01*
X5702213Y-2385700D01*
X5702213Y-2384623D01*
X5702813Y-2384296D01*
X5703137Y-2383932D01*
X5703323Y-2383427D01*
X5703393Y-2382684D01*
X5703393Y-2357922D01*
X5703325Y-2357182D01*
X5703146Y-2356701D01*
X5702830Y-2356346D01*
X5702213Y-2355981D01*
X5702213Y-2354906D01*
X5709623Y-2354906D01*
X5709623Y-2355981D01*
X5709007Y-2356328D01*
X5708688Y-2356686D01*
X5708510Y-2357178D01*
X5708443Y-2357920D01*
G37*
G36*
X5719416Y-2372570D02*
G01*
X5719416Y-2380073D01*
X5732477Y-2380073D01*
X5732986Y-2379975D01*
X5733321Y-2379721D01*
X5733565Y-2379259D01*
X5733802Y-2378353D01*
X5734410Y-2378353D01*
X5734410Y-2387419D01*
X5733800Y-2387419D01*
X5733579Y-2386546D01*
X5733329Y-2386071D01*
X5732985Y-2385801D01*
X5732477Y-2385700D01*
X5713186Y-2385700D01*
X5713186Y-2384623D01*
X5713786Y-2384296D01*
X5714111Y-2383932D01*
X5714297Y-2383427D01*
X5714366Y-2382684D01*
X5714366Y-2357922D01*
X5714298Y-2357182D01*
X5714119Y-2356701D01*
X5713803Y-2356346D01*
X5713186Y-2355981D01*
X5713186Y-2354906D01*
X5731905Y-2354906D01*
X5732428Y-2354806D01*
X5732765Y-2354547D01*
X5733012Y-2354082D01*
X5733248Y-2353186D01*
X5733838Y-2353186D01*
X5733838Y-2362253D01*
X5733248Y-2362253D01*
X5733011Y-2361347D01*
X5732767Y-2360887D01*
X5732430Y-2360632D01*
X5731905Y-2360533D01*
X5719416Y-2360533D01*
X5719416Y-2367098D01*
X5727147Y-2367098D01*
X5727654Y-2367000D01*
X5727989Y-2366739D01*
X5728239Y-2366274D01*
X5728490Y-2365379D01*
X5729080Y-2365379D01*
X5729080Y-2374289D01*
X5728490Y-2374289D01*
X5728254Y-2373405D01*
X5728007Y-2372936D01*
X5727670Y-2372671D01*
X5727147Y-2372570D01*
X5719416Y-2372570D01*
G37*
G36*
X5757416Y-2357776D02*
G01*
X5754877Y-2365066D01*
X5754359Y-2364649D01*
X5754261Y-2363820D01*
X5753990Y-2363242D01*
X5752783Y-2362044D01*
X5750908Y-2360963D01*
X5748853Y-2360288D01*
X5746777Y-2360064D01*
X5745058Y-2360256D01*
X5743621Y-2360792D01*
X5742446Y-2361681D01*
X5741851Y-2362664D01*
X5741664Y-2363782D01*
X5741765Y-2364540D01*
X5742063Y-2365133D01*
X5742603Y-2365601D01*
X5743770Y-2366036D01*
X5746281Y-2366471D01*
X5749195Y-2366796D01*
X5751740Y-2367289D01*
X5753640Y-2368044D01*
X5755028Y-2368991D01*
X5756046Y-2370143D01*
X5756873Y-2371634D01*
X5757378Y-2373061D01*
X5757681Y-2374601D01*
X5757785Y-2376287D01*
X5757605Y-2378522D01*
X5757082Y-2380465D01*
X5756205Y-2382186D01*
X5754920Y-2383722D01*
X5753541Y-2384797D01*
X5751887Y-2385612D01*
X5749910Y-2386137D01*
X5747550Y-2386325D01*
X5745236Y-2386140D01*
X5742966Y-2385587D01*
X5740728Y-2384662D01*
X5738511Y-2383353D01*
X5738034Y-2383165D01*
X5737721Y-2383313D01*
X5737371Y-2383849D01*
X5736821Y-2383516D01*
X5738984Y-2375847D01*
X5739525Y-2376167D01*
X5739525Y-2376441D01*
X5739612Y-2377062D01*
X5739876Y-2377584D01*
X5740990Y-2378606D01*
X5743048Y-2379657D01*
X5745310Y-2380324D01*
X5747515Y-2380542D01*
X5749401Y-2380346D01*
X5751002Y-2379794D01*
X5752123Y-2378996D01*
X5752700Y-2378047D01*
X5752885Y-2376907D01*
X5752750Y-2375984D01*
X5752346Y-2375261D01*
X5751593Y-2374694D01*
X5750533Y-2374343D01*
X5748414Y-2373974D01*
X5745517Y-2373620D01*
X5743313Y-2373277D01*
X5741930Y-2372907D01*
X5740746Y-2372351D01*
X5739759Y-2371612D01*
X5738700Y-2370314D01*
X5737896Y-2368605D01*
X5737395Y-2366626D01*
X5737225Y-2364441D01*
X5737414Y-2362021D01*
X5737958Y-2359974D01*
X5738858Y-2358214D01*
X5740164Y-2356696D01*
X5741520Y-2355674D01*
X5743052Y-2354920D01*
X5744787Y-2354446D01*
X5746757Y-2354281D01*
X5748841Y-2354462D01*
X5750725Y-2354986D01*
X5752632Y-2355895D01*
X5755117Y-2357461D01*
X5756146Y-2357976D01*
X5756430Y-2357853D01*
X5756896Y-2357353D01*
X5757416Y-2357776D01*
G37*
D15*
G36*
X5665000Y-2336989D02*
G01*
X5693137Y-2336989D01*
X5693137Y-2344258D01*
X5665000Y-2344258D01*
X5665000Y-2336989D01*
G37*
G36*
X5714835Y-2315418D02*
G01*
X5724656Y-2283028D01*
X5725149Y-2281052D01*
X5725277Y-2279844D01*
X5725108Y-2278930D01*
X5724569Y-2278201D01*
X5723474Y-2277646D01*
X5723474Y-2276026D01*
X5736392Y-2276026D01*
X5736392Y-2277653D01*
X5735280Y-2278074D01*
X5734699Y-2278661D01*
X5734204Y-2279800D01*
X5733105Y-2283123D01*
X5720182Y-2324892D01*
X5719511Y-2327334D01*
X5719368Y-2328321D01*
X5719547Y-2329432D01*
X5720075Y-2330201D01*
X5721090Y-2330673D01*
X5721090Y-2332300D01*
X5708092Y-2332300D01*
X5708092Y-2330673D01*
X5709104Y-2330199D01*
X5709634Y-2329418D01*
X5709814Y-2328281D01*
X5709673Y-2327329D01*
X5709000Y-2324892D01*
X5696075Y-2283123D01*
X5694976Y-2279800D01*
X5694480Y-2278661D01*
X5693902Y-2278074D01*
X5692790Y-2277653D01*
X5692790Y-2276026D01*
X5706199Y-2276026D01*
X5706199Y-2277646D01*
X5705103Y-2278201D01*
X5704565Y-2278930D01*
X5704396Y-2279844D01*
X5704524Y-2281052D01*
X5705017Y-2283028D01*
X5714835Y-2315418D01*
G37*
G36*
X5748135Y-2296660D02*
G01*
X5748135Y-2281419D01*
X5749146Y-2281419D01*
X5749716Y-2283548D01*
X5750026Y-2283876D01*
X5750509Y-2283999D01*
X5751254Y-2283834D01*
X5753545Y-2282936D01*
X5753545Y-2280562D01*
X5753445Y-2279449D01*
X5753179Y-2278712D01*
X5752709Y-2278169D01*
X5751796Y-2277638D01*
X5751796Y-2276026D01*
X5763347Y-2276026D01*
X5763347Y-2277638D01*
X5762431Y-2278154D01*
X5761962Y-2278668D01*
X5761699Y-2279378D01*
X5761598Y-2280496D01*
X5761598Y-2327790D01*
X5761698Y-2328911D01*
X5761962Y-2329640D01*
X5762433Y-2330168D01*
X5763347Y-2330688D01*
X5763347Y-2332300D01*
X5751796Y-2332300D01*
X5751796Y-2330688D01*
X5752710Y-2330171D01*
X5753179Y-2329644D01*
X5753444Y-2328915D01*
X5753545Y-2327797D01*
X5753545Y-2292700D01*
X5751074Y-2293608D01*
X5750278Y-2294029D01*
X5749813Y-2294524D01*
X5749486Y-2295262D01*
X5749146Y-2296660D01*
X5748135Y-2296660D01*
G37*
D16*
%TO.C,C25*%
X5140000Y-6101000D03*
X4140000Y-6100000D03*
X3140000Y-6100000D03*
%TD*%
D17*
%TO.C,C16*%
X2455000Y-4170000D03*
X2965000Y-4170000D03*
%TD*%
D18*
%TO.C,D5*%
X2965000Y-2261250D03*
X2965000Y-2418750D03*
%TD*%
%TO.C,D6*%
X3160000Y-2256250D03*
X3160000Y-2413750D03*
%TD*%
D19*
%TO.C,C9*%
X4080000Y-4947500D03*
X4080000Y-4792500D03*
%TD*%
D20*
%TO.C,SW2*%
X4912500Y-4337500D03*
X4912500Y-3922500D03*
X5127500Y-4337500D03*
X5127500Y-3922500D03*
%TD*%
D21*
%TO.C,R_FBB1*%
X2962500Y-3525000D03*
X2797500Y-3525000D03*
%TD*%
D17*
%TO.C,C8*%
X3825000Y-4170000D03*
X4335000Y-4170000D03*
%TD*%
D22*
%TO.C,R4*%
X5537000Y-4777500D03*
X5537000Y-4942500D03*
%TD*%
D19*
%TO.C,C17*%
X2710000Y-4977500D03*
X2710000Y-4822500D03*
%TD*%
D23*
%TO.C,H1*%
X2275000Y-2385000D03*
%TD*%
D24*
%TO.C,L2*%
X2540000Y-2929500D03*
X2540000Y-3260500D03*
%TD*%
D25*
%TO.C,U1*%
X3641250Y-2937000D03*
X3641250Y-2987000D03*
X3641250Y-3037000D03*
X3641250Y-3087000D03*
X3641250Y-3137000D03*
X3641250Y-3187000D03*
X3641250Y-3237000D03*
X3641250Y-3287000D03*
X3641250Y-3337000D03*
X3641250Y-3387000D03*
X3641250Y-3437000D03*
X3641250Y-3487000D03*
D26*
X3710000Y-3555750D03*
X3760000Y-3555750D03*
X3810000Y-3555750D03*
X3860000Y-3555750D03*
X3910000Y-3555750D03*
X3960000Y-3555750D03*
X4010000Y-3555750D03*
X4060000Y-3555750D03*
X4110000Y-3555750D03*
X4160000Y-3555750D03*
X4210000Y-3555750D03*
X4260000Y-3555750D03*
D25*
X4328750Y-3487000D03*
X4328750Y-3437000D03*
X4328750Y-3387000D03*
X4328750Y-3337000D03*
X4328750Y-3287000D03*
X4328750Y-3237000D03*
X4328750Y-3187000D03*
X4328750Y-3137000D03*
X4328750Y-3087000D03*
X4328750Y-3037000D03*
X4328750Y-2987000D03*
X4328750Y-2937000D03*
D26*
X4260000Y-2868250D03*
X4210000Y-2868250D03*
X4160000Y-2868250D03*
X4110000Y-2868250D03*
X4060000Y-2868250D03*
X4010000Y-2868250D03*
X3960000Y-2868250D03*
X3910000Y-2868250D03*
X3860000Y-2868250D03*
X3810000Y-2868250D03*
X3760000Y-2868250D03*
X3710000Y-2868250D03*
D27*
X3985000Y-3212000D03*
%TD*%
D19*
%TO.C,C1*%
X5360000Y-4937500D03*
X5360000Y-4782500D03*
%TD*%
D22*
%TO.C,R20*%
X2880000Y-4817500D03*
X2880000Y-4982500D03*
%TD*%
D28*
%TO.C,C12*%
X2001000Y-3090000D03*
X2001000Y-3245000D03*
%TD*%
D29*
%TO.C,R1*%
X5893250Y-5260000D03*
X5300750Y-5260000D03*
%TD*%
D20*
%TO.C,SW1*%
X5502500Y-4337500D03*
X5502500Y-3922500D03*
X5717500Y-4337500D03*
X5717500Y-3922500D03*
%TD*%
D30*
%TO.C,U5*%
X3065000Y-4972250D03*
X3160000Y-4972250D03*
X3255000Y-4972250D03*
X3255000Y-4744750D03*
X3065000Y-4744750D03*
%TD*%
%TO.C,U4*%
X4445000Y-4953750D03*
X4540000Y-4953750D03*
X4635000Y-4953750D03*
X4635000Y-4726250D03*
X4445000Y-4726250D03*
%TD*%
D22*
%TO.C,J_3V3*%
X2165000Y-3397500D03*
X2165000Y-3562500D03*
%TD*%
D29*
%TO.C,R19*%
X3246250Y-5280000D03*
X2653750Y-5280000D03*
%TD*%
D31*
%TO.C,R16*%
X3720000Y-4952500D03*
X3720000Y-4787500D03*
%TD*%
D30*
%TO.C,U3*%
X5715000Y-4946250D03*
X5810000Y-4946250D03*
X5905000Y-4946250D03*
X5905000Y-4718750D03*
X5715000Y-4718750D03*
%TD*%
D29*
%TO.C,R13*%
X4626250Y-5260000D03*
X4033750Y-5260000D03*
%TD*%
D32*
%TO.C,U2*%
X5174750Y-3154000D03*
X5174750Y-3059000D03*
X5174750Y-2964000D03*
X4947250Y-2964000D03*
X4947250Y-3059000D03*
X4947250Y-3154000D03*
%TD*%
D33*
%TO.C,H2*%
X5950000Y-6105000D03*
%TD*%
D34*
%TO.C,D7*%
X4970000Y-5675000D03*
X4970000Y-5245000D03*
%TD*%
D35*
%TO.C,R28*%
X4927500Y-3660000D03*
X5092500Y-3660000D03*
%TD*%
D31*
%TO.C,R22*%
X2340000Y-4982500D03*
X2340000Y-4817500D03*
%TD*%
%TO.C,R12*%
X5000000Y-4942500D03*
X5000000Y-4777500D03*
%TD*%
D34*
%TO.C,D8*%
X3680000Y-5675000D03*
X3680000Y-5245000D03*
%TD*%
D22*
%TO.C,R21*%
X2530000Y-4817500D03*
X2530000Y-4982500D03*
%TD*%
%TO.C,R15*%
X3900000Y-4787500D03*
X3900000Y-4952500D03*
%TD*%
D21*
%TO.C,R_FBT1*%
X2638500Y-3525000D03*
X2473500Y-3525000D03*
%TD*%
D36*
%TO.C,C29*%
X5028000Y-3520000D03*
X4932000Y-3520000D03*
%TD*%
D37*
%TO.C,J1*%
X5567500Y-3364000D03*
X5567500Y-2786000D03*
D38*
X5460000Y-3395000D03*
X5460000Y-3315000D03*
D39*
X5460000Y-3200000D03*
X5460000Y-3100000D03*
X5460000Y-3050000D03*
X5460000Y-2950000D03*
D38*
X5460000Y-2835000D03*
X5460000Y-2755000D03*
D39*
X5460000Y-2900000D03*
X5460000Y-3000000D03*
X5460000Y-3150000D03*
X5460000Y-3250000D03*
D40*
X5517500Y-3587000D03*
X5517500Y-2563000D03*
X5910500Y-3587000D03*
X5910500Y-2563000D03*
%TD*%
D28*
%TO.C,C11*%
X2166000Y-3090000D03*
X2166000Y-3245000D03*
%TD*%
D22*
%TO.C,R14*%
X4260000Y-4787500D03*
X4260000Y-4952500D03*
%TD*%
D41*
%TO.C,C23*%
X4465000Y-2988000D03*
X4465000Y-2892000D03*
%TD*%
D42*
%TO.C,C24*%
X4000000Y-2350000D03*
X3800000Y-2350000D03*
X3600000Y-2350000D03*
X3400000Y-2350000D03*
D43*
X4700000Y-2351000D03*
D44*
X4300000Y-2350000D03*
%TD*%
D22*
%TO.C,R11*%
X5180000Y-4777500D03*
X5180000Y-4942500D03*
%TD*%
D36*
%TO.C,C27*%
X3223000Y-2810000D03*
X3127000Y-2810000D03*
%TD*%
D34*
%TO.C,D9*%
X2290000Y-5675000D03*
X2290000Y-5245000D03*
%TD*%
D45*
%TO.C,C26*%
X3131500Y-3335000D03*
X3227500Y-3335000D03*
%TD*%
D46*
%TO.C,Y1*%
X3103700Y-2962500D03*
X3103700Y-3182500D03*
X3263800Y-3182500D03*
X3263800Y-2962500D03*
%TD*%
M02*
