%TF.GenerationSoftware,KiCad,Pcbnew,9.0.0*%
%TF.CreationDate,2025-04-09T22:07:23+02:00*%
%TF.ProjectId,ESC,4553432e-6b69-4636-9164-5f7063625858,rev?*%
%TF.SameCoordinates,Original*%
%TF.FileFunction,Other,User*%
%FSLAX45Y45*%
G04 Gerber Fmt 4.5, Leading zero omitted, Abs format (unit mm)*
G04 Created by KiCad (PCBNEW 9.0.0) date 2025-04-09 22:07:23*
%MOMM*%
%LPD*%
G01*
G04 APERTURE LIST*
%ADD10C,0.050000*%
%ADD11C,0.100000*%
G04 APERTURE END LIST*
D10*
%TO.C,C16*%
X2247500Y-3780000D02*
X3172500Y-3780000D01*
X2247500Y-4560000D02*
X2247500Y-3780000D01*
X3172500Y-3780000D02*
X3172500Y-4560000D01*
X3172500Y-4560000D02*
X2247500Y-4560000D01*
%TO.C,D5*%
X2892000Y-2192000D02*
X3038000Y-2192000D01*
X2892000Y-2488000D02*
X2892000Y-2192000D01*
X3038000Y-2192000D02*
X3038000Y-2488000D01*
X3038000Y-2488000D02*
X2892000Y-2488000D01*
%TO.C,D6*%
X3087000Y-2187000D02*
X3233000Y-2187000D01*
X3087000Y-2483000D02*
X3087000Y-2187000D01*
X3233000Y-2187000D02*
X3233000Y-2483000D01*
X3233000Y-2483000D02*
X3087000Y-2483000D01*
%TO.C,C9*%
X4007000Y-4722000D02*
X4153000Y-4722000D01*
X4007000Y-5018000D02*
X4007000Y-4722000D01*
X4153000Y-4722000D02*
X4153000Y-5018000D01*
X4153000Y-5018000D02*
X4007000Y-5018000D01*
%TO.C,R_FBB1*%
X2732000Y-3452000D02*
X3028000Y-3452000D01*
X2732000Y-3598000D02*
X2732000Y-3452000D01*
X3028000Y-3452000D02*
X3028000Y-3598000D01*
X3028000Y-3598000D02*
X2732000Y-3598000D01*
%TO.C,C8*%
X3617500Y-3780000D02*
X4542500Y-3780000D01*
X3617500Y-4560000D02*
X3617500Y-3780000D01*
X4542500Y-3780000D02*
X4542500Y-4560000D01*
X4542500Y-4560000D02*
X3617500Y-4560000D01*
%TO.C,R4*%
X5464000Y-4712000D02*
X5610000Y-4712000D01*
X5464000Y-5008000D02*
X5464000Y-4712000D01*
X5610000Y-4712000D02*
X5610000Y-5008000D01*
X5610000Y-5008000D02*
X5464000Y-5008000D01*
%TO.C,C17*%
X2637000Y-4752000D02*
X2783000Y-4752000D01*
X2637000Y-5048000D02*
X2637000Y-4752000D01*
X2783000Y-4752000D02*
X2783000Y-5048000D01*
X2783000Y-5048000D02*
X2637000Y-5048000D01*
%TO.C,H1*%
X2490000Y-2385000D02*
G75*
G02*
X2060000Y-2385000I-215000J0D01*
G01*
X2060000Y-2385000D02*
G75*
G02*
X2490000Y-2385000I215000J0D01*
G01*
%TO.C,U1*%
X3572000Y-2799000D02*
X3572000Y-3625000D01*
X3572000Y-3625000D02*
X4398000Y-3625000D01*
X4398000Y-2799000D02*
X3572000Y-2799000D01*
X4398000Y-3625000D02*
X4398000Y-2799000D01*
%TO.C,C1*%
X5287000Y-4712000D02*
X5433000Y-4712000D01*
X5287000Y-5008000D02*
X5287000Y-4712000D01*
X5433000Y-4712000D02*
X5433000Y-5008000D01*
X5433000Y-5008000D02*
X5287000Y-5008000D01*
%TO.C,R20*%
X2807000Y-4752000D02*
X2953000Y-4752000D01*
X2807000Y-5048000D02*
X2807000Y-4752000D01*
X2953000Y-4752000D02*
X2953000Y-5048000D01*
X2953000Y-5048000D02*
X2807000Y-5048000D01*
%TO.C,C12*%
X1928000Y-3019500D02*
X2074000Y-3019500D01*
X1928000Y-3315500D02*
X1928000Y-3019500D01*
X2074000Y-3019500D02*
X2074000Y-3315500D01*
X2074000Y-3315500D02*
X1928000Y-3315500D01*
%TO.C,R1*%
X5215000Y-5068000D02*
X5979000Y-5068000D01*
X5215000Y-5452000D02*
X5215000Y-5068000D01*
X5979000Y-5068000D02*
X5979000Y-5452000D01*
X5979000Y-5452000D02*
X5215000Y-5452000D01*
%TO.C,U5*%
X2990000Y-4653500D02*
X2990000Y-5063500D01*
X2990000Y-5063500D02*
X3330000Y-5063500D01*
X3330000Y-4653500D02*
X2990000Y-4653500D01*
X3330000Y-5063500D02*
X3330000Y-4653500D01*
%TO.C,U4*%
X4370000Y-4635000D02*
X4370000Y-5045000D01*
X4370000Y-5045000D02*
X4710000Y-5045000D01*
X4710000Y-4635000D02*
X4370000Y-4635000D01*
X4710000Y-5045000D02*
X4710000Y-4635000D01*
%TO.C,J_3V3*%
X2092000Y-3332000D02*
X2238000Y-3332000D01*
X2092000Y-3628000D02*
X2092000Y-3332000D01*
X2238000Y-3332000D02*
X2238000Y-3628000D01*
X2238000Y-3628000D02*
X2092000Y-3628000D01*
%TO.C,R19*%
X2568000Y-5088000D02*
X3332000Y-5088000D01*
X2568000Y-5472000D02*
X2568000Y-5088000D01*
X3332000Y-5088000D02*
X3332000Y-5472000D01*
X3332000Y-5472000D02*
X2568000Y-5472000D01*
%TO.C,R16*%
X3647000Y-4722000D02*
X3793000Y-4722000D01*
X3647000Y-5018000D02*
X3647000Y-4722000D01*
X3793000Y-4722000D02*
X3793000Y-5018000D01*
X3793000Y-5018000D02*
X3647000Y-5018000D01*
%TO.C,U3*%
X5640000Y-4627500D02*
X5640000Y-5037500D01*
X5640000Y-5037500D02*
X5980000Y-5037500D01*
X5980000Y-4627500D02*
X5640000Y-4627500D01*
X5980000Y-5037500D02*
X5980000Y-4627500D01*
%TO.C,R13*%
X3948000Y-5068000D02*
X4712000Y-5068000D01*
X3948000Y-5452000D02*
X3948000Y-5068000D01*
X4712000Y-5068000D02*
X4712000Y-5452000D01*
X4712000Y-5452000D02*
X3948000Y-5452000D01*
%TO.C,U2*%
X4856000Y-2889000D02*
X4856000Y-3229000D01*
X4856000Y-3229000D02*
X5266000Y-3229000D01*
X5266000Y-2889000D02*
X4856000Y-2889000D01*
X5266000Y-3229000D02*
X5266000Y-2889000D01*
%TO.C,H2*%
X6195000Y-6105000D02*
G75*
G02*
X5705000Y-6105000I-245000J0D01*
G01*
X5705000Y-6105000D02*
G75*
G02*
X6195000Y-6105000I245000J0D01*
G01*
%TO.C,D7*%
X4745000Y-5095000D02*
X5195000Y-5095000D01*
X4745000Y-5825000D02*
X4745000Y-5095000D01*
X5195000Y-5095000D02*
X5195000Y-5825000D01*
X5195000Y-5825000D02*
X4745000Y-5825000D01*
%TO.C,R28*%
X4862000Y-3587000D02*
X5158000Y-3587000D01*
X4862000Y-3733000D02*
X4862000Y-3587000D01*
X5158000Y-3587000D02*
X5158000Y-3733000D01*
X5158000Y-3733000D02*
X4862000Y-3733000D01*
%TO.C,R22*%
X2267000Y-4752000D02*
X2413000Y-4752000D01*
X2267000Y-5048000D02*
X2267000Y-4752000D01*
X2413000Y-4752000D02*
X2413000Y-5048000D01*
X2413000Y-5048000D02*
X2267000Y-5048000D01*
%TO.C,R12*%
X4927000Y-4712000D02*
X5073000Y-4712000D01*
X4927000Y-5008000D02*
X4927000Y-4712000D01*
X5073000Y-4712000D02*
X5073000Y-5008000D01*
X5073000Y-5008000D02*
X4927000Y-5008000D01*
%TO.C,D8*%
X3455000Y-5095000D02*
X3905000Y-5095000D01*
X3455000Y-5825000D02*
X3455000Y-5095000D01*
X3905000Y-5095000D02*
X3905000Y-5825000D01*
X3905000Y-5825000D02*
X3455000Y-5825000D01*
%TO.C,R21*%
X2457000Y-4752000D02*
X2603000Y-4752000D01*
X2457000Y-5048000D02*
X2457000Y-4752000D01*
X2603000Y-4752000D02*
X2603000Y-5048000D01*
X2603000Y-5048000D02*
X2457000Y-5048000D01*
%TO.C,R15*%
X3827000Y-4722000D02*
X3973000Y-4722000D01*
X3827000Y-5018000D02*
X3827000Y-4722000D01*
X3973000Y-4722000D02*
X3973000Y-5018000D01*
X3973000Y-5018000D02*
X3827000Y-5018000D01*
%TO.C,R_FBT1*%
X2408000Y-3452000D02*
X2704000Y-3452000D01*
X2408000Y-3598000D02*
X2408000Y-3452000D01*
X2704000Y-3452000D02*
X2704000Y-3598000D01*
X2704000Y-3598000D02*
X2408000Y-3598000D01*
%TO.C,C29*%
X4889000Y-3474000D02*
X5071000Y-3474000D01*
X4889000Y-3566000D02*
X4889000Y-3474000D01*
X5071000Y-3474000D02*
X5071000Y-3566000D01*
X5071000Y-3566000D02*
X4889000Y-3566000D01*
D11*
%TO.C,J1*%
X5302500Y-2388000D02*
X6295500Y-2388000D01*
X5302500Y-3762000D02*
X5302500Y-2388000D01*
X6295500Y-2388000D02*
X6295500Y-3762000D01*
X6295500Y-3762000D02*
X5302500Y-3762000D01*
D10*
%TO.C,C11*%
X2093000Y-3019500D02*
X2239000Y-3019500D01*
X2093000Y-3315500D02*
X2093000Y-3019500D01*
X2239000Y-3019500D02*
X2239000Y-3315500D01*
X2239000Y-3315500D02*
X2093000Y-3315500D01*
%TO.C,R14*%
X4187000Y-4722000D02*
X4333000Y-4722000D01*
X4187000Y-5018000D02*
X4187000Y-4722000D01*
X4333000Y-4722000D02*
X4333000Y-5018000D01*
X4333000Y-5018000D02*
X4187000Y-5018000D01*
%TO.C,C23*%
X4419000Y-2849000D02*
X4511000Y-2849000D01*
X4419000Y-3031000D02*
X4419000Y-2849000D01*
X4511000Y-2849000D02*
X4511000Y-3031000D01*
X4511000Y-3031000D02*
X4419000Y-3031000D01*
%TO.C,R11*%
X5107000Y-4712000D02*
X5253000Y-4712000D01*
X5107000Y-5008000D02*
X5107000Y-4712000D01*
X5253000Y-4712000D02*
X5253000Y-5008000D01*
X5253000Y-5008000D02*
X5107000Y-5008000D01*
%TO.C,C27*%
X3084000Y-2764000D02*
X3266000Y-2764000D01*
X3084000Y-2856000D02*
X3084000Y-2764000D01*
X3266000Y-2764000D02*
X3266000Y-2856000D01*
X3266000Y-2856000D02*
X3084000Y-2856000D01*
%TO.C,D9*%
X2065000Y-5095000D02*
X2515000Y-5095000D01*
X2065000Y-5825000D02*
X2065000Y-5095000D01*
X2515000Y-5095000D02*
X2515000Y-5825000D01*
X2515000Y-5825000D02*
X2065000Y-5825000D01*
%TO.C,C26*%
X3088500Y-3289000D02*
X3270500Y-3289000D01*
X3088500Y-3381000D02*
X3088500Y-3289000D01*
X3270500Y-3289000D02*
X3270500Y-3381000D01*
X3270500Y-3381000D02*
X3088500Y-3381000D01*
%TD*%
M02*
