%TF.GenerationSoftware,KiCad,Pcbnew,9.0.0*%
%TF.CreationDate,2025-04-09T22:07:22+02:00*%
%TF.ProjectId,ESC,4553432e-6b69-4636-9164-5f7063625858,rev?*%
%TF.SameCoordinates,Original*%
%TF.FileFunction,Paste,Bot*%
%TF.FilePolarity,Positive*%
%FSLAX45Y45*%
G04 Gerber Fmt 4.5, Leading zero omitted, Abs format (unit mm)*
G04 Created by KiCad (PCBNEW 9.0.0) date 2025-04-09 22:07:22*
%MOMM*%
%LPD*%
G01*
G04 APERTURE LIST*
G04 Aperture macros list*
%AMRoundRect*
0 Rectangle with rounded corners*
0 $1 Rounding radius*
0 $2 $3 $4 $5 $6 $7 $8 $9 X,Y pos of 4 corners*
0 Add a 4 corners polygon primitive as box body*
4,1,4,$2,$3,$4,$5,$6,$7,$8,$9,$2,$3,0*
0 Add four circle primitives for the rounded corners*
1,1,$1+$1,$2,$3*
1,1,$1+$1,$4,$5*
1,1,$1+$1,$6,$7*
1,1,$1+$1,$8,$9*
0 Add four rect primitives between the rounded corners*
20,1,$1+$1,$2,$3,$4,$5,0*
20,1,$1+$1,$4,$5,$6,$7,0*
20,1,$1+$1,$6,$7,$8,$9,0*
20,1,$1+$1,$8,$9,$2,$3,0*%
G04 Aperture macros list end*
%ADD10O,1.400000X3.000000*%
%ADD11RoundRect,0.225000X-0.250000X0.225000X-0.250000X-0.225000X0.250000X-0.225000X0.250000X0.225000X0*%
%ADD12R,0.500000X0.925000*%
%ADD13R,0.600000X0.800000*%
%ADD14R,4.410000X3.655000*%
%ADD15RoundRect,0.200000X-0.200000X-0.275000X0.200000X-0.275000X0.200000X0.275000X-0.200000X0.275000X0*%
%ADD16RoundRect,0.225000X0.250000X-0.225000X0.250000X0.225000X-0.250000X0.225000X-0.250000X-0.225000X0*%
%ADD17RoundRect,0.200000X0.275000X-0.200000X0.275000X0.200000X-0.275000X0.200000X-0.275000X-0.200000X0*%
%ADD18RoundRect,0.112500X-0.187500X-0.112500X0.187500X-0.112500X0.187500X0.112500X-0.187500X0.112500X0*%
%ADD19RoundRect,0.140000X-0.170000X0.140000X-0.170000X-0.140000X0.170000X-0.140000X0.170000X0.140000X0*%
%ADD20R,0.700000X1.525000*%
%ADD21RoundRect,0.155000X0.155000X-0.212500X0.155000X0.212500X-0.155000X0.212500X-0.155000X-0.212500X0*%
%ADD22RoundRect,0.140000X0.140000X0.170000X-0.140000X0.170000X-0.140000X-0.170000X0.140000X-0.170000X0*%
%ADD23RoundRect,0.112500X-0.112500X0.187500X-0.112500X-0.187500X0.112500X-0.187500X0.112500X0.187500X0*%
%ADD24RoundRect,0.225000X0.225000X0.250000X-0.225000X0.250000X-0.225000X-0.250000X0.225000X-0.250000X0*%
%ADD25R,0.700000X0.500000*%
%ADD26R,4.700000X4.500000*%
%ADD27R,0.650000X1.200000*%
%ADD28RoundRect,0.200000X0.200000X0.275000X-0.200000X0.275000X-0.200000X-0.275000X0.200000X-0.275000X0*%
%ADD29R,0.600000X1.250000*%
G04 APERTURE END LIST*
D10*
%TO.C,C24*%
X4000000Y-2350000D03*
X3800000Y-2350000D03*
X3600000Y-2350000D03*
X3400000Y-2350000D03*
%TD*%
D11*
%TO.C,C3*%
X4880000Y-4402500D03*
X4880000Y-4557500D03*
%TD*%
D12*
%TO.C,Q7*%
X4199500Y-5218700D03*
X4326500Y-5218700D03*
X4453500Y-5218700D03*
X4580500Y-5218700D03*
D13*
X4199500Y-5797500D03*
X4326500Y-5797500D03*
D14*
X4390000Y-5574800D03*
D13*
X4453500Y-5797500D03*
X4580500Y-5797500D03*
%TD*%
D15*
%TO.C,R7*%
X4287500Y-3750000D03*
X4452500Y-3750000D03*
%TD*%
D16*
%TO.C,C5*%
X2821000Y-3117500D03*
X2821000Y-2962500D03*
%TD*%
D17*
%TO.C,R26*%
X3155000Y-2372500D03*
X3155000Y-2207500D03*
%TD*%
D15*
%TO.C,R5*%
X5707500Y-3200000D03*
X5872500Y-3200000D03*
%TD*%
D11*
%TO.C,C15*%
X2280000Y-4412500D03*
X2280000Y-4567500D03*
%TD*%
D18*
%TO.C,D2*%
X3055000Y-2560000D03*
X3265000Y-2560000D03*
%TD*%
D19*
%TO.C,C21*%
X4330000Y-3422000D03*
X4330000Y-3518000D03*
%TD*%
D20*
%TO.C,IC4*%
X2469500Y-4018800D03*
X2596500Y-4018800D03*
X2723500Y-4018800D03*
X2850500Y-4018800D03*
X2850500Y-4561200D03*
X2723500Y-4561200D03*
X2596500Y-4561200D03*
X2469500Y-4561200D03*
%TD*%
D12*
%TO.C,Q9*%
X5260500Y-5741300D03*
X5133500Y-5741300D03*
X5006500Y-5741300D03*
X4879500Y-5741300D03*
D13*
X5260500Y-5162500D03*
X5133500Y-5162500D03*
D14*
X5070000Y-5385200D03*
D13*
X5006500Y-5162500D03*
X4879500Y-5162500D03*
%TD*%
D11*
%TO.C,C10*%
X2254000Y-3069500D03*
X2254000Y-3224500D03*
%TD*%
D15*
%TO.C,R9*%
X3847500Y-4975000D03*
X4012500Y-4975000D03*
%TD*%
D21*
%TO.C,C13*%
X2966000Y-3086750D03*
X2966000Y-2973250D03*
%TD*%
D22*
%TO.C,C20*%
X3808000Y-2710000D03*
X3712000Y-2710000D03*
%TD*%
D17*
%TO.C,R25*%
X2980000Y-2372500D03*
X2980000Y-2207500D03*
%TD*%
D16*
%TO.C,C4*%
X4900000Y-4167500D03*
X4900000Y-4012500D03*
%TD*%
D23*
%TO.C,D4*%
X2215000Y-4725000D03*
X2215000Y-4935000D03*
%TD*%
D11*
%TO.C,C18*%
X3380000Y-3162500D03*
X3380000Y-3317500D03*
%TD*%
D15*
%TO.C,R8*%
X3687500Y-3520000D03*
X3852500Y-3520000D03*
%TD*%
D11*
%TO.C,C6*%
X3619500Y-3862500D03*
X3619500Y-4017500D03*
%TD*%
D15*
%TO.C,R18*%
X3007500Y-4980000D03*
X3172500Y-4980000D03*
%TD*%
D20*
%TO.C,IC3*%
X5069500Y-4018800D03*
X5196500Y-4018800D03*
X5323500Y-4018800D03*
X5450500Y-4018800D03*
X5450500Y-4561200D03*
X5323500Y-4561200D03*
X5196500Y-4561200D03*
X5069500Y-4561200D03*
%TD*%
D12*
%TO.C,Q6*%
X5509500Y-5218700D03*
X5636500Y-5218700D03*
X5763500Y-5218700D03*
X5890500Y-5218700D03*
D13*
X5509500Y-5797500D03*
X5636500Y-5797500D03*
D14*
X5700000Y-5574800D03*
D13*
X5763500Y-5797500D03*
X5890500Y-5797500D03*
%TD*%
D12*
%TO.C,Q11*%
X2670500Y-5741300D03*
X2543500Y-5741300D03*
X2416500Y-5741300D03*
X2289500Y-5741300D03*
D13*
X2670500Y-5162500D03*
X2543500Y-5162500D03*
D14*
X2480000Y-5385200D03*
D13*
X2416500Y-5162500D03*
X2289500Y-5162500D03*
%TD*%
D24*
%TO.C,C22*%
X3855000Y-2872500D03*
X3700000Y-2872500D03*
%TD*%
D25*
%TO.C,Q2*%
X4925500Y-3525000D03*
X5058500Y-3525000D03*
D26*
X5125000Y-3275000D03*
D25*
X5191500Y-3525000D03*
X5324500Y-3525000D03*
D27*
X5315500Y-2925000D03*
X4934500Y-2925000D03*
X5061500Y-2925000D03*
X5188500Y-2925000D03*
%TD*%
D15*
%TO.C,R3*%
X5447500Y-4960000D03*
X5612500Y-4960000D03*
%TD*%
D19*
%TO.C,C19*%
X3660000Y-3192000D03*
X3660000Y-3288000D03*
%TD*%
D28*
%TO.C,R2*%
X5232500Y-4965000D03*
X5067500Y-4965000D03*
%TD*%
D15*
%TO.C,R10*%
X4217500Y-4970000D03*
X4382500Y-4970000D03*
%TD*%
D23*
%TO.C,D1*%
X4785000Y-4712500D03*
X4785000Y-4922500D03*
%TD*%
D15*
%TO.C,R6*%
X5707500Y-2910000D03*
X5872500Y-2910000D03*
%TD*%
D29*
%TO.C,IC2*%
X2445000Y-2970000D03*
X2540000Y-2970000D03*
X2635000Y-2970000D03*
X2635000Y-3220000D03*
X2540000Y-3220000D03*
X2445000Y-3220000D03*
%TD*%
D11*
%TO.C,C14*%
X2280000Y-3865000D03*
X2280000Y-4020000D03*
%TD*%
D28*
%TO.C,R27*%
X5672500Y-3630000D03*
X5507500Y-3630000D03*
%TD*%
D11*
%TO.C,C7*%
X3620000Y-4405000D03*
X3620000Y-4560000D03*
%TD*%
D28*
%TO.C,R23*%
X5357500Y-2525000D03*
X5192500Y-2525000D03*
%TD*%
D23*
%TO.C,D3*%
X3520000Y-4720000D03*
X3520000Y-4930000D03*
%TD*%
D24*
%TO.C,C28*%
X5352500Y-2700000D03*
X5197500Y-2700000D03*
%TD*%
D15*
%TO.C,R17*%
X2527500Y-4970000D03*
X2692500Y-4970000D03*
%TD*%
D20*
%TO.C,IC1*%
X3809500Y-4018800D03*
X3936500Y-4018800D03*
X4063500Y-4018800D03*
X4190500Y-4018800D03*
X4190500Y-4561200D03*
X4063500Y-4561200D03*
X3936500Y-4561200D03*
X3809500Y-4561200D03*
%TD*%
D12*
%TO.C,Q8*%
X2919500Y-5218700D03*
X3046500Y-5218700D03*
X3173500Y-5218700D03*
X3300500Y-5218700D03*
D13*
X2919500Y-5797500D03*
X3046500Y-5797500D03*
D14*
X3110000Y-5574800D03*
D13*
X3173500Y-5797500D03*
X3300500Y-5797500D03*
%TD*%
D12*
%TO.C,Q10*%
X3950500Y-5741300D03*
X3823500Y-5741300D03*
X3696500Y-5741300D03*
X3569500Y-5741300D03*
D13*
X3950500Y-5162500D03*
X3823500Y-5162500D03*
D14*
X3760000Y-5385200D03*
D13*
X3696500Y-5162500D03*
X3569500Y-5162500D03*
%TD*%
D15*
%TO.C,R24*%
X5192500Y-2350000D03*
X5357500Y-2350000D03*
%TD*%
M02*
