%TF.GenerationSoftware,KiCad,Pcbnew,9.0.0*%
%TF.CreationDate,2025-04-09T22:07:22+02:00*%
%TF.ProjectId,ESC,4553432e-6b69-4636-9164-5f7063625858,rev?*%
%TF.SameCoordinates,Original*%
%TF.FileFunction,Paste,Top*%
%TF.FilePolarity,Positive*%
%FSLAX45Y45*%
G04 Gerber Fmt 4.5, Leading zero omitted, Abs format (unit mm)*
G04 Created by KiCad (PCBNEW 9.0.0) date 2025-04-09 22:07:22*
%MOMM*%
%LPD*%
G01*
G04 APERTURE LIST*
G04 Aperture macros list*
%AMRoundRect*
0 Rectangle with rounded corners*
0 $1 Rounding radius*
0 $2 $3 $4 $5 $6 $7 $8 $9 X,Y pos of 4 corners*
0 Add a 4 corners polygon primitive as box body*
4,1,4,$2,$3,$4,$5,$6,$7,$8,$9,$2,$3,0*
0 Add four circle primitives for the rounded corners*
1,1,$1+$1,$2,$3*
1,1,$1+$1,$4,$5*
1,1,$1+$1,$6,$7*
1,1,$1+$1,$8,$9*
0 Add four rect primitives between the rounded corners*
20,1,$1+$1,$2,$3,$4,$5,0*
20,1,$1+$1,$4,$5,$6,$7,0*
20,1,$1+$1,$6,$7,$8,$9,0*
20,1,$1+$1,$8,$9,$2,$3,0*%
G04 Aperture macros list end*
%ADD10R,3.150000X1.800000*%
%ADD11RoundRect,0.218750X-0.256250X0.218750X-0.256250X-0.218750X0.256250X-0.218750X0.256250X0.218750X0*%
%ADD12RoundRect,0.225000X0.250000X-0.225000X0.250000X0.225000X-0.250000X0.225000X-0.250000X-0.225000X0*%
%ADD13R,0.650000X1.050000*%
%ADD14RoundRect,0.200000X0.200000X0.275000X-0.200000X0.275000X-0.200000X-0.275000X0.200000X-0.275000X0*%
%ADD15RoundRect,0.200000X-0.275000X0.200000X-0.275000X-0.200000X0.275000X-0.200000X0.275000X0.200000X0*%
%ADD16R,4.700000X1.180000*%
%ADD17RoundRect,0.250000X-0.315000X-0.315000X0.315000X-0.315000X0.315000X0.315000X-0.315000X0.315000X0*%
%ADD18RoundRect,0.062500X-0.375000X-0.062500X0.375000X-0.062500X0.375000X0.062500X-0.375000X0.062500X0*%
%ADD19RoundRect,0.062500X-0.062500X-0.375000X0.062500X-0.375000X0.062500X0.375000X-0.062500X0.375000X0*%
%ADD20RoundRect,0.225000X-0.250000X0.225000X-0.250000X-0.225000X0.250000X-0.225000X0.250000X0.225000X0*%
%ADD21RoundRect,0.250000X0.362500X1.425000X-0.362500X1.425000X-0.362500X-1.425000X0.362500X-1.425000X0*%
%ADD22RoundRect,0.150000X0.150000X-0.512500X0.150000X0.512500X-0.150000X0.512500X-0.150000X-0.512500X0*%
%ADD23RoundRect,0.200000X0.275000X-0.200000X0.275000X0.200000X-0.275000X0.200000X-0.275000X-0.200000X0*%
%ADD24RoundRect,0.150000X0.512500X0.150000X-0.512500X0.150000X-0.512500X-0.150000X0.512500X-0.150000X0*%
%ADD25RoundRect,0.250000X0.900000X-1.000000X0.900000X1.000000X-0.900000X1.000000X-0.900000X-1.000000X0*%
%ADD26RoundRect,0.200000X-0.200000X-0.275000X0.200000X-0.275000X0.200000X0.275000X-0.200000X0.275000X0*%
%ADD27RoundRect,0.140000X0.140000X0.170000X-0.140000X0.170000X-0.140000X-0.170000X0.140000X-0.170000X0*%
%ADD28R,1.150000X0.600000*%
%ADD29R,1.150000X0.300000*%
%ADD30R,1.500000X1.500000*%
%ADD31RoundRect,0.140000X0.170000X-0.140000X0.170000X0.140000X-0.170000X0.140000X-0.170000X-0.140000X0*%
%ADD32O,1.400000X3.000000*%
%ADD33RoundRect,0.140000X-0.140000X-0.170000X0.140000X-0.170000X0.140000X0.170000X-0.140000X0.170000X0*%
%ADD34R,1.150000X1.400000*%
G04 APERTURE END LIST*
D10*
%TO.C,C16*%
X2455000Y-4170000D03*
X2965000Y-4170000D03*
%TD*%
D11*
%TO.C,D5*%
X2965000Y-2261250D03*
X2965000Y-2418750D03*
%TD*%
%TO.C,D6*%
X3160000Y-2256250D03*
X3160000Y-2413750D03*
%TD*%
D12*
%TO.C,C9*%
X4080000Y-4947500D03*
X4080000Y-4792500D03*
%TD*%
D13*
%TO.C,SW2*%
X4912500Y-4337500D03*
X4912500Y-3922500D03*
X5127500Y-4337500D03*
X5127500Y-3922500D03*
%TD*%
D14*
%TO.C,R_FBB1*%
X2962500Y-3525000D03*
X2797500Y-3525000D03*
%TD*%
D10*
%TO.C,C8*%
X3825000Y-4170000D03*
X4335000Y-4170000D03*
%TD*%
D15*
%TO.C,R4*%
X5537000Y-4777500D03*
X5537000Y-4942500D03*
%TD*%
D12*
%TO.C,C17*%
X2710000Y-4977500D03*
X2710000Y-4822500D03*
%TD*%
D16*
%TO.C,L2*%
X2540000Y-2929500D03*
X2540000Y-3260500D03*
%TD*%
D17*
%TO.C,U1*%
X3775000Y-3002000D03*
X3775000Y-3142000D03*
X3775000Y-3282000D03*
X3775000Y-3422000D03*
X3915000Y-3002000D03*
X3915000Y-3142000D03*
X3915000Y-3282000D03*
X3915000Y-3422000D03*
X4055000Y-3002000D03*
X4055000Y-3142000D03*
X4055000Y-3282000D03*
X4055000Y-3422000D03*
X4195000Y-3002000D03*
X4195000Y-3142000D03*
X4195000Y-3282000D03*
X4195000Y-3422000D03*
D18*
X3641250Y-2937000D03*
X3641250Y-2987000D03*
X3641250Y-3037000D03*
X3641250Y-3087000D03*
X3641250Y-3137000D03*
X3641250Y-3187000D03*
X3641250Y-3237000D03*
X3641250Y-3287000D03*
X3641250Y-3337000D03*
X3641250Y-3387000D03*
X3641250Y-3437000D03*
X3641250Y-3487000D03*
D19*
X3710000Y-3555750D03*
X3760000Y-3555750D03*
X3810000Y-3555750D03*
X3860000Y-3555750D03*
X3910000Y-3555750D03*
X3960000Y-3555750D03*
X4010000Y-3555750D03*
X4060000Y-3555750D03*
X4110000Y-3555750D03*
X4160000Y-3555750D03*
X4210000Y-3555750D03*
X4260000Y-3555750D03*
D18*
X4328750Y-3487000D03*
X4328750Y-3437000D03*
X4328750Y-3387000D03*
X4328750Y-3337000D03*
X4328750Y-3287000D03*
X4328750Y-3237000D03*
X4328750Y-3187000D03*
X4328750Y-3137000D03*
X4328750Y-3087000D03*
X4328750Y-3037000D03*
X4328750Y-2987000D03*
X4328750Y-2937000D03*
D19*
X4260000Y-2868250D03*
X4210000Y-2868250D03*
X4160000Y-2868250D03*
X4110000Y-2868250D03*
X4060000Y-2868250D03*
X4010000Y-2868250D03*
X3960000Y-2868250D03*
X3910000Y-2868250D03*
X3860000Y-2868250D03*
X3810000Y-2868250D03*
X3760000Y-2868250D03*
X3710000Y-2868250D03*
%TD*%
D12*
%TO.C,C1*%
X5360000Y-4937500D03*
X5360000Y-4782500D03*
%TD*%
D15*
%TO.C,R20*%
X2880000Y-4817500D03*
X2880000Y-4982500D03*
%TD*%
D20*
%TO.C,C12*%
X2001000Y-3090000D03*
X2001000Y-3245000D03*
%TD*%
D21*
%TO.C,R1*%
X5893250Y-5260000D03*
X5300750Y-5260000D03*
%TD*%
D13*
%TO.C,SW1*%
X5502500Y-4337500D03*
X5502500Y-3922500D03*
X5717500Y-4337500D03*
X5717500Y-3922500D03*
%TD*%
D22*
%TO.C,U5*%
X3065000Y-4972250D03*
X3160000Y-4972250D03*
X3255000Y-4972250D03*
X3255000Y-4744750D03*
X3065000Y-4744750D03*
%TD*%
%TO.C,U4*%
X4445000Y-4953750D03*
X4540000Y-4953750D03*
X4635000Y-4953750D03*
X4635000Y-4726250D03*
X4445000Y-4726250D03*
%TD*%
D15*
%TO.C,J_3V3*%
X2165000Y-3397500D03*
X2165000Y-3562500D03*
%TD*%
D21*
%TO.C,R19*%
X3246250Y-5280000D03*
X2653750Y-5280000D03*
%TD*%
D23*
%TO.C,R16*%
X3720000Y-4952500D03*
X3720000Y-4787500D03*
%TD*%
D22*
%TO.C,U3*%
X5715000Y-4946250D03*
X5810000Y-4946250D03*
X5905000Y-4946250D03*
X5905000Y-4718750D03*
X5715000Y-4718750D03*
%TD*%
D21*
%TO.C,R13*%
X4626250Y-5260000D03*
X4033750Y-5260000D03*
%TD*%
D24*
%TO.C,U2*%
X5174750Y-3154000D03*
X5174750Y-3059000D03*
X5174750Y-2964000D03*
X4947250Y-2964000D03*
X4947250Y-3059000D03*
X4947250Y-3154000D03*
%TD*%
D25*
%TO.C,D7*%
X4970000Y-5675000D03*
X4970000Y-5245000D03*
%TD*%
D26*
%TO.C,R28*%
X4927500Y-3660000D03*
X5092500Y-3660000D03*
%TD*%
D23*
%TO.C,R22*%
X2340000Y-4982500D03*
X2340000Y-4817500D03*
%TD*%
%TO.C,R12*%
X5000000Y-4942500D03*
X5000000Y-4777500D03*
%TD*%
D25*
%TO.C,D8*%
X3680000Y-5675000D03*
X3680000Y-5245000D03*
%TD*%
D15*
%TO.C,R21*%
X2530000Y-4817500D03*
X2530000Y-4982500D03*
%TD*%
%TO.C,R15*%
X3900000Y-4787500D03*
X3900000Y-4952500D03*
%TD*%
D14*
%TO.C,R_FBT1*%
X2638500Y-3525000D03*
X2473500Y-3525000D03*
%TD*%
D27*
%TO.C,C29*%
X5028000Y-3520000D03*
X4932000Y-3520000D03*
%TD*%
D28*
%TO.C,J1*%
X5460000Y-3395000D03*
X5460000Y-3315000D03*
D29*
X5460000Y-3200000D03*
X5460000Y-3100000D03*
X5460000Y-3050000D03*
X5460000Y-2950000D03*
D28*
X5460000Y-2835000D03*
X5460000Y-2755000D03*
D29*
X5460000Y-2900000D03*
X5460000Y-3000000D03*
X5460000Y-3150000D03*
X5460000Y-3250000D03*
D30*
X5517500Y-3587000D03*
X5517500Y-2563000D03*
X5910500Y-3587000D03*
X5910500Y-2563000D03*
%TD*%
D20*
%TO.C,C11*%
X2166000Y-3090000D03*
X2166000Y-3245000D03*
%TD*%
D15*
%TO.C,R14*%
X4260000Y-4787500D03*
X4260000Y-4952500D03*
%TD*%
D31*
%TO.C,C23*%
X4465000Y-2988000D03*
X4465000Y-2892000D03*
%TD*%
D32*
%TO.C,C24*%
X4000000Y-2350000D03*
X3800000Y-2350000D03*
X3600000Y-2350000D03*
X3400000Y-2350000D03*
%TD*%
D15*
%TO.C,R11*%
X5180000Y-4777500D03*
X5180000Y-4942500D03*
%TD*%
D27*
%TO.C,C27*%
X3223000Y-2810000D03*
X3127000Y-2810000D03*
%TD*%
D25*
%TO.C,D9*%
X2290000Y-5675000D03*
X2290000Y-5245000D03*
%TD*%
D33*
%TO.C,C26*%
X3131500Y-3335000D03*
X3227500Y-3335000D03*
%TD*%
D34*
%TO.C,Y1*%
X3103700Y-2962500D03*
X3103700Y-3182500D03*
X3263800Y-3182500D03*
X3263800Y-2962500D03*
%TD*%
M02*
