%TF.GenerationSoftware,KiCad,Pcbnew,9.0.0*%
%TF.CreationDate,2025-04-09T22:07:23+02:00*%
%TF.ProjectId,ESC,4553432e-6b69-4636-9164-5f7063625858,rev?*%
%TF.SameCoordinates,Original*%
%TF.FileFunction,AssemblyDrawing,Top*%
%FSLAX45Y45*%
G04 Gerber Fmt 4.5, Leading zero omitted, Abs format (unit mm)*
G04 Created by KiCad (PCBNEW 9.0.0) date 2025-04-09 22:07:23*
%MOMM*%
%LPD*%
G01*
G04 APERTURE LIST*
%ADD10C,0.254000*%
%ADD11C,0.150000*%
%ADD12C,0.060000*%
%ADD13C,0.040000*%
%ADD14C,0.100000*%
G04 APERTURE END LIST*
D10*
X2628357Y-4215337D02*
X2622310Y-4221384D01*
X2622310Y-4221384D02*
X2604167Y-4227432D01*
X2604167Y-4227432D02*
X2592071Y-4227432D01*
X2592071Y-4227432D02*
X2573929Y-4221384D01*
X2573929Y-4221384D02*
X2561833Y-4209289D01*
X2561833Y-4209289D02*
X2555786Y-4197194D01*
X2555786Y-4197194D02*
X2549738Y-4173003D01*
X2549738Y-4173003D02*
X2549738Y-4154860D01*
X2549738Y-4154860D02*
X2555786Y-4130670D01*
X2555786Y-4130670D02*
X2561833Y-4118575D01*
X2561833Y-4118575D02*
X2573929Y-4106479D01*
X2573929Y-4106479D02*
X2592071Y-4100432D01*
X2592071Y-4100432D02*
X2604167Y-4100432D01*
X2604167Y-4100432D02*
X2622310Y-4106479D01*
X2622310Y-4106479D02*
X2628357Y-4112527D01*
X2749310Y-4227432D02*
X2676738Y-4227432D01*
X2713024Y-4227432D02*
X2713024Y-4100432D01*
X2713024Y-4100432D02*
X2700929Y-4118575D01*
X2700929Y-4118575D02*
X2688833Y-4130670D01*
X2688833Y-4130670D02*
X2676738Y-4136717D01*
X2858167Y-4100432D02*
X2833976Y-4100432D01*
X2833976Y-4100432D02*
X2821881Y-4106479D01*
X2821881Y-4106479D02*
X2815833Y-4112527D01*
X2815833Y-4112527D02*
X2803738Y-4130670D01*
X2803738Y-4130670D02*
X2797690Y-4154860D01*
X2797690Y-4154860D02*
X2797690Y-4203241D01*
X2797690Y-4203241D02*
X2803738Y-4215337D01*
X2803738Y-4215337D02*
X2809786Y-4221384D01*
X2809786Y-4221384D02*
X2821881Y-4227432D01*
X2821881Y-4227432D02*
X2846071Y-4227432D01*
X2846071Y-4227432D02*
X2858167Y-4221384D01*
X2858167Y-4221384D02*
X2864214Y-4215337D01*
X2864214Y-4215337D02*
X2870262Y-4203241D01*
X2870262Y-4203241D02*
X2870262Y-4173003D01*
X2870262Y-4173003D02*
X2864214Y-4160908D01*
X2864214Y-4160908D02*
X2858167Y-4154860D01*
X2858167Y-4154860D02*
X2846071Y-4148813D01*
X2846071Y-4148813D02*
X2821881Y-4148813D01*
X2821881Y-4148813D02*
X2809786Y-4154860D01*
X2809786Y-4154860D02*
X2803738Y-4160908D01*
X2803738Y-4160908D02*
X2797690Y-4173003D01*
D11*
X2867482Y-2654286D02*
X2867482Y-2701905D01*
X2867482Y-2701905D02*
X2767482Y-2701905D01*
X2815101Y-2620952D02*
X2815101Y-2587619D01*
X2867482Y-2573333D02*
X2867482Y-2620952D01*
X2867482Y-2620952D02*
X2767482Y-2620952D01*
X2767482Y-2620952D02*
X2767482Y-2573333D01*
X2867482Y-2530476D02*
X2767482Y-2530476D01*
X2767482Y-2530476D02*
X2767482Y-2506667D01*
X2767482Y-2506667D02*
X2772244Y-2492381D01*
X2772244Y-2492381D02*
X2781768Y-2482857D01*
X2781768Y-2482857D02*
X2791291Y-2478095D01*
X2791291Y-2478095D02*
X2810339Y-2473333D01*
X2810339Y-2473333D02*
X2824625Y-2473333D01*
X2824625Y-2473333D02*
X2843672Y-2478095D01*
X2843672Y-2478095D02*
X2853196Y-2482857D01*
X2853196Y-2482857D02*
X2862720Y-2492381D01*
X2862720Y-2492381D02*
X2867482Y-2506667D01*
X2867482Y-2506667D02*
X2867482Y-2530476D01*
X2877006Y-2454286D02*
X2877006Y-2378095D01*
X2862720Y-2359048D02*
X2867482Y-2344762D01*
X2867482Y-2344762D02*
X2867482Y-2320952D01*
X2867482Y-2320952D02*
X2862720Y-2311429D01*
X2862720Y-2311429D02*
X2857958Y-2306667D01*
X2857958Y-2306667D02*
X2848434Y-2301905D01*
X2848434Y-2301905D02*
X2838910Y-2301905D01*
X2838910Y-2301905D02*
X2829387Y-2306667D01*
X2829387Y-2306667D02*
X2824625Y-2311429D01*
X2824625Y-2311429D02*
X2819863Y-2320952D01*
X2819863Y-2320952D02*
X2815101Y-2340000D01*
X2815101Y-2340000D02*
X2810339Y-2349524D01*
X2810339Y-2349524D02*
X2805577Y-2354286D01*
X2805577Y-2354286D02*
X2796053Y-2359048D01*
X2796053Y-2359048D02*
X2786530Y-2359048D01*
X2786530Y-2359048D02*
X2777006Y-2354286D01*
X2777006Y-2354286D02*
X2772244Y-2349524D01*
X2772244Y-2349524D02*
X2767482Y-2340000D01*
X2767482Y-2340000D02*
X2767482Y-2316190D01*
X2767482Y-2316190D02*
X2772244Y-2301905D01*
X2867482Y-2259048D02*
X2800815Y-2259048D01*
X2810339Y-2259048D02*
X2805577Y-2254286D01*
X2805577Y-2254286D02*
X2800815Y-2244762D01*
X2800815Y-2244762D02*
X2800815Y-2230476D01*
X2800815Y-2230476D02*
X2805577Y-2220952D01*
X2805577Y-2220952D02*
X2815101Y-2216190D01*
X2815101Y-2216190D02*
X2867482Y-2216190D01*
X2815101Y-2216190D02*
X2805577Y-2211429D01*
X2805577Y-2211429D02*
X2800815Y-2201905D01*
X2800815Y-2201905D02*
X2800815Y-2187619D01*
X2800815Y-2187619D02*
X2805577Y-2178095D01*
X2805577Y-2178095D02*
X2815101Y-2173333D01*
X2815101Y-2173333D02*
X2867482Y-2173333D01*
X2867482Y-2082857D02*
X2815101Y-2082857D01*
X2815101Y-2082857D02*
X2805577Y-2087619D01*
X2805577Y-2087619D02*
X2800815Y-2097143D01*
X2800815Y-2097143D02*
X2800815Y-2116190D01*
X2800815Y-2116190D02*
X2805577Y-2125714D01*
X2862720Y-2082857D02*
X2867482Y-2092381D01*
X2867482Y-2092381D02*
X2867482Y-2116190D01*
X2867482Y-2116190D02*
X2862720Y-2125714D01*
X2862720Y-2125714D02*
X2853196Y-2130476D01*
X2853196Y-2130476D02*
X2843672Y-2130476D01*
X2843672Y-2130476D02*
X2834148Y-2125714D01*
X2834148Y-2125714D02*
X2829387Y-2116190D01*
X2829387Y-2116190D02*
X2829387Y-2092381D01*
X2829387Y-2092381D02*
X2824625Y-2082857D01*
X2867482Y-2020952D02*
X2862720Y-2030476D01*
X2862720Y-2030476D02*
X2853196Y-2035238D01*
X2853196Y-2035238D02*
X2767482Y-2035238D01*
X2867482Y-1968571D02*
X2862720Y-1978095D01*
X2862720Y-1978095D02*
X2853196Y-1982857D01*
X2853196Y-1982857D02*
X2767482Y-1982857D01*
D12*
X2983193Y-2369524D02*
X2943193Y-2369524D01*
X2943193Y-2369524D02*
X2943193Y-2360000D01*
X2943193Y-2360000D02*
X2945097Y-2354286D01*
X2945097Y-2354286D02*
X2948907Y-2350476D01*
X2948907Y-2350476D02*
X2952716Y-2348571D01*
X2952716Y-2348571D02*
X2960336Y-2346667D01*
X2960336Y-2346667D02*
X2966050Y-2346667D01*
X2966050Y-2346667D02*
X2973669Y-2348571D01*
X2973669Y-2348571D02*
X2977478Y-2350476D01*
X2977478Y-2350476D02*
X2981288Y-2354286D01*
X2981288Y-2354286D02*
X2983193Y-2360000D01*
X2983193Y-2360000D02*
X2983193Y-2369524D01*
X2943193Y-2310476D02*
X2943193Y-2329524D01*
X2943193Y-2329524D02*
X2962240Y-2331429D01*
X2962240Y-2331429D02*
X2960336Y-2329524D01*
X2960336Y-2329524D02*
X2958431Y-2325714D01*
X2958431Y-2325714D02*
X2958431Y-2316190D01*
X2958431Y-2316190D02*
X2960336Y-2312381D01*
X2960336Y-2312381D02*
X2962240Y-2310476D01*
X2962240Y-2310476D02*
X2966050Y-2308571D01*
X2966050Y-2308571D02*
X2975574Y-2308571D01*
X2975574Y-2308571D02*
X2979383Y-2310476D01*
X2979383Y-2310476D02*
X2981288Y-2312381D01*
X2981288Y-2312381D02*
X2983193Y-2316190D01*
X2983193Y-2316190D02*
X2983193Y-2325714D01*
X2983193Y-2325714D02*
X2981288Y-2329524D01*
X2981288Y-2329524D02*
X2979383Y-2331429D01*
D11*
X3062482Y-2649286D02*
X3062482Y-2696905D01*
X3062482Y-2696905D02*
X2962482Y-2696905D01*
X3010101Y-2615952D02*
X3010101Y-2582619D01*
X3062482Y-2568333D02*
X3062482Y-2615952D01*
X3062482Y-2615952D02*
X2962482Y-2615952D01*
X2962482Y-2615952D02*
X2962482Y-2568333D01*
X3062482Y-2525476D02*
X2962482Y-2525476D01*
X2962482Y-2525476D02*
X2962482Y-2501667D01*
X2962482Y-2501667D02*
X2967244Y-2487381D01*
X2967244Y-2487381D02*
X2976768Y-2477857D01*
X2976768Y-2477857D02*
X2986291Y-2473095D01*
X2986291Y-2473095D02*
X3005339Y-2468333D01*
X3005339Y-2468333D02*
X3019625Y-2468333D01*
X3019625Y-2468333D02*
X3038672Y-2473095D01*
X3038672Y-2473095D02*
X3048196Y-2477857D01*
X3048196Y-2477857D02*
X3057720Y-2487381D01*
X3057720Y-2487381D02*
X3062482Y-2501667D01*
X3062482Y-2501667D02*
X3062482Y-2525476D01*
X3072006Y-2449286D02*
X3072006Y-2373095D01*
X3057720Y-2354048D02*
X3062482Y-2339762D01*
X3062482Y-2339762D02*
X3062482Y-2315952D01*
X3062482Y-2315952D02*
X3057720Y-2306429D01*
X3057720Y-2306429D02*
X3052958Y-2301667D01*
X3052958Y-2301667D02*
X3043434Y-2296905D01*
X3043434Y-2296905D02*
X3033910Y-2296905D01*
X3033910Y-2296905D02*
X3024387Y-2301667D01*
X3024387Y-2301667D02*
X3019625Y-2306429D01*
X3019625Y-2306429D02*
X3014863Y-2315952D01*
X3014863Y-2315952D02*
X3010101Y-2335000D01*
X3010101Y-2335000D02*
X3005339Y-2344524D01*
X3005339Y-2344524D02*
X3000577Y-2349286D01*
X3000577Y-2349286D02*
X2991053Y-2354048D01*
X2991053Y-2354048D02*
X2981529Y-2354048D01*
X2981529Y-2354048D02*
X2972006Y-2349286D01*
X2972006Y-2349286D02*
X2967244Y-2344524D01*
X2967244Y-2344524D02*
X2962482Y-2335000D01*
X2962482Y-2335000D02*
X2962482Y-2311190D01*
X2962482Y-2311190D02*
X2967244Y-2296905D01*
X3062482Y-2254048D02*
X2995815Y-2254048D01*
X3005339Y-2254048D02*
X3000577Y-2249286D01*
X3000577Y-2249286D02*
X2995815Y-2239762D01*
X2995815Y-2239762D02*
X2995815Y-2225476D01*
X2995815Y-2225476D02*
X3000577Y-2215952D01*
X3000577Y-2215952D02*
X3010101Y-2211190D01*
X3010101Y-2211190D02*
X3062482Y-2211190D01*
X3010101Y-2211190D02*
X3000577Y-2206429D01*
X3000577Y-2206429D02*
X2995815Y-2196905D01*
X2995815Y-2196905D02*
X2995815Y-2182619D01*
X2995815Y-2182619D02*
X3000577Y-2173095D01*
X3000577Y-2173095D02*
X3010101Y-2168333D01*
X3010101Y-2168333D02*
X3062482Y-2168333D01*
X3062482Y-2077857D02*
X3010101Y-2077857D01*
X3010101Y-2077857D02*
X3000577Y-2082619D01*
X3000577Y-2082619D02*
X2995815Y-2092143D01*
X2995815Y-2092143D02*
X2995815Y-2111190D01*
X2995815Y-2111190D02*
X3000577Y-2120714D01*
X3057720Y-2077857D02*
X3062482Y-2087381D01*
X3062482Y-2087381D02*
X3062482Y-2111190D01*
X3062482Y-2111190D02*
X3057720Y-2120714D01*
X3057720Y-2120714D02*
X3048196Y-2125476D01*
X3048196Y-2125476D02*
X3038672Y-2125476D01*
X3038672Y-2125476D02*
X3029148Y-2120714D01*
X3029148Y-2120714D02*
X3024387Y-2111190D01*
X3024387Y-2111190D02*
X3024387Y-2087381D01*
X3024387Y-2087381D02*
X3019625Y-2077857D01*
X3062482Y-2015952D02*
X3057720Y-2025476D01*
X3057720Y-2025476D02*
X3048196Y-2030238D01*
X3048196Y-2030238D02*
X2962482Y-2030238D01*
X3062482Y-1963571D02*
X3057720Y-1973095D01*
X3057720Y-1973095D02*
X3048196Y-1977857D01*
X3048196Y-1977857D02*
X2962482Y-1977857D01*
D12*
X3178193Y-2364524D02*
X3138193Y-2364524D01*
X3138193Y-2364524D02*
X3138193Y-2355000D01*
X3138193Y-2355000D02*
X3140097Y-2349286D01*
X3140097Y-2349286D02*
X3143907Y-2345476D01*
X3143907Y-2345476D02*
X3147716Y-2343571D01*
X3147716Y-2343571D02*
X3155336Y-2341667D01*
X3155336Y-2341667D02*
X3161050Y-2341667D01*
X3161050Y-2341667D02*
X3168669Y-2343571D01*
X3168669Y-2343571D02*
X3172478Y-2345476D01*
X3172478Y-2345476D02*
X3176288Y-2349286D01*
X3176288Y-2349286D02*
X3178193Y-2355000D01*
X3178193Y-2355000D02*
X3178193Y-2364524D01*
X3138193Y-2307381D02*
X3138193Y-2315000D01*
X3138193Y-2315000D02*
X3140097Y-2318810D01*
X3140097Y-2318810D02*
X3142002Y-2320714D01*
X3142002Y-2320714D02*
X3147716Y-2324524D01*
X3147716Y-2324524D02*
X3155336Y-2326429D01*
X3155336Y-2326429D02*
X3170574Y-2326429D01*
X3170574Y-2326429D02*
X3174383Y-2324524D01*
X3174383Y-2324524D02*
X3176288Y-2322619D01*
X3176288Y-2322619D02*
X3178193Y-2318810D01*
X3178193Y-2318810D02*
X3178193Y-2311190D01*
X3178193Y-2311190D02*
X3176288Y-2307381D01*
X3176288Y-2307381D02*
X3174383Y-2305476D01*
X3174383Y-2305476D02*
X3170574Y-2303571D01*
X3170574Y-2303571D02*
X3161050Y-2303571D01*
X3161050Y-2303571D02*
X3157240Y-2305476D01*
X3157240Y-2305476D02*
X3155336Y-2307381D01*
X3155336Y-2307381D02*
X3153431Y-2311190D01*
X3153431Y-2311190D02*
X3153431Y-2318810D01*
X3153431Y-2318810D02*
X3155336Y-2322619D01*
X3155336Y-2322619D02*
X3157240Y-2324524D01*
X3157240Y-2324524D02*
X3161050Y-2326429D01*
D11*
X4268482Y-4886667D02*
X4268482Y-4943809D01*
X4268482Y-4915238D02*
X4168482Y-4915238D01*
X4168482Y-4915238D02*
X4182768Y-4924762D01*
X4182768Y-4924762D02*
X4192291Y-4934286D01*
X4192291Y-4934286D02*
X4197053Y-4943809D01*
X4201815Y-4843809D02*
X4268482Y-4843809D01*
X4211339Y-4843809D02*
X4206577Y-4839048D01*
X4206577Y-4839048D02*
X4201815Y-4829524D01*
X4201815Y-4829524D02*
X4201815Y-4815238D01*
X4201815Y-4815238D02*
X4206577Y-4805714D01*
X4206577Y-4805714D02*
X4216101Y-4800952D01*
X4216101Y-4800952D02*
X4268482Y-4800952D01*
D12*
X4094383Y-4876667D02*
X4096288Y-4878571D01*
X4096288Y-4878571D02*
X4098193Y-4884286D01*
X4098193Y-4884286D02*
X4098193Y-4888095D01*
X4098193Y-4888095D02*
X4096288Y-4893810D01*
X4096288Y-4893810D02*
X4092478Y-4897619D01*
X4092478Y-4897619D02*
X4088669Y-4899524D01*
X4088669Y-4899524D02*
X4081050Y-4901429D01*
X4081050Y-4901429D02*
X4075336Y-4901429D01*
X4075336Y-4901429D02*
X4067716Y-4899524D01*
X4067716Y-4899524D02*
X4063907Y-4897619D01*
X4063907Y-4897619D02*
X4060097Y-4893810D01*
X4060097Y-4893810D02*
X4058193Y-4888095D01*
X4058193Y-4888095D02*
X4058193Y-4884286D01*
X4058193Y-4884286D02*
X4060097Y-4878571D01*
X4060097Y-4878571D02*
X4062002Y-4876667D01*
X4098193Y-4857619D02*
X4098193Y-4850000D01*
X4098193Y-4850000D02*
X4096288Y-4846190D01*
X4096288Y-4846190D02*
X4094383Y-4844286D01*
X4094383Y-4844286D02*
X4088669Y-4840476D01*
X4088669Y-4840476D02*
X4081050Y-4838571D01*
X4081050Y-4838571D02*
X4065812Y-4838571D01*
X4065812Y-4838571D02*
X4062002Y-4840476D01*
X4062002Y-4840476D02*
X4060097Y-4842381D01*
X4060097Y-4842381D02*
X4058193Y-4846190D01*
X4058193Y-4846190D02*
X4058193Y-4853810D01*
X4058193Y-4853810D02*
X4060097Y-4857619D01*
X4060097Y-4857619D02*
X4062002Y-4859524D01*
X4062002Y-4859524D02*
X4065812Y-4861429D01*
X4065812Y-4861429D02*
X4075336Y-4861429D01*
X4075336Y-4861429D02*
X4079145Y-4859524D01*
X4079145Y-4859524D02*
X4081050Y-4857619D01*
X4081050Y-4857619D02*
X4082955Y-4853810D01*
X4082955Y-4853810D02*
X4082955Y-4846190D01*
X4082955Y-4846190D02*
X4081050Y-4842381D01*
X4081050Y-4842381D02*
X4079145Y-4840476D01*
X4079145Y-4840476D02*
X4075336Y-4838571D01*
D11*
X2572857Y-3337006D02*
X2577619Y-3332244D01*
X2577619Y-3332244D02*
X2587143Y-3327482D01*
X2587143Y-3327482D02*
X2610952Y-3327482D01*
X2610952Y-3327482D02*
X2620476Y-3332244D01*
X2620476Y-3332244D02*
X2625238Y-3337006D01*
X2625238Y-3337006D02*
X2630000Y-3346529D01*
X2630000Y-3346529D02*
X2630000Y-3356053D01*
X2630000Y-3356053D02*
X2625238Y-3370339D01*
X2625238Y-3370339D02*
X2568095Y-3427482D01*
X2568095Y-3427482D02*
X2630000Y-3427482D01*
X2668095Y-3337006D02*
X2672857Y-3332244D01*
X2672857Y-3332244D02*
X2682381Y-3327482D01*
X2682381Y-3327482D02*
X2706190Y-3327482D01*
X2706190Y-3327482D02*
X2715714Y-3332244D01*
X2715714Y-3332244D02*
X2720476Y-3337006D01*
X2720476Y-3337006D02*
X2725238Y-3346529D01*
X2725238Y-3346529D02*
X2725238Y-3356053D01*
X2725238Y-3356053D02*
X2720476Y-3370339D01*
X2720476Y-3370339D02*
X2663333Y-3427482D01*
X2663333Y-3427482D02*
X2725238Y-3427482D01*
X2768095Y-3427482D02*
X2768095Y-3327482D01*
X2777619Y-3389387D02*
X2806190Y-3427482D01*
X2806190Y-3360815D02*
X2768095Y-3398910D01*
X2901428Y-3427482D02*
X2844286Y-3427482D01*
X2872857Y-3427482D02*
X2872857Y-3327482D01*
X2872857Y-3327482D02*
X2863333Y-3341768D01*
X2863333Y-3341768D02*
X2853809Y-3351291D01*
X2853809Y-3351291D02*
X2844286Y-3356053D01*
X3015714Y-3427482D02*
X3091905Y-3327482D01*
X3030000Y-3327482D02*
X3039524Y-3332244D01*
X3039524Y-3332244D02*
X3044286Y-3341768D01*
X3044286Y-3341768D02*
X3039524Y-3351291D01*
X3039524Y-3351291D02*
X3030000Y-3356053D01*
X3030000Y-3356053D02*
X3020476Y-3351291D01*
X3020476Y-3351291D02*
X3015714Y-3341768D01*
X3015714Y-3341768D02*
X3020476Y-3332244D01*
X3020476Y-3332244D02*
X3030000Y-3327482D01*
X3087143Y-3422720D02*
X3091905Y-3413196D01*
X3091905Y-3413196D02*
X3087143Y-3403672D01*
X3087143Y-3403672D02*
X3077619Y-3398910D01*
X3077619Y-3398910D02*
X3068095Y-3403672D01*
X3068095Y-3403672D02*
X3063333Y-3413196D01*
X3063333Y-3413196D02*
X3068095Y-3422720D01*
X3068095Y-3422720D02*
X3077619Y-3427482D01*
X3077619Y-3427482D02*
X3087143Y-3422720D01*
X3187143Y-3427482D02*
X3130000Y-3427482D01*
X3158571Y-3427482D02*
X3158571Y-3327482D01*
X3158571Y-3327482D02*
X3149048Y-3341768D01*
X3149048Y-3341768D02*
X3139524Y-3351291D01*
X3139524Y-3351291D02*
X3130000Y-3356053D01*
D12*
X2800952Y-3543193D02*
X2787619Y-3524145D01*
X2778095Y-3543193D02*
X2778095Y-3503193D01*
X2778095Y-3503193D02*
X2793333Y-3503193D01*
X2793333Y-3503193D02*
X2797143Y-3505097D01*
X2797143Y-3505097D02*
X2799048Y-3507002D01*
X2799048Y-3507002D02*
X2800952Y-3510812D01*
X2800952Y-3510812D02*
X2800952Y-3516526D01*
X2800952Y-3516526D02*
X2799048Y-3520336D01*
X2799048Y-3520336D02*
X2797143Y-3522240D01*
X2797143Y-3522240D02*
X2793333Y-3524145D01*
X2793333Y-3524145D02*
X2778095Y-3524145D01*
X2808571Y-3547002D02*
X2839048Y-3547002D01*
X2861905Y-3522240D02*
X2848571Y-3522240D01*
X2848571Y-3543193D02*
X2848571Y-3503193D01*
X2848571Y-3503193D02*
X2867619Y-3503193D01*
X2896190Y-3522240D02*
X2901905Y-3524145D01*
X2901905Y-3524145D02*
X2903809Y-3526050D01*
X2903809Y-3526050D02*
X2905714Y-3529859D01*
X2905714Y-3529859D02*
X2905714Y-3535574D01*
X2905714Y-3535574D02*
X2903809Y-3539383D01*
X2903809Y-3539383D02*
X2901905Y-3541288D01*
X2901905Y-3541288D02*
X2898095Y-3543193D01*
X2898095Y-3543193D02*
X2882857Y-3543193D01*
X2882857Y-3543193D02*
X2882857Y-3503193D01*
X2882857Y-3503193D02*
X2896190Y-3503193D01*
X2896190Y-3503193D02*
X2900000Y-3505097D01*
X2900000Y-3505097D02*
X2901905Y-3507002D01*
X2901905Y-3507002D02*
X2903809Y-3510812D01*
X2903809Y-3510812D02*
X2903809Y-3514621D01*
X2903809Y-3514621D02*
X2901905Y-3518431D01*
X2901905Y-3518431D02*
X2900000Y-3520336D01*
X2900000Y-3520336D02*
X2896190Y-3522240D01*
X2896190Y-3522240D02*
X2882857Y-3522240D01*
X2936190Y-3522240D02*
X2941905Y-3524145D01*
X2941905Y-3524145D02*
X2943809Y-3526050D01*
X2943809Y-3526050D02*
X2945714Y-3529859D01*
X2945714Y-3529859D02*
X2945714Y-3535574D01*
X2945714Y-3535574D02*
X2943809Y-3539383D01*
X2943809Y-3539383D02*
X2941905Y-3541288D01*
X2941905Y-3541288D02*
X2938095Y-3543193D01*
X2938095Y-3543193D02*
X2922857Y-3543193D01*
X2922857Y-3543193D02*
X2922857Y-3503193D01*
X2922857Y-3503193D02*
X2936190Y-3503193D01*
X2936190Y-3503193D02*
X2940000Y-3505097D01*
X2940000Y-3505097D02*
X2941905Y-3507002D01*
X2941905Y-3507002D02*
X2943809Y-3510812D01*
X2943809Y-3510812D02*
X2943809Y-3514621D01*
X2943809Y-3514621D02*
X2941905Y-3518431D01*
X2941905Y-3518431D02*
X2940000Y-3520336D01*
X2940000Y-3520336D02*
X2936190Y-3522240D01*
X2936190Y-3522240D02*
X2922857Y-3522240D01*
X2983809Y-3543193D02*
X2960952Y-3543193D01*
X2972381Y-3543193D02*
X2972381Y-3503193D01*
X2972381Y-3503193D02*
X2968571Y-3508907D01*
X2968571Y-3508907D02*
X2964762Y-3512716D01*
X2964762Y-3512716D02*
X2960952Y-3514621D01*
D10*
X4058833Y-4215337D02*
X4052786Y-4221384D01*
X4052786Y-4221384D02*
X4034643Y-4227432D01*
X4034643Y-4227432D02*
X4022548Y-4227432D01*
X4022548Y-4227432D02*
X4004405Y-4221384D01*
X4004405Y-4221384D02*
X3992309Y-4209289D01*
X3992309Y-4209289D02*
X3986262Y-4197194D01*
X3986262Y-4197194D02*
X3980214Y-4173003D01*
X3980214Y-4173003D02*
X3980214Y-4154860D01*
X3980214Y-4154860D02*
X3986262Y-4130670D01*
X3986262Y-4130670D02*
X3992309Y-4118575D01*
X3992309Y-4118575D02*
X4004405Y-4106479D01*
X4004405Y-4106479D02*
X4022548Y-4100432D01*
X4022548Y-4100432D02*
X4034643Y-4100432D01*
X4034643Y-4100432D02*
X4052786Y-4106479D01*
X4052786Y-4106479D02*
X4058833Y-4112527D01*
X4131405Y-4154860D02*
X4119309Y-4148813D01*
X4119309Y-4148813D02*
X4113262Y-4142765D01*
X4113262Y-4142765D02*
X4107214Y-4130670D01*
X4107214Y-4130670D02*
X4107214Y-4124622D01*
X4107214Y-4124622D02*
X4113262Y-4112527D01*
X4113262Y-4112527D02*
X4119309Y-4106479D01*
X4119309Y-4106479D02*
X4131405Y-4100432D01*
X4131405Y-4100432D02*
X4155595Y-4100432D01*
X4155595Y-4100432D02*
X4167690Y-4106479D01*
X4167690Y-4106479D02*
X4173738Y-4112527D01*
X4173738Y-4112527D02*
X4179786Y-4124622D01*
X4179786Y-4124622D02*
X4179786Y-4130670D01*
X4179786Y-4130670D02*
X4173738Y-4142765D01*
X4173738Y-4142765D02*
X4167690Y-4148813D01*
X4167690Y-4148813D02*
X4155595Y-4154860D01*
X4155595Y-4154860D02*
X4131405Y-4154860D01*
X4131405Y-4154860D02*
X4119309Y-4160908D01*
X4119309Y-4160908D02*
X4113262Y-4166956D01*
X4113262Y-4166956D02*
X4107214Y-4179051D01*
X4107214Y-4179051D02*
X4107214Y-4203241D01*
X4107214Y-4203241D02*
X4113262Y-4215337D01*
X4113262Y-4215337D02*
X4119309Y-4221384D01*
X4119309Y-4221384D02*
X4131405Y-4227432D01*
X4131405Y-4227432D02*
X4155595Y-4227432D01*
X4155595Y-4227432D02*
X4167690Y-4221384D01*
X4167690Y-4221384D02*
X4173738Y-4215337D01*
X4173738Y-4215337D02*
X4179786Y-4203241D01*
X4179786Y-4203241D02*
X4179786Y-4179051D01*
X4179786Y-4179051D02*
X4173738Y-4166956D01*
X4173738Y-4166956D02*
X4167690Y-4160908D01*
X4167690Y-4160908D02*
X4155595Y-4154860D01*
D11*
X5439482Y-4871905D02*
X5439482Y-4929048D01*
X5439482Y-4900476D02*
X5339482Y-4900476D01*
X5339482Y-4900476D02*
X5353768Y-4910000D01*
X5353768Y-4910000D02*
X5363291Y-4919524D01*
X5363291Y-4919524D02*
X5368053Y-4929048D01*
X5439482Y-4829048D02*
X5339482Y-4829048D01*
X5401387Y-4819524D02*
X5439482Y-4790952D01*
X5372815Y-4790952D02*
X5410910Y-4829048D01*
D12*
X5555193Y-4866667D02*
X5536145Y-4880000D01*
X5555193Y-4889524D02*
X5515193Y-4889524D01*
X5515193Y-4889524D02*
X5515193Y-4874286D01*
X5515193Y-4874286D02*
X5517098Y-4870476D01*
X5517098Y-4870476D02*
X5519002Y-4868571D01*
X5519002Y-4868571D02*
X5522812Y-4866667D01*
X5522812Y-4866667D02*
X5528526Y-4866667D01*
X5528526Y-4866667D02*
X5532336Y-4868571D01*
X5532336Y-4868571D02*
X5534240Y-4870476D01*
X5534240Y-4870476D02*
X5536145Y-4874286D01*
X5536145Y-4874286D02*
X5536145Y-4889524D01*
X5528526Y-4832381D02*
X5555193Y-4832381D01*
X5513288Y-4841905D02*
X5541859Y-4851429D01*
X5541859Y-4851429D02*
X5541859Y-4826667D01*
D11*
X2898482Y-4916667D02*
X2898482Y-4973809D01*
X2898482Y-4945238D02*
X2798482Y-4945238D01*
X2798482Y-4945238D02*
X2812768Y-4954762D01*
X2812768Y-4954762D02*
X2822291Y-4964286D01*
X2822291Y-4964286D02*
X2827053Y-4973809D01*
X2831815Y-4873809D02*
X2898482Y-4873809D01*
X2841339Y-4873809D02*
X2836577Y-4869048D01*
X2836577Y-4869048D02*
X2831815Y-4859524D01*
X2831815Y-4859524D02*
X2831815Y-4845238D01*
X2831815Y-4845238D02*
X2836577Y-4835714D01*
X2836577Y-4835714D02*
X2846101Y-4830952D01*
X2846101Y-4830952D02*
X2898482Y-4830952D01*
D12*
X2724383Y-4925714D02*
X2726288Y-4927619D01*
X2726288Y-4927619D02*
X2728193Y-4933333D01*
X2728193Y-4933333D02*
X2728193Y-4937143D01*
X2728193Y-4937143D02*
X2726288Y-4942857D01*
X2726288Y-4942857D02*
X2722478Y-4946667D01*
X2722478Y-4946667D02*
X2718669Y-4948571D01*
X2718669Y-4948571D02*
X2711050Y-4950476D01*
X2711050Y-4950476D02*
X2705336Y-4950476D01*
X2705336Y-4950476D02*
X2697717Y-4948571D01*
X2697717Y-4948571D02*
X2693907Y-4946667D01*
X2693907Y-4946667D02*
X2690098Y-4942857D01*
X2690098Y-4942857D02*
X2688193Y-4937143D01*
X2688193Y-4937143D02*
X2688193Y-4933333D01*
X2688193Y-4933333D02*
X2690098Y-4927619D01*
X2690098Y-4927619D02*
X2692002Y-4925714D01*
X2728193Y-4887619D02*
X2728193Y-4910476D01*
X2728193Y-4899048D02*
X2688193Y-4899048D01*
X2688193Y-4899048D02*
X2693907Y-4902857D01*
X2693907Y-4902857D02*
X2697717Y-4906667D01*
X2697717Y-4906667D02*
X2699621Y-4910476D01*
X2688193Y-4874286D02*
X2688193Y-4847619D01*
X2688193Y-4847619D02*
X2728193Y-4864762D01*
D11*
X1796428Y-2720482D02*
X1796428Y-2620482D01*
X1796428Y-2620482D02*
X1829762Y-2691910D01*
X1829762Y-2691910D02*
X1863095Y-2620482D01*
X1863095Y-2620482D02*
X1863095Y-2720482D01*
X1925000Y-2720482D02*
X1915476Y-2715720D01*
X1915476Y-2715720D02*
X1910714Y-2710958D01*
X1910714Y-2710958D02*
X1905952Y-2701434D01*
X1905952Y-2701434D02*
X1905952Y-2672863D01*
X1905952Y-2672863D02*
X1910714Y-2663339D01*
X1910714Y-2663339D02*
X1915476Y-2658577D01*
X1915476Y-2658577D02*
X1925000Y-2653815D01*
X1925000Y-2653815D02*
X1939286Y-2653815D01*
X1939286Y-2653815D02*
X1948809Y-2658577D01*
X1948809Y-2658577D02*
X1953571Y-2663339D01*
X1953571Y-2663339D02*
X1958333Y-2672863D01*
X1958333Y-2672863D02*
X1958333Y-2701434D01*
X1958333Y-2701434D02*
X1953571Y-2710958D01*
X1953571Y-2710958D02*
X1948809Y-2715720D01*
X1948809Y-2715720D02*
X1939286Y-2720482D01*
X1939286Y-2720482D02*
X1925000Y-2720482D01*
X2044047Y-2653815D02*
X2044047Y-2720482D01*
X2001190Y-2653815D02*
X2001190Y-2706196D01*
X2001190Y-2706196D02*
X2005952Y-2715720D01*
X2005952Y-2715720D02*
X2015476Y-2720482D01*
X2015476Y-2720482D02*
X2029762Y-2720482D01*
X2029762Y-2720482D02*
X2039286Y-2715720D01*
X2039286Y-2715720D02*
X2044047Y-2710958D01*
X2091667Y-2653815D02*
X2091667Y-2720482D01*
X2091667Y-2663339D02*
X2096428Y-2658577D01*
X2096428Y-2658577D02*
X2105952Y-2653815D01*
X2105952Y-2653815D02*
X2120238Y-2653815D01*
X2120238Y-2653815D02*
X2129762Y-2658577D01*
X2129762Y-2658577D02*
X2134524Y-2668101D01*
X2134524Y-2668101D02*
X2134524Y-2720482D01*
X2167857Y-2653815D02*
X2205952Y-2653815D01*
X2182143Y-2620482D02*
X2182143Y-2706196D01*
X2182143Y-2706196D02*
X2186905Y-2715720D01*
X2186905Y-2715720D02*
X2196429Y-2720482D01*
X2196429Y-2720482D02*
X2205952Y-2720482D01*
X2239286Y-2720482D02*
X2239286Y-2653815D01*
X2239286Y-2620482D02*
X2234524Y-2625244D01*
X2234524Y-2625244D02*
X2239286Y-2630006D01*
X2239286Y-2630006D02*
X2244048Y-2625244D01*
X2244048Y-2625244D02*
X2239286Y-2620482D01*
X2239286Y-2620482D02*
X2239286Y-2630006D01*
X2286905Y-2653815D02*
X2286905Y-2720482D01*
X2286905Y-2663339D02*
X2291667Y-2658577D01*
X2291667Y-2658577D02*
X2301190Y-2653815D01*
X2301190Y-2653815D02*
X2315476Y-2653815D01*
X2315476Y-2653815D02*
X2325000Y-2658577D01*
X2325000Y-2658577D02*
X2329762Y-2668101D01*
X2329762Y-2668101D02*
X2329762Y-2720482D01*
X2420238Y-2653815D02*
X2420238Y-2734768D01*
X2420238Y-2734768D02*
X2415476Y-2744291D01*
X2415476Y-2744291D02*
X2410714Y-2749053D01*
X2410714Y-2749053D02*
X2401190Y-2753815D01*
X2401190Y-2753815D02*
X2386905Y-2753815D01*
X2386905Y-2753815D02*
X2377381Y-2749053D01*
X2420238Y-2715720D02*
X2410714Y-2720482D01*
X2410714Y-2720482D02*
X2391667Y-2720482D01*
X2391667Y-2720482D02*
X2382143Y-2715720D01*
X2382143Y-2715720D02*
X2377381Y-2710958D01*
X2377381Y-2710958D02*
X2372619Y-2701434D01*
X2372619Y-2701434D02*
X2372619Y-2672863D01*
X2372619Y-2672863D02*
X2377381Y-2663339D01*
X2377381Y-2663339D02*
X2382143Y-2658577D01*
X2382143Y-2658577D02*
X2391667Y-2653815D01*
X2391667Y-2653815D02*
X2410714Y-2653815D01*
X2410714Y-2653815D02*
X2420238Y-2658577D01*
X2467857Y-2720482D02*
X2467857Y-2620482D01*
X2467857Y-2668101D02*
X2525000Y-2668101D01*
X2525000Y-2720482D02*
X2525000Y-2620482D01*
X2586905Y-2720482D02*
X2577381Y-2715720D01*
X2577381Y-2715720D02*
X2572619Y-2710958D01*
X2572619Y-2710958D02*
X2567857Y-2701434D01*
X2567857Y-2701434D02*
X2567857Y-2672863D01*
X2567857Y-2672863D02*
X2572619Y-2663339D01*
X2572619Y-2663339D02*
X2577381Y-2658577D01*
X2577381Y-2658577D02*
X2586905Y-2653815D01*
X2586905Y-2653815D02*
X2601190Y-2653815D01*
X2601190Y-2653815D02*
X2610714Y-2658577D01*
X2610714Y-2658577D02*
X2615476Y-2663339D01*
X2615476Y-2663339D02*
X2620238Y-2672863D01*
X2620238Y-2672863D02*
X2620238Y-2701434D01*
X2620238Y-2701434D02*
X2615476Y-2710958D01*
X2615476Y-2710958D02*
X2610714Y-2715720D01*
X2610714Y-2715720D02*
X2601190Y-2720482D01*
X2601190Y-2720482D02*
X2586905Y-2720482D01*
X2677381Y-2720482D02*
X2667857Y-2715720D01*
X2667857Y-2715720D02*
X2663095Y-2706196D01*
X2663095Y-2706196D02*
X2663095Y-2620482D01*
X2753571Y-2715720D02*
X2744048Y-2720482D01*
X2744048Y-2720482D02*
X2725000Y-2720482D01*
X2725000Y-2720482D02*
X2715476Y-2715720D01*
X2715476Y-2715720D02*
X2710714Y-2706196D01*
X2710714Y-2706196D02*
X2710714Y-2668101D01*
X2710714Y-2668101D02*
X2715476Y-2658577D01*
X2715476Y-2658577D02*
X2725000Y-2653815D01*
X2725000Y-2653815D02*
X2744048Y-2653815D01*
X2744048Y-2653815D02*
X2753571Y-2658577D01*
X2753571Y-2658577D02*
X2758333Y-2668101D01*
X2758333Y-2668101D02*
X2758333Y-2677625D01*
X2758333Y-2677625D02*
X2710714Y-2687149D01*
X2198810Y-2430482D02*
X2198810Y-2330482D01*
X2198810Y-2378101D02*
X2255952Y-2378101D01*
X2255952Y-2430482D02*
X2255952Y-2330482D01*
X2355952Y-2430482D02*
X2298810Y-2430482D01*
X2327381Y-2430482D02*
X2327381Y-2330482D01*
X2327381Y-2330482D02*
X2317857Y-2344768D01*
X2317857Y-2344768D02*
X2308333Y-2354291D01*
X2308333Y-2354291D02*
X2298810Y-2359053D01*
X3382619Y-3735720D02*
X3396905Y-3740482D01*
X3396905Y-3740482D02*
X3420714Y-3740482D01*
X3420714Y-3740482D02*
X3430238Y-3735720D01*
X3430238Y-3735720D02*
X3435000Y-3730958D01*
X3435000Y-3730958D02*
X3439762Y-3721434D01*
X3439762Y-3721434D02*
X3439762Y-3711910D01*
X3439762Y-3711910D02*
X3435000Y-3702387D01*
X3435000Y-3702387D02*
X3430238Y-3697625D01*
X3430238Y-3697625D02*
X3420714Y-3692863D01*
X3420714Y-3692863D02*
X3401667Y-3688101D01*
X3401667Y-3688101D02*
X3392143Y-3683339D01*
X3392143Y-3683339D02*
X3387381Y-3678577D01*
X3387381Y-3678577D02*
X3382619Y-3669053D01*
X3382619Y-3669053D02*
X3382619Y-3659529D01*
X3382619Y-3659529D02*
X3387381Y-3650006D01*
X3387381Y-3650006D02*
X3392143Y-3645244D01*
X3392143Y-3645244D02*
X3401667Y-3640482D01*
X3401667Y-3640482D02*
X3425476Y-3640482D01*
X3425476Y-3640482D02*
X3439762Y-3645244D01*
X3468333Y-3640482D02*
X3525476Y-3640482D01*
X3496905Y-3740482D02*
X3496905Y-3640482D01*
X3558809Y-3740482D02*
X3558809Y-3640482D01*
X3558809Y-3640482D02*
X3592143Y-3711910D01*
X3592143Y-3711910D02*
X3625476Y-3640482D01*
X3625476Y-3640482D02*
X3625476Y-3740482D01*
X3663571Y-3640482D02*
X3725476Y-3640482D01*
X3725476Y-3640482D02*
X3692143Y-3678577D01*
X3692143Y-3678577D02*
X3706428Y-3678577D01*
X3706428Y-3678577D02*
X3715952Y-3683339D01*
X3715952Y-3683339D02*
X3720714Y-3688101D01*
X3720714Y-3688101D02*
X3725476Y-3697625D01*
X3725476Y-3697625D02*
X3725476Y-3721434D01*
X3725476Y-3721434D02*
X3720714Y-3730958D01*
X3720714Y-3730958D02*
X3715952Y-3735720D01*
X3715952Y-3735720D02*
X3706428Y-3740482D01*
X3706428Y-3740482D02*
X3677857Y-3740482D01*
X3677857Y-3740482D02*
X3668333Y-3735720D01*
X3668333Y-3735720D02*
X3663571Y-3730958D01*
X3763571Y-3650006D02*
X3768333Y-3645244D01*
X3768333Y-3645244D02*
X3777857Y-3640482D01*
X3777857Y-3640482D02*
X3801667Y-3640482D01*
X3801667Y-3640482D02*
X3811190Y-3645244D01*
X3811190Y-3645244D02*
X3815952Y-3650006D01*
X3815952Y-3650006D02*
X3820714Y-3659529D01*
X3820714Y-3659529D02*
X3820714Y-3669053D01*
X3820714Y-3669053D02*
X3815952Y-3683339D01*
X3815952Y-3683339D02*
X3758809Y-3740482D01*
X3758809Y-3740482D02*
X3820714Y-3740482D01*
X3911190Y-3740482D02*
X3863571Y-3740482D01*
X3863571Y-3740482D02*
X3863571Y-3640482D01*
X3987381Y-3673815D02*
X3987381Y-3740482D01*
X3963571Y-3635720D02*
X3939762Y-3707148D01*
X3939762Y-3707148D02*
X4001667Y-3707148D01*
X4092143Y-3740482D02*
X4035000Y-3740482D01*
X4063571Y-3740482D02*
X4063571Y-3640482D01*
X4063571Y-3640482D02*
X4054048Y-3654768D01*
X4054048Y-3654768D02*
X4044524Y-3664291D01*
X4044524Y-3664291D02*
X4035000Y-3669053D01*
X4130238Y-3650006D02*
X4135000Y-3645244D01*
X4135000Y-3645244D02*
X4144524Y-3640482D01*
X4144524Y-3640482D02*
X4168333Y-3640482D01*
X4168333Y-3640482D02*
X4177857Y-3645244D01*
X4177857Y-3645244D02*
X4182619Y-3650006D01*
X4182619Y-3650006D02*
X4187381Y-3659529D01*
X4187381Y-3659529D02*
X4187381Y-3669053D01*
X4187381Y-3669053D02*
X4182619Y-3683339D01*
X4182619Y-3683339D02*
X4125476Y-3740482D01*
X4125476Y-3740482D02*
X4187381Y-3740482D01*
X4287381Y-3730958D02*
X4282619Y-3735720D01*
X4282619Y-3735720D02*
X4268333Y-3740482D01*
X4268333Y-3740482D02*
X4258810Y-3740482D01*
X4258810Y-3740482D02*
X4244524Y-3735720D01*
X4244524Y-3735720D02*
X4235000Y-3726196D01*
X4235000Y-3726196D02*
X4230238Y-3716672D01*
X4230238Y-3716672D02*
X4225476Y-3697625D01*
X4225476Y-3697625D02*
X4225476Y-3683339D01*
X4225476Y-3683339D02*
X4230238Y-3664291D01*
X4230238Y-3664291D02*
X4235000Y-3654768D01*
X4235000Y-3654768D02*
X4244524Y-3645244D01*
X4244524Y-3645244D02*
X4258810Y-3640482D01*
X4258810Y-3640482D02*
X4268333Y-3640482D01*
X4268333Y-3640482D02*
X4282619Y-3645244D01*
X4282619Y-3645244D02*
X4287381Y-3650006D01*
X4363571Y-3688101D02*
X4377857Y-3692863D01*
X4377857Y-3692863D02*
X4382619Y-3697625D01*
X4382619Y-3697625D02*
X4387381Y-3707148D01*
X4387381Y-3707148D02*
X4387381Y-3721434D01*
X4387381Y-3721434D02*
X4382619Y-3730958D01*
X4382619Y-3730958D02*
X4377857Y-3735720D01*
X4377857Y-3735720D02*
X4368333Y-3740482D01*
X4368333Y-3740482D02*
X4330238Y-3740482D01*
X4330238Y-3740482D02*
X4330238Y-3640482D01*
X4330238Y-3640482D02*
X4363571Y-3640482D01*
X4363571Y-3640482D02*
X4373095Y-3645244D01*
X4373095Y-3645244D02*
X4377857Y-3650006D01*
X4377857Y-3650006D02*
X4382619Y-3659529D01*
X4382619Y-3659529D02*
X4382619Y-3669053D01*
X4382619Y-3669053D02*
X4377857Y-3678577D01*
X4377857Y-3678577D02*
X4373095Y-3683339D01*
X4373095Y-3683339D02*
X4363571Y-3688101D01*
X4363571Y-3688101D02*
X4330238Y-3688101D01*
X4430238Y-3640482D02*
X4430238Y-3721434D01*
X4430238Y-3721434D02*
X4435000Y-3730958D01*
X4435000Y-3730958D02*
X4439762Y-3735720D01*
X4439762Y-3735720D02*
X4449286Y-3740482D01*
X4449286Y-3740482D02*
X4468333Y-3740482D01*
X4468333Y-3740482D02*
X4477857Y-3735720D01*
X4477857Y-3735720D02*
X4482619Y-3730958D01*
X4482619Y-3730958D02*
X4487381Y-3721434D01*
X4487381Y-3721434D02*
X4487381Y-3640482D01*
X4577857Y-3640482D02*
X4558810Y-3640482D01*
X4558810Y-3640482D02*
X4549286Y-3645244D01*
X4549286Y-3645244D02*
X4544524Y-3650006D01*
X4544524Y-3650006D02*
X4535000Y-3664291D01*
X4535000Y-3664291D02*
X4530238Y-3683339D01*
X4530238Y-3683339D02*
X4530238Y-3721434D01*
X4530238Y-3721434D02*
X4535000Y-3730958D01*
X4535000Y-3730958D02*
X4539762Y-3735720D01*
X4539762Y-3735720D02*
X4549286Y-3740482D01*
X4549286Y-3740482D02*
X4568333Y-3740482D01*
X4568333Y-3740482D02*
X4577857Y-3735720D01*
X4577857Y-3735720D02*
X4582619Y-3730958D01*
X4582619Y-3730958D02*
X4587381Y-3721434D01*
X4587381Y-3721434D02*
X4587381Y-3697625D01*
X4587381Y-3697625D02*
X4582619Y-3688101D01*
X4582619Y-3688101D02*
X4577857Y-3683339D01*
X4577857Y-3683339D02*
X4568333Y-3678577D01*
X4568333Y-3678577D02*
X4549286Y-3678577D01*
X4549286Y-3678577D02*
X4539762Y-3683339D01*
X4539762Y-3683339D02*
X4535000Y-3688101D01*
X4535000Y-3688101D02*
X4530238Y-3697625D01*
X3908809Y-3157482D02*
X3908809Y-3238434D01*
X3908809Y-3238434D02*
X3913571Y-3247958D01*
X3913571Y-3247958D02*
X3918333Y-3252720D01*
X3918333Y-3252720D02*
X3927857Y-3257482D01*
X3927857Y-3257482D02*
X3946905Y-3257482D01*
X3946905Y-3257482D02*
X3956428Y-3252720D01*
X3956428Y-3252720D02*
X3961190Y-3247958D01*
X3961190Y-3247958D02*
X3965952Y-3238434D01*
X3965952Y-3238434D02*
X3965952Y-3157482D01*
X4065952Y-3257482D02*
X4008809Y-3257482D01*
X4037381Y-3257482D02*
X4037381Y-3157482D01*
X4037381Y-3157482D02*
X4027857Y-3171768D01*
X4027857Y-3171768D02*
X4018333Y-3181291D01*
X4018333Y-3181291D02*
X4008809Y-3186053D01*
X5548482Y-4876667D02*
X5548482Y-4933809D01*
X5548482Y-4905238D02*
X5448482Y-4905238D01*
X5448482Y-4905238D02*
X5462768Y-4914762D01*
X5462768Y-4914762D02*
X5472291Y-4924286D01*
X5472291Y-4924286D02*
X5477053Y-4933809D01*
X5481815Y-4833809D02*
X5548482Y-4833809D01*
X5491339Y-4833809D02*
X5486577Y-4829048D01*
X5486577Y-4829048D02*
X5481815Y-4819524D01*
X5481815Y-4819524D02*
X5481815Y-4805238D01*
X5481815Y-4805238D02*
X5486577Y-4795714D01*
X5486577Y-4795714D02*
X5496101Y-4790952D01*
X5496101Y-4790952D02*
X5548482Y-4790952D01*
D12*
X5374383Y-4866667D02*
X5376288Y-4868571D01*
X5376288Y-4868571D02*
X5378193Y-4874286D01*
X5378193Y-4874286D02*
X5378193Y-4878095D01*
X5378193Y-4878095D02*
X5376288Y-4883810D01*
X5376288Y-4883810D02*
X5372478Y-4887619D01*
X5372478Y-4887619D02*
X5368669Y-4889524D01*
X5368669Y-4889524D02*
X5361050Y-4891429D01*
X5361050Y-4891429D02*
X5355336Y-4891429D01*
X5355336Y-4891429D02*
X5347717Y-4889524D01*
X5347717Y-4889524D02*
X5343907Y-4887619D01*
X5343907Y-4887619D02*
X5340098Y-4883810D01*
X5340098Y-4883810D02*
X5338193Y-4878095D01*
X5338193Y-4878095D02*
X5338193Y-4874286D01*
X5338193Y-4874286D02*
X5340098Y-4868571D01*
X5340098Y-4868571D02*
X5342002Y-4866667D01*
X5378193Y-4828571D02*
X5378193Y-4851429D01*
X5378193Y-4840000D02*
X5338193Y-4840000D01*
X5338193Y-4840000D02*
X5343907Y-4843810D01*
X5343907Y-4843810D02*
X5347717Y-4847619D01*
X5347717Y-4847619D02*
X5349621Y-4851429D01*
D11*
X2782482Y-4911905D02*
X2782482Y-4969048D01*
X2782482Y-4940476D02*
X2682482Y-4940476D01*
X2682482Y-4940476D02*
X2696768Y-4950000D01*
X2696768Y-4950000D02*
X2706291Y-4959524D01*
X2706291Y-4959524D02*
X2711053Y-4969048D01*
X2782482Y-4869048D02*
X2682482Y-4869048D01*
X2744387Y-4859524D02*
X2782482Y-4830952D01*
X2715815Y-4830952D02*
X2753910Y-4869048D01*
D12*
X2898193Y-4925714D02*
X2879145Y-4939048D01*
X2898193Y-4948571D02*
X2858193Y-4948571D01*
X2858193Y-4948571D02*
X2858193Y-4933333D01*
X2858193Y-4933333D02*
X2860097Y-4929524D01*
X2860097Y-4929524D02*
X2862002Y-4927619D01*
X2862002Y-4927619D02*
X2865812Y-4925714D01*
X2865812Y-4925714D02*
X2871526Y-4925714D01*
X2871526Y-4925714D02*
X2875336Y-4927619D01*
X2875336Y-4927619D02*
X2877240Y-4929524D01*
X2877240Y-4929524D02*
X2879145Y-4933333D01*
X2879145Y-4933333D02*
X2879145Y-4948571D01*
X2862002Y-4910476D02*
X2860097Y-4908571D01*
X2860097Y-4908571D02*
X2858193Y-4904762D01*
X2858193Y-4904762D02*
X2858193Y-4895238D01*
X2858193Y-4895238D02*
X2860097Y-4891429D01*
X2860097Y-4891429D02*
X2862002Y-4889524D01*
X2862002Y-4889524D02*
X2865812Y-4887619D01*
X2865812Y-4887619D02*
X2869621Y-4887619D01*
X2869621Y-4887619D02*
X2875336Y-4889524D01*
X2875336Y-4889524D02*
X2898193Y-4912381D01*
X2898193Y-4912381D02*
X2898193Y-4887619D01*
X2858193Y-4862857D02*
X2858193Y-4859048D01*
X2858193Y-4859048D02*
X2860097Y-4855238D01*
X2860097Y-4855238D02*
X2862002Y-4853333D01*
X2862002Y-4853333D02*
X2865812Y-4851429D01*
X2865812Y-4851429D02*
X2873431Y-4849524D01*
X2873431Y-4849524D02*
X2882955Y-4849524D01*
X2882955Y-4849524D02*
X2890574Y-4851429D01*
X2890574Y-4851429D02*
X2894383Y-4853333D01*
X2894383Y-4853333D02*
X2896288Y-4855238D01*
X2896288Y-4855238D02*
X2898193Y-4859048D01*
X2898193Y-4859048D02*
X2898193Y-4862857D01*
X2898193Y-4862857D02*
X2896288Y-4866667D01*
X2896288Y-4866667D02*
X2894383Y-4868571D01*
X2894383Y-4868571D02*
X2890574Y-4870476D01*
X2890574Y-4870476D02*
X2882955Y-4872381D01*
X2882955Y-4872381D02*
X2873431Y-4872381D01*
X2873431Y-4872381D02*
X2865812Y-4870476D01*
X2865812Y-4870476D02*
X2862002Y-4868571D01*
X2862002Y-4868571D02*
X2860097Y-4866667D01*
X2860097Y-4866667D02*
X2858193Y-4862857D01*
D11*
X1813006Y-3503214D02*
X1808244Y-3498452D01*
X1808244Y-3498452D02*
X1803482Y-3488928D01*
X1803482Y-3488928D02*
X1803482Y-3465119D01*
X1803482Y-3465119D02*
X1808244Y-3455595D01*
X1808244Y-3455595D02*
X1813006Y-3450833D01*
X1813006Y-3450833D02*
X1822529Y-3446071D01*
X1822529Y-3446071D02*
X1832053Y-3446071D01*
X1832053Y-3446071D02*
X1846339Y-3450833D01*
X1846339Y-3450833D02*
X1903482Y-3507976D01*
X1903482Y-3507976D02*
X1903482Y-3446071D01*
X1813006Y-3407976D02*
X1808244Y-3403214D01*
X1808244Y-3403214D02*
X1803482Y-3393690D01*
X1803482Y-3393690D02*
X1803482Y-3369881D01*
X1803482Y-3369881D02*
X1808244Y-3360357D01*
X1808244Y-3360357D02*
X1813006Y-3355595D01*
X1813006Y-3355595D02*
X1822529Y-3350833D01*
X1822529Y-3350833D02*
X1832053Y-3350833D01*
X1832053Y-3350833D02*
X1846339Y-3355595D01*
X1846339Y-3355595D02*
X1903482Y-3412738D01*
X1903482Y-3412738D02*
X1903482Y-3350833D01*
X1836815Y-3265119D02*
X1903482Y-3265119D01*
X1836815Y-3307976D02*
X1889196Y-3307976D01*
X1889196Y-3307976D02*
X1898720Y-3303214D01*
X1898720Y-3303214D02*
X1903482Y-3293690D01*
X1903482Y-3293690D02*
X1903482Y-3279405D01*
X1903482Y-3279405D02*
X1898720Y-3269881D01*
X1898720Y-3269881D02*
X1893958Y-3265119D01*
X1798720Y-3146071D02*
X1927291Y-3231786D01*
X1803482Y-3069881D02*
X1803482Y-3088928D01*
X1803482Y-3088928D02*
X1808244Y-3098452D01*
X1808244Y-3098452D02*
X1813006Y-3103214D01*
X1813006Y-3103214D02*
X1827291Y-3112738D01*
X1827291Y-3112738D02*
X1846339Y-3117500D01*
X1846339Y-3117500D02*
X1884434Y-3117500D01*
X1884434Y-3117500D02*
X1893958Y-3112738D01*
X1893958Y-3112738D02*
X1898720Y-3107976D01*
X1898720Y-3107976D02*
X1903482Y-3098452D01*
X1903482Y-3098452D02*
X1903482Y-3079405D01*
X1903482Y-3079405D02*
X1898720Y-3069881D01*
X1898720Y-3069881D02*
X1893958Y-3065119D01*
X1893958Y-3065119D02*
X1884434Y-3060357D01*
X1884434Y-3060357D02*
X1860625Y-3060357D01*
X1860625Y-3060357D02*
X1851101Y-3065119D01*
X1851101Y-3065119D02*
X1846339Y-3069881D01*
X1846339Y-3069881D02*
X1841577Y-3079405D01*
X1841577Y-3079405D02*
X1841577Y-3098452D01*
X1841577Y-3098452D02*
X1846339Y-3107976D01*
X1846339Y-3107976D02*
X1851101Y-3112738D01*
X1851101Y-3112738D02*
X1860625Y-3117500D01*
X1893958Y-3017500D02*
X1898720Y-3012738D01*
X1898720Y-3012738D02*
X1903482Y-3017500D01*
X1903482Y-3017500D02*
X1898720Y-3022262D01*
X1898720Y-3022262D02*
X1893958Y-3017500D01*
X1893958Y-3017500D02*
X1903482Y-3017500D01*
X1803482Y-2927024D02*
X1803482Y-2946071D01*
X1803482Y-2946071D02*
X1808244Y-2955595D01*
X1808244Y-2955595D02*
X1813006Y-2960357D01*
X1813006Y-2960357D02*
X1827291Y-2969881D01*
X1827291Y-2969881D02*
X1846339Y-2974643D01*
X1846339Y-2974643D02*
X1884434Y-2974643D01*
X1884434Y-2974643D02*
X1893958Y-2969881D01*
X1893958Y-2969881D02*
X1898720Y-2965119D01*
X1898720Y-2965119D02*
X1903482Y-2955595D01*
X1903482Y-2955595D02*
X1903482Y-2936548D01*
X1903482Y-2936548D02*
X1898720Y-2927024D01*
X1898720Y-2927024D02*
X1893958Y-2922262D01*
X1893958Y-2922262D02*
X1884434Y-2917500D01*
X1884434Y-2917500D02*
X1860625Y-2917500D01*
X1860625Y-2917500D02*
X1851101Y-2922262D01*
X1851101Y-2922262D02*
X1846339Y-2927024D01*
X1846339Y-2927024D02*
X1841577Y-2936548D01*
X1841577Y-2936548D02*
X1841577Y-2955595D01*
X1841577Y-2955595D02*
X1846339Y-2965119D01*
X1846339Y-2965119D02*
X1851101Y-2969881D01*
X1851101Y-2969881D02*
X1860625Y-2974643D01*
X1803482Y-2888928D02*
X1903482Y-2855595D01*
X1903482Y-2855595D02*
X1803482Y-2822262D01*
D12*
X2015383Y-3193214D02*
X2017288Y-3195119D01*
X2017288Y-3195119D02*
X2019193Y-3200833D01*
X2019193Y-3200833D02*
X2019193Y-3204643D01*
X2019193Y-3204643D02*
X2017288Y-3210357D01*
X2017288Y-3210357D02*
X2013478Y-3214167D01*
X2013478Y-3214167D02*
X2009669Y-3216071D01*
X2009669Y-3216071D02*
X2002050Y-3217976D01*
X2002050Y-3217976D02*
X1996336Y-3217976D01*
X1996336Y-3217976D02*
X1988716Y-3216071D01*
X1988716Y-3216071D02*
X1984907Y-3214167D01*
X1984907Y-3214167D02*
X1981097Y-3210357D01*
X1981097Y-3210357D02*
X1979193Y-3204643D01*
X1979193Y-3204643D02*
X1979193Y-3200833D01*
X1979193Y-3200833D02*
X1981097Y-3195119D01*
X1981097Y-3195119D02*
X1983002Y-3193214D01*
X2019193Y-3155119D02*
X2019193Y-3177976D01*
X2019193Y-3166547D02*
X1979193Y-3166547D01*
X1979193Y-3166547D02*
X1984907Y-3170357D01*
X1984907Y-3170357D02*
X1988716Y-3174167D01*
X1988716Y-3174167D02*
X1990621Y-3177976D01*
X1983002Y-3139881D02*
X1981097Y-3137976D01*
X1981097Y-3137976D02*
X1979193Y-3134167D01*
X1979193Y-3134167D02*
X1979193Y-3124643D01*
X1979193Y-3124643D02*
X1981097Y-3120833D01*
X1981097Y-3120833D02*
X1983002Y-3118928D01*
X1983002Y-3118928D02*
X1986812Y-3117024D01*
X1986812Y-3117024D02*
X1990621Y-3117024D01*
X1990621Y-3117024D02*
X1996336Y-3118928D01*
X1996336Y-3118928D02*
X2019193Y-3141786D01*
X2019193Y-3141786D02*
X2019193Y-3117024D01*
D11*
X5337476Y-4953006D02*
X5342238Y-4948244D01*
X5342238Y-4948244D02*
X5351762Y-4943482D01*
X5351762Y-4943482D02*
X5375571Y-4943482D01*
X5375571Y-4943482D02*
X5385095Y-4948244D01*
X5385095Y-4948244D02*
X5389857Y-4953006D01*
X5389857Y-4953006D02*
X5394619Y-4962530D01*
X5394619Y-4962530D02*
X5394619Y-4972053D01*
X5394619Y-4972053D02*
X5389857Y-4986339D01*
X5389857Y-4986339D02*
X5332714Y-5043482D01*
X5332714Y-5043482D02*
X5394619Y-5043482D01*
X5437476Y-5043482D02*
X5437476Y-4976815D01*
X5437476Y-4986339D02*
X5442238Y-4981577D01*
X5442238Y-4981577D02*
X5451762Y-4976815D01*
X5451762Y-4976815D02*
X5466048Y-4976815D01*
X5466048Y-4976815D02*
X5475571Y-4981577D01*
X5475571Y-4981577D02*
X5480333Y-4991101D01*
X5480333Y-4991101D02*
X5480333Y-5043482D01*
X5480333Y-4991101D02*
X5485095Y-4981577D01*
X5485095Y-4981577D02*
X5494619Y-4976815D01*
X5494619Y-4976815D02*
X5508905Y-4976815D01*
X5508905Y-4976815D02*
X5518429Y-4981577D01*
X5518429Y-4981577D02*
X5523191Y-4991101D01*
X5523191Y-4991101D02*
X5523191Y-5043482D01*
X5589857Y-4943482D02*
X5608905Y-4943482D01*
X5608905Y-4943482D02*
X5618428Y-4948244D01*
X5618428Y-4948244D02*
X5627952Y-4957768D01*
X5627952Y-4957768D02*
X5632714Y-4976815D01*
X5632714Y-4976815D02*
X5632714Y-5010149D01*
X5632714Y-5010149D02*
X5627952Y-5029196D01*
X5627952Y-5029196D02*
X5618428Y-5038720D01*
X5618428Y-5038720D02*
X5608905Y-5043482D01*
X5608905Y-5043482D02*
X5589857Y-5043482D01*
X5589857Y-5043482D02*
X5580333Y-5038720D01*
X5580333Y-5038720D02*
X5570810Y-5029196D01*
X5570810Y-5029196D02*
X5566048Y-5010149D01*
X5566048Y-5010149D02*
X5566048Y-4976815D01*
X5566048Y-4976815D02*
X5570810Y-4957768D01*
X5570810Y-4957768D02*
X5580333Y-4948244D01*
X5580333Y-4948244D02*
X5589857Y-4943482D01*
X5675571Y-5043482D02*
X5675571Y-4943482D01*
X5718428Y-5043482D02*
X5718428Y-4991101D01*
X5718428Y-4991101D02*
X5713667Y-4981577D01*
X5713667Y-4981577D02*
X5704143Y-4976815D01*
X5704143Y-4976815D02*
X5689857Y-4976815D01*
X5689857Y-4976815D02*
X5680333Y-4981577D01*
X5680333Y-4981577D02*
X5675571Y-4986339D01*
X5766048Y-5043482D02*
X5766048Y-4976815D01*
X5766048Y-4986339D02*
X5770809Y-4981577D01*
X5770809Y-4981577D02*
X5780333Y-4976815D01*
X5780333Y-4976815D02*
X5794619Y-4976815D01*
X5794619Y-4976815D02*
X5804143Y-4981577D01*
X5804143Y-4981577D02*
X5808905Y-4991101D01*
X5808905Y-4991101D02*
X5808905Y-5043482D01*
X5808905Y-4991101D02*
X5813667Y-4981577D01*
X5813667Y-4981577D02*
X5823190Y-4976815D01*
X5823190Y-4976815D02*
X5837476Y-4976815D01*
X5837476Y-4976815D02*
X5847000Y-4981577D01*
X5847000Y-4981577D02*
X5851762Y-4991101D01*
X5851762Y-4991101D02*
X5851762Y-5043482D01*
X5580333Y-5305482D02*
X5547000Y-5257863D01*
X5523191Y-5305482D02*
X5523191Y-5205482D01*
X5523191Y-5205482D02*
X5561286Y-5205482D01*
X5561286Y-5205482D02*
X5570810Y-5210244D01*
X5570810Y-5210244D02*
X5575571Y-5215006D01*
X5575571Y-5215006D02*
X5580333Y-5224530D01*
X5580333Y-5224530D02*
X5580333Y-5238815D01*
X5580333Y-5238815D02*
X5575571Y-5248339D01*
X5575571Y-5248339D02*
X5570810Y-5253101D01*
X5570810Y-5253101D02*
X5561286Y-5257863D01*
X5561286Y-5257863D02*
X5523191Y-5257863D01*
X5675571Y-5305482D02*
X5618429Y-5305482D01*
X5647000Y-5305482D02*
X5647000Y-5205482D01*
X5647000Y-5205482D02*
X5637476Y-5219768D01*
X5637476Y-5219768D02*
X5627952Y-5229291D01*
X5627952Y-5229291D02*
X5618429Y-5234053D01*
X3445482Y-5187071D02*
X3345482Y-5187071D01*
X3445482Y-5139452D02*
X3345482Y-5139452D01*
X3345482Y-5139452D02*
X3445482Y-5082310D01*
X3445482Y-5082310D02*
X3345482Y-5082310D01*
X3416910Y-5039452D02*
X3416910Y-4991833D01*
X3445482Y-5048976D02*
X3345482Y-5015643D01*
X3345482Y-5015643D02*
X3445482Y-4982310D01*
X3445482Y-4896595D02*
X3445482Y-4953738D01*
X3445482Y-4925167D02*
X3345482Y-4925167D01*
X3345482Y-4925167D02*
X3359768Y-4934690D01*
X3359768Y-4934690D02*
X3369291Y-4944214D01*
X3369291Y-4944214D02*
X3374053Y-4953738D01*
X3388339Y-4839452D02*
X3383577Y-4848976D01*
X3383577Y-4848976D02*
X3378815Y-4853738D01*
X3378815Y-4853738D02*
X3369291Y-4858500D01*
X3369291Y-4858500D02*
X3364529Y-4858500D01*
X3364529Y-4858500D02*
X3355006Y-4853738D01*
X3355006Y-4853738D02*
X3350244Y-4848976D01*
X3350244Y-4848976D02*
X3345482Y-4839452D01*
X3345482Y-4839452D02*
X3345482Y-4820405D01*
X3345482Y-4820405D02*
X3350244Y-4810881D01*
X3350244Y-4810881D02*
X3355006Y-4806119D01*
X3355006Y-4806119D02*
X3364529Y-4801357D01*
X3364529Y-4801357D02*
X3369291Y-4801357D01*
X3369291Y-4801357D02*
X3378815Y-4806119D01*
X3378815Y-4806119D02*
X3383577Y-4810881D01*
X3383577Y-4810881D02*
X3388339Y-4820405D01*
X3388339Y-4820405D02*
X3388339Y-4839452D01*
X3388339Y-4839452D02*
X3393101Y-4848976D01*
X3393101Y-4848976D02*
X3397863Y-4853738D01*
X3397863Y-4853738D02*
X3407387Y-4858500D01*
X3407387Y-4858500D02*
X3426434Y-4858500D01*
X3426434Y-4858500D02*
X3435958Y-4853738D01*
X3435958Y-4853738D02*
X3440720Y-4848976D01*
X3440720Y-4848976D02*
X3445482Y-4839452D01*
X3445482Y-4839452D02*
X3445482Y-4820405D01*
X3445482Y-4820405D02*
X3440720Y-4810881D01*
X3440720Y-4810881D02*
X3435958Y-4806119D01*
X3435958Y-4806119D02*
X3426434Y-4801357D01*
X3426434Y-4801357D02*
X3407387Y-4801357D01*
X3407387Y-4801357D02*
X3397863Y-4806119D01*
X3397863Y-4806119D02*
X3393101Y-4810881D01*
X3393101Y-4810881D02*
X3388339Y-4820405D01*
X3345482Y-4739452D02*
X3345482Y-4729929D01*
X3345482Y-4729929D02*
X3350244Y-4720405D01*
X3350244Y-4720405D02*
X3355006Y-4715643D01*
X3355006Y-4715643D02*
X3364529Y-4710881D01*
X3364529Y-4710881D02*
X3383577Y-4706119D01*
X3383577Y-4706119D02*
X3407387Y-4706119D01*
X3407387Y-4706119D02*
X3426434Y-4710881D01*
X3426434Y-4710881D02*
X3435958Y-4715643D01*
X3435958Y-4715643D02*
X3440720Y-4720405D01*
X3440720Y-4720405D02*
X3445482Y-4729929D01*
X3445482Y-4729929D02*
X3445482Y-4739452D01*
X3445482Y-4739452D02*
X3440720Y-4748976D01*
X3440720Y-4748976D02*
X3435958Y-4753738D01*
X3435958Y-4753738D02*
X3426434Y-4758500D01*
X3426434Y-4758500D02*
X3407387Y-4763262D01*
X3407387Y-4763262D02*
X3383577Y-4763262D01*
X3383577Y-4763262D02*
X3364529Y-4758500D01*
X3364529Y-4758500D02*
X3355006Y-4753738D01*
X3355006Y-4753738D02*
X3350244Y-4748976D01*
X3350244Y-4748976D02*
X3345482Y-4739452D01*
X3416910Y-4668024D02*
X3416910Y-4620405D01*
X3445482Y-4677548D02*
X3345482Y-4644214D01*
X3345482Y-4644214D02*
X3445482Y-4610881D01*
X3345482Y-4587071D02*
X3345482Y-4525167D01*
X3345482Y-4525167D02*
X3383577Y-4558500D01*
X3383577Y-4558500D02*
X3383577Y-4544214D01*
X3383577Y-4544214D02*
X3388339Y-4534690D01*
X3388339Y-4534690D02*
X3393101Y-4529929D01*
X3393101Y-4529929D02*
X3402625Y-4525167D01*
X3402625Y-4525167D02*
X3426434Y-4525167D01*
X3426434Y-4525167D02*
X3435958Y-4529929D01*
X3435958Y-4529929D02*
X3440720Y-4534690D01*
X3440720Y-4534690D02*
X3445482Y-4544214D01*
X3445482Y-4544214D02*
X3445482Y-4572786D01*
X3445482Y-4572786D02*
X3440720Y-4582309D01*
X3440720Y-4582309D02*
X3435958Y-4587071D01*
D12*
X3138193Y-4888976D02*
X3170574Y-4888976D01*
X3170574Y-4888976D02*
X3174383Y-4887071D01*
X3174383Y-4887071D02*
X3176288Y-4885167D01*
X3176288Y-4885167D02*
X3178193Y-4881357D01*
X3178193Y-4881357D02*
X3178193Y-4873738D01*
X3178193Y-4873738D02*
X3176288Y-4869929D01*
X3176288Y-4869929D02*
X3174383Y-4868024D01*
X3174383Y-4868024D02*
X3170574Y-4866119D01*
X3170574Y-4866119D02*
X3138193Y-4866119D01*
X3138193Y-4828024D02*
X3138193Y-4847071D01*
X3138193Y-4847071D02*
X3157240Y-4848976D01*
X3157240Y-4848976D02*
X3155336Y-4847071D01*
X3155336Y-4847071D02*
X3153431Y-4843262D01*
X3153431Y-4843262D02*
X3153431Y-4833738D01*
X3153431Y-4833738D02*
X3155336Y-4829929D01*
X3155336Y-4829929D02*
X3157240Y-4828024D01*
X3157240Y-4828024D02*
X3161050Y-4826119D01*
X3161050Y-4826119D02*
X3170574Y-4826119D01*
X3170574Y-4826119D02*
X3174383Y-4828024D01*
X3174383Y-4828024D02*
X3176288Y-4829929D01*
X3176288Y-4829929D02*
X3178193Y-4833738D01*
X3178193Y-4833738D02*
X3178193Y-4843262D01*
X3178193Y-4843262D02*
X3176288Y-4847071D01*
X3176288Y-4847071D02*
X3174383Y-4848976D01*
D11*
X4825482Y-5168571D02*
X4725482Y-5168571D01*
X4825482Y-5120952D02*
X4725482Y-5120952D01*
X4725482Y-5120952D02*
X4825482Y-5063810D01*
X4825482Y-5063810D02*
X4725482Y-5063810D01*
X4796910Y-5020952D02*
X4796910Y-4973333D01*
X4825482Y-5030476D02*
X4725482Y-4997143D01*
X4725482Y-4997143D02*
X4825482Y-4963810D01*
X4825482Y-4878095D02*
X4825482Y-4935238D01*
X4825482Y-4906667D02*
X4725482Y-4906667D01*
X4725482Y-4906667D02*
X4739768Y-4916190D01*
X4739768Y-4916190D02*
X4749291Y-4925714D01*
X4749291Y-4925714D02*
X4754053Y-4935238D01*
X4768339Y-4820952D02*
X4763577Y-4830476D01*
X4763577Y-4830476D02*
X4758815Y-4835238D01*
X4758815Y-4835238D02*
X4749291Y-4840000D01*
X4749291Y-4840000D02*
X4744530Y-4840000D01*
X4744530Y-4840000D02*
X4735006Y-4835238D01*
X4735006Y-4835238D02*
X4730244Y-4830476D01*
X4730244Y-4830476D02*
X4725482Y-4820952D01*
X4725482Y-4820952D02*
X4725482Y-4801905D01*
X4725482Y-4801905D02*
X4730244Y-4792381D01*
X4730244Y-4792381D02*
X4735006Y-4787619D01*
X4735006Y-4787619D02*
X4744530Y-4782857D01*
X4744530Y-4782857D02*
X4749291Y-4782857D01*
X4749291Y-4782857D02*
X4758815Y-4787619D01*
X4758815Y-4787619D02*
X4763577Y-4792381D01*
X4763577Y-4792381D02*
X4768339Y-4801905D01*
X4768339Y-4801905D02*
X4768339Y-4820952D01*
X4768339Y-4820952D02*
X4773101Y-4830476D01*
X4773101Y-4830476D02*
X4777863Y-4835238D01*
X4777863Y-4835238D02*
X4787387Y-4840000D01*
X4787387Y-4840000D02*
X4806434Y-4840000D01*
X4806434Y-4840000D02*
X4815958Y-4835238D01*
X4815958Y-4835238D02*
X4820720Y-4830476D01*
X4820720Y-4830476D02*
X4825482Y-4820952D01*
X4825482Y-4820952D02*
X4825482Y-4801905D01*
X4825482Y-4801905D02*
X4820720Y-4792381D01*
X4820720Y-4792381D02*
X4815958Y-4787619D01*
X4815958Y-4787619D02*
X4806434Y-4782857D01*
X4806434Y-4782857D02*
X4787387Y-4782857D01*
X4787387Y-4782857D02*
X4777863Y-4787619D01*
X4777863Y-4787619D02*
X4773101Y-4792381D01*
X4773101Y-4792381D02*
X4768339Y-4801905D01*
X4725482Y-4720952D02*
X4725482Y-4711429D01*
X4725482Y-4711429D02*
X4730244Y-4701905D01*
X4730244Y-4701905D02*
X4735006Y-4697143D01*
X4735006Y-4697143D02*
X4744530Y-4692381D01*
X4744530Y-4692381D02*
X4763577Y-4687619D01*
X4763577Y-4687619D02*
X4787387Y-4687619D01*
X4787387Y-4687619D02*
X4806434Y-4692381D01*
X4806434Y-4692381D02*
X4815958Y-4697143D01*
X4815958Y-4697143D02*
X4820720Y-4701905D01*
X4820720Y-4701905D02*
X4825482Y-4711429D01*
X4825482Y-4711429D02*
X4825482Y-4720952D01*
X4825482Y-4720952D02*
X4820720Y-4730476D01*
X4820720Y-4730476D02*
X4815958Y-4735238D01*
X4815958Y-4735238D02*
X4806434Y-4740000D01*
X4806434Y-4740000D02*
X4787387Y-4744762D01*
X4787387Y-4744762D02*
X4763577Y-4744762D01*
X4763577Y-4744762D02*
X4744530Y-4740000D01*
X4744530Y-4740000D02*
X4735006Y-4735238D01*
X4735006Y-4735238D02*
X4730244Y-4730476D01*
X4730244Y-4730476D02*
X4725482Y-4720952D01*
X4796910Y-4649524D02*
X4796910Y-4601905D01*
X4825482Y-4659048D02*
X4725482Y-4625714D01*
X4725482Y-4625714D02*
X4825482Y-4592381D01*
X4725482Y-4568571D02*
X4725482Y-4506667D01*
X4725482Y-4506667D02*
X4763577Y-4540000D01*
X4763577Y-4540000D02*
X4763577Y-4525714D01*
X4763577Y-4525714D02*
X4768339Y-4516190D01*
X4768339Y-4516190D02*
X4773101Y-4511429D01*
X4773101Y-4511429D02*
X4782625Y-4506667D01*
X4782625Y-4506667D02*
X4806434Y-4506667D01*
X4806434Y-4506667D02*
X4815958Y-4511429D01*
X4815958Y-4511429D02*
X4820720Y-4516190D01*
X4820720Y-4516190D02*
X4825482Y-4525714D01*
X4825482Y-4525714D02*
X4825482Y-4554286D01*
X4825482Y-4554286D02*
X4820720Y-4563809D01*
X4820720Y-4563809D02*
X4815958Y-4568571D01*
D12*
X4518193Y-4870476D02*
X4550574Y-4870476D01*
X4550574Y-4870476D02*
X4554383Y-4868571D01*
X4554383Y-4868571D02*
X4556288Y-4866667D01*
X4556288Y-4866667D02*
X4558193Y-4862857D01*
X4558193Y-4862857D02*
X4558193Y-4855238D01*
X4558193Y-4855238D02*
X4556288Y-4851429D01*
X4556288Y-4851429D02*
X4554383Y-4849524D01*
X4554383Y-4849524D02*
X4550574Y-4847619D01*
X4550574Y-4847619D02*
X4518193Y-4847619D01*
X4531526Y-4811429D02*
X4558193Y-4811429D01*
X4516288Y-4820952D02*
X4544859Y-4830476D01*
X4544859Y-4830476D02*
X4544859Y-4805714D01*
D11*
X1967482Y-3484762D02*
X1967482Y-3475238D01*
X1967482Y-3475238D02*
X1972244Y-3465714D01*
X1972244Y-3465714D02*
X1977006Y-3460952D01*
X1977006Y-3460952D02*
X1986529Y-3456190D01*
X1986529Y-3456190D02*
X2005577Y-3451428D01*
X2005577Y-3451428D02*
X2029387Y-3451428D01*
X2029387Y-3451428D02*
X2048434Y-3456190D01*
X2048434Y-3456190D02*
X2057958Y-3460952D01*
X2057958Y-3460952D02*
X2062720Y-3465714D01*
X2062720Y-3465714D02*
X2067482Y-3475238D01*
X2067482Y-3475238D02*
X2067482Y-3484762D01*
X2067482Y-3484762D02*
X2062720Y-3494286D01*
X2062720Y-3494286D02*
X2057958Y-3499047D01*
X2057958Y-3499047D02*
X2048434Y-3503809D01*
X2048434Y-3503809D02*
X2029387Y-3508571D01*
X2029387Y-3508571D02*
X2005577Y-3508571D01*
X2005577Y-3508571D02*
X1986529Y-3503809D01*
X1986529Y-3503809D02*
X1977006Y-3499047D01*
X1977006Y-3499047D02*
X1972244Y-3494286D01*
X1972244Y-3494286D02*
X1967482Y-3484762D01*
D12*
X2143193Y-3544762D02*
X2171764Y-3544762D01*
X2171764Y-3544762D02*
X2177478Y-3546666D01*
X2177478Y-3546666D02*
X2181288Y-3550476D01*
X2181288Y-3550476D02*
X2183193Y-3556190D01*
X2183193Y-3556190D02*
X2183193Y-3560000D01*
X2187002Y-3535238D02*
X2187002Y-3504762D01*
X2143193Y-3499047D02*
X2143193Y-3474286D01*
X2143193Y-3474286D02*
X2158431Y-3487619D01*
X2158431Y-3487619D02*
X2158431Y-3481905D01*
X2158431Y-3481905D02*
X2160336Y-3478095D01*
X2160336Y-3478095D02*
X2162240Y-3476190D01*
X2162240Y-3476190D02*
X2166050Y-3474286D01*
X2166050Y-3474286D02*
X2175574Y-3474286D01*
X2175574Y-3474286D02*
X2179383Y-3476190D01*
X2179383Y-3476190D02*
X2181288Y-3478095D01*
X2181288Y-3478095D02*
X2183193Y-3481905D01*
X2183193Y-3481905D02*
X2183193Y-3493333D01*
X2183193Y-3493333D02*
X2181288Y-3497143D01*
X2181288Y-3497143D02*
X2179383Y-3499047D01*
X2143193Y-3462857D02*
X2183193Y-3449524D01*
X2183193Y-3449524D02*
X2143193Y-3436190D01*
X2143193Y-3426667D02*
X2143193Y-3401905D01*
X2143193Y-3401905D02*
X2158431Y-3415238D01*
X2158431Y-3415238D02*
X2158431Y-3409524D01*
X2158431Y-3409524D02*
X2160336Y-3405714D01*
X2160336Y-3405714D02*
X2162240Y-3403809D01*
X2162240Y-3403809D02*
X2166050Y-3401905D01*
X2166050Y-3401905D02*
X2175574Y-3401905D01*
X2175574Y-3401905D02*
X2179383Y-3403809D01*
X2179383Y-3403809D02*
X2181288Y-3405714D01*
X2181288Y-3405714D02*
X2183193Y-3409524D01*
X2183193Y-3409524D02*
X2183193Y-3420952D01*
X2183193Y-3420952D02*
X2181288Y-3424762D01*
X2181288Y-3424762D02*
X2179383Y-3426667D01*
D11*
X2690476Y-4973006D02*
X2695238Y-4968244D01*
X2695238Y-4968244D02*
X2704762Y-4963482D01*
X2704762Y-4963482D02*
X2728571Y-4963482D01*
X2728571Y-4963482D02*
X2738095Y-4968244D01*
X2738095Y-4968244D02*
X2742857Y-4973006D01*
X2742857Y-4973006D02*
X2747619Y-4982530D01*
X2747619Y-4982530D02*
X2747619Y-4992053D01*
X2747619Y-4992053D02*
X2742857Y-5006339D01*
X2742857Y-5006339D02*
X2685714Y-5063482D01*
X2685714Y-5063482D02*
X2747619Y-5063482D01*
X2790476Y-5063482D02*
X2790476Y-4996815D01*
X2790476Y-5006339D02*
X2795238Y-5001577D01*
X2795238Y-5001577D02*
X2804762Y-4996815D01*
X2804762Y-4996815D02*
X2819048Y-4996815D01*
X2819048Y-4996815D02*
X2828571Y-5001577D01*
X2828571Y-5001577D02*
X2833333Y-5011101D01*
X2833333Y-5011101D02*
X2833333Y-5063482D01*
X2833333Y-5011101D02*
X2838095Y-5001577D01*
X2838095Y-5001577D02*
X2847619Y-4996815D01*
X2847619Y-4996815D02*
X2861905Y-4996815D01*
X2861905Y-4996815D02*
X2871429Y-5001577D01*
X2871429Y-5001577D02*
X2876190Y-5011101D01*
X2876190Y-5011101D02*
X2876190Y-5063482D01*
X2942857Y-4963482D02*
X2961905Y-4963482D01*
X2961905Y-4963482D02*
X2971428Y-4968244D01*
X2971428Y-4968244D02*
X2980952Y-4977768D01*
X2980952Y-4977768D02*
X2985714Y-4996815D01*
X2985714Y-4996815D02*
X2985714Y-5030149D01*
X2985714Y-5030149D02*
X2980952Y-5049196D01*
X2980952Y-5049196D02*
X2971428Y-5058720D01*
X2971428Y-5058720D02*
X2961905Y-5063482D01*
X2961905Y-5063482D02*
X2942857Y-5063482D01*
X2942857Y-5063482D02*
X2933333Y-5058720D01*
X2933333Y-5058720D02*
X2923809Y-5049196D01*
X2923809Y-5049196D02*
X2919048Y-5030149D01*
X2919048Y-5030149D02*
X2919048Y-4996815D01*
X2919048Y-4996815D02*
X2923809Y-4977768D01*
X2923809Y-4977768D02*
X2933333Y-4968244D01*
X2933333Y-4968244D02*
X2942857Y-4963482D01*
X3028571Y-5063482D02*
X3028571Y-4963482D01*
X3071428Y-5063482D02*
X3071428Y-5011101D01*
X3071428Y-5011101D02*
X3066667Y-5001577D01*
X3066667Y-5001577D02*
X3057143Y-4996815D01*
X3057143Y-4996815D02*
X3042857Y-4996815D01*
X3042857Y-4996815D02*
X3033333Y-5001577D01*
X3033333Y-5001577D02*
X3028571Y-5006339D01*
X3119048Y-5063482D02*
X3119048Y-4996815D01*
X3119048Y-5006339D02*
X3123809Y-5001577D01*
X3123809Y-5001577D02*
X3133333Y-4996815D01*
X3133333Y-4996815D02*
X3147619Y-4996815D01*
X3147619Y-4996815D02*
X3157143Y-5001577D01*
X3157143Y-5001577D02*
X3161905Y-5011101D01*
X3161905Y-5011101D02*
X3161905Y-5063482D01*
X3161905Y-5011101D02*
X3166667Y-5001577D01*
X3166667Y-5001577D02*
X3176190Y-4996815D01*
X3176190Y-4996815D02*
X3190476Y-4996815D01*
X3190476Y-4996815D02*
X3200000Y-5001577D01*
X3200000Y-5001577D02*
X3204762Y-5011101D01*
X3204762Y-5011101D02*
X3204762Y-5063482D01*
X2885714Y-5325482D02*
X2852381Y-5277863D01*
X2828571Y-5325482D02*
X2828571Y-5225482D01*
X2828571Y-5225482D02*
X2866667Y-5225482D01*
X2866667Y-5225482D02*
X2876190Y-5230244D01*
X2876190Y-5230244D02*
X2880952Y-5235006D01*
X2880952Y-5235006D02*
X2885714Y-5244530D01*
X2885714Y-5244530D02*
X2885714Y-5258815D01*
X2885714Y-5258815D02*
X2880952Y-5268339D01*
X2880952Y-5268339D02*
X2876190Y-5273101D01*
X2876190Y-5273101D02*
X2866667Y-5277863D01*
X2866667Y-5277863D02*
X2828571Y-5277863D01*
X2980952Y-5325482D02*
X2923809Y-5325482D01*
X2952381Y-5325482D02*
X2952381Y-5225482D01*
X2952381Y-5225482D02*
X2942857Y-5239768D01*
X2942857Y-5239768D02*
X2933333Y-5249291D01*
X2933333Y-5249291D02*
X2923809Y-5254053D01*
X3028571Y-5325482D02*
X3047619Y-5325482D01*
X3047619Y-5325482D02*
X3057143Y-5320720D01*
X3057143Y-5320720D02*
X3061905Y-5315958D01*
X3061905Y-5315958D02*
X3071428Y-5301672D01*
X3071428Y-5301672D02*
X3076190Y-5282625D01*
X3076190Y-5282625D02*
X3076190Y-5244530D01*
X3076190Y-5244530D02*
X3071428Y-5235006D01*
X3071428Y-5235006D02*
X3066667Y-5230244D01*
X3066667Y-5230244D02*
X3057143Y-5225482D01*
X3057143Y-5225482D02*
X3038095Y-5225482D01*
X3038095Y-5225482D02*
X3028571Y-5230244D01*
X3028571Y-5230244D02*
X3023809Y-5235006D01*
X3023809Y-5235006D02*
X3019048Y-5244530D01*
X3019048Y-5244530D02*
X3019048Y-5268339D01*
X3019048Y-5268339D02*
X3023809Y-5277863D01*
X3023809Y-5277863D02*
X3028571Y-5282625D01*
X3028571Y-5282625D02*
X3038095Y-5287387D01*
X3038095Y-5287387D02*
X3057143Y-5287387D01*
X3057143Y-5287387D02*
X3066667Y-5282625D01*
X3066667Y-5282625D02*
X3071428Y-5277863D01*
X3071428Y-5277863D02*
X3076190Y-5268339D01*
X3908482Y-4881905D02*
X3908482Y-4939048D01*
X3908482Y-4910476D02*
X3808482Y-4910476D01*
X3808482Y-4910476D02*
X3822768Y-4920000D01*
X3822768Y-4920000D02*
X3832291Y-4929524D01*
X3832291Y-4929524D02*
X3837053Y-4939048D01*
X3908482Y-4839048D02*
X3808482Y-4839048D01*
X3870387Y-4829524D02*
X3908482Y-4800952D01*
X3841815Y-4800952D02*
X3879910Y-4839048D01*
D12*
X3738193Y-4895714D02*
X3719145Y-4909048D01*
X3738193Y-4918571D02*
X3698193Y-4918571D01*
X3698193Y-4918571D02*
X3698193Y-4903333D01*
X3698193Y-4903333D02*
X3700097Y-4899524D01*
X3700097Y-4899524D02*
X3702002Y-4897619D01*
X3702002Y-4897619D02*
X3705812Y-4895714D01*
X3705812Y-4895714D02*
X3711526Y-4895714D01*
X3711526Y-4895714D02*
X3715336Y-4897619D01*
X3715336Y-4897619D02*
X3717240Y-4899524D01*
X3717240Y-4899524D02*
X3719145Y-4903333D01*
X3719145Y-4903333D02*
X3719145Y-4918571D01*
X3738193Y-4857619D02*
X3738193Y-4880476D01*
X3738193Y-4869048D02*
X3698193Y-4869048D01*
X3698193Y-4869048D02*
X3703907Y-4872857D01*
X3703907Y-4872857D02*
X3707716Y-4876667D01*
X3707716Y-4876667D02*
X3709621Y-4880476D01*
X3698193Y-4823333D02*
X3698193Y-4830952D01*
X3698193Y-4830952D02*
X3700097Y-4834762D01*
X3700097Y-4834762D02*
X3702002Y-4836667D01*
X3702002Y-4836667D02*
X3707716Y-4840476D01*
X3707716Y-4840476D02*
X3715336Y-4842381D01*
X3715336Y-4842381D02*
X3730574Y-4842381D01*
X3730574Y-4842381D02*
X3734383Y-4840476D01*
X3734383Y-4840476D02*
X3736288Y-4838571D01*
X3736288Y-4838571D02*
X3738193Y-4834762D01*
X3738193Y-4834762D02*
X3738193Y-4827143D01*
X3738193Y-4827143D02*
X3736288Y-4823333D01*
X3736288Y-4823333D02*
X3734383Y-4821429D01*
X3734383Y-4821429D02*
X3730574Y-4819524D01*
X3730574Y-4819524D02*
X3721050Y-4819524D01*
X3721050Y-4819524D02*
X3717240Y-4821429D01*
X3717240Y-4821429D02*
X3715336Y-4823333D01*
X3715336Y-4823333D02*
X3713431Y-4827143D01*
X3713431Y-4827143D02*
X3713431Y-4834762D01*
X3713431Y-4834762D02*
X3715336Y-4838571D01*
X3715336Y-4838571D02*
X3717240Y-4840476D01*
X3717240Y-4840476D02*
X3721050Y-4842381D01*
D11*
X6095482Y-5161071D02*
X5995482Y-5161071D01*
X6095482Y-5113452D02*
X5995482Y-5113452D01*
X5995482Y-5113452D02*
X6095482Y-5056310D01*
X6095482Y-5056310D02*
X5995482Y-5056310D01*
X6066910Y-5013452D02*
X6066910Y-4965833D01*
X6095482Y-5022976D02*
X5995482Y-4989643D01*
X5995482Y-4989643D02*
X6095482Y-4956310D01*
X6095482Y-4870595D02*
X6095482Y-4927738D01*
X6095482Y-4899167D02*
X5995482Y-4899167D01*
X5995482Y-4899167D02*
X6009768Y-4908690D01*
X6009768Y-4908690D02*
X6019291Y-4918214D01*
X6019291Y-4918214D02*
X6024053Y-4927738D01*
X6038339Y-4813452D02*
X6033577Y-4822976D01*
X6033577Y-4822976D02*
X6028815Y-4827738D01*
X6028815Y-4827738D02*
X6019291Y-4832500D01*
X6019291Y-4832500D02*
X6014529Y-4832500D01*
X6014529Y-4832500D02*
X6005006Y-4827738D01*
X6005006Y-4827738D02*
X6000244Y-4822976D01*
X6000244Y-4822976D02*
X5995482Y-4813452D01*
X5995482Y-4813452D02*
X5995482Y-4794405D01*
X5995482Y-4794405D02*
X6000244Y-4784881D01*
X6000244Y-4784881D02*
X6005006Y-4780119D01*
X6005006Y-4780119D02*
X6014529Y-4775357D01*
X6014529Y-4775357D02*
X6019291Y-4775357D01*
X6019291Y-4775357D02*
X6028815Y-4780119D01*
X6028815Y-4780119D02*
X6033577Y-4784881D01*
X6033577Y-4784881D02*
X6038339Y-4794405D01*
X6038339Y-4794405D02*
X6038339Y-4813452D01*
X6038339Y-4813452D02*
X6043101Y-4822976D01*
X6043101Y-4822976D02*
X6047863Y-4827738D01*
X6047863Y-4827738D02*
X6057387Y-4832500D01*
X6057387Y-4832500D02*
X6076434Y-4832500D01*
X6076434Y-4832500D02*
X6085958Y-4827738D01*
X6085958Y-4827738D02*
X6090720Y-4822976D01*
X6090720Y-4822976D02*
X6095482Y-4813452D01*
X6095482Y-4813452D02*
X6095482Y-4794405D01*
X6095482Y-4794405D02*
X6090720Y-4784881D01*
X6090720Y-4784881D02*
X6085958Y-4780119D01*
X6085958Y-4780119D02*
X6076434Y-4775357D01*
X6076434Y-4775357D02*
X6057387Y-4775357D01*
X6057387Y-4775357D02*
X6047863Y-4780119D01*
X6047863Y-4780119D02*
X6043101Y-4784881D01*
X6043101Y-4784881D02*
X6038339Y-4794405D01*
X5995482Y-4713452D02*
X5995482Y-4703929D01*
X5995482Y-4703929D02*
X6000244Y-4694405D01*
X6000244Y-4694405D02*
X6005006Y-4689643D01*
X6005006Y-4689643D02*
X6014529Y-4684881D01*
X6014529Y-4684881D02*
X6033577Y-4680119D01*
X6033577Y-4680119D02*
X6057387Y-4680119D01*
X6057387Y-4680119D02*
X6076434Y-4684881D01*
X6076434Y-4684881D02*
X6085958Y-4689643D01*
X6085958Y-4689643D02*
X6090720Y-4694405D01*
X6090720Y-4694405D02*
X6095482Y-4703929D01*
X6095482Y-4703929D02*
X6095482Y-4713452D01*
X6095482Y-4713452D02*
X6090720Y-4722976D01*
X6090720Y-4722976D02*
X6085958Y-4727738D01*
X6085958Y-4727738D02*
X6076434Y-4732500D01*
X6076434Y-4732500D02*
X6057387Y-4737262D01*
X6057387Y-4737262D02*
X6033577Y-4737262D01*
X6033577Y-4737262D02*
X6014529Y-4732500D01*
X6014529Y-4732500D02*
X6005006Y-4727738D01*
X6005006Y-4727738D02*
X6000244Y-4722976D01*
X6000244Y-4722976D02*
X5995482Y-4713452D01*
X6066910Y-4642024D02*
X6066910Y-4594405D01*
X6095482Y-4651548D02*
X5995482Y-4618214D01*
X5995482Y-4618214D02*
X6095482Y-4584881D01*
X5995482Y-4561071D02*
X5995482Y-4499167D01*
X5995482Y-4499167D02*
X6033577Y-4532500D01*
X6033577Y-4532500D02*
X6033577Y-4518214D01*
X6033577Y-4518214D02*
X6038339Y-4508690D01*
X6038339Y-4508690D02*
X6043101Y-4503929D01*
X6043101Y-4503929D02*
X6052625Y-4499167D01*
X6052625Y-4499167D02*
X6076434Y-4499167D01*
X6076434Y-4499167D02*
X6085958Y-4503929D01*
X6085958Y-4503929D02*
X6090720Y-4508690D01*
X6090720Y-4508690D02*
X6095482Y-4518214D01*
X6095482Y-4518214D02*
X6095482Y-4546786D01*
X6095482Y-4546786D02*
X6090720Y-4556309D01*
X6090720Y-4556309D02*
X6085958Y-4561071D01*
D12*
X5788193Y-4862976D02*
X5820574Y-4862976D01*
X5820574Y-4862976D02*
X5824383Y-4861071D01*
X5824383Y-4861071D02*
X5826288Y-4859167D01*
X5826288Y-4859167D02*
X5828193Y-4855357D01*
X5828193Y-4855357D02*
X5828193Y-4847738D01*
X5828193Y-4847738D02*
X5826288Y-4843929D01*
X5826288Y-4843929D02*
X5824383Y-4842024D01*
X5824383Y-4842024D02*
X5820574Y-4840119D01*
X5820574Y-4840119D02*
X5788193Y-4840119D01*
X5788193Y-4824881D02*
X5788193Y-4800119D01*
X5788193Y-4800119D02*
X5803431Y-4813452D01*
X5803431Y-4813452D02*
X5803431Y-4807738D01*
X5803431Y-4807738D02*
X5805336Y-4803929D01*
X5805336Y-4803929D02*
X5807240Y-4802024D01*
X5807240Y-4802024D02*
X5811050Y-4800119D01*
X5811050Y-4800119D02*
X5820574Y-4800119D01*
X5820574Y-4800119D02*
X5824383Y-4802024D01*
X5824383Y-4802024D02*
X5826288Y-4803929D01*
X5826288Y-4803929D02*
X5828193Y-4807738D01*
X5828193Y-4807738D02*
X5828193Y-4819167D01*
X5828193Y-4819167D02*
X5826288Y-4822976D01*
X5826288Y-4822976D02*
X5824383Y-4824881D01*
D11*
X4070476Y-4953006D02*
X4075238Y-4948244D01*
X4075238Y-4948244D02*
X4084762Y-4943482D01*
X4084762Y-4943482D02*
X4108571Y-4943482D01*
X4108571Y-4943482D02*
X4118095Y-4948244D01*
X4118095Y-4948244D02*
X4122857Y-4953006D01*
X4122857Y-4953006D02*
X4127619Y-4962530D01*
X4127619Y-4962530D02*
X4127619Y-4972053D01*
X4127619Y-4972053D02*
X4122857Y-4986339D01*
X4122857Y-4986339D02*
X4065714Y-5043482D01*
X4065714Y-5043482D02*
X4127619Y-5043482D01*
X4170476Y-5043482D02*
X4170476Y-4976815D01*
X4170476Y-4986339D02*
X4175238Y-4981577D01*
X4175238Y-4981577D02*
X4184762Y-4976815D01*
X4184762Y-4976815D02*
X4199048Y-4976815D01*
X4199048Y-4976815D02*
X4208571Y-4981577D01*
X4208571Y-4981577D02*
X4213333Y-4991101D01*
X4213333Y-4991101D02*
X4213333Y-5043482D01*
X4213333Y-4991101D02*
X4218095Y-4981577D01*
X4218095Y-4981577D02*
X4227619Y-4976815D01*
X4227619Y-4976815D02*
X4241905Y-4976815D01*
X4241905Y-4976815D02*
X4251429Y-4981577D01*
X4251429Y-4981577D02*
X4256191Y-4991101D01*
X4256191Y-4991101D02*
X4256191Y-5043482D01*
X4322857Y-4943482D02*
X4341905Y-4943482D01*
X4341905Y-4943482D02*
X4351429Y-4948244D01*
X4351429Y-4948244D02*
X4360952Y-4957768D01*
X4360952Y-4957768D02*
X4365714Y-4976815D01*
X4365714Y-4976815D02*
X4365714Y-5010149D01*
X4365714Y-5010149D02*
X4360952Y-5029196D01*
X4360952Y-5029196D02*
X4351429Y-5038720D01*
X4351429Y-5038720D02*
X4341905Y-5043482D01*
X4341905Y-5043482D02*
X4322857Y-5043482D01*
X4322857Y-5043482D02*
X4313333Y-5038720D01*
X4313333Y-5038720D02*
X4303810Y-5029196D01*
X4303810Y-5029196D02*
X4299048Y-5010149D01*
X4299048Y-5010149D02*
X4299048Y-4976815D01*
X4299048Y-4976815D02*
X4303810Y-4957768D01*
X4303810Y-4957768D02*
X4313333Y-4948244D01*
X4313333Y-4948244D02*
X4322857Y-4943482D01*
X4408571Y-5043482D02*
X4408571Y-4943482D01*
X4451429Y-5043482D02*
X4451429Y-4991101D01*
X4451429Y-4991101D02*
X4446667Y-4981577D01*
X4446667Y-4981577D02*
X4437143Y-4976815D01*
X4437143Y-4976815D02*
X4422857Y-4976815D01*
X4422857Y-4976815D02*
X4413333Y-4981577D01*
X4413333Y-4981577D02*
X4408571Y-4986339D01*
X4499048Y-5043482D02*
X4499048Y-4976815D01*
X4499048Y-4986339D02*
X4503810Y-4981577D01*
X4503810Y-4981577D02*
X4513333Y-4976815D01*
X4513333Y-4976815D02*
X4527619Y-4976815D01*
X4527619Y-4976815D02*
X4537143Y-4981577D01*
X4537143Y-4981577D02*
X4541905Y-4991101D01*
X4541905Y-4991101D02*
X4541905Y-5043482D01*
X4541905Y-4991101D02*
X4546667Y-4981577D01*
X4546667Y-4981577D02*
X4556190Y-4976815D01*
X4556190Y-4976815D02*
X4570476Y-4976815D01*
X4570476Y-4976815D02*
X4580000Y-4981577D01*
X4580000Y-4981577D02*
X4584762Y-4991101D01*
X4584762Y-4991101D02*
X4584762Y-5043482D01*
X4265714Y-5305482D02*
X4232381Y-5257863D01*
X4208571Y-5305482D02*
X4208571Y-5205482D01*
X4208571Y-5205482D02*
X4246667Y-5205482D01*
X4246667Y-5205482D02*
X4256190Y-5210244D01*
X4256190Y-5210244D02*
X4260952Y-5215006D01*
X4260952Y-5215006D02*
X4265714Y-5224530D01*
X4265714Y-5224530D02*
X4265714Y-5238815D01*
X4265714Y-5238815D02*
X4260952Y-5248339D01*
X4260952Y-5248339D02*
X4256190Y-5253101D01*
X4256190Y-5253101D02*
X4246667Y-5257863D01*
X4246667Y-5257863D02*
X4208571Y-5257863D01*
X4360952Y-5305482D02*
X4303810Y-5305482D01*
X4332381Y-5305482D02*
X4332381Y-5205482D01*
X4332381Y-5205482D02*
X4322857Y-5219768D01*
X4322857Y-5219768D02*
X4313333Y-5229291D01*
X4313333Y-5229291D02*
X4303810Y-5234053D01*
X4394286Y-5205482D02*
X4456190Y-5205482D01*
X4456190Y-5205482D02*
X4422857Y-5243577D01*
X4422857Y-5243577D02*
X4437143Y-5243577D01*
X4437143Y-5243577D02*
X4446667Y-5248339D01*
X4446667Y-5248339D02*
X4451429Y-5253101D01*
X4451429Y-5253101D02*
X4456190Y-5262625D01*
X4456190Y-5262625D02*
X4456190Y-5286434D01*
X4456190Y-5286434D02*
X4451429Y-5295958D01*
X4451429Y-5295958D02*
X4446667Y-5300720D01*
X4446667Y-5300720D02*
X4437143Y-5305482D01*
X4437143Y-5305482D02*
X4408571Y-5305482D01*
X4408571Y-5305482D02*
X4399048Y-5300720D01*
X4399048Y-5300720D02*
X4394286Y-5295958D01*
X4545952Y-2776232D02*
X4545952Y-2857184D01*
X4545952Y-2857184D02*
X4550714Y-2866708D01*
X4550714Y-2866708D02*
X4555476Y-2871470D01*
X4555476Y-2871470D02*
X4565000Y-2876232D01*
X4565000Y-2876232D02*
X4584048Y-2876232D01*
X4584048Y-2876232D02*
X4593571Y-2871470D01*
X4593571Y-2871470D02*
X4598333Y-2866708D01*
X4598333Y-2866708D02*
X4603095Y-2857184D01*
X4603095Y-2857184D02*
X4603095Y-2776232D01*
X4645952Y-2871470D02*
X4660238Y-2876232D01*
X4660238Y-2876232D02*
X4684048Y-2876232D01*
X4684048Y-2876232D02*
X4693571Y-2871470D01*
X4693571Y-2871470D02*
X4698333Y-2866708D01*
X4698333Y-2866708D02*
X4703095Y-2857184D01*
X4703095Y-2857184D02*
X4703095Y-2847660D01*
X4703095Y-2847660D02*
X4698333Y-2838137D01*
X4698333Y-2838137D02*
X4693571Y-2833375D01*
X4693571Y-2833375D02*
X4684048Y-2828613D01*
X4684048Y-2828613D02*
X4665000Y-2823851D01*
X4665000Y-2823851D02*
X4655476Y-2819089D01*
X4655476Y-2819089D02*
X4650714Y-2814327D01*
X4650714Y-2814327D02*
X4645952Y-2804803D01*
X4645952Y-2804803D02*
X4645952Y-2795280D01*
X4645952Y-2795280D02*
X4650714Y-2785756D01*
X4650714Y-2785756D02*
X4655476Y-2780994D01*
X4655476Y-2780994D02*
X4665000Y-2776232D01*
X4665000Y-2776232D02*
X4688810Y-2776232D01*
X4688810Y-2776232D02*
X4703095Y-2780994D01*
X4779286Y-2823851D02*
X4793571Y-2828613D01*
X4793571Y-2828613D02*
X4798333Y-2833375D01*
X4798333Y-2833375D02*
X4803095Y-2842898D01*
X4803095Y-2842898D02*
X4803095Y-2857184D01*
X4803095Y-2857184D02*
X4798333Y-2866708D01*
X4798333Y-2866708D02*
X4793571Y-2871470D01*
X4793571Y-2871470D02*
X4784048Y-2876232D01*
X4784048Y-2876232D02*
X4745952Y-2876232D01*
X4745952Y-2876232D02*
X4745952Y-2776232D01*
X4745952Y-2776232D02*
X4779286Y-2776232D01*
X4779286Y-2776232D02*
X4788810Y-2780994D01*
X4788810Y-2780994D02*
X4793571Y-2785756D01*
X4793571Y-2785756D02*
X4798333Y-2795280D01*
X4798333Y-2795280D02*
X4798333Y-2804803D01*
X4798333Y-2804803D02*
X4793571Y-2814327D01*
X4793571Y-2814327D02*
X4788810Y-2819089D01*
X4788810Y-2819089D02*
X4779286Y-2823851D01*
X4779286Y-2823851D02*
X4745952Y-2823851D01*
X4893571Y-2876232D02*
X4845952Y-2876232D01*
X4845952Y-2876232D02*
X4845952Y-2776232D01*
X4984048Y-2866708D02*
X4979286Y-2871470D01*
X4979286Y-2871470D02*
X4965000Y-2876232D01*
X4965000Y-2876232D02*
X4955476Y-2876232D01*
X4955476Y-2876232D02*
X4941191Y-2871470D01*
X4941191Y-2871470D02*
X4931667Y-2861946D01*
X4931667Y-2861946D02*
X4926905Y-2852422D01*
X4926905Y-2852422D02*
X4922143Y-2833375D01*
X4922143Y-2833375D02*
X4922143Y-2819089D01*
X4922143Y-2819089D02*
X4926905Y-2800041D01*
X4926905Y-2800041D02*
X4931667Y-2790518D01*
X4931667Y-2790518D02*
X4941191Y-2780994D01*
X4941191Y-2780994D02*
X4955476Y-2776232D01*
X4955476Y-2776232D02*
X4965000Y-2776232D01*
X4965000Y-2776232D02*
X4979286Y-2780994D01*
X4979286Y-2780994D02*
X4984048Y-2785756D01*
X5069762Y-2776232D02*
X5050714Y-2776232D01*
X5050714Y-2776232D02*
X5041191Y-2780994D01*
X5041191Y-2780994D02*
X5036429Y-2785756D01*
X5036429Y-2785756D02*
X5026905Y-2800041D01*
X5026905Y-2800041D02*
X5022143Y-2819089D01*
X5022143Y-2819089D02*
X5022143Y-2857184D01*
X5022143Y-2857184D02*
X5026905Y-2866708D01*
X5026905Y-2866708D02*
X5031667Y-2871470D01*
X5031667Y-2871470D02*
X5041191Y-2876232D01*
X5041191Y-2876232D02*
X5060238Y-2876232D01*
X5060238Y-2876232D02*
X5069762Y-2871470D01*
X5069762Y-2871470D02*
X5074524Y-2866708D01*
X5074524Y-2866708D02*
X5079286Y-2857184D01*
X5079286Y-2857184D02*
X5079286Y-2833375D01*
X5079286Y-2833375D02*
X5074524Y-2823851D01*
X5074524Y-2823851D02*
X5069762Y-2819089D01*
X5069762Y-2819089D02*
X5060238Y-2814327D01*
X5060238Y-2814327D02*
X5041191Y-2814327D01*
X5041191Y-2814327D02*
X5031667Y-2819089D01*
X5031667Y-2819089D02*
X5026905Y-2823851D01*
X5026905Y-2823851D02*
X5022143Y-2833375D01*
X5122143Y-2838137D02*
X5198333Y-2838137D01*
X5241191Y-2785756D02*
X5245952Y-2780994D01*
X5245952Y-2780994D02*
X5255476Y-2776232D01*
X5255476Y-2776232D02*
X5279286Y-2776232D01*
X5279286Y-2776232D02*
X5288810Y-2780994D01*
X5288810Y-2780994D02*
X5293571Y-2785756D01*
X5293571Y-2785756D02*
X5298333Y-2795280D01*
X5298333Y-2795280D02*
X5298333Y-2804803D01*
X5298333Y-2804803D02*
X5293571Y-2819089D01*
X5293571Y-2819089D02*
X5236429Y-2876232D01*
X5236429Y-2876232D02*
X5298333Y-2876232D01*
X5336429Y-2871470D02*
X5350714Y-2876232D01*
X5350714Y-2876232D02*
X5374524Y-2876232D01*
X5374524Y-2876232D02*
X5384048Y-2871470D01*
X5384048Y-2871470D02*
X5388810Y-2866708D01*
X5388810Y-2866708D02*
X5393571Y-2857184D01*
X5393571Y-2857184D02*
X5393571Y-2847660D01*
X5393571Y-2847660D02*
X5388810Y-2838137D01*
X5388810Y-2838137D02*
X5384048Y-2833375D01*
X5384048Y-2833375D02*
X5374524Y-2828613D01*
X5374524Y-2828613D02*
X5355476Y-2823851D01*
X5355476Y-2823851D02*
X5345952Y-2819089D01*
X5345952Y-2819089D02*
X5341191Y-2814327D01*
X5341191Y-2814327D02*
X5336429Y-2804803D01*
X5336429Y-2804803D02*
X5336429Y-2795280D01*
X5336429Y-2795280D02*
X5341191Y-2785756D01*
X5341191Y-2785756D02*
X5345952Y-2780994D01*
X5345952Y-2780994D02*
X5355476Y-2776232D01*
X5355476Y-2776232D02*
X5379286Y-2776232D01*
X5379286Y-2776232D02*
X5393571Y-2780994D01*
X5493571Y-2866708D02*
X5488810Y-2871470D01*
X5488810Y-2871470D02*
X5474524Y-2876232D01*
X5474524Y-2876232D02*
X5465000Y-2876232D01*
X5465000Y-2876232D02*
X5450714Y-2871470D01*
X5450714Y-2871470D02*
X5441191Y-2861946D01*
X5441191Y-2861946D02*
X5436429Y-2852422D01*
X5436429Y-2852422D02*
X5431667Y-2833375D01*
X5431667Y-2833375D02*
X5431667Y-2819089D01*
X5431667Y-2819089D02*
X5436429Y-2800041D01*
X5436429Y-2800041D02*
X5441191Y-2790518D01*
X5441191Y-2790518D02*
X5450714Y-2780994D01*
X5450714Y-2780994D02*
X5465000Y-2776232D01*
X5465000Y-2776232D02*
X5474524Y-2776232D01*
X5474524Y-2776232D02*
X5488810Y-2780994D01*
X5488810Y-2780994D02*
X5493571Y-2785756D01*
X5579286Y-2776232D02*
X5560238Y-2776232D01*
X5560238Y-2776232D02*
X5550714Y-2780994D01*
X5550714Y-2780994D02*
X5545952Y-2785756D01*
X5545952Y-2785756D02*
X5536429Y-2800041D01*
X5536429Y-2800041D02*
X5531667Y-2819089D01*
X5531667Y-2819089D02*
X5531667Y-2857184D01*
X5531667Y-2857184D02*
X5536429Y-2866708D01*
X5536429Y-2866708D02*
X5541191Y-2871470D01*
X5541191Y-2871470D02*
X5550714Y-2876232D01*
X5550714Y-2876232D02*
X5569762Y-2876232D01*
X5569762Y-2876232D02*
X5579286Y-2871470D01*
X5579286Y-2871470D02*
X5584048Y-2866708D01*
X5584048Y-2866708D02*
X5588810Y-2857184D01*
X5588810Y-2857184D02*
X5588810Y-2833375D01*
X5588810Y-2833375D02*
X5584048Y-2823851D01*
X5584048Y-2823851D02*
X5579286Y-2819089D01*
X5579286Y-2819089D02*
X5569762Y-2814327D01*
X5569762Y-2814327D02*
X5550714Y-2814327D01*
X5550714Y-2814327D02*
X5541191Y-2819089D01*
X5541191Y-2819089D02*
X5536429Y-2823851D01*
X5536429Y-2823851D02*
X5531667Y-2833375D01*
D12*
X5030524Y-3037193D02*
X5030524Y-3069574D01*
X5030524Y-3069574D02*
X5032429Y-3073383D01*
X5032429Y-3073383D02*
X5034333Y-3075288D01*
X5034333Y-3075288D02*
X5038143Y-3077193D01*
X5038143Y-3077193D02*
X5045762Y-3077193D01*
X5045762Y-3077193D02*
X5049571Y-3075288D01*
X5049571Y-3075288D02*
X5051476Y-3073383D01*
X5051476Y-3073383D02*
X5053381Y-3069574D01*
X5053381Y-3069574D02*
X5053381Y-3037193D01*
X5070524Y-3041002D02*
X5072429Y-3039097D01*
X5072429Y-3039097D02*
X5076238Y-3037193D01*
X5076238Y-3037193D02*
X5085762Y-3037193D01*
X5085762Y-3037193D02*
X5089571Y-3039097D01*
X5089571Y-3039097D02*
X5091476Y-3041002D01*
X5091476Y-3041002D02*
X5093381Y-3044812D01*
X5093381Y-3044812D02*
X5093381Y-3048621D01*
X5093381Y-3048621D02*
X5091476Y-3054336D01*
X5091476Y-3054336D02*
X5068619Y-3077193D01*
X5068619Y-3077193D02*
X5093381Y-3077193D01*
D11*
X5471429Y-6470482D02*
X5471429Y-6370482D01*
X5471429Y-6370482D02*
X5504762Y-6441910D01*
X5504762Y-6441910D02*
X5538095Y-6370482D01*
X5538095Y-6370482D02*
X5538095Y-6470482D01*
X5600000Y-6470482D02*
X5590476Y-6465720D01*
X5590476Y-6465720D02*
X5585714Y-6460958D01*
X5585714Y-6460958D02*
X5580952Y-6451434D01*
X5580952Y-6451434D02*
X5580952Y-6422863D01*
X5580952Y-6422863D02*
X5585714Y-6413339D01*
X5585714Y-6413339D02*
X5590476Y-6408577D01*
X5590476Y-6408577D02*
X5600000Y-6403815D01*
X5600000Y-6403815D02*
X5614286Y-6403815D01*
X5614286Y-6403815D02*
X5623809Y-6408577D01*
X5623809Y-6408577D02*
X5628571Y-6413339D01*
X5628571Y-6413339D02*
X5633333Y-6422863D01*
X5633333Y-6422863D02*
X5633333Y-6451434D01*
X5633333Y-6451434D02*
X5628571Y-6460958D01*
X5628571Y-6460958D02*
X5623809Y-6465720D01*
X5623809Y-6465720D02*
X5614286Y-6470482D01*
X5614286Y-6470482D02*
X5600000Y-6470482D01*
X5719047Y-6403815D02*
X5719047Y-6470482D01*
X5676190Y-6403815D02*
X5676190Y-6456196D01*
X5676190Y-6456196D02*
X5680952Y-6465720D01*
X5680952Y-6465720D02*
X5690476Y-6470482D01*
X5690476Y-6470482D02*
X5704762Y-6470482D01*
X5704762Y-6470482D02*
X5714286Y-6465720D01*
X5714286Y-6465720D02*
X5719047Y-6460958D01*
X5766667Y-6403815D02*
X5766667Y-6470482D01*
X5766667Y-6413339D02*
X5771428Y-6408577D01*
X5771428Y-6408577D02*
X5780952Y-6403815D01*
X5780952Y-6403815D02*
X5795238Y-6403815D01*
X5795238Y-6403815D02*
X5804762Y-6408577D01*
X5804762Y-6408577D02*
X5809524Y-6418101D01*
X5809524Y-6418101D02*
X5809524Y-6470482D01*
X5842857Y-6403815D02*
X5880952Y-6403815D01*
X5857143Y-6370482D02*
X5857143Y-6456196D01*
X5857143Y-6456196D02*
X5861905Y-6465720D01*
X5861905Y-6465720D02*
X5871428Y-6470482D01*
X5871428Y-6470482D02*
X5880952Y-6470482D01*
X5914286Y-6470482D02*
X5914286Y-6403815D01*
X5914286Y-6370482D02*
X5909524Y-6375244D01*
X5909524Y-6375244D02*
X5914286Y-6380006D01*
X5914286Y-6380006D02*
X5919048Y-6375244D01*
X5919048Y-6375244D02*
X5914286Y-6370482D01*
X5914286Y-6370482D02*
X5914286Y-6380006D01*
X5961905Y-6403815D02*
X5961905Y-6470482D01*
X5961905Y-6413339D02*
X5966667Y-6408577D01*
X5966667Y-6408577D02*
X5976190Y-6403815D01*
X5976190Y-6403815D02*
X5990476Y-6403815D01*
X5990476Y-6403815D02*
X6000000Y-6408577D01*
X6000000Y-6408577D02*
X6004762Y-6418101D01*
X6004762Y-6418101D02*
X6004762Y-6470482D01*
X6095238Y-6403815D02*
X6095238Y-6484768D01*
X6095238Y-6484768D02*
X6090476Y-6494291D01*
X6090476Y-6494291D02*
X6085714Y-6499053D01*
X6085714Y-6499053D02*
X6076190Y-6503815D01*
X6076190Y-6503815D02*
X6061905Y-6503815D01*
X6061905Y-6503815D02*
X6052381Y-6499053D01*
X6095238Y-6465720D02*
X6085714Y-6470482D01*
X6085714Y-6470482D02*
X6066667Y-6470482D01*
X6066667Y-6470482D02*
X6057143Y-6465720D01*
X6057143Y-6465720D02*
X6052381Y-6460958D01*
X6052381Y-6460958D02*
X6047619Y-6451434D01*
X6047619Y-6451434D02*
X6047619Y-6422863D01*
X6047619Y-6422863D02*
X6052381Y-6413339D01*
X6052381Y-6413339D02*
X6057143Y-6408577D01*
X6057143Y-6408577D02*
X6066667Y-6403815D01*
X6066667Y-6403815D02*
X6085714Y-6403815D01*
X6085714Y-6403815D02*
X6095238Y-6408577D01*
X6142857Y-6470482D02*
X6142857Y-6370482D01*
X6142857Y-6418101D02*
X6200000Y-6418101D01*
X6200000Y-6470482D02*
X6200000Y-6370482D01*
X6261905Y-6470482D02*
X6252381Y-6465720D01*
X6252381Y-6465720D02*
X6247619Y-6460958D01*
X6247619Y-6460958D02*
X6242857Y-6451434D01*
X6242857Y-6451434D02*
X6242857Y-6422863D01*
X6242857Y-6422863D02*
X6247619Y-6413339D01*
X6247619Y-6413339D02*
X6252381Y-6408577D01*
X6252381Y-6408577D02*
X6261905Y-6403815D01*
X6261905Y-6403815D02*
X6276190Y-6403815D01*
X6276190Y-6403815D02*
X6285714Y-6408577D01*
X6285714Y-6408577D02*
X6290476Y-6413339D01*
X6290476Y-6413339D02*
X6295238Y-6422863D01*
X6295238Y-6422863D02*
X6295238Y-6451434D01*
X6295238Y-6451434D02*
X6290476Y-6460958D01*
X6290476Y-6460958D02*
X6285714Y-6465720D01*
X6285714Y-6465720D02*
X6276190Y-6470482D01*
X6276190Y-6470482D02*
X6261905Y-6470482D01*
X6352381Y-6470482D02*
X6342857Y-6465720D01*
X6342857Y-6465720D02*
X6338095Y-6456196D01*
X6338095Y-6456196D02*
X6338095Y-6370482D01*
X6428571Y-6465720D02*
X6419048Y-6470482D01*
X6419048Y-6470482D02*
X6400000Y-6470482D01*
X6400000Y-6470482D02*
X6390476Y-6465720D01*
X6390476Y-6465720D02*
X6385714Y-6456196D01*
X6385714Y-6456196D02*
X6385714Y-6418101D01*
X6385714Y-6418101D02*
X6390476Y-6408577D01*
X6390476Y-6408577D02*
X6400000Y-6403815D01*
X6400000Y-6403815D02*
X6419048Y-6403815D01*
X6419048Y-6403815D02*
X6428571Y-6408577D01*
X6428571Y-6408577D02*
X6433333Y-6418101D01*
X6433333Y-6418101D02*
X6433333Y-6427625D01*
X6433333Y-6427625D02*
X6385714Y-6437148D01*
X5873809Y-6150482D02*
X5873809Y-6050482D01*
X5873809Y-6098101D02*
X5930952Y-6098101D01*
X5930952Y-6150482D02*
X5930952Y-6050482D01*
X5973809Y-6060006D02*
X5978571Y-6055244D01*
X5978571Y-6055244D02*
X5988095Y-6050482D01*
X5988095Y-6050482D02*
X6011905Y-6050482D01*
X6011905Y-6050482D02*
X6021428Y-6055244D01*
X6021428Y-6055244D02*
X6026190Y-6060006D01*
X6026190Y-6060006D02*
X6030952Y-6069529D01*
X6030952Y-6069529D02*
X6030952Y-6079053D01*
X6030952Y-6079053D02*
X6026190Y-6093339D01*
X6026190Y-6093339D02*
X5969048Y-6150482D01*
X5969048Y-6150482D02*
X6030952Y-6150482D01*
X5320720Y-6114762D02*
X5325482Y-6100476D01*
X5325482Y-6100476D02*
X5325482Y-6076667D01*
X5325482Y-6076667D02*
X5320720Y-6067143D01*
X5320720Y-6067143D02*
X5315958Y-6062381D01*
X5315958Y-6062381D02*
X5306434Y-6057619D01*
X5306434Y-6057619D02*
X5296910Y-6057619D01*
X5296910Y-6057619D02*
X5287387Y-6062381D01*
X5287387Y-6062381D02*
X5282625Y-6067143D01*
X5282625Y-6067143D02*
X5277863Y-6076667D01*
X5277863Y-6076667D02*
X5273101Y-6095714D01*
X5273101Y-6095714D02*
X5268339Y-6105238D01*
X5268339Y-6105238D02*
X5263577Y-6110000D01*
X5263577Y-6110000D02*
X5254053Y-6114762D01*
X5254053Y-6114762D02*
X5244530Y-6114762D01*
X5244530Y-6114762D02*
X5235006Y-6110000D01*
X5235006Y-6110000D02*
X5230244Y-6105238D01*
X5230244Y-6105238D02*
X5225482Y-6095714D01*
X5225482Y-6095714D02*
X5225482Y-6071905D01*
X5225482Y-6071905D02*
X5230244Y-6057619D01*
X5325482Y-6014762D02*
X5225482Y-6014762D01*
X5225482Y-6014762D02*
X5296910Y-5981428D01*
X5296910Y-5981428D02*
X5225482Y-5948095D01*
X5225482Y-5948095D02*
X5325482Y-5948095D01*
X5273101Y-5867143D02*
X5277863Y-5852857D01*
X5277863Y-5852857D02*
X5282625Y-5848095D01*
X5282625Y-5848095D02*
X5292149Y-5843333D01*
X5292149Y-5843333D02*
X5306434Y-5843333D01*
X5306434Y-5843333D02*
X5315958Y-5848095D01*
X5315958Y-5848095D02*
X5320720Y-5852857D01*
X5320720Y-5852857D02*
X5325482Y-5862381D01*
X5325482Y-5862381D02*
X5325482Y-5900476D01*
X5325482Y-5900476D02*
X5225482Y-5900476D01*
X5225482Y-5900476D02*
X5225482Y-5867143D01*
X5225482Y-5867143D02*
X5230244Y-5857619D01*
X5230244Y-5857619D02*
X5235006Y-5852857D01*
X5235006Y-5852857D02*
X5244530Y-5848095D01*
X5244530Y-5848095D02*
X5254053Y-5848095D01*
X5254053Y-5848095D02*
X5263577Y-5852857D01*
X5263577Y-5852857D02*
X5268339Y-5857619D01*
X5268339Y-5857619D02*
X5273101Y-5867143D01*
X5273101Y-5867143D02*
X5273101Y-5900476D01*
X5225482Y-5771905D02*
X5296910Y-5771905D01*
X5296910Y-5771905D02*
X5311196Y-5776667D01*
X5311196Y-5776667D02*
X5320720Y-5786190D01*
X5320720Y-5786190D02*
X5325482Y-5800476D01*
X5325482Y-5800476D02*
X5325482Y-5810000D01*
X5325482Y-5724286D02*
X5225482Y-5724286D01*
X5225482Y-5724286D02*
X5225482Y-5686190D01*
X5225482Y-5686190D02*
X5230244Y-5676667D01*
X5230244Y-5676667D02*
X5235006Y-5671905D01*
X5235006Y-5671905D02*
X5244530Y-5667143D01*
X5244530Y-5667143D02*
X5258815Y-5667143D01*
X5258815Y-5667143D02*
X5268339Y-5671905D01*
X5268339Y-5671905D02*
X5273101Y-5676667D01*
X5273101Y-5676667D02*
X5277863Y-5686190D01*
X5277863Y-5686190D02*
X5277863Y-5724286D01*
X5225482Y-5581429D02*
X5225482Y-5600476D01*
X5225482Y-5600476D02*
X5230244Y-5610000D01*
X5230244Y-5610000D02*
X5235006Y-5614762D01*
X5235006Y-5614762D02*
X5249291Y-5624286D01*
X5249291Y-5624286D02*
X5268339Y-5629047D01*
X5268339Y-5629047D02*
X5306434Y-5629047D01*
X5306434Y-5629047D02*
X5315958Y-5624286D01*
X5315958Y-5624286D02*
X5320720Y-5619524D01*
X5320720Y-5619524D02*
X5325482Y-5610000D01*
X5325482Y-5610000D02*
X5325482Y-5590952D01*
X5325482Y-5590952D02*
X5320720Y-5581429D01*
X5320720Y-5581429D02*
X5315958Y-5576667D01*
X5315958Y-5576667D02*
X5306434Y-5571905D01*
X5306434Y-5571905D02*
X5282625Y-5571905D01*
X5282625Y-5571905D02*
X5273101Y-5576667D01*
X5273101Y-5576667D02*
X5268339Y-5581429D01*
X5268339Y-5581429D02*
X5263577Y-5590952D01*
X5263577Y-5590952D02*
X5263577Y-5610000D01*
X5263577Y-5610000D02*
X5268339Y-5619524D01*
X5268339Y-5619524D02*
X5273101Y-5624286D01*
X5273101Y-5624286D02*
X5282625Y-5629047D01*
X5325482Y-5529048D02*
X5225482Y-5529048D01*
X5325482Y-5471905D02*
X5268339Y-5514762D01*
X5225482Y-5471905D02*
X5282625Y-5529048D01*
X5273101Y-5429048D02*
X5273101Y-5395714D01*
X5325482Y-5381429D02*
X5325482Y-5429048D01*
X5325482Y-5429048D02*
X5225482Y-5429048D01*
X5225482Y-5429048D02*
X5225482Y-5381429D01*
X5235006Y-5343333D02*
X5230244Y-5338571D01*
X5230244Y-5338571D02*
X5225482Y-5329048D01*
X5225482Y-5329048D02*
X5225482Y-5305238D01*
X5225482Y-5305238D02*
X5230244Y-5295714D01*
X5230244Y-5295714D02*
X5235006Y-5290952D01*
X5235006Y-5290952D02*
X5244530Y-5286190D01*
X5244530Y-5286190D02*
X5254053Y-5286190D01*
X5254053Y-5286190D02*
X5268339Y-5290952D01*
X5268339Y-5290952D02*
X5325482Y-5348095D01*
X5325482Y-5348095D02*
X5325482Y-5286190D01*
X5235006Y-5248095D02*
X5230244Y-5243333D01*
X5230244Y-5243333D02*
X5225482Y-5233809D01*
X5225482Y-5233809D02*
X5225482Y-5210000D01*
X5225482Y-5210000D02*
X5230244Y-5200476D01*
X5230244Y-5200476D02*
X5235006Y-5195714D01*
X5235006Y-5195714D02*
X5244530Y-5190952D01*
X5244530Y-5190952D02*
X5254053Y-5190952D01*
X5254053Y-5190952D02*
X5268339Y-5195714D01*
X5268339Y-5195714D02*
X5325482Y-5252857D01*
X5325482Y-5252857D02*
X5325482Y-5190952D01*
X5296910Y-5152857D02*
X5296910Y-5105238D01*
X5325482Y-5162381D02*
X5225482Y-5129048D01*
X5225482Y-5129048D02*
X5325482Y-5095714D01*
X5287387Y-5062381D02*
X5287387Y-4986190D01*
X5225482Y-4952857D02*
X5225482Y-4895714D01*
X5325482Y-4924286D02*
X5225482Y-4924286D01*
X5325482Y-4862381D02*
X5225482Y-4862381D01*
X5225482Y-4862381D02*
X5225482Y-4824286D01*
X5225482Y-4824286D02*
X5230244Y-4814762D01*
X5230244Y-4814762D02*
X5235006Y-4810000D01*
X5235006Y-4810000D02*
X5244530Y-4805238D01*
X5244530Y-4805238D02*
X5258815Y-4805238D01*
X5258815Y-4805238D02*
X5268339Y-4810000D01*
X5268339Y-4810000D02*
X5273101Y-4814762D01*
X5273101Y-4814762D02*
X5277863Y-4824286D01*
X5277863Y-4824286D02*
X5277863Y-4862381D01*
X4715482Y-5533809D02*
X4615482Y-5533809D01*
X4615482Y-5533809D02*
X4615482Y-5510000D01*
X4615482Y-5510000D02*
X4620244Y-5495714D01*
X4620244Y-5495714D02*
X4629768Y-5486190D01*
X4629768Y-5486190D02*
X4639291Y-5481429D01*
X4639291Y-5481429D02*
X4658339Y-5476667D01*
X4658339Y-5476667D02*
X4672625Y-5476667D01*
X4672625Y-5476667D02*
X4691672Y-5481429D01*
X4691672Y-5481429D02*
X4701196Y-5486190D01*
X4701196Y-5486190D02*
X4710720Y-5495714D01*
X4710720Y-5495714D02*
X4715482Y-5510000D01*
X4715482Y-5510000D02*
X4715482Y-5533809D01*
X4615482Y-5443333D02*
X4615482Y-5376667D01*
X4615482Y-5376667D02*
X4715482Y-5419524D01*
X4950476Y-3848482D02*
X4893333Y-3848482D01*
X4921905Y-3848482D02*
X4921905Y-3748482D01*
X4921905Y-3748482D02*
X4912381Y-3762768D01*
X4912381Y-3762768D02*
X4902857Y-3772291D01*
X4902857Y-3772291D02*
X4893333Y-3777053D01*
X5012381Y-3748482D02*
X5021905Y-3748482D01*
X5021905Y-3748482D02*
X5031429Y-3753244D01*
X5031429Y-3753244D02*
X5036190Y-3758006D01*
X5036190Y-3758006D02*
X5040952Y-3767529D01*
X5040952Y-3767529D02*
X5045714Y-3786577D01*
X5045714Y-3786577D02*
X5045714Y-3810387D01*
X5045714Y-3810387D02*
X5040952Y-3829434D01*
X5040952Y-3829434D02*
X5036190Y-3838958D01*
X5036190Y-3838958D02*
X5031429Y-3843720D01*
X5031429Y-3843720D02*
X5021905Y-3848482D01*
X5021905Y-3848482D02*
X5012381Y-3848482D01*
X5012381Y-3848482D02*
X5002857Y-3843720D01*
X5002857Y-3843720D02*
X4998095Y-3838958D01*
X4998095Y-3838958D02*
X4993333Y-3829434D01*
X4993333Y-3829434D02*
X4988571Y-3810387D01*
X4988571Y-3810387D02*
X4988571Y-3786577D01*
X4988571Y-3786577D02*
X4993333Y-3767529D01*
X4993333Y-3767529D02*
X4998095Y-3758006D01*
X4998095Y-3758006D02*
X5002857Y-3753244D01*
X5002857Y-3753244D02*
X5012381Y-3748482D01*
X5088571Y-3848482D02*
X5088571Y-3748482D01*
X5098095Y-3810387D02*
X5126667Y-3848482D01*
X5126667Y-3781815D02*
X5088571Y-3819910D01*
D12*
X4984286Y-3678193D02*
X4970952Y-3659145D01*
X4961429Y-3678193D02*
X4961429Y-3638193D01*
X4961429Y-3638193D02*
X4976667Y-3638193D01*
X4976667Y-3638193D02*
X4980476Y-3640097D01*
X4980476Y-3640097D02*
X4982381Y-3642002D01*
X4982381Y-3642002D02*
X4984286Y-3645812D01*
X4984286Y-3645812D02*
X4984286Y-3651526D01*
X4984286Y-3651526D02*
X4982381Y-3655336D01*
X4982381Y-3655336D02*
X4980476Y-3657240D01*
X4980476Y-3657240D02*
X4976667Y-3659145D01*
X4976667Y-3659145D02*
X4961429Y-3659145D01*
X4999524Y-3642002D02*
X5001429Y-3640097D01*
X5001429Y-3640097D02*
X5005238Y-3638193D01*
X5005238Y-3638193D02*
X5014762Y-3638193D01*
X5014762Y-3638193D02*
X5018571Y-3640097D01*
X5018571Y-3640097D02*
X5020476Y-3642002D01*
X5020476Y-3642002D02*
X5022381Y-3645812D01*
X5022381Y-3645812D02*
X5022381Y-3649621D01*
X5022381Y-3649621D02*
X5020476Y-3655336D01*
X5020476Y-3655336D02*
X4997619Y-3678193D01*
X4997619Y-3678193D02*
X5022381Y-3678193D01*
X5045238Y-3655336D02*
X5041429Y-3653431D01*
X5041429Y-3653431D02*
X5039524Y-3651526D01*
X5039524Y-3651526D02*
X5037619Y-3647716D01*
X5037619Y-3647716D02*
X5037619Y-3645812D01*
X5037619Y-3645812D02*
X5039524Y-3642002D01*
X5039524Y-3642002D02*
X5041429Y-3640097D01*
X5041429Y-3640097D02*
X5045238Y-3638193D01*
X5045238Y-3638193D02*
X5052857Y-3638193D01*
X5052857Y-3638193D02*
X5056667Y-3640097D01*
X5056667Y-3640097D02*
X5058571Y-3642002D01*
X5058571Y-3642002D02*
X5060476Y-3645812D01*
X5060476Y-3645812D02*
X5060476Y-3647716D01*
X5060476Y-3647716D02*
X5058571Y-3651526D01*
X5058571Y-3651526D02*
X5056667Y-3653431D01*
X5056667Y-3653431D02*
X5052857Y-3655336D01*
X5052857Y-3655336D02*
X5045238Y-3655336D01*
X5045238Y-3655336D02*
X5041429Y-3657240D01*
X5041429Y-3657240D02*
X5039524Y-3659145D01*
X5039524Y-3659145D02*
X5037619Y-3662955D01*
X5037619Y-3662955D02*
X5037619Y-3670574D01*
X5037619Y-3670574D02*
X5039524Y-3674383D01*
X5039524Y-3674383D02*
X5041429Y-3676288D01*
X5041429Y-3676288D02*
X5045238Y-3678193D01*
X5045238Y-3678193D02*
X5052857Y-3678193D01*
X5052857Y-3678193D02*
X5056667Y-3676288D01*
X5056667Y-3676288D02*
X5058571Y-3674383D01*
X5058571Y-3674383D02*
X5060476Y-3670574D01*
X5060476Y-3670574D02*
X5060476Y-3662955D01*
X5060476Y-3662955D02*
X5058571Y-3659145D01*
X5058571Y-3659145D02*
X5056667Y-3657240D01*
X5056667Y-3657240D02*
X5052857Y-3655336D01*
D11*
X2528482Y-4911905D02*
X2528482Y-4969048D01*
X2528482Y-4940476D02*
X2428482Y-4940476D01*
X2428482Y-4940476D02*
X2442768Y-4950000D01*
X2442768Y-4950000D02*
X2452291Y-4959524D01*
X2452291Y-4959524D02*
X2457053Y-4969048D01*
X2528482Y-4869048D02*
X2428482Y-4869048D01*
X2490387Y-4859524D02*
X2528482Y-4830952D01*
X2461815Y-4830952D02*
X2499910Y-4869048D01*
D12*
X2358193Y-4925714D02*
X2339145Y-4939048D01*
X2358193Y-4948571D02*
X2318193Y-4948571D01*
X2318193Y-4948571D02*
X2318193Y-4933333D01*
X2318193Y-4933333D02*
X2320098Y-4929524D01*
X2320098Y-4929524D02*
X2322002Y-4927619D01*
X2322002Y-4927619D02*
X2325812Y-4925714D01*
X2325812Y-4925714D02*
X2331526Y-4925714D01*
X2331526Y-4925714D02*
X2335336Y-4927619D01*
X2335336Y-4927619D02*
X2337240Y-4929524D01*
X2337240Y-4929524D02*
X2339145Y-4933333D01*
X2339145Y-4933333D02*
X2339145Y-4948571D01*
X2322002Y-4910476D02*
X2320098Y-4908571D01*
X2320098Y-4908571D02*
X2318193Y-4904762D01*
X2318193Y-4904762D02*
X2318193Y-4895238D01*
X2318193Y-4895238D02*
X2320098Y-4891429D01*
X2320098Y-4891429D02*
X2322002Y-4889524D01*
X2322002Y-4889524D02*
X2325812Y-4887619D01*
X2325812Y-4887619D02*
X2329621Y-4887619D01*
X2329621Y-4887619D02*
X2335336Y-4889524D01*
X2335336Y-4889524D02*
X2358193Y-4912381D01*
X2358193Y-4912381D02*
X2358193Y-4887619D01*
X2322002Y-4872381D02*
X2320098Y-4870476D01*
X2320098Y-4870476D02*
X2318193Y-4866667D01*
X2318193Y-4866667D02*
X2318193Y-4857143D01*
X2318193Y-4857143D02*
X2320098Y-4853333D01*
X2320098Y-4853333D02*
X2322002Y-4851429D01*
X2322002Y-4851429D02*
X2325812Y-4849524D01*
X2325812Y-4849524D02*
X2329621Y-4849524D01*
X2329621Y-4849524D02*
X2335336Y-4851429D01*
X2335336Y-4851429D02*
X2358193Y-4874286D01*
X2358193Y-4874286D02*
X2358193Y-4849524D01*
D11*
X5188482Y-4871905D02*
X5188482Y-4929048D01*
X5188482Y-4900476D02*
X5088482Y-4900476D01*
X5088482Y-4900476D02*
X5102768Y-4910000D01*
X5102768Y-4910000D02*
X5112291Y-4919524D01*
X5112291Y-4919524D02*
X5117053Y-4929048D01*
X5188482Y-4829048D02*
X5088482Y-4829048D01*
X5150387Y-4819524D02*
X5188482Y-4790952D01*
X5121815Y-4790952D02*
X5159910Y-4829048D01*
D12*
X5018193Y-4885714D02*
X4999145Y-4899048D01*
X5018193Y-4908571D02*
X4978193Y-4908571D01*
X4978193Y-4908571D02*
X4978193Y-4893333D01*
X4978193Y-4893333D02*
X4980098Y-4889524D01*
X4980098Y-4889524D02*
X4982002Y-4887619D01*
X4982002Y-4887619D02*
X4985812Y-4885714D01*
X4985812Y-4885714D02*
X4991526Y-4885714D01*
X4991526Y-4885714D02*
X4995336Y-4887619D01*
X4995336Y-4887619D02*
X4997240Y-4889524D01*
X4997240Y-4889524D02*
X4999145Y-4893333D01*
X4999145Y-4893333D02*
X4999145Y-4908571D01*
X5018193Y-4847619D02*
X5018193Y-4870476D01*
X5018193Y-4859048D02*
X4978193Y-4859048D01*
X4978193Y-4859048D02*
X4983907Y-4862857D01*
X4983907Y-4862857D02*
X4987717Y-4866667D01*
X4987717Y-4866667D02*
X4989621Y-4870476D01*
X4982002Y-4832381D02*
X4980098Y-4830476D01*
X4980098Y-4830476D02*
X4978193Y-4826667D01*
X4978193Y-4826667D02*
X4978193Y-4817143D01*
X4978193Y-4817143D02*
X4980098Y-4813333D01*
X4980098Y-4813333D02*
X4982002Y-4811429D01*
X4982002Y-4811429D02*
X4985812Y-4809524D01*
X4985812Y-4809524D02*
X4989621Y-4809524D01*
X4989621Y-4809524D02*
X4995336Y-4811429D01*
X4995336Y-4811429D02*
X5018193Y-4834286D01*
X5018193Y-4834286D02*
X5018193Y-4809524D01*
D11*
X4030720Y-6114762D02*
X4035482Y-6100476D01*
X4035482Y-6100476D02*
X4035482Y-6076667D01*
X4035482Y-6076667D02*
X4030720Y-6067143D01*
X4030720Y-6067143D02*
X4025958Y-6062381D01*
X4025958Y-6062381D02*
X4016434Y-6057619D01*
X4016434Y-6057619D02*
X4006910Y-6057619D01*
X4006910Y-6057619D02*
X3997387Y-6062381D01*
X3997387Y-6062381D02*
X3992625Y-6067143D01*
X3992625Y-6067143D02*
X3987863Y-6076667D01*
X3987863Y-6076667D02*
X3983101Y-6095714D01*
X3983101Y-6095714D02*
X3978339Y-6105238D01*
X3978339Y-6105238D02*
X3973577Y-6110000D01*
X3973577Y-6110000D02*
X3964053Y-6114762D01*
X3964053Y-6114762D02*
X3954529Y-6114762D01*
X3954529Y-6114762D02*
X3945006Y-6110000D01*
X3945006Y-6110000D02*
X3940244Y-6105238D01*
X3940244Y-6105238D02*
X3935482Y-6095714D01*
X3935482Y-6095714D02*
X3935482Y-6071905D01*
X3935482Y-6071905D02*
X3940244Y-6057619D01*
X4035482Y-6014762D02*
X3935482Y-6014762D01*
X3935482Y-6014762D02*
X4006910Y-5981428D01*
X4006910Y-5981428D02*
X3935482Y-5948095D01*
X3935482Y-5948095D02*
X4035482Y-5948095D01*
X3983101Y-5867143D02*
X3987863Y-5852857D01*
X3987863Y-5852857D02*
X3992625Y-5848095D01*
X3992625Y-5848095D02*
X4002148Y-5843333D01*
X4002148Y-5843333D02*
X4016434Y-5843333D01*
X4016434Y-5843333D02*
X4025958Y-5848095D01*
X4025958Y-5848095D02*
X4030720Y-5852857D01*
X4030720Y-5852857D02*
X4035482Y-5862381D01*
X4035482Y-5862381D02*
X4035482Y-5900476D01*
X4035482Y-5900476D02*
X3935482Y-5900476D01*
X3935482Y-5900476D02*
X3935482Y-5867143D01*
X3935482Y-5867143D02*
X3940244Y-5857619D01*
X3940244Y-5857619D02*
X3945006Y-5852857D01*
X3945006Y-5852857D02*
X3954529Y-5848095D01*
X3954529Y-5848095D02*
X3964053Y-5848095D01*
X3964053Y-5848095D02*
X3973577Y-5852857D01*
X3973577Y-5852857D02*
X3978339Y-5857619D01*
X3978339Y-5857619D02*
X3983101Y-5867143D01*
X3983101Y-5867143D02*
X3983101Y-5900476D01*
X3935482Y-5771905D02*
X4006910Y-5771905D01*
X4006910Y-5771905D02*
X4021196Y-5776667D01*
X4021196Y-5776667D02*
X4030720Y-5786190D01*
X4030720Y-5786190D02*
X4035482Y-5800476D01*
X4035482Y-5800476D02*
X4035482Y-5810000D01*
X4035482Y-5724286D02*
X3935482Y-5724286D01*
X3935482Y-5724286D02*
X3935482Y-5686190D01*
X3935482Y-5686190D02*
X3940244Y-5676667D01*
X3940244Y-5676667D02*
X3945006Y-5671905D01*
X3945006Y-5671905D02*
X3954529Y-5667143D01*
X3954529Y-5667143D02*
X3968815Y-5667143D01*
X3968815Y-5667143D02*
X3978339Y-5671905D01*
X3978339Y-5671905D02*
X3983101Y-5676667D01*
X3983101Y-5676667D02*
X3987863Y-5686190D01*
X3987863Y-5686190D02*
X3987863Y-5724286D01*
X3935482Y-5581429D02*
X3935482Y-5600476D01*
X3935482Y-5600476D02*
X3940244Y-5610000D01*
X3940244Y-5610000D02*
X3945006Y-5614762D01*
X3945006Y-5614762D02*
X3959291Y-5624286D01*
X3959291Y-5624286D02*
X3978339Y-5629047D01*
X3978339Y-5629047D02*
X4016434Y-5629047D01*
X4016434Y-5629047D02*
X4025958Y-5624286D01*
X4025958Y-5624286D02*
X4030720Y-5619524D01*
X4030720Y-5619524D02*
X4035482Y-5610000D01*
X4035482Y-5610000D02*
X4035482Y-5590952D01*
X4035482Y-5590952D02*
X4030720Y-5581429D01*
X4030720Y-5581429D02*
X4025958Y-5576667D01*
X4025958Y-5576667D02*
X4016434Y-5571905D01*
X4016434Y-5571905D02*
X3992625Y-5571905D01*
X3992625Y-5571905D02*
X3983101Y-5576667D01*
X3983101Y-5576667D02*
X3978339Y-5581429D01*
X3978339Y-5581429D02*
X3973577Y-5590952D01*
X3973577Y-5590952D02*
X3973577Y-5610000D01*
X3973577Y-5610000D02*
X3978339Y-5619524D01*
X3978339Y-5619524D02*
X3983101Y-5624286D01*
X3983101Y-5624286D02*
X3992625Y-5629047D01*
X4035482Y-5529048D02*
X3935482Y-5529048D01*
X4035482Y-5471905D02*
X3978339Y-5514762D01*
X3935482Y-5471905D02*
X3992625Y-5529048D01*
X3983101Y-5429048D02*
X3983101Y-5395714D01*
X4035482Y-5381429D02*
X4035482Y-5429048D01*
X4035482Y-5429048D02*
X3935482Y-5429048D01*
X3935482Y-5429048D02*
X3935482Y-5381429D01*
X3945006Y-5343333D02*
X3940244Y-5338571D01*
X3940244Y-5338571D02*
X3935482Y-5329048D01*
X3935482Y-5329048D02*
X3935482Y-5305238D01*
X3935482Y-5305238D02*
X3940244Y-5295714D01*
X3940244Y-5295714D02*
X3945006Y-5290952D01*
X3945006Y-5290952D02*
X3954529Y-5286190D01*
X3954529Y-5286190D02*
X3964053Y-5286190D01*
X3964053Y-5286190D02*
X3978339Y-5290952D01*
X3978339Y-5290952D02*
X4035482Y-5348095D01*
X4035482Y-5348095D02*
X4035482Y-5286190D01*
X3945006Y-5248095D02*
X3940244Y-5243333D01*
X3940244Y-5243333D02*
X3935482Y-5233809D01*
X3935482Y-5233809D02*
X3935482Y-5210000D01*
X3935482Y-5210000D02*
X3940244Y-5200476D01*
X3940244Y-5200476D02*
X3945006Y-5195714D01*
X3945006Y-5195714D02*
X3954529Y-5190952D01*
X3954529Y-5190952D02*
X3964053Y-5190952D01*
X3964053Y-5190952D02*
X3978339Y-5195714D01*
X3978339Y-5195714D02*
X4035482Y-5252857D01*
X4035482Y-5252857D02*
X4035482Y-5190952D01*
X4006910Y-5152857D02*
X4006910Y-5105238D01*
X4035482Y-5162381D02*
X3935482Y-5129048D01*
X3935482Y-5129048D02*
X4035482Y-5095714D01*
X3997387Y-5062381D02*
X3997387Y-4986190D01*
X3935482Y-4952857D02*
X3935482Y-4895714D01*
X4035482Y-4924286D02*
X3935482Y-4924286D01*
X4035482Y-4862381D02*
X3935482Y-4862381D01*
X3935482Y-4862381D02*
X3935482Y-4824286D01*
X3935482Y-4824286D02*
X3940244Y-4814762D01*
X3940244Y-4814762D02*
X3945006Y-4810000D01*
X3945006Y-4810000D02*
X3954529Y-4805238D01*
X3954529Y-4805238D02*
X3968815Y-4805238D01*
X3968815Y-4805238D02*
X3978339Y-4810000D01*
X3978339Y-4810000D02*
X3983101Y-4814762D01*
X3983101Y-4814762D02*
X3987863Y-4824286D01*
X3987863Y-4824286D02*
X3987863Y-4862381D01*
X3425482Y-5533809D02*
X3325482Y-5533809D01*
X3325482Y-5533809D02*
X3325482Y-5510000D01*
X3325482Y-5510000D02*
X3330244Y-5495714D01*
X3330244Y-5495714D02*
X3339768Y-5486190D01*
X3339768Y-5486190D02*
X3349291Y-5481429D01*
X3349291Y-5481429D02*
X3368339Y-5476667D01*
X3368339Y-5476667D02*
X3382625Y-5476667D01*
X3382625Y-5476667D02*
X3401672Y-5481429D01*
X3401672Y-5481429D02*
X3411196Y-5486190D01*
X3411196Y-5486190D02*
X3420720Y-5495714D01*
X3420720Y-5495714D02*
X3425482Y-5510000D01*
X3425482Y-5510000D02*
X3425482Y-5533809D01*
X3368339Y-5419524D02*
X3363577Y-5429048D01*
X3363577Y-5429048D02*
X3358815Y-5433809D01*
X3358815Y-5433809D02*
X3349291Y-5438571D01*
X3349291Y-5438571D02*
X3344529Y-5438571D01*
X3344529Y-5438571D02*
X3335006Y-5433809D01*
X3335006Y-5433809D02*
X3330244Y-5429048D01*
X3330244Y-5429048D02*
X3325482Y-5419524D01*
X3325482Y-5419524D02*
X3325482Y-5400476D01*
X3325482Y-5400476D02*
X3330244Y-5390952D01*
X3330244Y-5390952D02*
X3335006Y-5386190D01*
X3335006Y-5386190D02*
X3344529Y-5381429D01*
X3344529Y-5381429D02*
X3349291Y-5381429D01*
X3349291Y-5381429D02*
X3358815Y-5386190D01*
X3358815Y-5386190D02*
X3363577Y-5390952D01*
X3363577Y-5390952D02*
X3368339Y-5400476D01*
X3368339Y-5400476D02*
X3368339Y-5419524D01*
X3368339Y-5419524D02*
X3373101Y-5429048D01*
X3373101Y-5429048D02*
X3377863Y-5433809D01*
X3377863Y-5433809D02*
X3387387Y-5438571D01*
X3387387Y-5438571D02*
X3406434Y-5438571D01*
X3406434Y-5438571D02*
X3415958Y-5433809D01*
X3415958Y-5433809D02*
X3420720Y-5429048D01*
X3420720Y-5429048D02*
X3425482Y-5419524D01*
X3425482Y-5419524D02*
X3425482Y-5400476D01*
X3425482Y-5400476D02*
X3420720Y-5390952D01*
X3420720Y-5390952D02*
X3415958Y-5386190D01*
X3415958Y-5386190D02*
X3406434Y-5381429D01*
X3406434Y-5381429D02*
X3387387Y-5381429D01*
X3387387Y-5381429D02*
X3377863Y-5386190D01*
X3377863Y-5386190D02*
X3373101Y-5390952D01*
X3373101Y-5390952D02*
X3368339Y-5400476D01*
X2332482Y-4988095D02*
X2332482Y-5035714D01*
X2332482Y-5035714D02*
X2380101Y-5040476D01*
X2380101Y-5040476D02*
X2375339Y-5035714D01*
X2375339Y-5035714D02*
X2370577Y-5026190D01*
X2370577Y-5026190D02*
X2370577Y-5002381D01*
X2370577Y-5002381D02*
X2375339Y-4992857D01*
X2375339Y-4992857D02*
X2380101Y-4988095D01*
X2380101Y-4988095D02*
X2389625Y-4983333D01*
X2389625Y-4983333D02*
X2413434Y-4983333D01*
X2413434Y-4983333D02*
X2422958Y-4988095D01*
X2422958Y-4988095D02*
X2427720Y-4992857D01*
X2427720Y-4992857D02*
X2432482Y-5002381D01*
X2432482Y-5002381D02*
X2432482Y-5026190D01*
X2432482Y-5026190D02*
X2427720Y-5035714D01*
X2427720Y-5035714D02*
X2422958Y-5040476D01*
X2422958Y-4940476D02*
X2427720Y-4935714D01*
X2427720Y-4935714D02*
X2432482Y-4940476D01*
X2432482Y-4940476D02*
X2427720Y-4945238D01*
X2427720Y-4945238D02*
X2422958Y-4940476D01*
X2422958Y-4940476D02*
X2432482Y-4940476D01*
X2432482Y-4840476D02*
X2432482Y-4897619D01*
X2432482Y-4869048D02*
X2332482Y-4869048D01*
X2332482Y-4869048D02*
X2346768Y-4878571D01*
X2346768Y-4878571D02*
X2356291Y-4888095D01*
X2356291Y-4888095D02*
X2361053Y-4897619D01*
X2432482Y-4797619D02*
X2332482Y-4797619D01*
X2394387Y-4788095D02*
X2432482Y-4759524D01*
X2365815Y-4759524D02*
X2403910Y-4797619D01*
D12*
X2548193Y-4925714D02*
X2529145Y-4939048D01*
X2548193Y-4948571D02*
X2508193Y-4948571D01*
X2508193Y-4948571D02*
X2508193Y-4933333D01*
X2508193Y-4933333D02*
X2510098Y-4929524D01*
X2510098Y-4929524D02*
X2512002Y-4927619D01*
X2512002Y-4927619D02*
X2515812Y-4925714D01*
X2515812Y-4925714D02*
X2521526Y-4925714D01*
X2521526Y-4925714D02*
X2525336Y-4927619D01*
X2525336Y-4927619D02*
X2527240Y-4929524D01*
X2527240Y-4929524D02*
X2529145Y-4933333D01*
X2529145Y-4933333D02*
X2529145Y-4948571D01*
X2512002Y-4910476D02*
X2510098Y-4908571D01*
X2510098Y-4908571D02*
X2508193Y-4904762D01*
X2508193Y-4904762D02*
X2508193Y-4895238D01*
X2508193Y-4895238D02*
X2510098Y-4891429D01*
X2510098Y-4891429D02*
X2512002Y-4889524D01*
X2512002Y-4889524D02*
X2515812Y-4887619D01*
X2515812Y-4887619D02*
X2519621Y-4887619D01*
X2519621Y-4887619D02*
X2525336Y-4889524D01*
X2525336Y-4889524D02*
X2548193Y-4912381D01*
X2548193Y-4912381D02*
X2548193Y-4887619D01*
X2548193Y-4849524D02*
X2548193Y-4872381D01*
X2548193Y-4860952D02*
X2508193Y-4860952D01*
X2508193Y-4860952D02*
X2513907Y-4864762D01*
X2513907Y-4864762D02*
X2517717Y-4868571D01*
X2517717Y-4868571D02*
X2519621Y-4872381D01*
D11*
X3702482Y-4958095D02*
X3702482Y-5005714D01*
X3702482Y-5005714D02*
X3750101Y-5010476D01*
X3750101Y-5010476D02*
X3745339Y-5005714D01*
X3745339Y-5005714D02*
X3740577Y-4996190D01*
X3740577Y-4996190D02*
X3740577Y-4972381D01*
X3740577Y-4972381D02*
X3745339Y-4962857D01*
X3745339Y-4962857D02*
X3750101Y-4958095D01*
X3750101Y-4958095D02*
X3759625Y-4953333D01*
X3759625Y-4953333D02*
X3783434Y-4953333D01*
X3783434Y-4953333D02*
X3792958Y-4958095D01*
X3792958Y-4958095D02*
X3797720Y-4962857D01*
X3797720Y-4962857D02*
X3802482Y-4972381D01*
X3802482Y-4972381D02*
X3802482Y-4996190D01*
X3802482Y-4996190D02*
X3797720Y-5005714D01*
X3797720Y-5005714D02*
X3792958Y-5010476D01*
X3792958Y-4910476D02*
X3797720Y-4905714D01*
X3797720Y-4905714D02*
X3802482Y-4910476D01*
X3802482Y-4910476D02*
X3797720Y-4915238D01*
X3797720Y-4915238D02*
X3792958Y-4910476D01*
X3792958Y-4910476D02*
X3802482Y-4910476D01*
X3802482Y-4810476D02*
X3802482Y-4867619D01*
X3802482Y-4839048D02*
X3702482Y-4839048D01*
X3702482Y-4839048D02*
X3716768Y-4848571D01*
X3716768Y-4848571D02*
X3726291Y-4858095D01*
X3726291Y-4858095D02*
X3731053Y-4867619D01*
X3802482Y-4767619D02*
X3702482Y-4767619D01*
X3764387Y-4758095D02*
X3802482Y-4729524D01*
X3735815Y-4729524D02*
X3773910Y-4767619D01*
D12*
X3918193Y-4895714D02*
X3899145Y-4909048D01*
X3918193Y-4918571D02*
X3878193Y-4918571D01*
X3878193Y-4918571D02*
X3878193Y-4903333D01*
X3878193Y-4903333D02*
X3880097Y-4899524D01*
X3880097Y-4899524D02*
X3882002Y-4897619D01*
X3882002Y-4897619D02*
X3885812Y-4895714D01*
X3885812Y-4895714D02*
X3891526Y-4895714D01*
X3891526Y-4895714D02*
X3895336Y-4897619D01*
X3895336Y-4897619D02*
X3897240Y-4899524D01*
X3897240Y-4899524D02*
X3899145Y-4903333D01*
X3899145Y-4903333D02*
X3899145Y-4918571D01*
X3918193Y-4857619D02*
X3918193Y-4880476D01*
X3918193Y-4869048D02*
X3878193Y-4869048D01*
X3878193Y-4869048D02*
X3883907Y-4872857D01*
X3883907Y-4872857D02*
X3887716Y-4876667D01*
X3887716Y-4876667D02*
X3889621Y-4880476D01*
X3878193Y-4821429D02*
X3878193Y-4840476D01*
X3878193Y-4840476D02*
X3897240Y-4842381D01*
X3897240Y-4842381D02*
X3895336Y-4840476D01*
X3895336Y-4840476D02*
X3893431Y-4836667D01*
X3893431Y-4836667D02*
X3893431Y-4827143D01*
X3893431Y-4827143D02*
X3895336Y-4823333D01*
X3895336Y-4823333D02*
X3897240Y-4821429D01*
X3897240Y-4821429D02*
X3901050Y-4819524D01*
X3901050Y-4819524D02*
X3910574Y-4819524D01*
X3910574Y-4819524D02*
X3914383Y-4821429D01*
X3914383Y-4821429D02*
X3916288Y-4823333D01*
X3916288Y-4823333D02*
X3918193Y-4827143D01*
X3918193Y-4827143D02*
X3918193Y-4836667D01*
X3918193Y-4836667D02*
X3916288Y-4840476D01*
X3916288Y-4840476D02*
X3914383Y-4842381D01*
D11*
X2306000Y-3427482D02*
X2248857Y-3427482D01*
X2277429Y-3427482D02*
X2277429Y-3327482D01*
X2277429Y-3327482D02*
X2267905Y-3341768D01*
X2267905Y-3341768D02*
X2258381Y-3351291D01*
X2258381Y-3351291D02*
X2248857Y-3356053D01*
X2367905Y-3327482D02*
X2377429Y-3327482D01*
X2377429Y-3327482D02*
X2386952Y-3332244D01*
X2386952Y-3332244D02*
X2391714Y-3337006D01*
X2391714Y-3337006D02*
X2396476Y-3346529D01*
X2396476Y-3346529D02*
X2401238Y-3365577D01*
X2401238Y-3365577D02*
X2401238Y-3389387D01*
X2401238Y-3389387D02*
X2396476Y-3408434D01*
X2396476Y-3408434D02*
X2391714Y-3417958D01*
X2391714Y-3417958D02*
X2386952Y-3422720D01*
X2386952Y-3422720D02*
X2377429Y-3427482D01*
X2377429Y-3427482D02*
X2367905Y-3427482D01*
X2367905Y-3427482D02*
X2358381Y-3422720D01*
X2358381Y-3422720D02*
X2353619Y-3417958D01*
X2353619Y-3417958D02*
X2348857Y-3408434D01*
X2348857Y-3408434D02*
X2344095Y-3389387D01*
X2344095Y-3389387D02*
X2344095Y-3365577D01*
X2344095Y-3365577D02*
X2348857Y-3346529D01*
X2348857Y-3346529D02*
X2353619Y-3337006D01*
X2353619Y-3337006D02*
X2358381Y-3332244D01*
X2358381Y-3332244D02*
X2367905Y-3327482D01*
X2463143Y-3327482D02*
X2472667Y-3327482D01*
X2472667Y-3327482D02*
X2482190Y-3332244D01*
X2482190Y-3332244D02*
X2486952Y-3337006D01*
X2486952Y-3337006D02*
X2491714Y-3346529D01*
X2491714Y-3346529D02*
X2496476Y-3365577D01*
X2496476Y-3365577D02*
X2496476Y-3389387D01*
X2496476Y-3389387D02*
X2491714Y-3408434D01*
X2491714Y-3408434D02*
X2486952Y-3417958D01*
X2486952Y-3417958D02*
X2482190Y-3422720D01*
X2482190Y-3422720D02*
X2472667Y-3427482D01*
X2472667Y-3427482D02*
X2463143Y-3427482D01*
X2463143Y-3427482D02*
X2453619Y-3422720D01*
X2453619Y-3422720D02*
X2448857Y-3417958D01*
X2448857Y-3417958D02*
X2444095Y-3408434D01*
X2444095Y-3408434D02*
X2439333Y-3389387D01*
X2439333Y-3389387D02*
X2439333Y-3365577D01*
X2439333Y-3365577D02*
X2444095Y-3346529D01*
X2444095Y-3346529D02*
X2448857Y-3337006D01*
X2448857Y-3337006D02*
X2453619Y-3332244D01*
X2453619Y-3332244D02*
X2463143Y-3327482D01*
X2539333Y-3427482D02*
X2539333Y-3327482D01*
X2548857Y-3389387D02*
X2577429Y-3427482D01*
X2577429Y-3360815D02*
X2539333Y-3398910D01*
X2748857Y-3427482D02*
X2691714Y-3427482D01*
X2720286Y-3427482D02*
X2720286Y-3327482D01*
X2720286Y-3327482D02*
X2710762Y-3341768D01*
X2710762Y-3341768D02*
X2701238Y-3351291D01*
X2701238Y-3351291D02*
X2691714Y-3356053D01*
X2786952Y-3427482D02*
X2863143Y-3327482D01*
X2801238Y-3327482D02*
X2810762Y-3332244D01*
X2810762Y-3332244D02*
X2815524Y-3341768D01*
X2815524Y-3341768D02*
X2810762Y-3351291D01*
X2810762Y-3351291D02*
X2801238Y-3356053D01*
X2801238Y-3356053D02*
X2791714Y-3351291D01*
X2791714Y-3351291D02*
X2786952Y-3341768D01*
X2786952Y-3341768D02*
X2791714Y-3332244D01*
X2791714Y-3332244D02*
X2801238Y-3327482D01*
X2858381Y-3422720D02*
X2863143Y-3413196D01*
X2863143Y-3413196D02*
X2858381Y-3403672D01*
X2858381Y-3403672D02*
X2848857Y-3398910D01*
X2848857Y-3398910D02*
X2839333Y-3403672D01*
X2839333Y-3403672D02*
X2834571Y-3413196D01*
X2834571Y-3413196D02*
X2839333Y-3422720D01*
X2839333Y-3422720D02*
X2848857Y-3427482D01*
X2848857Y-3427482D02*
X2858381Y-3422720D01*
D12*
X2481714Y-3543193D02*
X2468381Y-3524145D01*
X2458857Y-3543193D02*
X2458857Y-3503193D01*
X2458857Y-3503193D02*
X2474095Y-3503193D01*
X2474095Y-3503193D02*
X2477905Y-3505097D01*
X2477905Y-3505097D02*
X2479810Y-3507002D01*
X2479810Y-3507002D02*
X2481714Y-3510812D01*
X2481714Y-3510812D02*
X2481714Y-3516526D01*
X2481714Y-3516526D02*
X2479810Y-3520336D01*
X2479810Y-3520336D02*
X2477905Y-3522240D01*
X2477905Y-3522240D02*
X2474095Y-3524145D01*
X2474095Y-3524145D02*
X2458857Y-3524145D01*
X2489333Y-3547002D02*
X2519810Y-3547002D01*
X2542667Y-3522240D02*
X2529333Y-3522240D01*
X2529333Y-3543193D02*
X2529333Y-3503193D01*
X2529333Y-3503193D02*
X2548381Y-3503193D01*
X2576952Y-3522240D02*
X2582667Y-3524145D01*
X2582667Y-3524145D02*
X2584571Y-3526050D01*
X2584571Y-3526050D02*
X2586476Y-3529859D01*
X2586476Y-3529859D02*
X2586476Y-3535574D01*
X2586476Y-3535574D02*
X2584571Y-3539383D01*
X2584571Y-3539383D02*
X2582667Y-3541288D01*
X2582667Y-3541288D02*
X2578857Y-3543193D01*
X2578857Y-3543193D02*
X2563619Y-3543193D01*
X2563619Y-3543193D02*
X2563619Y-3503193D01*
X2563619Y-3503193D02*
X2576952Y-3503193D01*
X2576952Y-3503193D02*
X2580762Y-3505097D01*
X2580762Y-3505097D02*
X2582667Y-3507002D01*
X2582667Y-3507002D02*
X2584571Y-3510812D01*
X2584571Y-3510812D02*
X2584571Y-3514621D01*
X2584571Y-3514621D02*
X2582667Y-3518431D01*
X2582667Y-3518431D02*
X2580762Y-3520336D01*
X2580762Y-3520336D02*
X2576952Y-3522240D01*
X2576952Y-3522240D02*
X2563619Y-3522240D01*
X2597905Y-3503193D02*
X2620762Y-3503193D01*
X2609333Y-3543193D02*
X2609333Y-3503193D01*
X2655048Y-3543193D02*
X2632191Y-3543193D01*
X2643619Y-3543193D02*
X2643619Y-3503193D01*
X2643619Y-3503193D02*
X2639810Y-3508907D01*
X2639810Y-3508907D02*
X2636000Y-3512716D01*
X2636000Y-3512716D02*
X2632191Y-3514621D01*
D11*
X4868095Y-3449482D02*
X4810952Y-3449482D01*
X4839524Y-3449482D02*
X4839524Y-3349482D01*
X4839524Y-3349482D02*
X4830000Y-3363768D01*
X4830000Y-3363768D02*
X4820476Y-3373291D01*
X4820476Y-3373291D02*
X4810952Y-3378053D01*
X4930000Y-3349482D02*
X4939524Y-3349482D01*
X4939524Y-3349482D02*
X4949048Y-3354244D01*
X4949048Y-3354244D02*
X4953810Y-3359006D01*
X4953810Y-3359006D02*
X4958571Y-3368529D01*
X4958571Y-3368529D02*
X4963333Y-3387577D01*
X4963333Y-3387577D02*
X4963333Y-3411387D01*
X4963333Y-3411387D02*
X4958571Y-3430434D01*
X4958571Y-3430434D02*
X4953810Y-3439958D01*
X4953810Y-3439958D02*
X4949048Y-3444720D01*
X4949048Y-3444720D02*
X4939524Y-3449482D01*
X4939524Y-3449482D02*
X4930000Y-3449482D01*
X4930000Y-3449482D02*
X4920476Y-3444720D01*
X4920476Y-3444720D02*
X4915714Y-3439958D01*
X4915714Y-3439958D02*
X4910952Y-3430434D01*
X4910952Y-3430434D02*
X4906191Y-3411387D01*
X4906191Y-3411387D02*
X4906191Y-3387577D01*
X4906191Y-3387577D02*
X4910952Y-3368529D01*
X4910952Y-3368529D02*
X4915714Y-3359006D01*
X4915714Y-3359006D02*
X4920476Y-3354244D01*
X4920476Y-3354244D02*
X4930000Y-3349482D01*
X5025238Y-3349482D02*
X5034762Y-3349482D01*
X5034762Y-3349482D02*
X5044286Y-3354244D01*
X5044286Y-3354244D02*
X5049048Y-3359006D01*
X5049048Y-3359006D02*
X5053810Y-3368529D01*
X5053810Y-3368529D02*
X5058571Y-3387577D01*
X5058571Y-3387577D02*
X5058571Y-3411387D01*
X5058571Y-3411387D02*
X5053810Y-3430434D01*
X5053810Y-3430434D02*
X5049048Y-3439958D01*
X5049048Y-3439958D02*
X5044286Y-3444720D01*
X5044286Y-3444720D02*
X5034762Y-3449482D01*
X5034762Y-3449482D02*
X5025238Y-3449482D01*
X5025238Y-3449482D02*
X5015714Y-3444720D01*
X5015714Y-3444720D02*
X5010952Y-3439958D01*
X5010952Y-3439958D02*
X5006191Y-3430434D01*
X5006191Y-3430434D02*
X5001429Y-3411387D01*
X5001429Y-3411387D02*
X5001429Y-3387577D01*
X5001429Y-3387577D02*
X5006191Y-3368529D01*
X5006191Y-3368529D02*
X5010952Y-3359006D01*
X5010952Y-3359006D02*
X5015714Y-3354244D01*
X5015714Y-3354244D02*
X5025238Y-3349482D01*
X5101429Y-3382815D02*
X5101429Y-3449482D01*
X5101429Y-3392339D02*
X5106191Y-3387577D01*
X5106191Y-3387577D02*
X5115714Y-3382815D01*
X5115714Y-3382815D02*
X5130000Y-3382815D01*
X5130000Y-3382815D02*
X5139524Y-3387577D01*
X5139524Y-3387577D02*
X5144286Y-3397101D01*
X5144286Y-3397101D02*
X5144286Y-3449482D01*
D13*
X4963929Y-3528976D02*
X4962738Y-3530167D01*
X4962738Y-3530167D02*
X4959167Y-3531357D01*
X4959167Y-3531357D02*
X4956786Y-3531357D01*
X4956786Y-3531357D02*
X4953214Y-3530167D01*
X4953214Y-3530167D02*
X4950833Y-3527786D01*
X4950833Y-3527786D02*
X4949643Y-3525405D01*
X4949643Y-3525405D02*
X4948452Y-3520643D01*
X4948452Y-3520643D02*
X4948452Y-3517072D01*
X4948452Y-3517072D02*
X4949643Y-3512310D01*
X4949643Y-3512310D02*
X4950833Y-3509929D01*
X4950833Y-3509929D02*
X4953214Y-3507548D01*
X4953214Y-3507548D02*
X4956786Y-3506357D01*
X4956786Y-3506357D02*
X4959167Y-3506357D01*
X4959167Y-3506357D02*
X4962738Y-3507548D01*
X4962738Y-3507548D02*
X4963929Y-3508738D01*
X4973452Y-3508738D02*
X4974643Y-3507548D01*
X4974643Y-3507548D02*
X4977024Y-3506357D01*
X4977024Y-3506357D02*
X4982976Y-3506357D01*
X4982976Y-3506357D02*
X4985357Y-3507548D01*
X4985357Y-3507548D02*
X4986548Y-3508738D01*
X4986548Y-3508738D02*
X4987738Y-3511119D01*
X4987738Y-3511119D02*
X4987738Y-3513500D01*
X4987738Y-3513500D02*
X4986548Y-3517072D01*
X4986548Y-3517072D02*
X4972262Y-3531357D01*
X4972262Y-3531357D02*
X4987738Y-3531357D01*
X4999643Y-3531357D02*
X5004405Y-3531357D01*
X5004405Y-3531357D02*
X5006786Y-3530167D01*
X5006786Y-3530167D02*
X5007976Y-3528976D01*
X5007976Y-3528976D02*
X5010357Y-3525405D01*
X5010357Y-3525405D02*
X5011548Y-3520643D01*
X5011548Y-3520643D02*
X5011548Y-3511119D01*
X5011548Y-3511119D02*
X5010357Y-3508738D01*
X5010357Y-3508738D02*
X5009167Y-3507548D01*
X5009167Y-3507548D02*
X5006786Y-3506357D01*
X5006786Y-3506357D02*
X5002024Y-3506357D01*
X5002024Y-3506357D02*
X4999643Y-3507548D01*
X4999643Y-3507548D02*
X4998452Y-3508738D01*
X4998452Y-3508738D02*
X4997262Y-3511119D01*
X4997262Y-3511119D02*
X4997262Y-3517072D01*
X4997262Y-3517072D02*
X4998452Y-3519453D01*
X4998452Y-3519453D02*
X4999643Y-3520643D01*
X4999643Y-3520643D02*
X5002024Y-3521834D01*
X5002024Y-3521834D02*
X5006786Y-3521834D01*
X5006786Y-3521834D02*
X5009167Y-3520643D01*
X5009167Y-3520643D02*
X5010357Y-3519453D01*
X5010357Y-3519453D02*
X5011548Y-3517072D01*
D10*
X5729432Y-3117333D02*
X5820146Y-3117333D01*
X5820146Y-3117333D02*
X5838289Y-3123381D01*
X5838289Y-3123381D02*
X5850384Y-3135476D01*
X5850384Y-3135476D02*
X5856432Y-3153619D01*
X5856432Y-3153619D02*
X5856432Y-3165714D01*
X5856432Y-2990333D02*
X5856432Y-3062905D01*
X5856432Y-3026619D02*
X5729432Y-3026619D01*
X5729432Y-3026619D02*
X5747575Y-3038714D01*
X5747575Y-3038714D02*
X5759670Y-3050809D01*
X5759670Y-3050809D02*
X5765717Y-3062905D01*
D11*
X1978006Y-3503214D02*
X1973244Y-3498452D01*
X1973244Y-3498452D02*
X1968482Y-3488928D01*
X1968482Y-3488928D02*
X1968482Y-3465119D01*
X1968482Y-3465119D02*
X1973244Y-3455595D01*
X1973244Y-3455595D02*
X1978006Y-3450833D01*
X1978006Y-3450833D02*
X1987529Y-3446071D01*
X1987529Y-3446071D02*
X1997053Y-3446071D01*
X1997053Y-3446071D02*
X2011339Y-3450833D01*
X2011339Y-3450833D02*
X2068482Y-3507976D01*
X2068482Y-3507976D02*
X2068482Y-3446071D01*
X1978006Y-3407976D02*
X1973244Y-3403214D01*
X1973244Y-3403214D02*
X1968482Y-3393690D01*
X1968482Y-3393690D02*
X1968482Y-3369881D01*
X1968482Y-3369881D02*
X1973244Y-3360357D01*
X1973244Y-3360357D02*
X1978006Y-3355595D01*
X1978006Y-3355595D02*
X1987529Y-3350833D01*
X1987529Y-3350833D02*
X1997053Y-3350833D01*
X1997053Y-3350833D02*
X2011339Y-3355595D01*
X2011339Y-3355595D02*
X2068482Y-3412738D01*
X2068482Y-3412738D02*
X2068482Y-3350833D01*
X2001815Y-3265119D02*
X2068482Y-3265119D01*
X2001815Y-3307976D02*
X2054196Y-3307976D01*
X2054196Y-3307976D02*
X2063720Y-3303214D01*
X2063720Y-3303214D02*
X2068482Y-3293690D01*
X2068482Y-3293690D02*
X2068482Y-3279405D01*
X2068482Y-3279405D02*
X2063720Y-3269881D01*
X2063720Y-3269881D02*
X2058958Y-3265119D01*
X1963720Y-3146071D02*
X2092291Y-3231786D01*
X1968482Y-3069881D02*
X1968482Y-3088928D01*
X1968482Y-3088928D02*
X1973244Y-3098452D01*
X1973244Y-3098452D02*
X1978006Y-3103214D01*
X1978006Y-3103214D02*
X1992291Y-3112738D01*
X1992291Y-3112738D02*
X2011339Y-3117500D01*
X2011339Y-3117500D02*
X2049434Y-3117500D01*
X2049434Y-3117500D02*
X2058958Y-3112738D01*
X2058958Y-3112738D02*
X2063720Y-3107976D01*
X2063720Y-3107976D02*
X2068482Y-3098452D01*
X2068482Y-3098452D02*
X2068482Y-3079405D01*
X2068482Y-3079405D02*
X2063720Y-3069881D01*
X2063720Y-3069881D02*
X2058958Y-3065119D01*
X2058958Y-3065119D02*
X2049434Y-3060357D01*
X2049434Y-3060357D02*
X2025625Y-3060357D01*
X2025625Y-3060357D02*
X2016101Y-3065119D01*
X2016101Y-3065119D02*
X2011339Y-3069881D01*
X2011339Y-3069881D02*
X2006577Y-3079405D01*
X2006577Y-3079405D02*
X2006577Y-3098452D01*
X2006577Y-3098452D02*
X2011339Y-3107976D01*
X2011339Y-3107976D02*
X2016101Y-3112738D01*
X2016101Y-3112738D02*
X2025625Y-3117500D01*
X2058958Y-3017500D02*
X2063720Y-3012738D01*
X2063720Y-3012738D02*
X2068482Y-3017500D01*
X2068482Y-3017500D02*
X2063720Y-3022262D01*
X2063720Y-3022262D02*
X2058958Y-3017500D01*
X2058958Y-3017500D02*
X2068482Y-3017500D01*
X1968482Y-2927024D02*
X1968482Y-2946071D01*
X1968482Y-2946071D02*
X1973244Y-2955595D01*
X1973244Y-2955595D02*
X1978006Y-2960357D01*
X1978006Y-2960357D02*
X1992291Y-2969881D01*
X1992291Y-2969881D02*
X2011339Y-2974643D01*
X2011339Y-2974643D02*
X2049434Y-2974643D01*
X2049434Y-2974643D02*
X2058958Y-2969881D01*
X2058958Y-2969881D02*
X2063720Y-2965119D01*
X2063720Y-2965119D02*
X2068482Y-2955595D01*
X2068482Y-2955595D02*
X2068482Y-2936548D01*
X2068482Y-2936548D02*
X2063720Y-2927024D01*
X2063720Y-2927024D02*
X2058958Y-2922262D01*
X2058958Y-2922262D02*
X2049434Y-2917500D01*
X2049434Y-2917500D02*
X2025625Y-2917500D01*
X2025625Y-2917500D02*
X2016101Y-2922262D01*
X2016101Y-2922262D02*
X2011339Y-2927024D01*
X2011339Y-2927024D02*
X2006577Y-2936548D01*
X2006577Y-2936548D02*
X2006577Y-2955595D01*
X2006577Y-2955595D02*
X2011339Y-2965119D01*
X2011339Y-2965119D02*
X2016101Y-2969881D01*
X2016101Y-2969881D02*
X2025625Y-2974643D01*
X1968482Y-2888928D02*
X2068482Y-2855595D01*
X2068482Y-2855595D02*
X1968482Y-2822262D01*
D12*
X2180383Y-3193214D02*
X2182288Y-3195119D01*
X2182288Y-3195119D02*
X2184193Y-3200833D01*
X2184193Y-3200833D02*
X2184193Y-3204643D01*
X2184193Y-3204643D02*
X2182288Y-3210357D01*
X2182288Y-3210357D02*
X2178478Y-3214167D01*
X2178478Y-3214167D02*
X2174669Y-3216071D01*
X2174669Y-3216071D02*
X2167050Y-3217976D01*
X2167050Y-3217976D02*
X2161336Y-3217976D01*
X2161336Y-3217976D02*
X2153717Y-3216071D01*
X2153717Y-3216071D02*
X2149907Y-3214167D01*
X2149907Y-3214167D02*
X2146098Y-3210357D01*
X2146098Y-3210357D02*
X2144193Y-3204643D01*
X2144193Y-3204643D02*
X2144193Y-3200833D01*
X2144193Y-3200833D02*
X2146098Y-3195119D01*
X2146098Y-3195119D02*
X2148002Y-3193214D01*
X2184193Y-3155119D02*
X2184193Y-3177976D01*
X2184193Y-3166547D02*
X2144193Y-3166547D01*
X2144193Y-3166547D02*
X2149907Y-3170357D01*
X2149907Y-3170357D02*
X2153717Y-3174167D01*
X2153717Y-3174167D02*
X2155621Y-3177976D01*
X2184193Y-3117024D02*
X2184193Y-3139881D01*
X2184193Y-3128452D02*
X2144193Y-3128452D01*
X2144193Y-3128452D02*
X2149907Y-3132262D01*
X2149907Y-3132262D02*
X2153717Y-3136071D01*
X2153717Y-3136071D02*
X2155621Y-3139881D01*
D11*
X4162482Y-4881905D02*
X4162482Y-4939048D01*
X4162482Y-4910476D02*
X4062482Y-4910476D01*
X4062482Y-4910476D02*
X4076768Y-4920000D01*
X4076768Y-4920000D02*
X4086291Y-4929524D01*
X4086291Y-4929524D02*
X4091053Y-4939048D01*
X4162482Y-4839048D02*
X4062482Y-4839048D01*
X4124387Y-4829524D02*
X4162482Y-4800952D01*
X4095815Y-4800952D02*
X4133910Y-4839048D01*
D12*
X4278193Y-4895714D02*
X4259145Y-4909048D01*
X4278193Y-4918571D02*
X4238193Y-4918571D01*
X4238193Y-4918571D02*
X4238193Y-4903333D01*
X4238193Y-4903333D02*
X4240098Y-4899524D01*
X4240098Y-4899524D02*
X4242002Y-4897619D01*
X4242002Y-4897619D02*
X4245812Y-4895714D01*
X4245812Y-4895714D02*
X4251526Y-4895714D01*
X4251526Y-4895714D02*
X4255336Y-4897619D01*
X4255336Y-4897619D02*
X4257240Y-4899524D01*
X4257240Y-4899524D02*
X4259145Y-4903333D01*
X4259145Y-4903333D02*
X4259145Y-4918571D01*
X4278193Y-4857619D02*
X4278193Y-4880476D01*
X4278193Y-4869048D02*
X4238193Y-4869048D01*
X4238193Y-4869048D02*
X4243907Y-4872857D01*
X4243907Y-4872857D02*
X4247717Y-4876667D01*
X4247717Y-4876667D02*
X4249621Y-4880476D01*
X4251526Y-4823333D02*
X4278193Y-4823333D01*
X4236288Y-4832857D02*
X4264859Y-4842381D01*
X4264859Y-4842381D02*
X4264859Y-4817619D01*
D11*
X4626482Y-3051905D02*
X4626482Y-3109047D01*
X4626482Y-3080476D02*
X4526482Y-3080476D01*
X4526482Y-3080476D02*
X4540768Y-3090000D01*
X4540768Y-3090000D02*
X4550291Y-3099524D01*
X4550291Y-3099524D02*
X4555053Y-3109047D01*
X4526482Y-2990000D02*
X4526482Y-2980476D01*
X4526482Y-2980476D02*
X4531244Y-2970952D01*
X4531244Y-2970952D02*
X4536006Y-2966190D01*
X4536006Y-2966190D02*
X4545530Y-2961428D01*
X4545530Y-2961428D02*
X4564577Y-2956667D01*
X4564577Y-2956667D02*
X4588387Y-2956667D01*
X4588387Y-2956667D02*
X4607434Y-2961428D01*
X4607434Y-2961428D02*
X4616958Y-2966190D01*
X4616958Y-2966190D02*
X4621720Y-2970952D01*
X4621720Y-2970952D02*
X4626482Y-2980476D01*
X4626482Y-2980476D02*
X4626482Y-2990000D01*
X4626482Y-2990000D02*
X4621720Y-2999524D01*
X4621720Y-2999524D02*
X4616958Y-3004286D01*
X4616958Y-3004286D02*
X4607434Y-3009047D01*
X4607434Y-3009047D02*
X4588387Y-3013809D01*
X4588387Y-3013809D02*
X4564577Y-3013809D01*
X4564577Y-3013809D02*
X4545530Y-3009047D01*
X4545530Y-3009047D02*
X4536006Y-3004286D01*
X4536006Y-3004286D02*
X4531244Y-2999524D01*
X4531244Y-2999524D02*
X4526482Y-2990000D01*
X4526482Y-2894762D02*
X4526482Y-2885238D01*
X4526482Y-2885238D02*
X4531244Y-2875714D01*
X4531244Y-2875714D02*
X4536006Y-2870952D01*
X4536006Y-2870952D02*
X4545530Y-2866190D01*
X4545530Y-2866190D02*
X4564577Y-2861428D01*
X4564577Y-2861428D02*
X4588387Y-2861428D01*
X4588387Y-2861428D02*
X4607434Y-2866190D01*
X4607434Y-2866190D02*
X4616958Y-2870952D01*
X4616958Y-2870952D02*
X4621720Y-2875714D01*
X4621720Y-2875714D02*
X4626482Y-2885238D01*
X4626482Y-2885238D02*
X4626482Y-2894762D01*
X4626482Y-2894762D02*
X4621720Y-2904286D01*
X4621720Y-2904286D02*
X4616958Y-2909047D01*
X4616958Y-2909047D02*
X4607434Y-2913809D01*
X4607434Y-2913809D02*
X4588387Y-2918571D01*
X4588387Y-2918571D02*
X4564577Y-2918571D01*
X4564577Y-2918571D02*
X4545530Y-2913809D01*
X4545530Y-2913809D02*
X4536006Y-2909047D01*
X4536006Y-2909047D02*
X4531244Y-2904286D01*
X4531244Y-2904286D02*
X4526482Y-2894762D01*
X4559815Y-2818571D02*
X4626482Y-2818571D01*
X4569339Y-2818571D02*
X4564577Y-2813809D01*
X4564577Y-2813809D02*
X4559815Y-2804286D01*
X4559815Y-2804286D02*
X4559815Y-2790000D01*
X4559815Y-2790000D02*
X4564577Y-2780476D01*
X4564577Y-2780476D02*
X4574101Y-2775714D01*
X4574101Y-2775714D02*
X4626482Y-2775714D01*
D13*
X4473977Y-2956071D02*
X4475167Y-2957262D01*
X4475167Y-2957262D02*
X4476357Y-2960833D01*
X4476357Y-2960833D02*
X4476357Y-2963214D01*
X4476357Y-2963214D02*
X4475167Y-2966786D01*
X4475167Y-2966786D02*
X4472786Y-2969167D01*
X4472786Y-2969167D02*
X4470405Y-2970357D01*
X4470405Y-2970357D02*
X4465643Y-2971547D01*
X4465643Y-2971547D02*
X4462072Y-2971547D01*
X4462072Y-2971547D02*
X4457310Y-2970357D01*
X4457310Y-2970357D02*
X4454929Y-2969167D01*
X4454929Y-2969167D02*
X4452548Y-2966786D01*
X4452548Y-2966786D02*
X4451357Y-2963214D01*
X4451357Y-2963214D02*
X4451357Y-2960833D01*
X4451357Y-2960833D02*
X4452548Y-2957262D01*
X4452548Y-2957262D02*
X4453738Y-2956071D01*
X4453738Y-2946547D02*
X4452548Y-2945357D01*
X4452548Y-2945357D02*
X4451357Y-2942976D01*
X4451357Y-2942976D02*
X4451357Y-2937024D01*
X4451357Y-2937024D02*
X4452548Y-2934643D01*
X4452548Y-2934643D02*
X4453738Y-2933452D01*
X4453738Y-2933452D02*
X4456119Y-2932262D01*
X4456119Y-2932262D02*
X4458500Y-2932262D01*
X4458500Y-2932262D02*
X4462072Y-2933452D01*
X4462072Y-2933452D02*
X4476357Y-2947738D01*
X4476357Y-2947738D02*
X4476357Y-2932262D01*
X4451357Y-2923928D02*
X4451357Y-2908452D01*
X4451357Y-2908452D02*
X4460881Y-2916786D01*
X4460881Y-2916786D02*
X4460881Y-2913214D01*
X4460881Y-2913214D02*
X4462072Y-2910833D01*
X4462072Y-2910833D02*
X4463262Y-2909643D01*
X4463262Y-2909643D02*
X4465643Y-2908452D01*
X4465643Y-2908452D02*
X4471596Y-2908452D01*
X4471596Y-2908452D02*
X4473977Y-2909643D01*
X4473977Y-2909643D02*
X4475167Y-2910833D01*
X4475167Y-2910833D02*
X4476357Y-2913214D01*
X4476357Y-2913214D02*
X4476357Y-2920357D01*
X4476357Y-2920357D02*
X4475167Y-2922738D01*
X4475167Y-2922738D02*
X4473977Y-2923928D01*
D11*
X4982482Y-4948095D02*
X4982482Y-4995714D01*
X4982482Y-4995714D02*
X5030101Y-5000476D01*
X5030101Y-5000476D02*
X5025339Y-4995714D01*
X5025339Y-4995714D02*
X5020577Y-4986190D01*
X5020577Y-4986190D02*
X5020577Y-4962381D01*
X5020577Y-4962381D02*
X5025339Y-4952857D01*
X5025339Y-4952857D02*
X5030101Y-4948095D01*
X5030101Y-4948095D02*
X5039625Y-4943333D01*
X5039625Y-4943333D02*
X5063434Y-4943333D01*
X5063434Y-4943333D02*
X5072958Y-4948095D01*
X5072958Y-4948095D02*
X5077720Y-4952857D01*
X5077720Y-4952857D02*
X5082482Y-4962381D01*
X5082482Y-4962381D02*
X5082482Y-4986190D01*
X5082482Y-4986190D02*
X5077720Y-4995714D01*
X5077720Y-4995714D02*
X5072958Y-5000476D01*
X5072958Y-4900476D02*
X5077720Y-4895714D01*
X5077720Y-4895714D02*
X5082482Y-4900476D01*
X5082482Y-4900476D02*
X5077720Y-4905238D01*
X5077720Y-4905238D02*
X5072958Y-4900476D01*
X5072958Y-4900476D02*
X5082482Y-4900476D01*
X5082482Y-4800476D02*
X5082482Y-4857619D01*
X5082482Y-4829048D02*
X4982482Y-4829048D01*
X4982482Y-4829048D02*
X4996768Y-4838571D01*
X4996768Y-4838571D02*
X5006291Y-4848095D01*
X5006291Y-4848095D02*
X5011053Y-4857619D01*
X5082482Y-4757619D02*
X4982482Y-4757619D01*
X5044387Y-4748095D02*
X5082482Y-4719524D01*
X5015815Y-4719524D02*
X5053910Y-4757619D01*
D12*
X5198193Y-4885714D02*
X5179145Y-4899048D01*
X5198193Y-4908571D02*
X5158193Y-4908571D01*
X5158193Y-4908571D02*
X5158193Y-4893333D01*
X5158193Y-4893333D02*
X5160098Y-4889524D01*
X5160098Y-4889524D02*
X5162002Y-4887619D01*
X5162002Y-4887619D02*
X5165812Y-4885714D01*
X5165812Y-4885714D02*
X5171526Y-4885714D01*
X5171526Y-4885714D02*
X5175336Y-4887619D01*
X5175336Y-4887619D02*
X5177240Y-4889524D01*
X5177240Y-4889524D02*
X5179145Y-4893333D01*
X5179145Y-4893333D02*
X5179145Y-4908571D01*
X5198193Y-4847619D02*
X5198193Y-4870476D01*
X5198193Y-4859048D02*
X5158193Y-4859048D01*
X5158193Y-4859048D02*
X5163907Y-4862857D01*
X5163907Y-4862857D02*
X5167717Y-4866667D01*
X5167717Y-4866667D02*
X5169621Y-4870476D01*
X5198193Y-4809524D02*
X5198193Y-4832381D01*
X5198193Y-4820952D02*
X5158193Y-4820952D01*
X5158193Y-4820952D02*
X5163907Y-4824762D01*
X5163907Y-4824762D02*
X5167717Y-4828571D01*
X5167717Y-4828571D02*
X5169621Y-4832381D01*
D11*
X5888809Y-2799887D02*
X5893571Y-2795125D01*
X5893571Y-2795125D02*
X5903095Y-2790363D01*
X5903095Y-2790363D02*
X5922143Y-2799887D01*
X5922143Y-2799887D02*
X5931667Y-2795125D01*
X5931667Y-2795125D02*
X5936428Y-2790363D01*
X5838809Y-2887982D02*
X5838809Y-2968934D01*
X5838809Y-2968934D02*
X5843571Y-2978458D01*
X5843571Y-2978458D02*
X5848333Y-2983220D01*
X5848333Y-2983220D02*
X5857857Y-2987982D01*
X5857857Y-2987982D02*
X5876905Y-2987982D01*
X5876905Y-2987982D02*
X5886428Y-2983220D01*
X5886428Y-2983220D02*
X5891190Y-2978458D01*
X5891190Y-2978458D02*
X5895952Y-2968934D01*
X5895952Y-2968934D02*
X5895952Y-2887982D01*
X5986428Y-2887982D02*
X5967381Y-2887982D01*
X5967381Y-2887982D02*
X5957857Y-2892744D01*
X5957857Y-2892744D02*
X5953095Y-2897506D01*
X5953095Y-2897506D02*
X5943571Y-2911791D01*
X5943571Y-2911791D02*
X5938809Y-2930839D01*
X5938809Y-2930839D02*
X5938809Y-2968934D01*
X5938809Y-2968934D02*
X5943571Y-2978458D01*
X5943571Y-2978458D02*
X5948333Y-2983220D01*
X5948333Y-2983220D02*
X5957857Y-2987982D01*
X5957857Y-2987982D02*
X5976905Y-2987982D01*
X5976905Y-2987982D02*
X5986428Y-2983220D01*
X5986428Y-2983220D02*
X5991190Y-2978458D01*
X5991190Y-2978458D02*
X5995952Y-2968934D01*
X5995952Y-2968934D02*
X5995952Y-2945125D01*
X5995952Y-2945125D02*
X5991190Y-2935601D01*
X5991190Y-2935601D02*
X5986428Y-2930839D01*
X5986428Y-2930839D02*
X5976905Y-2926077D01*
X5976905Y-2926077D02*
X5957857Y-2926077D01*
X5957857Y-2926077D02*
X5948333Y-2930839D01*
X5948333Y-2930839D02*
X5943571Y-2935601D01*
X5943571Y-2935601D02*
X5938809Y-2945125D01*
X3110714Y-2739482D02*
X3053571Y-2739482D01*
X3082143Y-2739482D02*
X3082143Y-2639482D01*
X3082143Y-2639482D02*
X3072619Y-2653768D01*
X3072619Y-2653768D02*
X3063095Y-2663291D01*
X3063095Y-2663291D02*
X3053571Y-2668053D01*
X3148809Y-2649006D02*
X3153571Y-2644244D01*
X3153571Y-2644244D02*
X3163095Y-2639482D01*
X3163095Y-2639482D02*
X3186905Y-2639482D01*
X3186905Y-2639482D02*
X3196428Y-2644244D01*
X3196428Y-2644244D02*
X3201190Y-2649006D01*
X3201190Y-2649006D02*
X3205952Y-2658530D01*
X3205952Y-2658530D02*
X3205952Y-2668053D01*
X3205952Y-2668053D02*
X3201190Y-2682339D01*
X3201190Y-2682339D02*
X3144048Y-2739482D01*
X3144048Y-2739482D02*
X3205952Y-2739482D01*
X3248809Y-2672815D02*
X3248809Y-2772815D01*
X3248809Y-2677577D02*
X3258333Y-2672815D01*
X3258333Y-2672815D02*
X3277381Y-2672815D01*
X3277381Y-2672815D02*
X3286905Y-2677577D01*
X3286905Y-2677577D02*
X3291667Y-2682339D01*
X3291667Y-2682339D02*
X3296428Y-2691863D01*
X3296428Y-2691863D02*
X3296428Y-2720434D01*
X3296428Y-2720434D02*
X3291667Y-2729958D01*
X3291667Y-2729958D02*
X3286905Y-2734720D01*
X3286905Y-2734720D02*
X3277381Y-2739482D01*
X3277381Y-2739482D02*
X3258333Y-2739482D01*
X3258333Y-2739482D02*
X3248809Y-2734720D01*
D13*
X3158928Y-2818976D02*
X3157738Y-2820167D01*
X3157738Y-2820167D02*
X3154167Y-2821357D01*
X3154167Y-2821357D02*
X3151786Y-2821357D01*
X3151786Y-2821357D02*
X3148214Y-2820167D01*
X3148214Y-2820167D02*
X3145833Y-2817786D01*
X3145833Y-2817786D02*
X3144643Y-2815405D01*
X3144643Y-2815405D02*
X3143452Y-2810643D01*
X3143452Y-2810643D02*
X3143452Y-2807072D01*
X3143452Y-2807072D02*
X3144643Y-2802310D01*
X3144643Y-2802310D02*
X3145833Y-2799929D01*
X3145833Y-2799929D02*
X3148214Y-2797548D01*
X3148214Y-2797548D02*
X3151786Y-2796357D01*
X3151786Y-2796357D02*
X3154167Y-2796357D01*
X3154167Y-2796357D02*
X3157738Y-2797548D01*
X3157738Y-2797548D02*
X3158928Y-2798738D01*
X3168452Y-2798738D02*
X3169643Y-2797548D01*
X3169643Y-2797548D02*
X3172024Y-2796357D01*
X3172024Y-2796357D02*
X3177976Y-2796357D01*
X3177976Y-2796357D02*
X3180357Y-2797548D01*
X3180357Y-2797548D02*
X3181548Y-2798738D01*
X3181548Y-2798738D02*
X3182738Y-2801119D01*
X3182738Y-2801119D02*
X3182738Y-2803500D01*
X3182738Y-2803500D02*
X3181548Y-2807072D01*
X3181548Y-2807072D02*
X3167262Y-2821357D01*
X3167262Y-2821357D02*
X3182738Y-2821357D01*
X3191071Y-2796357D02*
X3207738Y-2796357D01*
X3207738Y-2796357D02*
X3197024Y-2821357D01*
D11*
X2640720Y-6114762D02*
X2645482Y-6100476D01*
X2645482Y-6100476D02*
X2645482Y-6076667D01*
X2645482Y-6076667D02*
X2640720Y-6067143D01*
X2640720Y-6067143D02*
X2635958Y-6062381D01*
X2635958Y-6062381D02*
X2626434Y-6057619D01*
X2626434Y-6057619D02*
X2616910Y-6057619D01*
X2616910Y-6057619D02*
X2607387Y-6062381D01*
X2607387Y-6062381D02*
X2602625Y-6067143D01*
X2602625Y-6067143D02*
X2597863Y-6076667D01*
X2597863Y-6076667D02*
X2593101Y-6095714D01*
X2593101Y-6095714D02*
X2588339Y-6105238D01*
X2588339Y-6105238D02*
X2583577Y-6110000D01*
X2583577Y-6110000D02*
X2574053Y-6114762D01*
X2574053Y-6114762D02*
X2564530Y-6114762D01*
X2564530Y-6114762D02*
X2555006Y-6110000D01*
X2555006Y-6110000D02*
X2550244Y-6105238D01*
X2550244Y-6105238D02*
X2545482Y-6095714D01*
X2545482Y-6095714D02*
X2545482Y-6071905D01*
X2545482Y-6071905D02*
X2550244Y-6057619D01*
X2645482Y-6014762D02*
X2545482Y-6014762D01*
X2545482Y-6014762D02*
X2616910Y-5981428D01*
X2616910Y-5981428D02*
X2545482Y-5948095D01*
X2545482Y-5948095D02*
X2645482Y-5948095D01*
X2593101Y-5867143D02*
X2597863Y-5852857D01*
X2597863Y-5852857D02*
X2602625Y-5848095D01*
X2602625Y-5848095D02*
X2612149Y-5843333D01*
X2612149Y-5843333D02*
X2626434Y-5843333D01*
X2626434Y-5843333D02*
X2635958Y-5848095D01*
X2635958Y-5848095D02*
X2640720Y-5852857D01*
X2640720Y-5852857D02*
X2645482Y-5862381D01*
X2645482Y-5862381D02*
X2645482Y-5900476D01*
X2645482Y-5900476D02*
X2545482Y-5900476D01*
X2545482Y-5900476D02*
X2545482Y-5867143D01*
X2545482Y-5867143D02*
X2550244Y-5857619D01*
X2550244Y-5857619D02*
X2555006Y-5852857D01*
X2555006Y-5852857D02*
X2564530Y-5848095D01*
X2564530Y-5848095D02*
X2574053Y-5848095D01*
X2574053Y-5848095D02*
X2583577Y-5852857D01*
X2583577Y-5852857D02*
X2588339Y-5857619D01*
X2588339Y-5857619D02*
X2593101Y-5867143D01*
X2593101Y-5867143D02*
X2593101Y-5900476D01*
X2545482Y-5771905D02*
X2616910Y-5771905D01*
X2616910Y-5771905D02*
X2631196Y-5776667D01*
X2631196Y-5776667D02*
X2640720Y-5786190D01*
X2640720Y-5786190D02*
X2645482Y-5800476D01*
X2645482Y-5800476D02*
X2645482Y-5810000D01*
X2645482Y-5724286D02*
X2545482Y-5724286D01*
X2545482Y-5724286D02*
X2545482Y-5686190D01*
X2545482Y-5686190D02*
X2550244Y-5676667D01*
X2550244Y-5676667D02*
X2555006Y-5671905D01*
X2555006Y-5671905D02*
X2564530Y-5667143D01*
X2564530Y-5667143D02*
X2578815Y-5667143D01*
X2578815Y-5667143D02*
X2588339Y-5671905D01*
X2588339Y-5671905D02*
X2593101Y-5676667D01*
X2593101Y-5676667D02*
X2597863Y-5686190D01*
X2597863Y-5686190D02*
X2597863Y-5724286D01*
X2545482Y-5581429D02*
X2545482Y-5600476D01*
X2545482Y-5600476D02*
X2550244Y-5610000D01*
X2550244Y-5610000D02*
X2555006Y-5614762D01*
X2555006Y-5614762D02*
X2569291Y-5624286D01*
X2569291Y-5624286D02*
X2588339Y-5629047D01*
X2588339Y-5629047D02*
X2626434Y-5629047D01*
X2626434Y-5629047D02*
X2635958Y-5624286D01*
X2635958Y-5624286D02*
X2640720Y-5619524D01*
X2640720Y-5619524D02*
X2645482Y-5610000D01*
X2645482Y-5610000D02*
X2645482Y-5590952D01*
X2645482Y-5590952D02*
X2640720Y-5581429D01*
X2640720Y-5581429D02*
X2635958Y-5576667D01*
X2635958Y-5576667D02*
X2626434Y-5571905D01*
X2626434Y-5571905D02*
X2602625Y-5571905D01*
X2602625Y-5571905D02*
X2593101Y-5576667D01*
X2593101Y-5576667D02*
X2588339Y-5581429D01*
X2588339Y-5581429D02*
X2583577Y-5590952D01*
X2583577Y-5590952D02*
X2583577Y-5610000D01*
X2583577Y-5610000D02*
X2588339Y-5619524D01*
X2588339Y-5619524D02*
X2593101Y-5624286D01*
X2593101Y-5624286D02*
X2602625Y-5629047D01*
X2645482Y-5529048D02*
X2545482Y-5529048D01*
X2645482Y-5471905D02*
X2588339Y-5514762D01*
X2545482Y-5471905D02*
X2602625Y-5529048D01*
X2593101Y-5429048D02*
X2593101Y-5395714D01*
X2645482Y-5381429D02*
X2645482Y-5429048D01*
X2645482Y-5429048D02*
X2545482Y-5429048D01*
X2545482Y-5429048D02*
X2545482Y-5381429D01*
X2555006Y-5343333D02*
X2550244Y-5338571D01*
X2550244Y-5338571D02*
X2545482Y-5329048D01*
X2545482Y-5329048D02*
X2545482Y-5305238D01*
X2545482Y-5305238D02*
X2550244Y-5295714D01*
X2550244Y-5295714D02*
X2555006Y-5290952D01*
X2555006Y-5290952D02*
X2564530Y-5286190D01*
X2564530Y-5286190D02*
X2574053Y-5286190D01*
X2574053Y-5286190D02*
X2588339Y-5290952D01*
X2588339Y-5290952D02*
X2645482Y-5348095D01*
X2645482Y-5348095D02*
X2645482Y-5286190D01*
X2555006Y-5248095D02*
X2550244Y-5243333D01*
X2550244Y-5243333D02*
X2545482Y-5233809D01*
X2545482Y-5233809D02*
X2545482Y-5210000D01*
X2545482Y-5210000D02*
X2550244Y-5200476D01*
X2550244Y-5200476D02*
X2555006Y-5195714D01*
X2555006Y-5195714D02*
X2564530Y-5190952D01*
X2564530Y-5190952D02*
X2574053Y-5190952D01*
X2574053Y-5190952D02*
X2588339Y-5195714D01*
X2588339Y-5195714D02*
X2645482Y-5252857D01*
X2645482Y-5252857D02*
X2645482Y-5190952D01*
X2616910Y-5152857D02*
X2616910Y-5105238D01*
X2645482Y-5162381D02*
X2545482Y-5129048D01*
X2545482Y-5129048D02*
X2645482Y-5095714D01*
X2607387Y-5062381D02*
X2607387Y-4986190D01*
X2545482Y-4952857D02*
X2545482Y-4895714D01*
X2645482Y-4924286D02*
X2545482Y-4924286D01*
X2645482Y-4862381D02*
X2545482Y-4862381D01*
X2545482Y-4862381D02*
X2545482Y-4824286D01*
X2545482Y-4824286D02*
X2550244Y-4814762D01*
X2550244Y-4814762D02*
X2555006Y-4810000D01*
X2555006Y-4810000D02*
X2564530Y-4805238D01*
X2564530Y-4805238D02*
X2578815Y-4805238D01*
X2578815Y-4805238D02*
X2588339Y-4810000D01*
X2588339Y-4810000D02*
X2593101Y-4814762D01*
X2593101Y-4814762D02*
X2597863Y-4824286D01*
X2597863Y-4824286D02*
X2597863Y-4862381D01*
X2035482Y-5533809D02*
X1935482Y-5533809D01*
X1935482Y-5533809D02*
X1935482Y-5510000D01*
X1935482Y-5510000D02*
X1940244Y-5495714D01*
X1940244Y-5495714D02*
X1949768Y-5486190D01*
X1949768Y-5486190D02*
X1959291Y-5481429D01*
X1959291Y-5481429D02*
X1978339Y-5476667D01*
X1978339Y-5476667D02*
X1992625Y-5476667D01*
X1992625Y-5476667D02*
X2011672Y-5481429D01*
X2011672Y-5481429D02*
X2021196Y-5486190D01*
X2021196Y-5486190D02*
X2030720Y-5495714D01*
X2030720Y-5495714D02*
X2035482Y-5510000D01*
X2035482Y-5510000D02*
X2035482Y-5533809D01*
X2035482Y-5429048D02*
X2035482Y-5410000D01*
X2035482Y-5410000D02*
X2030720Y-5400476D01*
X2030720Y-5400476D02*
X2025958Y-5395714D01*
X2025958Y-5395714D02*
X2011672Y-5386190D01*
X2011672Y-5386190D02*
X1992625Y-5381429D01*
X1992625Y-5381429D02*
X1954529Y-5381429D01*
X1954529Y-5381429D02*
X1945006Y-5386190D01*
X1945006Y-5386190D02*
X1940244Y-5390952D01*
X1940244Y-5390952D02*
X1935482Y-5400476D01*
X1935482Y-5400476D02*
X1935482Y-5419524D01*
X1935482Y-5419524D02*
X1940244Y-5429048D01*
X1940244Y-5429048D02*
X1945006Y-5433809D01*
X1945006Y-5433809D02*
X1954529Y-5438571D01*
X1954529Y-5438571D02*
X1978339Y-5438571D01*
X1978339Y-5438571D02*
X1987863Y-5433809D01*
X1987863Y-5433809D02*
X1992625Y-5429048D01*
X1992625Y-5429048D02*
X1997387Y-5419524D01*
X1997387Y-5419524D02*
X1997387Y-5400476D01*
X1997387Y-5400476D02*
X1992625Y-5390952D01*
X1992625Y-5390952D02*
X1987863Y-5386190D01*
X1987863Y-5386190D02*
X1978339Y-5381429D01*
X3115214Y-3496482D02*
X3058071Y-3496482D01*
X3086643Y-3496482D02*
X3086643Y-3396482D01*
X3086643Y-3396482D02*
X3077119Y-3410768D01*
X3077119Y-3410768D02*
X3067595Y-3420291D01*
X3067595Y-3420291D02*
X3058071Y-3425053D01*
X3153309Y-3406006D02*
X3158071Y-3401244D01*
X3158071Y-3401244D02*
X3167595Y-3396482D01*
X3167595Y-3396482D02*
X3191405Y-3396482D01*
X3191405Y-3396482D02*
X3200928Y-3401244D01*
X3200928Y-3401244D02*
X3205690Y-3406006D01*
X3205690Y-3406006D02*
X3210452Y-3415529D01*
X3210452Y-3415529D02*
X3210452Y-3425053D01*
X3210452Y-3425053D02*
X3205690Y-3439339D01*
X3205690Y-3439339D02*
X3148548Y-3496482D01*
X3148548Y-3496482D02*
X3210452Y-3496482D01*
X3253309Y-3429815D02*
X3253309Y-3529815D01*
X3253309Y-3434577D02*
X3262833Y-3429815D01*
X3262833Y-3429815D02*
X3281881Y-3429815D01*
X3281881Y-3429815D02*
X3291405Y-3434577D01*
X3291405Y-3434577D02*
X3296167Y-3439339D01*
X3296167Y-3439339D02*
X3300928Y-3448863D01*
X3300928Y-3448863D02*
X3300928Y-3477434D01*
X3300928Y-3477434D02*
X3296167Y-3486958D01*
X3296167Y-3486958D02*
X3291405Y-3491720D01*
X3291405Y-3491720D02*
X3281881Y-3496482D01*
X3281881Y-3496482D02*
X3262833Y-3496482D01*
X3262833Y-3496482D02*
X3253309Y-3491720D01*
D13*
X3163428Y-3343976D02*
X3162238Y-3345167D01*
X3162238Y-3345167D02*
X3158667Y-3346357D01*
X3158667Y-3346357D02*
X3156286Y-3346357D01*
X3156286Y-3346357D02*
X3152714Y-3345167D01*
X3152714Y-3345167D02*
X3150333Y-3342786D01*
X3150333Y-3342786D02*
X3149143Y-3340405D01*
X3149143Y-3340405D02*
X3147952Y-3335643D01*
X3147952Y-3335643D02*
X3147952Y-3332072D01*
X3147952Y-3332072D02*
X3149143Y-3327310D01*
X3149143Y-3327310D02*
X3150333Y-3324929D01*
X3150333Y-3324929D02*
X3152714Y-3322548D01*
X3152714Y-3322548D02*
X3156286Y-3321357D01*
X3156286Y-3321357D02*
X3158667Y-3321357D01*
X3158667Y-3321357D02*
X3162238Y-3322548D01*
X3162238Y-3322548D02*
X3163428Y-3323738D01*
X3172952Y-3323738D02*
X3174143Y-3322548D01*
X3174143Y-3322548D02*
X3176524Y-3321357D01*
X3176524Y-3321357D02*
X3182476Y-3321357D01*
X3182476Y-3321357D02*
X3184857Y-3322548D01*
X3184857Y-3322548D02*
X3186048Y-3323738D01*
X3186048Y-3323738D02*
X3187238Y-3326119D01*
X3187238Y-3326119D02*
X3187238Y-3328500D01*
X3187238Y-3328500D02*
X3186048Y-3332072D01*
X3186048Y-3332072D02*
X3171762Y-3346357D01*
X3171762Y-3346357D02*
X3187238Y-3346357D01*
X3208667Y-3321357D02*
X3203905Y-3321357D01*
X3203905Y-3321357D02*
X3201524Y-3322548D01*
X3201524Y-3322548D02*
X3200333Y-3323738D01*
X3200333Y-3323738D02*
X3197952Y-3327310D01*
X3197952Y-3327310D02*
X3196762Y-3332072D01*
X3196762Y-3332072D02*
X3196762Y-3341595D01*
X3196762Y-3341595D02*
X3197952Y-3343976D01*
X3197952Y-3343976D02*
X3199143Y-3345167D01*
X3199143Y-3345167D02*
X3201524Y-3346357D01*
X3201524Y-3346357D02*
X3206286Y-3346357D01*
X3206286Y-3346357D02*
X3208667Y-3345167D01*
X3208667Y-3345167D02*
X3209857Y-3343976D01*
X3209857Y-3343976D02*
X3211048Y-3341595D01*
X3211048Y-3341595D02*
X3211048Y-3335643D01*
X3211048Y-3335643D02*
X3209857Y-3333262D01*
X3209857Y-3333262D02*
X3208667Y-3332072D01*
X3208667Y-3332072D02*
X3206286Y-3330881D01*
X3206286Y-3330881D02*
X3201524Y-3330881D01*
X3201524Y-3330881D02*
X3199143Y-3332072D01*
X3199143Y-3332072D02*
X3197952Y-3333262D01*
X3197952Y-3333262D02*
X3196762Y-3335643D01*
D14*
%TO.C,C16*%
X2380000Y-4005000D02*
X2380000Y-4335000D01*
X2380000Y-4335000D02*
X2545000Y-4500000D01*
X2545000Y-3840000D02*
X2380000Y-4005000D01*
X2545000Y-4500000D02*
X3040000Y-4500000D01*
X3040000Y-3840000D02*
X2545000Y-3840000D01*
X3040000Y-4500000D02*
X3040000Y-3840000D01*
%TO.C,D5*%
X2925000Y-2260000D02*
X2925000Y-2420000D01*
X2925000Y-2420000D02*
X3005000Y-2420000D01*
X2975000Y-2260000D02*
X2925000Y-2260000D01*
X3005000Y-2290000D02*
X2975000Y-2260000D01*
X3005000Y-2420000D02*
X3005000Y-2290000D01*
%TO.C,D6*%
X3120000Y-2255000D02*
X3120000Y-2415000D01*
X3120000Y-2415000D02*
X3200000Y-2415000D01*
X3170000Y-2255000D02*
X3120000Y-2255000D01*
X3200000Y-2285000D02*
X3170000Y-2255000D01*
X3200000Y-2415000D02*
X3200000Y-2285000D01*
%TO.C,C9*%
X4040000Y-4790000D02*
X4120000Y-4790000D01*
X4040000Y-4950000D02*
X4040000Y-4790000D01*
X4120000Y-4790000D02*
X4120000Y-4950000D01*
X4120000Y-4950000D02*
X4040000Y-4950000D01*
%TO.C,R_FBB1*%
X2800000Y-3483750D02*
X2960000Y-3483750D01*
X2800000Y-3566250D02*
X2800000Y-3483750D01*
X2960000Y-3483750D02*
X2960000Y-3566250D01*
X2960000Y-3566250D02*
X2800000Y-3566250D01*
%TO.C,C8*%
X3750000Y-4005000D02*
X3750000Y-4335000D01*
X3750000Y-4335000D02*
X3915000Y-4500000D01*
X3915000Y-3840000D02*
X3750000Y-4005000D01*
X3915000Y-4500000D02*
X4410000Y-4500000D01*
X4410000Y-3840000D02*
X3915000Y-3840000D01*
X4410000Y-4500000D02*
X4410000Y-3840000D01*
%TO.C,R4*%
X5495750Y-4780000D02*
X5578250Y-4780000D01*
X5495750Y-4940000D02*
X5495750Y-4780000D01*
X5578250Y-4780000D02*
X5578250Y-4940000D01*
X5578250Y-4940000D02*
X5495750Y-4940000D01*
%TO.C,C17*%
X2670000Y-4820000D02*
X2750000Y-4820000D01*
X2670000Y-4980000D02*
X2670000Y-4820000D01*
X2750000Y-4820000D02*
X2750000Y-4980000D01*
X2750000Y-4980000D02*
X2670000Y-4980000D01*
%TO.C,U1*%
X3635000Y-2962000D02*
X3735000Y-2862000D01*
X3635000Y-3562000D02*
X3635000Y-2962000D01*
X3735000Y-2862000D02*
X4335000Y-2862000D01*
X4335000Y-2862000D02*
X4335000Y-3562000D01*
X4335000Y-3562000D02*
X3635000Y-3562000D01*
%TO.C,C1*%
X5320000Y-4780000D02*
X5400000Y-4780000D01*
X5320000Y-4940000D02*
X5320000Y-4780000D01*
X5400000Y-4780000D02*
X5400000Y-4940000D01*
X5400000Y-4940000D02*
X5320000Y-4940000D01*
%TO.C,R20*%
X2838750Y-4820000D02*
X2921250Y-4820000D01*
X2838750Y-4980000D02*
X2838750Y-4820000D01*
X2921250Y-4820000D02*
X2921250Y-4980000D01*
X2921250Y-4980000D02*
X2838750Y-4980000D01*
%TO.C,C12*%
X1961000Y-3087500D02*
X2041000Y-3087500D01*
X1961000Y-3247500D02*
X1961000Y-3087500D01*
X2041000Y-3087500D02*
X2041000Y-3247500D01*
X2041000Y-3247500D02*
X1961000Y-3247500D01*
%TO.C,R1*%
X5282000Y-5100000D02*
X5912000Y-5100000D01*
X5282000Y-5420000D02*
X5282000Y-5100000D01*
X5912000Y-5100000D02*
X5912000Y-5420000D01*
X5912000Y-5420000D02*
X5282000Y-5420000D01*
%TO.C,U5*%
X3015000Y-4778500D02*
X3305000Y-4778500D01*
X3015000Y-4898500D02*
X3015000Y-4778500D01*
X3055000Y-4938500D02*
X3015000Y-4898500D01*
X3305000Y-4778500D02*
X3305000Y-4938500D01*
X3305000Y-4938500D02*
X3055000Y-4938500D01*
%TO.C,U4*%
X4395000Y-4760000D02*
X4685000Y-4760000D01*
X4395000Y-4880000D02*
X4395000Y-4760000D01*
X4435000Y-4920000D02*
X4395000Y-4880000D01*
X4685000Y-4760000D02*
X4685000Y-4920000D01*
X4685000Y-4920000D02*
X4435000Y-4920000D01*
%TO.C,J_3V3*%
X2123750Y-3400000D02*
X2206250Y-3400000D01*
X2123750Y-3560000D02*
X2123750Y-3400000D01*
X2206250Y-3400000D02*
X2206250Y-3560000D01*
X2206250Y-3560000D02*
X2123750Y-3560000D01*
%TO.C,R19*%
X2635000Y-5120000D02*
X3265000Y-5120000D01*
X2635000Y-5440000D02*
X2635000Y-5120000D01*
X3265000Y-5120000D02*
X3265000Y-5440000D01*
X3265000Y-5440000D02*
X2635000Y-5440000D01*
%TO.C,R16*%
X3678750Y-4790000D02*
X3761250Y-4790000D01*
X3678750Y-4950000D02*
X3678750Y-4790000D01*
X3761250Y-4790000D02*
X3761250Y-4950000D01*
X3761250Y-4950000D02*
X3678750Y-4950000D01*
%TO.C,U3*%
X5665000Y-4752500D02*
X5955000Y-4752500D01*
X5665000Y-4872500D02*
X5665000Y-4752500D01*
X5705000Y-4912500D02*
X5665000Y-4872500D01*
X5955000Y-4752500D02*
X5955000Y-4912500D01*
X5955000Y-4912500D02*
X5705000Y-4912500D01*
%TO.C,R13*%
X4015000Y-5100000D02*
X4645000Y-5100000D01*
X4015000Y-5420000D02*
X4015000Y-5100000D01*
X4645000Y-5100000D02*
X4645000Y-5420000D01*
X4645000Y-5420000D02*
X4015000Y-5420000D01*
%TO.C,U2*%
X4981000Y-2914000D02*
X5141000Y-2914000D01*
X4981000Y-3204000D02*
X4981000Y-2914000D01*
X5101000Y-3204000D02*
X4981000Y-3204000D01*
X5141000Y-2914000D02*
X5141000Y-3164000D01*
X5141000Y-3164000D02*
X5101000Y-3204000D01*
%TO.C,D7*%
X4770000Y-5230000D02*
X4770000Y-5690000D01*
X4770000Y-5230000D02*
X5170000Y-5230000D01*
X4890092Y-5524944D02*
X5050112Y-5524944D01*
X4970102Y-5409882D02*
X4970102Y-5310060D01*
X4970102Y-5524944D02*
X4890092Y-5409882D01*
X4970102Y-5524944D02*
X4970102Y-5615114D01*
X4970102Y-5524944D02*
X5045032Y-5409882D01*
X5045032Y-5409882D02*
X4890092Y-5409882D01*
X5170000Y-5230000D02*
X5170000Y-5690000D01*
X5170000Y-5690000D02*
X4770000Y-5690000D01*
%TO.C,R28*%
X4930000Y-3618750D02*
X5090000Y-3618750D01*
X4930000Y-3701250D02*
X4930000Y-3618750D01*
X5090000Y-3618750D02*
X5090000Y-3701250D01*
X5090000Y-3701250D02*
X4930000Y-3701250D01*
%TO.C,R22*%
X2298750Y-4820000D02*
X2381250Y-4820000D01*
X2298750Y-4980000D02*
X2298750Y-4820000D01*
X2381250Y-4820000D02*
X2381250Y-4980000D01*
X2381250Y-4980000D02*
X2298750Y-4980000D01*
%TO.C,R12*%
X4958750Y-4780000D02*
X5041250Y-4780000D01*
X4958750Y-4940000D02*
X4958750Y-4780000D01*
X5041250Y-4780000D02*
X5041250Y-4940000D01*
X5041250Y-4940000D02*
X4958750Y-4940000D01*
%TO.C,D8*%
X3480000Y-5230000D02*
X3480000Y-5690000D01*
X3480000Y-5230000D02*
X3880000Y-5230000D01*
X3600092Y-5524944D02*
X3760112Y-5524944D01*
X3680102Y-5409882D02*
X3680102Y-5310060D01*
X3680102Y-5524944D02*
X3600092Y-5409882D01*
X3680102Y-5524944D02*
X3680102Y-5615114D01*
X3680102Y-5524944D02*
X3755032Y-5409882D01*
X3755032Y-5409882D02*
X3600092Y-5409882D01*
X3880000Y-5230000D02*
X3880000Y-5690000D01*
X3880000Y-5690000D02*
X3480000Y-5690000D01*
%TO.C,R21*%
X2488750Y-4820000D02*
X2571250Y-4820000D01*
X2488750Y-4980000D02*
X2488750Y-4820000D01*
X2571250Y-4820000D02*
X2571250Y-4980000D01*
X2571250Y-4980000D02*
X2488750Y-4980000D01*
%TO.C,R15*%
X3858750Y-4790000D02*
X3941250Y-4790000D01*
X3858750Y-4950000D02*
X3858750Y-4790000D01*
X3941250Y-4790000D02*
X3941250Y-4950000D01*
X3941250Y-4950000D02*
X3858750Y-4950000D01*
%TO.C,R_FBT1*%
X2476000Y-3483750D02*
X2636000Y-3483750D01*
X2476000Y-3566250D02*
X2476000Y-3483750D01*
X2636000Y-3483750D02*
X2636000Y-3566250D01*
X2636000Y-3566250D02*
X2476000Y-3566250D01*
%TO.C,C29*%
X4930000Y-3495000D02*
X5030000Y-3495000D01*
X4930000Y-3545000D02*
X4930000Y-3495000D01*
X5030000Y-3495000D02*
X5030000Y-3545000D01*
X5030000Y-3545000D02*
X4930000Y-3545000D01*
%TO.C,J1*%
X5460500Y-2628000D02*
X5460500Y-3522000D01*
X5460500Y-3522000D02*
X6195500Y-3522000D01*
X6195500Y-2628000D02*
X5460500Y-2628000D01*
X6195500Y-3522000D02*
X6195500Y-2628000D01*
%TO.C,C11*%
X2126000Y-3087500D02*
X2206000Y-3087500D01*
X2126000Y-3247500D02*
X2126000Y-3087500D01*
X2206000Y-3087500D02*
X2206000Y-3247500D01*
X2206000Y-3247500D02*
X2126000Y-3247500D01*
%TO.C,R14*%
X4218750Y-4790000D02*
X4301250Y-4790000D01*
X4218750Y-4950000D02*
X4218750Y-4790000D01*
X4301250Y-4790000D02*
X4301250Y-4950000D01*
X4301250Y-4950000D02*
X4218750Y-4950000D01*
%TO.C,C23*%
X4440000Y-2890000D02*
X4490000Y-2890000D01*
X4440000Y-2990000D02*
X4440000Y-2890000D01*
X4490000Y-2890000D02*
X4490000Y-2990000D01*
X4490000Y-2990000D02*
X4440000Y-2990000D01*
%TO.C,R11*%
X5138750Y-4780000D02*
X5221250Y-4780000D01*
X5138750Y-4940000D02*
X5138750Y-4780000D01*
X5221250Y-4780000D02*
X5221250Y-4940000D01*
X5221250Y-4940000D02*
X5138750Y-4940000D01*
%TO.C,C27*%
X3125000Y-2785000D02*
X3225000Y-2785000D01*
X3125000Y-2835000D02*
X3125000Y-2785000D01*
X3225000Y-2785000D02*
X3225000Y-2835000D01*
X3225000Y-2835000D02*
X3125000Y-2835000D01*
%TO.C,D9*%
X2090000Y-5230000D02*
X2090000Y-5690000D01*
X2090000Y-5230000D02*
X2490000Y-5230000D01*
X2210092Y-5524944D02*
X2370112Y-5524944D01*
X2290102Y-5409882D02*
X2290102Y-5310060D01*
X2290102Y-5524944D02*
X2210092Y-5409882D01*
X2290102Y-5524944D02*
X2290102Y-5615114D01*
X2290102Y-5524944D02*
X2365032Y-5409882D01*
X2365032Y-5409882D02*
X2210092Y-5409882D01*
X2490000Y-5230000D02*
X2490000Y-5690000D01*
X2490000Y-5690000D02*
X2090000Y-5690000D01*
%TO.C,C26*%
X3129500Y-3310000D02*
X3229500Y-3310000D01*
X3129500Y-3360000D02*
X3129500Y-3310000D01*
X3229500Y-3310000D02*
X3229500Y-3360000D01*
X3229500Y-3360000D02*
X3129500Y-3360000D01*
%TD*%
M02*
