%TF.GenerationSoftware,KiCad,Pcbnew,9.0.0*%
%TF.CreationDate,2025-04-09T22:07:22+02:00*%
%TF.ProjectId,ESC,4553432e-6b69-4636-9164-5f7063625858,rev?*%
%TF.SameCoordinates,Original*%
%TF.FileFunction,Copper,L4,Bot*%
%TF.FilePolarity,Positive*%
%FSLAX45Y45*%
G04 Gerber Fmt 4.5, Leading zero omitted, Abs format (unit mm)*
G04 Created by KiCad (PCBNEW 9.0.0) date 2025-04-09 22:07:22*
%MOMM*%
%LPD*%
G01*
G04 APERTURE LIST*
G04 Aperture macros list*
%AMRoundRect*
0 Rectangle with rounded corners*
0 $1 Rounding radius*
0 $2 $3 $4 $5 $6 $7 $8 $9 X,Y pos of 4 corners*
0 Add a 4 corners polygon primitive as box body*
4,1,4,$2,$3,$4,$5,$6,$7,$8,$9,$2,$3,0*
0 Add four circle primitives for the rounded corners*
1,1,$1+$1,$2,$3*
1,1,$1+$1,$4,$5*
1,1,$1+$1,$6,$7*
1,1,$1+$1,$8,$9*
0 Add four rect primitives between the rounded corners*
20,1,$1+$1,$2,$3,$4,$5,0*
20,1,$1+$1,$4,$5,$6,$7,0*
20,1,$1+$1,$6,$7,$8,$9,0*
20,1,$1+$1,$8,$9,$2,$3,0*%
G04 Aperture macros list end*
%TA.AperFunction,ComponentPad*%
%ADD10RoundRect,0.333333X1.666667X1.666667X-1.666667X1.666667X-1.666667X-1.666667X1.666667X-1.666667X0*%
%TD*%
%TA.AperFunction,ComponentPad*%
%ADD11C,3.800000*%
%TD*%
%TA.AperFunction,ComponentPad*%
%ADD12RoundRect,0.250000X1.500000X1.250000X-1.500000X1.250000X-1.500000X-1.250000X1.500000X-1.250000X0*%
%TD*%
%TA.AperFunction,ComponentPad*%
%ADD13O,3.500000X3.000000*%
%TD*%
%TA.AperFunction,SMDPad,CuDef*%
%ADD14O,1.400000X4.000000*%
%TD*%
%TA.AperFunction,SMDPad,CuDef*%
%ADD15RoundRect,0.225000X-0.250000X0.225000X-0.250000X-0.225000X0.250000X-0.225000X0.250000X0.225000X0*%
%TD*%
%TA.AperFunction,SMDPad,CuDef*%
%ADD16R,0.500000X0.925000*%
%TD*%
%TA.AperFunction,SMDPad,CuDef*%
%ADD17R,0.600000X0.800000*%
%TD*%
%TA.AperFunction,SMDPad,CuDef*%
%ADD18R,4.410000X3.655000*%
%TD*%
%TA.AperFunction,SMDPad,CuDef*%
%ADD19RoundRect,0.200000X-0.200000X-0.275000X0.200000X-0.275000X0.200000X0.275000X-0.200000X0.275000X0*%
%TD*%
%TA.AperFunction,SMDPad,CuDef*%
%ADD20RoundRect,0.225000X0.250000X-0.225000X0.250000X0.225000X-0.250000X0.225000X-0.250000X-0.225000X0*%
%TD*%
%TA.AperFunction,SMDPad,CuDef*%
%ADD21RoundRect,0.200000X0.275000X-0.200000X0.275000X0.200000X-0.275000X0.200000X-0.275000X-0.200000X0*%
%TD*%
%TA.AperFunction,SMDPad,CuDef*%
%ADD22RoundRect,0.112500X-0.187500X-0.112500X0.187500X-0.112500X0.187500X0.112500X-0.187500X0.112500X0*%
%TD*%
%TA.AperFunction,SMDPad,CuDef*%
%ADD23RoundRect,0.140000X-0.170000X0.140000X-0.170000X-0.140000X0.170000X-0.140000X0.170000X0.140000X0*%
%TD*%
%TA.AperFunction,SMDPad,CuDef*%
%ADD24R,0.700000X1.525000*%
%TD*%
%TA.AperFunction,SMDPad,CuDef*%
%ADD25RoundRect,0.155000X0.155000X-0.212500X0.155000X0.212500X-0.155000X0.212500X-0.155000X-0.212500X0*%
%TD*%
%TA.AperFunction,SMDPad,CuDef*%
%ADD26RoundRect,0.140000X0.140000X0.170000X-0.140000X0.170000X-0.140000X-0.170000X0.140000X-0.170000X0*%
%TD*%
%TA.AperFunction,SMDPad,CuDef*%
%ADD27RoundRect,0.112500X-0.112500X0.187500X-0.112500X-0.187500X0.112500X-0.187500X0.112500X0.187500X0*%
%TD*%
%TA.AperFunction,SMDPad,CuDef*%
%ADD28RoundRect,0.225000X0.225000X0.250000X-0.225000X0.250000X-0.225000X-0.250000X0.225000X-0.250000X0*%
%TD*%
%TA.AperFunction,SMDPad,CuDef*%
%ADD29R,0.700000X0.500000*%
%TD*%
%TA.AperFunction,SMDPad,CuDef*%
%ADD30R,4.700000X4.500000*%
%TD*%
%TA.AperFunction,SMDPad,CuDef*%
%ADD31R,0.650000X1.200000*%
%TD*%
%TA.AperFunction,SMDPad,CuDef*%
%ADD32RoundRect,0.200000X0.200000X0.275000X-0.200000X0.275000X-0.200000X-0.275000X0.200000X-0.275000X0*%
%TD*%
%TA.AperFunction,SMDPad,CuDef*%
%ADD33R,0.600000X1.250000*%
%TD*%
%TA.AperFunction,ViaPad*%
%ADD34C,0.600000*%
%TD*%
%TA.AperFunction,Conductor*%
%ADD35C,0.300000*%
%TD*%
%TA.AperFunction,Conductor*%
%ADD36C,0.350000*%
%TD*%
%TA.AperFunction,Conductor*%
%ADD37C,0.200000*%
%TD*%
%TA.AperFunction,Conductor*%
%ADD38C,0.400000*%
%TD*%
%TA.AperFunction,Conductor*%
%ADD39C,1.000000*%
%TD*%
%TA.AperFunction,Conductor*%
%ADD40C,0.600000*%
%TD*%
%TA.AperFunction,Conductor*%
%ADD41C,0.250000*%
%TD*%
%TA.AperFunction,Conductor*%
%ADD42C,0.800000*%
%TD*%
%TA.AperFunction,Conductor*%
%ADD43C,0.450000*%
%TD*%
%TA.AperFunction,Conductor*%
%ADD44C,0.500000*%
%TD*%
G04 APERTURE END LIST*
D10*
%TO.P,C25,1,A*%
%TO.N,/Phase_A*%
X5140000Y-6101000D03*
%TO.P,C25,2,B*%
%TO.N,/Phase_B*%
X4140000Y-6100000D03*
%TO.P,C25,3,C*%
%TO.N,/Phase_C*%
X3140000Y-6100000D03*
%TD*%
D11*
%TO.P,H1,1*%
%TO.N,N/C*%
X2275000Y-2385000D03*
%TD*%
D12*
%TO.P,C24,1,Bat+*%
%TO.N,/V_Bat_raw*%
X4700000Y-2351000D03*
D13*
%TO.P,C24,2,Bat-*%
%TO.N,GND*%
X4300000Y-2350000D03*
D14*
%TO.P,C24,3,GND*%
X4000000Y-2350000D03*
%TO.P,C24,4,PWM*%
%TO.N,/Duty_in*%
X3800000Y-2350000D03*
%TO.P,C24,5,SCL*%
%TO.N,/I2C1_CL*%
X3600000Y-2350000D03*
%TO.P,C24,6,SDA*%
%TO.N,/I2C1_SDA*%
X3400000Y-2350000D03*
%TD*%
D15*
%TO.P,C3,1*%
%TO.N,Net-(IC3-VS)*%
X4880000Y-4402500D03*
%TO.P,C3,2*%
%TO.N,/VB_A*%
X4880000Y-4557500D03*
%TD*%
D16*
%TO.P,Q7,1,S*%
%TO.N,Net-(Q7-S)*%
X4199500Y-5218700D03*
X4326500Y-5218700D03*
X4453500Y-5218700D03*
%TO.P,Q7,2,G*%
%TO.N,/pGate_B*%
X4580500Y-5218700D03*
D17*
%TO.P,Q7,3,D*%
%TO.N,/Phase_B*%
X4199500Y-5797500D03*
X4326500Y-5797500D03*
D18*
X4390000Y-5574800D03*
D17*
X4453500Y-5797500D03*
X4580500Y-5797500D03*
%TD*%
D19*
%TO.P,R7,1*%
%TO.N,/V_Bat_Div*%
X4287500Y-3750000D03*
%TO.P,R7,2*%
%TO.N,V_Bat*%
X4452500Y-3750000D03*
%TD*%
D20*
%TO.P,C5,1*%
%TO.N,GND*%
X2821000Y-3117500D03*
%TO.P,C5,2*%
%TO.N,V_Bat*%
X2821000Y-2962500D03*
%TD*%
D21*
%TO.P,R26,1*%
%TO.N,GND*%
X3155000Y-2372500D03*
%TO.P,R26,2*%
%TO.N,Net-(D6-K)*%
X3155000Y-2207500D03*
%TD*%
D19*
%TO.P,R5,1*%
%TO.N,Net-(J1-CC1)*%
X5707500Y-3200000D03*
%TO.P,R5,2*%
%TO.N,GND*%
X5872500Y-3200000D03*
%TD*%
D15*
%TO.P,C15,1*%
%TO.N,Net-(IC4-VS)*%
X2280000Y-4412500D03*
%TO.P,C15,2*%
%TO.N,/VB_C*%
X2280000Y-4567500D03*
%TD*%
D22*
%TO.P,D2,1,K*%
%TO.N,V_Bat*%
X3055000Y-2560000D03*
%TO.P,D2,2,A*%
%TO.N,+5V_USB*%
X3265000Y-2560000D03*
%TD*%
D23*
%TO.P,C21,1*%
%TO.N,GND*%
X4330000Y-3422000D03*
%TO.P,C21,2*%
%TO.N,+3V3*%
X4330000Y-3518000D03*
%TD*%
D24*
%TO.P,IC4,1,VCC*%
%TO.N,V_Bat*%
X2469500Y-4018800D03*
%TO.P,IC4,2,HIN*%
%TO.N,/HI_C*%
X2596500Y-4018800D03*
%TO.P,IC4,3,~{LIN}*%
%TO.N,/LO_C*%
X2723500Y-4018800D03*
%TO.P,IC4,4,COM*%
%TO.N,GND*%
X2850500Y-4018800D03*
%TO.P,IC4,5,LO*%
%TO.N,Net-(IC4-LO)*%
X2850500Y-4561200D03*
%TO.P,IC4,6,VS*%
%TO.N,Net-(IC4-VS)*%
X2723500Y-4561200D03*
%TO.P,IC4,7,HO*%
%TO.N,Net-(IC4-HO)*%
X2596500Y-4561200D03*
%TO.P,IC4,8,VB*%
%TO.N,/VB_C*%
X2469500Y-4561200D03*
%TD*%
D16*
%TO.P,Q9,1,S*%
%TO.N,/Phase_A*%
X5260500Y-5741300D03*
X5133500Y-5741300D03*
X5006500Y-5741300D03*
%TO.P,Q9,2,G*%
%TO.N,/nGate_A*%
X4879500Y-5741300D03*
D17*
%TO.P,Q9,3,D*%
%TO.N,V_Bat*%
X5260500Y-5162500D03*
X5133500Y-5162500D03*
D18*
X5070000Y-5385200D03*
D17*
X5006500Y-5162500D03*
X4879500Y-5162500D03*
%TD*%
D15*
%TO.P,C10,1*%
%TO.N,/SW*%
X2254000Y-3069500D03*
%TO.P,C10,2*%
%TO.N,/CB*%
X2254000Y-3224500D03*
%TD*%
D19*
%TO.P,R9,1*%
%TO.N,Net-(IC1-HO)*%
X3847500Y-4975000D03*
%TO.P,R9,2*%
%TO.N,/nGate_B*%
X4012500Y-4975000D03*
%TD*%
D25*
%TO.P,C13,1*%
%TO.N,GND*%
X2966000Y-3086750D03*
%TO.P,C13,2*%
%TO.N,V_Bat*%
X2966000Y-2973250D03*
%TD*%
D26*
%TO.P,C20,1*%
%TO.N,GND*%
X3808000Y-2710000D03*
%TO.P,C20,2*%
%TO.N,+3V3*%
X3712000Y-2710000D03*
%TD*%
D21*
%TO.P,R25,1*%
%TO.N,GND*%
X2980000Y-2372500D03*
%TO.P,R25,2*%
%TO.N,Net-(D5-K)*%
X2980000Y-2207500D03*
%TD*%
D20*
%TO.P,C4,1*%
%TO.N,GND*%
X4900000Y-4167500D03*
%TO.P,C4,2*%
%TO.N,V_Bat*%
X4900000Y-4012500D03*
%TD*%
D27*
%TO.P,D4,1,K*%
%TO.N,/VB_C*%
X2215000Y-4725000D03*
%TO.P,D4,2,A*%
%TO.N,V_Bat*%
X2215000Y-4935000D03*
%TD*%
D15*
%TO.P,C18,1*%
%TO.N,GND*%
X3380000Y-3162500D03*
%TO.P,C18,2*%
%TO.N,+3V3*%
X3380000Y-3317500D03*
%TD*%
D19*
%TO.P,R8,1*%
%TO.N,GND*%
X3687500Y-3520000D03*
%TO.P,R8,2*%
%TO.N,/V_Bat_Div*%
X3852500Y-3520000D03*
%TD*%
D15*
%TO.P,C6,1*%
%TO.N,GND*%
X3619500Y-3862500D03*
%TO.P,C6,2*%
%TO.N,V_Bat*%
X3619500Y-4017500D03*
%TD*%
D19*
%TO.P,R18,1*%
%TO.N,Net-(IC4-LO)*%
X3007500Y-4980000D03*
%TO.P,R18,2*%
%TO.N,/pGate_C*%
X3172500Y-4980000D03*
%TD*%
D24*
%TO.P,IC3,1,VCC*%
%TO.N,V_Bat*%
X5069500Y-4018800D03*
%TO.P,IC3,2,HIN*%
%TO.N,/Hi_A*%
X5196500Y-4018800D03*
%TO.P,IC3,3,~{LIN}*%
%TO.N,/LO_A*%
X5323500Y-4018800D03*
%TO.P,IC3,4,COM*%
%TO.N,GND*%
X5450500Y-4018800D03*
%TO.P,IC3,5,LO*%
%TO.N,Net-(IC3-LO)*%
X5450500Y-4561200D03*
%TO.P,IC3,6,VS*%
%TO.N,Net-(IC3-VS)*%
X5323500Y-4561200D03*
%TO.P,IC3,7,HO*%
%TO.N,Net-(IC3-HO)*%
X5196500Y-4561200D03*
%TO.P,IC3,8,VB*%
%TO.N,/VB_A*%
X5069500Y-4561200D03*
%TD*%
D16*
%TO.P,Q6,1,S*%
%TO.N,Net-(Q6-S)*%
X5509500Y-5218700D03*
X5636500Y-5218700D03*
X5763500Y-5218700D03*
%TO.P,Q6,2,G*%
%TO.N,/pGate_A*%
X5890500Y-5218700D03*
D17*
%TO.P,Q6,3,D*%
%TO.N,/Phase_A*%
X5509500Y-5797500D03*
X5636500Y-5797500D03*
D18*
X5700000Y-5574800D03*
D17*
X5763500Y-5797500D03*
X5890500Y-5797500D03*
%TD*%
D16*
%TO.P,Q11,1,S*%
%TO.N,/Phase_C*%
X2670500Y-5741300D03*
X2543500Y-5741300D03*
X2416500Y-5741300D03*
%TO.P,Q11,2,G*%
%TO.N,/nGate_C*%
X2289500Y-5741300D03*
D17*
%TO.P,Q11,3,D*%
%TO.N,V_Bat*%
X2670500Y-5162500D03*
X2543500Y-5162500D03*
D18*
X2480000Y-5385200D03*
D17*
X2416500Y-5162500D03*
X2289500Y-5162500D03*
%TD*%
D28*
%TO.P,C22,1*%
%TO.N,GND*%
X3855000Y-2872500D03*
%TO.P,C22,2*%
%TO.N,+3V3*%
X3700000Y-2872500D03*
%TD*%
D29*
%TO.P,Q2,1,D*%
%TO.N,V_Bat*%
X4925500Y-3525000D03*
X5058500Y-3525000D03*
D30*
X5125000Y-3275000D03*
D29*
X5191500Y-3525000D03*
X5324500Y-3525000D03*
D31*
%TO.P,Q2,2,G*%
%TO.N,Net-(Q2-G)*%
X5315500Y-2925000D03*
%TO.P,Q2,3,S*%
%TO.N,/V_Bat_raw*%
X4934500Y-2925000D03*
X5061500Y-2925000D03*
X5188500Y-2925000D03*
%TD*%
D19*
%TO.P,R3,1*%
%TO.N,Net-(IC3-LO)*%
X5447500Y-4960000D03*
%TO.P,R3,2*%
%TO.N,/pGate_A*%
X5612500Y-4960000D03*
%TD*%
D23*
%TO.P,C19,1*%
%TO.N,GND*%
X3660000Y-3192000D03*
%TO.P,C19,2*%
%TO.N,+3V3*%
X3660000Y-3288000D03*
%TD*%
D32*
%TO.P,R2,1*%
%TO.N,Net-(IC3-HO)*%
X5232500Y-4965000D03*
%TO.P,R2,2*%
%TO.N,/nGate_A*%
X5067500Y-4965000D03*
%TD*%
D19*
%TO.P,R10,1*%
%TO.N,Net-(IC1-LO)*%
X4217500Y-4970000D03*
%TO.P,R10,2*%
%TO.N,/pGate_B*%
X4382500Y-4970000D03*
%TD*%
D27*
%TO.P,D1,1,K*%
%TO.N,/VB_A*%
X4785000Y-4712500D03*
%TO.P,D1,2,A*%
%TO.N,V_Bat*%
X4785000Y-4922500D03*
%TD*%
D19*
%TO.P,R6,1*%
%TO.N,Net-(J1-CC2)*%
X5707500Y-2910000D03*
%TO.P,R6,2*%
%TO.N,GND*%
X5872500Y-2910000D03*
%TD*%
D33*
%TO.P,IC2,1,GND*%
%TO.N,GND*%
X2445000Y-2970000D03*
%TO.P,IC2,2,SW*%
%TO.N,/SW*%
X2540000Y-2970000D03*
%TO.P,IC2,3,VIN*%
%TO.N,V_Bat*%
X2635000Y-2970000D03*
%TO.P,IC2,4,FB*%
%TO.N,/FB*%
X2635000Y-3220000D03*
%TO.P,IC2,5,EN*%
%TO.N,V_Bat*%
X2540000Y-3220000D03*
%TO.P,IC2,6,CB*%
%TO.N,/CB*%
X2445000Y-3220000D03*
%TD*%
D15*
%TO.P,C14,1*%
%TO.N,GND*%
X2280000Y-3865000D03*
%TO.P,C14,2*%
%TO.N,V_Bat*%
X2280000Y-4020000D03*
%TD*%
D32*
%TO.P,R27,1*%
%TO.N,GND*%
X5672500Y-3630000D03*
%TO.P,R27,2*%
%TO.N,/Boot*%
X5507500Y-3630000D03*
%TD*%
D15*
%TO.P,C7,1*%
%TO.N,Net-(IC1-VS)*%
X3620000Y-4405000D03*
%TO.P,C7,2*%
%TO.N,/VB_B*%
X3620000Y-4560000D03*
%TD*%
D32*
%TO.P,R23,1*%
%TO.N,Net-(Q2-G)*%
X5357500Y-2525000D03*
%TO.P,R23,2*%
%TO.N,/V_Bat_raw*%
X5192500Y-2525000D03*
%TD*%
D27*
%TO.P,D3,1,K*%
%TO.N,/VB_B*%
X3520000Y-4720000D03*
%TO.P,D3,2,A*%
%TO.N,V_Bat*%
X3520000Y-4930000D03*
%TD*%
D28*
%TO.P,C28,1*%
%TO.N,Net-(Q2-G)*%
X5352500Y-2700000D03*
%TO.P,C28,2*%
%TO.N,/V_Bat_raw*%
X5197500Y-2700000D03*
%TD*%
D19*
%TO.P,R17,1*%
%TO.N,Net-(IC4-HO)*%
X2527500Y-4970000D03*
%TO.P,R17,2*%
%TO.N,/nGate_C*%
X2692500Y-4970000D03*
%TD*%
D24*
%TO.P,IC1,1,VCC*%
%TO.N,V_Bat*%
X3809500Y-4018800D03*
%TO.P,IC1,2,HIN*%
%TO.N,/Hi_B*%
X3936500Y-4018800D03*
%TO.P,IC1,3,~{LIN}*%
%TO.N,/LO_B*%
X4063500Y-4018800D03*
%TO.P,IC1,4,COM*%
%TO.N,GND*%
X4190500Y-4018800D03*
%TO.P,IC1,5,LO*%
%TO.N,Net-(IC1-LO)*%
X4190500Y-4561200D03*
%TO.P,IC1,6,VS*%
%TO.N,Net-(IC1-VS)*%
X4063500Y-4561200D03*
%TO.P,IC1,7,HO*%
%TO.N,Net-(IC1-HO)*%
X3936500Y-4561200D03*
%TO.P,IC1,8,VB*%
%TO.N,/VB_B*%
X3809500Y-4561200D03*
%TD*%
D16*
%TO.P,Q8,1,S*%
%TO.N,Net-(Q8-S)*%
X2919500Y-5218700D03*
X3046500Y-5218700D03*
X3173500Y-5218700D03*
%TO.P,Q8,2,G*%
%TO.N,/pGate_C*%
X3300500Y-5218700D03*
D17*
%TO.P,Q8,3,D*%
%TO.N,/Phase_C*%
X2919500Y-5797500D03*
X3046500Y-5797500D03*
D18*
X3110000Y-5574800D03*
D17*
X3173500Y-5797500D03*
X3300500Y-5797500D03*
%TD*%
D16*
%TO.P,Q10,1,S*%
%TO.N,/Phase_B*%
X3950500Y-5741300D03*
X3823500Y-5741300D03*
X3696500Y-5741300D03*
%TO.P,Q10,2,G*%
%TO.N,/nGate_B*%
X3569500Y-5741300D03*
D17*
%TO.P,Q10,3,D*%
%TO.N,V_Bat*%
X3950500Y-5162500D03*
X3823500Y-5162500D03*
D18*
X3760000Y-5385200D03*
D17*
X3696500Y-5162500D03*
X3569500Y-5162500D03*
%TD*%
D19*
%TO.P,R24,1*%
%TO.N,GND*%
X5192500Y-2350000D03*
%TO.P,R24,2*%
%TO.N,Net-(Q2-G)*%
X5357500Y-2350000D03*
%TD*%
D34*
%TO.N,GND*%
X2675000Y-2300000D03*
X2920000Y-3385000D03*
X3805000Y-3210000D03*
X4175000Y-3370000D03*
X4325000Y-4000000D03*
X2850000Y-4375000D03*
X2050000Y-5250000D03*
X6100000Y-5400000D03*
X3415000Y-2967500D03*
X4175000Y-3030000D03*
X1995000Y-2815000D03*
X3985000Y-3212000D03*
X2405000Y-2800000D03*
X2040000Y-5640000D03*
X4175000Y-3210000D03*
X3800000Y-3020000D03*
X5687973Y-3493271D03*
X4075000Y-5575000D03*
X2310000Y-2805000D03*
X2950000Y-3700000D03*
X6100000Y-5700000D03*
X3350000Y-4025000D03*
X2975000Y-2845000D03*
X2000000Y-3445000D03*
X3425000Y-5250000D03*
X4675000Y-4050000D03*
X6050000Y-4150000D03*
X2675000Y-2475000D03*
X3800000Y-3370000D03*
X5810000Y-2110000D03*
X3195000Y-3525000D03*
X3980000Y-3025000D03*
X5610000Y-4020000D03*
X3225000Y-2705000D03*
X2840000Y-3790000D03*
X6050000Y-4700000D03*
X5420000Y-4200000D03*
X2325000Y-3505000D03*
X6100000Y-5100000D03*
X2350000Y-3380000D03*
X2830000Y-3365000D03*
X5925000Y-3175000D03*
X5930000Y-2280000D03*
X2190000Y-6120000D03*
X3375000Y-3775000D03*
X4675000Y-4150000D03*
X2230000Y-2865000D03*
X2955000Y-3230000D03*
X3985000Y-3365000D03*
X4325000Y-2700000D03*
X2230000Y-2945000D03*
X1992694Y-4832842D03*
X3997500Y-2349500D03*
X2000000Y-2695000D03*
X3340000Y-2807500D03*
X1995000Y-2920000D03*
X5925000Y-2907017D03*
%TO.N,/VISENSE_A*%
X3785000Y-3755000D03*
X5620000Y-4550000D03*
%TO.N,V_Bat*%
X2250000Y-4170000D03*
X3550000Y-4170000D03*
X2980000Y-2710000D03*
X2832500Y-2850000D03*
X2540000Y-3375000D03*
X2105000Y-4230000D03*
X3460000Y-4170000D03*
X3390000Y-4170000D03*
X2165000Y-4170000D03*
%TO.N,/nGate_A*%
X4750000Y-5700000D03*
X4910000Y-5010000D03*
%TO.N,+3V3*%
X4540000Y-2890000D03*
X5250000Y-3660000D03*
X5810000Y-3830000D03*
X2250000Y-3665000D03*
X4330000Y-3620000D03*
X3140000Y-4580000D03*
X4360000Y-4660000D03*
X2165000Y-3665000D03*
X3490000Y-3327000D03*
X2080000Y-3665000D03*
X3620000Y-2800000D03*
X5740000Y-4570000D03*
%TO.N,+5V_USB*%
X3425000Y-2610000D03*
X4765000Y-3060000D03*
X4870000Y-2785000D03*
%TO.N,Net-(J1-CC2)*%
X5595000Y-2970000D03*
%TO.N,Net-(J1-CC1)*%
X5590000Y-3200000D03*
%TO.N,/VV_SENSE_A*%
X3725000Y-3682000D03*
X4947500Y-4670000D03*
%TO.N,/nGate_B*%
X4083764Y-5043768D03*
X3570000Y-5880000D03*
%TO.N,Net-(Q7-S)*%
X4430000Y-5110000D03*
X4320000Y-5110000D03*
X4200000Y-5110000D03*
%TO.N,/SW*%
X2570000Y-2670000D03*
X2350000Y-2665000D03*
X2695000Y-2760000D03*
X2780000Y-2670000D03*
X2680000Y-2670000D03*
X2575000Y-2765000D03*
X2465000Y-2670000D03*
%TO.N,/VISENSE_B*%
X4340000Y-4570000D03*
X3630000Y-3642000D03*
%TO.N,/VISENSE_C*%
X3000000Y-4570000D03*
X3435000Y-3552000D03*
%TO.N,/nGate_C*%
X2800000Y-5110000D03*
X2290000Y-5880000D03*
%TO.N,/VV_SENSE_B*%
X3515000Y-3587000D03*
X3707500Y-4672500D03*
%TO.N,/VV_SENSE_C*%
X2320000Y-4690000D03*
X3360000Y-3522000D03*
%TO.N,/FB*%
X2636000Y-3375000D03*
%TO.N,/LO_B*%
X4100000Y-3875000D03*
X4001776Y-3731762D03*
%TO.N,/Hi_B*%
X4450000Y-3950000D03*
X4550000Y-3350000D03*
%TO.N,/Hi_A*%
X5195000Y-3795000D03*
X4650000Y-3440000D03*
%TO.N,/LO_A*%
X3925000Y-3775000D03*
X5225000Y-4175000D03*
%TO.N,/LO_C*%
X4080000Y-3715000D03*
X2730000Y-3880000D03*
%TO.N,/HI_C*%
X4510000Y-3200000D03*
X2600000Y-3880000D03*
%TO.N,/V_Bat_Div*%
X3850000Y-3705000D03*
%TO.N,Net-(Q6-S)*%
X5620000Y-5120000D03*
X5750000Y-5116750D03*
X5510000Y-5120000D03*
%TO.N,Net-(Q8-S)*%
X3050000Y-5120000D03*
X2920000Y-5120000D03*
X3150000Y-5120000D03*
%TO.N,/I2C1_SDA*%
X3397500Y-2350000D03*
%TO.N,/I2C1_CL*%
X3597500Y-2349500D03*
%TO.N,Net-(D5-K)*%
X2855000Y-2205000D03*
%TO.N,Net-(D6-K)*%
X3067500Y-2290000D03*
%TO.N,/Duty_in*%
X3797500Y-2349500D03*
%TO.N,/Reset*%
X4730000Y-3930000D03*
X3520000Y-3250000D03*
%TO.N,/Boot*%
X5502500Y-3802500D03*
X4017573Y-2732427D03*
%TD*%
D35*
%TO.N,GND*%
X4209300Y-4000000D02*
X4190500Y-4018800D01*
D36*
X2692500Y-3090000D02*
X2720000Y-3117500D01*
X2445000Y-2970000D02*
X2445000Y-3067500D01*
D37*
X2966000Y-3086750D02*
X2966000Y-3219000D01*
D36*
X2467500Y-3090000D02*
X2692500Y-3090000D01*
D35*
X4325000Y-4000000D02*
X4209300Y-4000000D01*
D37*
X2966000Y-3219000D02*
X2955000Y-3230000D01*
D36*
X2445000Y-3067500D02*
X2467500Y-3090000D01*
X2720000Y-3117500D02*
X2821000Y-3117500D01*
D35*
%TO.N,V_Bat*%
X3569500Y-5162500D02*
X3569500Y-5194700D01*
D38*
X2813500Y-2970000D02*
X2821000Y-2962500D01*
D39*
X2470000Y-5343000D02*
X2470000Y-5385200D01*
X3390000Y-4170000D02*
X3350000Y-4210000D01*
X2181781Y-4331781D02*
X2110000Y-4403562D01*
X2105000Y-4255000D02*
X2181781Y-4331781D01*
D38*
X4880000Y-4017500D02*
X5068200Y-4017500D01*
D39*
X3760000Y-5290000D02*
X3760000Y-5380200D01*
D35*
X5069500Y-3914700D02*
X4904800Y-3750000D01*
X4675000Y-3755000D02*
X4670000Y-3750000D01*
D39*
X4975000Y-3750000D02*
X4904800Y-3750000D01*
D35*
X2670500Y-5194700D02*
X2480000Y-5385200D01*
D38*
X3809500Y-4244500D02*
X3809500Y-4018800D01*
D35*
X4670000Y-3750000D02*
X4452500Y-3750000D01*
X3823500Y-5321700D02*
X3760000Y-5385200D01*
X4879500Y-5194700D02*
X5070000Y-5385200D01*
X3823500Y-5162500D02*
X3823500Y-5321700D01*
D38*
X2475000Y-4260000D02*
X2469500Y-4254500D01*
D39*
X5070000Y-5385200D02*
X5070000Y-5380000D01*
D38*
X3809500Y-4018800D02*
X3620800Y-4018800D01*
D39*
X3400000Y-4310000D02*
X3400000Y-4930000D01*
D35*
X4879500Y-5162500D02*
X4879500Y-5194700D01*
D39*
X3825000Y-4260000D02*
X3580000Y-4260000D01*
D35*
X5069500Y-4018800D02*
X5069500Y-3914700D01*
D38*
X3825000Y-4260000D02*
X3809500Y-4244500D01*
D39*
X2250000Y-4170000D02*
X2250000Y-4256438D01*
X5125000Y-3600000D02*
X4975000Y-3750000D01*
X3397500Y-4307500D02*
X3400000Y-4310000D01*
D35*
X5260500Y-5194700D02*
X5070000Y-5385200D01*
D39*
X5125000Y-3275000D02*
X5125000Y-3600000D01*
D35*
X3950500Y-5162500D02*
X3950500Y-5194700D01*
D40*
X2165000Y-4315000D02*
X2181781Y-4331781D01*
D39*
X4560000Y-4110000D02*
X4560000Y-4870000D01*
D35*
X5133500Y-5162500D02*
X5133500Y-5321700D01*
D38*
X3013250Y-2973250D02*
X3100000Y-3060000D01*
X3100000Y-4010000D02*
X3397500Y-4307500D01*
D35*
X5000700Y-3342500D02*
X5029500Y-3371300D01*
X5133500Y-5321700D02*
X5070000Y-5385200D01*
X2416500Y-5321700D02*
X2480000Y-5385200D01*
D41*
X2540000Y-3220000D02*
X2540000Y-3375000D01*
D35*
X3950500Y-5194700D02*
X3760000Y-5385200D01*
D38*
X2210000Y-4940000D02*
X2215000Y-4935000D01*
D39*
X4560000Y-4110000D02*
X4410000Y-4260000D01*
D38*
X3100000Y-3060000D02*
X3100000Y-4010000D01*
D39*
X3350000Y-4260000D02*
X2475000Y-4260000D01*
D35*
X3696500Y-5162500D02*
X3696500Y-5321700D01*
D38*
X3620800Y-4018800D02*
X3619500Y-4017500D01*
D39*
X3445000Y-4260000D02*
X3397500Y-4307500D01*
D35*
X5006500Y-5321700D02*
X5070000Y-5385200D01*
D39*
X2110000Y-4983000D02*
X2470000Y-5343000D01*
X5070000Y-5380000D02*
X4600000Y-4910000D01*
X3397500Y-4307500D02*
X3350000Y-4260000D01*
X3460000Y-4170000D02*
X3460000Y-4245000D01*
X3400000Y-4930000D02*
X3760000Y-5290000D01*
D38*
X2832500Y-2850000D02*
X2972500Y-2710000D01*
X5068200Y-4017500D02*
X5069500Y-4018800D01*
D35*
X2416500Y-5162500D02*
X2416500Y-5321700D01*
D39*
X2165000Y-4170000D02*
X2165000Y-4315000D01*
D40*
X3550000Y-4170000D02*
X3535000Y-4170000D01*
D38*
X2469500Y-4018800D02*
X2281200Y-4018800D01*
D35*
X3696500Y-5321700D02*
X3760000Y-5385200D01*
X5260500Y-5162500D02*
X5260500Y-5194700D01*
D39*
X2110000Y-4403562D02*
X2110000Y-4983000D01*
D38*
X2966000Y-2973250D02*
X3013250Y-2973250D01*
D39*
X2105000Y-4230000D02*
X2105000Y-4255000D01*
D38*
X2972500Y-2710000D02*
X2980000Y-2710000D01*
X2281200Y-4018800D02*
X2280000Y-4020000D01*
D39*
X4560000Y-4870000D02*
X4600000Y-4910000D01*
X2253562Y-4260000D02*
X2181781Y-4331781D01*
D35*
X4600000Y-4910000D02*
X4612500Y-4922500D01*
D39*
X4680000Y-3750000D02*
X4675000Y-3755000D01*
D35*
X2543500Y-5162500D02*
X2543500Y-5321700D01*
D39*
X4410000Y-4260000D02*
X3825000Y-4260000D01*
X4675000Y-3755000D02*
X4560000Y-3870000D01*
X4904800Y-3750000D02*
X4680000Y-3750000D01*
D40*
X2250000Y-4256438D02*
X2253562Y-4260000D01*
D35*
X4612500Y-4922500D02*
X4785000Y-4922500D01*
D39*
X3535000Y-4170000D02*
X3397500Y-4307500D01*
D38*
X3055000Y-2635000D02*
X2980000Y-2710000D01*
D35*
X2543500Y-5321700D02*
X2480000Y-5385200D01*
D39*
X2475000Y-4260000D02*
X2253562Y-4260000D01*
D40*
X3460000Y-4245000D02*
X3397500Y-4307500D01*
D38*
X3055000Y-2560000D02*
X3055000Y-2635000D01*
D35*
X3520000Y-4930000D02*
X3400000Y-4930000D01*
D39*
X4560000Y-3870000D02*
X4560000Y-4110000D01*
D38*
X2635000Y-2970000D02*
X2813500Y-2970000D01*
X2832500Y-2850000D02*
X2832500Y-2973250D01*
X3355000Y-4260000D02*
X3580000Y-4260000D01*
D39*
X3580000Y-4260000D02*
X3350000Y-4260000D01*
D35*
X5006500Y-5162500D02*
X5006500Y-5321700D01*
X3569500Y-5194700D02*
X3760000Y-5385200D01*
D39*
X3350000Y-4210000D02*
X3350000Y-4260000D01*
D38*
X2821000Y-2962500D02*
X2955250Y-2962500D01*
X2469500Y-4254500D02*
X2469500Y-4018800D01*
D35*
X2670500Y-5162500D02*
X2670500Y-5194700D01*
D38*
X2110000Y-4940000D02*
X2210000Y-4940000D01*
D36*
%TO.N,/nGate_A*%
X5067500Y-4965000D02*
X4955000Y-4965000D01*
X4791300Y-5741300D02*
X4750000Y-5700000D01*
X4955000Y-4965000D02*
X4910000Y-5010000D01*
X4879500Y-5741300D02*
X4791300Y-5741300D01*
D42*
%TO.N,/Phase_A*%
X5700000Y-5574800D02*
X5666200Y-5574800D01*
D36*
%TO.N,/pGate_A*%
X5760000Y-4960000D02*
X5612500Y-4960000D01*
X5890500Y-5090500D02*
X5760000Y-4960000D01*
X5890500Y-5218700D02*
X5890500Y-5090500D01*
D41*
%TO.N,+3V3*%
X3620000Y-2800000D02*
X3622000Y-2800000D01*
D35*
X3490000Y-3327000D02*
X3389500Y-3327000D01*
X3622000Y-2800000D02*
X3712000Y-2710000D01*
D41*
X4330000Y-3518000D02*
X4330000Y-3620000D01*
X3621000Y-3327000D02*
X3490000Y-3327000D01*
X3389500Y-3327000D02*
X3380000Y-3317500D01*
D43*
X3620000Y-2800000D02*
X3627500Y-2800000D01*
X3675000Y-2847500D02*
X3702500Y-2847500D01*
X3627500Y-2800000D02*
X3675000Y-2847500D01*
D41*
X3660000Y-3288000D02*
X3621000Y-3327000D01*
D38*
%TO.N,Net-(IC3-VS)*%
X5229050Y-4402500D02*
X5323500Y-4496950D01*
X4880000Y-4402500D02*
X5229050Y-4402500D01*
X5323500Y-4496950D02*
X5323500Y-4561200D01*
%TO.N,Net-(IC3-LO)*%
X5447500Y-4960000D02*
X5447500Y-4564200D01*
X5447500Y-4564200D02*
X5450500Y-4561200D01*
%TO.N,Net-(IC3-HO)*%
X5232500Y-4965000D02*
X5196500Y-4929000D01*
X5196500Y-4929000D02*
X5196500Y-4561200D01*
%TO.N,+5V_USB*%
X3425000Y-2610000D02*
X3315000Y-2610000D01*
X3315000Y-2610000D02*
X3265000Y-2560000D01*
D37*
%TO.N,Net-(J1-CC2)*%
X5595000Y-2970000D02*
X5655000Y-2910000D01*
X5655000Y-2910000D02*
X5707500Y-2910000D01*
%TO.N,Net-(J1-CC1)*%
X5590000Y-3200000D02*
X5707500Y-3200000D01*
D36*
%TO.N,/VB_A*%
X4785000Y-4712500D02*
X4785000Y-4652500D01*
X4785000Y-4652500D02*
X4880000Y-4557500D01*
D38*
X5065800Y-4557500D02*
X5069500Y-4561200D01*
X4880000Y-4557500D02*
X5065800Y-4557500D01*
%TO.N,Net-(IC1-VS)*%
X3975000Y-4405000D02*
X4063500Y-4493500D01*
X3620000Y-4405000D02*
X3975000Y-4405000D01*
X4063500Y-4493500D02*
X4063500Y-4561200D01*
%TO.N,/VB_B*%
X3809500Y-4561200D02*
X3621200Y-4561200D01*
D36*
X3520000Y-4720000D02*
X3520000Y-4660000D01*
D38*
X3621200Y-4561200D02*
X3620000Y-4560000D01*
D36*
X3520000Y-4660000D02*
X3620000Y-4560000D01*
D38*
%TO.N,Net-(IC1-LO)*%
X4190500Y-4561200D02*
X4190500Y-4943000D01*
X4190500Y-4943000D02*
X4217500Y-4970000D01*
%TO.N,Net-(IC1-HO)*%
X3936500Y-4561200D02*
X3936500Y-4886000D01*
X3936500Y-4886000D02*
X3847500Y-4975000D01*
D36*
%TO.N,/nGate_B*%
X3569500Y-5741300D02*
X3569500Y-5879500D01*
X4012500Y-4975000D02*
X4014995Y-4975000D01*
X3569500Y-5879500D02*
X3570000Y-5880000D01*
X4014995Y-4975000D02*
X4083764Y-5043768D01*
%TO.N,/pGate_B*%
X4580500Y-5218700D02*
X4580500Y-5137450D01*
X4580500Y-5137450D02*
X4413050Y-4970000D01*
X4413050Y-4970000D02*
X4382500Y-4970000D01*
D44*
%TO.N,Net-(Q7-S)*%
X4430000Y-5110000D02*
X4450000Y-5110000D01*
X4450000Y-5110000D02*
X4453500Y-5113500D01*
X4453500Y-5113500D02*
X4453500Y-5218700D01*
X4326500Y-5116500D02*
X4320000Y-5110000D01*
X4326500Y-5218700D02*
X4326500Y-5116500D01*
X4199500Y-5218700D02*
X4199500Y-5110500D01*
X4199500Y-5110500D02*
X4200000Y-5110000D01*
D35*
%TO.N,/SW*%
X2140000Y-2955500D02*
X2254000Y-3069500D01*
X2140000Y-2815000D02*
X2140000Y-2955500D01*
D44*
X2540000Y-2800000D02*
X2575000Y-2765000D01*
D35*
X2290000Y-2665000D02*
X2140000Y-2815000D01*
X2485000Y-2675000D02*
X2425000Y-2675000D01*
D44*
X2540000Y-2970000D02*
X2540000Y-2800000D01*
D35*
%TO.N,/CB*%
X2254000Y-3224500D02*
X2440500Y-3224500D01*
X2440500Y-3224500D02*
X2445000Y-3220000D01*
%TO.N,/VB_C*%
X2280000Y-4567500D02*
X2463200Y-4567500D01*
X2215000Y-4632500D02*
X2280000Y-4567500D01*
X2463200Y-4567500D02*
X2469500Y-4561200D01*
X2215000Y-4725000D02*
X2215000Y-4632500D01*
D38*
%TO.N,Net-(IC4-VS)*%
X2280000Y-4412500D02*
X2691050Y-4412500D01*
X2691050Y-4412500D02*
X2723500Y-4444950D01*
X2723500Y-4444950D02*
X2723500Y-4561200D01*
%TO.N,Net-(IC4-LO)*%
X3007500Y-4980000D02*
X2850500Y-4823000D01*
X2850500Y-4823000D02*
X2850500Y-4561200D01*
%TO.N,Net-(IC4-HO)*%
X2596500Y-4703500D02*
X2527500Y-4772500D01*
X2596500Y-4561200D02*
X2596500Y-4703500D01*
X2527500Y-4772500D02*
X2527500Y-4970000D01*
D36*
%TO.N,/nGate_C*%
X2289500Y-5879500D02*
X2290000Y-5880000D01*
X2692500Y-4970000D02*
X2800000Y-5077500D01*
X2800000Y-5077500D02*
X2800000Y-5110000D01*
X2289500Y-5741300D02*
X2289500Y-5879500D01*
%TO.N,/pGate_C*%
X3300500Y-5218700D02*
X3300500Y-5108000D01*
X3300500Y-5108000D02*
X3172500Y-4980000D01*
D37*
%TO.N,/FB*%
X2635000Y-3374000D02*
X2636000Y-3375000D01*
X2635000Y-3220000D02*
X2635000Y-3374000D01*
%TO.N,/LO_B*%
X4100000Y-3875000D02*
X4075000Y-3875000D01*
X4063500Y-3886500D02*
X4063500Y-4018800D01*
X4075000Y-3875000D02*
X4063500Y-3886500D01*
%TO.N,/Hi_B*%
X4450000Y-4000000D02*
X4300500Y-4149500D01*
X3999225Y-4150000D02*
X3936500Y-4087275D01*
X4275000Y-4150000D02*
X3999225Y-4150000D01*
X4275500Y-4149500D02*
X4275000Y-4150000D01*
X4300500Y-4149500D02*
X4275500Y-4149500D01*
X3936500Y-4087275D02*
X3936500Y-4018800D01*
X4450000Y-3950000D02*
X4450000Y-4000000D01*
%TO.N,/Hi_A*%
X5195000Y-3795000D02*
X5196500Y-3796500D01*
X5196500Y-3796500D02*
X5196500Y-4018800D01*
%TO.N,/LO_A*%
X5325000Y-4020300D02*
X5323500Y-4018800D01*
X5225000Y-4175000D02*
X5325000Y-4075000D01*
X5325000Y-4075000D02*
X5325000Y-4020300D01*
%TO.N,/LO_C*%
X2723500Y-4018800D02*
X2723500Y-3886500D01*
X2723500Y-3886500D02*
X2730000Y-3880000D01*
%TO.N,/HI_C*%
X2596500Y-4018800D02*
X2596500Y-3883500D01*
X2596500Y-3883500D02*
X2600000Y-3880000D01*
D41*
%TO.N,/V_Bat_Div*%
X4057500Y-3520000D02*
X4287500Y-3750000D01*
X3852500Y-3520000D02*
X4057500Y-3520000D01*
D37*
X3850000Y-3537500D02*
X3850000Y-3705000D01*
D44*
%TO.N,Net-(Q6-S)*%
X5509500Y-5120500D02*
X5510000Y-5120000D01*
X5750000Y-5116750D02*
X5756750Y-5116750D01*
X5509500Y-5218700D02*
X5509500Y-5120500D01*
X5756750Y-5116750D02*
X5763500Y-5123500D01*
X5620000Y-5120000D02*
X5636500Y-5136500D01*
X5763500Y-5123500D02*
X5763500Y-5218700D01*
X5636500Y-5136500D02*
X5636500Y-5218700D01*
%TO.N,Net-(Q8-S)*%
X2919500Y-5120500D02*
X2920000Y-5120000D01*
X3150000Y-5120000D02*
X3173500Y-5143500D01*
X3173500Y-5143500D02*
X3173500Y-5218700D01*
X3046500Y-5123500D02*
X3050000Y-5120000D01*
X3046500Y-5218700D02*
X3046500Y-5123500D01*
X2919500Y-5218700D02*
X2919500Y-5120500D01*
D39*
%TO.N,/V_Bat_raw*%
X4776000Y-2351000D02*
X4950000Y-2525000D01*
X5188500Y-2925000D02*
X4934500Y-2925000D01*
D35*
X5192500Y-2525000D02*
X4950000Y-2525000D01*
D39*
X4700000Y-2351000D02*
X4776000Y-2351000D01*
X4950000Y-2525000D02*
X5061500Y-2636500D01*
D35*
X5125000Y-2700000D02*
X5061500Y-2636500D01*
D39*
X5061500Y-2636500D02*
X5061500Y-2925000D01*
D35*
X5197500Y-2700000D02*
X5125000Y-2700000D01*
D37*
%TO.N,Net-(D5-K)*%
X2857500Y-2207500D02*
X2980000Y-2207500D01*
X2855000Y-2205000D02*
X2857500Y-2207500D01*
%TO.N,Net-(D6-K)*%
X3067500Y-2290000D02*
X3072500Y-2290000D01*
X3072500Y-2290000D02*
X3155000Y-2207500D01*
D35*
%TO.N,/Boot*%
X5507500Y-3792500D02*
X5507500Y-3630000D01*
X5502500Y-3797500D02*
X5507500Y-3792500D01*
X5502500Y-3802500D02*
X5502500Y-3797500D01*
%TO.N,Net-(Q2-G)*%
X5357500Y-2350000D02*
X5357500Y-2695000D01*
X5352500Y-2888000D02*
X5315500Y-2925000D01*
X5357500Y-2695000D02*
X5352500Y-2700000D01*
X5352500Y-2700000D02*
X5352500Y-2888000D01*
%TD*%
%TA.AperFunction,Conductor*%
%TO.N,/SW*%
G36*
X2815919Y-2636891D02*
G01*
X2819515Y-2641841D01*
X2820000Y-2644900D01*
X2820000Y-2725007D01*
X2818109Y-2730826D01*
X2815984Y-2732968D01*
X2613571Y-2882578D01*
X2607767Y-2884516D01*
X2601933Y-2882673D01*
X2600686Y-2881617D01*
X2593804Y-2874736D01*
X2582515Y-2868984D01*
X2582515Y-2868983D01*
X2573148Y-2867500D01*
X2570000Y-2867500D01*
X2570000Y-2867500D01*
X2570000Y-2960100D01*
X2568109Y-2965919D01*
X2563159Y-2969515D01*
X2560100Y-2970000D01*
X2520142Y-2970000D01*
X2514323Y-2968109D01*
X2510727Y-2963159D01*
X2510343Y-2958691D01*
X2510500Y-2957600D01*
X2510500Y-2909376D01*
X2511124Y-2905916D01*
X2511531Y-2904825D01*
X2513915Y-2896137D01*
X2514697Y-2891803D01*
X2515500Y-2882827D01*
X2515500Y-2798561D01*
X2515671Y-2796821D01*
X2515659Y-2796819D01*
X2515686Y-2796649D01*
X2515687Y-2796647D01*
X2516581Y-2789578D01*
X2515323Y-2775245D01*
X2510215Y-2753460D01*
X2506982Y-2744001D01*
X2499203Y-2731897D01*
X2488329Y-2722475D01*
X2475242Y-2716498D01*
X2475241Y-2716498D01*
X2475241Y-2716498D01*
X2475241Y-2716497D01*
X2461001Y-2714450D01*
X2461000Y-2714450D01*
X2281995Y-2714450D01*
X2281237Y-2714531D01*
X2275958Y-2715099D01*
X2269970Y-2713841D01*
X2265865Y-2709304D01*
X2265000Y-2705256D01*
X2265000Y-2644900D01*
X2266891Y-2639081D01*
X2271841Y-2635485D01*
X2274900Y-2635000D01*
X2810100Y-2635000D01*
X2815919Y-2636891D01*
G37*
%TD.AperFunction*%
%TD*%
%TA.AperFunction,Conductor*%
%TO.N,/Phase_B*%
G36*
X4724304Y-5311969D02*
G01*
X4728879Y-5317249D01*
X4730000Y-5322400D01*
X4730000Y-5584839D01*
X4728032Y-5591543D01*
X4724250Y-5595028D01*
X4724366Y-5595196D01*
X4723792Y-5595590D01*
X4718510Y-5600166D01*
X4716716Y-5601924D01*
X4716715Y-5601925D01*
X4712251Y-5609906D01*
X4712251Y-5609906D01*
X4710283Y-5616610D01*
X4710283Y-5616610D01*
X4710283Y-5616610D01*
X4710014Y-5618477D01*
X4709450Y-5622400D01*
X4709450Y-5637576D01*
X4710247Y-5643245D01*
X4712134Y-5649820D01*
X4712925Y-5652072D01*
X4713329Y-5652851D01*
X4713138Y-5652950D01*
X4715040Y-5658422D01*
X4713401Y-5665214D01*
X4711423Y-5667796D01*
X4709950Y-5669268D01*
X4709950Y-5669268D01*
X4709950Y-5669269D01*
X4708708Y-5671420D01*
X4703361Y-5680681D01*
X4699950Y-5693411D01*
X4699950Y-5706589D01*
X4703361Y-5719319D01*
X4706655Y-5725025D01*
X4709950Y-5730731D01*
X4709950Y-5730732D01*
X4711900Y-5732681D01*
X4715248Y-5738813D01*
X4714750Y-5745782D01*
X4713954Y-5747502D01*
X4712251Y-5750546D01*
X4712251Y-5750546D01*
X4710283Y-5757249D01*
X4710283Y-5757250D01*
X4710283Y-5757250D01*
X4710024Y-5759049D01*
X4709450Y-5763040D01*
X4709450Y-6357550D01*
X4707482Y-6364254D01*
X4702201Y-6368829D01*
X4697050Y-6369950D01*
X4337894Y-6369950D01*
X4331190Y-6367981D01*
X4326615Y-6362701D01*
X4325620Y-6355785D01*
X4328523Y-6349430D01*
X4334401Y-6345652D01*
X4334902Y-6345517D01*
X4335573Y-6345350D01*
X4335574Y-6345349D01*
X4351812Y-6337296D01*
X4351812Y-6337296D01*
X4365940Y-6325940D01*
X4365940Y-6325940D01*
X4377296Y-6311812D01*
X4377296Y-6311812D01*
X4385349Y-6295573D01*
X4385349Y-6295573D01*
X4389724Y-6277983D01*
X4390000Y-6273913D01*
X4390000Y-6125000D01*
X4236986Y-6125000D01*
X4240000Y-6109849D01*
X4240000Y-6090151D01*
X4236986Y-6075000D01*
X4390000Y-6075000D01*
X4390000Y-5926087D01*
X4389724Y-5922016D01*
X4385349Y-5904427D01*
X4382288Y-5898255D01*
X4381073Y-5891374D01*
X4383771Y-5884929D01*
X4389525Y-5880965D01*
X4396508Y-5880742D01*
X4398966Y-5881714D01*
X4412762Y-5886860D01*
X4412763Y-5886860D01*
X4418716Y-5887500D01*
X4418717Y-5887500D01*
X4428500Y-5887500D01*
X4478500Y-5887500D01*
X4488283Y-5887500D01*
X4488284Y-5887500D01*
X4494237Y-5886860D01*
X4494238Y-5886860D01*
X4507709Y-5881835D01*
X4509569Y-5880443D01*
X4516115Y-5878001D01*
X4522942Y-5879486D01*
X4524431Y-5880443D01*
X4526291Y-5881835D01*
X4539762Y-5886860D01*
X4539763Y-5886860D01*
X4545716Y-5887500D01*
X4545717Y-5887500D01*
X4555500Y-5887500D01*
X4605500Y-5887500D01*
X4615283Y-5887500D01*
X4615284Y-5887500D01*
X4621237Y-5886860D01*
X4621238Y-5886860D01*
X4634709Y-5881835D01*
X4634709Y-5881835D01*
X4646219Y-5873219D01*
X4646219Y-5873219D01*
X4654835Y-5861709D01*
X4654835Y-5861709D01*
X4659860Y-5848238D01*
X4659860Y-5848237D01*
X4660500Y-5842284D01*
X4660500Y-5842283D01*
X4660500Y-5822500D01*
X4605500Y-5822500D01*
X4605500Y-5887500D01*
X4555500Y-5887500D01*
X4555500Y-5822500D01*
X4478500Y-5822500D01*
X4478500Y-5887500D01*
X4428500Y-5887500D01*
X4428500Y-5822500D01*
X4119500Y-5822500D01*
X4119500Y-5837600D01*
X4117531Y-5844304D01*
X4112251Y-5848879D01*
X4107100Y-5850000D01*
X4012766Y-5850000D01*
X4006062Y-5848031D01*
X4001487Y-5842751D01*
X4000493Y-5835835D01*
X4003395Y-5829480D01*
X4005335Y-5827673D01*
X4011219Y-5823269D01*
X4019835Y-5811759D01*
X4019835Y-5811759D01*
X4024860Y-5798288D01*
X4024860Y-5798287D01*
X4025500Y-5792334D01*
X4025500Y-5792333D01*
X4025500Y-5766300D01*
X3848500Y-5766300D01*
X3848500Y-5837550D01*
X3853283Y-5837550D01*
X3853284Y-5837550D01*
X3859237Y-5836910D01*
X3859238Y-5836910D01*
X3872709Y-5831885D01*
X3872709Y-5831885D01*
X3879569Y-5826750D01*
X3886115Y-5824308D01*
X3892942Y-5825793D01*
X3894431Y-5826750D01*
X3901291Y-5831885D01*
X3901291Y-5831885D01*
X3914762Y-5836910D01*
X3914763Y-5836910D01*
X3920715Y-5837550D01*
X3920717Y-5837550D01*
X3925996Y-5837550D01*
X3932700Y-5839518D01*
X3937275Y-5844799D01*
X3938270Y-5851715D01*
X3935367Y-5858070D01*
X3931505Y-5861059D01*
X3928188Y-5862704D01*
X3914060Y-5874060D01*
X3914060Y-5874060D01*
X3902704Y-5888188D01*
X3902704Y-5888188D01*
X3894651Y-5904426D01*
X3894650Y-5904427D01*
X3890276Y-5922016D01*
X3890000Y-5926087D01*
X3890000Y-6075000D01*
X4043014Y-6075000D01*
X4040000Y-6090151D01*
X4040000Y-6109849D01*
X4043014Y-6125000D01*
X3890000Y-6125000D01*
X3890000Y-6273913D01*
X3890276Y-6277983D01*
X3894650Y-6295573D01*
X3894651Y-6295573D01*
X3902704Y-6311812D01*
X3902704Y-6311812D01*
X3914060Y-6325940D01*
X3914060Y-6325940D01*
X3928188Y-6337296D01*
X3928188Y-6337296D01*
X3944426Y-6345349D01*
X3944427Y-6345350D01*
X3945098Y-6345517D01*
X3951129Y-6349045D01*
X3954295Y-6355273D01*
X3953591Y-6362225D01*
X3949240Y-6367692D01*
X3942625Y-6369939D01*
X3942106Y-6369950D01*
X3512950Y-6369950D01*
X3506246Y-6367981D01*
X3501671Y-6362701D01*
X3500550Y-6357550D01*
X3500550Y-5906087D01*
X3502518Y-5899383D01*
X3507799Y-5894807D01*
X3514715Y-5893813D01*
X3521070Y-5896715D01*
X3523689Y-5899887D01*
X3526310Y-5904426D01*
X3529950Y-5910731D01*
X3539269Y-5920050D01*
X3550681Y-5926639D01*
X3563411Y-5930050D01*
X3563411Y-5930050D01*
X3576589Y-5930050D01*
X3576589Y-5930050D01*
X3589319Y-5926639D01*
X3600731Y-5920050D01*
X3610050Y-5910731D01*
X3616639Y-5899319D01*
X3620050Y-5886589D01*
X3620050Y-5873411D01*
X3616639Y-5860681D01*
X3610050Y-5849269D01*
X3610050Y-5849268D01*
X3610050Y-5849268D01*
X3609612Y-5848698D01*
X3608788Y-5846566D01*
X3607552Y-5844643D01*
X3607261Y-5842615D01*
X3607093Y-5842181D01*
X3607050Y-5841150D01*
X3607050Y-5822145D01*
X3609018Y-5815441D01*
X3614299Y-5810865D01*
X3621215Y-5809871D01*
X3627570Y-5812773D01*
X3629377Y-5814714D01*
X3635781Y-5823269D01*
X3635781Y-5823269D01*
X3647291Y-5831885D01*
X3647291Y-5831885D01*
X3660762Y-5836910D01*
X3660763Y-5836910D01*
X3666715Y-5837550D01*
X3666717Y-5837550D01*
X3671500Y-5837550D01*
X3721500Y-5837550D01*
X3726283Y-5837550D01*
X3726284Y-5837550D01*
X3732237Y-5836910D01*
X3732238Y-5836910D01*
X3745709Y-5831885D01*
X3745709Y-5831885D01*
X3752569Y-5826750D01*
X3759115Y-5824308D01*
X3765942Y-5825793D01*
X3767431Y-5826750D01*
X3774291Y-5831885D01*
X3774291Y-5831885D01*
X3787762Y-5836910D01*
X3787763Y-5836910D01*
X3793715Y-5837550D01*
X3793717Y-5837550D01*
X3798500Y-5837550D01*
X3798500Y-5766300D01*
X3721500Y-5766300D01*
X3721500Y-5837550D01*
X3671500Y-5837550D01*
X3671500Y-5716300D01*
X3721500Y-5716300D01*
X3798500Y-5716300D01*
X3848500Y-5716300D01*
X3925500Y-5716300D01*
X3975500Y-5716300D01*
X4025500Y-5716300D01*
X4025500Y-5690267D01*
X4025500Y-5690265D01*
X4024860Y-5684313D01*
X4024860Y-5684312D01*
X4019835Y-5670841D01*
X4019835Y-5670841D01*
X4011219Y-5659331D01*
X4011219Y-5659331D01*
X3999709Y-5650715D01*
X3999709Y-5650714D01*
X3986238Y-5645690D01*
X3986237Y-5645690D01*
X3980284Y-5645050D01*
X3975500Y-5645050D01*
X3975500Y-5716300D01*
X3925500Y-5716300D01*
X3925500Y-5645050D01*
X3920715Y-5645050D01*
X3914763Y-5645690D01*
X3914762Y-5645690D01*
X3901291Y-5650714D01*
X3901291Y-5650715D01*
X3894431Y-5655850D01*
X3887885Y-5658292D01*
X3881057Y-5656807D01*
X3879569Y-5655850D01*
X3872709Y-5650715D01*
X3872709Y-5650714D01*
X3859238Y-5645690D01*
X3859237Y-5645690D01*
X3853284Y-5645050D01*
X3848500Y-5645050D01*
X3848500Y-5716300D01*
X3798500Y-5716300D01*
X3798500Y-5645050D01*
X3793715Y-5645050D01*
X3787763Y-5645690D01*
X3787762Y-5645690D01*
X3774291Y-5650714D01*
X3774291Y-5650715D01*
X3767431Y-5655850D01*
X3760885Y-5658292D01*
X3754057Y-5656807D01*
X3752569Y-5655850D01*
X3745709Y-5650715D01*
X3745709Y-5650714D01*
X3732238Y-5645690D01*
X3732237Y-5645690D01*
X3726284Y-5645050D01*
X3721500Y-5645050D01*
X3721500Y-5716300D01*
X3671500Y-5716300D01*
X3671500Y-5645050D01*
X3666715Y-5645050D01*
X3660763Y-5645690D01*
X3660762Y-5645690D01*
X3647291Y-5650714D01*
X3647291Y-5650715D01*
X3635781Y-5659331D01*
X3635781Y-5659331D01*
X3627165Y-5670841D01*
X3627164Y-5670841D01*
X3626096Y-5673705D01*
X3621909Y-5679298D01*
X3615363Y-5681740D01*
X3608535Y-5680255D01*
X3607589Y-5679682D01*
X3602323Y-5676163D01*
X3602323Y-5676163D01*
X3596475Y-5675000D01*
X3596475Y-5675000D01*
X3542525Y-5675000D01*
X3542525Y-5675000D01*
X3536677Y-5676163D01*
X3536677Y-5676163D01*
X3530045Y-5680595D01*
X3525613Y-5687227D01*
X3525613Y-5687227D01*
X3525112Y-5689748D01*
X3521873Y-5695939D01*
X3515802Y-5699397D01*
X3508825Y-5699023D01*
X3503157Y-5694936D01*
X3500599Y-5688434D01*
X3500550Y-5687329D01*
X3500550Y-5612400D01*
X3502518Y-5605696D01*
X3507799Y-5601121D01*
X3512950Y-5600000D01*
X4000000Y-5600000D01*
X4000000Y-5573911D01*
X4000238Y-5571492D01*
X4000388Y-5570738D01*
X4000818Y-5569917D01*
X4024061Y-5569917D01*
X4024901Y-5572052D01*
X4024950Y-5573157D01*
X4024950Y-5581589D01*
X4025821Y-5584839D01*
X4028361Y-5594319D01*
X4029095Y-5595590D01*
X4034950Y-5605731D01*
X4044269Y-5615050D01*
X4055681Y-5621639D01*
X4068411Y-5625050D01*
X4068411Y-5625050D01*
X4081589Y-5625050D01*
X4081589Y-5625050D01*
X4094319Y-5621639D01*
X4100900Y-5617839D01*
X4107690Y-5616192D01*
X4114293Y-5618477D01*
X4118612Y-5623969D01*
X4119500Y-5628578D01*
X4119500Y-5772500D01*
X4660500Y-5772500D01*
X4660500Y-5599800D01*
X4402400Y-5599800D01*
X4395696Y-5597831D01*
X4391121Y-5592551D01*
X4390000Y-5587400D01*
X4390000Y-5574800D01*
X4377400Y-5574800D01*
X4370696Y-5572832D01*
X4366121Y-5567551D01*
X4365000Y-5562400D01*
X4365000Y-5549800D01*
X4415000Y-5549800D01*
X4660500Y-5549800D01*
X4660500Y-5387267D01*
X4660500Y-5387266D01*
X4659860Y-5381313D01*
X4659860Y-5381312D01*
X4654835Y-5367841D01*
X4654835Y-5367841D01*
X4646219Y-5356331D01*
X4646219Y-5356331D01*
X4634709Y-5347715D01*
X4634709Y-5347715D01*
X4621238Y-5342690D01*
X4621237Y-5342690D01*
X4615284Y-5342050D01*
X4415000Y-5342050D01*
X4415000Y-5549800D01*
X4365000Y-5549800D01*
X4365000Y-5342050D01*
X4164715Y-5342050D01*
X4158763Y-5342690D01*
X4158762Y-5342690D01*
X4145291Y-5347715D01*
X4145291Y-5347715D01*
X4133781Y-5356331D01*
X4133781Y-5356331D01*
X4125165Y-5367841D01*
X4125164Y-5367841D01*
X4120140Y-5381312D01*
X4120140Y-5381313D01*
X4119500Y-5387266D01*
X4119500Y-5521422D01*
X4117531Y-5528126D01*
X4112251Y-5532701D01*
X4105335Y-5533696D01*
X4100900Y-5532161D01*
X4094319Y-5528361D01*
X4094319Y-5528361D01*
X4081589Y-5524950D01*
X4068411Y-5524950D01*
X4055681Y-5528361D01*
X4044269Y-5534950D01*
X4044268Y-5534950D01*
X4034950Y-5544268D01*
X4034950Y-5544269D01*
X4028361Y-5555681D01*
X4024927Y-5568495D01*
X4024061Y-5569917D01*
X4000818Y-5569917D01*
X4001514Y-5568586D01*
X4000553Y-5565581D01*
X4000550Y-5565286D01*
X4000550Y-5322400D01*
X4002518Y-5315696D01*
X4007799Y-5311121D01*
X4012950Y-5310000D01*
X4717600Y-5310000D01*
X4724304Y-5311969D01*
G37*
%TD.AperFunction*%
%TD*%
%TA.AperFunction,Conductor*%
%TO.N,/Phase_C*%
G36*
X2877572Y-5321969D02*
G01*
X2882148Y-5327249D01*
X2883142Y-5334165D01*
X2880240Y-5340520D01*
X2875202Y-5344018D01*
X2865291Y-5347715D01*
X2865291Y-5347715D01*
X2853781Y-5356331D01*
X2853781Y-5356331D01*
X2845165Y-5367841D01*
X2845164Y-5367841D01*
X2840140Y-5381312D01*
X2840140Y-5381313D01*
X2839500Y-5387266D01*
X2839500Y-5549800D01*
X3380500Y-5549800D01*
X3380500Y-5387267D01*
X3380500Y-5387266D01*
X3379860Y-5381313D01*
X3379860Y-5381312D01*
X3374835Y-5367841D01*
X3374835Y-5367841D01*
X3366219Y-5356331D01*
X3366219Y-5356331D01*
X3354709Y-5347715D01*
X3354709Y-5347715D01*
X3344798Y-5344018D01*
X3339205Y-5339831D01*
X3336763Y-5333285D01*
X3338248Y-5326457D01*
X3343189Y-5321517D01*
X3349131Y-5320000D01*
X3467600Y-5320000D01*
X3474304Y-5321969D01*
X3478879Y-5327249D01*
X3480000Y-5332400D01*
X3480000Y-6357550D01*
X3478031Y-6364254D01*
X3472751Y-6368829D01*
X3467600Y-6369950D01*
X3337894Y-6369950D01*
X3331190Y-6367981D01*
X3326615Y-6362701D01*
X3325620Y-6355785D01*
X3328523Y-6349430D01*
X3334401Y-6345652D01*
X3334901Y-6345517D01*
X3335573Y-6345350D01*
X3335573Y-6345349D01*
X3351812Y-6337296D01*
X3351812Y-6337296D01*
X3365940Y-6325940D01*
X3365940Y-6325940D01*
X3377296Y-6311812D01*
X3377296Y-6311812D01*
X3385349Y-6295573D01*
X3385349Y-6295573D01*
X3389724Y-6277983D01*
X3390000Y-6273913D01*
X3390000Y-6125000D01*
X3236986Y-6125000D01*
X3240000Y-6109849D01*
X3240000Y-6090151D01*
X3236986Y-6075000D01*
X3390000Y-6075000D01*
X3390000Y-5926087D01*
X3389724Y-5922016D01*
X3385349Y-5904427D01*
X3385349Y-5904426D01*
X3377296Y-5888188D01*
X3377296Y-5888188D01*
X3371785Y-5881333D01*
X3369119Y-5874874D01*
X3370369Y-5868000D01*
X3371524Y-5866133D01*
X3374835Y-5861709D01*
X3374835Y-5861709D01*
X3379860Y-5848238D01*
X3379860Y-5848237D01*
X3380500Y-5842284D01*
X3380500Y-5842283D01*
X3380500Y-5822500D01*
X2839500Y-5822500D01*
X2839500Y-5842284D01*
X2840140Y-5848237D01*
X2840140Y-5848238D01*
X2845164Y-5861709D01*
X2845165Y-5861709D01*
X2853781Y-5873219D01*
X2853781Y-5873219D01*
X2865291Y-5881835D01*
X2865291Y-5881835D01*
X2878762Y-5886860D01*
X2878763Y-5886860D01*
X2884465Y-5887473D01*
X2890920Y-5890147D01*
X2894905Y-5895886D01*
X2895154Y-5902868D01*
X2894779Y-5904077D01*
X2894651Y-5904426D01*
X2890276Y-5922016D01*
X2890000Y-5926087D01*
X2890000Y-6075000D01*
X3043014Y-6075000D01*
X3040000Y-6090151D01*
X3040000Y-6109849D01*
X3043014Y-6125000D01*
X2890000Y-6125000D01*
X2890000Y-6273913D01*
X2890276Y-6277983D01*
X2894650Y-6295573D01*
X2894651Y-6295573D01*
X2902704Y-6311812D01*
X2902704Y-6311812D01*
X2914060Y-6325940D01*
X2914060Y-6325940D01*
X2928188Y-6337296D01*
X2928188Y-6337296D01*
X2944426Y-6345349D01*
X2944427Y-6345350D01*
X2945098Y-6345517D01*
X2951129Y-6349045D01*
X2954295Y-6355273D01*
X2953591Y-6362225D01*
X2949240Y-6367692D01*
X2942625Y-6369939D01*
X2942106Y-6369950D01*
X2375271Y-6369950D01*
X2374730Y-6369938D01*
X2361859Y-6369376D01*
X2355247Y-6367117D01*
X2350907Y-6361642D01*
X2350000Y-6356988D01*
X2350000Y-5843295D01*
X2351969Y-5836591D01*
X2357249Y-5832016D01*
X2364165Y-5831022D01*
X2366733Y-5831677D01*
X2380762Y-5836910D01*
X2380763Y-5836910D01*
X2386716Y-5837550D01*
X2386717Y-5837550D01*
X2391500Y-5837550D01*
X2441500Y-5837550D01*
X2446283Y-5837550D01*
X2446284Y-5837550D01*
X2452237Y-5836910D01*
X2452238Y-5836910D01*
X2465709Y-5831885D01*
X2465709Y-5831885D01*
X2472569Y-5826750D01*
X2479115Y-5824308D01*
X2485943Y-5825793D01*
X2487431Y-5826750D01*
X2494291Y-5831885D01*
X2494291Y-5831885D01*
X2507762Y-5836910D01*
X2507763Y-5836910D01*
X2513716Y-5837550D01*
X2513717Y-5837550D01*
X2518500Y-5837550D01*
X2568500Y-5837550D01*
X2573283Y-5837550D01*
X2573284Y-5837550D01*
X2579237Y-5836910D01*
X2579238Y-5836910D01*
X2592709Y-5831885D01*
X2592709Y-5831885D01*
X2599569Y-5826750D01*
X2606115Y-5824308D01*
X2612943Y-5825793D01*
X2614431Y-5826750D01*
X2621291Y-5831885D01*
X2621291Y-5831885D01*
X2634762Y-5836910D01*
X2634763Y-5836910D01*
X2640716Y-5837550D01*
X2640717Y-5837550D01*
X2645500Y-5837550D01*
X2695500Y-5837550D01*
X2700283Y-5837550D01*
X2700284Y-5837550D01*
X2706237Y-5836910D01*
X2706238Y-5836910D01*
X2719709Y-5831885D01*
X2719709Y-5831885D01*
X2731219Y-5823269D01*
X2731219Y-5823269D01*
X2739835Y-5811759D01*
X2739835Y-5811758D01*
X2744860Y-5798288D01*
X2744860Y-5798287D01*
X2745500Y-5792334D01*
X2745500Y-5792333D01*
X2745500Y-5772500D01*
X2839500Y-5772500D01*
X3380500Y-5772500D01*
X3380500Y-5599800D01*
X2839500Y-5599800D01*
X2839500Y-5772500D01*
X2745500Y-5772500D01*
X2745500Y-5766300D01*
X2695500Y-5766300D01*
X2695500Y-5837550D01*
X2645500Y-5837550D01*
X2645500Y-5766300D01*
X2568500Y-5766300D01*
X2568500Y-5837550D01*
X2518500Y-5837550D01*
X2518500Y-5766300D01*
X2441500Y-5766300D01*
X2441500Y-5837550D01*
X2391500Y-5837550D01*
X2391500Y-5716300D01*
X2441500Y-5716300D01*
X2518500Y-5716300D01*
X2568500Y-5716300D01*
X2645500Y-5716300D01*
X2695500Y-5716300D01*
X2745500Y-5716300D01*
X2745500Y-5690267D01*
X2745500Y-5690265D01*
X2744860Y-5684313D01*
X2744860Y-5684312D01*
X2739835Y-5670841D01*
X2739835Y-5670841D01*
X2731219Y-5659331D01*
X2731219Y-5659331D01*
X2719709Y-5650715D01*
X2719709Y-5650714D01*
X2706238Y-5645690D01*
X2706237Y-5645690D01*
X2700284Y-5645050D01*
X2695500Y-5645050D01*
X2695500Y-5716300D01*
X2645500Y-5716300D01*
X2645500Y-5645050D01*
X2640716Y-5645050D01*
X2634763Y-5645690D01*
X2634762Y-5645690D01*
X2621291Y-5650714D01*
X2621291Y-5650715D01*
X2614431Y-5655850D01*
X2607885Y-5658292D01*
X2601057Y-5656807D01*
X2599569Y-5655850D01*
X2592709Y-5650715D01*
X2592709Y-5650714D01*
X2579238Y-5645690D01*
X2579237Y-5645690D01*
X2573284Y-5645050D01*
X2568500Y-5645050D01*
X2568500Y-5716300D01*
X2518500Y-5716300D01*
X2518500Y-5645050D01*
X2513716Y-5645050D01*
X2507763Y-5645690D01*
X2507762Y-5645690D01*
X2494291Y-5650714D01*
X2494291Y-5650715D01*
X2487431Y-5655850D01*
X2480885Y-5658292D01*
X2474057Y-5656807D01*
X2472569Y-5655850D01*
X2465709Y-5650715D01*
X2465709Y-5650714D01*
X2452238Y-5645690D01*
X2452237Y-5645690D01*
X2446284Y-5645050D01*
X2441500Y-5645050D01*
X2441500Y-5716300D01*
X2391500Y-5716300D01*
X2391500Y-5645050D01*
X2386716Y-5645050D01*
X2380763Y-5645690D01*
X2380762Y-5645690D01*
X2366733Y-5650923D01*
X2359764Y-5651421D01*
X2353632Y-5648073D01*
X2350283Y-5641940D01*
X2350000Y-5639304D01*
X2350000Y-5622400D01*
X2351969Y-5615696D01*
X2357249Y-5611121D01*
X2362400Y-5610000D01*
X2740000Y-5610000D01*
X2740000Y-5332400D01*
X2741969Y-5325696D01*
X2747249Y-5321121D01*
X2752400Y-5320000D01*
X2870868Y-5320000D01*
X2877572Y-5321969D01*
G37*
%TD.AperFunction*%
%TD*%
%TA.AperFunction,Conductor*%
%TO.N,/Phase_A*%
G36*
X4750520Y-5753669D02*
G01*
X4751168Y-5754272D01*
X4761253Y-5764356D01*
X4768244Y-5771347D01*
X4776806Y-5776291D01*
X4781581Y-5777570D01*
X4781581Y-5777570D01*
X4782590Y-5777841D01*
X4786356Y-5778850D01*
X4786357Y-5778850D01*
X4822160Y-5778850D01*
X4828864Y-5780818D01*
X4833439Y-5786099D01*
X4834208Y-5788952D01*
X4834331Y-5788927D01*
X4835613Y-5795373D01*
X4835613Y-5795373D01*
X4840045Y-5802005D01*
X4846677Y-5806437D01*
X4846677Y-5806437D01*
X4852525Y-5807600D01*
X4852525Y-5807600D01*
X4852525Y-5807600D01*
X4906475Y-5807600D01*
X4906475Y-5807600D01*
X4907957Y-5807305D01*
X4912323Y-5806437D01*
X4912323Y-5806437D01*
X4917589Y-5802918D01*
X4924257Y-5800830D01*
X4930995Y-5802679D01*
X4935664Y-5807876D01*
X4936096Y-5808895D01*
X4937164Y-5811758D01*
X4937165Y-5811759D01*
X4945781Y-5823269D01*
X4945781Y-5823269D01*
X4957000Y-5831667D01*
X4961187Y-5837261D01*
X4961685Y-5844230D01*
X4958337Y-5850362D01*
X4952561Y-5853627D01*
X4944427Y-5855650D01*
X4944426Y-5855651D01*
X4928188Y-5863704D01*
X4928188Y-5863704D01*
X4914060Y-5875060D01*
X4914060Y-5875060D01*
X4902704Y-5889188D01*
X4902704Y-5889188D01*
X4894651Y-5905426D01*
X4894651Y-5905427D01*
X4890276Y-5923016D01*
X4890000Y-5927087D01*
X4890000Y-6076000D01*
X5043014Y-6076000D01*
X5040000Y-6091151D01*
X5040000Y-6110849D01*
X5043014Y-6126000D01*
X4890000Y-6126000D01*
X4890000Y-6274913D01*
X4890276Y-6278983D01*
X4894651Y-6296573D01*
X4894651Y-6296573D01*
X4902704Y-6312812D01*
X4902704Y-6312812D01*
X4914060Y-6326940D01*
X4914060Y-6326940D01*
X4928188Y-6338296D01*
X4928188Y-6338296D01*
X4944612Y-6346441D01*
X4949743Y-6351183D01*
X4951496Y-6357947D01*
X4949314Y-6364584D01*
X4943890Y-6368988D01*
X4939102Y-6369950D01*
X4742400Y-6369950D01*
X4735696Y-6367981D01*
X4731121Y-6362701D01*
X4730000Y-6357550D01*
X4730000Y-5763040D01*
X4731969Y-5756336D01*
X4737249Y-5751760D01*
X4744165Y-5750766D01*
X4750520Y-5753669D01*
G37*
%TD.AperFunction*%
%TA.AperFunction,Conductor*%
G36*
X5467572Y-5321969D02*
G01*
X5472148Y-5327249D01*
X5473142Y-5334165D01*
X5470240Y-5340520D01*
X5465202Y-5344018D01*
X5455291Y-5347715D01*
X5455291Y-5347715D01*
X5443781Y-5356331D01*
X5443781Y-5356331D01*
X5435165Y-5367841D01*
X5435165Y-5367841D01*
X5430140Y-5381312D01*
X5430140Y-5381313D01*
X5429500Y-5387266D01*
X5429500Y-5549800D01*
X5970500Y-5549800D01*
X5970500Y-5387267D01*
X5970500Y-5387266D01*
X5969860Y-5381313D01*
X5969860Y-5381312D01*
X5964835Y-5367841D01*
X5964835Y-5367841D01*
X5956219Y-5356331D01*
X5956219Y-5356331D01*
X5944709Y-5347715D01*
X5944709Y-5347715D01*
X5934798Y-5344018D01*
X5929205Y-5339831D01*
X5926763Y-5333285D01*
X5928248Y-5326457D01*
X5933189Y-5321517D01*
X5939131Y-5320000D01*
X6017600Y-5320000D01*
X6024304Y-5321969D01*
X6028879Y-5327249D01*
X6030000Y-5332400D01*
X6030000Y-5973957D01*
X6028031Y-5980661D01*
X6022751Y-5985236D01*
X6015835Y-5986231D01*
X6011970Y-5985005D01*
X6001841Y-5979844D01*
X6001841Y-5979844D01*
X6001841Y-5979844D01*
X5981624Y-5973275D01*
X5981624Y-5973275D01*
X5981624Y-5973275D01*
X5965496Y-5970721D01*
X5960629Y-5969950D01*
X5939371Y-5969950D01*
X5934504Y-5970721D01*
X5918376Y-5973275D01*
X5898158Y-5979844D01*
X5879218Y-5989495D01*
X5862021Y-6001989D01*
X5846989Y-6017021D01*
X5834495Y-6034218D01*
X5824844Y-6053158D01*
X5818275Y-6073376D01*
X5814950Y-6094371D01*
X5814950Y-6115629D01*
X5818275Y-6136624D01*
X5824844Y-6156841D01*
X5834495Y-6175782D01*
X5846989Y-6192979D01*
X5862021Y-6208011D01*
X5879218Y-6220505D01*
X5879218Y-6220505D01*
X5879218Y-6220505D01*
X5898159Y-6230156D01*
X5918376Y-6236725D01*
X5939371Y-6240050D01*
X5939371Y-6240050D01*
X5960629Y-6240050D01*
X5960629Y-6240050D01*
X5981624Y-6236725D01*
X6001841Y-6230156D01*
X6001841Y-6230155D01*
X6001842Y-6230155D01*
X6001842Y-6230155D01*
X6011970Y-6224995D01*
X6018837Y-6223705D01*
X6025311Y-6226332D01*
X6029337Y-6232043D01*
X6030000Y-6236043D01*
X6030000Y-6287428D01*
X6029738Y-6288321D01*
X6029867Y-6289242D01*
X6028769Y-6291620D01*
X6028031Y-6294132D01*
X6027251Y-6294910D01*
X6026939Y-6295586D01*
X6024262Y-6297886D01*
X6010432Y-6306697D01*
X6009495Y-6307238D01*
X5974090Y-6325669D01*
X5973110Y-6326126D01*
X5936232Y-6341401D01*
X5935216Y-6341771D01*
X5897149Y-6353774D01*
X5896104Y-6354054D01*
X5857134Y-6362693D01*
X5856068Y-6362881D01*
X5816496Y-6368091D01*
X5815418Y-6368185D01*
X5775270Y-6369938D01*
X5774729Y-6369950D01*
X5340898Y-6369950D01*
X5334194Y-6367981D01*
X5329618Y-6362701D01*
X5328624Y-6355785D01*
X5331527Y-6349430D01*
X5335388Y-6346441D01*
X5351812Y-6338296D01*
X5351812Y-6338296D01*
X5365940Y-6326940D01*
X5365940Y-6326940D01*
X5377296Y-6312812D01*
X5377296Y-6312812D01*
X5385349Y-6296573D01*
X5385349Y-6296573D01*
X5389724Y-6278983D01*
X5390000Y-6274913D01*
X5390000Y-6126000D01*
X5236986Y-6126000D01*
X5240000Y-6110849D01*
X5240000Y-6091151D01*
X5236986Y-6076000D01*
X5390000Y-6076000D01*
X5390000Y-5927087D01*
X5389724Y-5923016D01*
X5385349Y-5905427D01*
X5385349Y-5905426D01*
X5377296Y-5889188D01*
X5377296Y-5889188D01*
X5365940Y-5875060D01*
X5365940Y-5875060D01*
X5351812Y-5863704D01*
X5351812Y-5863704D01*
X5335574Y-5855651D01*
X5335573Y-5855650D01*
X5317680Y-5851201D01*
X5311650Y-5847672D01*
X5308911Y-5842284D01*
X5429500Y-5842284D01*
X5430140Y-5848237D01*
X5430140Y-5848238D01*
X5435165Y-5861709D01*
X5435165Y-5861709D01*
X5443781Y-5873219D01*
X5443781Y-5873219D01*
X5455291Y-5881835D01*
X5455291Y-5881835D01*
X5468762Y-5886860D01*
X5468763Y-5886860D01*
X5474716Y-5887500D01*
X5474717Y-5887500D01*
X5484500Y-5887500D01*
X5534500Y-5887500D01*
X5544283Y-5887500D01*
X5544284Y-5887500D01*
X5550237Y-5886860D01*
X5550238Y-5886860D01*
X5563709Y-5881835D01*
X5565569Y-5880443D01*
X5572115Y-5878001D01*
X5578942Y-5879486D01*
X5580431Y-5880443D01*
X5582291Y-5881835D01*
X5595762Y-5886860D01*
X5595763Y-5886860D01*
X5601715Y-5887500D01*
X5601717Y-5887500D01*
X5611500Y-5887500D01*
X5661500Y-5887500D01*
X5671283Y-5887500D01*
X5671284Y-5887500D01*
X5677237Y-5886860D01*
X5677238Y-5886860D01*
X5690709Y-5881835D01*
X5692569Y-5880443D01*
X5699115Y-5878001D01*
X5705942Y-5879486D01*
X5707431Y-5880443D01*
X5709291Y-5881835D01*
X5722762Y-5886860D01*
X5722763Y-5886860D01*
X5728715Y-5887500D01*
X5728717Y-5887500D01*
X5738500Y-5887500D01*
X5788500Y-5887500D01*
X5798283Y-5887500D01*
X5798284Y-5887500D01*
X5804237Y-5886860D01*
X5804238Y-5886860D01*
X5817709Y-5881835D01*
X5819569Y-5880443D01*
X5826115Y-5878001D01*
X5832942Y-5879486D01*
X5834431Y-5880443D01*
X5836291Y-5881835D01*
X5849762Y-5886860D01*
X5849763Y-5886860D01*
X5855715Y-5887500D01*
X5855717Y-5887500D01*
X5865500Y-5887500D01*
X5915500Y-5887500D01*
X5925283Y-5887500D01*
X5925284Y-5887500D01*
X5931237Y-5886860D01*
X5931238Y-5886860D01*
X5944709Y-5881835D01*
X5944709Y-5881835D01*
X5956219Y-5873219D01*
X5956219Y-5873219D01*
X5964835Y-5861709D01*
X5964835Y-5861709D01*
X5969860Y-5848238D01*
X5969860Y-5848237D01*
X5970500Y-5842284D01*
X5970500Y-5842283D01*
X5970500Y-5822500D01*
X5915500Y-5822500D01*
X5915500Y-5887500D01*
X5865500Y-5887500D01*
X5865500Y-5822500D01*
X5788500Y-5822500D01*
X5788500Y-5887500D01*
X5738500Y-5887500D01*
X5738500Y-5822500D01*
X5661500Y-5822500D01*
X5661500Y-5887500D01*
X5611500Y-5887500D01*
X5611500Y-5822500D01*
X5534500Y-5822500D01*
X5534500Y-5887500D01*
X5484500Y-5887500D01*
X5484500Y-5822500D01*
X5429500Y-5822500D01*
X5429500Y-5842284D01*
X5308911Y-5842284D01*
X5308484Y-5841444D01*
X5309188Y-5834492D01*
X5313242Y-5829240D01*
X5321219Y-5823269D01*
X5329835Y-5811759D01*
X5329835Y-5811758D01*
X5334860Y-5798288D01*
X5334860Y-5798287D01*
X5335500Y-5792334D01*
X5335500Y-5792333D01*
X5335500Y-5772500D01*
X5429500Y-5772500D01*
X5970500Y-5772500D01*
X5970500Y-5599800D01*
X5429500Y-5599800D01*
X5429500Y-5772500D01*
X5335500Y-5772500D01*
X5335500Y-5766300D01*
X5158500Y-5766300D01*
X5158500Y-5837550D01*
X5161368Y-5840418D01*
X5164717Y-5846550D01*
X5165000Y-5849186D01*
X5165000Y-6004014D01*
X5149849Y-6001000D01*
X5130151Y-6001000D01*
X5115000Y-6004014D01*
X5115000Y-5851000D01*
X5112132Y-5848132D01*
X5108783Y-5842000D01*
X5108500Y-5839364D01*
X5108500Y-5766300D01*
X5018900Y-5766300D01*
X5012196Y-5764331D01*
X5007621Y-5759051D01*
X5006500Y-5753900D01*
X5006500Y-5741300D01*
X4993900Y-5741300D01*
X4987196Y-5739331D01*
X4982621Y-5734051D01*
X4981500Y-5728900D01*
X4981500Y-5716300D01*
X5031500Y-5716300D01*
X5108500Y-5716300D01*
X5158500Y-5716300D01*
X5235500Y-5716300D01*
X5285500Y-5716300D01*
X5335500Y-5716300D01*
X5335500Y-5690267D01*
X5335500Y-5690265D01*
X5334860Y-5684313D01*
X5334860Y-5684312D01*
X5329835Y-5670841D01*
X5329835Y-5670841D01*
X5321219Y-5659331D01*
X5321219Y-5659331D01*
X5309709Y-5650715D01*
X5309709Y-5650714D01*
X5296238Y-5645690D01*
X5296237Y-5645690D01*
X5290284Y-5645050D01*
X5285500Y-5645050D01*
X5285500Y-5716300D01*
X5235500Y-5716300D01*
X5235500Y-5645050D01*
X5230716Y-5645050D01*
X5224763Y-5645690D01*
X5224762Y-5645690D01*
X5211291Y-5650714D01*
X5211291Y-5650715D01*
X5204431Y-5655850D01*
X5197885Y-5658292D01*
X5191057Y-5656807D01*
X5189569Y-5655850D01*
X5182709Y-5650715D01*
X5182709Y-5650714D01*
X5169238Y-5645690D01*
X5169237Y-5645690D01*
X5163284Y-5645050D01*
X5158500Y-5645050D01*
X5158500Y-5716300D01*
X5108500Y-5716300D01*
X5108500Y-5645050D01*
X5103716Y-5645050D01*
X5097763Y-5645690D01*
X5097762Y-5645690D01*
X5084291Y-5650714D01*
X5084291Y-5650715D01*
X5077431Y-5655850D01*
X5070885Y-5658292D01*
X5064057Y-5656807D01*
X5062569Y-5655850D01*
X5055709Y-5650715D01*
X5055709Y-5650714D01*
X5042238Y-5645690D01*
X5042237Y-5645690D01*
X5036284Y-5645050D01*
X5031500Y-5645050D01*
X5031500Y-5716300D01*
X4981500Y-5716300D01*
X4981500Y-5645050D01*
X4976716Y-5645050D01*
X4970763Y-5645690D01*
X4970762Y-5645690D01*
X4957291Y-5650714D01*
X4957291Y-5650715D01*
X4945781Y-5659331D01*
X4945781Y-5659331D01*
X4937165Y-5670841D01*
X4937165Y-5670841D01*
X4936096Y-5673705D01*
X4931909Y-5679298D01*
X4925363Y-5681740D01*
X4918535Y-5680255D01*
X4917589Y-5679682D01*
X4912323Y-5676163D01*
X4912323Y-5676163D01*
X4906475Y-5675000D01*
X4906475Y-5675000D01*
X4852525Y-5675000D01*
X4852525Y-5675000D01*
X4846677Y-5676163D01*
X4846677Y-5676163D01*
X4840045Y-5680595D01*
X4835613Y-5687227D01*
X4835613Y-5687227D01*
X4834331Y-5693673D01*
X4834192Y-5693645D01*
X4833093Y-5696051D01*
X4831885Y-5699044D01*
X4831650Y-5699209D01*
X4831531Y-5699470D01*
X4828816Y-5701215D01*
X4826181Y-5703080D01*
X4825821Y-5703140D01*
X4825653Y-5703248D01*
X4822160Y-5703750D01*
X4812286Y-5703750D01*
X4805582Y-5701781D01*
X4801006Y-5696501D01*
X4800338Y-5694175D01*
X4800260Y-5694196D01*
X4800050Y-5693411D01*
X4796639Y-5680681D01*
X4796589Y-5680595D01*
X4795756Y-5679152D01*
X4790050Y-5669269D01*
X4780731Y-5659950D01*
X4773630Y-5655850D01*
X4769319Y-5653361D01*
X4762954Y-5651655D01*
X4756589Y-5649950D01*
X4743411Y-5649950D01*
X4742598Y-5649950D01*
X4742598Y-5649649D01*
X4737111Y-5648791D01*
X4731887Y-5644151D01*
X4730000Y-5637576D01*
X4730000Y-5622400D01*
X4731969Y-5615696D01*
X4737249Y-5611121D01*
X4742400Y-5610000D01*
X5330000Y-5610000D01*
X5330000Y-5332400D01*
X5331969Y-5325696D01*
X5337249Y-5321121D01*
X5342400Y-5320000D01*
X5460869Y-5320000D01*
X5467572Y-5321969D01*
G37*
%TD.AperFunction*%
%TD*%
%TA.AperFunction,Conductor*%
%TO.N,GND*%
G36*
X2466108Y-2786785D02*
G01*
X2464950Y-2792608D01*
X2464950Y-2882827D01*
X2464168Y-2887160D01*
X2460591Y-2896752D01*
X2459950Y-2902713D01*
X2459950Y-2957600D01*
X2457982Y-2964304D01*
X2452701Y-2968879D01*
X2447550Y-2970000D01*
X2445000Y-2970000D01*
X2445000Y-2982600D01*
X2443032Y-2989304D01*
X2437751Y-2993879D01*
X2432600Y-2995000D01*
X2370000Y-2995000D01*
X2366000Y-2990000D01*
X2324601Y-2990000D01*
X2324304Y-2989703D01*
X2324304Y-2989703D01*
X2309871Y-2980800D01*
X2309870Y-2980800D01*
X2309870Y-2980800D01*
X2309869Y-2980800D01*
X2293771Y-2975465D01*
X2283835Y-2974450D01*
X2283835Y-2974450D01*
X2256081Y-2974450D01*
X2249377Y-2972481D01*
X2247313Y-2970818D01*
X2208682Y-2932187D01*
X2207212Y-2929494D01*
X2205552Y-2926913D01*
X2205463Y-2926293D01*
X2205333Y-2926055D01*
X2205050Y-2923419D01*
X2205050Y-2902715D01*
X2365000Y-2902715D01*
X2365000Y-2945000D01*
X2420000Y-2945000D01*
X2420000Y-2857500D01*
X2410216Y-2857500D01*
X2404263Y-2858140D01*
X2404262Y-2858140D01*
X2390791Y-2863164D01*
X2390791Y-2863165D01*
X2379281Y-2871781D01*
X2379281Y-2871781D01*
X2370665Y-2883291D01*
X2370665Y-2883291D01*
X2365640Y-2896762D01*
X2365640Y-2896763D01*
X2365000Y-2902715D01*
X2205050Y-2902715D01*
X2205050Y-2847081D01*
X2207019Y-2840377D01*
X2208682Y-2838313D01*
X2281995Y-2765000D01*
X2461000Y-2765000D01*
X2466108Y-2786785D01*
G37*
%TD.AperFunction*%
%TD*%
%TA.AperFunction,Conductor*%
%TO.N,GND*%
G36*
X5775270Y-2030062D02*
G01*
X5815420Y-2031815D01*
X5816494Y-2031909D01*
X5856069Y-2037119D01*
X5857133Y-2037306D01*
X5896104Y-2045946D01*
X5897148Y-2046226D01*
X5935217Y-2058229D01*
X5936231Y-2058598D01*
X5973110Y-2073874D01*
X5974089Y-2074330D01*
X6009494Y-2092761D01*
X6010431Y-2093302D01*
X6044096Y-2114749D01*
X6044982Y-2115369D01*
X6076649Y-2139668D01*
X6077477Y-2140363D01*
X6106906Y-2167329D01*
X6107670Y-2168094D01*
X6134636Y-2197523D01*
X6135332Y-2198351D01*
X6159631Y-2230018D01*
X6160251Y-2230904D01*
X6181698Y-2264569D01*
X6182239Y-2265506D01*
X6200669Y-2300910D01*
X6201126Y-2301890D01*
X6216401Y-2338767D01*
X6216771Y-2339784D01*
X6228774Y-2377851D01*
X6229054Y-2378896D01*
X6237693Y-2417866D01*
X6237881Y-2418931D01*
X6243091Y-2458504D01*
X6243185Y-2459582D01*
X6244938Y-2499730D01*
X6244950Y-2500271D01*
X6244950Y-5899729D01*
X6244938Y-5900270D01*
X6243185Y-5940418D01*
X6243091Y-5941496D01*
X6237881Y-5981068D01*
X6237693Y-5982134D01*
X6229054Y-6021104D01*
X6228774Y-6022149D01*
X6216771Y-6060216D01*
X6216401Y-6061232D01*
X6201126Y-6098110D01*
X6200669Y-6099090D01*
X6182239Y-6134494D01*
X6181698Y-6135431D01*
X6160251Y-6169096D01*
X6159631Y-6169982D01*
X6135332Y-6201649D01*
X6134636Y-6202477D01*
X6107670Y-6231906D01*
X6106906Y-6232670D01*
X6106906Y-6232671D01*
X6100800Y-6238265D01*
X6094527Y-6241343D01*
X6087586Y-6240541D01*
X6082181Y-6236114D01*
X6080064Y-6230140D01*
X6079870Y-6227780D01*
X6079870Y-6227780D01*
X6079870Y-6227779D01*
X6079207Y-6223779D01*
X6077185Y-6215737D01*
X6077185Y-6215737D01*
X6077185Y-6215736D01*
X6073377Y-6208263D01*
X6070653Y-6202917D01*
X6068960Y-6200517D01*
X6066628Y-6197207D01*
X6066627Y-6197206D01*
X6064259Y-6194699D01*
X6061087Y-6188474D01*
X6061784Y-6181522D01*
X6063242Y-6178896D01*
X6065505Y-6175782D01*
X6075156Y-6156841D01*
X6081725Y-6136624D01*
X6085050Y-6115629D01*
X6085050Y-6094371D01*
X6081725Y-6073376D01*
X6075156Y-6053159D01*
X6065505Y-6034218D01*
X6063232Y-6031090D01*
X6060884Y-6024509D01*
X6062467Y-6017704D01*
X6063892Y-6015682D01*
X6070557Y-6007990D01*
X6076534Y-5994903D01*
X6078502Y-5988199D01*
X6078502Y-5988198D01*
X6080550Y-5973957D01*
X6080550Y-5332400D01*
X6079395Y-5321654D01*
X6078274Y-5316503D01*
X6077868Y-5315283D01*
X6074862Y-5306250D01*
X6074861Y-5306250D01*
X6071043Y-5300309D01*
X6067082Y-5294146D01*
X6066614Y-5293605D01*
X6062508Y-5288866D01*
X6062507Y-5288866D01*
X6062507Y-5288865D01*
X6051634Y-5279443D01*
X6051633Y-5279443D01*
X6051633Y-5279443D01*
X6038546Y-5273466D01*
X6038546Y-5273466D01*
X6038546Y-5273466D01*
X6031842Y-5271498D01*
X6031842Y-5271498D01*
X6031842Y-5271498D01*
X6027094Y-5270815D01*
X6017600Y-5269450D01*
X6017600Y-5269450D01*
X5977950Y-5269450D01*
X5971246Y-5267482D01*
X5966671Y-5262201D01*
X5965550Y-5257050D01*
X5965550Y-5167663D01*
X5965550Y-5167662D01*
X5965379Y-5166078D01*
X5964909Y-5161702D01*
X5963271Y-5157310D01*
X5962394Y-5154959D01*
X5959880Y-5148217D01*
X5959879Y-5148217D01*
X5959567Y-5147644D01*
X5958050Y-5141701D01*
X5958050Y-5083847D01*
X5958050Y-5083846D01*
X5957892Y-5083050D01*
X5955454Y-5070797D01*
X5955454Y-5070797D01*
X5955454Y-5070796D01*
X5952038Y-5062550D01*
X5951278Y-5060714D01*
X5951278Y-5060714D01*
X5950747Y-5059434D01*
X5950362Y-5058503D01*
X5949725Y-5057550D01*
X5942970Y-5047440D01*
X5942970Y-5047440D01*
X5942969Y-5047439D01*
X5933561Y-5038031D01*
X5868359Y-4972829D01*
X5803061Y-4907531D01*
X5803060Y-4907530D01*
X5791997Y-4900138D01*
X5791996Y-4900138D01*
X5779704Y-4895046D01*
X5779703Y-4895046D01*
X5766653Y-4892450D01*
X5766653Y-4892450D01*
X5696652Y-4892450D01*
X5689948Y-4890482D01*
X5687884Y-4888818D01*
X5676019Y-4876953D01*
X5661461Y-4868152D01*
X5659864Y-4867655D01*
X5645220Y-4863091D01*
X5645219Y-4863091D01*
X5645219Y-4863091D01*
X5640278Y-4862642D01*
X5638162Y-4862450D01*
X5586838Y-4862450D01*
X5584915Y-4862625D01*
X5579781Y-4863091D01*
X5563539Y-4868152D01*
X5548981Y-4876953D01*
X5538768Y-4887166D01*
X5537968Y-4887603D01*
X5537421Y-4888332D01*
X5534950Y-4889251D01*
X5532636Y-4890515D01*
X5531727Y-4890450D01*
X5530872Y-4890767D01*
X5528296Y-4890204D01*
X5525667Y-4890016D01*
X5524756Y-4889430D01*
X5524046Y-4889275D01*
X5521223Y-4887157D01*
X5521173Y-4887107D01*
X5517831Y-4880972D01*
X5517550Y-4878348D01*
X5517550Y-4682046D01*
X5519519Y-4675342D01*
X5521182Y-4673277D01*
X5521254Y-4673205D01*
X5521254Y-4673205D01*
X5521255Y-4673205D01*
X5529880Y-4661683D01*
X5534909Y-4648198D01*
X5535550Y-4642237D01*
X5535550Y-4608547D01*
X5537518Y-4601843D01*
X5542799Y-4597268D01*
X5549715Y-4596273D01*
X5556070Y-4599176D01*
X5557535Y-4600681D01*
X5557821Y-4601029D01*
X5568971Y-4612179D01*
X5568971Y-4612179D01*
X5582081Y-4620939D01*
X5582083Y-4620940D01*
X5595124Y-4626342D01*
X5596650Y-4626974D01*
X5610763Y-4629781D01*
X5612115Y-4630050D01*
X5612116Y-4630050D01*
X5612116Y-4630050D01*
X5627884Y-4630050D01*
X5627884Y-4630050D01*
X5643350Y-4626974D01*
X5655159Y-4622082D01*
X5657917Y-4620940D01*
X5657917Y-4620940D01*
X5657918Y-4620939D01*
X5661380Y-4618626D01*
X5668048Y-4616538D01*
X5674786Y-4618387D01*
X5677355Y-4620633D01*
X5677390Y-4620598D01*
X5688971Y-4632179D01*
X5688971Y-4632179D01*
X5702081Y-4640939D01*
X5702083Y-4640940D01*
X5713930Y-4645847D01*
X5716650Y-4646974D01*
X5732115Y-4650050D01*
X5732116Y-4650050D01*
X5732116Y-4650050D01*
X5747884Y-4650050D01*
X5747884Y-4650050D01*
X5763350Y-4646974D01*
X5777918Y-4640939D01*
X5791029Y-4632179D01*
X5802179Y-4621029D01*
X5810939Y-4607918D01*
X5816974Y-4593350D01*
X5820050Y-4577884D01*
X5820050Y-4562116D01*
X5820050Y-4562116D01*
X5820050Y-4562115D01*
X5818963Y-4556650D01*
X5816974Y-4546650D01*
X5811181Y-4532666D01*
X5810940Y-4532083D01*
X5810939Y-4532081D01*
X5802179Y-4518971D01*
X5802179Y-4518971D01*
X5791029Y-4507821D01*
X5791029Y-4507821D01*
X5777918Y-4499061D01*
X5777917Y-4499060D01*
X5763350Y-4493026D01*
X5763349Y-4493026D01*
X5747884Y-4489950D01*
X5747884Y-4489950D01*
X5732116Y-4489950D01*
X5732115Y-4489950D01*
X5716651Y-4493026D01*
X5716650Y-4493026D01*
X5702083Y-4499060D01*
X5702081Y-4499061D01*
X5698620Y-4501374D01*
X5691952Y-4503462D01*
X5685214Y-4501613D01*
X5682645Y-4499367D01*
X5682610Y-4499402D01*
X5671029Y-4487821D01*
X5671029Y-4487821D01*
X5657918Y-4479061D01*
X5657917Y-4479060D01*
X5643350Y-4473026D01*
X5643349Y-4473026D01*
X5627884Y-4469950D01*
X5627884Y-4469950D01*
X5612116Y-4469950D01*
X5612115Y-4469950D01*
X5596651Y-4473026D01*
X5596650Y-4473026D01*
X5582083Y-4479060D01*
X5582081Y-4479061D01*
X5568971Y-4487821D01*
X5568971Y-4487821D01*
X5557821Y-4498971D01*
X5557535Y-4499319D01*
X5551761Y-4503253D01*
X5544776Y-4503440D01*
X5538799Y-4499821D01*
X5535728Y-4493546D01*
X5535550Y-4491453D01*
X5535550Y-4480163D01*
X5535550Y-4480162D01*
X5535431Y-4479060D01*
X5534909Y-4474202D01*
X5534471Y-4473026D01*
X5529880Y-4460717D01*
X5529879Y-4460716D01*
X5521255Y-4449196D01*
X5521254Y-4449195D01*
X5509734Y-4440571D01*
X5509733Y-4440570D01*
X5496248Y-4435541D01*
X5496248Y-4435541D01*
X5490288Y-4434900D01*
X5490288Y-4434900D01*
X5490287Y-4434900D01*
X5490286Y-4434900D01*
X5410713Y-4434900D01*
X5410712Y-4434900D01*
X5404752Y-4435541D01*
X5391333Y-4440546D01*
X5389121Y-4440704D01*
X5386992Y-4441327D01*
X5385124Y-4440990D01*
X5384364Y-4441044D01*
X5383499Y-4440823D01*
X5382792Y-4440615D01*
X5382733Y-4440570D01*
X5369248Y-4435541D01*
X5363424Y-4434915D01*
X5362356Y-4434600D01*
X5360317Y-4433288D01*
X5358076Y-4432360D01*
X5357089Y-4431473D01*
X5273705Y-4348089D01*
X5273705Y-4348089D01*
X5262231Y-4340422D01*
X5249483Y-4335142D01*
X5249482Y-4335142D01*
X5235950Y-4332450D01*
X5235949Y-4332450D01*
X5235949Y-4332450D01*
X4965187Y-4332450D01*
X4958484Y-4330482D01*
X4956419Y-4328818D01*
X4950304Y-4322703D01*
X4950304Y-4322703D01*
X4935871Y-4313800D01*
X4935870Y-4313800D01*
X4935870Y-4313800D01*
X4935869Y-4313800D01*
X4919771Y-4308465D01*
X4909835Y-4307450D01*
X4850166Y-4307450D01*
X4850164Y-4307450D01*
X4840229Y-4308465D01*
X4840229Y-4308465D01*
X4824131Y-4313800D01*
X4824129Y-4313800D01*
X4809696Y-4322703D01*
X4809696Y-4322703D01*
X4797703Y-4334696D01*
X4797703Y-4334696D01*
X4788800Y-4349129D01*
X4788800Y-4349131D01*
X4783465Y-4365229D01*
X4782450Y-4375165D01*
X4782450Y-4429834D01*
X4782450Y-4429836D01*
X4783465Y-4439771D01*
X4783465Y-4439771D01*
X4788800Y-4455869D01*
X4788800Y-4455871D01*
X4797703Y-4470304D01*
X4797703Y-4470304D01*
X4798631Y-4471232D01*
X4801979Y-4477364D01*
X4801481Y-4484333D01*
X4798631Y-4488768D01*
X4797703Y-4489696D01*
X4797703Y-4489696D01*
X4788800Y-4504129D01*
X4788800Y-4504131D01*
X4783465Y-4520229D01*
X4782450Y-4530165D01*
X4782450Y-4554384D01*
X4780482Y-4561088D01*
X4778818Y-4563152D01*
X4732531Y-4609439D01*
X4732530Y-4609439D01*
X4725138Y-4620502D01*
X4725138Y-4620503D01*
X4720046Y-4632796D01*
X4720046Y-4632796D01*
X4718277Y-4641687D01*
X4718180Y-4642179D01*
X4717450Y-4645847D01*
X4717450Y-4666051D01*
X4716958Y-4669510D01*
X4714599Y-4677629D01*
X4712723Y-4684085D01*
X4712723Y-4684085D01*
X4712450Y-4687559D01*
X4712450Y-4737439D01*
X4712450Y-4737442D01*
X4712723Y-4740915D01*
X4712723Y-4740916D01*
X4712724Y-4740916D01*
X4717045Y-4755789D01*
X4717045Y-4755789D01*
X4724928Y-4769119D01*
X4724929Y-4769120D01*
X4735880Y-4780071D01*
X4735881Y-4780072D01*
X4738498Y-4781620D01*
X4749211Y-4787956D01*
X4764084Y-4792277D01*
X4767560Y-4792550D01*
X4802440Y-4792550D01*
X4805916Y-4792277D01*
X4820789Y-4787956D01*
X4834120Y-4780072D01*
X4845072Y-4769120D01*
X4852956Y-4755789D01*
X4857277Y-4740916D01*
X4857550Y-4737441D01*
X4857550Y-4720344D01*
X4859518Y-4713640D01*
X4864799Y-4709064D01*
X4871715Y-4708070D01*
X4878070Y-4710973D01*
X4880260Y-4713455D01*
X4885321Y-4721029D01*
X4885321Y-4721029D01*
X4896471Y-4732179D01*
X4896471Y-4732179D01*
X4909581Y-4740939D01*
X4909583Y-4740940D01*
X4924150Y-4746974D01*
X4924150Y-4746974D01*
X4936718Y-4749474D01*
X4939615Y-4750050D01*
X4939616Y-4750050D01*
X4939616Y-4750050D01*
X4955384Y-4750050D01*
X4955385Y-4750050D01*
X4970850Y-4746974D01*
X4985418Y-4740939D01*
X4998529Y-4732179D01*
X5009679Y-4721029D01*
X5018439Y-4707918D01*
X5023726Y-4695154D01*
X5028110Y-4689714D01*
X5034739Y-4687508D01*
X5035177Y-4687500D01*
X5109287Y-4687500D01*
X5109287Y-4687500D01*
X5109289Y-4687500D01*
X5112180Y-4687189D01*
X5112724Y-4687130D01*
X5119600Y-4688371D01*
X5124714Y-4693132D01*
X5126450Y-4699459D01*
X5126450Y-4859413D01*
X5124482Y-4866117D01*
X5119201Y-4870692D01*
X5112285Y-4871687D01*
X5110361Y-4871252D01*
X5105535Y-4869748D01*
X5100220Y-4868091D01*
X5093162Y-4867450D01*
X5041838Y-4867450D01*
X5040347Y-4867586D01*
X5034781Y-4868091D01*
X5018539Y-4873152D01*
X5003981Y-4881953D01*
X5003981Y-4881953D01*
X4992116Y-4893818D01*
X4985984Y-4897167D01*
X4983348Y-4897450D01*
X4948347Y-4897450D01*
X4935297Y-4900046D01*
X4935296Y-4900046D01*
X4923004Y-4905138D01*
X4923002Y-4905139D01*
X4911940Y-4912530D01*
X4911939Y-4912531D01*
X4895294Y-4929176D01*
X4890817Y-4932042D01*
X4889901Y-4932380D01*
X4886650Y-4933026D01*
X4874473Y-4938070D01*
X4874241Y-4938156D01*
X4870990Y-4938376D01*
X4867748Y-4938725D01*
X4867522Y-4938612D01*
X4867270Y-4938629D01*
X4864415Y-4937057D01*
X4861500Y-4935597D01*
X4861371Y-4935380D01*
X4861150Y-4935258D01*
X4859599Y-4932392D01*
X4857935Y-4929588D01*
X4857891Y-4929238D01*
X4857824Y-4929114D01*
X4857843Y-4928857D01*
X4857550Y-4926522D01*
X4857550Y-4897560D01*
X4857277Y-4894084D01*
X4852956Y-4879211D01*
X4845072Y-4865880D01*
X4845071Y-4865880D01*
X4845071Y-4865880D01*
X4834120Y-4854929D01*
X4834119Y-4854928D01*
X4825702Y-4849950D01*
X4820789Y-4847045D01*
X4805916Y-4842724D01*
X4805915Y-4842723D01*
X4805915Y-4842723D01*
X4802840Y-4842481D01*
X4802441Y-4842450D01*
X4802440Y-4842450D01*
X4767561Y-4842450D01*
X4767558Y-4842450D01*
X4764085Y-4842723D01*
X4761642Y-4843433D01*
X4749211Y-4847045D01*
X4749211Y-4847045D01*
X4749211Y-4847045D01*
X4735209Y-4855326D01*
X4735126Y-4855185D01*
X4729480Y-4857402D01*
X4728384Y-4857450D01*
X4694078Y-4857450D01*
X4691134Y-4856586D01*
X4688136Y-4855933D01*
X4687634Y-4855558D01*
X4687374Y-4855482D01*
X4685310Y-4853818D01*
X4678421Y-4846929D01*
X4678421Y-4846929D01*
X4663682Y-4832190D01*
X4660333Y-4826058D01*
X4660050Y-4823422D01*
X4660050Y-4194832D01*
X4802500Y-4194832D01*
X4803514Y-4204761D01*
X4808845Y-4220848D01*
X4808846Y-4220849D01*
X4817742Y-4235273D01*
X4817743Y-4235273D01*
X4829727Y-4247257D01*
X4829727Y-4247258D01*
X4844151Y-4256154D01*
X4844152Y-4256155D01*
X4860239Y-4261486D01*
X4870168Y-4262500D01*
X4925000Y-4262500D01*
X4929831Y-4262500D01*
X4929832Y-4262500D01*
X4939761Y-4261486D01*
X4955848Y-4256155D01*
X4955849Y-4256154D01*
X4970273Y-4247258D01*
X4970273Y-4247257D01*
X4982257Y-4235273D01*
X4982258Y-4235273D01*
X4991154Y-4220849D01*
X4991155Y-4220848D01*
X4996486Y-4204761D01*
X4997500Y-4194832D01*
X4997500Y-4194831D01*
X4997500Y-4192500D01*
X4925000Y-4192500D01*
X4925000Y-4262500D01*
X4870168Y-4262500D01*
X4875000Y-4262500D01*
X4875000Y-4262500D01*
X4875000Y-4192500D01*
X4802500Y-4192500D01*
X4802500Y-4194832D01*
X4660050Y-4194832D01*
X4660050Y-4002735D01*
X4662019Y-3996031D01*
X4667299Y-3991456D01*
X4674215Y-3990461D01*
X4679339Y-3992425D01*
X4692081Y-4000939D01*
X4692083Y-4000940D01*
X4706650Y-4006973D01*
X4706650Y-4006974D01*
X4722115Y-4010050D01*
X4722116Y-4010050D01*
X4722116Y-4010050D01*
X4737884Y-4010050D01*
X4737885Y-4010050D01*
X4753350Y-4006974D01*
X4767918Y-4000939D01*
X4781029Y-3992179D01*
X4781281Y-3991926D01*
X4781446Y-3991836D01*
X4781500Y-3991792D01*
X4781508Y-3991802D01*
X4787413Y-3988578D01*
X4794383Y-3989075D01*
X4799976Y-3993262D01*
X4802418Y-3999808D01*
X4802450Y-4000694D01*
X4802450Y-4039834D01*
X4802450Y-4039835D01*
X4803465Y-4049771D01*
X4803465Y-4049771D01*
X4808800Y-4065869D01*
X4808800Y-4065870D01*
X4817703Y-4080304D01*
X4817703Y-4080304D01*
X4818666Y-4081267D01*
X4822015Y-4087399D01*
X4821516Y-4094369D01*
X4818666Y-4098803D01*
X4817743Y-4099726D01*
X4817742Y-4099727D01*
X4808846Y-4114151D01*
X4808845Y-4114152D01*
X4803514Y-4130239D01*
X4802500Y-4140168D01*
X4802500Y-4142500D01*
X4997500Y-4142500D01*
X4997569Y-4142430D01*
X5003702Y-4139082D01*
X5010671Y-4139580D01*
X5010671Y-4139580D01*
X5023752Y-4144459D01*
X5023752Y-4144459D01*
X5023994Y-4144485D01*
X5029713Y-4145100D01*
X5109287Y-4145100D01*
X5115248Y-4144459D01*
X5128667Y-4139454D01*
X5131303Y-4139266D01*
X5133884Y-4138704D01*
X5135189Y-4138988D01*
X5135636Y-4138956D01*
X5137333Y-4139454D01*
X5139659Y-4140322D01*
X5145252Y-4144509D01*
X5147694Y-4151055D01*
X5147487Y-4154359D01*
X5144950Y-4167115D01*
X5144950Y-4182885D01*
X5148026Y-4198349D01*
X5148026Y-4198350D01*
X5154060Y-4212917D01*
X5154061Y-4212919D01*
X5162821Y-4226029D01*
X5162821Y-4226029D01*
X5173971Y-4237179D01*
X5173971Y-4237179D01*
X5187081Y-4245939D01*
X5187083Y-4245940D01*
X5201650Y-4251974D01*
X5201650Y-4251974D01*
X5217115Y-4255050D01*
X5217116Y-4255050D01*
X5217116Y-4255050D01*
X5232884Y-4255050D01*
X5232885Y-4255050D01*
X5248350Y-4251974D01*
X5262918Y-4245939D01*
X5276029Y-4237179D01*
X5287179Y-4226029D01*
X5295939Y-4212918D01*
X5301974Y-4198350D01*
X5303911Y-4188608D01*
X5305064Y-4182815D01*
X5308302Y-4176624D01*
X5308452Y-4176472D01*
X5336192Y-4148732D01*
X5342324Y-4145383D01*
X5344960Y-4145100D01*
X5363287Y-4145100D01*
X5363287Y-4145100D01*
X5369248Y-4144459D01*
X5382733Y-4139430D01*
X5382733Y-4139429D01*
X5382738Y-4139428D01*
X5389707Y-4138929D01*
X5391405Y-4139428D01*
X5404762Y-4144410D01*
X5404763Y-4144410D01*
X5410716Y-4145050D01*
X5410717Y-4145050D01*
X5425500Y-4145050D01*
X5475500Y-4145050D01*
X5490283Y-4145050D01*
X5490284Y-4145050D01*
X5496237Y-4144410D01*
X5496238Y-4144410D01*
X5509709Y-4139385D01*
X5509709Y-4139385D01*
X5521219Y-4130769D01*
X5521219Y-4130769D01*
X5529835Y-4119259D01*
X5529835Y-4119259D01*
X5534860Y-4105788D01*
X5534860Y-4105787D01*
X5535500Y-4099834D01*
X5535500Y-4099833D01*
X5535500Y-4043800D01*
X5475500Y-4043800D01*
X5475500Y-4145050D01*
X5425500Y-4145050D01*
X5425500Y-3892550D01*
X5410716Y-3892550D01*
X5404763Y-3893190D01*
X5404762Y-3893190D01*
X5391405Y-3898172D01*
X5384436Y-3898671D01*
X5382738Y-3898172D01*
X5369248Y-3893141D01*
X5369248Y-3893141D01*
X5363288Y-3892500D01*
X5363288Y-3892500D01*
X5363287Y-3892500D01*
X5363286Y-3892500D01*
X5283713Y-3892500D01*
X5283712Y-3892500D01*
X5277752Y-3893141D01*
X5273283Y-3894807D01*
X5266314Y-3895306D01*
X5260182Y-3891957D01*
X5256833Y-3885825D01*
X5256550Y-3883189D01*
X5256550Y-3850732D01*
X5258519Y-3844028D01*
X5258640Y-3843842D01*
X5259973Y-3841848D01*
X5265939Y-3832918D01*
X5271974Y-3818350D01*
X5275050Y-3802884D01*
X5275050Y-3787116D01*
X5275050Y-3787115D01*
X5275050Y-3787115D01*
X5274677Y-3785243D01*
X5271974Y-3771650D01*
X5270775Y-3768755D01*
X5265940Y-3757083D01*
X5265939Y-3757081D01*
X5265259Y-3756064D01*
X5263172Y-3749396D01*
X5265020Y-3742658D01*
X5270218Y-3737989D01*
X5273151Y-3737013D01*
X5273350Y-3736974D01*
X5287918Y-3730939D01*
X5301029Y-3722179D01*
X5312179Y-3711029D01*
X5320939Y-3697918D01*
X5326974Y-3683350D01*
X5330050Y-3667884D01*
X5330050Y-3652116D01*
X5330050Y-3652115D01*
X5330050Y-3652115D01*
X5329466Y-3649179D01*
X5326974Y-3636650D01*
X5321730Y-3623991D01*
X5320940Y-3622083D01*
X5320939Y-3622081D01*
X5319107Y-3619339D01*
X5317019Y-3612671D01*
X5318867Y-3605933D01*
X5324065Y-3601264D01*
X5329417Y-3600050D01*
X5364287Y-3600050D01*
X5364287Y-3600050D01*
X5370248Y-3599409D01*
X5383733Y-3594380D01*
X5395255Y-3585755D01*
X5395424Y-3585528D01*
X5395652Y-3585358D01*
X5395882Y-3585127D01*
X5395915Y-3585160D01*
X5401017Y-3581340D01*
X5407987Y-3580841D01*
X5414119Y-3584189D01*
X5417468Y-3590321D01*
X5417701Y-3594080D01*
X5417450Y-3596838D01*
X5417450Y-3663161D01*
X5418091Y-3670219D01*
X5418091Y-3670219D01*
X5418091Y-3670220D01*
X5423152Y-3686461D01*
X5431953Y-3701018D01*
X5438818Y-3707884D01*
X5442167Y-3714016D01*
X5442450Y-3716652D01*
X5442450Y-3744523D01*
X5440482Y-3751227D01*
X5440360Y-3751412D01*
X5431561Y-3764581D01*
X5431560Y-3764583D01*
X5425526Y-3779150D01*
X5425526Y-3779151D01*
X5422450Y-3794615D01*
X5422450Y-3810385D01*
X5425526Y-3825849D01*
X5425526Y-3825850D01*
X5431560Y-3840417D01*
X5431561Y-3840418D01*
X5440321Y-3853529D01*
X5440321Y-3853529D01*
X5451471Y-3864679D01*
X5451471Y-3864679D01*
X5464581Y-3873439D01*
X5464582Y-3873439D01*
X5468670Y-3875133D01*
X5474110Y-3879517D01*
X5476317Y-3886146D01*
X5475500Y-3889347D01*
X5475500Y-3993800D01*
X5535500Y-3993800D01*
X5535500Y-3937767D01*
X5535500Y-3937765D01*
X5534860Y-3931813D01*
X5534860Y-3931812D01*
X5529835Y-3918341D01*
X5529835Y-3918341D01*
X5521219Y-3906831D01*
X5515578Y-3902608D01*
X5511391Y-3897015D01*
X5510893Y-3890046D01*
X5514241Y-3883913D01*
X5520374Y-3880565D01*
X5520579Y-3880522D01*
X5525850Y-3879474D01*
X5540418Y-3873439D01*
X5553529Y-3864679D01*
X5564679Y-3853529D01*
X5573439Y-3840418D01*
X5579474Y-3825850D01*
X5580074Y-3822834D01*
X5580217Y-3822115D01*
X5729950Y-3822115D01*
X5729950Y-3837885D01*
X5733026Y-3853349D01*
X5733026Y-3853350D01*
X5739060Y-3867917D01*
X5739061Y-3867918D01*
X5747821Y-3881029D01*
X5747821Y-3881029D01*
X5758971Y-3892179D01*
X5758971Y-3892179D01*
X5772081Y-3900939D01*
X5772083Y-3900940D01*
X5786220Y-3906795D01*
X5786650Y-3906974D01*
X5802115Y-3910050D01*
X5802116Y-3910050D01*
X5802116Y-3910050D01*
X5817884Y-3910050D01*
X5817884Y-3910050D01*
X5833350Y-3906974D01*
X5847918Y-3900939D01*
X5861029Y-3892179D01*
X5872179Y-3881029D01*
X5880939Y-3867918D01*
X5881272Y-3867115D01*
X5884608Y-3859061D01*
X5886974Y-3853350D01*
X5890050Y-3837884D01*
X5890050Y-3822116D01*
X5890050Y-3822115D01*
X5890050Y-3822115D01*
X5889354Y-3818617D01*
X5886974Y-3806650D01*
X5886503Y-3805515D01*
X5880940Y-3792083D01*
X5880939Y-3792081D01*
X5872179Y-3778971D01*
X5872179Y-3778971D01*
X5861029Y-3767821D01*
X5861029Y-3767821D01*
X5847918Y-3759061D01*
X5847917Y-3759060D01*
X5833350Y-3753026D01*
X5833349Y-3753026D01*
X5817884Y-3749950D01*
X5817884Y-3749950D01*
X5802116Y-3749950D01*
X5802115Y-3749950D01*
X5786651Y-3753026D01*
X5786650Y-3753026D01*
X5772083Y-3759060D01*
X5772081Y-3759061D01*
X5758971Y-3767821D01*
X5758971Y-3767821D01*
X5747821Y-3778971D01*
X5747821Y-3778971D01*
X5739061Y-3792081D01*
X5739060Y-3792083D01*
X5733026Y-3806650D01*
X5733026Y-3806651D01*
X5729950Y-3822115D01*
X5580217Y-3822115D01*
X5580819Y-3819087D01*
X5580819Y-3819087D01*
X5582266Y-3811812D01*
X5582550Y-3810384D01*
X5582550Y-3794616D01*
X5582550Y-3794615D01*
X5582550Y-3794615D01*
X5582046Y-3792081D01*
X5579474Y-3779150D01*
X5577276Y-3773845D01*
X5573494Y-3764714D01*
X5572550Y-3759968D01*
X5572550Y-3716652D01*
X5573414Y-3713708D01*
X5574067Y-3710709D01*
X5574442Y-3710208D01*
X5574519Y-3709948D01*
X5576182Y-3707884D01*
X5576182Y-3707884D01*
X5581267Y-3702798D01*
X5587399Y-3699450D01*
X5594368Y-3699948D01*
X5598803Y-3702798D01*
X5609012Y-3713007D01*
X5623560Y-3721802D01*
X5623560Y-3721802D01*
X5639789Y-3726859D01*
X5639789Y-3726859D01*
X5646841Y-3727500D01*
X5646843Y-3727500D01*
X5697500Y-3727500D01*
X5698158Y-3727500D01*
X5705210Y-3726859D01*
X5705211Y-3726859D01*
X5721440Y-3721802D01*
X5735988Y-3713007D01*
X5748007Y-3700988D01*
X5756802Y-3686439D01*
X5761859Y-3670211D01*
X5762500Y-3663157D01*
X5762500Y-3655000D01*
X5697500Y-3655000D01*
X5697500Y-3727500D01*
X5646843Y-3727500D01*
X5647500Y-3727500D01*
X5647500Y-3727500D01*
X5647500Y-3605000D01*
X5697500Y-3605000D01*
X5762500Y-3605000D01*
X5762500Y-3596842D01*
X5761859Y-3589790D01*
X5761859Y-3589789D01*
X5756802Y-3573560D01*
X5748007Y-3559012D01*
X5735988Y-3546993D01*
X5721439Y-3538198D01*
X5721440Y-3538198D01*
X5705210Y-3533141D01*
X5705211Y-3533141D01*
X5698157Y-3532500D01*
X5697500Y-3532500D01*
X5697500Y-3605000D01*
X5647500Y-3605000D01*
X5647500Y-3532500D01*
X5647500Y-3532500D01*
X5646844Y-3532500D01*
X5646842Y-3532500D01*
X5639790Y-3533141D01*
X5639789Y-3533141D01*
X5623560Y-3538198D01*
X5609012Y-3546993D01*
X5609012Y-3546993D01*
X5598803Y-3557201D01*
X5592671Y-3560550D01*
X5585702Y-3560052D01*
X5581267Y-3557201D01*
X5571019Y-3546953D01*
X5569822Y-3546230D01*
X5556461Y-3538152D01*
X5540220Y-3533091D01*
X5540219Y-3533091D01*
X5540219Y-3533091D01*
X5535278Y-3532642D01*
X5533162Y-3532450D01*
X5481838Y-3532450D01*
X5480188Y-3532600D01*
X5474781Y-3533091D01*
X5458539Y-3538152D01*
X5443981Y-3546953D01*
X5431953Y-3558981D01*
X5431711Y-3559290D01*
X5431476Y-3559458D01*
X5431422Y-3559512D01*
X5431413Y-3559503D01*
X5426026Y-3563353D01*
X5419048Y-3563698D01*
X5412991Y-3560216D01*
X5409778Y-3554011D01*
X5409550Y-3551644D01*
X5409550Y-3510102D01*
X5409621Y-3508777D01*
X5409748Y-3507600D01*
X5410050Y-3504787D01*
X5410050Y-3356423D01*
X5509950Y-3356423D01*
X5509950Y-3371577D01*
X5511623Y-3377821D01*
X5513872Y-3386214D01*
X5515464Y-3388971D01*
X5521449Y-3399336D01*
X5532164Y-3410051D01*
X5545287Y-3417628D01*
X5559923Y-3421550D01*
X5559924Y-3421550D01*
X5575076Y-3421550D01*
X5575077Y-3421550D01*
X5589714Y-3417628D01*
X5602836Y-3410051D01*
X5613551Y-3399336D01*
X5621128Y-3386213D01*
X5625050Y-3371577D01*
X5625050Y-3356423D01*
X5621128Y-3341786D01*
X5621003Y-3341569D01*
X5618412Y-3337081D01*
X5613551Y-3328663D01*
X5602836Y-3317948D01*
X5594612Y-3313200D01*
X5589714Y-3310372D01*
X5576135Y-3306733D01*
X5575077Y-3306450D01*
X5559923Y-3306450D01*
X5545286Y-3310372D01*
X5532164Y-3317948D01*
X5532163Y-3317949D01*
X5521449Y-3328663D01*
X5521449Y-3328663D01*
X5513872Y-3341786D01*
X5510168Y-3355611D01*
X5509950Y-3356423D01*
X5410050Y-3356423D01*
X5410050Y-3192115D01*
X5509950Y-3192115D01*
X5509950Y-3207885D01*
X5513026Y-3223349D01*
X5513026Y-3223350D01*
X5519060Y-3237917D01*
X5519061Y-3237918D01*
X5527821Y-3251029D01*
X5527821Y-3251029D01*
X5538971Y-3262179D01*
X5538971Y-3262179D01*
X5552081Y-3270939D01*
X5552083Y-3270940D01*
X5565887Y-3276657D01*
X5566650Y-3276974D01*
X5582115Y-3280050D01*
X5582116Y-3280050D01*
X5582116Y-3280050D01*
X5597884Y-3280050D01*
X5597884Y-3280050D01*
X5613350Y-3276974D01*
X5623060Y-3272951D01*
X5630007Y-3272204D01*
X5636255Y-3275332D01*
X5636574Y-3275639D01*
X5643981Y-3283047D01*
X5643981Y-3283047D01*
X5643981Y-3283047D01*
X5658539Y-3291848D01*
X5674780Y-3296909D01*
X5681838Y-3297550D01*
X5681839Y-3297550D01*
X5733161Y-3297550D01*
X5733162Y-3297550D01*
X5740220Y-3296909D01*
X5756461Y-3291848D01*
X5771018Y-3283047D01*
X5781267Y-3272798D01*
X5787399Y-3269450D01*
X5794368Y-3269948D01*
X5798803Y-3272798D01*
X5809012Y-3283007D01*
X5823560Y-3291802D01*
X5823560Y-3291802D01*
X5839789Y-3296859D01*
X5839789Y-3296859D01*
X5846841Y-3297500D01*
X5846843Y-3297500D01*
X5897500Y-3297500D01*
X5898158Y-3297500D01*
X5905210Y-3296859D01*
X5905211Y-3296859D01*
X5921440Y-3291802D01*
X5935988Y-3283007D01*
X5948007Y-3270988D01*
X5956802Y-3256439D01*
X5961859Y-3240211D01*
X5962500Y-3233157D01*
X5962500Y-3225000D01*
X5897500Y-3225000D01*
X5897500Y-3297500D01*
X5846843Y-3297500D01*
X5847500Y-3297500D01*
X5847500Y-3297500D01*
X5847500Y-3175000D01*
X5897500Y-3175000D01*
X5962500Y-3175000D01*
X5962500Y-3166842D01*
X5961859Y-3159790D01*
X5961859Y-3159789D01*
X5956802Y-3143560D01*
X5948007Y-3129012D01*
X5935988Y-3116993D01*
X5921439Y-3108198D01*
X5921440Y-3108198D01*
X5905210Y-3103141D01*
X5905211Y-3103141D01*
X5898157Y-3102500D01*
X5897500Y-3102500D01*
X5897500Y-3175000D01*
X5847500Y-3175000D01*
X5847500Y-3102500D01*
X5847500Y-3102500D01*
X5846844Y-3102500D01*
X5846842Y-3102500D01*
X5839790Y-3103141D01*
X5839789Y-3103141D01*
X5823560Y-3108198D01*
X5809012Y-3116993D01*
X5809012Y-3116993D01*
X5798803Y-3127201D01*
X5792671Y-3130550D01*
X5785702Y-3130052D01*
X5781267Y-3127201D01*
X5771019Y-3116953D01*
X5770395Y-3116576D01*
X5756461Y-3108152D01*
X5740220Y-3103091D01*
X5740219Y-3103091D01*
X5740219Y-3103091D01*
X5735278Y-3102642D01*
X5733162Y-3102450D01*
X5681838Y-3102450D01*
X5679914Y-3102625D01*
X5674781Y-3103091D01*
X5658539Y-3108152D01*
X5643981Y-3116953D01*
X5643981Y-3116953D01*
X5636574Y-3124360D01*
X5630441Y-3127709D01*
X5623472Y-3127211D01*
X5623060Y-3127048D01*
X5613350Y-3123026D01*
X5613349Y-3123026D01*
X5597884Y-3119950D01*
X5597884Y-3119950D01*
X5582116Y-3119950D01*
X5582116Y-3119950D01*
X5566651Y-3123026D01*
X5566650Y-3123026D01*
X5552083Y-3129060D01*
X5552081Y-3129061D01*
X5538971Y-3137821D01*
X5538971Y-3137821D01*
X5527821Y-3148971D01*
X5527821Y-3148971D01*
X5519061Y-3162081D01*
X5519060Y-3162083D01*
X5513026Y-3176650D01*
X5513026Y-3176651D01*
X5509950Y-3192115D01*
X5410050Y-3192115D01*
X5410050Y-3045213D01*
X5409495Y-3040050D01*
X5409409Y-3039252D01*
X5404380Y-3025767D01*
X5404379Y-3025766D01*
X5396312Y-3014990D01*
X5393870Y-3008443D01*
X5394620Y-3003225D01*
X5397409Y-2995748D01*
X5398050Y-2989787D01*
X5398050Y-2962115D01*
X5514950Y-2962115D01*
X5514950Y-2977885D01*
X5518026Y-2993349D01*
X5518026Y-2993350D01*
X5524060Y-3007917D01*
X5524061Y-3007918D01*
X5532821Y-3021029D01*
X5532821Y-3021029D01*
X5543971Y-3032179D01*
X5543971Y-3032179D01*
X5557081Y-3040939D01*
X5557083Y-3040940D01*
X5567399Y-3045213D01*
X5571650Y-3046974D01*
X5587115Y-3050050D01*
X5587116Y-3050050D01*
X5587116Y-3050050D01*
X5602884Y-3050050D01*
X5602884Y-3050050D01*
X5618350Y-3046974D01*
X5632710Y-3041026D01*
X5632917Y-3040940D01*
X5632917Y-3040940D01*
X5632918Y-3040939D01*
X5646029Y-3032179D01*
X5657179Y-3021029D01*
X5662987Y-3012336D01*
X5668348Y-3007855D01*
X5674420Y-3006876D01*
X5674780Y-3006908D01*
X5674780Y-3006909D01*
X5681838Y-3007550D01*
X5681839Y-3007550D01*
X5733161Y-3007550D01*
X5733162Y-3007550D01*
X5740220Y-3006909D01*
X5756461Y-3001848D01*
X5771018Y-2993047D01*
X5781267Y-2982798D01*
X5787399Y-2979450D01*
X5794368Y-2979948D01*
X5798803Y-2982798D01*
X5809012Y-2993007D01*
X5823560Y-3001802D01*
X5823560Y-3001802D01*
X5839789Y-3006859D01*
X5839789Y-3006859D01*
X5846841Y-3007500D01*
X5846843Y-3007500D01*
X5897500Y-3007500D01*
X5898158Y-3007500D01*
X5905210Y-3006859D01*
X5905211Y-3006859D01*
X5921440Y-3001802D01*
X5935988Y-2993007D01*
X5948007Y-2980988D01*
X5956802Y-2966439D01*
X5961859Y-2950211D01*
X5962500Y-2943157D01*
X5962500Y-2935000D01*
X5897500Y-2935000D01*
X5897500Y-3007500D01*
X5846843Y-3007500D01*
X5847500Y-3007500D01*
X5847500Y-3007500D01*
X5847500Y-2885000D01*
X5897500Y-2885000D01*
X5962500Y-2885000D01*
X5962500Y-2876842D01*
X5961859Y-2869790D01*
X5961859Y-2869789D01*
X5956802Y-2853560D01*
X5948007Y-2839012D01*
X5935988Y-2826993D01*
X5921439Y-2818198D01*
X5921440Y-2818198D01*
X5905210Y-2813141D01*
X5905211Y-2813141D01*
X5898157Y-2812500D01*
X5897500Y-2812500D01*
X5897500Y-2885000D01*
X5847500Y-2885000D01*
X5847500Y-2812500D01*
X5847500Y-2812500D01*
X5846844Y-2812500D01*
X5846842Y-2812500D01*
X5839790Y-2813141D01*
X5839789Y-2813141D01*
X5823560Y-2818198D01*
X5809012Y-2826993D01*
X5809012Y-2826993D01*
X5798803Y-2837201D01*
X5792671Y-2840550D01*
X5785702Y-2840052D01*
X5781267Y-2837201D01*
X5771019Y-2826953D01*
X5765057Y-2823349D01*
X5756461Y-2818152D01*
X5740220Y-2813091D01*
X5740219Y-2813091D01*
X5740219Y-2813091D01*
X5735278Y-2812642D01*
X5733162Y-2812450D01*
X5681838Y-2812450D01*
X5679914Y-2812625D01*
X5674781Y-2813091D01*
X5658539Y-2818152D01*
X5643981Y-2826953D01*
X5631953Y-2838981D01*
X5623152Y-2853539D01*
X5622457Y-2855770D01*
X5621709Y-2856998D01*
X5621463Y-2858093D01*
X5620028Y-2859759D01*
X5619330Y-2860905D01*
X5618478Y-2861746D01*
X5618128Y-2861948D01*
X5606948Y-2873128D01*
X5606948Y-2873129D01*
X5606923Y-2873154D01*
X5606923Y-2873154D01*
X5593534Y-2886543D01*
X5587401Y-2889891D01*
X5587185Y-2889936D01*
X5571651Y-2893026D01*
X5571650Y-2893026D01*
X5557083Y-2899060D01*
X5557081Y-2899061D01*
X5543971Y-2907821D01*
X5543971Y-2907821D01*
X5532821Y-2918971D01*
X5532821Y-2918971D01*
X5524061Y-2932081D01*
X5524060Y-2932083D01*
X5518026Y-2946650D01*
X5518026Y-2946651D01*
X5514950Y-2962115D01*
X5398050Y-2962115D01*
X5398050Y-2939581D01*
X5400018Y-2932877D01*
X5401681Y-2930813D01*
X5403028Y-2929467D01*
X5410147Y-2918813D01*
X5415050Y-2906974D01*
X5415265Y-2905892D01*
X5415897Y-2902715D01*
X5417550Y-2894407D01*
X5417550Y-2790187D01*
X5418401Y-2787289D01*
X5419020Y-2784332D01*
X5419433Y-2783775D01*
X5419519Y-2783484D01*
X5421112Y-2781490D01*
X5421143Y-2781458D01*
X5424178Y-2778423D01*
X5509950Y-2778423D01*
X5509950Y-2793577D01*
X5510743Y-2796535D01*
X5513872Y-2808214D01*
X5516347Y-2812500D01*
X5521449Y-2821336D01*
X5532164Y-2832051D01*
X5542324Y-2837918D01*
X5544148Y-2838971D01*
X5545287Y-2839628D01*
X5559923Y-2843550D01*
X5559924Y-2843550D01*
X5575076Y-2843550D01*
X5575077Y-2843550D01*
X5589714Y-2839628D01*
X5602836Y-2832051D01*
X5613551Y-2821336D01*
X5621128Y-2808213D01*
X5625050Y-2793577D01*
X5625050Y-2778423D01*
X5621128Y-2763787D01*
X5613551Y-2750664D01*
X5602836Y-2739949D01*
X5591635Y-2733481D01*
X5589714Y-2732372D01*
X5580244Y-2729835D01*
X5575077Y-2728450D01*
X5559923Y-2728450D01*
X5545286Y-2732372D01*
X5532164Y-2739949D01*
X5532163Y-2739949D01*
X5521449Y-2750663D01*
X5521449Y-2750664D01*
X5513872Y-2763786D01*
X5511261Y-2773533D01*
X5509950Y-2778423D01*
X5424178Y-2778423D01*
X5432297Y-2770304D01*
X5441200Y-2755870D01*
X5446535Y-2739771D01*
X5447550Y-2729835D01*
X5447550Y-2670166D01*
X5447173Y-2666476D01*
X5446535Y-2660229D01*
X5446535Y-2660229D01*
X5444946Y-2655433D01*
X5441200Y-2644130D01*
X5441200Y-2644130D01*
X5441200Y-2644129D01*
X5432297Y-2629696D01*
X5432297Y-2629696D01*
X5426182Y-2623581D01*
X5424712Y-2620888D01*
X5423052Y-2618306D01*
X5422963Y-2617686D01*
X5422833Y-2617448D01*
X5422550Y-2614813D01*
X5422550Y-2611652D01*
X5424519Y-2604948D01*
X5426181Y-2602884D01*
X5433047Y-2596019D01*
X5441848Y-2581461D01*
X5446909Y-2565220D01*
X5447550Y-2558162D01*
X5447550Y-2491838D01*
X5446909Y-2484780D01*
X5441848Y-2468539D01*
X5433047Y-2453982D01*
X5433047Y-2453981D01*
X5433047Y-2453981D01*
X5426182Y-2447116D01*
X5424712Y-2444423D01*
X5423052Y-2441842D01*
X5422963Y-2441221D01*
X5422833Y-2440984D01*
X5422550Y-2438348D01*
X5422550Y-2436652D01*
X5424519Y-2429948D01*
X5426181Y-2427884D01*
X5433047Y-2421019D01*
X5441848Y-2406461D01*
X5446909Y-2390220D01*
X5447550Y-2383162D01*
X5447550Y-2316838D01*
X5446909Y-2309780D01*
X5441848Y-2293539D01*
X5433047Y-2278982D01*
X5433047Y-2278981D01*
X5433047Y-2278981D01*
X5421019Y-2266953D01*
X5417075Y-2264569D01*
X5406461Y-2258152D01*
X5390220Y-2253091D01*
X5390219Y-2253091D01*
X5390219Y-2253091D01*
X5385278Y-2252642D01*
X5383162Y-2252450D01*
X5331838Y-2252450D01*
X5329915Y-2252625D01*
X5324781Y-2253091D01*
X5308539Y-2258152D01*
X5293981Y-2266953D01*
X5293981Y-2266953D01*
X5283733Y-2277202D01*
X5277600Y-2280550D01*
X5270631Y-2280052D01*
X5266197Y-2277202D01*
X5255988Y-2266993D01*
X5241440Y-2258198D01*
X5241440Y-2258198D01*
X5225211Y-2253141D01*
X5225211Y-2253141D01*
X5218157Y-2252500D01*
X5217500Y-2252500D01*
X5217500Y-2337600D01*
X5215532Y-2344304D01*
X5210251Y-2348879D01*
X5205100Y-2350000D01*
X5192500Y-2350000D01*
X5192500Y-2362600D01*
X5190532Y-2369304D01*
X5185251Y-2373879D01*
X5180100Y-2375000D01*
X5102500Y-2375000D01*
X5102500Y-2383158D01*
X5103141Y-2390210D01*
X5103141Y-2390211D01*
X5108198Y-2406440D01*
X5116993Y-2420988D01*
X5124702Y-2428697D01*
X5125059Y-2429351D01*
X5125667Y-2429782D01*
X5126710Y-2432375D01*
X5128050Y-2434829D01*
X5127997Y-2435572D01*
X5128275Y-2436264D01*
X5127751Y-2439009D01*
X5127552Y-2441798D01*
X5127072Y-2442565D01*
X5126965Y-2443127D01*
X5125258Y-2445469D01*
X5124923Y-2446006D01*
X5124812Y-2446122D01*
X5116953Y-2453982D01*
X5116267Y-2455116D01*
X5115341Y-2456091D01*
X5113435Y-2457196D01*
X5111810Y-2458684D01*
X5110240Y-2459048D01*
X5109296Y-2459595D01*
X5108114Y-2459541D01*
X5106351Y-2459950D01*
X5031578Y-2459950D01*
X5024874Y-2457982D01*
X5022810Y-2456318D01*
X4928682Y-2362190D01*
X4925333Y-2356057D01*
X4925050Y-2353422D01*
X4925050Y-2316843D01*
X5102500Y-2316843D01*
X5102500Y-2325000D01*
X5167500Y-2325000D01*
X5167500Y-2252500D01*
X5167500Y-2252500D01*
X5166844Y-2252500D01*
X5166842Y-2252500D01*
X5159790Y-2253141D01*
X5159789Y-2253141D01*
X5143560Y-2258198D01*
X5129012Y-2266993D01*
X5116993Y-2279012D01*
X5108198Y-2293560D01*
X5103141Y-2309789D01*
X5102500Y-2316843D01*
X4925050Y-2316843D01*
X4925050Y-2221000D01*
X4925050Y-2220998D01*
X4924000Y-2210720D01*
X4924000Y-2210720D01*
X4922671Y-2206711D01*
X4918481Y-2194067D01*
X4909271Y-2179134D01*
X4896866Y-2166729D01*
X4883588Y-2158539D01*
X4881934Y-2157519D01*
X4881933Y-2157519D01*
X4880779Y-2157136D01*
X4865280Y-2152000D01*
X4865280Y-2152000D01*
X4855001Y-2150950D01*
X4545000Y-2150950D01*
X4544998Y-2150950D01*
X4534720Y-2152000D01*
X4534720Y-2152000D01*
X4518067Y-2157519D01*
X4518066Y-2157519D01*
X4503134Y-2166729D01*
X4490729Y-2179134D01*
X4481519Y-2194066D01*
X4481518Y-2194067D01*
X4480472Y-2197224D01*
X4476495Y-2202968D01*
X4470043Y-2205650D01*
X4463166Y-2204418D01*
X4459934Y-2202091D01*
X4457153Y-2199310D01*
X4457152Y-2199309D01*
X4436353Y-2183350D01*
X4413648Y-2170241D01*
X4413647Y-2170240D01*
X4389426Y-2160208D01*
X4364102Y-2153422D01*
X4364101Y-2153422D01*
X4338109Y-2150000D01*
X4325000Y-2150000D01*
X4325000Y-2253014D01*
X4309849Y-2250000D01*
X4290151Y-2250000D01*
X4275000Y-2253014D01*
X4275000Y-2150000D01*
X4261891Y-2150000D01*
X4235899Y-2153422D01*
X4235898Y-2153422D01*
X4210574Y-2160208D01*
X4186353Y-2170240D01*
X4186352Y-2170241D01*
X4163647Y-2183350D01*
X4142848Y-2199309D01*
X4142847Y-2199310D01*
X4138794Y-2203363D01*
X4132662Y-2206711D01*
X4125693Y-2206213D01*
X4120100Y-2202025D01*
X4117779Y-2196534D01*
X4117045Y-2191900D01*
X4111208Y-2173936D01*
X4102633Y-2157106D01*
X4091531Y-2141826D01*
X4091531Y-2141825D01*
X4078175Y-2128469D01*
X4078174Y-2128469D01*
X4062894Y-2117367D01*
X4046063Y-2108791D01*
X4028100Y-2102955D01*
X4028099Y-2102955D01*
X4025000Y-2102464D01*
X4025000Y-2325000D01*
X4203014Y-2325000D01*
X4200000Y-2340151D01*
X4200000Y-2359849D01*
X4203014Y-2375000D01*
X4025000Y-2375000D01*
X4025000Y-2597536D01*
X4028100Y-2597045D01*
X4046064Y-2591209D01*
X4062894Y-2582633D01*
X4078174Y-2571531D01*
X4078175Y-2571531D01*
X4091531Y-2558175D01*
X4091531Y-2558174D01*
X4102633Y-2542894D01*
X4111208Y-2526064D01*
X4117045Y-2508100D01*
X4117779Y-2503466D01*
X4120772Y-2497152D01*
X4126703Y-2493459D01*
X4133689Y-2493559D01*
X4138795Y-2496637D01*
X4142847Y-2500690D01*
X4142848Y-2500691D01*
X4163647Y-2516650D01*
X4186352Y-2529759D01*
X4186353Y-2529760D01*
X4210574Y-2539792D01*
X4235898Y-2546578D01*
X4235899Y-2546578D01*
X4261891Y-2550000D01*
X4261892Y-2550000D01*
X4275000Y-2550000D01*
X4275000Y-2446986D01*
X4290151Y-2450000D01*
X4309849Y-2450000D01*
X4325000Y-2446986D01*
X4325000Y-2550000D01*
X4338108Y-2550000D01*
X4338109Y-2550000D01*
X4364101Y-2546578D01*
X4364102Y-2546578D01*
X4389426Y-2539792D01*
X4413647Y-2529760D01*
X4413648Y-2529759D01*
X4436353Y-2516650D01*
X4457151Y-2500691D01*
X4459436Y-2498407D01*
X4465568Y-2495058D01*
X4472537Y-2495556D01*
X4478131Y-2499744D01*
X4479975Y-2503274D01*
X4481518Y-2507933D01*
X4481519Y-2507933D01*
X4481519Y-2507933D01*
X4490729Y-2522866D01*
X4503134Y-2535271D01*
X4518067Y-2544481D01*
X4534720Y-2550000D01*
X4544999Y-2551050D01*
X4829422Y-2551050D01*
X4836125Y-2553018D01*
X4838190Y-2554682D01*
X4886654Y-2603146D01*
X4886656Y-2603148D01*
X4957818Y-2674310D01*
X4961167Y-2680442D01*
X4961450Y-2683078D01*
X4961450Y-2736901D01*
X4959482Y-2743605D01*
X4954201Y-2748180D01*
X4947285Y-2749175D01*
X4940930Y-2746272D01*
X4938740Y-2743790D01*
X4932179Y-2733971D01*
X4932179Y-2733971D01*
X4921029Y-2722821D01*
X4921029Y-2722821D01*
X4907919Y-2714061D01*
X4907917Y-2714060D01*
X4893350Y-2708026D01*
X4893349Y-2708026D01*
X4877885Y-2704950D01*
X4877884Y-2704950D01*
X4862116Y-2704950D01*
X4862116Y-2704950D01*
X4846651Y-2708026D01*
X4846650Y-2708026D01*
X4832083Y-2714060D01*
X4832081Y-2714061D01*
X4818971Y-2722821D01*
X4818971Y-2722821D01*
X4807821Y-2733971D01*
X4807821Y-2733971D01*
X4799061Y-2747081D01*
X4799060Y-2747083D01*
X4793026Y-2761650D01*
X4793026Y-2761651D01*
X4789950Y-2777115D01*
X4789950Y-2792885D01*
X4793026Y-2808349D01*
X4793026Y-2808350D01*
X4799060Y-2822917D01*
X4799061Y-2822918D01*
X4807821Y-2836029D01*
X4807821Y-2836029D01*
X4818971Y-2847179D01*
X4818971Y-2847179D01*
X4832081Y-2855939D01*
X4832082Y-2855939D01*
X4840236Y-2859317D01*
X4845676Y-2863701D01*
X4847883Y-2870330D01*
X4846155Y-2877100D01*
X4845848Y-2877587D01*
X4845836Y-2877609D01*
X4838295Y-2895816D01*
X4838295Y-2895817D01*
X4834450Y-2915146D01*
X4834450Y-2915146D01*
X4834450Y-2934854D01*
X4834450Y-2934854D01*
X4834450Y-2934854D01*
X4838295Y-2954183D01*
X4838295Y-2954184D01*
X4845836Y-2972391D01*
X4845837Y-2972391D01*
X4845837Y-2972391D01*
X4849860Y-2978413D01*
X4851734Y-2982996D01*
X4851950Y-2984139D01*
X4851950Y-2989787D01*
X4852591Y-2995748D01*
X4855749Y-3004215D01*
X4855945Y-3005253D01*
X4855701Y-3007721D01*
X4855878Y-3010195D01*
X4855340Y-3011373D01*
X4855258Y-3012206D01*
X4854553Y-3013096D01*
X4853688Y-3014990D01*
X4852307Y-3016834D01*
X4846714Y-3021021D01*
X4839745Y-3021519D01*
X4833613Y-3018171D01*
X4832071Y-3016292D01*
X4827179Y-3008971D01*
X4827179Y-3008971D01*
X4816029Y-2997821D01*
X4816029Y-2997821D01*
X4802919Y-2989061D01*
X4802917Y-2989060D01*
X4788350Y-2983026D01*
X4788349Y-2983026D01*
X4772885Y-2979950D01*
X4772884Y-2979950D01*
X4757116Y-2979950D01*
X4757116Y-2979950D01*
X4741651Y-2983026D01*
X4741650Y-2983026D01*
X4727083Y-2989060D01*
X4727081Y-2989061D01*
X4713971Y-2997821D01*
X4713971Y-2997821D01*
X4702821Y-3008971D01*
X4702821Y-3008971D01*
X4694061Y-3022081D01*
X4694060Y-3022083D01*
X4688026Y-3036650D01*
X4688026Y-3036651D01*
X4684950Y-3052115D01*
X4684950Y-3067885D01*
X4688026Y-3083349D01*
X4688026Y-3083350D01*
X4694060Y-3097917D01*
X4694061Y-3097918D01*
X4702821Y-3111029D01*
X4702821Y-3111029D01*
X4713971Y-3122179D01*
X4713971Y-3122179D01*
X4727081Y-3130939D01*
X4727083Y-3130940D01*
X4737294Y-3135169D01*
X4741650Y-3136974D01*
X4754315Y-3139493D01*
X4757115Y-3140050D01*
X4757116Y-3140050D01*
X4757116Y-3140050D01*
X4772884Y-3140050D01*
X4772885Y-3140050D01*
X4788350Y-3136974D01*
X4802918Y-3130939D01*
X4816029Y-3122179D01*
X4818782Y-3119426D01*
X4824914Y-3116077D01*
X4831883Y-3116576D01*
X4837477Y-3120763D01*
X4839918Y-3127309D01*
X4839950Y-3128194D01*
X4839950Y-3504787D01*
X4839950Y-3504788D01*
X4840379Y-3508777D01*
X4840450Y-3510102D01*
X4840450Y-3554787D01*
X4840450Y-3554788D01*
X4841091Y-3560748D01*
X4846120Y-3574233D01*
X4846121Y-3574233D01*
X4854745Y-3585754D01*
X4854746Y-3585755D01*
X4866266Y-3594379D01*
X4866267Y-3594380D01*
X4879752Y-3599409D01*
X4879752Y-3599409D01*
X4880444Y-3599483D01*
X4885713Y-3600050D01*
X4953522Y-3600050D01*
X4960226Y-3602018D01*
X4964801Y-3607299D01*
X4965796Y-3614215D01*
X4962893Y-3620570D01*
X4962290Y-3621218D01*
X4937190Y-3646318D01*
X4931058Y-3649667D01*
X4928422Y-3649950D01*
X4670145Y-3649950D01*
X4666939Y-3650588D01*
X4666939Y-3650588D01*
X4650817Y-3653795D01*
X4650816Y-3653795D01*
X4632609Y-3661337D01*
X4632608Y-3661337D01*
X4619517Y-3670084D01*
X4619516Y-3670085D01*
X4618854Y-3670528D01*
X4616222Y-3672286D01*
X4611222Y-3677286D01*
X4610925Y-3677583D01*
X4610924Y-3677584D01*
X4607190Y-3681318D01*
X4601058Y-3684667D01*
X4598422Y-3684950D01*
X4538649Y-3684950D01*
X4531945Y-3682981D01*
X4528576Y-3679519D01*
X4528509Y-3679571D01*
X4528047Y-3678981D01*
X4516019Y-3666953D01*
X4513367Y-3665350D01*
X4501461Y-3658152D01*
X4485220Y-3653091D01*
X4485219Y-3653091D01*
X4485219Y-3653091D01*
X4480278Y-3652642D01*
X4478162Y-3652450D01*
X4426838Y-3652450D01*
X4422755Y-3652821D01*
X4421285Y-3652955D01*
X4414430Y-3651601D01*
X4409395Y-3646756D01*
X4407779Y-3639959D01*
X4408001Y-3638187D01*
X4409436Y-3630971D01*
X4410050Y-3627884D01*
X4410050Y-3612115D01*
X4410050Y-3612115D01*
X4408351Y-3603576D01*
X4406974Y-3596650D01*
X4405909Y-3594080D01*
X4400940Y-3582083D01*
X4400939Y-3582081D01*
X4400422Y-3581308D01*
X4398334Y-3574640D01*
X4400059Y-3568107D01*
X4406249Y-3557639D01*
X4410764Y-3542099D01*
X4411050Y-3538469D01*
X4411050Y-3497531D01*
X4410764Y-3493901D01*
X4409930Y-3491029D01*
X4407034Y-3481060D01*
X4406249Y-3478360D01*
X4405009Y-3476263D01*
X4403291Y-3469491D01*
X4405009Y-3463638D01*
X4406203Y-3461619D01*
X4410450Y-3447000D01*
X4379835Y-3447000D01*
X4373523Y-3445273D01*
X4372640Y-3444751D01*
X4372639Y-3444750D01*
X4372639Y-3444750D01*
X4357100Y-3440236D01*
X4357099Y-3440236D01*
X4353470Y-3439950D01*
X4353469Y-3439950D01*
X4306531Y-3439950D01*
X4306530Y-3439950D01*
X4302901Y-3440236D01*
X4302900Y-3440236D01*
X4287361Y-3444750D01*
X4287361Y-3444751D01*
X4286477Y-3445273D01*
X4280165Y-3447000D01*
X4249550Y-3447000D01*
X4253797Y-3461619D01*
X4254991Y-3463639D01*
X4256709Y-3470411D01*
X4254991Y-3476263D01*
X4253751Y-3478360D01*
X4253750Y-3478361D01*
X4249236Y-3493900D01*
X4249236Y-3493901D01*
X4248950Y-3497530D01*
X4248950Y-3538470D01*
X4249236Y-3542099D01*
X4249236Y-3542100D01*
X4253750Y-3557639D01*
X4253751Y-3557640D01*
X4259941Y-3568107D01*
X4261659Y-3574879D01*
X4260789Y-3579003D01*
X4260305Y-3580220D01*
X4259061Y-3582082D01*
X4253026Y-3596650D01*
X4252285Y-3600379D01*
X4251865Y-3601432D01*
X4250382Y-3603327D01*
X4249267Y-3605459D01*
X4248267Y-3606028D01*
X4247558Y-3606934D01*
X4245286Y-3607726D01*
X4243195Y-3608916D01*
X4242047Y-3608855D01*
X4240960Y-3609233D01*
X4238620Y-3608671D01*
X4236218Y-3608542D01*
X4235068Y-3607817D01*
X4234167Y-3607601D01*
X4233319Y-3606715D01*
X4231576Y-3605617D01*
X4106520Y-3480561D01*
X4106518Y-3480559D01*
X4097373Y-3471414D01*
X4092832Y-3468380D01*
X4092832Y-3468380D01*
X4092251Y-3467991D01*
X4087129Y-3464569D01*
X4079079Y-3461235D01*
X4077546Y-3460599D01*
X4075745Y-3459854D01*
X4074743Y-3459654D01*
X4069703Y-3458652D01*
X4063661Y-3457450D01*
X4063661Y-3457450D01*
X4063661Y-3457450D01*
X3940160Y-3457450D01*
X3933456Y-3455481D01*
X3929549Y-3451465D01*
X3928694Y-3450052D01*
X3928047Y-3448981D01*
X3928047Y-3448981D01*
X3928047Y-3448981D01*
X3916019Y-3436953D01*
X3908017Y-3432116D01*
X3901461Y-3428152D01*
X3885220Y-3423091D01*
X3885219Y-3423091D01*
X3885219Y-3423091D01*
X3880278Y-3422642D01*
X3878162Y-3422450D01*
X3826838Y-3422450D01*
X3824914Y-3422625D01*
X3819781Y-3423091D01*
X3803539Y-3428152D01*
X3788981Y-3436953D01*
X3788981Y-3436953D01*
X3778733Y-3447201D01*
X3772600Y-3450550D01*
X3765631Y-3450052D01*
X3761196Y-3447201D01*
X3750988Y-3436993D01*
X3736439Y-3428198D01*
X3736440Y-3428198D01*
X3720210Y-3423141D01*
X3720211Y-3423141D01*
X3713157Y-3422500D01*
X3712500Y-3422500D01*
X3712500Y-3507600D01*
X3710531Y-3514304D01*
X3705251Y-3518879D01*
X3700100Y-3520000D01*
X3687500Y-3520000D01*
X3687500Y-3532600D01*
X3685531Y-3539304D01*
X3680251Y-3543879D01*
X3675100Y-3545000D01*
X3595738Y-3545000D01*
X3593486Y-3546230D01*
X3586517Y-3545731D01*
X3580924Y-3541544D01*
X3580541Y-3541002D01*
X3577179Y-3535971D01*
X3577179Y-3535971D01*
X3566029Y-3524821D01*
X3566029Y-3524821D01*
X3552918Y-3516061D01*
X3552917Y-3516060D01*
X3538350Y-3510026D01*
X3538349Y-3510026D01*
X3522884Y-3506950D01*
X3522884Y-3506950D01*
X3507802Y-3506950D01*
X3501098Y-3504981D01*
X3498759Y-3503035D01*
X3498060Y-3502289D01*
X3497179Y-3500971D01*
X3491399Y-3495191D01*
X3491397Y-3495189D01*
X3486029Y-3489821D01*
X3486029Y-3489821D01*
X3481571Y-3486843D01*
X3597500Y-3486843D01*
X3597500Y-3495000D01*
X3662500Y-3495000D01*
X3662500Y-3422500D01*
X3662500Y-3422500D01*
X3661844Y-3422500D01*
X3661842Y-3422500D01*
X3654790Y-3423141D01*
X3654789Y-3423141D01*
X3638560Y-3428198D01*
X3624012Y-3436993D01*
X3611993Y-3449012D01*
X3603198Y-3463560D01*
X3598141Y-3479789D01*
X3597500Y-3486843D01*
X3481571Y-3486843D01*
X3472918Y-3481061D01*
X3472917Y-3481060D01*
X3458350Y-3475026D01*
X3458349Y-3475026D01*
X3442884Y-3471950D01*
X3442884Y-3471950D01*
X3428294Y-3471950D01*
X3421590Y-3469981D01*
X3419526Y-3468318D01*
X3411029Y-3459821D01*
X3411029Y-3459821D01*
X3397918Y-3451061D01*
X3397917Y-3451060D01*
X3383350Y-3445026D01*
X3383349Y-3445026D01*
X3367884Y-3441950D01*
X3367884Y-3441950D01*
X3352116Y-3441950D01*
X3352115Y-3441950D01*
X3336651Y-3445026D01*
X3336650Y-3445026D01*
X3322083Y-3451060D01*
X3322081Y-3451061D01*
X3308971Y-3459821D01*
X3308971Y-3459821D01*
X3297821Y-3470971D01*
X3297821Y-3470971D01*
X3289061Y-3484081D01*
X3289060Y-3484083D01*
X3283026Y-3498650D01*
X3283026Y-3498651D01*
X3279950Y-3514115D01*
X3279950Y-3529885D01*
X3283026Y-3545349D01*
X3283026Y-3545350D01*
X3289060Y-3559917D01*
X3289061Y-3559918D01*
X3297821Y-3573029D01*
X3297821Y-3573029D01*
X3308971Y-3584179D01*
X3308971Y-3584179D01*
X3322081Y-3592939D01*
X3322083Y-3592940D01*
X3332180Y-3597122D01*
X3336650Y-3598974D01*
X3351613Y-3601950D01*
X3352115Y-3602050D01*
X3352116Y-3602050D01*
X3366706Y-3602050D01*
X3373410Y-3604018D01*
X3375474Y-3605681D01*
X3380853Y-3611061D01*
X3383971Y-3614179D01*
X3397081Y-3622939D01*
X3397083Y-3622940D01*
X3411650Y-3628973D01*
X3411650Y-3628974D01*
X3427115Y-3632050D01*
X3427116Y-3632050D01*
X3442198Y-3632050D01*
X3448902Y-3634018D01*
X3452509Y-3637561D01*
X3452821Y-3638029D01*
X3463971Y-3649179D01*
X3463971Y-3649179D01*
X3477081Y-3657939D01*
X3477083Y-3657940D01*
X3489690Y-3663162D01*
X3491650Y-3663974D01*
X3506628Y-3666953D01*
X3507115Y-3667050D01*
X3507116Y-3667050D01*
X3507116Y-3667050D01*
X3522884Y-3667050D01*
X3522884Y-3667050D01*
X3538350Y-3663974D01*
X3538934Y-3663731D01*
X3545881Y-3662985D01*
X3552129Y-3666112D01*
X3555136Y-3670442D01*
X3559060Y-3679917D01*
X3559061Y-3679918D01*
X3567821Y-3693029D01*
X3567821Y-3693029D01*
X3578971Y-3704179D01*
X3578971Y-3704179D01*
X3592081Y-3712939D01*
X3592083Y-3712940D01*
X3606650Y-3718973D01*
X3606650Y-3718974D01*
X3617837Y-3721199D01*
X3622115Y-3722050D01*
X3622116Y-3722050D01*
X3622116Y-3722050D01*
X3637884Y-3722050D01*
X3645294Y-3720576D01*
X3652253Y-3721199D01*
X3657771Y-3725485D01*
X3658023Y-3725849D01*
X3662821Y-3733029D01*
X3662821Y-3733029D01*
X3673971Y-3744179D01*
X3673971Y-3744179D01*
X3684523Y-3751229D01*
X3689003Y-3756590D01*
X3689874Y-3763523D01*
X3686858Y-3769826D01*
X3680914Y-3773498D01*
X3673928Y-3773373D01*
X3673733Y-3773310D01*
X3659261Y-3768514D01*
X3649332Y-3767500D01*
X3644500Y-3767500D01*
X3644500Y-3837500D01*
X3717000Y-3837500D01*
X3717000Y-3835169D01*
X3717000Y-3835168D01*
X3716461Y-3829895D01*
X3717738Y-3823026D01*
X3722526Y-3817937D01*
X3729305Y-3816245D01*
X3735686Y-3818325D01*
X3747082Y-3825939D01*
X3747082Y-3825939D01*
X3747083Y-3825940D01*
X3754401Y-3828971D01*
X3761650Y-3831974D01*
X3775518Y-3834732D01*
X3777115Y-3835050D01*
X3777116Y-3835050D01*
X3777116Y-3835050D01*
X3792884Y-3835050D01*
X3792884Y-3835050D01*
X3808350Y-3831974D01*
X3822702Y-3826029D01*
X3822917Y-3825940D01*
X3822917Y-3825940D01*
X3822918Y-3825939D01*
X3836029Y-3817179D01*
X3837861Y-3815347D01*
X3843993Y-3811998D01*
X3850962Y-3812497D01*
X3856555Y-3816684D01*
X3856939Y-3817226D01*
X3862821Y-3826029D01*
X3862821Y-3826029D01*
X3873971Y-3837179D01*
X3873971Y-3837179D01*
X3887081Y-3845939D01*
X3887083Y-3845940D01*
X3900868Y-3851650D01*
X3901650Y-3851974D01*
X3917115Y-3855050D01*
X3917116Y-3855050D01*
X3917116Y-3855050D01*
X3932884Y-3855050D01*
X3932884Y-3855050D01*
X3948350Y-3851974D01*
X3962918Y-3845939D01*
X3976029Y-3837179D01*
X3987179Y-3826029D01*
X3989794Y-3822115D01*
X3992996Y-3817323D01*
X3995279Y-3815415D01*
X3997389Y-3813315D01*
X3997967Y-3813168D01*
X3998357Y-3812843D01*
X4000122Y-3812621D01*
X4003306Y-3811812D01*
X4009660Y-3811812D01*
X4019532Y-3809849D01*
X4022146Y-3809329D01*
X4029105Y-3809951D01*
X4034623Y-3814238D01*
X4036947Y-3820827D01*
X4035341Y-3827626D01*
X4034875Y-3828379D01*
X4031886Y-3832853D01*
X4030344Y-3834732D01*
X4026629Y-3838448D01*
X4026628Y-3838448D01*
X4015448Y-3849628D01*
X4015448Y-3849628D01*
X4014094Y-3851974D01*
X4011394Y-3856651D01*
X4010436Y-3858309D01*
X4010436Y-3858310D01*
X4007542Y-3863321D01*
X4007542Y-3863321D01*
X4007179Y-3864679D01*
X4003450Y-3878594D01*
X4003450Y-3878594D01*
X4003450Y-3883189D01*
X4001481Y-3889893D01*
X3996201Y-3894469D01*
X3989285Y-3895463D01*
X3986717Y-3894807D01*
X3982248Y-3893141D01*
X3982248Y-3893141D01*
X3976288Y-3892500D01*
X3976288Y-3892500D01*
X3976287Y-3892500D01*
X3976286Y-3892500D01*
X3896713Y-3892500D01*
X3896712Y-3892500D01*
X3890751Y-3893141D01*
X3877333Y-3898145D01*
X3870364Y-3898644D01*
X3868667Y-3898145D01*
X3855248Y-3893141D01*
X3855248Y-3893141D01*
X3849288Y-3892500D01*
X3849288Y-3892500D01*
X3849287Y-3892500D01*
X3849286Y-3892500D01*
X3769713Y-3892500D01*
X3769712Y-3892500D01*
X3763752Y-3893141D01*
X3750267Y-3898170D01*
X3750266Y-3898171D01*
X3738745Y-3906795D01*
X3738745Y-3906795D01*
X3738365Y-3907304D01*
X3732771Y-3911490D01*
X3725802Y-3911988D01*
X3719670Y-3908639D01*
X3716322Y-3902507D01*
X3716103Y-3898611D01*
X3717000Y-3889832D01*
X3717000Y-3889831D01*
X3717000Y-3887500D01*
X3522000Y-3887500D01*
X3522000Y-3889832D01*
X3523014Y-3899761D01*
X3528345Y-3915848D01*
X3528346Y-3915849D01*
X3537242Y-3930273D01*
X3537243Y-3930273D01*
X3538166Y-3931196D01*
X3541514Y-3937329D01*
X3541016Y-3944298D01*
X3538166Y-3948732D01*
X3537203Y-3949695D01*
X3537203Y-3949696D01*
X3528300Y-3964129D01*
X3528300Y-3964130D01*
X3522965Y-3980229D01*
X3521950Y-3990165D01*
X3521950Y-4044834D01*
X3521950Y-4044835D01*
X3522965Y-4054771D01*
X3522965Y-4054771D01*
X3523404Y-4056094D01*
X3523447Y-4057345D01*
X3523942Y-4058493D01*
X3523564Y-4060770D01*
X3523644Y-4063077D01*
X3523004Y-4064152D01*
X3522800Y-4065386D01*
X3521251Y-4067098D01*
X3520071Y-4069081D01*
X3518838Y-4069765D01*
X3518112Y-4070568D01*
X3515659Y-4071528D01*
X3514871Y-4071965D01*
X3514465Y-4072074D01*
X3505816Y-4073795D01*
X3501508Y-4075579D01*
X3500738Y-4075788D01*
X3498010Y-4075729D01*
X3495298Y-4076021D01*
X3494014Y-4075644D01*
X3493752Y-4075638D01*
X3493565Y-4075512D01*
X3492755Y-4075274D01*
X3491250Y-4074651D01*
X3489184Y-4073795D01*
X3489183Y-4073795D01*
X3469854Y-4069950D01*
X3469854Y-4069950D01*
X3450146Y-4069950D01*
X3450146Y-4069950D01*
X3430817Y-4073795D01*
X3430816Y-4073795D01*
X3429744Y-4074239D01*
X3422798Y-4074985D01*
X3420255Y-4074239D01*
X3419935Y-4074106D01*
X3419183Y-4073795D01*
X3419183Y-4073795D01*
X3419182Y-4073795D01*
X3399854Y-4069950D01*
X3399854Y-4069950D01*
X3380146Y-4069950D01*
X3380145Y-4069950D01*
X3360817Y-4073795D01*
X3360816Y-4073795D01*
X3342609Y-4081337D01*
X3342608Y-4081337D01*
X3326222Y-4092286D01*
X3312555Y-4105953D01*
X3306422Y-4109301D01*
X3299453Y-4108803D01*
X3295018Y-4105953D01*
X3173682Y-3984616D01*
X3170333Y-3978484D01*
X3170050Y-3975848D01*
X3170050Y-3835168D01*
X3522000Y-3835168D01*
X3522000Y-3837500D01*
X3594500Y-3837500D01*
X3594500Y-3767500D01*
X3594500Y-3767500D01*
X3589669Y-3767500D01*
X3589667Y-3767500D01*
X3579739Y-3768514D01*
X3563652Y-3773845D01*
X3563651Y-3773846D01*
X3549227Y-3782742D01*
X3549227Y-3782743D01*
X3537243Y-3794727D01*
X3537242Y-3794727D01*
X3528346Y-3809151D01*
X3528345Y-3809152D01*
X3523014Y-3825239D01*
X3522000Y-3835168D01*
X3170050Y-3835168D01*
X3170050Y-3290165D01*
X3282450Y-3290165D01*
X3282450Y-3344834D01*
X3282450Y-3344835D01*
X3283465Y-3354771D01*
X3283465Y-3354771D01*
X3288800Y-3370869D01*
X3288800Y-3370870D01*
X3297703Y-3385304D01*
X3297703Y-3385304D01*
X3309695Y-3397297D01*
X3309696Y-3397297D01*
X3324129Y-3406200D01*
X3324130Y-3406200D01*
X3324130Y-3406200D01*
X3340229Y-3411535D01*
X3350165Y-3412550D01*
X3409834Y-3412550D01*
X3409835Y-3412550D01*
X3409835Y-3412550D01*
X3415276Y-3411994D01*
X3419771Y-3411535D01*
X3435870Y-3406200D01*
X3444999Y-3400569D01*
X3451738Y-3398725D01*
X3456253Y-3399667D01*
X3466650Y-3403974D01*
X3482115Y-3407050D01*
X3482116Y-3407050D01*
X3482116Y-3407050D01*
X3497884Y-3407050D01*
X3497884Y-3407050D01*
X3513350Y-3403974D01*
X3526926Y-3398350D01*
X3527917Y-3397940D01*
X3527917Y-3397940D01*
X3527918Y-3397939D01*
X3529324Y-3397000D01*
X4249550Y-3397000D01*
X4305000Y-3397000D01*
X4355000Y-3397000D01*
X4410450Y-3397000D01*
X4406203Y-3382380D01*
X4397972Y-3368462D01*
X4397971Y-3368462D01*
X4386538Y-3357028D01*
X4386537Y-3357028D01*
X4372620Y-3348797D01*
X4372619Y-3348797D01*
X4357092Y-3344285D01*
X4357091Y-3344285D01*
X4355000Y-3344121D01*
X4355000Y-3397000D01*
X4305000Y-3397000D01*
X4305000Y-3344121D01*
X4305000Y-3344121D01*
X4302909Y-3344285D01*
X4302908Y-3344285D01*
X4287381Y-3348797D01*
X4287380Y-3348797D01*
X4273463Y-3357028D01*
X4273462Y-3357028D01*
X4262029Y-3368462D01*
X4262028Y-3368462D01*
X4253797Y-3382380D01*
X4249550Y-3397000D01*
X3529324Y-3397000D01*
X3537346Y-3391640D01*
X3544014Y-3389552D01*
X3544235Y-3389550D01*
X3627161Y-3389550D01*
X3633203Y-3388348D01*
X3639245Y-3387146D01*
X3643692Y-3385304D01*
X3650629Y-3382431D01*
X3657528Y-3377821D01*
X3660873Y-3375586D01*
X3667082Y-3369377D01*
X3667407Y-3369095D01*
X3670206Y-3367810D01*
X3672909Y-3366333D01*
X3673578Y-3366261D01*
X3673756Y-3366180D01*
X3674008Y-3366215D01*
X3675545Y-3366050D01*
X3683468Y-3366050D01*
X3683469Y-3366050D01*
X3687099Y-3365764D01*
X3687099Y-3365764D01*
X3687100Y-3365764D01*
X3691197Y-3364574D01*
X3702639Y-3361249D01*
X3716569Y-3353012D01*
X3728012Y-3341569D01*
X3736249Y-3327639D01*
X3740764Y-3312099D01*
X3741050Y-3308469D01*
X3741050Y-3267531D01*
X3740764Y-3263901D01*
X3740308Y-3262329D01*
X3737025Y-3251029D01*
X3736249Y-3248360D01*
X3735009Y-3246263D01*
X3733291Y-3239491D01*
X3735009Y-3233638D01*
X3736203Y-3231619D01*
X3740450Y-3217000D01*
X3709835Y-3217000D01*
X3703523Y-3215273D01*
X3702639Y-3214751D01*
X3702639Y-3214750D01*
X3702639Y-3214750D01*
X3687100Y-3210236D01*
X3687099Y-3210236D01*
X3683470Y-3209950D01*
X3683469Y-3209950D01*
X3672400Y-3209950D01*
X3671531Y-3209695D01*
X3670635Y-3209824D01*
X3668231Y-3208726D01*
X3665696Y-3207981D01*
X3665103Y-3207297D01*
X3664280Y-3206921D01*
X3662851Y-3204698D01*
X3661121Y-3202701D01*
X3660892Y-3201650D01*
X3660502Y-3201043D01*
X3660000Y-3197550D01*
X3660000Y-3192115D01*
X4429950Y-3192115D01*
X4429950Y-3207885D01*
X4433026Y-3223349D01*
X4433026Y-3223350D01*
X4439060Y-3237917D01*
X4439061Y-3237918D01*
X4447821Y-3251029D01*
X4447821Y-3251029D01*
X4458971Y-3262179D01*
X4458971Y-3262179D01*
X4472081Y-3270939D01*
X4472082Y-3270939D01*
X4472082Y-3270939D01*
X4485888Y-3276658D01*
X4491328Y-3281042D01*
X4493534Y-3287671D01*
X4491806Y-3294441D01*
X4489910Y-3296882D01*
X4487821Y-3298971D01*
X4479061Y-3312081D01*
X4479060Y-3312083D01*
X4473026Y-3326650D01*
X4473026Y-3326651D01*
X4469950Y-3342115D01*
X4469950Y-3357885D01*
X4473026Y-3373349D01*
X4473026Y-3373350D01*
X4479060Y-3387917D01*
X4479061Y-3387918D01*
X4487821Y-3401029D01*
X4487821Y-3401029D01*
X4498971Y-3412179D01*
X4498971Y-3412179D01*
X4512081Y-3420939D01*
X4512083Y-3420940D01*
X4526650Y-3426973D01*
X4526650Y-3426974D01*
X4542115Y-3430050D01*
X4542116Y-3430050D01*
X4557550Y-3430050D01*
X4564254Y-3432018D01*
X4568829Y-3437299D01*
X4569950Y-3442450D01*
X4569950Y-3447885D01*
X4573026Y-3463349D01*
X4573026Y-3463350D01*
X4579060Y-3477917D01*
X4579061Y-3477918D01*
X4587821Y-3491029D01*
X4587821Y-3491029D01*
X4598971Y-3502179D01*
X4598971Y-3502179D01*
X4612081Y-3510939D01*
X4612083Y-3510940D01*
X4624447Y-3516061D01*
X4626650Y-3516974D01*
X4641864Y-3520000D01*
X4642115Y-3520050D01*
X4642116Y-3520050D01*
X4642116Y-3520050D01*
X4657884Y-3520050D01*
X4657885Y-3520050D01*
X4673350Y-3516974D01*
X4687918Y-3510939D01*
X4701029Y-3502179D01*
X4712179Y-3491029D01*
X4720939Y-3477918D01*
X4726974Y-3463350D01*
X4730050Y-3447884D01*
X4730050Y-3432116D01*
X4730050Y-3432115D01*
X4730050Y-3432115D01*
X4728839Y-3426029D01*
X4726974Y-3416650D01*
X4726974Y-3416650D01*
X4720940Y-3402083D01*
X4720939Y-3402081D01*
X4712179Y-3388971D01*
X4712179Y-3388971D01*
X4701029Y-3377821D01*
X4701029Y-3377821D01*
X4687919Y-3369061D01*
X4687917Y-3369060D01*
X4673350Y-3363026D01*
X4673349Y-3363026D01*
X4657885Y-3359950D01*
X4657884Y-3359950D01*
X4642450Y-3359950D01*
X4635746Y-3357981D01*
X4631171Y-3352701D01*
X4630050Y-3347550D01*
X4630050Y-3342115D01*
X4630050Y-3342115D01*
X4629049Y-3337081D01*
X4626974Y-3326650D01*
X4626974Y-3326650D01*
X4620940Y-3312083D01*
X4620939Y-3312081D01*
X4612179Y-3298971D01*
X4612179Y-3298971D01*
X4601029Y-3287821D01*
X4601029Y-3287821D01*
X4587919Y-3279061D01*
X4587917Y-3279060D01*
X4574113Y-3273342D01*
X4568672Y-3268958D01*
X4566466Y-3262329D01*
X4568194Y-3255559D01*
X4570089Y-3253118D01*
X4572179Y-3251029D01*
X4580939Y-3237918D01*
X4586974Y-3223350D01*
X4590050Y-3207884D01*
X4590050Y-3192116D01*
X4590050Y-3192115D01*
X4590050Y-3192115D01*
X4589196Y-3187821D01*
X4586974Y-3176650D01*
X4585866Y-3173976D01*
X4580940Y-3162083D01*
X4580939Y-3162081D01*
X4572179Y-3148971D01*
X4572179Y-3148971D01*
X4561029Y-3137821D01*
X4561029Y-3137821D01*
X4547919Y-3129061D01*
X4547917Y-3129060D01*
X4533350Y-3123026D01*
X4533349Y-3123026D01*
X4517885Y-3119950D01*
X4517884Y-3119950D01*
X4502116Y-3119950D01*
X4502116Y-3119950D01*
X4486651Y-3123026D01*
X4486650Y-3123026D01*
X4472083Y-3129060D01*
X4472081Y-3129061D01*
X4458971Y-3137821D01*
X4458971Y-3137821D01*
X4447821Y-3148971D01*
X4447821Y-3148971D01*
X4439061Y-3162081D01*
X4439060Y-3162083D01*
X4433026Y-3176650D01*
X4433026Y-3176651D01*
X4429950Y-3192115D01*
X3660000Y-3192115D01*
X3660000Y-3192000D01*
X3647400Y-3192000D01*
X3640696Y-3190031D01*
X3636121Y-3184751D01*
X3635000Y-3179600D01*
X3635000Y-3167000D01*
X3685000Y-3167000D01*
X3740450Y-3167000D01*
X3736203Y-3152380D01*
X3727972Y-3138462D01*
X3727971Y-3138462D01*
X3716538Y-3127028D01*
X3716537Y-3127028D01*
X3702619Y-3118797D01*
X3702619Y-3118797D01*
X3687092Y-3114285D01*
X3687091Y-3114285D01*
X3685000Y-3114121D01*
X3685000Y-3167000D01*
X3635000Y-3167000D01*
X3635000Y-3114121D01*
X3635000Y-3114121D01*
X3632909Y-3114285D01*
X3632908Y-3114285D01*
X3617381Y-3118797D01*
X3617380Y-3118797D01*
X3603462Y-3127028D01*
X3603462Y-3127028D01*
X3592028Y-3138462D01*
X3592028Y-3138462D01*
X3583797Y-3152380D01*
X3579285Y-3167909D01*
X3579285Y-3167909D01*
X3579044Y-3170976D01*
X3576555Y-3177505D01*
X3570932Y-3181652D01*
X3563960Y-3182101D01*
X3559793Y-3180313D01*
X3557918Y-3179061D01*
X3557917Y-3179060D01*
X3543350Y-3173026D01*
X3543349Y-3173026D01*
X3527884Y-3169950D01*
X3527884Y-3169950D01*
X3512116Y-3169950D01*
X3512115Y-3169950D01*
X3496651Y-3173026D01*
X3496650Y-3173026D01*
X3482083Y-3179060D01*
X3482081Y-3179061D01*
X3474868Y-3183881D01*
X3472784Y-3185273D01*
X3472579Y-3185410D01*
X3465912Y-3187498D01*
X3465690Y-3187500D01*
X3282500Y-3187500D01*
X3282500Y-3189832D01*
X3283514Y-3199761D01*
X3288845Y-3215848D01*
X3288846Y-3215849D01*
X3297742Y-3230273D01*
X3297743Y-3230273D01*
X3298666Y-3231196D01*
X3302014Y-3237329D01*
X3301516Y-3244298D01*
X3298666Y-3248732D01*
X3297703Y-3249695D01*
X3297703Y-3249696D01*
X3288800Y-3264129D01*
X3288800Y-3264130D01*
X3283465Y-3280229D01*
X3282450Y-3290165D01*
X3170050Y-3290165D01*
X3170050Y-3135168D01*
X3282500Y-3135168D01*
X3282500Y-3137500D01*
X3355000Y-3137500D01*
X3405000Y-3137500D01*
X3477500Y-3137500D01*
X3477500Y-3135169D01*
X3477500Y-3135168D01*
X3476485Y-3125239D01*
X3471155Y-3109152D01*
X3471154Y-3109151D01*
X3462257Y-3094727D01*
X3462257Y-3094727D01*
X3450273Y-3082743D01*
X3450273Y-3082742D01*
X3435849Y-3073846D01*
X3435848Y-3073845D01*
X3419761Y-3068514D01*
X3409832Y-3067500D01*
X3405000Y-3067500D01*
X3405000Y-3137500D01*
X3355000Y-3137500D01*
X3355000Y-3067500D01*
X3355000Y-3067500D01*
X3350169Y-3067500D01*
X3350167Y-3067500D01*
X3340239Y-3068514D01*
X3324152Y-3073845D01*
X3324151Y-3073846D01*
X3309727Y-3082742D01*
X3309727Y-3082743D01*
X3297743Y-3094727D01*
X3297742Y-3094727D01*
X3288846Y-3109151D01*
X3288845Y-3109152D01*
X3283514Y-3125239D01*
X3282500Y-3135168D01*
X3170050Y-3135168D01*
X3170050Y-3053100D01*
X3168090Y-3043248D01*
X3167648Y-3041026D01*
X3167358Y-3039567D01*
X3162077Y-3026819D01*
X3154411Y-3015346D01*
X3154411Y-3015345D01*
X3057904Y-2918839D01*
X3046431Y-2911172D01*
X3033683Y-2905892D01*
X3033682Y-2905892D01*
X3030395Y-2905238D01*
X3024204Y-2901999D01*
X3024051Y-2901849D01*
X3021995Y-2899794D01*
X3021995Y-2899793D01*
X3008801Y-2891991D01*
X3007740Y-2891363D01*
X3007740Y-2891363D01*
X3007740Y-2891363D01*
X3007739Y-2891363D01*
X2991836Y-2886742D01*
X2991836Y-2886742D01*
X2988120Y-2886450D01*
X2943881Y-2886450D01*
X2943878Y-2886450D01*
X2940164Y-2886742D01*
X2923766Y-2891506D01*
X2922218Y-2891502D01*
X2920750Y-2891991D01*
X2918796Y-2891492D01*
X2916779Y-2891486D01*
X2915480Y-2890646D01*
X2913980Y-2890263D01*
X2912605Y-2888787D01*
X2910912Y-2887692D01*
X2910273Y-2886282D01*
X2909219Y-2885149D01*
X2908860Y-2883165D01*
X2908028Y-2881328D01*
X2908235Y-2879699D01*
X2907978Y-2878273D01*
X2908850Y-2874854D01*
X2909419Y-2873481D01*
X2912107Y-2869459D01*
X2989450Y-2792115D01*
X3539950Y-2792115D01*
X3539950Y-2807885D01*
X3543026Y-2823349D01*
X3543026Y-2823350D01*
X3549060Y-2837917D01*
X3549061Y-2837918D01*
X3557821Y-2851029D01*
X3557821Y-2851029D01*
X3568971Y-2862179D01*
X3568971Y-2862179D01*
X3582081Y-2870939D01*
X3582083Y-2870940D01*
X3587367Y-2873129D01*
X3596332Y-2876842D01*
X3597213Y-2877207D01*
X3597111Y-2877452D01*
X3601993Y-2880651D01*
X3604839Y-2887032D01*
X3604950Y-2888688D01*
X3604950Y-2902334D01*
X3604950Y-2902335D01*
X3605965Y-2912271D01*
X3605965Y-2912271D01*
X3611300Y-2928369D01*
X3611300Y-2928370D01*
X3620203Y-2942804D01*
X3620203Y-2942804D01*
X3632195Y-2954797D01*
X3632196Y-2954797D01*
X3646629Y-2963700D01*
X3646630Y-2963700D01*
X3646630Y-2963700D01*
X3662729Y-2969035D01*
X3672665Y-2970050D01*
X3727334Y-2970050D01*
X3727335Y-2970050D01*
X3727335Y-2970050D01*
X3732776Y-2969494D01*
X3737271Y-2969035D01*
X3753370Y-2963700D01*
X3767804Y-2954797D01*
X3768767Y-2953834D01*
X3774899Y-2950486D01*
X3781868Y-2950983D01*
X3786303Y-2953834D01*
X3787227Y-2954757D01*
X3787227Y-2954757D01*
X3801651Y-2963654D01*
X3801652Y-2963655D01*
X3817739Y-2968985D01*
X3827668Y-2970000D01*
X3880000Y-2970000D01*
X3882331Y-2970000D01*
X3882332Y-2970000D01*
X3892261Y-2968985D01*
X3908348Y-2963655D01*
X3908349Y-2963654D01*
X3922773Y-2954757D01*
X3922773Y-2954757D01*
X3934757Y-2942773D01*
X3934757Y-2942773D01*
X3943654Y-2928349D01*
X3943655Y-2928348D01*
X3948985Y-2912261D01*
X3950000Y-2902332D01*
X3950000Y-2902331D01*
X3950000Y-2897500D01*
X3880000Y-2897500D01*
X3880000Y-2970000D01*
X3827668Y-2970000D01*
X3830000Y-2970000D01*
X3830000Y-2884900D01*
X3830818Y-2882115D01*
X4459950Y-2882115D01*
X4459950Y-2897885D01*
X4463026Y-2913349D01*
X4463026Y-2913350D01*
X4469060Y-2927917D01*
X4469061Y-2927918D01*
X4477821Y-2941029D01*
X4477821Y-2941029D01*
X4488971Y-2952179D01*
X4488971Y-2952179D01*
X4502081Y-2960939D01*
X4502083Y-2960940D01*
X4516650Y-2966973D01*
X4516650Y-2966974D01*
X4531863Y-2970000D01*
X4532115Y-2970050D01*
X4532116Y-2970050D01*
X4532116Y-2970050D01*
X4547884Y-2970050D01*
X4547885Y-2970050D01*
X4563350Y-2966974D01*
X4577918Y-2960939D01*
X4591029Y-2952179D01*
X4602179Y-2941029D01*
X4610939Y-2927918D01*
X4616974Y-2913350D01*
X4620050Y-2897884D01*
X4620050Y-2882116D01*
X4620050Y-2882115D01*
X4620050Y-2882115D01*
X4619154Y-2877609D01*
X4616974Y-2866650D01*
X4615530Y-2863165D01*
X4610940Y-2852083D01*
X4610939Y-2852081D01*
X4602179Y-2838971D01*
X4602179Y-2838971D01*
X4591029Y-2827821D01*
X4591029Y-2827821D01*
X4577919Y-2819061D01*
X4577917Y-2819060D01*
X4563350Y-2813026D01*
X4563349Y-2813026D01*
X4547885Y-2809950D01*
X4547884Y-2809950D01*
X4532116Y-2809950D01*
X4532116Y-2809950D01*
X4516651Y-2813026D01*
X4516650Y-2813026D01*
X4502083Y-2819060D01*
X4502081Y-2819061D01*
X4488971Y-2827821D01*
X4488971Y-2827821D01*
X4477821Y-2838971D01*
X4477821Y-2838971D01*
X4469061Y-2852081D01*
X4469060Y-2852083D01*
X4463026Y-2866650D01*
X4463026Y-2866651D01*
X4459950Y-2882115D01*
X3830818Y-2882115D01*
X3831968Y-2878196D01*
X3837249Y-2873621D01*
X3842400Y-2872500D01*
X3855000Y-2872500D01*
X3855000Y-2859900D01*
X3856968Y-2853196D01*
X3862249Y-2848621D01*
X3867400Y-2847500D01*
X3950000Y-2847500D01*
X3950000Y-2842669D01*
X3950000Y-2842668D01*
X3948985Y-2832739D01*
X3943655Y-2816652D01*
X3943654Y-2816651D01*
X3934757Y-2802227D01*
X3934757Y-2802227D01*
X3922773Y-2790243D01*
X3922773Y-2790242D01*
X3908349Y-2781346D01*
X3908348Y-2781345D01*
X3892261Y-2776014D01*
X3888062Y-2775585D01*
X3881593Y-2772946D01*
X3877578Y-2767228D01*
X3877292Y-2760246D01*
X3878649Y-2756937D01*
X3881203Y-2752619D01*
X3881203Y-2752619D01*
X3885714Y-2737092D01*
X3885714Y-2737091D01*
X3885879Y-2735000D01*
X3820400Y-2735000D01*
X3813696Y-2733032D01*
X3809121Y-2727751D01*
X3808422Y-2724542D01*
X3937523Y-2724542D01*
X3937523Y-2740311D01*
X3940600Y-2755775D01*
X3940600Y-2755777D01*
X3946634Y-2770344D01*
X3946634Y-2770345D01*
X3955394Y-2783455D01*
X3955395Y-2783456D01*
X3966544Y-2794605D01*
X3966545Y-2794605D01*
X3979655Y-2803365D01*
X3979656Y-2803366D01*
X3994223Y-2809400D01*
X3994224Y-2809400D01*
X4009556Y-2812450D01*
X4009689Y-2812476D01*
X4009689Y-2812476D01*
X4009689Y-2812476D01*
X4025458Y-2812476D01*
X4025458Y-2812476D01*
X4040923Y-2809400D01*
X4055491Y-2803366D01*
X4068602Y-2794605D01*
X4079752Y-2783455D01*
X4088513Y-2770344D01*
X4094547Y-2755776D01*
X4097623Y-2740311D01*
X4097623Y-2724542D01*
X4097623Y-2724542D01*
X4097623Y-2724542D01*
X4095538Y-2714061D01*
X4094547Y-2709077D01*
X4094112Y-2708026D01*
X4088513Y-2694509D01*
X4088512Y-2694508D01*
X4079752Y-2681398D01*
X4079752Y-2681397D01*
X4068603Y-2670248D01*
X4068602Y-2670248D01*
X4055492Y-2661487D01*
X4055491Y-2661487D01*
X4040924Y-2655453D01*
X4040922Y-2655453D01*
X4025458Y-2652377D01*
X4025458Y-2652377D01*
X4009689Y-2652377D01*
X4009689Y-2652377D01*
X3994224Y-2655453D01*
X3994223Y-2655453D01*
X3979656Y-2661487D01*
X3979655Y-2661487D01*
X3966545Y-2670248D01*
X3966544Y-2670248D01*
X3955395Y-2681397D01*
X3955394Y-2681398D01*
X3946634Y-2694508D01*
X3946634Y-2694509D01*
X3940600Y-2709076D01*
X3940600Y-2709078D01*
X3937523Y-2724542D01*
X3808422Y-2724542D01*
X3808000Y-2722600D01*
X3808000Y-2710000D01*
X3802450Y-2710000D01*
X3795746Y-2708032D01*
X3791171Y-2702751D01*
X3790050Y-2697600D01*
X3790050Y-2686532D01*
X3790050Y-2686530D01*
X3789764Y-2682901D01*
X3789764Y-2682900D01*
X3785249Y-2667361D01*
X3785249Y-2667360D01*
X3784727Y-2666476D01*
X3783000Y-2660165D01*
X3783000Y-2629549D01*
X3833000Y-2629549D01*
X3833000Y-2685000D01*
X3885879Y-2685000D01*
X3885714Y-2682909D01*
X3881203Y-2667380D01*
X3872972Y-2653463D01*
X3872971Y-2653462D01*
X3861538Y-2642029D01*
X3861537Y-2642028D01*
X3847619Y-2633797D01*
X3847619Y-2633797D01*
X3833000Y-2629549D01*
X3833000Y-2629549D01*
X3783000Y-2629549D01*
X3783000Y-2629549D01*
X3768381Y-2633797D01*
X3768381Y-2633797D01*
X3766361Y-2634991D01*
X3759588Y-2636709D01*
X3753737Y-2634991D01*
X3751640Y-2633751D01*
X3751639Y-2633750D01*
X3736100Y-2629236D01*
X3736099Y-2629236D01*
X3732470Y-2628950D01*
X3732469Y-2628950D01*
X3691531Y-2628950D01*
X3691530Y-2628950D01*
X3687901Y-2629236D01*
X3687900Y-2629236D01*
X3672361Y-2633750D01*
X3672361Y-2633751D01*
X3658431Y-2641988D01*
X3658431Y-2641989D01*
X3646989Y-2653431D01*
X3646988Y-2653432D01*
X3638750Y-2667361D01*
X3638750Y-2667361D01*
X3634236Y-2682900D01*
X3634236Y-2682901D01*
X3633950Y-2686530D01*
X3633950Y-2690919D01*
X3631981Y-2697623D01*
X3630318Y-2699687D01*
X3612203Y-2717802D01*
X3606071Y-2721150D01*
X3605855Y-2721195D01*
X3596651Y-2723026D01*
X3596650Y-2723026D01*
X3582083Y-2729060D01*
X3582081Y-2729061D01*
X3568971Y-2737821D01*
X3568971Y-2737821D01*
X3557821Y-2748971D01*
X3557821Y-2748971D01*
X3549061Y-2762081D01*
X3549060Y-2762083D01*
X3543026Y-2776650D01*
X3543026Y-2776651D01*
X3539950Y-2792115D01*
X2989450Y-2792115D01*
X2989758Y-2791808D01*
X2995890Y-2788460D01*
X2996096Y-2788416D01*
X3003350Y-2786974D01*
X3017918Y-2780939D01*
X3031029Y-2772179D01*
X3042179Y-2761029D01*
X3050939Y-2747918D01*
X3050939Y-2747918D01*
X3050940Y-2747917D01*
X3055424Y-2737091D01*
X3056919Y-2733481D01*
X3059607Y-2729459D01*
X3109411Y-2679654D01*
X3117077Y-2668181D01*
X3122358Y-2655433D01*
X3123147Y-2651467D01*
X3125050Y-2641899D01*
X3125050Y-2608321D01*
X3126777Y-2602009D01*
X3127935Y-2600050D01*
X3130455Y-2595789D01*
X3134776Y-2580916D01*
X3135050Y-2577441D01*
X3135050Y-2542560D01*
X3135050Y-2542559D01*
X3184950Y-2542559D01*
X3184950Y-2577439D01*
X3184950Y-2577442D01*
X3185223Y-2580915D01*
X3185223Y-2580916D01*
X3185223Y-2580916D01*
X3189544Y-2595789D01*
X3190578Y-2597536D01*
X3197428Y-2609119D01*
X3197429Y-2609120D01*
X3208380Y-2620071D01*
X3208380Y-2620072D01*
X3213125Y-2622878D01*
X3221711Y-2627956D01*
X3235820Y-2632054D01*
X3241128Y-2635194D01*
X3270345Y-2664411D01*
X3270345Y-2664411D01*
X3281819Y-2672078D01*
X3294567Y-2677358D01*
X3294567Y-2677358D01*
X3294568Y-2677358D01*
X3294568Y-2677358D01*
X3308100Y-2680050D01*
X3308101Y-2680050D01*
X3308101Y-2680050D01*
X3382468Y-2680050D01*
X3387214Y-2680994D01*
X3396885Y-2685000D01*
X3401650Y-2686974D01*
X3417115Y-2690050D01*
X3417116Y-2690050D01*
X3417116Y-2690050D01*
X3432884Y-2690050D01*
X3432884Y-2690050D01*
X3448350Y-2686974D01*
X3462918Y-2680939D01*
X3476029Y-2672179D01*
X3487179Y-2661029D01*
X3495939Y-2647918D01*
X3501974Y-2633350D01*
X3505050Y-2617884D01*
X3505050Y-2602116D01*
X3505050Y-2602116D01*
X3505050Y-2602115D01*
X3504639Y-2600050D01*
X3501974Y-2586650D01*
X3501151Y-2584665D01*
X3500405Y-2577719D01*
X3503532Y-2571471D01*
X3509541Y-2567905D01*
X3516523Y-2568155D01*
X3521376Y-2571152D01*
X3521793Y-2571569D01*
X3537080Y-2582676D01*
X3544580Y-2586498D01*
X3553916Y-2591255D01*
X3553916Y-2591255D01*
X3553917Y-2591255D01*
X3563550Y-2594385D01*
X3571888Y-2597094D01*
X3590551Y-2600050D01*
X3590552Y-2600050D01*
X3609449Y-2600050D01*
X3628112Y-2597094D01*
X3631422Y-2596019D01*
X3646083Y-2591255D01*
X3662920Y-2582676D01*
X3678207Y-2571569D01*
X3691232Y-2558544D01*
X3697364Y-2555196D01*
X3704333Y-2555694D01*
X3708768Y-2558544D01*
X3721793Y-2571569D01*
X3737080Y-2582676D01*
X3744580Y-2586498D01*
X3753916Y-2591255D01*
X3753916Y-2591255D01*
X3753917Y-2591255D01*
X3763550Y-2594385D01*
X3771888Y-2597094D01*
X3790551Y-2600050D01*
X3790552Y-2600050D01*
X3809449Y-2600050D01*
X3828112Y-2597094D01*
X3831422Y-2596019D01*
X3846083Y-2591255D01*
X3862920Y-2582676D01*
X3878207Y-2571569D01*
X3891267Y-2558509D01*
X3897399Y-2555161D01*
X3904369Y-2555659D01*
X3908803Y-2558509D01*
X3921825Y-2571531D01*
X3921826Y-2571531D01*
X3937106Y-2582633D01*
X3953936Y-2591209D01*
X3971900Y-2597045D01*
X3975000Y-2597536D01*
X3975000Y-2102464D01*
X3975000Y-2102464D01*
X3971900Y-2102955D01*
X3971899Y-2102955D01*
X3953936Y-2108791D01*
X3937106Y-2117367D01*
X3921826Y-2128469D01*
X3921825Y-2128469D01*
X3908803Y-2141491D01*
X3902671Y-2144839D01*
X3895702Y-2144341D01*
X3891267Y-2141491D01*
X3878207Y-2128431D01*
X3878207Y-2128431D01*
X3862920Y-2117324D01*
X3859084Y-2115369D01*
X3846084Y-2108745D01*
X3828112Y-2102906D01*
X3809449Y-2099950D01*
X3809448Y-2099950D01*
X3790552Y-2099950D01*
X3790551Y-2099950D01*
X3771888Y-2102906D01*
X3753916Y-2108745D01*
X3737080Y-2117324D01*
X3729058Y-2123152D01*
X3721793Y-2128431D01*
X3721792Y-2128431D01*
X3721792Y-2128431D01*
X3708768Y-2141456D01*
X3702636Y-2144804D01*
X3695667Y-2144306D01*
X3691232Y-2141456D01*
X3678207Y-2128431D01*
X3678207Y-2128431D01*
X3662920Y-2117324D01*
X3659084Y-2115369D01*
X3646084Y-2108745D01*
X3628112Y-2102906D01*
X3609449Y-2099950D01*
X3609448Y-2099950D01*
X3590552Y-2099950D01*
X3590551Y-2099950D01*
X3571888Y-2102906D01*
X3553916Y-2108745D01*
X3537080Y-2117324D01*
X3529058Y-2123152D01*
X3521793Y-2128431D01*
X3521792Y-2128431D01*
X3521792Y-2128431D01*
X3508768Y-2141456D01*
X3502636Y-2144804D01*
X3495667Y-2144306D01*
X3491232Y-2141456D01*
X3478207Y-2128431D01*
X3478207Y-2128431D01*
X3462920Y-2117324D01*
X3459084Y-2115369D01*
X3446084Y-2108745D01*
X3428112Y-2102906D01*
X3409449Y-2099950D01*
X3409448Y-2099950D01*
X3390552Y-2099950D01*
X3390551Y-2099950D01*
X3371888Y-2102906D01*
X3353916Y-2108745D01*
X3337080Y-2117324D01*
X3329058Y-2123152D01*
X3321793Y-2128431D01*
X3321792Y-2128431D01*
X3321792Y-2128431D01*
X3308431Y-2141792D01*
X3308431Y-2141793D01*
X3308431Y-2141793D01*
X3306137Y-2144950D01*
X3297324Y-2157080D01*
X3288745Y-2173916D01*
X3282906Y-2191888D01*
X3279950Y-2210551D01*
X3279950Y-2475050D01*
X3277981Y-2481754D01*
X3272701Y-2486329D01*
X3267550Y-2487450D01*
X3240061Y-2487450D01*
X3240058Y-2487450D01*
X3236585Y-2487723D01*
X3236584Y-2487724D01*
X3221711Y-2492045D01*
X3221711Y-2492045D01*
X3221711Y-2492045D01*
X3208380Y-2499928D01*
X3208380Y-2499929D01*
X3197429Y-2510880D01*
X3197428Y-2510881D01*
X3190340Y-2522866D01*
X3189544Y-2524211D01*
X3189001Y-2526083D01*
X3185223Y-2539085D01*
X3185223Y-2539085D01*
X3184950Y-2542559D01*
X3135050Y-2542559D01*
X3134776Y-2539085D01*
X3134776Y-2539084D01*
X3130455Y-2524211D01*
X3122571Y-2510880D01*
X3122571Y-2510880D01*
X3122571Y-2510880D01*
X3111620Y-2499929D01*
X3111619Y-2499928D01*
X3100849Y-2493559D01*
X3098289Y-2492045D01*
X3083416Y-2487724D01*
X3083415Y-2487723D01*
X3083415Y-2487723D01*
X3080339Y-2487481D01*
X3079940Y-2487450D01*
X3079940Y-2487450D01*
X3030061Y-2487450D01*
X3030058Y-2487450D01*
X3026585Y-2487723D01*
X3026584Y-2487724D01*
X3011711Y-2492045D01*
X3011711Y-2492045D01*
X3011711Y-2492045D01*
X2998380Y-2499928D01*
X2998380Y-2499929D01*
X2987429Y-2510880D01*
X2987428Y-2510881D01*
X2980340Y-2522866D01*
X2979544Y-2524211D01*
X2979001Y-2526083D01*
X2975223Y-2539085D01*
X2975223Y-2539085D01*
X2974950Y-2542559D01*
X2974950Y-2577439D01*
X2974950Y-2577442D01*
X2975223Y-2580915D01*
X2979544Y-2595789D01*
X2980446Y-2597313D01*
X2982164Y-2604086D01*
X2979948Y-2610712D01*
X2978541Y-2612393D01*
X2960541Y-2630393D01*
X2956518Y-2633081D01*
X2942082Y-2639060D01*
X2942081Y-2639061D01*
X2928971Y-2647821D01*
X2928971Y-2647821D01*
X2917821Y-2658971D01*
X2917821Y-2658972D01*
X2909061Y-2672082D01*
X2909060Y-2672083D01*
X2908384Y-2673716D01*
X2907921Y-2674409D01*
X2907811Y-2674913D01*
X2905696Y-2677738D01*
X2891718Y-2691716D01*
X2885586Y-2695065D01*
X2878617Y-2694566D01*
X2873023Y-2690379D01*
X2870582Y-2683833D01*
X2870550Y-2682948D01*
X2870550Y-2644901D01*
X2870550Y-2644899D01*
X2870489Y-2644129D01*
X2869928Y-2636993D01*
X2869928Y-2636993D01*
X2869928Y-2636991D01*
X2869611Y-2634991D01*
X2869443Y-2633934D01*
X2869408Y-2633797D01*
X2867917Y-2627956D01*
X2867126Y-2624853D01*
X2860411Y-2612128D01*
X2856815Y-2607178D01*
X2855052Y-2604892D01*
X2844451Y-2595163D01*
X2836502Y-2591255D01*
X2831539Y-2588815D01*
X2831539Y-2588814D01*
X2825720Y-2586924D01*
X2824342Y-2586498D01*
X2824342Y-2586498D01*
X2810100Y-2584450D01*
X2810100Y-2584450D01*
X2444968Y-2584450D01*
X2438264Y-2582482D01*
X2433689Y-2577201D01*
X2432694Y-2570285D01*
X2435597Y-2563930D01*
X2436200Y-2563282D01*
X2444800Y-2554682D01*
X2454273Y-2545209D01*
X2471084Y-2524129D01*
X2485428Y-2501300D01*
X2497127Y-2477008D01*
X2506032Y-2451559D01*
X2512031Y-2425273D01*
X2515050Y-2398481D01*
X2515050Y-2398158D01*
X2882500Y-2398158D01*
X2883141Y-2405210D01*
X2883141Y-2405211D01*
X2888198Y-2421440D01*
X2896993Y-2435988D01*
X2909012Y-2448007D01*
X2923560Y-2456802D01*
X2923560Y-2456802D01*
X2939789Y-2461859D01*
X2939789Y-2461859D01*
X2946842Y-2462500D01*
X3005000Y-2462500D01*
X3013158Y-2462500D01*
X3020210Y-2461859D01*
X3020211Y-2461859D01*
X3036440Y-2456802D01*
X3050988Y-2448007D01*
X3050988Y-2448007D01*
X3058732Y-2440263D01*
X3064864Y-2436915D01*
X3071833Y-2437413D01*
X3076268Y-2440263D01*
X3084012Y-2448007D01*
X3098560Y-2456802D01*
X3098560Y-2456802D01*
X3114789Y-2461859D01*
X3114789Y-2461859D01*
X3121842Y-2462500D01*
X3180000Y-2462500D01*
X3188158Y-2462500D01*
X3195210Y-2461859D01*
X3195211Y-2461859D01*
X3211440Y-2456802D01*
X3225988Y-2448007D01*
X3238007Y-2435988D01*
X3246802Y-2421440D01*
X3251859Y-2405211D01*
X3252500Y-2398157D01*
X3252500Y-2397500D01*
X3180000Y-2397500D01*
X3180000Y-2462500D01*
X3121842Y-2462500D01*
X3130000Y-2462500D01*
X3130000Y-2462500D01*
X3130000Y-2397500D01*
X3005000Y-2397500D01*
X3005000Y-2462500D01*
X2946842Y-2462500D01*
X2955000Y-2462500D01*
X2955000Y-2462500D01*
X2955000Y-2397500D01*
X2882500Y-2397500D01*
X2882500Y-2398158D01*
X2515050Y-2398158D01*
X2515050Y-2371519D01*
X2512031Y-2344727D01*
X2506032Y-2318441D01*
X2497127Y-2292992D01*
X2485428Y-2268700D01*
X2471084Y-2245871D01*
X2454273Y-2224792D01*
X2435209Y-2205727D01*
X2424410Y-2197115D01*
X2774950Y-2197115D01*
X2774950Y-2212885D01*
X2778026Y-2228349D01*
X2778026Y-2228350D01*
X2784060Y-2242917D01*
X2784061Y-2242919D01*
X2792821Y-2256029D01*
X2792821Y-2256029D01*
X2803971Y-2267179D01*
X2803971Y-2267179D01*
X2817081Y-2275939D01*
X2817083Y-2275940D01*
X2829944Y-2281267D01*
X2831650Y-2281974D01*
X2847115Y-2285050D01*
X2847116Y-2285050D01*
X2847116Y-2285050D01*
X2862884Y-2285050D01*
X2862884Y-2285050D01*
X2878350Y-2281974D01*
X2891596Y-2276487D01*
X2893583Y-2276273D01*
X2895456Y-2275575D01*
X2896986Y-2275907D01*
X2898543Y-2275740D01*
X2900330Y-2276635D01*
X2902283Y-2277060D01*
X2904513Y-2278728D01*
X2904791Y-2278868D01*
X2905109Y-2279175D01*
X2907201Y-2281267D01*
X2910550Y-2287399D01*
X2910052Y-2294368D01*
X2907202Y-2298803D01*
X2896993Y-2309012D01*
X2888198Y-2323560D01*
X2883141Y-2339789D01*
X2882500Y-2346843D01*
X2882500Y-2347500D01*
X3006656Y-2347500D01*
X3013360Y-2349469D01*
X3015424Y-2351132D01*
X3016471Y-2352179D01*
X3016471Y-2352179D01*
X3029581Y-2360939D01*
X3029583Y-2360940D01*
X3044150Y-2366974D01*
X3044150Y-2366974D01*
X3059615Y-2370050D01*
X3059615Y-2370050D01*
X3059616Y-2370050D01*
X3075384Y-2370050D01*
X3075384Y-2370050D01*
X3090850Y-2366974D01*
X3105418Y-2360939D01*
X3118529Y-2352179D01*
X3118529Y-2352179D01*
X3119576Y-2351132D01*
X3125708Y-2347783D01*
X3128344Y-2347500D01*
X3252500Y-2347500D01*
X3252500Y-2346842D01*
X3251859Y-2339790D01*
X3251859Y-2339789D01*
X3246802Y-2323560D01*
X3238007Y-2309012D01*
X3227798Y-2298803D01*
X3224450Y-2292671D01*
X3224948Y-2285702D01*
X3227798Y-2281267D01*
X3238047Y-2271019D01*
X3246848Y-2256461D01*
X3251909Y-2240220D01*
X3252550Y-2233162D01*
X3252550Y-2181838D01*
X3251909Y-2174780D01*
X3246848Y-2158539D01*
X3238047Y-2143982D01*
X3238047Y-2143981D01*
X3238047Y-2143981D01*
X3226019Y-2131953D01*
X3226018Y-2131953D01*
X3211461Y-2123152D01*
X3195220Y-2118091D01*
X3195219Y-2118091D01*
X3195219Y-2118091D01*
X3190278Y-2117642D01*
X3188162Y-2117450D01*
X3121838Y-2117450D01*
X3119914Y-2117625D01*
X3114781Y-2118091D01*
X3098539Y-2123152D01*
X3083981Y-2131953D01*
X3083981Y-2131953D01*
X3076268Y-2139666D01*
X3070136Y-2143015D01*
X3063167Y-2142516D01*
X3058732Y-2139666D01*
X3051019Y-2131953D01*
X3051018Y-2131953D01*
X3036461Y-2123152D01*
X3020220Y-2118091D01*
X3020219Y-2118091D01*
X3020219Y-2118091D01*
X3015278Y-2117642D01*
X3013162Y-2117450D01*
X2946838Y-2117450D01*
X2944914Y-2117625D01*
X2939781Y-2118091D01*
X2923539Y-2123152D01*
X2908982Y-2131953D01*
X2908479Y-2132455D01*
X2902347Y-2135803D01*
X2895377Y-2135305D01*
X2893466Y-2134326D01*
X2893455Y-2134348D01*
X2892917Y-2134060D01*
X2878350Y-2128026D01*
X2878349Y-2128026D01*
X2862884Y-2124950D01*
X2862884Y-2124950D01*
X2847116Y-2124950D01*
X2847115Y-2124950D01*
X2831651Y-2128026D01*
X2831650Y-2128026D01*
X2817083Y-2134060D01*
X2817081Y-2134061D01*
X2803971Y-2142821D01*
X2803971Y-2142821D01*
X2792821Y-2153971D01*
X2792821Y-2153971D01*
X2784061Y-2167081D01*
X2784060Y-2167083D01*
X2778026Y-2181650D01*
X2778026Y-2181651D01*
X2774950Y-2197115D01*
X2424410Y-2197115D01*
X2414129Y-2188916D01*
X2391300Y-2174572D01*
X2391299Y-2174571D01*
X2367008Y-2162873D01*
X2341560Y-2153969D01*
X2341559Y-2153968D01*
X2321845Y-2149469D01*
X2315273Y-2147969D01*
X2315273Y-2147969D01*
X2315272Y-2147969D01*
X2288481Y-2144950D01*
X2288481Y-2144950D01*
X2261519Y-2144950D01*
X2261519Y-2144950D01*
X2234728Y-2147969D01*
X2234727Y-2147969D01*
X2208441Y-2153968D01*
X2208440Y-2153969D01*
X2182992Y-2162873D01*
X2158701Y-2174571D01*
X2135871Y-2188916D01*
X2114792Y-2205727D01*
X2095726Y-2224792D01*
X2078916Y-2245871D01*
X2064571Y-2268701D01*
X2052873Y-2292992D01*
X2043969Y-2318440D01*
X2043968Y-2318441D01*
X2037969Y-2344727D01*
X2037969Y-2344728D01*
X2034950Y-2371519D01*
X2034950Y-2398481D01*
X2037969Y-2425272D01*
X2037969Y-2425273D01*
X2037969Y-2425273D01*
X2038899Y-2429351D01*
X2043968Y-2451559D01*
X2043969Y-2451560D01*
X2052873Y-2477008D01*
X2064571Y-2501299D01*
X2068739Y-2507933D01*
X2078916Y-2524129D01*
X2087802Y-2535271D01*
X2095147Y-2544481D01*
X2095727Y-2545209D01*
X2114792Y-2564273D01*
X2135871Y-2581084D01*
X2158700Y-2595428D01*
X2182992Y-2607127D01*
X2195924Y-2611652D01*
X2208533Y-2616064D01*
X2211141Y-2617934D01*
X2213836Y-2619679D01*
X2213962Y-2619958D01*
X2214211Y-2620136D01*
X2215394Y-2623120D01*
X2216717Y-2626044D01*
X2216702Y-2626420D01*
X2216786Y-2626631D01*
X2216706Y-2629573D01*
X2216590Y-2630359D01*
X2216498Y-2630658D01*
X2214450Y-2644900D01*
X2214450Y-2644904D01*
X2214418Y-2645125D01*
X2212967Y-2648274D01*
X2211521Y-2651440D01*
X2211496Y-2651467D01*
X2211494Y-2651471D01*
X2211490Y-2651473D01*
X2210918Y-2652088D01*
X2089473Y-2773533D01*
X2089472Y-2773533D01*
X2084283Y-2781300D01*
X2082353Y-2784187D01*
X2077450Y-2796026D01*
X2077450Y-2796026D01*
X2074950Y-2808593D01*
X2074950Y-2961907D01*
X2075298Y-2963654D01*
X2075958Y-2966973D01*
X2076368Y-2969035D01*
X2076368Y-2969035D01*
X2077053Y-2972481D01*
X2077450Y-2974474D01*
X2082353Y-2986313D01*
X2086827Y-2993007D01*
X2089473Y-2996967D01*
X2089473Y-2996967D01*
X2152818Y-3060313D01*
X2156167Y-3066445D01*
X2156450Y-3069081D01*
X2156450Y-3096834D01*
X2156450Y-3096835D01*
X2157465Y-3106771D01*
X2157465Y-3106771D01*
X2162800Y-3122869D01*
X2162800Y-3122870D01*
X2171703Y-3137304D01*
X2171703Y-3137304D01*
X2172631Y-3138232D01*
X2175979Y-3144364D01*
X2175481Y-3151333D01*
X2172631Y-3155768D01*
X2171703Y-3156695D01*
X2171703Y-3156696D01*
X2162800Y-3171129D01*
X2162800Y-3171130D01*
X2157465Y-3187229D01*
X2156450Y-3197165D01*
X2156450Y-3251834D01*
X2156450Y-3251835D01*
X2157465Y-3261771D01*
X2157465Y-3261771D01*
X2162800Y-3277869D01*
X2162800Y-3277870D01*
X2171703Y-3292304D01*
X2171703Y-3292304D01*
X2183696Y-3304297D01*
X2183696Y-3304297D01*
X2198129Y-3313200D01*
X2198130Y-3313200D01*
X2198130Y-3313200D01*
X2214229Y-3318535D01*
X2224166Y-3319550D01*
X2283834Y-3319550D01*
X2283835Y-3319550D01*
X2283836Y-3319550D01*
X2289276Y-3318994D01*
X2293771Y-3318535D01*
X2309870Y-3313200D01*
X2324304Y-3304297D01*
X2335419Y-3293182D01*
X2338112Y-3291711D01*
X2340694Y-3290052D01*
X2341314Y-3289963D01*
X2341552Y-3289833D01*
X2344187Y-3289550D01*
X2355602Y-3289550D01*
X2362306Y-3291518D01*
X2366881Y-3296799D01*
X2367220Y-3297617D01*
X2370620Y-3306733D01*
X2370621Y-3306733D01*
X2379245Y-3318254D01*
X2379246Y-3318255D01*
X2390766Y-3326879D01*
X2390767Y-3326880D01*
X2392804Y-3327639D01*
X2404252Y-3331909D01*
X2410213Y-3332550D01*
X2452380Y-3332550D01*
X2459084Y-3334518D01*
X2463659Y-3339799D01*
X2464654Y-3346715D01*
X2463836Y-3349695D01*
X2463026Y-3351650D01*
X2463026Y-3351651D01*
X2459950Y-3367115D01*
X2459950Y-3382885D01*
X2463026Y-3398349D01*
X2463026Y-3398350D01*
X2469060Y-3412917D01*
X2469061Y-3412918D01*
X2477821Y-3426029D01*
X2477821Y-3426029D01*
X2488971Y-3437179D01*
X2488971Y-3437179D01*
X2502081Y-3445939D01*
X2502083Y-3445940D01*
X2514447Y-3451061D01*
X2516650Y-3451974D01*
X2532115Y-3455050D01*
X2532116Y-3455050D01*
X2532116Y-3455050D01*
X2547884Y-3455050D01*
X2547885Y-3455050D01*
X2563350Y-3451974D01*
X2577918Y-3445939D01*
X2581111Y-3443806D01*
X2587779Y-3441718D01*
X2594517Y-3443566D01*
X2594887Y-3443804D01*
X2598082Y-3445939D01*
X2598082Y-3445939D01*
X2598083Y-3445940D01*
X2610447Y-3451061D01*
X2612650Y-3451974D01*
X2628115Y-3455050D01*
X2628116Y-3455050D01*
X2628116Y-3455050D01*
X2643884Y-3455050D01*
X2643885Y-3455050D01*
X2659350Y-3451974D01*
X2673918Y-3445939D01*
X2687029Y-3437179D01*
X2698179Y-3426029D01*
X2706939Y-3412918D01*
X2712974Y-3398350D01*
X2716050Y-3382884D01*
X2716050Y-3367116D01*
X2716050Y-3367115D01*
X2716050Y-3367115D01*
X2714625Y-3359950D01*
X2712974Y-3351650D01*
X2710929Y-3346715D01*
X2706940Y-3337083D01*
X2706939Y-3337081D01*
X2702250Y-3330064D01*
X2700163Y-3323397D01*
X2702011Y-3316658D01*
X2702633Y-3315746D01*
X2709380Y-3306733D01*
X2714409Y-3293248D01*
X2715050Y-3287287D01*
X2715050Y-3190585D01*
X2717018Y-3183881D01*
X2722299Y-3179305D01*
X2729215Y-3178311D01*
X2735570Y-3181214D01*
X2738004Y-3184075D01*
X2738743Y-3185273D01*
X2750727Y-3197257D01*
X2750727Y-3197257D01*
X2765151Y-3206154D01*
X2765152Y-3206155D01*
X2781239Y-3211485D01*
X2791168Y-3212500D01*
X2796000Y-3212500D01*
X2796000Y-3212500D01*
X2796000Y-3142500D01*
X2721433Y-3142500D01*
X2714729Y-3140531D01*
X2710154Y-3135251D01*
X2709815Y-3134433D01*
X2709644Y-3133976D01*
X2709380Y-3133267D01*
X2709379Y-3133267D01*
X2709379Y-3133266D01*
X2700755Y-3121745D01*
X2700754Y-3121745D01*
X2689234Y-3113121D01*
X2689233Y-3113120D01*
X2675749Y-3108091D01*
X2675749Y-3108091D01*
X2675748Y-3108091D01*
X2669787Y-3107450D01*
X2669786Y-3107450D01*
X2600213Y-3107450D01*
X2600212Y-3107450D01*
X2594252Y-3108091D01*
X2591833Y-3108993D01*
X2588773Y-3109212D01*
X2585735Y-3109648D01*
X2585063Y-3109477D01*
X2584864Y-3109491D01*
X2584640Y-3109369D01*
X2583167Y-3108993D01*
X2580749Y-3108091D01*
X2580749Y-3108091D01*
X2580748Y-3108091D01*
X2574787Y-3107450D01*
X2574786Y-3107450D01*
X2505213Y-3107450D01*
X2505212Y-3107450D01*
X2499252Y-3108091D01*
X2496833Y-3108993D01*
X2493862Y-3109205D01*
X2490920Y-3109673D01*
X2490111Y-3109473D01*
X2489864Y-3109491D01*
X2489601Y-3109347D01*
X2488167Y-3108993D01*
X2485749Y-3108091D01*
X2485749Y-3108091D01*
X2485748Y-3108091D01*
X2479787Y-3107450D01*
X2479786Y-3107450D01*
X2410213Y-3107450D01*
X2410212Y-3107450D01*
X2404252Y-3108091D01*
X2390767Y-3113120D01*
X2390766Y-3113121D01*
X2379246Y-3121745D01*
X2379245Y-3121745D01*
X2370621Y-3133266D01*
X2370620Y-3133267D01*
X2366138Y-3145285D01*
X2365591Y-3146752D01*
X2365416Y-3148376D01*
X2365329Y-3148587D01*
X2365361Y-3148815D01*
X2363998Y-3151799D01*
X2362743Y-3154831D01*
X2362554Y-3154961D01*
X2362459Y-3155170D01*
X2359698Y-3156945D01*
X2357003Y-3158815D01*
X2356714Y-3158862D01*
X2356581Y-3158948D01*
X2353087Y-3159450D01*
X2344187Y-3159450D01*
X2337484Y-3157481D01*
X2335419Y-3155818D01*
X2335369Y-3155768D01*
X2334297Y-3153804D01*
X2332908Y-3152201D01*
X2332724Y-3150924D01*
X2332021Y-3149636D01*
X2332193Y-3147228D01*
X2331914Y-3145285D01*
X2332410Y-3144199D01*
X2332519Y-3142667D01*
X2334559Y-3139493D01*
X2334816Y-3138930D01*
X2334995Y-3138815D01*
X2335369Y-3138232D01*
X2335780Y-3137821D01*
X2336297Y-3137304D01*
X2345200Y-3122870D01*
X2350535Y-3106771D01*
X2351550Y-3096834D01*
X2351550Y-3068430D01*
X2353518Y-3061727D01*
X2358799Y-3057151D01*
X2365715Y-3056157D01*
X2372070Y-3059059D01*
X2373877Y-3060999D01*
X2379281Y-3068219D01*
X2379281Y-3068219D01*
X2390791Y-3076835D01*
X2390791Y-3076835D01*
X2404262Y-3081860D01*
X2404263Y-3081860D01*
X2410216Y-3082500D01*
X2410217Y-3082500D01*
X2420000Y-3082500D01*
X2420000Y-3040000D01*
X2460242Y-3040000D01*
X2460591Y-3043248D01*
X2465620Y-3056733D01*
X2465620Y-3056733D01*
X2467527Y-3059279D01*
X2469968Y-3065826D01*
X2470000Y-3066711D01*
X2470000Y-3082500D01*
X2479783Y-3082500D01*
X2479784Y-3082500D01*
X2485737Y-3081860D01*
X2485738Y-3081860D01*
X2488095Y-3080980D01*
X2491066Y-3080768D01*
X2494009Y-3080300D01*
X2494514Y-3080521D01*
X2495064Y-3080482D01*
X2496762Y-3080980D01*
X2499251Y-3081909D01*
X2499252Y-3081909D01*
X2505213Y-3082550D01*
X2574787Y-3082550D01*
X2580748Y-3081909D01*
X2583166Y-3081007D01*
X2586227Y-3080788D01*
X2589265Y-3080351D01*
X2589680Y-3080541D01*
X2590135Y-3080508D01*
X2591833Y-3081007D01*
X2594252Y-3081909D01*
X2600213Y-3082550D01*
X2669787Y-3082550D01*
X2675748Y-3081909D01*
X2689233Y-3076880D01*
X2700755Y-3068255D01*
X2704844Y-3062792D01*
X2710437Y-3058605D01*
X2717406Y-3058107D01*
X2723538Y-3061455D01*
X2726887Y-3067588D01*
X2726541Y-3074124D01*
X2724514Y-3080239D01*
X2724514Y-3080239D01*
X2723500Y-3090168D01*
X2723500Y-3092500D01*
X2808600Y-3092500D01*
X2815304Y-3094468D01*
X2819879Y-3099749D01*
X2821000Y-3104900D01*
X2821000Y-3117500D01*
X2833600Y-3117500D01*
X2840304Y-3119468D01*
X2844879Y-3124749D01*
X2846000Y-3129900D01*
X2846000Y-3212500D01*
X2850831Y-3212500D01*
X2850832Y-3212500D01*
X2860761Y-3211485D01*
X2876848Y-3206155D01*
X2876849Y-3206154D01*
X2891273Y-3197257D01*
X2891273Y-3197257D01*
X2903257Y-3185273D01*
X2910225Y-3173976D01*
X2915420Y-3169304D01*
X2922316Y-3168182D01*
X2924239Y-3168579D01*
X2940172Y-3173208D01*
X2940172Y-3173208D01*
X2941000Y-3173273D01*
X2941000Y-3173273D01*
X2941000Y-3099150D01*
X2942968Y-3092446D01*
X2948249Y-3087871D01*
X2953400Y-3086750D01*
X2978600Y-3086750D01*
X2985304Y-3088718D01*
X2989879Y-3093999D01*
X2991000Y-3099150D01*
X2991000Y-3173273D01*
X2991000Y-3173273D01*
X2991827Y-3173208D01*
X2991828Y-3173208D01*
X3007719Y-3168591D01*
X3011238Y-3166510D01*
X3018010Y-3164792D01*
X3024636Y-3167008D01*
X3029013Y-3172454D01*
X3029950Y-3177183D01*
X3029950Y-4003101D01*
X3029950Y-4016899D01*
X3029950Y-4016900D01*
X3029950Y-4016900D01*
X3032642Y-4030432D01*
X3032642Y-4030433D01*
X3037922Y-4043181D01*
X3045589Y-4054654D01*
X3045589Y-4054655D01*
X3129716Y-4138782D01*
X3133065Y-4144914D01*
X3132566Y-4151883D01*
X3128379Y-4157477D01*
X3121833Y-4159918D01*
X3120948Y-4159950D01*
X2919494Y-4159950D01*
X2912790Y-4157981D01*
X2908214Y-4152701D01*
X2907220Y-4145785D01*
X2910122Y-4139430D01*
X2912063Y-4137623D01*
X2921219Y-4130769D01*
X2921219Y-4130769D01*
X2929835Y-4119259D01*
X2929835Y-4119259D01*
X2934860Y-4105788D01*
X2934860Y-4105787D01*
X2935500Y-4099834D01*
X2935500Y-4099833D01*
X2935500Y-4043800D01*
X2862900Y-4043800D01*
X2856196Y-4041831D01*
X2851621Y-4036551D01*
X2850500Y-4031400D01*
X2850500Y-4018800D01*
X2837900Y-4018800D01*
X2831196Y-4016831D01*
X2826621Y-4011551D01*
X2825500Y-4006400D01*
X2825500Y-3993800D01*
X2875500Y-3993800D01*
X2935500Y-3993800D01*
X2935500Y-3937767D01*
X2935500Y-3937765D01*
X2934860Y-3931813D01*
X2934860Y-3931812D01*
X2929835Y-3918341D01*
X2929835Y-3918341D01*
X2921219Y-3906831D01*
X2921219Y-3906831D01*
X2909709Y-3898215D01*
X2909709Y-3898214D01*
X2896238Y-3893190D01*
X2896237Y-3893190D01*
X2890284Y-3892550D01*
X2875500Y-3892550D01*
X2875500Y-3993800D01*
X2825500Y-3993800D01*
X2825500Y-3895286D01*
X2817174Y-3891372D01*
X2816548Y-3890817D01*
X2815746Y-3890581D01*
X2813972Y-3888535D01*
X2811945Y-3886738D01*
X2811718Y-3885933D01*
X2811171Y-3885301D01*
X2810050Y-3880150D01*
X2810050Y-3872115D01*
X2810050Y-3872115D01*
X2807453Y-3859061D01*
X2806974Y-3856650D01*
X2806973Y-3856650D01*
X2800940Y-3842083D01*
X2800939Y-3842081D01*
X2792179Y-3828971D01*
X2792179Y-3828971D01*
X2781029Y-3817821D01*
X2781029Y-3817821D01*
X2767919Y-3809061D01*
X2767917Y-3809060D01*
X2753350Y-3803026D01*
X2753349Y-3803026D01*
X2737885Y-3799950D01*
X2737884Y-3799950D01*
X2722116Y-3799950D01*
X2722116Y-3799950D01*
X2706651Y-3803026D01*
X2706650Y-3803026D01*
X2692083Y-3809060D01*
X2692081Y-3809061D01*
X2678971Y-3817821D01*
X2678971Y-3817821D01*
X2673768Y-3823024D01*
X2667636Y-3826372D01*
X2660667Y-3825874D01*
X2656232Y-3823024D01*
X2651029Y-3817821D01*
X2651029Y-3817821D01*
X2637919Y-3809061D01*
X2637917Y-3809060D01*
X2623350Y-3803026D01*
X2623349Y-3803026D01*
X2607885Y-3799950D01*
X2607884Y-3799950D01*
X2592116Y-3799950D01*
X2592116Y-3799950D01*
X2576651Y-3803026D01*
X2576650Y-3803026D01*
X2562083Y-3809060D01*
X2562081Y-3809061D01*
X2548971Y-3817821D01*
X2548971Y-3817821D01*
X2537821Y-3828971D01*
X2537821Y-3828971D01*
X2529061Y-3842081D01*
X2529060Y-3842083D01*
X2523026Y-3856650D01*
X2523026Y-3856651D01*
X2519950Y-3872115D01*
X2519950Y-3880100D01*
X2517982Y-3886804D01*
X2512701Y-3891379D01*
X2507550Y-3892500D01*
X2429713Y-3892500D01*
X2429712Y-3892500D01*
X2423752Y-3893141D01*
X2410267Y-3898170D01*
X2410266Y-3898171D01*
X2398746Y-3906795D01*
X2398118Y-3907422D01*
X2397865Y-3907169D01*
X2393621Y-3910331D01*
X2386651Y-3910814D01*
X2380526Y-3907452D01*
X2377191Y-3901312D01*
X2376978Y-3897443D01*
X2377500Y-3892332D01*
X2377500Y-3892331D01*
X2377500Y-3890000D01*
X2182500Y-3890000D01*
X2182500Y-3892332D01*
X2183514Y-3902261D01*
X2188845Y-3918348D01*
X2188846Y-3918349D01*
X2197742Y-3932773D01*
X2197743Y-3932773D01*
X2198666Y-3933696D01*
X2202015Y-3939829D01*
X2201516Y-3946798D01*
X2198666Y-3951232D01*
X2197703Y-3952195D01*
X2197703Y-3952196D01*
X2188800Y-3966629D01*
X2188800Y-3966630D01*
X2183465Y-3982729D01*
X2182450Y-3992665D01*
X2182450Y-4047334D01*
X2182450Y-4047335D01*
X2183365Y-4056290D01*
X2182088Y-4063159D01*
X2177300Y-4068248D01*
X2171029Y-4069950D01*
X2155146Y-4069950D01*
X2135817Y-4073795D01*
X2135816Y-4073795D01*
X2117609Y-4081336D01*
X2117608Y-4081337D01*
X2101222Y-4092286D01*
X2101221Y-4092286D01*
X2087286Y-4106221D01*
X2087286Y-4106222D01*
X2076337Y-4122608D01*
X2076337Y-4122609D01*
X2072817Y-4131106D01*
X2068433Y-4136546D01*
X2066106Y-4137817D01*
X2057609Y-4141337D01*
X2057608Y-4141337D01*
X2041222Y-4152286D01*
X2041221Y-4152286D01*
X2027286Y-4166221D01*
X2027286Y-4166222D01*
X2016337Y-4182608D01*
X2016336Y-4182609D01*
X2008795Y-4200816D01*
X2008795Y-4200817D01*
X2004950Y-4220146D01*
X2004950Y-4220146D01*
X2004950Y-4264854D01*
X2005890Y-4269582D01*
X2008795Y-4284184D01*
X2010866Y-4289184D01*
X2011197Y-4289982D01*
X2011197Y-4289982D01*
X2016337Y-4302392D01*
X2027286Y-4318778D01*
X2027286Y-4318779D01*
X2031553Y-4323046D01*
X2034902Y-4329178D01*
X2034404Y-4336147D01*
X2032609Y-4339267D01*
X2032624Y-4339277D01*
X2032469Y-4339509D01*
X2032372Y-4339679D01*
X2032287Y-4339782D01*
X2021337Y-4356170D01*
X2021336Y-4356171D01*
X2019146Y-4361459D01*
X2019146Y-4361460D01*
X2018959Y-4361911D01*
X2013795Y-4374378D01*
X2012105Y-4382873D01*
X2011963Y-4383588D01*
X2011963Y-4383588D01*
X2009950Y-4393707D01*
X2009950Y-4992854D01*
X2010134Y-4993779D01*
X2011006Y-4998162D01*
X2013795Y-5012184D01*
X2015984Y-5017470D01*
X2016307Y-5018248D01*
X2016307Y-5018248D01*
X2021336Y-5030391D01*
X2021337Y-5030392D01*
X2032286Y-5046778D01*
X2032286Y-5046779D01*
X2046654Y-5061146D01*
X2046656Y-5061148D01*
X2205818Y-5220310D01*
X2209167Y-5226442D01*
X2209450Y-5229078D01*
X2209450Y-5572737D01*
X2209450Y-5572738D01*
X2210091Y-5578698D01*
X2215120Y-5592183D01*
X2215121Y-5592184D01*
X2223745Y-5603704D01*
X2223746Y-5603705D01*
X2235266Y-5612329D01*
X2235267Y-5612330D01*
X2239762Y-5614006D01*
X2248752Y-5617359D01*
X2254713Y-5618000D01*
X2287050Y-5618000D01*
X2287919Y-5618255D01*
X2288815Y-5618126D01*
X2291218Y-5619224D01*
X2293754Y-5619968D01*
X2294347Y-5620652D01*
X2295170Y-5621029D01*
X2296599Y-5623252D01*
X2298329Y-5625249D01*
X2298558Y-5626300D01*
X2298948Y-5626906D01*
X2299450Y-5630400D01*
X2299450Y-5632600D01*
X2297482Y-5639304D01*
X2292201Y-5643879D01*
X2287050Y-5645000D01*
X2259713Y-5645000D01*
X2259712Y-5645000D01*
X2253752Y-5645641D01*
X2240267Y-5650670D01*
X2240266Y-5650671D01*
X2228746Y-5659295D01*
X2228745Y-5659295D01*
X2220121Y-5670816D01*
X2220120Y-5670817D01*
X2215091Y-5684302D01*
X2214450Y-5690262D01*
X2214450Y-5690263D01*
X2214450Y-5792337D01*
X2214450Y-5792338D01*
X2215091Y-5798298D01*
X2220120Y-5811783D01*
X2220433Y-5812355D01*
X2220802Y-5813800D01*
X2221448Y-5814805D01*
X2221950Y-5818299D01*
X2221950Y-5833996D01*
X2219982Y-5840700D01*
X2219860Y-5840885D01*
X2219061Y-5842082D01*
X2219060Y-5842082D01*
X2213026Y-5856650D01*
X2213026Y-5856651D01*
X2209950Y-5872115D01*
X2209950Y-5887885D01*
X2213026Y-5903349D01*
X2213026Y-5903350D01*
X2219060Y-5917917D01*
X2219061Y-5917918D01*
X2227821Y-5931029D01*
X2227821Y-5931029D01*
X2238971Y-5942179D01*
X2238971Y-5942179D01*
X2252081Y-5950939D01*
X2252083Y-5950940D01*
X2266650Y-5956973D01*
X2266650Y-5956974D01*
X2280550Y-5959738D01*
X2282115Y-5960050D01*
X2282116Y-5960050D01*
X2287050Y-5960050D01*
X2293754Y-5962018D01*
X2298329Y-5967299D01*
X2299450Y-5972450D01*
X2299450Y-6348703D01*
X2297482Y-6355407D01*
X2292201Y-6359982D01*
X2285285Y-6360977D01*
X2284366Y-6360809D01*
X2253896Y-6354054D01*
X2252851Y-6353774D01*
X2214784Y-6341771D01*
X2213767Y-6341401D01*
X2176890Y-6326126D01*
X2175910Y-6325669D01*
X2140506Y-6307239D01*
X2139569Y-6306698D01*
X2105904Y-6285251D01*
X2105018Y-6284631D01*
X2073351Y-6260332D01*
X2072522Y-6259636D01*
X2043094Y-6232670D01*
X2042329Y-6231906D01*
X2015363Y-6202477D01*
X2014668Y-6201649D01*
X1990369Y-6169982D01*
X1989749Y-6169096D01*
X1968302Y-6135431D01*
X1967761Y-6134494D01*
X1949331Y-6099090D01*
X1948874Y-6098110D01*
X1933598Y-6061231D01*
X1933229Y-6060216D01*
X1931003Y-6053159D01*
X1921226Y-6022148D01*
X1920946Y-6021104D01*
X1920192Y-6017704D01*
X1912306Y-5982133D01*
X1912119Y-5981068D01*
X1906909Y-5941494D01*
X1906815Y-5940420D01*
X1905062Y-5900270D01*
X1905050Y-5899729D01*
X1905050Y-3837668D01*
X2182500Y-3837668D01*
X2182500Y-3840000D01*
X2255000Y-3840000D01*
X2305000Y-3840000D01*
X2377500Y-3840000D01*
X2377500Y-3837669D01*
X2377500Y-3837668D01*
X2376486Y-3827739D01*
X2371155Y-3811652D01*
X2371154Y-3811651D01*
X2362258Y-3797227D01*
X2362257Y-3797227D01*
X2350273Y-3785243D01*
X2350273Y-3785242D01*
X2335849Y-3776346D01*
X2335848Y-3776345D01*
X2319761Y-3771014D01*
X2309832Y-3770000D01*
X2305000Y-3770000D01*
X2305000Y-3840000D01*
X2255000Y-3840000D01*
X2255000Y-3770000D01*
X2255000Y-3770000D01*
X2250169Y-3770000D01*
X2250168Y-3770000D01*
X2240239Y-3771014D01*
X2224152Y-3776345D01*
X2224151Y-3776346D01*
X2209727Y-3785242D01*
X2209727Y-3785243D01*
X2197743Y-3797227D01*
X2197742Y-3797227D01*
X2188846Y-3811651D01*
X2188845Y-3811652D01*
X2183514Y-3827739D01*
X2182500Y-3837668D01*
X1905050Y-3837668D01*
X1905050Y-3657115D01*
X1999950Y-3657115D01*
X1999950Y-3672885D01*
X2003026Y-3688349D01*
X2003026Y-3688350D01*
X2009060Y-3702917D01*
X2009061Y-3702918D01*
X2017821Y-3716029D01*
X2017821Y-3716029D01*
X2028971Y-3727179D01*
X2028971Y-3727179D01*
X2042081Y-3735939D01*
X2042083Y-3735940D01*
X2052006Y-3740050D01*
X2056650Y-3741974D01*
X2072115Y-3745050D01*
X2072116Y-3745050D01*
X2072116Y-3745050D01*
X2087884Y-3745050D01*
X2087884Y-3745050D01*
X2103350Y-3741974D01*
X2112969Y-3737989D01*
X2117755Y-3736007D01*
X2124702Y-3735260D01*
X2127245Y-3736007D01*
X2137006Y-3740050D01*
X2141650Y-3741974D01*
X2157115Y-3745050D01*
X2157116Y-3745050D01*
X2157116Y-3745050D01*
X2172884Y-3745050D01*
X2172885Y-3745050D01*
X2188350Y-3741974D01*
X2197969Y-3737989D01*
X2202755Y-3736007D01*
X2209702Y-3735260D01*
X2212245Y-3736007D01*
X2222006Y-3740050D01*
X2226650Y-3741974D01*
X2242115Y-3745050D01*
X2242116Y-3745050D01*
X2242116Y-3745050D01*
X2257884Y-3745050D01*
X2257885Y-3745050D01*
X2273350Y-3741974D01*
X2287918Y-3735939D01*
X2301029Y-3727179D01*
X2312179Y-3716029D01*
X2320939Y-3702918D01*
X2326974Y-3688350D01*
X2330050Y-3672884D01*
X2330050Y-3657116D01*
X2330050Y-3657115D01*
X2330050Y-3657115D01*
X2329389Y-3653795D01*
X2326974Y-3641650D01*
X2325474Y-3638029D01*
X2320940Y-3627083D01*
X2320939Y-3627081D01*
X2312179Y-3613971D01*
X2312179Y-3613971D01*
X2301029Y-3602821D01*
X2301029Y-3602821D01*
X2287919Y-3594061D01*
X2287917Y-3594060D01*
X2273350Y-3588026D01*
X2273349Y-3588026D01*
X2257885Y-3584950D01*
X2257884Y-3584950D01*
X2242116Y-3584950D01*
X2242116Y-3584950D01*
X2226651Y-3588026D01*
X2226650Y-3588026D01*
X2212245Y-3593993D01*
X2205298Y-3594740D01*
X2202755Y-3593993D01*
X2188350Y-3588026D01*
X2188349Y-3588026D01*
X2172885Y-3584950D01*
X2172884Y-3584950D01*
X2157116Y-3584950D01*
X2157116Y-3584950D01*
X2141651Y-3588026D01*
X2141650Y-3588026D01*
X2127245Y-3593993D01*
X2120298Y-3594740D01*
X2117755Y-3593993D01*
X2103350Y-3588026D01*
X2103349Y-3588026D01*
X2087884Y-3584950D01*
X2087884Y-3584950D01*
X2072116Y-3584950D01*
X2072115Y-3584950D01*
X2056651Y-3588026D01*
X2056650Y-3588026D01*
X2042083Y-3594060D01*
X2042081Y-3594061D01*
X2028971Y-3602821D01*
X2028971Y-3602821D01*
X2017821Y-3613971D01*
X2017821Y-3613971D01*
X2009061Y-3627081D01*
X2009060Y-3627083D01*
X2003026Y-3641650D01*
X2003026Y-3641651D01*
X1999950Y-3657115D01*
X1905050Y-3657115D01*
X1905050Y-2500271D01*
X1905062Y-2499730D01*
X1905598Y-2487450D01*
X1906815Y-2459580D01*
X1906909Y-2458506D01*
X1912119Y-2418930D01*
X1912306Y-2417867D01*
X1920946Y-2378895D01*
X1921226Y-2377851D01*
X1923223Y-2371519D01*
X1933229Y-2339782D01*
X1933598Y-2338769D01*
X1948874Y-2301889D01*
X1949330Y-2300911D01*
X1967762Y-2265505D01*
X1968301Y-2264570D01*
X1989749Y-2230903D01*
X1990368Y-2230019D01*
X2014669Y-2198350D01*
X2015362Y-2197523D01*
X2042330Y-2168093D01*
X2043093Y-2167330D01*
X2072523Y-2140363D01*
X2073350Y-2139669D01*
X2105019Y-2115369D01*
X2105903Y-2114750D01*
X2139570Y-2093301D01*
X2140505Y-2092762D01*
X2175911Y-2074330D01*
X2176889Y-2073874D01*
X2213769Y-2058598D01*
X2214782Y-2058229D01*
X2252852Y-2046226D01*
X2253895Y-2045946D01*
X2292867Y-2037306D01*
X2293930Y-2037119D01*
X2333506Y-2031909D01*
X2334580Y-2031815D01*
X2374730Y-2030062D01*
X2375271Y-2030050D01*
X2379760Y-2030050D01*
X5770240Y-2030050D01*
X5774729Y-2030050D01*
X5775270Y-2030062D01*
G37*
%TD.AperFunction*%
%TA.AperFunction,Conductor*%
G36*
X3294254Y-4362019D02*
G01*
X3298829Y-4367299D01*
X3299950Y-4372450D01*
X3299950Y-4939854D01*
X3301459Y-4947441D01*
X3301461Y-4947450D01*
X3301461Y-4947450D01*
X3303795Y-4959183D01*
X3303795Y-4959184D01*
X3304470Y-4960813D01*
X3311337Y-4977391D01*
X3311337Y-4977392D01*
X3322286Y-4993778D01*
X3322286Y-4993779D01*
X3336654Y-5008146D01*
X3336656Y-5008148D01*
X3485818Y-5157310D01*
X3489167Y-5163442D01*
X3489450Y-5166078D01*
X3489450Y-5258281D01*
X3487481Y-5264985D01*
X3482201Y-5269561D01*
X3475285Y-5270555D01*
X3467600Y-5269450D01*
X3467600Y-5269450D01*
X3387950Y-5269450D01*
X3381246Y-5267482D01*
X3376671Y-5262201D01*
X3375550Y-5257050D01*
X3375550Y-5167663D01*
X3375550Y-5167662D01*
X3375379Y-5166078D01*
X3374909Y-5161702D01*
X3373271Y-5157310D01*
X3372394Y-5154959D01*
X3369880Y-5148217D01*
X3369879Y-5148217D01*
X3369567Y-5147644D01*
X3368050Y-5141701D01*
X3368050Y-5101347D01*
X3365454Y-5088297D01*
X3365454Y-5088297D01*
X3365454Y-5088296D01*
X3361744Y-5079340D01*
X3360362Y-5076004D01*
X3360362Y-5076004D01*
X3360362Y-5076003D01*
X3360338Y-5075967D01*
X3352970Y-5064940D01*
X3352970Y-5064940D01*
X3352969Y-5064939D01*
X3343561Y-5055531D01*
X3266182Y-4978152D01*
X3262833Y-4972020D01*
X3262550Y-4969384D01*
X3262550Y-4946839D01*
X3261909Y-4939781D01*
X3261909Y-4939780D01*
X3256848Y-4923539D01*
X3248047Y-4908982D01*
X3248047Y-4908981D01*
X3248047Y-4908981D01*
X3236019Y-4896953D01*
X3227748Y-4891953D01*
X3221461Y-4888152D01*
X3205220Y-4883091D01*
X3205219Y-4883091D01*
X3205219Y-4883091D01*
X3200278Y-4882642D01*
X3198162Y-4882450D01*
X3146838Y-4882450D01*
X3144914Y-4882625D01*
X3139781Y-4883091D01*
X3123539Y-4888152D01*
X3108981Y-4896953D01*
X3108981Y-4896953D01*
X3098768Y-4907166D01*
X3092636Y-4910515D01*
X3085667Y-4910016D01*
X3081232Y-4907166D01*
X3071019Y-4896953D01*
X3062748Y-4891953D01*
X3056461Y-4888152D01*
X3040220Y-4883091D01*
X3040219Y-4883091D01*
X3040219Y-4883091D01*
X3035278Y-4882642D01*
X3033162Y-4882450D01*
X3033161Y-4882450D01*
X3014152Y-4882450D01*
X3007448Y-4880482D01*
X3005384Y-4878818D01*
X2924182Y-4797616D01*
X2920833Y-4791484D01*
X2920550Y-4788848D01*
X2920550Y-4678273D01*
X2922518Y-4671569D01*
X2923023Y-4670842D01*
X2923215Y-4670585D01*
X2929880Y-4661683D01*
X2934909Y-4648198D01*
X2935269Y-4644849D01*
X2937943Y-4638394D01*
X2943682Y-4634409D01*
X2950664Y-4634160D01*
X2954487Y-4635865D01*
X2962081Y-4640939D01*
X2962083Y-4640940D01*
X2973930Y-4645847D01*
X2976650Y-4646974D01*
X2992115Y-4650050D01*
X2992116Y-4650050D01*
X2992116Y-4650050D01*
X3007884Y-4650050D01*
X3007884Y-4650050D01*
X3023350Y-4646974D01*
X3037918Y-4640939D01*
X3051029Y-4632179D01*
X3056866Y-4626341D01*
X3062998Y-4622993D01*
X3069968Y-4623491D01*
X3075561Y-4627679D01*
X3075945Y-4628221D01*
X3077821Y-4631029D01*
X3088971Y-4642179D01*
X3088971Y-4642179D01*
X3102081Y-4650939D01*
X3102083Y-4650940D01*
X3116650Y-4656974D01*
X3116650Y-4656974D01*
X3132115Y-4660050D01*
X3132116Y-4660050D01*
X3132116Y-4660050D01*
X3147884Y-4660050D01*
X3147884Y-4660050D01*
X3163350Y-4656974D01*
X3177918Y-4650939D01*
X3191029Y-4642179D01*
X3202179Y-4631029D01*
X3210939Y-4617918D01*
X3216974Y-4603350D01*
X3220050Y-4587884D01*
X3220050Y-4572116D01*
X3220050Y-4572116D01*
X3220050Y-4572115D01*
X3218267Y-4563152D01*
X3216974Y-4556650D01*
X3210953Y-4542116D01*
X3210940Y-4542083D01*
X3210939Y-4542081D01*
X3202179Y-4528971D01*
X3202179Y-4528971D01*
X3191029Y-4517821D01*
X3191029Y-4517821D01*
X3177918Y-4509061D01*
X3177917Y-4509060D01*
X3163350Y-4503026D01*
X3163349Y-4503026D01*
X3147884Y-4499950D01*
X3147884Y-4499950D01*
X3132116Y-4499950D01*
X3132115Y-4499950D01*
X3116651Y-4503026D01*
X3116650Y-4503026D01*
X3102083Y-4509060D01*
X3102081Y-4509061D01*
X3088971Y-4517821D01*
X3083134Y-4523659D01*
X3077001Y-4527007D01*
X3070032Y-4526508D01*
X3064439Y-4522321D01*
X3064055Y-4521779D01*
X3062179Y-4518971D01*
X3062179Y-4518971D01*
X3051029Y-4507821D01*
X3051029Y-4507821D01*
X3037918Y-4499061D01*
X3037917Y-4499060D01*
X3023350Y-4493026D01*
X3023349Y-4493026D01*
X3007884Y-4489950D01*
X3007884Y-4489950D01*
X2992116Y-4489950D01*
X2992115Y-4489950D01*
X2976651Y-4493026D01*
X2976650Y-4493026D01*
X2962083Y-4499060D01*
X2962081Y-4499061D01*
X2954839Y-4503900D01*
X2948171Y-4505988D01*
X2941433Y-4504140D01*
X2936764Y-4498942D01*
X2935550Y-4493590D01*
X2935550Y-4480163D01*
X2935550Y-4480162D01*
X2935431Y-4479060D01*
X2934909Y-4474202D01*
X2934471Y-4473026D01*
X2929880Y-4460717D01*
X2929879Y-4460716D01*
X2921255Y-4449196D01*
X2921254Y-4449195D01*
X2909733Y-4440571D01*
X2909733Y-4440570D01*
X2896248Y-4435541D01*
X2896248Y-4435541D01*
X2890288Y-4434900D01*
X2890288Y-4434900D01*
X2890287Y-4434900D01*
X2890286Y-4434900D01*
X2810713Y-4434900D01*
X2810712Y-4434900D01*
X2804570Y-4435560D01*
X2797694Y-4434320D01*
X2792581Y-4429558D01*
X2791083Y-4425650D01*
X2790858Y-4424517D01*
X2790858Y-4424517D01*
X2785578Y-4411770D01*
X2785577Y-4411769D01*
X2779531Y-4402720D01*
X2777911Y-4400296D01*
X2758834Y-4381218D01*
X2755485Y-4375086D01*
X2755984Y-4368117D01*
X2760171Y-4362523D01*
X2766717Y-4360082D01*
X2767602Y-4360050D01*
X3287550Y-4360050D01*
X3294254Y-4362019D01*
G37*
%TD.AperFunction*%
%TA.AperFunction,Conductor*%
G36*
X4173781Y-3726458D02*
G01*
X4178424Y-3729383D01*
X4193818Y-3744777D01*
X4197167Y-3750909D01*
X4197450Y-3753545D01*
X4197450Y-3783161D01*
X4198091Y-3790219D01*
X4198091Y-3790219D01*
X4198091Y-3790220D01*
X4203152Y-3806461D01*
X4210785Y-3819087D01*
X4211953Y-3821019D01*
X4223981Y-3833047D01*
X4223981Y-3833047D01*
X4223982Y-3833047D01*
X4238539Y-3841848D01*
X4254780Y-3846909D01*
X4261838Y-3847550D01*
X4261839Y-3847550D01*
X4313161Y-3847550D01*
X4313162Y-3847550D01*
X4320220Y-3846909D01*
X4336461Y-3841848D01*
X4351019Y-3833047D01*
X4355686Y-3828379D01*
X4361232Y-3822834D01*
X4367364Y-3819485D01*
X4374333Y-3819984D01*
X4378768Y-3822834D01*
X4388981Y-3833047D01*
X4388981Y-3833047D01*
X4388982Y-3833047D01*
X4403539Y-3841848D01*
X4419780Y-3846909D01*
X4426838Y-3847550D01*
X4428829Y-3847550D01*
X4435533Y-3849518D01*
X4440108Y-3854799D01*
X4441103Y-3861715D01*
X4438200Y-3868070D01*
X4432322Y-3871848D01*
X4431248Y-3872112D01*
X4426651Y-3873026D01*
X4426650Y-3873026D01*
X4412083Y-3879060D01*
X4412081Y-3879061D01*
X4398971Y-3887821D01*
X4398971Y-3887821D01*
X4387821Y-3898971D01*
X4387821Y-3898971D01*
X4379061Y-3912081D01*
X4379060Y-3912083D01*
X4373026Y-3926650D01*
X4373026Y-3926651D01*
X4369950Y-3942115D01*
X4369950Y-3957885D01*
X4373026Y-3973349D01*
X4373026Y-3973350D01*
X4375333Y-3978918D01*
X4376080Y-3985865D01*
X4372952Y-3992113D01*
X4372645Y-3992431D01*
X4296668Y-4068408D01*
X4290536Y-4071757D01*
X4283567Y-4071258D01*
X4277973Y-4067071D01*
X4275532Y-4060525D01*
X4275500Y-4059640D01*
X4275500Y-4043800D01*
X4202900Y-4043800D01*
X4196196Y-4041831D01*
X4191621Y-4036551D01*
X4190500Y-4031400D01*
X4190500Y-4018800D01*
X4177900Y-4018800D01*
X4171196Y-4016831D01*
X4166621Y-4011551D01*
X4165500Y-4006400D01*
X4165500Y-3993800D01*
X4215500Y-3993800D01*
X4275500Y-3993800D01*
X4275500Y-3937767D01*
X4275500Y-3937765D01*
X4274860Y-3931813D01*
X4274860Y-3931812D01*
X4269835Y-3918341D01*
X4269835Y-3918341D01*
X4261219Y-3906831D01*
X4261219Y-3906831D01*
X4249709Y-3898215D01*
X4249709Y-3898214D01*
X4236238Y-3893190D01*
X4236237Y-3893190D01*
X4230284Y-3892550D01*
X4215500Y-3892550D01*
X4215500Y-3993800D01*
X4165500Y-3993800D01*
X4165500Y-3924820D01*
X4167468Y-3918116D01*
X4167590Y-3917931D01*
X4170939Y-3912919D01*
X4170939Y-3912918D01*
X4170939Y-3912918D01*
X4171285Y-3912083D01*
X4173203Y-3907452D01*
X4176974Y-3898350D01*
X4178635Y-3890000D01*
X4179630Y-3884997D01*
X4179630Y-3884995D01*
X4180050Y-3882884D01*
X4180050Y-3867115D01*
X4180050Y-3867115D01*
X4177968Y-3856651D01*
X4176974Y-3851650D01*
X4176324Y-3850082D01*
X4170940Y-3837083D01*
X4170939Y-3837081D01*
X4162179Y-3823971D01*
X4162179Y-3823971D01*
X4151029Y-3812821D01*
X4151029Y-3812821D01*
X4137918Y-3804061D01*
X4137917Y-3804060D01*
X4130263Y-3800890D01*
X4124822Y-3796506D01*
X4122616Y-3789876D01*
X4124344Y-3783106D01*
X4128119Y-3779123D01*
X4129277Y-3778350D01*
X4131029Y-3777179D01*
X4142179Y-3766029D01*
X4150939Y-3752918D01*
X4156974Y-3738350D01*
X4157453Y-3735940D01*
X4157494Y-3735732D01*
X4160733Y-3729541D01*
X4166804Y-3726084D01*
X4173781Y-3726458D01*
G37*
%TD.AperFunction*%
%TA.AperFunction,Conductor*%
G36*
X2370000Y-2995000D02*
G01*
X2365000Y-2995000D01*
X2365000Y-3004507D01*
X2363032Y-3011211D01*
X2357751Y-3015786D01*
X2350835Y-3016781D01*
X2344480Y-3013878D01*
X2342046Y-3011017D01*
X2336297Y-3001696D01*
X2324601Y-2990000D01*
X2366000Y-2990000D01*
X2370000Y-2995000D01*
G37*
%TD.AperFunction*%
%TD*%
M02*
