%TF.GenerationSoftware,KiCad,Pcbnew,9.0.0*%
%TF.CreationDate,2025-04-09T22:07:22+02:00*%
%TF.ProjectId,ESC,4553432e-6b69-4636-9164-5f7063625858,rev?*%
%TF.SameCoordinates,Original*%
%TF.FileFunction,OtherDrawing,Comment*%
%FSLAX45Y45*%
G04 Gerber Fmt 4.5, Leading zero omitted, Abs format (unit mm)*
G04 Created by KiCad (PCBNEW 9.0.0) date 2025-04-09 22:07:22*
%MOMM*%
%LPD*%
G01*
G04 APERTURE LIST*
%ADD10C,0.100000*%
%ADD11C,0.200000*%
G04 APERTURE END LIST*
D10*
%TO.C,SW2*%
X4760000Y-3770000D02*
X5280000Y-3770000D01*
X4760000Y-4490000D02*
X4760000Y-3770000D01*
X4860000Y-3920000D02*
X4860000Y-4340000D01*
X4860000Y-4340000D02*
X5180000Y-4340000D01*
X5180000Y-3920000D02*
X4860000Y-3920000D01*
X5180000Y-4340000D02*
X5180000Y-3920000D01*
X5280000Y-3770000D02*
X5280000Y-4490000D01*
X5280000Y-4490000D02*
X4760000Y-4490000D01*
%TO.C,L2*%
X2166000Y-2731000D02*
X2914000Y-2731000D01*
X2166000Y-3459000D02*
X2166000Y-2731000D01*
D11*
X2266000Y-2831000D02*
X2814000Y-2831000D01*
X2266000Y-3359000D02*
X2266000Y-2831000D01*
X2814000Y-2831000D02*
X2814000Y-3359000D01*
X2814000Y-3359000D02*
X2266000Y-3359000D01*
D10*
X2914000Y-2731000D02*
X2914000Y-3459000D01*
X2914000Y-3459000D02*
X2166000Y-3459000D01*
%TO.C,SW1*%
X5350000Y-3770000D02*
X5870000Y-3770000D01*
X5350000Y-4490000D02*
X5350000Y-3770000D01*
X5450000Y-3920000D02*
X5450000Y-4340000D01*
X5450000Y-4340000D02*
X5770000Y-4340000D01*
X5770000Y-3920000D02*
X5450000Y-3920000D01*
X5770000Y-4340000D02*
X5770000Y-3920000D01*
X5870000Y-3770000D02*
X5870000Y-4490000D01*
X5870000Y-4490000D02*
X5350000Y-4490000D01*
%TO.C,Y1*%
X2883700Y-2792500D02*
X3421300Y-2792500D01*
X2883700Y-3352500D02*
X2883700Y-2792500D01*
D11*
X3058700Y-2912500D02*
X3308700Y-2912500D01*
X3058700Y-3232500D02*
X3058700Y-2912500D01*
X3308700Y-2912500D02*
X3308700Y-3232500D01*
X3308700Y-3232500D02*
X3058700Y-3232500D01*
D10*
X3421300Y-2792500D02*
X3421300Y-3352500D01*
X3421300Y-3352500D02*
X2883700Y-3352500D01*
D11*
%TO.C,Q2*%
X4867500Y-2930000D02*
X4867500Y-3520000D01*
X4867500Y-3520000D02*
X5382500Y-3520000D01*
X5382500Y-2930000D02*
X4867500Y-2930000D01*
X5382500Y-3520000D02*
X5382500Y-2930000D01*
%TD*%
M02*
