%TF.GenerationSoftware,KiCad,Pcbnew,8.0.5*%
%TF.CreationDate,2024-10-20T13:56:42+02:00*%
%TF.ProjectId,Flight_Controller,466c6967-6874-45f4-936f-6e74726f6c6c,rev?*%
%TF.SameCoordinates,Original*%
%TF.FileFunction,Paste,Top*%
%TF.FilePolarity,Positive*%
%FSLAX46Y46*%
G04 Gerber Fmt 4.6, Leading zero omitted, Abs format (unit mm)*
G04 Created by KiCad (PCBNEW 8.0.5) date 2024-10-20 13:56:42*
%MOMM*%
%LPD*%
G01*
G04 APERTURE LIST*
G04 Aperture macros list*
%AMRoundRect*
0 Rectangle with rounded corners*
0 $1 Rounding radius*
0 $2 $3 $4 $5 $6 $7 $8 $9 X,Y pos of 4 corners*
0 Add a 4 corners polygon primitive as box body*
4,1,4,$2,$3,$4,$5,$6,$7,$8,$9,$2,$3,0*
0 Add four circle primitives for the rounded corners*
1,1,$1+$1,$2,$3*
1,1,$1+$1,$4,$5*
1,1,$1+$1,$6,$7*
1,1,$1+$1,$8,$9*
0 Add four rect primitives between the rounded corners*
20,1,$1+$1,$2,$3,$4,$5,0*
20,1,$1+$1,$4,$5,$6,$7,0*
20,1,$1+$1,$6,$7,$8,$9,0*
20,1,$1+$1,$8,$9,$2,$3,0*%
G04 Aperture macros list end*
%ADD10RoundRect,0.200000X0.275000X-0.200000X0.275000X0.200000X-0.275000X0.200000X-0.275000X-0.200000X0*%
%ADD11RoundRect,0.140000X-0.140000X-0.170000X0.140000X-0.170000X0.140000X0.170000X-0.140000X0.170000X0*%
%ADD12RoundRect,0.200000X0.200000X0.275000X-0.200000X0.275000X-0.200000X-0.275000X0.200000X-0.275000X0*%
%ADD13R,4.700000X1.180000*%
%ADD14RoundRect,0.135000X0.135000X0.185000X-0.135000X0.185000X-0.135000X-0.185000X0.135000X-0.185000X0*%
%ADD15RoundRect,0.218750X-0.256250X0.218750X-0.256250X-0.218750X0.256250X-0.218750X0.256250X0.218750X0*%
%ADD16RoundRect,0.200000X-0.275000X0.200000X-0.275000X-0.200000X0.275000X-0.200000X0.275000X0.200000X0*%
%ADD17RoundRect,0.140000X-0.170000X0.140000X-0.170000X-0.140000X0.170000X-0.140000X0.170000X0.140000X0*%
%ADD18R,1.150000X0.600000*%
%ADD19R,1.150000X0.300000*%
%ADD20R,1.500000X1.500000*%
%ADD21O,1.400000X3.000000*%
%ADD22RoundRect,0.250000X0.362500X1.425000X-0.362500X1.425000X-0.362500X-1.425000X0.362500X-1.425000X0*%
%ADD23R,1.100000X0.600000*%
%ADD24RoundRect,0.140000X0.140000X0.170000X-0.140000X0.170000X-0.140000X-0.170000X0.140000X-0.170000X0*%
%ADD25R,1.150000X1.400000*%
%ADD26R,1.180000X4.700000*%
%ADD27RoundRect,0.225000X-0.250000X0.225000X-0.250000X-0.225000X0.250000X-0.225000X0.250000X0.225000X0*%
%ADD28RoundRect,0.250000X0.315000X-0.315000X0.315000X0.315000X-0.315000X0.315000X-0.315000X-0.315000X0*%
%ADD29RoundRect,0.062500X0.062500X-0.375000X0.062500X0.375000X-0.062500X0.375000X-0.062500X-0.375000X0*%
%ADD30RoundRect,0.062500X0.375000X-0.062500X0.375000X0.062500X-0.375000X0.062500X-0.375000X-0.062500X0*%
%ADD31RoundRect,0.140000X0.170000X-0.140000X0.170000X0.140000X-0.170000X0.140000X-0.170000X-0.140000X0*%
%ADD32R,1.400000X1.150000*%
%ADD33O,3.000000X1.400000*%
%ADD34RoundRect,0.218750X0.218750X0.256250X-0.218750X0.256250X-0.218750X-0.256250X0.218750X-0.256250X0*%
%ADD35RoundRect,0.225000X0.250000X-0.225000X0.250000X0.225000X-0.250000X0.225000X-0.250000X-0.225000X0*%
%ADD36R,3.150000X1.800000*%
%ADD37RoundRect,0.200000X-0.200000X-0.275000X0.200000X-0.275000X0.200000X0.275000X-0.200000X0.275000X0*%
%ADD38RoundRect,0.218750X-0.218750X-0.256250X0.218750X-0.256250X0.218750X0.256250X-0.218750X0.256250X0*%
%ADD39RoundRect,0.250000X-0.315000X-0.315000X0.315000X-0.315000X0.315000X0.315000X-0.315000X0.315000X0*%
%ADD40RoundRect,0.062500X-0.375000X-0.062500X0.375000X-0.062500X0.375000X0.062500X-0.375000X0.062500X0*%
%ADD41RoundRect,0.062500X-0.062500X-0.375000X0.062500X-0.375000X0.062500X0.375000X-0.062500X0.375000X0*%
%ADD42R,0.600000X0.200000*%
%ADD43R,0.350000X0.990000*%
%ADD44RoundRect,0.225000X-0.225000X-0.250000X0.225000X-0.250000X0.225000X0.250000X-0.225000X0.250000X0*%
%ADD45R,0.300000X0.350000*%
%ADD46R,0.350000X0.300000*%
%ADD47RoundRect,0.112500X-0.112500X0.187500X-0.112500X-0.187500X0.112500X-0.187500X0.112500X0.187500X0*%
%ADD48R,0.900000X1.000000*%
%ADD49R,1.700000X0.550000*%
%ADD50RoundRect,0.250000X0.900000X-1.000000X0.900000X1.000000X-0.900000X1.000000X-0.900000X-1.000000X0*%
%ADD51RoundRect,0.150000X0.512500X0.150000X-0.512500X0.150000X-0.512500X-0.150000X0.512500X-0.150000X0*%
%ADD52RoundRect,0.225000X0.225000X0.250000X-0.225000X0.250000X-0.225000X-0.250000X0.225000X-0.250000X0*%
%ADD53RoundRect,0.150000X0.150000X-0.512500X0.150000X0.512500X-0.150000X0.512500X-0.150000X-0.512500X0*%
%ADD54RoundRect,0.135000X0.185000X-0.135000X0.185000X0.135000X-0.185000X0.135000X-0.185000X-0.135000X0*%
%ADD55RoundRect,0.250000X0.255000X-0.255000X0.255000X0.255000X-0.255000X0.255000X-0.255000X-0.255000X0*%
%ADD56RoundRect,0.062500X0.062500X-0.350000X0.062500X0.350000X-0.062500X0.350000X-0.062500X-0.350000X0*%
%ADD57RoundRect,0.062500X0.350000X-0.062500X0.350000X0.062500X-0.350000X0.062500X-0.350000X-0.062500X0*%
G04 APERTURE END LIST*
D10*
%TO.C,J_VBAT1*%
X32901500Y-43469000D03*
X32901500Y-41819000D03*
%TD*%
D11*
%TO.C,C21*%
X88370000Y-36427157D03*
X89330000Y-36427157D03*
%TD*%
D12*
%TO.C,R_FBT1*%
X72935000Y-34707157D03*
X71285000Y-34707157D03*
%TD*%
D13*
%TO.C,L2*%
X71950000Y-28752157D03*
X71950000Y-32062157D03*
%TD*%
D14*
%TO.C,L2*%
X25260000Y-28070000D03*
X24240000Y-28070000D03*
%TD*%
D15*
%TO.C,D5*%
X76200000Y-22069657D03*
X76200000Y-23644657D03*
%TD*%
D16*
%TO.C,J_3V3*%
X68200000Y-33432157D03*
X68200000Y-35082157D03*
%TD*%
%TO.C,R11*%
X98350000Y-47232157D03*
X98350000Y-48882157D03*
%TD*%
D17*
%TO.C,C30*%
X20500000Y-30590000D03*
X20500000Y-31550000D03*
%TD*%
D18*
%TO.C,J1*%
X101150000Y-33407157D03*
X101150000Y-32607157D03*
D19*
X101150000Y-31457157D03*
X101150000Y-30457157D03*
X101150000Y-29957157D03*
X101150000Y-28957157D03*
D18*
X101150000Y-27807157D03*
X101150000Y-27007157D03*
D19*
X101150000Y-28457157D03*
X101150000Y-29457157D03*
X101150000Y-30957157D03*
X101150000Y-31957157D03*
D20*
X101725000Y-35327157D03*
X101725000Y-25087157D03*
X105655000Y-35327157D03*
X105655000Y-25087157D03*
%TD*%
D11*
%TO.C,C7*%
X40611500Y-51596000D03*
X41571500Y-51596000D03*
%TD*%
D21*
%TO.C,C24*%
X86550000Y-22957157D03*
X84550000Y-22957157D03*
X82550000Y-22957157D03*
X80550000Y-22957157D03*
%TD*%
D18*
%TO.C,J1*%
X83210000Y-87800000D03*
X83210000Y-87000000D03*
D19*
X83210000Y-85850000D03*
X83210000Y-84850000D03*
X83210000Y-84350000D03*
X83210000Y-83350000D03*
D18*
X83210000Y-82200000D03*
X83210000Y-81400000D03*
D19*
X83210000Y-82850000D03*
X83210000Y-83850000D03*
X83210000Y-85350000D03*
X83210000Y-86350000D03*
D20*
X83785000Y-89720000D03*
X83785000Y-79480000D03*
X87715000Y-89720000D03*
X87715000Y-79480000D03*
%TD*%
D16*
%TO.C,R20*%
X75350000Y-47632157D03*
X75350000Y-49282157D03*
%TD*%
D12*
%TO.C,R16*%
X22825000Y-36820000D03*
X21175000Y-36820000D03*
%TD*%
D10*
%TO.C,R13*%
X42676000Y-61625000D03*
X42676000Y-59975000D03*
%TD*%
D12*
%TO.C,R17*%
X20825000Y-29320000D03*
X19175000Y-29320000D03*
%TD*%
D10*
%TO.C,R16*%
X83750000Y-48982157D03*
X83750000Y-47332157D03*
%TD*%
D22*
%TO.C,R1*%
X105482500Y-52057157D03*
X99557500Y-52057157D03*
%TD*%
D17*
%TO.C,C6*%
X32647500Y-47244000D03*
X32647500Y-48204000D03*
%TD*%
D23*
%TO.C,Y2*%
X30000000Y-31270000D03*
X30000000Y-29870000D03*
%TD*%
D11*
%TO.C,C15*%
X26895500Y-47786000D03*
X27855500Y-47786000D03*
%TD*%
D24*
%TO.C,C20*%
X84530000Y-26407157D03*
X83570000Y-26407157D03*
%TD*%
D11*
%TO.C,C33*%
X29020000Y-28500000D03*
X29980000Y-28500000D03*
%TD*%
D24*
%TO.C,C16*%
X27601500Y-42452000D03*
X26641500Y-42452000D03*
%TD*%
D12*
%TO.C,R_FBB1*%
X76175000Y-34707157D03*
X74525000Y-34707157D03*
%TD*%
%TO.C,R5*%
X87225000Y-76800000D03*
X85575000Y-76800000D03*
%TD*%
D25*
%TO.C,Y1*%
X26359500Y-44062000D03*
X26359500Y-46262000D03*
X27960500Y-46262000D03*
X27960500Y-44062000D03*
%TD*%
D10*
%TO.C,R22*%
X69950000Y-49282157D03*
X69950000Y-47632157D03*
%TD*%
D26*
%TO.C,L1*%
X43557000Y-26162000D03*
X46867000Y-26162000D03*
%TD*%
D16*
%TO.C,R21*%
X71850000Y-47632157D03*
X71850000Y-49282157D03*
%TD*%
D27*
%TO.C,C14*%
X31123500Y-47470000D03*
X31123500Y-49020000D03*
%TD*%
D28*
%TO.C,U1*%
X53400000Y-102300000D03*
X54800000Y-102300000D03*
X56200000Y-102300000D03*
X57600000Y-102300000D03*
X53400000Y-100900000D03*
X54800000Y-100900000D03*
X56200000Y-100900000D03*
X57600000Y-100900000D03*
X53400000Y-99500000D03*
X54800000Y-99500000D03*
X56200000Y-99500000D03*
X57600000Y-99500000D03*
X53400000Y-98100000D03*
X54800000Y-98100000D03*
X56200000Y-98100000D03*
X57600000Y-98100000D03*
D29*
X52750000Y-103637500D03*
X53250000Y-103637500D03*
X53750000Y-103637500D03*
X54250000Y-103637500D03*
X54750000Y-103637500D03*
X55250000Y-103637500D03*
X55750000Y-103637500D03*
X56250000Y-103637500D03*
X56750000Y-103637500D03*
X57250000Y-103637500D03*
X57750000Y-103637500D03*
X58250000Y-103637500D03*
D30*
X58937500Y-102950000D03*
X58937500Y-102450000D03*
X58937500Y-101950000D03*
X58937500Y-101450000D03*
X58937500Y-100950000D03*
X58937500Y-100450000D03*
X58937500Y-99950000D03*
X58937500Y-99450000D03*
X58937500Y-98950000D03*
X58937500Y-98450000D03*
X58937500Y-97950000D03*
X58937500Y-97450000D03*
D29*
X58250000Y-96762500D03*
X57750000Y-96762500D03*
X57250000Y-96762500D03*
X56750000Y-96762500D03*
X56250000Y-96762500D03*
X55750000Y-96762500D03*
X55250000Y-96762500D03*
X54750000Y-96762500D03*
X54250000Y-96762500D03*
X53750000Y-96762500D03*
X53250000Y-96762500D03*
X52750000Y-96762500D03*
D30*
X52062500Y-97450000D03*
X52062500Y-97950000D03*
X52062500Y-98450000D03*
X52062500Y-98950000D03*
X52062500Y-99450000D03*
X52062500Y-99950000D03*
X52062500Y-100450000D03*
X52062500Y-100950000D03*
X52062500Y-101450000D03*
X52062500Y-101950000D03*
X52062500Y-102450000D03*
X52062500Y-102950000D03*
%TD*%
D16*
%TO.C,R_FBT1*%
X47862000Y-30163000D03*
X47862000Y-31813000D03*
%TD*%
%TO.C,R_FBB1*%
X49132000Y-26353000D03*
X49132000Y-28003000D03*
%TD*%
D31*
%TO.C,C23*%
X91200000Y-29337157D03*
X91200000Y-28377157D03*
%TD*%
D11*
%TO.C,C35*%
X24270000Y-23070000D03*
X25230000Y-23070000D03*
%TD*%
D16*
%TO.C,R14*%
X28000000Y-29745000D03*
X28000000Y-31395000D03*
%TD*%
D32*
%TO.C,Y1*%
X53000000Y-108700000D03*
X55200000Y-108700000D03*
X55200000Y-107099000D03*
X53000000Y-107099000D03*
%TD*%
D33*
%TO.C,C27*%
X17400000Y-43725000D03*
X17400000Y-45725000D03*
X17400000Y-47725000D03*
X17400000Y-49725000D03*
D21*
X27900000Y-60475000D03*
X29900000Y-60475000D03*
X31900000Y-60475000D03*
X33900000Y-60475000D03*
%TD*%
D15*
%TO.C,D6*%
X78150000Y-22019657D03*
X78150000Y-23594657D03*
%TD*%
D34*
%TO.C,D4*%
X49937500Y-48300000D03*
X48362500Y-48300000D03*
%TD*%
D16*
%TO.C,R7*%
X22950000Y-54075000D03*
X22950000Y-55725000D03*
%TD*%
D17*
%TO.C,C6*%
X50000000Y-102120000D03*
X50000000Y-103080000D03*
%TD*%
%TO.C,C19*%
X81450000Y-31697157D03*
X81450000Y-32657157D03*
%TD*%
D11*
%TO.C,C32*%
X29020000Y-32570000D03*
X29980000Y-32570000D03*
%TD*%
D10*
%TO.C,R12*%
X41152000Y-61625000D03*
X41152000Y-59975000D03*
%TD*%
D34*
%TO.C,D1*%
X83900000Y-76800000D03*
X82325000Y-76800000D03*
%TD*%
D12*
%TO.C,J2*%
X38325000Y-38400000D03*
X36675000Y-38400000D03*
%TD*%
D35*
%TO.C,C14*%
X62700000Y-98475000D03*
X62700000Y-96925000D03*
%TD*%
D11*
%TO.C,C7*%
X56120000Y-105800000D03*
X57080000Y-105800000D03*
%TD*%
D12*
%TO.C,R1*%
X47837500Y-98700000D03*
X46187500Y-98700000D03*
%TD*%
D36*
%TO.C,C16*%
X71100000Y-41157157D03*
X76200000Y-41157157D03*
%TD*%
D37*
%TO.C,R15*%
X19675000Y-35070000D03*
X21325000Y-35070000D03*
%TD*%
D38*
%TO.C,D3*%
X36804500Y-24892000D03*
X38379500Y-24892000D03*
%TD*%
D10*
%TO.C,R12*%
X96550000Y-48882157D03*
X96550000Y-47232157D03*
%TD*%
D27*
%TO.C,C4*%
X48300000Y-101525000D03*
X48300000Y-103075000D03*
%TD*%
D39*
%TO.C,U2*%
X35881500Y-44608000D03*
X35881500Y-46008000D03*
X35881500Y-47408000D03*
X35881500Y-48808000D03*
X37281500Y-44608000D03*
X37281500Y-46008000D03*
X37281500Y-47408000D03*
X37281500Y-48808000D03*
X38681500Y-44608000D03*
X38681500Y-46008000D03*
X38681500Y-47408000D03*
X38681500Y-48808000D03*
X40081500Y-44608000D03*
X40081500Y-46008000D03*
X40081500Y-47408000D03*
X40081500Y-48808000D03*
D40*
X34544000Y-43958000D03*
X34544000Y-44458000D03*
X34544000Y-44958000D03*
X34544000Y-45458000D03*
X34544000Y-45958000D03*
X34544000Y-46458000D03*
X34544000Y-46958000D03*
X34544000Y-47458000D03*
X34544000Y-47958000D03*
X34544000Y-48458000D03*
X34544000Y-48958000D03*
X34544000Y-49458000D03*
D41*
X35231500Y-50145500D03*
X35731500Y-50145500D03*
X36231500Y-50145500D03*
X36731500Y-50145500D03*
X37231500Y-50145500D03*
X37731500Y-50145500D03*
X38231500Y-50145500D03*
X38731500Y-50145500D03*
X39231500Y-50145500D03*
X39731500Y-50145500D03*
X40231500Y-50145500D03*
X40731500Y-50145500D03*
D40*
X41419000Y-49458000D03*
X41419000Y-48958000D03*
X41419000Y-48458000D03*
X41419000Y-47958000D03*
X41419000Y-47458000D03*
X41419000Y-46958000D03*
X41419000Y-46458000D03*
X41419000Y-45958000D03*
X41419000Y-45458000D03*
X41419000Y-44958000D03*
X41419000Y-44458000D03*
X41419000Y-43958000D03*
D41*
X40731500Y-43270500D03*
X40231500Y-43270500D03*
X39731500Y-43270500D03*
X39231500Y-43270500D03*
X38731500Y-43270500D03*
X38231500Y-43270500D03*
X37731500Y-43270500D03*
X37231500Y-43270500D03*
X36731500Y-43270500D03*
X36231500Y-43270500D03*
X35731500Y-43270500D03*
X35231500Y-43270500D03*
%TD*%
D31*
%TO.C,C34*%
X24250000Y-25050000D03*
X24250000Y-24090000D03*
%TD*%
D42*
%TO.C,IC1*%
X78250000Y-82700000D03*
X78250000Y-83100000D03*
X78250000Y-83500000D03*
X79550000Y-83500000D03*
X79550000Y-83100000D03*
X79550000Y-82700000D03*
D43*
X78900000Y-83100000D03*
%TD*%
D44*
%TO.C,C5*%
X44625000Y-31750000D03*
X46175000Y-31750000D03*
%TD*%
D38*
%TO.C,D2*%
X46212500Y-96900000D03*
X47787500Y-96900000D03*
%TD*%
D45*
%TO.C,IC4*%
X47994000Y-53606000D03*
X47494000Y-53606000D03*
X46994000Y-53606000D03*
X46494000Y-53606000D03*
D46*
X46494000Y-54106000D03*
X46494000Y-54606000D03*
D45*
X46494000Y-55106000D03*
X46994000Y-55106000D03*
X47494000Y-55106000D03*
X47994000Y-55106000D03*
D46*
X47994000Y-54606000D03*
X47994000Y-54106000D03*
%TD*%
D25*
%TO.C,Y1*%
X77587000Y-29082157D03*
X77587000Y-31282157D03*
X79188000Y-31282157D03*
X79188000Y-29082157D03*
%TD*%
D35*
%TO.C,C2*%
X76600000Y-84375000D03*
X76600000Y-82825000D03*
%TD*%
D17*
%TO.C,C29*%
X19500000Y-30590000D03*
X19500000Y-31550000D03*
%TD*%
D37*
%TO.C,R5*%
X33211000Y-23114000D03*
X34861000Y-23114000D03*
%TD*%
D47*
%TO.C,D2*%
X50148000Y-30150000D03*
X50148000Y-32250000D03*
%TD*%
D12*
%TO.C,J_3V1*%
X47825000Y-33400000D03*
X46175000Y-33400000D03*
%TD*%
D35*
%TO.C,C1*%
X100150000Y-48832157D03*
X100150000Y-47282157D03*
%TD*%
D48*
%TO.C,S3*%
X41500000Y-107600000D03*
X41500000Y-106000000D03*
X45600000Y-106000000D03*
X45600000Y-107600000D03*
D49*
X43550000Y-108225000D03*
%TD*%
D35*
%TO.C,C17*%
X73650000Y-49232157D03*
X73650000Y-47682157D03*
%TD*%
D36*
%TO.C,C2*%
X98300000Y-41057157D03*
X103400000Y-41057157D03*
%TD*%
D31*
%TO.C,C8*%
X43061500Y-44280000D03*
X43061500Y-43320000D03*
%TD*%
D12*
%TO.C,R12*%
X63825000Y-105000000D03*
X62175000Y-105000000D03*
%TD*%
D16*
%TO.C,R14*%
X89150000Y-47332157D03*
X89150000Y-48982157D03*
%TD*%
D22*
%TO.C,R13*%
X92812500Y-52057157D03*
X86887500Y-52057157D03*
%TD*%
D36*
%TO.C,C8*%
X84800000Y-41157157D03*
X89900000Y-41157157D03*
%TD*%
D50*
%TO.C,D7*%
X96250000Y-56207157D03*
X96250000Y-51907157D03*
%TD*%
D44*
%TO.C,C10*%
X44625000Y-30200000D03*
X46175000Y-30200000D03*
%TD*%
D38*
%TO.C,D1*%
X36804500Y-23114000D03*
X38379500Y-23114000D03*
%TD*%
D39*
%TO.C,U1*%
X84300000Y-29477157D03*
X84300000Y-30877157D03*
X84300000Y-32277157D03*
X84300000Y-33677157D03*
X85700000Y-29477157D03*
X85700000Y-30877157D03*
X85700000Y-32277157D03*
X85700000Y-33677157D03*
X87100000Y-29477157D03*
X87100000Y-30877157D03*
X87100000Y-32277157D03*
X87100000Y-33677157D03*
X88500000Y-29477157D03*
X88500000Y-30877157D03*
X88500000Y-32277157D03*
X88500000Y-33677157D03*
D40*
X82962500Y-28827157D03*
X82962500Y-29327157D03*
X82962500Y-29827157D03*
X82962500Y-30327157D03*
X82962500Y-30827157D03*
X82962500Y-31327157D03*
X82962500Y-31827157D03*
X82962500Y-32327157D03*
X82962500Y-32827157D03*
X82962500Y-33327157D03*
X82962500Y-33827157D03*
X82962500Y-34327157D03*
D41*
X83650000Y-35014657D03*
X84150000Y-35014657D03*
X84650000Y-35014657D03*
X85150000Y-35014657D03*
X85650000Y-35014657D03*
X86150000Y-35014657D03*
X86650000Y-35014657D03*
X87150000Y-35014657D03*
X87650000Y-35014657D03*
X88150000Y-35014657D03*
X88650000Y-35014657D03*
X89150000Y-35014657D03*
D40*
X89837500Y-34327157D03*
X89837500Y-33827157D03*
X89837500Y-33327157D03*
X89837500Y-32827157D03*
X89837500Y-32327157D03*
X89837500Y-31827157D03*
X89837500Y-31327157D03*
X89837500Y-30827157D03*
X89837500Y-30327157D03*
X89837500Y-29827157D03*
X89837500Y-29327157D03*
X89837500Y-28827157D03*
D41*
X89150000Y-28139657D03*
X88650000Y-28139657D03*
X88150000Y-28139657D03*
X87650000Y-28139657D03*
X87150000Y-28139657D03*
X86650000Y-28139657D03*
X86150000Y-28139657D03*
X85650000Y-28139657D03*
X85150000Y-28139657D03*
X84650000Y-28139657D03*
X84150000Y-28139657D03*
X83650000Y-28139657D03*
%TD*%
D12*
%TO.C,R11*%
X63825000Y-106600000D03*
X62175000Y-106600000D03*
%TD*%
D31*
%TO.C,C31*%
X20500000Y-33550000D03*
X20500000Y-32590000D03*
%TD*%
D37*
%TO.C,J_VUSB1*%
X43252500Y-42136000D03*
X44902500Y-42136000D03*
%TD*%
D51*
%TO.C,U1*%
X54229500Y-45318000D03*
X54229500Y-44368000D03*
X54229500Y-43418000D03*
X51954500Y-43418000D03*
X51954500Y-44368000D03*
X51954500Y-45318000D03*
%TD*%
D14*
%TO.C,L3*%
X26260000Y-27070000D03*
X25240000Y-27070000D03*
%TD*%
D52*
%TO.C,C4*%
X36216500Y-40104000D03*
X34666500Y-40104000D03*
%TD*%
D31*
%TO.C,C15*%
X56700000Y-108580000D03*
X56700000Y-107620000D03*
%TD*%
D53*
%TO.C,U4*%
X91000000Y-48994657D03*
X91950000Y-48994657D03*
X92900000Y-48994657D03*
X92900000Y-46719657D03*
X91000000Y-46719657D03*
%TD*%
D12*
%TO.C,J_VBAT1*%
X50225000Y-104800000D03*
X48575000Y-104800000D03*
%TD*%
D50*
%TO.C,D8*%
X83350000Y-56207157D03*
X83350000Y-51907157D03*
%TD*%
D37*
%TO.C,R18*%
X48325000Y-49950000D03*
X49975000Y-49950000D03*
%TD*%
D33*
%TO.C,C28*%
X59944000Y-33768000D03*
X59944000Y-31768000D03*
X59944000Y-29768000D03*
X59944000Y-27768000D03*
D21*
X49444000Y-17018000D03*
X47444000Y-17018000D03*
X45444000Y-17018000D03*
X43444000Y-17018000D03*
%TD*%
D16*
%TO.C,R15*%
X85550000Y-47332157D03*
X85550000Y-48982157D03*
%TD*%
D31*
%TO.C,C37*%
X26250000Y-26050000D03*
X26250000Y-25090000D03*
%TD*%
D16*
%TO.C,R4*%
X101920000Y-47232157D03*
X101920000Y-48882157D03*
%TD*%
D18*
%TO.C,J1*%
X57629500Y-47522000D03*
X57629500Y-46722000D03*
D19*
X57629500Y-45572000D03*
X57629500Y-44572000D03*
X57629500Y-44072000D03*
X57629500Y-43072000D03*
D18*
X57629500Y-41922000D03*
X57629500Y-41122000D03*
D19*
X57629500Y-42572000D03*
X57629500Y-43572000D03*
X57629500Y-45072000D03*
X57629500Y-46072000D03*
D20*
X58204500Y-49442000D03*
X58204500Y-39202000D03*
X62134500Y-49442000D03*
X62134500Y-39202000D03*
%TD*%
D12*
%TO.C,R11*%
X48425000Y-61000000D03*
X46775000Y-61000000D03*
%TD*%
D31*
%TO.C,C9*%
X60700000Y-98280000D03*
X60700000Y-97320000D03*
%TD*%
D54*
%TO.C,L4*%
X24250000Y-27080000D03*
X24250000Y-26060000D03*
%TD*%
D37*
%TO.C,J_VUSB1*%
X51275000Y-93900000D03*
X52925000Y-93900000D03*
%TD*%
D22*
%TO.C,R19*%
X79012500Y-52257157D03*
X73087500Y-52257157D03*
%TD*%
D37*
%TO.C,R6*%
X42175000Y-98700000D03*
X43825000Y-98700000D03*
%TD*%
D10*
%TO.C,J_BOOT1*%
X50300000Y-100725000D03*
X50300000Y-99075000D03*
%TD*%
D34*
%TO.C,D3*%
X43687500Y-96900000D03*
X42112500Y-96900000D03*
%TD*%
D35*
%TO.C,C21*%
X44450000Y-54946000D03*
X44450000Y-53396000D03*
%TD*%
D24*
%TO.C,C8*%
X53180000Y-95400000D03*
X52220000Y-95400000D03*
%TD*%
D11*
%TO.C,C26*%
X77865000Y-32807157D03*
X78825000Y-32807157D03*
%TD*%
D24*
%TO.C,C27*%
X78780000Y-27557157D03*
X77820000Y-27557157D03*
%TD*%
D53*
%TO.C,U3*%
X103700000Y-48919657D03*
X104650000Y-48919657D03*
X105600000Y-48919657D03*
X105600000Y-46644657D03*
X103700000Y-46644657D03*
%TD*%
D24*
%TO.C,C9*%
X35880000Y-41300000D03*
X34920000Y-41300000D03*
%TD*%
D51*
%TO.C,U2*%
X78837500Y-89150000D03*
X78837500Y-88200000D03*
X78837500Y-87250000D03*
X76562500Y-87250000D03*
X76562500Y-88200000D03*
X76562500Y-89150000D03*
%TD*%
D27*
%TO.C,C12*%
X66560000Y-30357157D03*
X66560000Y-31907157D03*
%TD*%
D17*
%TO.C,C16*%
X51500000Y-107620000D03*
X51500000Y-108580000D03*
%TD*%
D27*
%TO.C,C11*%
X68210000Y-30357157D03*
X68210000Y-31907157D03*
%TD*%
D10*
%TO.C,R10*%
X44200000Y-61625000D03*
X44200000Y-59975000D03*
%TD*%
D37*
%TO.C,R6*%
X33211000Y-24892000D03*
X34861000Y-24892000D03*
%TD*%
D35*
%TO.C,C9*%
X87350000Y-48932157D03*
X87350000Y-47382157D03*
%TD*%
D50*
%TO.C,D9*%
X69450000Y-56207157D03*
X69450000Y-51907157D03*
%TD*%
D10*
%TO.C,J_VBAT1*%
X81450000Y-28482157D03*
X81450000Y-26832157D03*
%TD*%
D44*
%TO.C,C1*%
X78325000Y-81225000D03*
X79875000Y-81225000D03*
%TD*%
D53*
%TO.C,U5*%
X77200000Y-49179657D03*
X78150000Y-49179657D03*
X79100000Y-49179657D03*
X79100000Y-46904657D03*
X77200000Y-46904657D03*
%TD*%
D17*
%TO.C,C36*%
X27250000Y-25090000D03*
X27250000Y-26050000D03*
%TD*%
D55*
%TO.C,U5*%
X23625000Y-32125000D03*
X24875000Y-32125000D03*
X23625000Y-30875000D03*
X24875000Y-30875000D03*
D56*
X23250000Y-33437500D03*
X23750000Y-33437500D03*
X24250000Y-33437500D03*
X24750000Y-33437500D03*
X25250000Y-33437500D03*
D57*
X26187500Y-32500000D03*
X26187500Y-32000000D03*
X26187500Y-31500000D03*
X26187500Y-31000000D03*
X26187500Y-30500000D03*
D56*
X25250000Y-29562500D03*
X24750000Y-29562500D03*
X24250000Y-29562500D03*
X23750000Y-29562500D03*
X23250000Y-29562500D03*
D57*
X22312500Y-30500000D03*
X22312500Y-31000000D03*
X22312500Y-31500000D03*
X22312500Y-32000000D03*
X22312500Y-32500000D03*
%TD*%
D10*
%TO.C,R8*%
X24600000Y-55725000D03*
X24600000Y-54075000D03*
%TD*%
D51*
%TO.C,U2*%
X98297500Y-30997157D03*
X98297500Y-30047157D03*
X98297500Y-29097157D03*
X96022500Y-29097157D03*
X96022500Y-30047157D03*
X96022500Y-30997157D03*
%TD*%
M02*
